<svg width="709" height="354" viewBox="0 0 709 354" fill="none" xmlns="http://www.w3.org/2000/svg">
<path d="M317.81 354H339.606C336.607 334.286 333.47 324.336 331.117 329.191C330.183 331.037 329.917 330.82 328.583 327.671C324.27 317.194 320.387 328.259 317.81 354Z" fill="url(#paint0_linear_50_36)"/>
<path d="M351.04 354H389.612C390.289 336.076 389.511 314.368 387.52 305.407C382.586 283.904 370.452 258.057 362.052 251.758L358.585 249.151V251.649C358.585 253.061 360.318 261.315 362.585 270.003C368.052 291.941 369.252 301.606 369.252 321.806V322.715C369.253 336.577 369.253 343.059 367.563 343.366C366.079 343.635 363.293 339.147 358.06 330.717L357.651 330.06C347.384 313.335 336.584 299.326 333.384 298.565C331.917 298.131 331.783 299.108 332.583 303.344C333.488 308.502 335.27 313.455 351.04 354Z" fill="url(#paint1_linear_50_36)"/>
<path d="M403.109 354H427L426.988 353.735C426.055 335.273 420.988 315.073 413.521 299.543C407.787 287.814 399.254 276.193 396.853 276.953C395.92 277.171 395.387 277.822 395.387 278.365C395.52 278.908 396.053 281.189 396.453 283.47C397.12 286.402 396.987 287.488 396.053 286.945C393.787 285.859 394.32 289.117 398.853 306.602C402.987 322.349 403.12 323.544 403.12 348.305C403.12 350.343 403.117 352.235 403.109 354Z" fill="url(#paint2_linear_50_36)"/>
<path d="M429.815 354H457.71C460.992 343.715 467.005 327.825 477.257 301.606C482.324 288.791 487.924 273.913 489.791 268.591C493.391 258.817 494.191 251.649 492.058 251.649C487.791 251.649 464.724 284.556 450.589 310.837C447.389 316.81 444.056 322.132 443.256 322.784C442.322 323.327 440.856 326.259 440.056 329.3C439.122 332.232 435.922 340.377 432.855 347.219L429.815 354Z" fill="url(#paint3_linear_50_36)"/>
<path d="M466.447 354H508.772C508.216 348.327 507.591 342.265 506.992 336.902C506.8 334.981 506.622 333.21 506.456 331.574L506.423 331.249C505.04 317.55 504.626 313.454 505.423 309.52C505.763 307.842 506.323 306.194 507.122 303.842C507.291 303.347 507.469 302.822 507.659 302.258C509.259 297.479 510.592 292.049 510.592 290.312L510.459 286.945L506.059 291.072L501.525 295.199L499.925 291.398C499.125 289.225 497.525 287.488 496.591 287.488C494.191 287.488 490.991 296.285 489.791 306.276C489.124 311.923 487.391 316.159 482.324 324.738C478.116 331.783 471.768 343.538 466.447 354Z" fill="url(#paint4_linear_50_36)"/>
<path d="M512.437 354H546.716C543.825 319.217 539.876 297.379 535.927 296.502C534.327 296.176 533.393 293.352 532.06 283.904C530.193 271.198 526.86 260.772 524.593 261.097C519.219 261.738 514.619 296.9 512.437 354Z" fill="url(#paint5_linear_50_36)"/>
<path d="M569.03 354H587.055C586.844 342.879 586.085 338.394 583.662 329.3C578.729 310.729 569.929 293.461 562.728 288.14C561.177 286.996 560.485 286.486 560.176 286.61C559.928 286.71 559.928 287.22 559.928 288.14C559.928 289.226 561.795 297.262 564.061 305.95C567.262 318.44 568.195 325.499 568.862 340.16C569.053 344.951 569.116 349.525 569.03 354Z" fill="url(#paint6_linear_50_36)"/>
<path d="M598.767 354H610.134C612.385 339.041 612.351 335.028 610.197 335.49C608.035 336.018 603.341 344.035 598.767 354Z" fill="url(#paint7_linear_50_36)"/>
<path d="M625.144 354H665.543C663.228 348.838 661.06 344.302 659.266 340.92C655.666 334.295 655.666 333.97 657.266 325.824C658.999 317.028 666.999 289.334 675.933 261.423C678.866 252.192 681 243.938 680.6 243.287C679.4 240.572 677.133 241.984 671.4 249.151C651.676 274.116 633.284 315.897 625.144 354Z" fill="url(#paint8_linear_50_36)"/>
<path d="M671.798 354H684.907C679.098 341.504 670.752 326.966 668.333 325.39C665.274 323.297 666.257 331.631 671.798 354Z" fill="url(#paint9_linear_50_36)"/>
<path d="M688.615 354H708.324C703.336 340.761 697.635 327.768 691.267 315.181C685.534 303.887 679 294.004 677.133 294.004C674.6 294.004 676.2 304.104 683.934 334.947C685.682 341.98 687.304 348.567 688.615 354Z" fill="url(#paint10_linear_50_36)"/>
<path d="M93.063 354H84.4194L87.0486 349.717C88.5153 347.219 90.6488 344.613 91.7156 343.852C93.5866 342.606 94.0473 345.556 93.063 354Z" fill="url(#paint11_linear_50_36)"/>
<path d="M84.2485 354V347.436C84.2485 341.029 84.115 340.594 81.5816 341.246C79.1814 341.898 78.9149 341.463 78.9149 337.771C78.9149 332.992 75.7149 314.53 73.5814 306.493C71.7147 299.434 70.2479 297.371 68.1144 299.108C64.3201 302.199 61.5803 320.318 59.7073 354H84.2485Z" fill="url(#paint12_linear_50_36)"/>
<path d="M39.5259 354C40.3504 349.044 41.2617 343.853 42.2466 338.531C44.78 324.847 44.9135 315.399 42.5134 315.942C39.0466 316.919 29.4459 334.513 23.179 351.455L22.2364 354H39.5259Z" fill="url(#paint13_linear_50_36)"/>
<path d="M18.5468 354L15.7119 348.197C9.44495 335.164 2.64457 324.847 0.911144 325.499C-0.979933 326.32 -0.129289 331.996 5.37875 354H18.5468Z" fill="url(#paint14_linear_50_36)"/>
<path fill-rule="evenodd" clip-rule="evenodd" d="M102.45 4.05999C102.056 2.26561 101.838 0.602522 101.969 0.383702C102.275 -0.0977191 103.019 -0.141501 103.019 0.339921C103.019 0.558741 104.2 2.48447 105.644 4.67271C108.006 8.30522 108.574 8.87416 111.899 10.8874C113.868 12.1128 116.142 13.6883 116.886 14.3886C118.286 15.6578 120.342 19.4653 122.31 24.2358C123.01 25.9864 124.323 27.9121 126.204 29.9253C127.778 31.6321 130.972 35.4835 133.334 38.4157C135.696 41.3918 137.752 43.7114 137.883 43.5801C138.408 43.0549 139.764 35.1771 140.202 29.9253C140.464 26.8179 140.814 19.9468 140.989 14.6512C141.252 6.68587 141.427 5.02283 141.908 5.02283C142.389 5.02283 142.783 6.24828 143.351 9.53066C143.789 11.9815 144.795 15.7453 145.626 17.846C148.426 25.0673 149.738 29.0937 151.488 36.315C153.5 44.3678 155.819 55.6155 156.344 59.9482C156.825 63.7558 156.169 68.7451 154.856 71.371C153.457 74.0407 153.5 74.3908 155.031 75.7476C156.737 77.2793 157.306 79.5989 157.394 85.7698L157.481 90.8903L159.974 85.8136C163.43 78.7236 167.28 72.9903 171.217 69.139C180.01 60.4297 187.971 56.4908 200.132 54.9153C202.888 54.5214 208.4 53.646 212.381 52.9458C220.517 51.5015 223.098 51.3265 230.316 51.8079C233.247 51.983 242.258 51.8517 251.97 51.5016C268.286 50.8889 272.967 51.0202 278.217 52.0705C282.81 52.9896 284.122 53.3835 284.122 53.9962C284.122 54.4776 282.372 54.6527 275.942 54.8715C262.643 55.3091 255.469 55.9656 250.657 57.1911C248.251 57.76 242.74 58.9854 238.409 59.8169L230.535 61.3925L214.349 61.6551C203.121 61.8641 199.094 61.8392 195.421 62.9672C192.94 63.7289 190.62 65.0165 186.353 67.257C180.447 70.3206 179.397 71.0646 175.81 74.6096C171.567 78.8111 166.274 86.295 163.868 91.4593C162.424 94.6104 158.137 109.972 156.781 116.974C155.775 122.051 154.2 131.986 154.2 133.168C154.2 133.824 155.381 133.386 160.674 130.585C168.723 126.384 171.217 124.765 174.06 122.095C179.485 116.974 188.846 114.524 195.102 116.537C196.326 116.931 197.77 117.281 198.382 117.368C200.263 117.587 199.957 118.813 197.857 119.425C192.521 121.001 189.065 122.533 185.74 124.808C183.028 126.647 181.366 127.434 179.616 127.784C174.716 128.747 173.71 129.666 171.961 135.049C171.173 137.413 169.423 139.382 165.968 141.702C161.987 144.371 159.275 147.96 156.825 153.737C155.6 156.67 154.156 160.565 153.675 162.359C152.713 166.079 152.538 172.031 153.325 175.926C153.588 177.239 153.894 181.878 154.025 186.211C154.288 196.627 154.9 202.273 156.431 208.094C157.131 210.72 158.181 215.753 158.793 219.254C159.281 222.042 160.018 225.996 160.586 229.038C160.731 229.816 160.865 230.534 160.981 231.158C161.593 234.178 162.074 237.329 162.074 238.161C162.074 238.948 162.687 241.093 163.474 242.887C164.655 245.644 164.918 246.957 165.18 251.203C165.355 253.96 165.836 257.198 166.23 258.336C166.974 260.437 166.974 260.437 167.674 259.431C168.024 258.862 169.03 257.68 169.905 256.761C171.217 255.36 171.392 255.01 170.954 254.31C170.561 253.653 170.561 253.347 170.998 252.997C171.392 252.647 172.092 252.953 173.71 254.004C175.898 255.492 177.91 256.279 185.346 258.599C190.552 260.218 193.264 261.706 199.695 266.564C205.513 270.941 210.718 275.405 217.193 281.62C222.661 286.871 223.404 287.353 229.66 289.672C232.285 290.679 236.703 292.692 239.459 294.136L244.446 296.762L244.227 294.224C243.746 289.016 236.528 262.231 234.472 257.942C232.197 253.26 224.935 247.614 216.011 243.587C206.65 239.386 205.032 238.379 192.302 229.014C192.171 228.926 192.302 228.664 192.564 228.401C192.914 228.051 194.708 228.488 198.864 229.933C202.101 231.027 207.088 232.515 209.975 233.215C218.33 235.316 228.916 238.773 232.766 240.655C234.909 241.749 237.403 243.456 239.24 245.119C241.646 247.351 242.127 247.614 241.952 246.782C241.821 246.213 241.602 244.55 241.471 243.106C240.99 238.642 237.84 220.436 236.921 216.716C235.609 211.464 234.297 209.144 226.991 198.903C226.296 197.934 225.276 196.5 224.245 195.048C223.459 193.943 222.666 192.828 222.005 191.901C213.081 179.252 202.669 170.587 192.389 167.129C189.546 166.21 186.615 165.029 185.871 164.591C185.128 164.153 183.115 161.878 181.366 159.558C178.172 155.313 176.466 153.912 172.923 152.687C172.004 152.381 171.261 151.987 171.261 151.812C171.261 150.893 172.617 151.068 177.516 152.687C180.447 153.65 184.734 154.919 187.009 155.532C192.564 156.976 192.871 157.107 196.326 159.646C198.557 161.309 199.913 162.009 201.794 162.359C212.774 164.46 221.917 166.954 224.629 168.617C225.46 169.143 227.298 170.587 228.654 171.9L231.147 174.263L230.71 172.775C230.542 172.169 229.985 169.881 229.339 167.225C229.145 166.427 228.943 165.595 228.741 164.766C226.729 156.407 225.417 152.381 220.955 140.345C213.781 121.088 212.162 114.217 210.631 96.4923C210.062 89.3585 210.062 88.3957 210.806 88.3957C211.462 88.3957 211.55 88.6145 212.381 91.8969C214.262 99.3808 217.236 108.178 219.642 113.386C221.961 118.331 222.792 120.87 224.76 128.704C226.073 133.868 227.691 139.207 228.348 140.564C229.004 141.921 231.103 144.984 233.028 147.304C237.971 153.387 238.977 155.619 241.952 167.086C243.571 173.388 246.414 182.491 246.895 183.06C247.07 183.235 247.639 181.922 248.208 180.215C249.389 176.539 252.232 170.456 256.3 163.059C258.24 159.527 258.992 158.116 260.035 156.969C260.827 156.098 261.787 155.379 263.562 154C265.356 152.556 268.33 150.149 270.124 148.573C272.442 146.56 274.848 144.984 278.217 143.365C280.885 142.096 284.122 140.345 285.434 139.557C286.883 138.642 287.806 138.025 288.812 137.608C291.028 136.69 293.645 136.743 303.151 136.713L315.837 136.669L325.723 131.505L339.372 131.636C350.702 131.767 353.545 131.68 355.951 131.111C358.269 130.542 359.319 130.498 360.982 130.848C365.4 131.855 371.786 135.575 376.686 140.039C378.479 141.702 380.973 143.409 382.898 144.328C385.916 145.772 386.485 146.253 385.654 146.779C385.435 146.91 381.673 146.604 377.255 146.122C371.918 145.509 366.625 145.203 361.55 145.203C356.038 145.247 352.32 144.984 348.252 144.371C343.834 143.715 341.515 143.584 337.884 143.803C334.122 144.021 332.591 143.934 330.054 143.321C325.855 142.271 322.136 142.577 312.994 144.634C302.364 147.041 299.214 148.267 280.797 157.107C268.024 163.278 260.85 172.425 254.857 190.325C252.188 198.159 250.57 204.899 250.001 210.238C249.432 215.228 249.651 217.897 251.313 227.351C251.795 229.976 252.582 235.403 253.063 239.386C253.544 243.369 254.244 248.489 254.594 250.809C255.163 254.354 257.875 284.639 257.875 287.134C257.875 288.491 258.488 288.097 259.581 285.996C261.375 282.626 263.431 280.657 268.943 277.199C277.342 271.86 280.841 269.934 287.184 267.221C290.421 265.82 295.539 263.326 298.558 261.706C305.688 257.811 309.406 256.367 315.837 254.966C318.724 254.31 322.224 253.391 323.667 252.909C327.779 251.421 327.736 252.297 323.317 257.067C321.218 259.387 318.155 262.232 316.581 263.457C313.475 265.82 305.426 269.934 290.684 276.63C285.741 278.906 280.316 281.663 278.61 282.801C274.542 285.515 269.949 290.46 267.543 294.705C263.125 302.496 258.925 316.15 258.313 324.509C258.094 327.398 257.788 331.118 257.613 332.825L257.307 335.845L261.025 331.95C265.749 326.96 268.111 324.203 269.074 322.584C269.468 321.884 270.561 320.877 271.48 320.396C273.405 319.301 278.785 318.514 282.941 318.689L285.916 318.82L281.76 321.533C276.904 324.685 275.942 325.866 272.092 333.481C270.517 336.501 268.199 340.309 266.887 342.016C263.941 345.746 260.519 350.717 258.597 354H242.843C242.915 353.416 242.984 352.91 243.046 352.519C243.396 350.331 243.396 347.618 243.046 343.022C242.783 339.477 242.565 334.225 242.565 331.293C242.565 326.873 242.433 325.735 241.69 324.291C240.465 321.884 239.94 321.752 239.94 323.853C239.94 324.816 239.546 329.499 239.021 334.269C238.468 339.455 238.147 346.832 238.124 354H173.543C172.01 352.67 170.333 351.248 168.636 349.85C165.136 346.961 158.487 340.134 157.569 338.471C156.869 337.245 157.919 336.764 159.318 337.727C159.974 338.208 161.374 339.127 162.38 339.74L164.218 340.878L163.212 338.602C160.587 332.694 159.756 326.96 160.149 317.77L160.456 311.03L162.162 312.955C163.124 314.006 165.355 316.719 167.149 318.951C168.942 321.14 171.042 323.415 171.742 323.984C173.798 325.472 176.772 329.718 177.647 332.256C178.522 335.013 179.966 338.033 180.272 337.727C180.403 337.595 180.185 335.757 179.835 333.656C179.485 331.512 178.654 326.129 178.041 321.665C176.641 311.73 174.367 298.776 173.973 298.425C173.798 298.294 172.704 297.813 171.479 297.375C169.292 296.587 168.33 295.756 164.786 291.554C163.78 290.329 161.593 288.447 159.974 287.353C156.694 285.208 155.075 283.589 154.069 281.62C153.369 280.175 150.613 271.685 150.832 271.51C150.876 271.422 152.8 273.042 155.075 275.055C159.406 278.906 160.543 279.65 159.1 277.549C158.618 276.893 157.525 274.88 156.606 273.085C155.731 271.291 153.763 267.615 152.232 264.989C149.213 259.737 145.233 250.196 145.626 249.189C146.02 248.139 146.501 248.489 148.47 251.421C149.52 252.997 150.482 254.266 150.526 254.266C150.919 254.266 150.044 245.601 149.345 242.887C148.907 241.093 148.12 237.329 147.638 234.616C147.157 231.858 146.37 228.095 145.889 226.3C145.408 224.462 144.62 220.611 144.139 217.722C142.827 210.151 135.784 183.935 133.728 178.99C133.378 178.158 131.759 175.182 130.097 172.425C127.91 168.793 126.86 166.429 126.204 163.935C124.41 156.932 125.591 154.656 128.303 159.864C130.141 163.366 140.639 174.263 140.639 172.644C140.639 168.442 135.871 145.816 133.64 139.382C128.172 123.539 126.947 120.826 122.223 113.736C118.854 108.703 116.055 105.727 110.98 101.832C101.881 94.873 96.2384 91.8969 83.7712 87.6079C79.5717 86.1637 73.7536 83.9317 70.8665 82.7062C63.6486 79.5989 61.9863 78.9862 56.212 77.4982C55.9986 77.4405 55.7841 77.3827 55.5697 77.3248C53.0148 76.6353 50.4608 75.946 49.694 75.7038C48.8629 75.4849 46.107 75.0473 43.5698 74.8284C41.0326 74.5658 35.477 73.6906 31.2775 72.859C27.078 72.0275 21.1725 71.0647 18.1541 70.6708C15.1357 70.2769 11.1987 69.5766 9.40512 69.0514C7.61158 68.57 4.76818 67.9573 3.06213 67.6509C0.874895 67.3008 0 66.9507 0 66.5131C0 65.6815 8.18026 65.2438 14.4358 65.7253C16.8417 65.9441 23.3597 66.2943 28.8715 66.5131C34.4271 66.7319 40.3326 67.1257 41.9949 67.3883C43.701 67.6072 49.694 68.0449 55.3371 68.2637C71.7851 69.0077 73.9723 69.5329 87.8832 76.3602C99.6505 82.1372 103.194 84.7194 113.649 94.9605C121.96 103.057 124.585 106.296 130.578 115.355C134.296 120.957 135.609 123.583 139.327 132.38C140.858 135.969 142.258 139.12 142.477 139.382C142.652 139.601 142.695 137.632 142.564 135.006C142.17 127.828 140.377 122.839 135.477 115.005C129.878 106.077 126.816 102.138 113.868 87.3891C108.093 80.8243 104.725 74.6534 101.313 64.3686C98.9068 57.1035 98.4694 53.7774 98.4694 43.0986C98.5131 31.9823 99.5193 22.7477 101.794 13.2069L103.15 7.38616L102.45 4.05999ZM183.728 270.153L180.666 266.871C179.003 265.12 176.379 261.925 174.891 259.824C172.923 256.98 172.136 256.192 171.961 256.761C171.873 257.198 171.523 259.912 171.217 262.8L170.692 268.052L172.267 271.072C173.185 272.735 173.885 274.398 173.885 274.748C173.885 276.236 174.367 274.792 174.673 272.385L174.979 269.803L183.728 270.153ZM229.791 308.929C226.51 305.121 215.705 295.362 209.756 290.81C209.461 290.585 209.168 290.362 208.881 290.143C206.483 288.316 204.435 286.756 204.2 286.521C203.763 286.215 203.632 286.346 203.632 286.959C203.632 288.266 194.324 291.378 201.663 289.322C203.326 288.797 204.769 288.403 204.813 288.403C205.032 288.403 204.375 296.5 203.807 300.701C203.238 305.034 203.501 312.562 204.288 316.238C204.419 316.719 204.9 322.628 205.382 329.367C206.475 344.116 207.306 350.637 207.7 348.362C208.356 344.86 208.881 332.737 208.881 321.752V310.067L217.499 310.373C222.267 310.548 227.035 310.855 228.129 311.117C232.241 312.036 232.372 311.905 229.791 308.929Z" fill="url(#paint15_linear_50_36)"/>
<defs>
<linearGradient id="paint0_linear_50_36" x1="1192" y1="461.162" x2="208.574" y2="461.162" gradientUnits="userSpaceOnUse">
<stop stop-color="#4F772D"/>
<stop offset="1" stop-color="#90A955"/>
</linearGradient>
<linearGradient id="paint1_linear_50_36" x1="1192" y1="461.162" x2="208.574" y2="461.162" gradientUnits="userSpaceOnUse">
<stop stop-color="#4F772D"/>
<stop offset="1" stop-color="#90A955"/>
</linearGradient>
<linearGradient id="paint2_linear_50_36" x1="1192" y1="461.162" x2="208.574" y2="461.162" gradientUnits="userSpaceOnUse">
<stop stop-color="#4F772D"/>
<stop offset="1" stop-color="#90A955"/>
</linearGradient>
<linearGradient id="paint3_linear_50_36" x1="1192" y1="461.162" x2="208.574" y2="461.162" gradientUnits="userSpaceOnUse">
<stop stop-color="#4F772D"/>
<stop offset="1" stop-color="#90A955"/>
</linearGradient>
<linearGradient id="paint4_linear_50_36" x1="1192" y1="461.162" x2="208.574" y2="461.162" gradientUnits="userSpaceOnUse">
<stop stop-color="#4F772D"/>
<stop offset="1" stop-color="#90A955"/>
</linearGradient>
<linearGradient id="paint5_linear_50_36" x1="1192" y1="461.162" x2="208.574" y2="461.162" gradientUnits="userSpaceOnUse">
<stop stop-color="#4F772D"/>
<stop offset="1" stop-color="#90A955"/>
</linearGradient>
<linearGradient id="paint6_linear_50_36" x1="1192" y1="461.162" x2="208.574" y2="461.162" gradientUnits="userSpaceOnUse">
<stop stop-color="#4F772D"/>
<stop offset="1" stop-color="#90A955"/>
</linearGradient>
<linearGradient id="paint7_linear_50_36" x1="1192" y1="461.162" x2="208.574" y2="461.162" gradientUnits="userSpaceOnUse">
<stop stop-color="#4F772D"/>
<stop offset="1" stop-color="#90A955"/>
</linearGradient>
<linearGradient id="paint8_linear_50_36" x1="1192" y1="461.162" x2="208.574" y2="461.162" gradientUnits="userSpaceOnUse">
<stop stop-color="#4F772D"/>
<stop offset="1" stop-color="#90A955"/>
</linearGradient>
<linearGradient id="paint9_linear_50_36" x1="1192" y1="461.162" x2="208.574" y2="461.162" gradientUnits="userSpaceOnUse">
<stop stop-color="#4F772D"/>
<stop offset="1" stop-color="#90A955"/>
</linearGradient>
<linearGradient id="paint10_linear_50_36" x1="1192" y1="461.162" x2="208.574" y2="461.162" gradientUnits="userSpaceOnUse">
<stop stop-color="#4F772D"/>
<stop offset="1" stop-color="#90A955"/>
</linearGradient>
<linearGradient id="paint11_linear_50_36" x1="1192" y1="461.162" x2="208.574" y2="461.162" gradientUnits="userSpaceOnUse">
<stop stop-color="#4F772D"/>
<stop offset="1" stop-color="#90A955"/>
</linearGradient>
<linearGradient id="paint12_linear_50_36" x1="1192" y1="461.162" x2="208.574" y2="461.162" gradientUnits="userSpaceOnUse">
<stop stop-color="#4F772D"/>
<stop offset="1" stop-color="#90A955"/>
</linearGradient>
<linearGradient id="paint13_linear_50_36" x1="1192" y1="461.162" x2="208.574" y2="461.162" gradientUnits="userSpaceOnUse">
<stop stop-color="#4F772D"/>
<stop offset="1" stop-color="#90A955"/>
</linearGradient>
<linearGradient id="paint14_linear_50_36" x1="1192" y1="461.162" x2="208.574" y2="461.162" gradientUnits="userSpaceOnUse">
<stop stop-color="#4F772D"/>
<stop offset="1" stop-color="#90A955"/>
</linearGradient>
<linearGradient id="paint15_linear_50_36" x1="-6.10112e-05" y1="4.17647" x2="403.402" y2="4.17643" gradientUnits="userSpaceOnUse">
<stop stop-color="#4F772D"/>
<stop offset="1" stop-color="#90A955"/>
</linearGradient>
</defs>
</svg>
