<svg width="1169" height="778" viewBox="0 0 1169 778" fill="none" xmlns="http://www.w3.org/2000/svg">
<path d="M1.31372 869L2.11377 861.615C4.64722 838.266 7.44734 818.066 9.71411 806.771C11.0476 799.712 12.2476 792.327 12.2476 790.372C12.2476 788.417 9.58079 776.363 6.38062 763.548C-0.0196648 738.243 -1.08652 731.944 0.913574 731.075C2.647 730.424 9.44738 740.741 15.7144 753.773L20.6479 763.873L23.1814 757.031C29.4484 740.089 39.049 722.496 42.5159 721.518C44.916 720.975 44.7825 730.424 42.249 744.108C36.7821 773.648 33.5819 799.169 34.9153 802.753C37.1821 808.943 42.6489 831.858 44.3823 842.393L46.1161 852.167L48.3827 838.592C49.7161 831.098 52.3828 818.935 54.2496 811.441C57.3164 800.255 58.1165 793.522 59.0499 772.887C60.9167 730.641 63.8499 708.16 68.1168 704.685C70.2503 702.948 71.7171 705.011 73.5839 712.07C75.7173 720.107 78.9174 738.569 78.9174 743.348C78.9174 747.04 79.1838 747.474 81.584 746.823C84.1174 746.171 84.251 746.606 84.251 753.013V759.855L87.051 755.294C88.5178 752.796 90.6513 750.189 91.718 749.429C94.6515 747.474 94.1181 755.837 89.9846 779.512C86.6511 798.3 86.3843 802.97 86.251 834.465V869H1.31372Z" fill="url(#paint0_linear_40_95)"/>
<path fill-rule="evenodd" clip-rule="evenodd" d="M147.585 869V840.981C147.718 763.222 153.985 714.785 161.586 733.248C162.919 736.397 163.186 736.614 164.119 734.768C168.119 726.514 174.386 761.05 178.387 813.613C179.187 824.69 179.987 833.813 180.253 834.03C180.653 834.356 189.721 805.577 192.387 795.585L194.654 786.897L185.587 763.548C168.386 719.346 166.519 714.242 165.586 708.921C164.786 704.685 164.919 703.708 166.386 704.142C169.586 704.902 180.387 718.912 190.654 735.637L191.062 736.294C196.295 744.723 199.082 749.212 200.566 748.942C202.256 748.635 202.255 742.155 202.255 728.291V727.383C202.255 707.183 201.054 697.517 195.588 675.58C193.321 666.892 191.587 658.638 191.587 657.226V654.728L195.054 657.335C203.455 663.633 215.589 689.481 220.522 710.984C223.322 723.582 223.722 761.375 221.055 778.426L219.322 790.481L223.722 801.45C226.122 807.531 228.256 812.31 228.522 812.093C228.789 811.984 230.522 804.491 232.523 795.585C235.723 781.141 236.123 776.688 236.123 753.882C236.123 729.121 235.989 727.926 231.856 712.179C227.322 694.694 226.789 691.436 229.056 692.522C229.989 693.065 230.122 691.979 229.456 689.046C229.056 686.766 228.522 684.485 228.389 683.942C228.389 683.399 228.922 682.747 229.856 682.53C232.256 681.77 240.79 693.391 246.523 705.12C253.99 720.65 259.057 740.85 259.991 759.312L260.257 765.285L265.858 752.796C268.924 745.954 272.125 737.809 273.058 734.877C273.858 731.836 275.325 728.903 276.258 728.36C277.058 727.709 280.392 722.387 283.592 716.414C297.726 690.132 320.794 657.226 325.06 657.226C327.194 657.226 326.394 664.394 322.794 674.168C320.927 679.489 315.327 694.368 310.26 707.183C290.259 758.335 286.392 770.172 287.459 777.774L288.259 783.747L290.792 777.774C294.659 768.217 308.126 742.37 315.327 730.315C320.393 721.736 322.127 717.5 322.794 711.853C323.994 701.862 327.194 693.065 329.594 693.065C330.527 693.065 332.127 694.802 332.927 696.974L334.527 700.776L339.061 696.649L343.461 692.522L343.595 695.888C343.595 697.626 342.261 703.056 340.661 707.835C340.472 708.398 340.293 708.924 340.125 709.419C339.326 711.77 338.766 713.419 338.426 715.097C337.629 719.031 338.043 723.127 339.426 736.826C339.6 738.551 339.79 740.429 339.995 742.479C341.328 754.425 342.795 769.846 343.328 776.688C344.261 788.852 344.395 788.526 345.328 762.57C347.461 703.708 352.128 667.326 357.595 666.674C359.862 666.348 363.196 676.774 365.062 689.481C366.396 698.929 367.329 701.753 368.929 702.079C374.796 703.382 380.663 750.95 383.063 818.5L384.13 844.565L389.73 826.102C399.998 792.436 402.931 772.453 401.864 745.737C401.197 731.076 400.264 724.016 397.064 711.527C394.797 702.839 392.93 694.802 392.93 693.716C392.93 692.796 392.93 692.287 393.179 692.187C393.487 692.063 394.179 692.573 395.731 693.716C402.931 699.038 411.731 716.306 416.665 734.877C419.732 746.388 420.132 750.515 420.132 770.064C420.265 790.807 420.398 791.784 421.998 785.811C426.532 768.652 439.199 742.044 443.2 741.067C445.733 740.524 445.333 746.171 441.733 768.543C435.599 805.359 434.933 810.464 438.266 800.581C440.933 792.436 447.6 779.186 452.133 773.104C455.067 769.195 457.2 764.416 458.133 759.638C466.267 721.519 484.668 679.707 504.402 654.728C510.136 647.56 512.402 646.148 513.602 648.864C514.002 649.515 511.869 657.769 508.935 667C500.002 694.911 492.002 722.604 490.268 731.401C488.668 739.546 488.668 739.872 492.268 746.497C496.935 755.294 504.135 771.91 509.869 787.006C515.202 801.341 514.936 799.929 506.402 765.937C499.468 738.786 498.002 728.686 501.335 730.967C504.002 732.705 513.869 750.189 519.603 763.33C522.536 769.738 524.803 774.516 524.803 773.865C524.936 773.104 521.336 758.226 516.936 740.524C509.202 709.681 507.602 699.581 510.136 699.581C512.002 699.581 518.536 709.464 524.27 720.758C546.138 763.982 560.138 811.984 564.405 858.357L565.339 869H493.602H449.733H295.148L314.927 868.457L315.727 833.704C316.26 814.591 316.927 792.11 317.327 783.747L317.994 768.543L315.46 775.059C314.127 778.643 310.126 790.481 306.793 801.341C300.259 822.736 293.592 850.538 292.126 861.941L291.206 869H209.855L211.988 862.593C214.122 856.402 214.122 855.642 211.322 844.673C209.855 838.266 208.255 833.27 207.988 833.487C207.721 833.705 204.788 841.524 201.588 850.864C198.254 860.203 195.588 868.131 195.588 868.457C195.588 868.783 198.788 869 202.654 869H147.585ZM449.733 869C452.266 869 452.933 868.566 452.4 867.045C452.133 866.068 451.333 856.837 450.8 846.737L449.733 828.274L448.133 842.936C447.2 850.972 446.4 860.203 446.4 863.244C446.266 868.674 446.399 869 449.733 869ZM493.602 869C482.801 869 482.268 868.892 482.268 866.502C482.191 865.753 481.982 861.915 481.692 856.579C481.477 852.636 481.218 847.873 480.935 842.936C480.401 830.664 480.401 812.201 481.068 798.952C482.135 780.272 484.135 762.679 484.801 766.045C484.801 766.357 485.832 770.474 487.252 776.147L487.253 776.15C487.811 778.379 488.429 780.848 489.068 783.422C493.602 802.21 497.468 820.021 499.602 832.075C500.935 839.46 504.802 866.177 504.935 868.131C504.935 868.674 499.869 869 493.602 869Z" fill="url(#paint1_linear_40_95)"/>
<path fill-rule="evenodd" clip-rule="evenodd" d="M661.207 869L660.273 862.81C655.873 833.487 635.472 770.064 613.737 718.043C610.004 708.921 603.604 689.481 603.604 686.983C603.604 685.571 604.137 684.268 604.937 683.834C607.871 682.313 626.138 706.966 640.139 731.401L648.406 746.063L650.673 736.831C651.873 731.727 653.873 726.297 655.206 724.668L657.606 721.844L658.54 726.731C658.94 729.446 659.473 734.225 659.473 737.483C659.873 756.488 667.74 782.879 687.875 832.293C700.542 863.027 703.342 869 705.342 869C706.809 869 707.609 868.457 707.209 867.588C705.609 864.004 691.341 826.863 687.741 816.871C681.607 799.169 676.007 780.598 672.94 766.914C669.207 750.95 667.873 721.518 670.273 709.681C671.874 701.318 676.274 690.893 678.274 690.893C679.474 690.893 680.941 699.255 680.941 706.64C680.941 718.586 685.741 741.936 692.675 763.113L695.208 770.715L695.075 755.511C695.075 747.149 695.875 737.157 696.808 733.248C698.675 725.32 702.809 716.957 704.809 716.957C705.475 716.957 706.409 720.758 706.809 725.32C710.009 760.398 715.609 782.118 731.343 820.672L731.589 821.258C735.344 830.232 735.346 830.238 735.477 825.559C737.21 769.195 752.944 712.287 778.146 671.236C785.213 659.832 794.947 647.452 796.947 647.452C800.413 647.452 799.614 650.71 787.08 690.35C769.879 744.759 763.478 791.784 766.279 842.936C766.575 848.396 766.872 853.576 767.11 857.731C767.406 862.915 767.612 866.503 767.612 867.045C767.612 868.566 768.679 869 772.279 869C776.546 869 776.812 868.783 776.279 865.959C772.946 850.646 771.879 796.78 774.279 771.15C779.079 720.758 791.613 675.254 813.214 630.836C827.881 600.318 852.55 566 859.617 566C862.55 566 860.283 576.209 851.749 600.21C840.949 631.27 833.748 654.837 828.281 677.643C823.614 696.54 823.081 702.405 826.681 692.305C834.015 672.213 859.083 633.225 865.884 631.379C869.75 630.401 868.017 638.003 856.416 673.516C845.882 705.445 840.415 727.709 835.482 758.226C833.748 769.521 830.282 804.273 830.415 810.898C830.428 811.493 830.432 812.042 830.436 812.531C830.447 814.001 830.454 814.935 830.679 814.971C831.069 815.034 832.118 812.38 834.991 805.11C835.636 803.478 836.373 801.613 837.215 799.495C845.616 778.209 861.75 756.488 880.018 741.936C887.896 735.668 891.107 733.199 899.219 728.795C904.952 725.537 925.887 718.043 929.087 718.043L902.001 741C901.468 741.217 887.618 754.208 883.885 758.552C862.017 784.291 849.483 817.306 846.816 856.294L845.882 869H772.279H705.342H661.207Z" fill="url(#paint2_linear_40_95)"/>
<path fill-rule="evenodd" clip-rule="evenodd" d="M1034.99 727.043C1035.93 727.043 1040.86 723.677 1046.19 719.55C1062.33 707.169 1075.8 700.544 1095.8 695.549C1111.4 691.639 1109.4 695.114 1089 706.843C1082.33 710.753 1075.13 715.314 1073.13 717.052L1069.4 720.31L1071.13 729.65L1072.86 739.098L1081.4 733.994C1086.06 731.17 1094.73 727.26 1100.73 725.197L1111.53 721.722L1111.13 717.269C1110.6 712.056 1112.33 711.73 1116.2 716.183C1117.8 718.029 1120.2 719.441 1121.67 719.441C1123.67 719.441 1124.2 719.984 1123.53 721.396C1123.13 722.699 1127 730.084 1134.6 742.139L1146.47 760.819L1147.4 754.085C1149.8 734.537 1147.67 710.536 1140.87 683.602C1138.47 673.828 1136.73 665.357 1137.13 664.814C1140.07 660.904 1154.07 682.516 1160.87 701.739C1168.6 723.568 1171 756.04 1167 785.906L1165.22 799.056L1153.74 842.806C1153.71 842.793 1153.69 842.796 1153.67 842.813C1153.27 843.03 1150.2 851.175 1146.73 860.732L1140.64 878H1093.53V843.465C1093.53 771.353 1099.53 724.545 1106.6 741.162C1107.66 743.442 1108.73 744.202 1110.06 743.768C1111.53 743.334 1112.6 743.985 1113.4 745.723C1116.46 752.239 1121.93 790.684 1123.53 817.183C1123.93 824.025 1124.6 832.822 1125.13 836.731L1125.93 843.79L1130.33 830.215C1132.73 822.722 1135.93 811.97 1137.53 806.323L1140.2 796.006L1133.13 777.543C1117.66 737.36 1114.33 729.215 1113.93 729.215C1113.66 729.215 1109.93 731.062 1105.8 733.451C1095.4 739.207 1076.86 754.302 1079 755.28C1080.06 755.823 1080.33 758.212 1079.93 762.339C1079.26 768.964 1079.66 768.964 1084.46 761.905C1085.66 760.058 1087.4 758.538 1088.2 758.538C1090.33 758.538 1089.8 764.185 1085.93 785.797C1082.86 803.39 1082.33 810.124 1081.93 841.944L1081.26 878H977.525V866.163C977.525 836.731 984.992 803.934 997.392 779.172C1010.7 752.638 1012.5 749 1034.99 727.043ZM1050.46 738.121C1038.99 750.936 1037.93 752.782 1035.93 764.185C1034.06 774.828 1034.46 777.109 1037.26 772.222C1038.06 770.81 1042.59 765.706 1047.26 760.927L1055.93 752.239L1056.86 743.225C1057.26 738.229 1058.06 733.234 1058.33 732.148C1059.53 728.781 1057.66 730.193 1050.46 738.121ZM1046.33 796.766C1042.99 803.173 1038.99 812.079 1037.39 816.64C1034.73 824.025 1034.59 825.763 1035.93 831.084C1036.73 834.559 1038.06 841.184 1038.86 845.962C1039.79 850.741 1040.86 856.063 1041.53 857.909C1042.03 859.38 1042.29 860.164 1042.45 860.15C1042.62 860.134 1042.66 859.079 1042.73 856.823C1042.99 851.284 1048.46 823.916 1052.06 810.993C1054.86 800.784 1055.93 782.104 1053.66 784.059C1053 784.711 1049.66 790.358 1046.33 796.766Z" fill="url(#paint3_linear_40_95)"/>
<path d="M1050.64 1.31728C1048.89 8.29264 1042.16 95.4223 1042.16 111.179C1042.16 118.279 1041.97 119.462 1040.16 124.694C1037.86 131.482 1037.55 136.216 1039.35 139.205C1041.35 142.568 1042.78 142.817 1058.62 142.631C1066.47 142.568 1073.02 142.381 1073.14 142.319C1073.46 142.008 1074.58 135.717 1075.26 130.673C1075.58 128.119 1076.14 116.909 1076.45 105.761C1077.13 83.776 1077.63 74.6831 1079.63 46.4703L1081 27.9731L1075.33 21.2469C1068.41 12.9636 1061.11 5.80144 1056.25 2.43832C1052.01 -0.488835 1051.14 -0.675675 1050.64 1.31728Z" fill="url(#paint4_linear_40_95)"/>
<path d="M1010.05 125.94C1018.53 129.988 1030 136.278 1034.93 139.517C1036.92 140.824 1038.67 141.821 1038.79 141.696C1038.92 141.572 1038.23 140.326 1037.23 138.956C1035.18 136.091 1031.31 132.853 1027.13 130.424C1024.14 128.742 1006.25 122.576 1004.32 122.576C1003.69 122.576 1006.31 124.071 1010.05 125.94Z" fill="url(#paint5_linear_40_95)"/>
<path d="M1011.3 139.392C1010.3 139.766 1006.93 141.26 1003.82 142.693L998.207 145.433L1006.31 145.869C1014.1 146.305 1030.06 145.495 1035.61 144.437L1038.11 143.938L1036.24 143.191C1029.38 140.326 1015.16 138.146 1011.3 139.392Z" fill="url(#paint6_linear_40_95)"/>
<path d="M1033.43 145.682C1029.63 146.43 1027.32 147.364 1024.77 149.232C1021.59 151.599 1020.96 153.841 1020.96 162.56L1021.02 170.221L1024.14 166.795C1029.69 160.754 1039.04 147.364 1039.04 145.495C1039.04 144.873 1037.17 144.935 1033.43 145.682Z" fill="url(#paint7_linear_40_95)"/>
<path d="M1039.1 147.551C1037.92 151.474 1038.17 158.823 1039.54 161.937C1040.66 164.491 1046.34 172.338 1049.95 176.449L1051.57 178.317L1051.2 174.58C1050.64 169.473 1048.21 159.695 1046.34 154.962C1044.78 151.225 1040.97 144.997 1040.23 144.997C1040.04 144.997 1039.54 146.118 1039.1 147.551Z" fill="url(#paint8_linear_40_95)"/>
<path d="M1048.39 151.661C1048.39 152.969 1049.39 157.951 1050.64 162.747C1051.95 167.854 1053.01 173.771 1053.19 177.009C1053.57 182.241 1053.51 182.49 1052.38 181.867C1049.14 180.123 1044.34 173.646 1039.04 164.055C1037.11 160.567 1035.3 157.827 1034.99 157.889C1034.62 158.014 1034.18 161.065 1033.87 164.74C1032.81 180.434 1024.02 260.838 1021.59 277.342C1020.53 284.94 1018.84 290.919 1014.48 303.001C1012.73 307.797 1012.42 311.845 1013.54 312.966C1014.04 313.464 1015.73 313.589 1018.41 313.34C1020.65 313.153 1026.7 313.464 1031.81 314.025C1046.71 315.644 1052.2 315.271 1053.01 312.717C1054.57 307.859 1064.73 241.718 1068.34 213.194C1071.15 190.773 1073.33 165.114 1073.33 153.654V151.412L1064.48 150.353C1059.55 149.793 1053.94 149.357 1052.01 149.357H1048.39V151.661Z" fill="url(#paint9_linear_40_95)"/>
<path d="M917.159 199.617C916.91 200.24 916.473 218.924 916.162 241.22C915.538 293.41 915.538 293.597 911.548 302.939C910.364 305.742 909.366 308.295 909.366 308.731C909.366 309.665 913.231 309.603 924.64 308.482C929.815 307.984 937.483 307.548 941.66 307.548H949.391L949.017 273.73C948.768 255.17 948.456 234.805 948.269 228.515L947.895 217.117L939.665 211.761C929.877 205.346 918.718 198.558 918.094 198.558C917.845 198.558 917.408 199.056 917.159 199.617Z" fill="url(#paint10_linear_40_95)"/>
<path d="M918.531 315.084C915.102 315.893 913.855 316.703 912.67 318.945C911.673 320.689 911.548 322.557 911.673 333.083C911.735 345.29 913.481 372.257 915.351 389.82C916.598 402.089 918.032 407.445 921.087 411.991C925.326 418.282 926.261 420.648 926.822 426.689C927.197 430.177 927.695 432.668 928.256 433.229C930.314 435.222 946.025 434.661 950.763 432.419C954.192 430.8 954.566 429.056 954.503 414.981C954.379 403.148 953.818 392.435 950.202 338.439C949.329 325.796 948.643 315.271 948.643 314.959C948.643 314.212 921.648 314.336 918.531 315.084Z" fill="url(#paint11_linear_40_95)"/>
<path d="M1012.67 317.014C1011.42 317.949 1009.37 327.664 1002.88 362.666C995.526 402.587 993.344 415.604 988.855 447.678C985.8 468.977 985.738 469.912 986.673 473.337C987.421 475.953 987.982 476.202 997.459 477.821C1001.95 478.631 1004.38 478.693 1011.11 478.133C1015.66 477.759 1020.21 477.136 1021.27 476.7C1023.14 475.891 1023.27 475.704 1024.58 468.168C1026.32 458.452 1029.19 440.516 1034.05 409.376C1036.3 395.113 1039.67 376.741 1042.22 364.845C1049.08 332.958 1050.2 327.415 1050.39 323.18C1050.58 319.319 1050.51 319.194 1048.89 318.696C1047.27 318.26 1036.05 317.45 1020.65 316.578C1015.41 316.267 1013.54 316.392 1012.67 317.014Z" fill="url(#paint12_linear_40_95)"/>
<path d="M910.738 411.68C913.668 414.856 917.72 419.652 919.84 422.33C923.331 426.752 923.705 427.063 923.705 425.444C923.643 420.835 918.718 414.483 910.925 409.126C908.431 407.383 906.186 405.95 905.937 405.95C905.688 405.95 907.87 408.566 910.738 411.68Z" fill="url(#paint13_linear_40_95)"/>
<path d="M882.87 421.832C882.558 421.956 880.314 422.268 877.882 422.517L873.518 422.953L876.324 423.825C885.301 426.503 915.164 432.108 916.037 431.236C916.598 430.675 905.688 425.257 900.264 423.451C895.526 421.832 893.593 421.52 889.042 421.582C885.987 421.582 883.244 421.707 882.87 421.832Z" fill="url(#paint14_linear_40_95)"/>
<path d="M916.224 423.513C916.224 425.568 918.094 428.869 920.276 430.488C921.523 431.485 922.645 432.108 922.832 431.983C922.957 431.859 921.773 429.928 920.214 427.686C916.536 422.579 916.224 422.267 916.224 423.513Z" fill="url(#paint15_linear_40_95)"/>
<path d="M898.643 436.156C892.782 437.775 889.915 439.706 883.368 446.37C879.877 449.982 877.134 453.034 877.259 453.158C878.194 454.093 916.847 437.09 916.847 435.72C916.847 434.91 901.885 435.222 898.643 436.156Z" fill="url(#paint16_linear_40_95)"/>
<path d="M918.281 440.142C913.481 443.941 908.805 449.235 907.184 452.785C905.812 455.712 905.625 456.895 905.625 463.871L905.688 471.656L907.496 469.476C910.301 466.05 916.66 455.276 919.029 449.795C921.087 445.062 922.77 437.713 921.773 437.713C921.523 437.713 919.965 438.772 918.281 440.142Z" fill="url(#paint17_linear_40_95)"/>
<path d="M924.204 444.128C923.643 446.37 921.835 450.916 920.276 454.342L917.346 460.445L917.72 466.985C918.219 475.455 922.832 534.185 924.017 546.641C925.264 559.782 924.017 558.848 940.102 558.848H952.695L957.87 555.858C961.735 553.554 962.982 552.495 962.982 551.498C962.982 550.377 960.987 522.85 956.187 457.144C955.563 448.487 954.815 441.201 954.628 440.952C954.379 440.702 947.645 440.453 939.728 440.329L925.264 440.08L924.204 444.128Z" fill="url(#paint18_linear_40_95)"/>
<path d="M1049.02 470.784C1046.46 471.469 1044.09 472.341 1043.72 472.714C1043.28 473.213 1043.41 473.275 1044.22 472.963C1044.84 472.777 1052.01 472.59 1060.11 472.59C1068.72 472.59 1074.52 472.341 1073.96 472.029C1072.4 471.095 1061.55 469.476 1057.5 469.538C1055.38 469.538 1051.57 470.099 1049.02 470.784Z" fill="url(#paint19_linear_40_95)"/>
<path d="M1040.91 483.115C1040.91 483.738 1049.39 491.461 1055.88 496.63C1065.35 504.228 1073.33 509.958 1073.33 509.21C1073.33 508.774 1071.9 505.536 1070.15 502.048C1066.54 494.761 1063.98 492.146 1057.25 488.596C1050.89 485.295 1040.91 481.932 1040.91 483.115Z" fill="url(#paint20_linear_40_95)"/>
<path d="M986.361 483.8C985.613 484.049 984.74 484.734 984.304 485.233C983.244 486.478 975.513 543.215 976.262 543.963C976.449 544.149 977.82 543.963 979.254 543.527C981.187 542.904 986.611 542.717 998.082 542.779C1006.87 542.842 1014.1 542.655 1014.17 542.468C1014.17 542.219 1015.1 534.745 1016.22 525.839C1017.35 516.933 1018.22 509.584 1018.16 509.459C1018.09 509.397 1015.66 510.767 1012.8 512.511C1007.56 515.812 991.91 523.784 989.354 524.593C988.543 524.78 987.92 524.718 987.92 524.407C987.92 523.659 994.217 513.694 998.955 507.031C1001.07 503.979 1005.94 498.062 1009.68 493.765C1014.67 488.222 1016.35 485.918 1015.73 485.544C1012.8 483.925 989.479 482.492 986.361 483.8Z" fill="url(#paint21_linear_40_95)"/>
<path d="M1024.39 485.17C1019.28 489.156 1010.74 498 1006.06 504.041C1001.01 510.518 997.272 515.812 997.272 516.435C997.272 517.867 1014.1 507.467 1017.47 503.917C1020.4 500.865 1024.7 493.329 1026.57 487.786C1028.44 482.305 1028.26 482.056 1024.39 485.17Z" fill="url(#paint22_linear_40_95)"/>
<path d="M1034.49 485.606C1033.93 488.284 1033.93 517.307 1034.43 522.351C1034.68 524.407 1035.05 526.151 1035.3 526.151C1035.55 526.151 1037.67 522.414 1039.98 517.805C1043.72 510.456 1044.22 508.899 1044.53 505.038C1044.72 502.36 1044.53 499.495 1044.03 497.751C1043.22 494.824 1039.98 489.468 1036.74 485.731L1034.87 483.551L1034.49 485.606Z" fill="url(#paint23_linear_40_95)"/>
<path d="M982.309 546.391C980.065 546.827 977.571 547.513 976.698 547.886C975.202 548.447 975.202 548.509 976.511 548.509C977.945 548.571 997.459 546.267 999.142 545.831C1001.89 545.146 985.738 545.706 982.309 546.391Z" fill="url(#paint24_linear_40_95)"/>
<path d="M999.142 549.319C990.538 550.191 976.012 552.246 975.389 552.62C973.955 553.554 975.264 554.114 980.937 555.111C993.843 557.415 999.267 559.844 1005.75 566.259L1010.3 570.681L1010.68 568.501C1011.74 562.086 1013.23 549.132 1012.98 548.883C1012.48 548.447 1005.31 548.634 999.142 549.319Z" fill="url(#paint25_linear_40_95)"/>
<path d="M971.71 557.664C971.71 558.785 1006.31 573.981 1007.12 573.172C1007.75 572.611 999.641 564.764 996.96 563.394C992.845 561.276 987.982 559.844 980.563 558.536C972.957 557.228 971.71 557.104 971.71 557.664Z" fill="url(#paint26_linear_40_95)"/>
<path d="M954.129 562.522C951.885 564.39 948.082 568.314 945.65 571.241C940.975 576.909 933.992 587.06 934.428 587.496C934.865 587.932 944.965 581.767 948.892 578.653C952.758 575.663 955.439 571.864 957.309 566.944C958.867 562.896 959.553 559.159 958.805 559.159C958.493 559.159 956.374 560.654 954.129 562.522Z" fill="url(#paint27_linear_40_95)"/>
<path d="M965.788 562.397C966.536 568.252 968.593 577.967 970.588 584.881C972.209 590.361 972.708 591.482 973.331 590.797C974.329 589.801 978.319 579.524 978.88 576.535C979.441 573.421 978.257 569.497 975.887 566.819C973.768 564.39 966.972 559.159 965.975 559.159C965.601 559.159 965.538 560.405 965.788 562.397Z" fill="url(#paint28_linear_40_95)"/>
<path d="M938.044 563.643C933.057 563.892 928.194 564.328 927.134 564.64L925.264 565.138L925.077 572.611C924.827 579.96 925.389 600.139 927.134 647.472L928.069 671.948L930.127 673.941C931.249 675.062 932.62 676.619 933.182 677.491L934.179 679.048L947.645 678.923C959.491 678.799 961.548 678.612 963.917 677.553C965.912 676.681 966.598 676.058 966.411 675.186C966.162 674.003 965.414 654.136 963.917 606.492C962.92 575.414 962.421 566.01 961.798 566.01C961.548 566.01 960.987 567.068 960.551 568.314C958.182 574.853 952.134 581.268 943.468 586.438C938.668 589.365 927.259 595.281 926.511 595.281C926.074 595.281 928.568 590.361 932.122 584.382C934.865 579.711 941.162 571.117 945.588 565.823C946.648 564.515 947.458 563.394 947.334 563.332C947.209 563.269 943.032 563.394 938.044 563.643Z" fill="url(#paint29_linear_40_95)"/>
<path d="M981.374 569.186C983.369 574.791 981.997 580.832 975.389 595.094L972.833 600.575L971.399 597.772C969.715 594.596 969.466 594.845 968.656 600.824C968.157 604.748 968.219 604.935 970.526 609.232C974.641 617.017 975.95 626.048 973.892 632.898C973.394 634.58 973.02 636.075 973.144 636.199C973.768 636.76 992.471 637.756 995.526 637.383C1001.2 636.635 1001.95 635.701 1003.13 627.854C1004.5 618.636 1009.12 581.455 1009.12 579.524C1009.12 578.154 1008.62 577.718 1005.56 576.597C1003.57 575.85 997.272 573.296 991.536 570.93C985.8 568.563 981 566.632 980.813 566.632C980.626 566.632 980.875 567.816 981.374 569.186Z" fill="url(#paint30_linear_40_95)"/>
<path d="M876.199 578.528C876.012 579.338 874.266 586.998 872.396 595.593C870.463 604.125 868.718 612.408 868.531 613.965L868.094 616.768L869.403 615.211C871.461 612.657 876.074 602.755 877.259 598.208C878.194 594.783 878.319 592.728 877.944 586.438C877.508 578.777 876.822 575.663 876.199 578.528Z" fill="url(#paint31_linear_40_95)"/>
<path d="M842.284 608.36C843.655 609.917 848.269 614.775 852.57 619.259C859.366 626.359 860.114 626.982 858.555 624.241C855.875 619.508 853.007 616.207 847.458 611.599C840.226 605.62 839.54 605.184 842.284 608.36Z" fill="url(#paint32_linear_40_95)"/>
<path d="M967.533 615.958C967.72 618.138 968.593 621.75 969.466 623.992L971.025 627.978V624.491C971.087 620.754 969.092 613.093 967.845 612.346C967.346 612.035 967.222 613.031 967.533 615.958Z" fill="url(#paint33_linear_40_95)"/>
<path d="M921.211 616.456C922.396 617.266 923.082 617.266 923.082 616.456C923.082 616.083 922.458 615.834 921.71 615.834C920.526 615.834 920.463 615.958 921.211 616.456Z" fill="url(#paint34_linear_40_95)"/>
<path d="M968.032 632.4C967.97 633.459 968.406 634.704 968.905 635.14C969.84 635.95 969.84 635.701 968.406 631.404C968.219 630.905 968.032 631.341 968.032 632.4Z" fill="url(#paint35_linear_40_95)"/>
<path d="M813.044 636.76C809.677 637.32 798.455 640.185 796.086 641.057L793.717 641.991L796.211 641.68C803.381 640.808 832.745 638.441 839.54 638.192L841.722 638.13L839.229 637.569C836.423 636.947 815.912 636.324 813.044 636.76Z" fill="url(#paint36_linear_40_95)"/>
<path d="M874.017 643.05C872.645 643.984 905.937 648.282 913.605 648.157L917.159 648.095L912.795 646.911C903.63 644.42 894.715 643.112 884.74 642.863C879.254 642.676 874.391 642.801 874.017 643.05Z" fill="url(#paint37_linear_40_95)"/>
<path d="M970.588 644.918C969.279 647.534 969.03 650.524 969.154 664.163C969.279 675.498 969.154 678.736 968.468 679.11C968.032 679.422 966.536 680.169 965.164 680.729C962.67 681.788 962.67 681.788 964.541 681.85C968.344 681.913 968.219 681.477 968.718 700.348C968.905 709.876 969.404 732.359 969.778 750.358C970.152 768.357 970.651 785.484 970.838 788.474C971.212 793.767 971.336 793.954 972.77 793.954C974.516 793.954 978.257 792.46 978.818 791.588C979.69 790.155 981.685 776.018 991.037 706.389C993.094 690.943 995.588 673.443 996.648 667.464C999.017 653.575 999.765 646.289 998.893 645.977C998.269 645.79 973.955 643.86 971.897 643.86C971.461 643.86 970.9 644.358 970.588 644.918Z" fill="url(#paint38_linear_40_95)"/>
<path d="M839.852 648.032C839.166 648.219 833.555 650.15 827.383 652.392C814.416 657.063 800.326 663.727 794.59 667.9C788.605 672.322 777.695 681.352 778.007 681.664C778.63 682.286 821.211 660.488 834.241 652.828C842.284 648.095 843.406 647.16 839.852 648.032Z" fill="url(#paint39_linear_40_95)"/>
<path d="M861.423 649.091C861.548 649.216 870.214 653.077 880.688 657.561C904.503 667.9 919.029 674.626 924.89 677.989L929.379 680.605L929.192 678.861C929.005 677.429 928.256 676.806 923.705 674.564C909.74 667.651 888.107 658.495 870.214 651.894C862.483 649.029 860.8 648.468 861.423 649.091Z" fill="url(#paint40_linear_40_95)"/>
<path d="M848.518 651.271C841.598 653.762 837.296 657.125 834.865 661.921C832.683 666.156 829.316 676.681 827.072 686.21C826.012 690.819 824.827 695.365 824.578 696.299C824.266 697.296 824.266 698.043 824.515 698.043C825.326 698.043 837.919 684.84 840.101 681.664C844.154 675.747 851.885 658.62 853.568 651.769C854.129 649.714 853.194 649.589 848.518 651.271Z" fill="url(#paint41_linear_40_95)"/>
<path d="M921.897 654.074C920.837 655.195 920.65 655.693 921.274 655.693C922.77 655.693 923.83 654.696 923.581 653.513C923.456 652.641 923.144 652.703 921.897 654.074Z" fill="url(#paint42_linear_40_95)"/>
<path d="M927.695 723.142C928.256 770.599 929.005 793.768 929.94 794.889C931.374 796.632 936.86 797.193 950.825 796.944C960.925 796.819 964.915 796.508 966.037 795.885L967.533 795.075L967.159 779.069C966.972 770.288 966.473 745.999 966.099 725.135C965.663 704.209 965.289 686.771 965.102 686.335C964.915 685.712 960.862 685.587 946.087 685.587L927.259 685.65L927.695 723.142Z" fill="url(#paint43_linear_40_95)"/>
<defs>
<linearGradient id="paint0_linear_40_95" x1="1025" y1="866.739" x2="41.5768" y2="866.739" gradientUnits="userSpaceOnUse">
<stop stop-color="#4F772D"/>
<stop offset="1" stop-color="#90A955"/>
</linearGradient>
<linearGradient id="paint1_linear_40_95" x1="1025" y1="866.739" x2="41.5768" y2="866.739" gradientUnits="userSpaceOnUse">
<stop stop-color="#4F772D"/>
<stop offset="1" stop-color="#90A955"/>
</linearGradient>
<linearGradient id="paint2_linear_40_95" x1="1025" y1="866.739" x2="41.5768" y2="866.739" gradientUnits="userSpaceOnUse">
<stop stop-color="#4F772D"/>
<stop offset="1" stop-color="#90A955"/>
</linearGradient>
<linearGradient id="paint3_linear_40_95" x1="1025" y1="866.739" x2="41.5768" y2="866.739" gradientUnits="userSpaceOnUse">
<stop stop-color="#4F772D"/>
<stop offset="1" stop-color="#90A955"/>
</linearGradient>
<linearGradient id="paint4_linear_40_95" x1="778" y1="791.052" x2="1094.66" y2="791.052" gradientUnits="userSpaceOnUse">
<stop stop-color="#4F772D"/>
<stop offset="1" stop-color="#90A955"/>
</linearGradient>
<linearGradient id="paint5_linear_40_95" x1="778" y1="791.052" x2="1094.66" y2="791.052" gradientUnits="userSpaceOnUse">
<stop stop-color="#4F772D"/>
<stop offset="1" stop-color="#90A955"/>
</linearGradient>
<linearGradient id="paint6_linear_40_95" x1="778" y1="791.052" x2="1094.66" y2="791.052" gradientUnits="userSpaceOnUse">
<stop stop-color="#4F772D"/>
<stop offset="1" stop-color="#90A955"/>
</linearGradient>
<linearGradient id="paint7_linear_40_95" x1="778" y1="791.052" x2="1094.66" y2="791.052" gradientUnits="userSpaceOnUse">
<stop stop-color="#4F772D"/>
<stop offset="1" stop-color="#90A955"/>
</linearGradient>
<linearGradient id="paint8_linear_40_95" x1="778" y1="791.052" x2="1094.66" y2="791.052" gradientUnits="userSpaceOnUse">
<stop stop-color="#4F772D"/>
<stop offset="1" stop-color="#90A955"/>
</linearGradient>
<linearGradient id="paint9_linear_40_95" x1="778" y1="791.052" x2="1094.66" y2="791.052" gradientUnits="userSpaceOnUse">
<stop stop-color="#4F772D"/>
<stop offset="1" stop-color="#90A955"/>
</linearGradient>
<linearGradient id="paint10_linear_40_95" x1="778" y1="791.052" x2="1094.66" y2="791.052" gradientUnits="userSpaceOnUse">
<stop stop-color="#4F772D"/>
<stop offset="1" stop-color="#90A955"/>
</linearGradient>
<linearGradient id="paint11_linear_40_95" x1="778" y1="791.052" x2="1094.66" y2="791.052" gradientUnits="userSpaceOnUse">
<stop stop-color="#4F772D"/>
<stop offset="1" stop-color="#90A955"/>
</linearGradient>
<linearGradient id="paint12_linear_40_95" x1="778" y1="791.052" x2="1094.66" y2="791.052" gradientUnits="userSpaceOnUse">
<stop stop-color="#4F772D"/>
<stop offset="1" stop-color="#90A955"/>
</linearGradient>
<linearGradient id="paint13_linear_40_95" x1="778" y1="791.052" x2="1094.66" y2="791.052" gradientUnits="userSpaceOnUse">
<stop stop-color="#4F772D"/>
<stop offset="1" stop-color="#90A955"/>
</linearGradient>
<linearGradient id="paint14_linear_40_95" x1="778" y1="791.052" x2="1094.66" y2="791.052" gradientUnits="userSpaceOnUse">
<stop stop-color="#4F772D"/>
<stop offset="1" stop-color="#90A955"/>
</linearGradient>
<linearGradient id="paint15_linear_40_95" x1="778" y1="791.052" x2="1094.66" y2="791.052" gradientUnits="userSpaceOnUse">
<stop stop-color="#4F772D"/>
<stop offset="1" stop-color="#90A955"/>
</linearGradient>
<linearGradient id="paint16_linear_40_95" x1="778" y1="791.052" x2="1094.66" y2="791.052" gradientUnits="userSpaceOnUse">
<stop stop-color="#4F772D"/>
<stop offset="1" stop-color="#90A955"/>
</linearGradient>
<linearGradient id="paint17_linear_40_95" x1="778" y1="791.052" x2="1094.66" y2="791.052" gradientUnits="userSpaceOnUse">
<stop stop-color="#4F772D"/>
<stop offset="1" stop-color="#90A955"/>
</linearGradient>
<linearGradient id="paint18_linear_40_95" x1="778" y1="791.052" x2="1094.66" y2="791.052" gradientUnits="userSpaceOnUse">
<stop stop-color="#4F772D"/>
<stop offset="1" stop-color="#90A955"/>
</linearGradient>
<linearGradient id="paint19_linear_40_95" x1="778" y1="791.052" x2="1094.66" y2="791.052" gradientUnits="userSpaceOnUse">
<stop stop-color="#4F772D"/>
<stop offset="1" stop-color="#90A955"/>
</linearGradient>
<linearGradient id="paint20_linear_40_95" x1="778" y1="791.052" x2="1094.66" y2="791.052" gradientUnits="userSpaceOnUse">
<stop stop-color="#4F772D"/>
<stop offset="1" stop-color="#90A955"/>
</linearGradient>
<linearGradient id="paint21_linear_40_95" x1="778" y1="791.052" x2="1094.66" y2="791.052" gradientUnits="userSpaceOnUse">
<stop stop-color="#4F772D"/>
<stop offset="1" stop-color="#90A955"/>
</linearGradient>
<linearGradient id="paint22_linear_40_95" x1="778" y1="791.052" x2="1094.66" y2="791.052" gradientUnits="userSpaceOnUse">
<stop stop-color="#4F772D"/>
<stop offset="1" stop-color="#90A955"/>
</linearGradient>
<linearGradient id="paint23_linear_40_95" x1="778" y1="791.052" x2="1094.66" y2="791.052" gradientUnits="userSpaceOnUse">
<stop stop-color="#4F772D"/>
<stop offset="1" stop-color="#90A955"/>
</linearGradient>
<linearGradient id="paint24_linear_40_95" x1="778" y1="791.052" x2="1094.66" y2="791.052" gradientUnits="userSpaceOnUse">
<stop stop-color="#4F772D"/>
<stop offset="1" stop-color="#90A955"/>
</linearGradient>
<linearGradient id="paint25_linear_40_95" x1="778" y1="791.052" x2="1094.66" y2="791.052" gradientUnits="userSpaceOnUse">
<stop stop-color="#4F772D"/>
<stop offset="1" stop-color="#90A955"/>
</linearGradient>
<linearGradient id="paint26_linear_40_95" x1="778" y1="791.052" x2="1094.66" y2="791.052" gradientUnits="userSpaceOnUse">
<stop stop-color="#4F772D"/>
<stop offset="1" stop-color="#90A955"/>
</linearGradient>
<linearGradient id="paint27_linear_40_95" x1="778" y1="791.052" x2="1094.66" y2="791.052" gradientUnits="userSpaceOnUse">
<stop stop-color="#4F772D"/>
<stop offset="1" stop-color="#90A955"/>
</linearGradient>
<linearGradient id="paint28_linear_40_95" x1="778" y1="791.052" x2="1094.66" y2="791.052" gradientUnits="userSpaceOnUse">
<stop stop-color="#4F772D"/>
<stop offset="1" stop-color="#90A955"/>
</linearGradient>
<linearGradient id="paint29_linear_40_95" x1="778" y1="791.052" x2="1094.66" y2="791.052" gradientUnits="userSpaceOnUse">
<stop stop-color="#4F772D"/>
<stop offset="1" stop-color="#90A955"/>
</linearGradient>
<linearGradient id="paint30_linear_40_95" x1="778" y1="791.052" x2="1094.66" y2="791.052" gradientUnits="userSpaceOnUse">
<stop stop-color="#4F772D"/>
<stop offset="1" stop-color="#90A955"/>
</linearGradient>
<linearGradient id="paint31_linear_40_95" x1="778" y1="791.052" x2="1094.66" y2="791.052" gradientUnits="userSpaceOnUse">
<stop stop-color="#4F772D"/>
<stop offset="1" stop-color="#90A955"/>
</linearGradient>
<linearGradient id="paint32_linear_40_95" x1="778" y1="791.052" x2="1094.66" y2="791.052" gradientUnits="userSpaceOnUse">
<stop stop-color="#4F772D"/>
<stop offset="1" stop-color="#90A955"/>
</linearGradient>
<linearGradient id="paint33_linear_40_95" x1="778" y1="791.052" x2="1094.66" y2="791.052" gradientUnits="userSpaceOnUse">
<stop stop-color="#4F772D"/>
<stop offset="1" stop-color="#90A955"/>
</linearGradient>
<linearGradient id="paint34_linear_40_95" x1="778" y1="791.052" x2="1094.66" y2="791.052" gradientUnits="userSpaceOnUse">
<stop stop-color="#4F772D"/>
<stop offset="1" stop-color="#90A955"/>
</linearGradient>
<linearGradient id="paint35_linear_40_95" x1="778" y1="791.052" x2="1094.66" y2="791.052" gradientUnits="userSpaceOnUse">
<stop stop-color="#4F772D"/>
<stop offset="1" stop-color="#90A955"/>
</linearGradient>
<linearGradient id="paint36_linear_40_95" x1="778" y1="791.052" x2="1094.66" y2="791.052" gradientUnits="userSpaceOnUse">
<stop stop-color="#4F772D"/>
<stop offset="1" stop-color="#90A955"/>
</linearGradient>
<linearGradient id="paint37_linear_40_95" x1="778" y1="791.052" x2="1094.66" y2="791.052" gradientUnits="userSpaceOnUse">
<stop stop-color="#4F772D"/>
<stop offset="1" stop-color="#90A955"/>
</linearGradient>
<linearGradient id="paint38_linear_40_95" x1="778" y1="791.052" x2="1094.66" y2="791.052" gradientUnits="userSpaceOnUse">
<stop stop-color="#4F772D"/>
<stop offset="1" stop-color="#90A955"/>
</linearGradient>
<linearGradient id="paint39_linear_40_95" x1="778" y1="791.052" x2="1094.66" y2="791.052" gradientUnits="userSpaceOnUse">
<stop stop-color="#4F772D"/>
<stop offset="1" stop-color="#90A955"/>
</linearGradient>
<linearGradient id="paint40_linear_40_95" x1="778" y1="791.052" x2="1094.66" y2="791.052" gradientUnits="userSpaceOnUse">
<stop stop-color="#4F772D"/>
<stop offset="1" stop-color="#90A955"/>
</linearGradient>
<linearGradient id="paint41_linear_40_95" x1="778" y1="791.052" x2="1094.66" y2="791.052" gradientUnits="userSpaceOnUse">
<stop stop-color="#4F772D"/>
<stop offset="1" stop-color="#90A955"/>
</linearGradient>
<linearGradient id="paint42_linear_40_95" x1="778" y1="791.052" x2="1094.66" y2="791.052" gradientUnits="userSpaceOnUse">
<stop stop-color="#4F772D"/>
<stop offset="1" stop-color="#90A955"/>
</linearGradient>
<linearGradient id="paint43_linear_40_95" x1="778" y1="791.052" x2="1094.66" y2="791.052" gradientUnits="userSpaceOnUse">
<stop stop-color="#4F772D"/>
<stop offset="1" stop-color="#90A955"/>
</linearGradient>
</defs>
</svg>
