<svg width="51" height="46" viewBox="0 0 51 46" fill="none" xmlns="http://www.w3.org/2000/svg">
<mask id="mask0_736_73" style="mask-type:alpha" maskUnits="userSpaceOnUse" x="2" y="4" width="47" height="41">
<path fill-rule="evenodd" clip-rule="evenodd" d="M32.0929 35H18L11.5 41.5L9 44V40.4645V37.5V35H6.5H4.5H2V32.5V6.5V4H4.5H46.5H49V6.5V32.5V35H46.5H41.5647L39.1895 32.5H46.5V6.5H4.5V32.5H9H11.5V35V37.9645L16.2322 33.2322L16.9645 32.5H18H29.7176L32.0929 35Z" fill="black"/>
<path fill-rule="evenodd" clip-rule="evenodd" d="M21.456 18.8198L27.4053 20.0969L43.1638 36.6831L45.8047 39.4644L40.8274 44.1933L38.1857 41.4128L22.4272 24.8267L21.456 18.8198ZM23.6622 24.2147L23.0635 20.5118L26.7311 21.299L23.6622 24.2147ZM41.3022 36.6354L38.2333 39.5511L24.5901 25.1914L27.6589 22.2756L41.3022 36.6354ZM39.1403 40.5058L42.2092 37.5901L43.9586 39.4314L40.8897 42.3471L39.1403 40.5058Z" fill="black"/>
<line x1="7" y1="19.25" x2="20" y2="19.25" stroke="black" stroke-width="1.5"/>
<line x1="36" y1="15.25" x2="44" y2="15.25" stroke="black" stroke-width="1.5"/>
<line x1="7" y1="15.25" x2="20" y2="15.25" stroke="black" stroke-width="1.5"/>
<line x1="22" y1="15.25" x2="34" y2="15.25" stroke="black" stroke-width="1.5"/>
<line x1="7" y1="11.25" x2="27" y2="11.25" stroke="black" stroke-width="1.5"/>
<line x1="29" y1="11.25" x2="38" y2="11.25" stroke="black" stroke-width="1.5"/>
</mask>
<g mask="url(#mask0_736_73)">
<rect x="-1" y="-4" width="53" height="53" fill="url(#paint0_linear_736_73)"/>
</g>
<defs>
<linearGradient id="paint0_linear_736_73" x1="25.5" y1="-4" x2="25.5" y2="49" gradientUnits="userSpaceOnUse">
<stop offset="0.25" stop-color="#4F772D"/>
<stop offset="0.75" stop-color="#90A955"/>
</linearGradient>
</defs>
</svg>
