<svg width="3195" height="1054" viewBox="0 0 3195 1054" fill="none" xmlns="http://www.w3.org/2000/svg">
<path fill-rule="evenodd" clip-rule="evenodd" d="M409.5 488.126C465 478.626 521.5 464.626 582.5 422.626C626.5 442.626 681 438.126 686.5 392.626C745.5 418.126 738.5 379.126 795.5 365.126C790.5 345.126 781.5 328.126 781.5 314.626C805.5 294.626 821.5 291.126 834 294.626C834 309.626 797 305.126 795.5 326.626C794.698 338.126 809.5 344.626 809.5 365.126C861.999 366.532 878.427 364.945 885.5 359.126C883.5 314.626 897 311.131 891.5 268.626C996.829 268.626 998.5 263.005 1070 197.5C1070 220.5 1062 208 1060 222.626C1058.44 234.025 1078.5 236.631 1093 249.125C1105.72 259.166 1210.77 273.6 1238 247.5C1247.49 238.404 1245.46 224.985 1245.46 221.984V214.546L1239.95 208.074C1219.95 184.216 1219.27 183.54 1215.89 184.216C1214.25 184.506 1211.93 184.313 1210.77 183.733L1208.74 182.574L1210.77 178.711L1212.7 174.847L1210 172.722C1208.55 171.563 1203.72 167.409 1199.46 163.642L1191.54 156.688L1186.61 157.944C1183.91 158.62 1180.81 159.972 1179.85 160.841C1178.11 162.387 1178.11 162.87 1179.27 166.347C1183.13 177.165 1181.88 186.728 1175.79 193.682C1169.41 200.83 1158.49 205.37 1140.81 208.268L1137.14 208.847L1139.65 203.921C1141.58 200.154 1142.35 196.58 1143.03 188.66C1143.61 182.961 1144.38 176.875 1144.87 175.04C1147.38 166.637 1156.08 160.841 1168.35 159.586C1173.66 159.103 1176.37 158.233 1179.17 156.301C1181.2 154.853 1183.33 153.694 1183.71 153.694C1184.2 153.694 1184.58 153.307 1184.58 152.824C1184.58 151.569 1177.43 150.023 1174.24 150.506L1171.54 150.989L1173.57 148.864C1175.5 146.932 1176.08 146.836 1180.33 147.705C1191.06 150.023 1192.41 144.711 1185.36 128.773C1181.68 120.659 1180.81 119.404 1178.78 119.404C1177.05 119.404 1176.27 118.727 1175.6 116.409C1175.11 114.767 1173.76 112.159 1172.5 110.614L1170.38 107.909L1165.64 109.938C1159.46 112.642 1150.28 114.284 1145.93 113.512C1137.52 112.063 1129.79 104.818 1124.19 93.324C1120.61 86.0796 1116.17 71.9773 1117.13 71.108C1117.42 70.7216 1119.16 71.2046 1121 72.1705C1123.51 73.5228 1127.57 74.0057 1140.33 74.3921L1140.45 74.3965C1156.27 74.9717 1156.47 74.979 1160.52 77.8694C1165.74 81.5399 1170.86 90.6194 1171.83 98.057C1172.7 104.818 1178.69 113.125 1182.65 113.125C1185.07 113.125 1185.55 114.091 1191.83 130.705C1200.82 154.756 1202.65 158.137 1213.28 168.858C1221.98 177.552 1245.94 198.125 1247.49 198.125C1247.88 198.125 1248.75 196.483 1249.52 194.455C1252.42 186.341 1250.1 158.62 1244.11 129.256L1241.89 118.051L1244.2 111.58C1246.52 104.915 1246.43 102.693 1243.91 100.182C1242.66 98.9263 1241.98 98.9263 1238.6 100.182C1233.28 102.017 1221.98 101.921 1218.02 100.085C1209.13 95.8354 1202.27 82.216 1199.66 63.6705L1199.17 60L1204.01 62.5114C1207.68 64.3466 1211.25 65.1193 1218.89 65.7955C1228.94 66.6648 1234.64 68.3068 1238.02 71.3978C1241.5 74.5853 1244.69 82.3126 1245.36 89.4603C1245.85 95.1592 1246.52 97.091 1248.84 100.085C1250.34 101.845 1251.83 103.845 1252.53 104.771L1252.53 104.775L1252.54 104.787L1252.71 105.012C1253.29 105.881 1252.9 107.716 1251.35 110.904C1247.1 119.597 1247.1 119.693 1251.74 141.04C1254.16 151.955 1257.25 164.512 1258.51 168.762C1261.5 178.711 1261.5 181.029 1258.31 192.233L1255.8 201.41L1260.73 205.949C1263.53 208.461 1265.75 211.165 1265.75 211.938C1265.75 212.711 1264.4 215.126 1262.76 217.444C1260.05 221.114 1259.86 221.887 1260.44 226.523C1261.31 232.802 1262.47 235.699 1264.98 238.404C1267.69 241.302 1268.94 241.205 1272.81 237.728C1276.29 234.734 1293.39 209.91 1296.29 203.728C1297.83 200.347 1298.22 200.154 1306.92 198.125C1311.85 197.063 1316.97 195.228 1318.32 194.165C1321.51 191.654 1328.85 179.387 1336.87 162.966C1343.15 150.12 1343.35 149.444 1341.61 148.478C1340.55 147.898 1337.26 145 1334.26 142.103C1327.6 135.631 1325.95 131.091 1327.6 123.364C1328.85 117.182 1334.17 108.006 1340.35 101.244C1344.51 96.6081 1344.89 96.4149 1344.99 98.6365C1344.99 101.727 1348.76 109.358 1353.59 115.926C1359 123.557 1359.97 127.421 1358.04 133.989C1356.88 137.853 1355.14 140.847 1351.27 145C1348.37 148.188 1345.96 151.569 1345.96 152.438C1345.96 155.142 1342.28 160.455 1340.45 160.551C1339.39 160.551 1339.19 160.841 1339.97 161.131C1340.55 161.324 1341.13 162.87 1341.13 164.415C1341.13 165.961 1341.7 168.762 1342.48 170.597L1343.93 173.881L1351.46 173.398C1361.42 172.625 1366.35 173.978 1371.76 179.097C1377.84 184.892 1380.74 193.393 1381.42 207.108L1382 217.54L1377.27 214.643C1374.27 212.711 1369.24 210.972 1363.35 209.716C1350.98 207.012 1346.83 204.404 1343.44 197.449C1341.13 192.813 1340.64 190.591 1340.64 183.637C1340.55 177.745 1339.97 174.364 1338.71 171.756L1336.87 168.086L1335.13 172.432C1334.26 174.847 1331.66 179.773 1329.43 183.347C1328.3 185.222 1326.86 187.551 1325.47 189.806L1325.4 189.91L1325.39 189.936L1325.36 189.981L1325.34 190.005C1324.05 192.093 1322.81 194.103 1321.9 195.614C1318.22 201.603 1316.48 202.858 1307.11 205.37C1297.74 207.978 1296.29 209.523 1286.43 227.586C1281.5 236.569 1273.77 249.126 1269.14 255.308C1268.96 255.541 1268.79 255.772 1268.63 256C1257.13 279.5 1154 298.631 1105.5 276.626C1095.1 277.996 1090.1 289.958 1082 319.631C1177.5 310.631 1217.18 344.672 1279.5 410.131C1209.5 403.131 1221.5 296.631 1032.5 354.626C945.031 364.545 923 365.126 906.5 383.131C896.5 430.631 883.5 463.631 869 468.626C980.824 481.739 1019.55 493.095 1049 520.126C1122 508.631 1262.5 547.131 1362 519.126C1374.5 523.131 1384 540.131 1399.5 540.131C1452 519.126 1443 467.631 1479.5 404.131C1491 384.131 1506.5 390.131 1523.5 378.131C1532.71 371.631 1540.5 325.131 1570 291.131C1591 250.631 1587.5 218.131 1612.5 192.631C1638 219.131 1585 259.631 1585 292.131C1586.21 313.045 1642.74 302.254 1701.5 256.113L1714 268.207C1696.22 284.68 1681.68 301.214 1667 321.131C1635.39 319.437 1619 328.631 1622.5 353.131C1616.64 356.119 1610.36 356.427 1604.5 353.131C1582 318.131 1552.5 331.631 1551 391.631C1489.5 417.631 1467 460.631 1462.5 607.126C1461.58 637.126 1526 650.631 1552 688.631C1586.8 680.96 1604.5 677.131 1622.5 688.631C1728.85 589.192 1776.08 550.742 1846 502.131C1899 482.131 1898.5 504.631 1960.5 446.631C1988.84 420.115 2003.5 439.406 2025 411.631C2038.86 393.723 2037.5 348.131 2056.5 317.631C2069.27 297.131 2099 296.131 2115.5 275.631C2115.48 282.627 2114.55 288.039 2109.5 303.131C2060 319.131 2040.5 371.631 2060 405.631C2071.5 422.131 2084 425.131 2145.5 430.131C2166.5 431.838 2189.5 449.631 2242 464.131C2259 436.131 2255 479.631 2343.5 486.131C2398 488.631 2431.5 493.631 2461.5 501.631C2517 493.131 2527 434.131 2547 330.131C2549.5 314.131 2558.2 324.138 2558 327.131C2555.8 359.631 2578.5 374.631 2594 317.131C2602.5 267.131 2558 236.131 2560 195.131C2573.5 218.631 2581.23 225.244 2590 244.631C2597.5 276.631 2592 289.131 2610.5 293.131C2644 287.631 2687.5 214.631 2663.5 94.6309C2692 142.131 2691 228.131 2661.5 263.631C2665.5 276.131 2688 271.631 2700.5 282.631C2631 272.131 2601.5 320.131 2635.5 322.131C2562.2 376.795 2534.5 416.631 2545 478.631C2575.72 498.676 2601.5 495 2638.62 480.04C2639.56 479.51 2640.63 478.867 2641.88 478.107C2645.33 475.885 2650.2 473.247 2652.6 472.137C2654.99 471.027 2659.68 467.268 2663.15 463.909L2663.5 463.558C2670.06 457.042 2672.09 455.019 2674.09 455.057C2674.99 455.074 2675.88 455.509 2677.17 456.14L2677.36 456.231C2680.47 457.752 2682.14 457.937 2686.11 457.121C2691.7 455.874 2704.63 451.701 2723.26 445.033C2730.41 442.533 2740.43 439.611 2745.53 438.711C2751.24 437.559 2755.58 436.199 2757.14 434.946C2761.04 431.761 2765.55 418.927 2772.41 391.771C2780.12 361.039 2781.45 353.918 2782.44 338.148C2782.86 331.404 2783.37 325.79 2783.55 325.467C2784.51 324.465 2780.19 319.317 2777.31 318.089C2772.82 316.155 2766.83 310.823 2764 306.183C2760.23 300.064 2760.4 294.062 2764.42 282.918C2766.56 276.974 2767.98 271.085 2768.02 267.468L2768.19 261.467L2772.66 264.538C2780.83 270.015 2789.62 278.337 2792.7 283.578C2798.74 293.656 2796.93 305.357 2787.9 314.504L2784.44 318.068L2787.98 322.449C2789.91 324.782 2791.94 327.004 2792.59 327.368C2793.23 327.733 2792.99 328.577 2791.72 329.602C2790.16 330.855 2789.75 332.331 2790.03 336.028C2790.23 338.697 2789.88 346.365 2789.15 353.132C2788.42 359.899 2788.13 365.703 2788.45 365.885C2789.34 366.645 2796.49 362.699 2798.87 360.041C2800.11 358.709 2801.96 355.782 2802.84 353.651C2803.81 351.409 2806.83 347.568 2809.74 345.077C2814.01 341.348 2815.21 339.4 2816.59 334.442C2818.89 326.525 2826.51 316.452 2833.27 312.743C2839.81 309.049 2844.35 308.811 2859.13 311.519C2869.4 313.328 2873.04 313.571 2879.49 312.775C2883.89 312.134 2887.5 311.966 2887.52 312.172C2887.54 312.48 2885.78 316.639 2883.55 321.35C2875.62 338.262 2865.27 350.502 2855.14 354.672C2845.92 358.567 2831.99 356.208 2822.55 349.069L2817.51 345.216L2813.93 348.582C2811.81 350.601 2809.97 353.63 2809.33 356.054C2808.55 359.417 2807.32 360.955 2802.69 364.091C2793.66 370.45 2783.07 383.74 2778.9 394.277C2773.13 408.238 2773.01 423.117 2778.54 430.754C2782.36 436.146 2785.22 437.067 2798.97 436.962C2812.61 436.865 2814.5 437.136 2824.36 440.421C2833.17 443.372 2846.43 443.717 2869.33 441.581L2888.33 439.841L2888.85 430.2C2889.06 424.814 2889.49 419.515 2889.71 418.26C2889.91 416.799 2888.94 415.013 2886.16 412.332C2876.8 403.432 2876.52 398.291 2884.85 385.376C2886.7 382.449 2888.59 378.693 2888.78 377.027C2889.07 375.456 2889.68 373.964 2890.07 373.625C2891.15 372.821 2899.06 380.383 2902.66 385.688C2904.4 388.139 2906.26 392.233 2906.77 394.879C2907.68 398.734 2907.38 400.305 2905.5 404.164C2904.25 406.737 2901.5 410.042 2899.24 411.657C2894.92 414.77 2894.62 416.238 2897.09 420.183C2897.93 421.669 2898.53 424.205 2898.44 425.76C2898.22 428.358 2899.85 426.687 2909.45 415.432C2915.62 408.05 2922.34 401.142 2924.11 399.976C2926.38 398.566 2932.37 396.98 2941.56 395.462C2957.59 392.707 2957.79 392.589 2976.69 378.569L2989.43 369.247L3011.05 366.587L3027.77 355.107C3033.75 350.94 3039.57 346.962 3043.29 344.419L3043.29 344.417L3043.3 344.415C3045.26 343.075 3046.63 342.134 3047.14 341.775C3048.72 340.727 3049.88 339.71 3049.75 339.41C3049.73 339.102 3045.99 337.524 3041.61 335.685C3034.69 333.005 3033.02 332.718 3030.93 333.805C3029.53 334.529 3024.12 335.453 3019.08 335.832C3001.39 337.163 2984 331.45 2976.25 321.913C2971.34 315.675 2968.49 309.384 2964.31 295.138C2958.44 274.825 2954.39 266.353 2946.94 259.376L2943.03 255.54L2956.09 254.557C2994.14 251.694 3022.93 260.576 3033.91 278.647C3039.57 287.824 3042.83 307.818 3040.6 319.447C3040.01 322.589 3039.51 325.518 3039.53 325.826C3039.61 326.853 3051.38 330.82 3055.76 331.214C3058.57 331.518 3060.3 331.181 3062.06 329.81C3063.33 328.785 3064.72 327.958 3065.02 327.935C3066.05 327.858 3065.87 332.312 3064.5 337.474L3063.03 342.645L3051.14 349.529C3039.14 356.42 3032.41 361.78 3033.67 363.44C3034.72 365.013 3049.38 363.291 3073.13 358.716L3096.27 354.29L3104.89 349.202C3112.21 344.83 3114.05 343.143 3116.7 338.503C3120.62 331.497 3129.95 323.566 3137.29 320.743C3142.42 318.808 3143.44 318.731 3149.22 319.845C3152.77 320.404 3160.85 323.307 3167.18 326.341C3178 331.31 3185.6 333.32 3191.56 332.871C3193 332.763 3194.16 333.088 3194.19 333.499C3194.23 334.012 3190.55 338.729 3185.89 344.139C3168.51 364.653 3151.76 372.935 3137.94 367.883C3130.81 365.218 3123.29 360.105 3118.76 354.87L3114.67 350.015L3110.99 351.944C3108.99 352.92 3105.68 355.647 3103.58 357.871C3101.19 360.529 3099.72 361.569 3099.34 360.668C3098.98 360.075 3097.09 359.598 3095.13 359.745L3091.53 360.016L3092.5 364.59C3093.22 367.324 3093.15 369.187 3092.54 369.234C3090.17 369.412 3088.01 368.129 3086.9 365.837C3086.03 363.838 3085.28 363.481 3083.47 364.134C3082.26 364.535 3077.4 365.933 3072.63 367.22C3067.87 368.508 3063.64 369.963 3063.26 370.404C3062.19 371.413 3083.67 383.325 3086.24 383.131C3089.12 382.914 3093.35 386.933 3097.49 393.85C3100.44 398.687 3101.77 399.827 3107.33 402.299C3114.82 405.557 3123.57 413.262 3128.16 420.661C3130.74 424.804 3131.43 427.024 3131.8 433.398C3132.34 440.482 3131.95 442.267 3127.63 454.88C3121.85 471.526 3120.8 476.871 3121.98 484.217C3122.57 487.993 3122.48 489.549 3121.73 489.192C3115.94 486.427 3103.35 477.152 3095.58 470.198C3082.61 458.577 3077.4 449.779 3076.46 438.697C3075.97 432.229 3076.31 429.828 3078.31 424.825C3081.45 417.051 3086.63 408.917 3091.17 404.651L3094.75 401.387L3091.38 396.478C3089.52 393.727 3086.39 390.555 3084.43 389.359C3082.59 388.156 3078.76 385.449 3076.01 383.178C3069.07 377.608 3063.87 375.831 3054.14 375.737C3049.59 375.769 3042.2 375.086 3037.8 374.282C3028.16 372.632 3023.63 372.87 3016.27 375.385C3007.2 378.546 3000.33 382.057 2991.27 388.211C2981.43 394.837 2973.79 397.684 2951.76 403.162C2943.33 405.242 2934.64 407.961 2932.26 409.276C2927.1 412.245 2923.55 417.263 2915.81 432.611C2912.47 439.058 2908.63 445.749 2907.31 447.397C2902.76 452.902 2900.31 453.396 2865.96 455.878C2848.47 457.09 2834.6 458.34 2835.16 458.815C2837.56 460.595 2887.48 475.323 2892.06 475.598C2894.85 475.698 2900.04 475.824 2903.35 475.885C2906.77 475.937 2910 476.313 2910.64 476.575C2911.19 476.947 2916.66 476.845 2922.73 476.389C2932.3 475.772 2934.17 475.94 2936.88 477.595C2941.34 480.461 2944.45 484.77 2948.09 493.273C2949.86 497.477 2952.6 502.33 2954.18 504.07L2957.01 507.368L2951.31 508.52C2940.4 510.683 2926.92 508.806 2921.32 504.477C2916.7 500.695 2914.61 496.411 2913.26 488.046L2912.06 480.392L2909 480.829C2907.26 481.166 2901.48 481.291 2896.09 481.078C2890.7 480.966 2886.16 481.102 2885.97 481.322C2885.78 481.543 2886.96 483.417 2888.56 485.465C2890.55 487.938 2891.42 489.015 2891.4 490.072C2891.38 490.887 2890.83 491.689 2889.86 493.111C2889.14 494.024 2887.93 495.717 2886.76 497.361L2886.76 497.362L2886.71 497.431C2886.21 498.136 2885.71 498.829 2885.27 499.446C2883.3 502.175 2882.46 504.819 2882.34 508.649C2882.03 515.488 2879.73 522.063 2875.88 527.309C2871.64 532.791 2865.5 535.008 2851.41 536.068C2843.6 536.656 2839.21 537.502 2836.32 538.856C2834.02 539.958 2832 540.626 2831.68 540.444C2830.9 539.677 2834.86 522.238 2836.96 517.226C2840.2 509.342 2844.41 503.449 2848.93 500.321C2852.66 497.665 2854.48 497.115 2860.55 496.762C2865.09 496.524 2869.88 496.989 2873.48 498.061C2879.93 500.053 2880.93 499.565 2883.21 494.128C2885.07 489.961 2884.05 487.353 2878.98 483.191C2875.55 480.248 2870.98 478.63 2853.32 473.453C2817.49 463.139 2814.98 462.811 2776.91 464.023C2759.07 464.643 2738.25 465.59 2730.64 466.162C2717.37 467.16 2716.87 467.302 2715.1 469.913C2713.89 471.656 2713.5 473.441 2714.06 475.36C2714.76 477.786 2714.29 478.441 2709.45 481.489L2704.13 484.988L2703.29 482.056C2701.5 476.099 2696.53 476.06 2684.36 481.932C2669.4 489.042 2654.53 497.911 2642.88 506.466C2601.25 506.808 2571.98 515.559 2524 520.631C2548.74 534.435 2576.6 534.338 2630.5 531.131C2691 560.131 2708.02 567.523 2831 562.131C2962 580.131 3011 667.131 3011 679.131C2978.5 677.131 2950 620.631 2885 595.631C2789 551.631 2779 599.403 2750.5 595.631C2682.5 586.631 2657 527.131 2555.5 559.131C2446 546.131 2396.5 507.631 2247 513.631C2207 470.131 2134 457.131 2049 442.631C1996.11 477.401 1891.42 543.35 1827 579.872C2008 653.5 2058.5 713 2124 725.5C2219 746.5 2179 717 2460 740C2573 742 2547.5 713.5 2593 708.5C2593.76 702.332 2591 700 2591 696.5C2572.5 674 2598.5 673 2591 647C2610 660 2609 692 2593.5 696L2596 707.5C2602.11 707.671 2605.16 706.728 2610 703.5C2599.5 684.5 2632 655.5 2665 670.5C2633 674.5 2648.5 717.5 2611.5 706C2606.88 708.946 2604.01 710.344 2597.5 711.5C2600.03 715.562 2602.5 716.831 2607 719C2615 699 2652 712 2656 734C2634 717.5 2623.5 748.5 2606 722C2600.42 718.894 2597.5 716.911 2593.5 712C2580.5 715 2571.5 716.5 2556 732C2540.5 747.5 2521 740.5 2465 752.5C2472.9 756.548 2483 754.5 2500 760.5C2521.49 769.405 2528.57 777.845 2542.5 792C2547.79 791.193 2550.75 790.467 2556 788.5C2577.5 769 2582 792.5 2606 784C2596.82 800.359 2567.5 808 2557 792C2552.49 792.036 2550.04 792.544 2546 795.5C2547.52 801.044 2548.66 803.732 2551 808C2577 797 2598.5 830.5 2591.5 860C2582 829.5 2544.5 848 2549 810C2545.6 805.793 2543.87 803.255 2542.5 797C2537.76 799.982 2536.71 802.185 2536 806.5C2557 818.5 2547 843.5 2527 857C2538 834.5 2510.5 828.5 2532.5 806.5L2532.61 805.934C2533.59 800.914 2534.18 797.932 2538.5 794C2518.06 780.495 2496.5 769 2476 769C2444.93 768.681 2435.19 769.078 2408.5 766C2378.5 821.299 2388 808 2428.5 830.5C2432.13 832.075 2436 827.5 2443 829C2477.5 810 2476 845.5 2510.5 839.5C2490.5 861.5 2445.5 854.49 2443 832.5C2436.5 830.5 2432.5 837 2424 833.5C2428.83 840.296 2428.9 844.911 2429.5 853C2466 847.5 2484 900 2464 933C2462 891.5 2407.5 900.5 2425.5 855C2424.84 845.858 2424.23 840.839 2419.5 833.5C2415.14 837.361 2413.12 840.345 2410 845.5C2434 863.5 2410 905.5 2380 908C2399 890 2372 853 2406 844C2409.21 837.836 2411.37 834.904 2416.5 831.5C2365 818 2352 822 2382.5 770C2231 744.5 2165.5 778.5 2065.5 733.5C1962.99 694.001 1899.09 667.341 1770 609.046C1666.42 672.361 1663.13 748.794 1619 740.131C1541.94 725.002 1491.66 737.596 1457.72 800.628C1462.79 806.665 1468.19 813.601 1474.42 821.287C1489.59 840.028 1490.56 840.741 1511.44 847.172C1527.05 852.021 1554.3 853.186 1566.63 849.422L1571.15 848.076L1570.35 841.472C1568.68 827.147 1575.21 811.537 1585.52 805.454C1594.82 799.879 1603.59 798.175 1622.09 798.373C1641.58 798.729 1643.34 799.146 1638.72 802.713C1634.32 806.069 1629.57 814.75 1626.14 826.054C1621.14 842.514 1615.9 849.503 1606.02 853.381C1599.89 855.765 1584.71 856.167 1578.56 854.099C1574.61 852.801 1573.82 852.987 1569.58 855.459L1565 858.138L1539.48 855.608C1525.5 854.174 1511.08 852.609 1507.64 852.114L1501.33 851.151L1517.01 868.802L1532.69 886.342L1538.14 886.597C1559.16 887.581 1586.38 901.433 1594.75 915.514C1599.41 923.189 1610.41 933.498 1614.09 933.559C1614.53 933.58 1616.29 931.659 1617.96 929.289C1621.56 923.893 1628.11 919.747 1633.71 919.23C1639.64 918.729 1649.14 923.069 1657.29 929.906C1664.47 936.03 1665.82 938.207 1662.15 938.036C1659.26 937.9 1655.84 939.41 1645.86 945.509C1635.3 951.915 1629.19 951.406 1619.31 943.487C1617.26 941.944 1614.63 940.93 1613.18 941.085C1610.94 941.314 1610.69 941.748 1611.1 944.883C1611.9 949.261 1612.11 949.605 1617.15 951.399C1621.75 953.173 1626.51 958.627 1626.56 962.302C1626.77 969.769 1623.77 979.199 1619.12 985.549L1617.22 988.131L1614.7 984.785C1613.22 982.935 1609.47 979.755 1606.22 977.71C1595.18 970.738 1593.76 965.329 1600.06 954.606C1602.6 950.273 1603.89 946.66 1604.21 942.112L1604.22 941.965C1604.89 934.799 1604.89 934.794 1589.44 917.046C1579.61 905.679 1575.93 903.169 1564.06 899.497C1555.83 896.886 1534.86 894.569 1534.79 896.123C1534.76 896.79 1537.55 903.932 1540.85 911.878C1547.48 927.547 1550.64 938.491 1547.97 936.029C1547.12 935.21 1546.19 933.719 1545.91 932.482C1545.05 929.437 1542.14 929.634 1536.73 933.276L1531.9 936.501L1534.8 943.537C1538.41 952.276 1539.22 963.443 1536.87 970.79C1534.66 977.476 1523.94 987.436 1514.14 991.986C1507.98 994.925 1495.31 998.784 1487.33 1000.3L1484.4 1000.94L1486.77 995.49C1488.77 990.909 1489.29 986.927 1489.97 972.49C1490.64 958.053 1491.27 954.298 1493.11 950.711C1497.28 942.448 1509.89 935.025 1521.31 934.001C1525.45 933.639 1528.3 932.436 1532.8 929.197C1536.15 926.683 1539.48 924.501 1540.27 924.316C1542.08 923.733 1537.35 912.938 1529.61 899.554C1523.12 888.342 1518.99 883.697 1511.71 879.572C1505.3 876.044 1498.59 869.386 1474.29 842.984C1469.1 837.287 1462.08 827.499 1455.97 817.641C1452.81 812.475 1455.26 815.02 1452.5 811.126C1382 773.131 1331 784.131 1211.5 811.126C1183 783.131 1197 765.131 1114 702.626C1035 627.631 989 593.131 958 599.126C948.5 600.963 973 620.131 964 623.126C950 624.131 939 595.057 932.5 597.626C901.508 609.874 887.646 621.868 881 669.626C842 674.626 813.5 658.626 791 662.626C804.364 682.462 835.5 694.626 873 694.626C946.091 690.055 967.5 678.126 1008.5 669.626C1040.73 741.658 1063.65 778.916 1157.5 811.126L1141.5 815.126C1123.91 811.347 1110.99 805.516 1083.5 789.626C1091.5 829.131 1154 912.601 1206 940.126C1160.5 921.131 1138 914.631 1065 797.626L1002.5 708.626C896 701.626 876 711.126 865 739.626C803.5 702.126 767 682.626 718 688.626C690.5 637.126 630.5 607.626 578.5 579.126C520.5 580.626 480 598.626 408 605.126C226.893 614.375 131.621 615.377 0 591.626V477.126C154.677 497.237 245.586 495.872 409.5 488.126ZM757.5 655.626C744.238 652.626 731.853 637.353 719.781 622.466C707.73 607.604 695.99 593.127 684 591.626L911.5 584.626C909.555 586.925 907.679 589.14 905.871 591.276C872.956 630.149 862.375 642.646 859 656.126C839.175 654.786 828.394 651.183 819.426 648.185C811.656 645.588 805.248 643.447 795.5 643.626C780.077 643.91 774.318 646.911 763.923 652.329C761.976 653.344 759.866 654.444 757.5 655.626ZM795.5 488.126H711C711 446.131 770.5 405.126 828 405.126C828 423.154 817.587 434.204 807.929 444.455C796.422 456.666 785.986 467.742 795.5 488.126ZM848 392.626H874C871.929 428.535 857.461 442.748 841.954 457.982C835.004 464.81 827.845 471.842 821.5 481.126C810.305 461.137 819.715 449.672 830.336 436.733C839.637 425.401 849.867 412.938 848 392.626ZM913.5 352.626C916.304 350.76 918.914 338.99 922.54 322.639C924.732 312.751 927.297 301.187 930.5 289.126C954.006 289.126 975.279 278.942 995.352 269.333C1013.28 260.75 1030.25 252.626 1047 252.626C1062 252.626 1067.55 253.876 1080 264.126C1059.97 321.203 1022 336.131 913.5 352.626ZM1222 611.126C1336.5 559.631 1397.5 646.131 1504.5 707.626C1490 765.131 1377 746.131 1325.5 759.631C1289.87 700.066 1268.23 667.205 1222 611.126ZM1183 637.126C1246.66 659.82 1272.62 692.844 1312.5 765.131H1249.5C1243.41 740.54 1227.28 723.526 1212.19 707.619C1192.62 686.975 1174.81 668.192 1183 637.126Z" fill="black" fill-opacity="0.05"/>
<path d="M424.255 603.413C423.438 604.717 422.677 606.113 421.971 607.604C417.948 616.103 414.894 628.478 416.384 629.969C416.607 630.192 419.661 628.925 423.237 627.136C430.835 623.334 433.516 622.439 445.807 619.681C456.832 617.221 466.59 612.823 470.314 608.573C471.655 607.008 472.847 605.89 472.996 606.039C473.592 606.71 478.732 626.54 480.37 634.665C482.605 645.326 485.287 662.472 485.287 665.603C485.287 667.317 484.989 667.839 483.797 667.839C482.977 667.839 479.923 668.51 477.093 669.256C472.921 670.449 470.612 671.716 465.547 675.741C453.256 685.284 451.468 692.962 457.874 709.065C459.29 712.494 460.854 715.252 461.45 715.401C462.12 715.476 463.238 714.507 463.983 713.165C466.888 708.17 470.687 703.697 476.124 699.075C479.402 696.242 482.754 692.515 484.393 689.906L487.149 685.433L487.67 689.906C487.894 692.291 488.341 699.299 488.639 705.486C488.862 711.599 489.235 717.712 489.458 718.979C489.756 720.992 489.533 721.44 487.596 722.185L485.436 723.08L486.478 727.329C487.074 729.64 488.117 732.845 488.788 734.411C489.83 736.797 489.83 737.617 489.086 740.3C486.702 748.277 481.637 752.228 472.251 753.57C468.75 754.092 465.919 754.688 465.919 754.986C465.994 755.21 467.707 756.775 469.867 758.416C473.517 761.248 473.964 761.397 479.03 761.397C483.648 761.397 484.616 761.174 487 759.31C490.352 756.775 493.108 752.228 494.3 747.233C494.747 745.146 495.268 743.357 495.417 743.282C495.492 743.133 497.056 743.804 498.844 744.848C500.631 745.891 504.877 747.606 508.378 748.724C511.879 749.917 516.647 752.079 518.956 753.719C521.265 755.285 523.574 756.552 524.021 756.552C524.617 756.552 524.692 755.434 524.394 752.974C522.829 741.866 519.775 733.069 515.827 728.074C514.561 726.583 513.593 725.167 513.593 724.943C513.593 724.794 514.71 724.347 515.976 724.123C522.978 722.558 529.459 714.73 528.714 708.692C528.416 706.306 527.969 705.784 525.734 705.039C518.732 702.728 506.516 704.741 499.887 709.214L497.279 711.003L496.907 708.617C496.684 707.275 496.162 700.044 495.715 692.44C492.736 641.076 491.991 633.398 487.596 609.692C487.28 607.978 486.823 605.636 486.295 603L483.15 593.447C465.335 597.113 446.272 600.76 424.255 603.413Z" fill="black" fill-opacity="0.05"/>
<path d="M493.114 591.376L498.566 603C499.834 605.643 500.855 608.016 501.302 609.468C501.6 610.735 501.451 611.183 500.706 611.183C499.291 611.183 498.695 612.748 498.695 616.476C498.695 619.085 499.216 620.054 502.643 623.632C505.175 626.39 508.08 628.478 510.986 629.82C513.444 630.938 518.434 634.069 522.01 636.827C525.66 639.511 528.863 641.747 529.161 641.747C529.608 641.747 532.215 652.855 532.215 654.868C532.215 655.315 529.161 654.868 524.245 653.526C523.294 653.288 522.374 653.057 521.512 652.841C518.321 652.039 515.929 651.439 515.753 651.439C515.529 651.439 514.561 653.153 513.518 655.315C510.911 660.981 511.06 666.721 514.04 670.97C516.796 674.996 524.021 679.916 530.278 682.003L535.12 683.569L533.258 687.446C532.289 689.607 531.098 693.111 530.651 695.273C529.459 700.566 530.129 701.237 535.195 699.522C537.28 698.851 539.143 698.404 539.292 698.553C539.515 698.702 539.292 700.715 538.919 703.026C538.174 707.723 538.621 710.332 540.111 710.332C540.707 710.332 541.154 710.779 541.154 711.226C541.154 711.748 541.675 717.19 542.271 723.378C543.761 738.958 544.878 757.67 544.878 767.436V775.636L535.493 783.016C528.863 788.235 524.692 792.26 520.967 796.957L515.678 803.517L512.326 800.61C505.771 794.795 496.013 793.379 486.702 797.032C480.668 799.343 467.931 807.096 468.601 808.065C469.793 810.078 484.989 816.19 488.788 816.19C489.83 816.19 490.501 816.414 490.352 816.712C486.925 823.422 486.553 824.764 487 829.907C487.447 835.573 489.756 843.177 493.406 851.377L495.715 856.447L498.173 855.03C508.527 849.215 518.285 840.195 521.563 833.486C524.245 828.118 524.17 823.72 521.489 816.19C520.77 814.226 520.083 812.261 519.624 810.95C519.369 810.221 519.185 809.694 519.105 809.481C518.881 808.661 522.01 806.723 530.8 802.175C537.355 798.746 542.941 796.137 543.165 796.286C543.91 797.106 541.005 810.823 538.249 819.396C534.152 832.069 532.587 838.033 530.055 850.855C525.436 874.189 521.712 903.487 519.85 931.219C519.403 937.928 519.254 938.45 517.764 938.45C516.945 938.45 513.444 939.344 510.092 940.388C504.43 942.177 503.835 942.55 501.749 945.83C498.173 951.421 494.598 963.796 496.609 963.796C497.726 963.796 515.678 957.907 517.541 957.012C518.732 956.341 518.807 957.161 518.807 970.133V983.924H515.753C511.581 983.924 499.142 989.441 495.864 992.795C492.289 996.299 490.426 1001 489.979 1007.33C489.533 1013.45 490.203 1019.71 491.32 1019.71C491.767 1019.71 494.002 1018.14 496.311 1016.28C498.62 1014.41 503.537 1011.36 507.187 1009.49C510.911 1007.63 515.38 1004.95 517.094 1003.53L520.222 1001L520.669 1004.57C522.904 1020.9 527.15 1034.39 532.215 1041.55C537.057 1048.26 547.187 1054 554.115 1054C557.616 1053.93 562.085 1051.61 565.288 1048.04C573.557 1038.87 580.261 1011.13 576.536 1001.44C574.004 994.808 569.385 991.155 562.085 990.186C556.946 989.515 552.402 991.305 549.348 995.106C547.038 998.014 544.506 1003.23 545.102 1003.83C545.325 1003.98 547.56 1003.6 550.167 1002.93C561.936 999.878 567.225 1003.6 567.225 1015.01C567.151 1030 559.106 1042.07 549.273 1042.07C545.623 1042.07 542.718 1039.98 539.664 1035.21C534.226 1026.94 530.502 1015.09 527.969 998.088C526.33 987.353 526.256 948.439 527.895 932.113L528.937 921.676L530.278 925.553C532.141 930.995 538.249 936.586 546.07 939.866C549.273 941.208 553.147 942.55 554.636 942.699L557.318 943.072L556.722 938.375C554.934 923.987 552.178 918.247 544.729 913.551C542.346 911.985 535.716 910.121 532.513 910.121H530.204L530.8 905.872C533.332 887.906 536.535 870.909 539.589 858.683L541.005 853.092L541.079 857.192C541.154 862.56 543.09 872.251 544.58 875.307C547.113 880.078 554.487 886.862 562.011 891.112C569.758 895.51 573.631 897.075 574.302 895.883C574.6 895.51 574.749 890.068 574.823 883.88C574.823 874.115 574.6 871.729 573.184 867.331C570.056 857.49 560 849.886 547.709 848.097C543.537 847.426 542.644 847.053 542.941 846.084C550.837 816.489 555.903 787.34 559.106 753.197C560.074 742.388 560.372 712.27 559.478 707.872L558.957 705.039L561.787 706.828C567.374 710.332 582.942 718.681 583.315 718.309C583.985 717.638 583.762 700.193 583.017 697.286C582.57 695.646 582.048 692.738 581.751 690.8C581.08 685.731 579.069 684.24 567.3 680.065L567.213 680.04C566.922 679.955 566.704 679.892 566.645 679.758C566.465 679.357 567.708 678.321 572.674 674.179L573.035 673.878C578.324 669.479 578.398 669.33 576.536 668.883C575.419 668.585 569.534 668.51 563.501 668.734C553.966 669.032 551.284 668.808 549.497 667.467C548.826 666.945 538.323 625.869 534.45 608.573C534.039 606.719 533.633 604.861 533.233 603L529.41 584.225C523.955 585.161 518.529 586.187 513.076 587.269L519.189 603L520.222 606.262C521.489 610.363 522.531 614.015 522.531 614.388C522.531 614.686 520.967 614.09 518.956 613.046C517.019 612.077 513.593 610.884 511.432 610.437C509.198 609.99 507.336 609.617 507.187 609.468C507.112 609.393 506.218 606.486 505.175 603.057L505.157 603L502.406 589.439C499.686 590.002 496.952 590.574 494.194 591.15C493.835 591.225 493.475 591.3 493.114 591.376Z" fill="black" fill-opacity="0.05"/>
<path d="M618.414 601.043L619.618 603C620.543 603.762 621.24 604.402 621.602 604.846C622.347 605.741 625.327 620.203 625.327 622.961C625.327 623.93 625.103 623.93 623.986 622.887C623.241 622.141 622.347 621.619 621.975 621.619C621.677 621.619 619.517 620.277 617.356 618.563C612.589 614.985 607.077 612.375 605.513 612.972C604.619 613.344 604.395 614.612 604.544 618.787C604.693 625.645 602.608 631.311 599.777 631.311C596.946 631.311 590.689 633.398 588.529 635.113C586.22 636.902 585.996 638.765 588.008 638.765C590.54 638.765 590.466 639.958 587.412 645.997C584.656 651.439 582.868 656.508 582.868 658.744C582.868 659.49 583.911 659.714 586.89 659.49L590.913 659.266L591.211 667.094C591.434 671.418 592.03 676.04 592.626 677.381L593.669 679.767L601.341 675.518C605.587 673.207 611.323 669.405 614.079 667.019L619.144 662.77L617.431 669.628C612.813 687.446 610.727 705.71 611.919 717.265C612.664 724.421 615.047 738.437 616.835 746.115C620.336 761.174 625.252 783.464 625.699 786.371L626.221 789.726H619.964C614.675 789.726 613.185 790.024 609.535 791.888C601.714 795.764 597.766 802.175 594.488 815.967L593.445 820.663H595.755C602.831 820.589 614.973 816.116 620.411 811.568C623.316 809.183 626.817 802.697 626.817 799.79C626.817 798.97 627.115 798.299 627.413 798.299C628.53 798.299 631.435 820.663 631.807 832.218C632.105 840.642 631.956 844.966 631.063 849.663C628.604 862.56 625.625 869.12 621.826 870.238C619.517 870.909 614.749 866.362 612.217 861.218C610.429 857.565 610.28 856.819 611.099 854.285C611.919 851.303 617.059 845.935 620.485 844.37C623.763 842.879 622.571 842.059 617.878 842.506C613.185 843.028 608.716 844.892 606.556 847.277C602.906 851.303 601.416 859.95 603.278 866.511C606.407 877.246 615.047 884.477 625.699 885.371C631.509 885.819 635.01 884.253 637.916 880.004C641.789 874.264 642.087 872.698 642.013 859.056C641.938 843.326 640.821 832.367 635.01 793.081C634.122 787.064 633.41 782.249 632.84 778.391L632.829 778.318C630.61 763.306 630.543 762.857 630.541 762.409L630.541 762.367C630.541 761.174 644.024 768.852 647.823 772.132C652.367 776.233 653.335 776.605 653.931 774.593C655.644 768.554 654.825 756.701 652.292 751.333C650.057 746.637 644.843 742.239 638.065 739.48C634.638 738.064 630.839 736.722 629.573 736.498C627.264 735.976 627.189 735.902 626.295 730.087C625.848 726.807 625.252 719.054 624.954 712.941L624.433 701.759L628.977 684.091C631.509 674.4 633.521 666.274 633.521 666.05C633.521 665.826 634.117 665.603 634.862 665.603C635.532 665.603 636.947 664.932 637.916 664.186C639.48 662.994 639.629 662.546 638.884 660.459L638.065 658.148H640.97C642.494 658.148 643.218 658.148 643.509 657.793C643.772 657.471 643.679 656.858 643.502 655.688C643.279 654.421 642.087 650.246 640.895 646.444C638.214 638.02 638.214 635.634 640.672 630.118C641.789 627.658 643.055 624.229 643.577 622.365L644.396 619.01L646.705 624.974C647.972 628.254 649.759 633.771 650.653 637.275C652.367 643.909 653.409 656.508 652.367 657.775C652.069 658.223 649.536 660.161 646.854 662.099L641.864 665.603L641.342 670.001C640.746 674.921 642.087 682.749 643.428 682.749C645.29 682.674 657.655 672.61 658.996 670.076C660.486 667.168 660.784 661.801 659.443 659.415C658.549 657.775 658.475 654.272 659.294 650.47C659.741 648.457 659.816 648.457 660.709 649.724C663.465 653.675 666.371 660.683 667.413 665.603C668.009 668.659 668.68 671.939 668.903 672.834C669.276 674.325 668.978 674.549 667.041 674.549C664.881 674.549 664.806 674.698 664.806 677.978C664.806 686.625 667.711 691.247 677.023 697.286C680.375 699.448 684.397 702.653 686.036 704.443L689.015 707.648L689.462 705.486C690.356 701.461 690.133 693.633 689.164 689.607C687.6 683.793 684.769 680.214 679.332 677.381L674.564 674.921L673.671 669.703C672.479 662.174 669.127 652.11 663.242 638.393C661.195 633.595 659.421 628.836 658.595 626.061C653.052 622.164 647.352 618.411 641.552 614.775C642.661 616.198 642.835 616.896 642.236 617.296C640.374 618.488 639.629 617.817 639.331 614.835L639.185 613.301C632.358 609.077 625.404 605.006 618.414 601.043Z" fill="black" fill-opacity="0.05"/>
<path d="M1691.75 300.573C1690.62 301.403 1689.33 302.32 1687.94 303.285L1668.19 319.518C1682.47 300.318 1696.7 284.233 1714 268.207L1701.5 256.113C1698.62 258.372 1695.75 260.547 1692.89 262.637C1700.69 254.641 1709.35 245.091 1718.2 234.679L1728.99 221.806L1750 208.074C1761.55 200.541 1777.78 190.147 1786.09 184.997L1801.08 175.652L1822.85 170.312C1834.79 167.451 1853.98 162.874 1865.54 160.204C1894.75 153.529 1896 153.147 1898.96 149.428C1900.39 147.807 1906.6 140.846 1912.71 134.075C1922.35 123.49 1925.31 120.82 1935.43 114.241C1945.55 107.661 1947.18 106.135 1947.65 103.56C1947.67 103.452 1947.69 103.336 1947.72 103.212C1947.73 103.128 1947.75 103.04 1947.76 102.949C1947.8 102.723 1947.84 102.478 1947.89 102.218L1947.94 101.885L1947.95 101.88C1948.25 100.133 1948.64 97.8281 1948.99 96.0269C1949.75 91.6403 1949.66 91.3543 1947.37 90.496C1945.36 89.7332 1945.17 89.4471 1946.41 88.3982C1948.8 86.491 1951.66 81.723 1952.71 78.0993C1953.57 74.7617 1953.57 74.6664 1949.47 72.5685C1944.41 69.8984 1935.72 60.9346 1933.14 55.7852C1929.03 47.5843 1929.61 38.7159 1935.15 27.1774C1938.39 20.4069 1947.65 7.34267 1952.62 2.67007L1955.39 0L1956.53 5.72156C1957.49 10.0127 1959.21 13.541 1963.12 19.3579C1964.01 20.6474 1964.96 22.023 1965.89 23.3735C1968.07 26.517 1970.14 29.5243 1971.14 30.9918C1975.06 36.8088 1977.06 43.5792 1976.3 48.6333C1975.25 55.6898 1970.38 64.3676 1964.27 69.9938C1959.02 74.8571 1958.73 75.4293 1956.34 84.107C1953.77 93.4522 1953.19 98.6969 1954.62 99.5552C1955.1 99.8413 1956.82 99.3645 1958.35 98.4109C1972.77 90.4007 1978.4 86.8724 1980.5 84.8699C1982.6 82.6766 1984.61 81.723 1992.91 78.3854C1993.87 78.004 1994.06 78.4808 1993.49 80.0065C1992.91 82.0091 1993.01 82.0091 1995.87 80.8648L1998.93 79.6251L1999.12 68.6587C1999.31 59.981 1999.79 56.6435 2001.41 52.4477C2005.42 42.3396 2015.45 35.4737 2030.06 32.8036C2037.89 31.4686 2051.93 31.0872 2059.18 32.0407L2063.48 32.6129L2059.28 38.0484C2055.84 42.4349 2054.22 45.8679 2050.59 57.1203C2044.67 75.62 2040.37 81.0554 2029.01 84.393C2023.37 86.1095 2010.87 86.3002 2006.47 84.7745C2003.99 83.9162 2002.65 84.0116 1998.45 85.7281C1995.78 86.7771 1991.77 88.0167 1989.57 88.4935C1987.47 88.9703 1982.51 91.4497 1978.59 94.1197C1974.68 96.6944 1968.66 100.413 1965.13 102.416C1955.68 107.565 1945.08 116.243 1934.29 127.686C1929.03 133.217 1921.3 141.132 1917.1 145.328C1912.99 149.428 1907.07 155.817 1904.02 159.536L1898.57 166.307L1883.01 168.881C1867.16 171.552 1845.39 177.368 1828.3 183.567C1815.31 188.239 1799.46 196.059 1798.22 198.348C1795.74 203.02 1799.65 205.976 1811.59 208.36C1835.46 213.033 1840.52 215.989 1867.92 240.782C1884.82 256.04 1887.88 258.424 1891.41 258.424C1896.76 258.424 1910.03 250.223 1935.43 231.056C1949.66 220.376 1950.14 220.089 1963.6 215.321C1975.73 211.03 1978.4 210.458 1987.76 209.886C1997.4 209.409 1998.26 209.123 1998.26 207.407C1998.26 205.786 1999.12 205.404 2004.09 204.927C2009.53 204.451 2018.41 200.636 2020.7 197.871C2021.37 197.108 2021.08 195.296 2019.75 192.34C2016.88 185.951 2015.64 174.222 2016.88 164.876C2018.22 153.91 2021.56 147.14 2029.01 140.178C2041.61 128.449 2062.52 121.488 2093.56 118.818L2099 118.341L2095.18 123.776C2090.22 130.642 2088.02 138.08 2085.63 156.389C2083.53 173.173 2081.24 180.706 2076.66 187C2069.02 197.299 2049.25 205.023 2033.59 203.688C2027.86 203.211 2026.53 203.402 2024.04 205.023C2018.7 208.742 2012.2 211.698 2002.37 214.94C1991.86 218.468 1987.47 219.422 1969.62 221.806C1955.01 223.713 1952.91 224.953 1951.47 232.772C1950.61 237.159 1952.71 238.875 1959.3 239.257C1960.07 239.352 1960.35 240.306 1959.97 241.927C1959.21 246.599 1960.64 247.458 1965.89 245.646C1978.78 241.259 1987.57 246.79 1992.91 262.906C1995.59 270.916 1995.59 273.109 1992.82 272.251C1991.58 271.965 1986.61 271.297 1981.74 270.821C1970.57 269.772 1969.33 269.39 1965.51 265.767C1962.45 262.81 1959.59 255.754 1959.59 251.272C1959.59 247.458 1956.82 246.123 1947.18 245.455L1938.11 244.788L1932.85 249.079C1929.99 251.367 1923.59 255.754 1918.72 258.805C1907.65 265.767 1899.82 272.06 1899.15 274.54C1897.91 279.212 1904.59 284.362 1917.86 289.034C1921.4 290.274 1924.26 291.514 1924.26 291.8C1924.26 292.086 1923.02 293.135 1921.4 293.993C1917.39 296.377 1918.53 298.952 1923.21 297.807C1925.12 297.426 1930.37 297.044 1934.95 297.044C1941.83 297.044 1943.64 297.331 1945.94 299.047C1953.1 304.387 1958.83 316.879 1960.16 330.516L1960.83 337L1957.58 334.997C1954.34 332.995 1948.32 331.565 1938.58 330.42C1927.98 329.181 1922.25 324.794 1919.1 315.353C1918.24 312.874 1917.58 308.774 1917.58 306.294C1917.58 300.191 1913.47 293.326 1906.4 287.413C1903.35 284.839 1898.29 280.452 1895.14 277.496C1891.99 274.54 1887.31 270.725 1884.73 268.913C1882.15 267.197 1873.94 260.522 1866.59 254.228C1845.1 235.824 1842.14 233.821 1834.79 232.105C1824.57 229.721 1820.56 228.1 1814.16 223.332C1808.34 218.945 1808.15 218.85 1800.61 218.85C1793.06 218.754 1790.1 217.896 1787.71 215.131C1787.05 214.273 1785.23 213.605 1783.61 213.605C1779.5 213.605 1763.84 221.234 1757.06 226.669C1749.33 232.772 1737.49 246.123 1724.41 263.669C1723.96 264.26 1723.53 264.84 1723.11 265.408C1722.57 266.125 1722.05 266.824 1721.54 267.504L1721.51 267.533C1707.61 286.109 1703.87 291.12 1699.21 295.056C1697.49 296.509 1695.64 297.817 1693.11 299.606L1693.06 299.645C1692.64 299.94 1692.21 300.248 1691.75 300.573Z" fill="black" fill-opacity="0.05"/>
</svg>
