<svg width="598" height="957" viewBox="0 0 598 957" fill="none" xmlns="http://www.w3.org/2000/svg">
<g clip-path="url(#clip0_75_2)">
<path d="M64.9005 957H89.6524C76.5332 935.792 60.4057 917.871 42.9333 905.733C29.6 896.4 0 884.8 0 888.933C0 890.8 6 896 18 904.667C36.0666 917.767 52.1126 935.84 64.9005 957Z" fill="url(#paint0_linear_75_2)"/>
<path d="M99.7916 957H125.112C119.569 943.853 113.229 931.612 106.8 922C103.067 916.533 100.667 912 101.467 912C102.267 912 108.8 917.867 115.867 924.933C125.651 934.823 133.988 945.385 141.06 957H162.648C153.781 942.597 143.365 930.008 132 920.267C119.733 909.867 112 905.2 97.4667 900C88.2667 896.667 84.8 894.533 78.8 888.667C69.6 879.733 58.5333 871.467 50.6667 867.333C44.4 864.267 28.8 858.4 22.4 856.8C15.2 855.067 18.5333 860 30.4 868.4C36.8 872.933 48.2667 882.933 56 890.667C75.0319 909.512 89.2333 930.968 99.7916 957Z" fill="url(#paint1_linear_75_2)"/>
<path d="M186.243 1028H244.605C239.603 981.505 229.545 937.786 215.2 899.533C201.333 862.467 182.4 828.333 175.867 828.333C173.467 828.333 174 831.8 179.6 853C194 908.467 206.933 966.467 205.6 970.2C205.2 971 204.267 969 203.467 965.667C194.267 931.133 171.6 880.6 159.067 866.2C149.6 855.4 150.133 860.733 163.867 912.333C171.867 942.067 177.467 968.067 182.533 999C183.745 1006.32 185.063 1016.85 186.243 1028Z" fill="url(#paint2_linear_75_2)"/>
<path fill-rule="evenodd" clip-rule="evenodd" d="M246.841 957H280.565C280.807 956.05 281.063 955.052 281.333 954C284.133 942.933 286.933 932.133 287.6 930C288.778 925.793 289.319 938.311 289.122 957H345.743C349.58 935.866 351.142 911.194 349.467 895.733C347.467 877.333 342.8 862 340 864.8C339.333 865.467 338.133 875.2 337.333 886.4C336.533 897.6 335.333 908 334.667 909.733C334 911.333 333.467 911.867 333.467 910.933C333.333 910.133 332.533 909.333 331.467 909.333C329.2 909.333 326.933 918.133 325.6 932.667L324.533 943.333L323.6 931.6C322 912.267 317.6 896 313.867 896C312.4 896 312 898.133 311.867 904.933C311.733 919.733 309.867 910 307.867 884C305.333 850.533 305.6 842.667 310.4 811.333C314.667 784.133 318.8 749.467 320.667 726.933C321.6 716.133 321.733 715.733 330.533 702.533L339.467 689.2L353.067 682.933C368.667 675.733 374.533 670.667 384.133 656C401.733 629.333 423.067 579.067 426 557.6C426.8 552 426.533 550.667 424.933 550.667C415.2 550.667 375.067 594.4 352.667 629.333C342.267 645.467 338.667 654.267 338.667 662.933C338.667 670 338.267 670.933 332 678.267C328.4 682.533 325.333 686.4 325.333 686.933C325.333 687.6 324.933 688 324.4 688C323.733 688 323.733 680.933 324.267 672.4C326.533 630.133 325.067 562.4 320.533 508.933C318.4 483.867 318.4 481.867 320.533 468.933C332.4 401.2 359.867 330.933 394.8 279.2C401.067 269.867 401.2 269.733 407.067 269.733C410.267 269.733 414.133 268.933 415.6 267.867C418 266.133 476.133 204.667 488.4 190.933C492.4 186.267 493.333 184.267 493.333 179.6C493.333 176.4 492.667 173.2 491.733 172.267C490.533 171.067 492 168.933 498.133 163.2L506 155.733L498 162.4L490 168.933L486 166.533C480.933 163.333 476.4 163.333 471.2 166.267C466.667 168.933 398.667 240.8 394.533 247.333C391.067 252.8 391.333 257.333 395.333 263.2L398.667 268.133L390.667 279.467C378.533 296.133 362.133 323.733 352.533 343.467C340.4 368.533 331.333 393.867 318.133 439.333C316.268 445.864 316.267 445.733 316.134 426.294L316.133 426.267C315.467 328.4 336.667 231.733 374.8 158.667C384.4 140.533 385.067 139.6 390.267 141.333C395.867 143.333 403.733 141.067 408.267 136.4C410.933 133.467 463.2 62.9333 482.4 36.1333C487.333 29.3333 488.267 20.1333 484.533 14.7999C482.4 11.8666 482.533 11.5999 488.133 5.86658C491.333 2.66658 493.6 0 493.2 0C492.8 0 490.267 2.39995 487.467 5.19995L482.267 10.5333L477.467 7.86658C471.733 4.79991 465.333 4.66658 460 7.33325C454.667 10.1333 378.667 113.333 376.933 120.267C375.867 124.533 376.133 126.267 378.8 131.733L382 138.267L378.133 144.8C334.267 219.333 313.067 293.067 306.667 392.667C305.467 411.6 306 502.667 307.333 518.667C307.867 525.733 307.733 526.8 306.533 524.4C305.067 521.6 304.8 521.6 299.733 527.733C284 546.533 274.667 580.267 270 635.333C268.133 656.8 268.133 660.133 270 666C272.267 673.733 272.4 675.067 270.8 674C270.133 673.6 269.067 671.333 268.667 668.933C265.6 654.933 248.4 605.733 235.2 573.733C228.533 557.467 227.733 554.533 226.4 540.267C225.6 531.467 225.333 510.267 225.6 491.6L226.267 458.533L231.333 453.333C236.267 448.267 236.933 448 244.933 448C256.8 448 262.267 444.8 276.8 429.733C286.4 419.867 290.533 416.533 296.8 413.867L304.667 410.533L298.8 411.467L292.8 412.267L297.333 406.533L302 400.667L296.4 405.6C287.867 413.2 285.6 414.267 270.8 418C249.2 423.467 239.6 429.467 237.733 438.933C237.067 442.267 228 451.067 228 448.267C228 447.067 229.2 440 232.8 420.667C235.6 405.2 240.133 398 247.867 396.667C259.6 394.667 268.533 385.867 280.533 364.667C285.2 356.4 288.267 352.8 293.867 348.8C302 342.933 302.933 340.667 295.333 345.067C290 348.267 290 348.267 292.667 341.733C295.6 334.8 295.2 334.8 290.8 341.467C284.533 350.667 284.133 351.067 269.467 359.467C261.867 363.733 252.667 370.133 249.067 373.6C245.6 377.067 242.667 379.733 242.667 379.467C242.667 378.533 252.133 352.8 255.333 345.333C267.467 316.4 293.333 269.733 317.2 234C333.067 210.267 335.2 206.4 323.733 222C282 278.667 247.2 346 232.267 398.8C221.6 436.133 218.8 455.2 217.467 496L216.667 523.333L213.067 512C204.933 486.267 204.667 484.133 210 482.267C210.667 482 209.067 479.333 206.4 476.133C201.467 470.4 200 466 200 457.333C200 454.533 199.067 449.733 197.867 446.533C194.933 438 190.933 409.467 189.333 383.333L187.867 360.667L191.467 353.067C194.533 346.667 195.733 345.467 199.333 344.8C205.067 343.733 213.733 337.333 218.533 330.533C220.667 327.6 225.2 318.533 228.667 310.267C234.133 297.2 235.867 294.4 242.8 287.6C251.467 279.333 251.867 278.267 244.4 283.333C241.733 285.067 239.2 286.4 238.933 286C238.667 285.733 239.067 283.6 239.867 281.2C242.533 273.6 241.467 274.267 236.933 282.933C233.333 290 230.8 292.667 221.067 300C199.2 316.267 192 325.333 192 336.4C192 339.6 191.067 343.333 190 344.8C188.133 347.067 188 346.8 188.667 340.667C188.742 339.618 188.848 338.202 188.971 336.562C189.287 332.363 189.712 326.699 190 322C191.2 303.067 196.533 271.333 201.333 253.333C202.267 250 205.467 245.467 211.067 240L219.333 231.6L212.133 237.733C208.133 241.2 204.667 243.733 204.4 243.467C204.133 243.2 206.267 236.4 209.067 228.267C211.867 220 213.733 213.333 213.333 213.333C210.933 213.333 192.8 272.4 188 296C185.733 306.933 185.6 307.2 184 303.733C182.667 300.8 182.533 298.933 183.733 294.8C187.6 282.4 184.533 271.6 172 252C164 239.6 161.333 233.2 161.333 226.4C161.333 224.533 160.933 221.733 160.267 220.4C159.6 218.667 159.2 220 158.667 224.533L158 231.2L154.133 225.6C152 222.533 150.133 220.133 149.867 220.4C149.6 220.667 151.467 224.8 154 229.6C158.533 238 158.8 239.2 159.467 255.6C160.667 281.6 165.2 295.467 173.467 298C175.333 298.667 177.733 302.133 180.267 307.6C184.133 316.133 184.133 316.533 182.8 327.867C180.133 350.4 179.733 369.067 181.2 394C182.133 407.867 183.067 420.533 183.467 422C184.667 426.133 164.267 405.467 161.067 399.333C159.467 396.4 157.2 391.067 155.867 387.333C153.467 380.267 152.533 382.533 154.533 390.933C155.2 393.733 155.467 396 155.067 396C154.8 396 151.733 393.733 148.267 390.933L142.133 386L149.067 394.4C149.332 394.721 149.589 395.031 149.839 395.332C152.929 399.064 154.816 401.342 156.264 403.871C158.534 407.833 159.727 412.412 162.792 424.167C162.924 424.675 163.06 425.197 163.2 425.733C170 451.467 175.067 460.8 185.467 466C186.111 466.339 186.729 466.661 187.298 466.957C188.964 467.824 190.201 468.468 190.4 468.667C190.533 468.8 193.333 479.333 196.533 492.133C204.4 523.467 214.667 556.8 228.667 596.667C229.2 598.133 226.4 593.867 222.4 587.2C202 553.333 182.133 531.733 162 521.733C157.6 519.467 152.667 517.2 150.933 516.667C148 515.867 147.867 515.867 148.8 522.933C151.867 548.533 169.2 576.8 202.267 610.4C216.8 625.2 228 633.333 233.6 633.333C234.533 633.333 237.733 636.133 240.8 639.733C245.6 645.2 246.8 648.4 251.733 666C261.467 700.933 269.467 737.6 275.333 773.733C278.133 791.467 278.133 792.133 275.733 789.6C273.733 787.733 272.933 784.133 272.133 773.733C271.2 761.6 270.667 759.733 266 752C242.533 713.2 156 637.2 121.867 625.2L114.4 622.533L100.933 630.133C76 644 54.6667 660 54.6667 664.8C54.6667 669.2 89.3333 667.6 115.733 662C121.067 660.933 125.733 660 126 660C126.4 660 128.267 663.2 130.133 666.933C150.533 707.333 197.867 769.467 221.733 787.467C231.067 794.4 234.933 796.133 246 798.533C266.667 802.933 266.933 803.067 275.2 815.067C282.4 825.6 282.667 826.4 283.467 836.667C284.133 846 283.6 850.133 278.933 870.667C271.067 904.8 267.6 918.667 266.667 918.667C266.267 918.667 264.533 913.067 262.8 906.267C255.6 878 236.267 832.667 224.667 816.933C216.133 805.467 215.2 809.867 221.467 833.333C236.13 888.836 242.753 920.548 246.841 957ZM240.133 393.733C238.4 395.467 238.133 393.6 239.6 389.733C240.533 387.467 240.667 387.467 241.067 389.867C241.333 391.2 240.933 392.933 240.133 393.733ZM163.733 529.867C170.4 537.067 189.333 566 189.333 569.067C189.333 570.667 170.667 551.6 164.133 543.333C158 535.733 150.667 522.933 150.667 520C150.667 517.333 155.333 520.933 163.733 529.867ZM305.067 536.933C304.4 549.467 301.2 563.467 294.8 583.333L292.133 591.333V585.333C292 577.333 295.6 547.333 297.467 540.933C299.333 533.867 303.733 524 304.8 524C305.333 524 305.333 529.867 305.067 536.933ZM309.333 638C308 670.8 305.6 704 302.667 729.333C300.667 747.467 296.133 780.267 295.6 780.8C295.333 781.067 293.733 773.867 292.133 764.933C288.533 746.4 284.4 727.6 278.533 704.667C273.733 685.867 274.267 682.133 283.2 670.133C287.333 664.667 290.133 658.267 294.267 645.733C300.933 625.467 305.733 606.933 308.267 592.533L310 582L310.4 592.667C310.667 598.533 310.267 618.933 309.333 638Z" fill="url(#paint3_linear_75_2)"/>
<path d="M354.17 970H369.06C369.832 955.876 369.581 941.114 368.133 933.533C366.4 924.733 362.533 915.133 361.333 916.6C360.8 917.133 359.6 926.333 358.8 936.867C357.977 947.411 356.442 958.416 354.17 970Z" fill="url(#paint4_linear_75_2)"/>
<path d="M372.741 965H396.959C396.86 963.5 396.762 961.963 396.667 960.4C392.4 897.467 387.867 870.267 382.533 875.6C378.519 879.614 374.923 913.172 372.741 965Z" fill="url(#paint5_linear_75_2)"/>
<path d="M400.016 1022H434.816C432.968 992.305 430.396 965.72 427.867 953.667C425.6 943.133 425.2 942.067 423.333 942.867C422.133 943.267 421.2 940.067 420 930.6C418.267 915.667 416.533 907.267 414.4 901.933C412.533 897.133 410.133 899 408.133 906.733C404.656 921.027 400.309 981.711 400.016 1022Z" fill="url(#paint6_linear_75_2)"/>
<path d="M456.43 974H473.997C473.929 944.374 472.607 935.602 465.867 914.733C460.267 898.067 450.533 880.6 448 883.267C447.333 883.8 448.667 892.467 450.8 902.333C456.027 926.848 457.904 949.474 456.43 974Z" fill="url(#paint7_linear_75_2)"/>
<path d="M483.081 957H496.494C499.418 933.763 499.654 926.448 497.867 925.733C495.468 924.903 488.728 939.904 483.081 957Z" fill="url(#paint8_linear_75_2)"/>
<path d="M499.276 1032H545.086C541.954 1022.99 538.694 1014.23 535.933 1007.53L531.933 998.067L535 982.2C538.333 965 543.267 944.6 551.667 912.6C559.133 884.2 558.733 880.067 549.667 891.933C543.667 899.8 527.933 931.667 521.8 948.333C514.867 967.667 508.2 991.4 503.667 1013.8C502.134 1021.38 500.602 1027.69 499.276 1032Z" fill="url(#paint9_linear_75_2)"/>
<path d="M561.038 981H575.61C574.778 978.81 573.866 976.344 572.933 973.733C566 954.933 557.333 937.067 554.667 936.267C552.311 935.481 553.552 944.845 561.038 981Z" fill="url(#paint10_linear_75_2)"/>
<path d="M577.914 988H598.409C596.365 980.933 594.183 973.925 591.867 967C580.8 933.667 568 905.667 563.867 905.667C561.733 905.667 563.467 916.6 572.133 959C574.498 970.53 576.577 980.953 577.914 988Z" fill="url(#paint11_linear_75_2)"/>
</g>
<defs>
<linearGradient id="paint0_linear_75_2" x1="-9.5282e-05" y1="1016.58" x2="630" y2="1016.58" gradientUnits="userSpaceOnUse">
<stop stop-color="#4F772D"/>
<stop offset="1" stop-color="#90A955"/>
</linearGradient>
<linearGradient id="paint1_linear_75_2" x1="-9.5282e-05" y1="1016.58" x2="630" y2="1016.58" gradientUnits="userSpaceOnUse">
<stop stop-color="#4F772D"/>
<stop offset="1" stop-color="#90A955"/>
</linearGradient>
<linearGradient id="paint2_linear_75_2" x1="-9.5282e-05" y1="1016.58" x2="630" y2="1016.58" gradientUnits="userSpaceOnUse">
<stop stop-color="#4F772D"/>
<stop offset="1" stop-color="#90A955"/>
</linearGradient>
<linearGradient id="paint3_linear_75_2" x1="-9.5282e-05" y1="1016.58" x2="630" y2="1016.58" gradientUnits="userSpaceOnUse">
<stop stop-color="#4F772D"/>
<stop offset="1" stop-color="#90A955"/>
</linearGradient>
<linearGradient id="paint4_linear_75_2" x1="-9.5282e-05" y1="1016.58" x2="630" y2="1016.58" gradientUnits="userSpaceOnUse">
<stop stop-color="#4F772D"/>
<stop offset="1" stop-color="#90A955"/>
</linearGradient>
<linearGradient id="paint5_linear_75_2" x1="-9.5282e-05" y1="1016.58" x2="630" y2="1016.58" gradientUnits="userSpaceOnUse">
<stop stop-color="#4F772D"/>
<stop offset="1" stop-color="#90A955"/>
</linearGradient>
<linearGradient id="paint6_linear_75_2" x1="-9.5282e-05" y1="1016.58" x2="630" y2="1016.58" gradientUnits="userSpaceOnUse">
<stop stop-color="#4F772D"/>
<stop offset="1" stop-color="#90A955"/>
</linearGradient>
<linearGradient id="paint7_linear_75_2" x1="-9.5282e-05" y1="1016.58" x2="630" y2="1016.58" gradientUnits="userSpaceOnUse">
<stop stop-color="#4F772D"/>
<stop offset="1" stop-color="#90A955"/>
</linearGradient>
<linearGradient id="paint8_linear_75_2" x1="-9.5282e-05" y1="1016.58" x2="630" y2="1016.58" gradientUnits="userSpaceOnUse">
<stop stop-color="#4F772D"/>
<stop offset="1" stop-color="#90A955"/>
</linearGradient>
<linearGradient id="paint9_linear_75_2" x1="-9.5282e-05" y1="1016.58" x2="630" y2="1016.58" gradientUnits="userSpaceOnUse">
<stop stop-color="#4F772D"/>
<stop offset="1" stop-color="#90A955"/>
</linearGradient>
<linearGradient id="paint10_linear_75_2" x1="-9.5282e-05" y1="1016.58" x2="630" y2="1016.58" gradientUnits="userSpaceOnUse">
<stop stop-color="#4F772D"/>
<stop offset="1" stop-color="#90A955"/>
</linearGradient>
<linearGradient id="paint11_linear_75_2" x1="-9.5282e-05" y1="1016.58" x2="630" y2="1016.58" gradientUnits="userSpaceOnUse">
<stop stop-color="#4F772D"/>
<stop offset="1" stop-color="#90A955"/>
</linearGradient>
<clipPath id="clip0_75_2">
<rect width="598" height="957" fill="white"/>
</clipPath>
</defs>
</svg>
