<svg width="1858" height="1332" viewBox="0 10 929 676" fill="none" xmlns="http://www.w3.org/2000/svg">
<path d="M918.625 4.11158C921.292 2.99766 923.467 2.08959 924.567 1.64949C926.895 0.640638 928.913 -0.135421 928.99 0.0197867C929.068 0.0973904 928.68 2.0375 928.059 4.36561C927.438 6.69372 925.421 18.2567 923.481 29.9749C919.679 52.9456 917.972 60.8611 914.945 69.5527C911.066 80.5725 905.013 88.5657 878.863 116.969C862.724 134.507 854.886 146.38 851.627 158.331C847.748 172.378 841.618 184.173 825.245 208.851L825.168 208.967C808.25 234.54 807.936 235.015 804.449 242.609C799.483 253.396 797.776 259.371 791.879 286.921C786.835 310.512 782.955 322.618 776.748 334.957C775.661 337.053 774.808 338.993 774.808 339.226C774.808 339.381 777.058 338.062 779.774 336.199C789.629 329.448 796.922 327.896 816.399 328.128C829.513 328.361 830.444 328.284 833.548 326.654C835.255 325.723 837.505 323.938 838.436 322.774L840.221 320.601L839.678 322.851C838.902 325.955 834.013 334.104 824.469 348.15C815.235 361.653 803.828 373.915 796.147 378.416C786.137 384.313 775.506 386.176 768.988 383.149C764.255 380.899 760.065 376.165 759.521 372.285L759.056 369.103L755.952 372.75C754.167 374.691 751.374 377.329 749.667 378.571C746.175 381.054 746.253 381.132 750.753 379.58C752.615 378.959 754.245 378.571 754.4 378.726C754.711 378.959 753.003 380.511 737.019 394.169C732.673 397.894 727.94 402.395 726.466 404.18C724.991 406.042 719.715 415.588 714.904 425.443C703.11 449.113 701.635 451.285 680.141 475.42C662.139 495.675 660.975 497.227 650.189 515.153C632.653 544.332 626.833 551.006 605.262 565.829C587.647 578.012 585.087 580.34 577.017 592.369C573.913 597.025 573.835 597.258 575.542 597.258C579.034 597.258 588.966 600.517 594.786 603.544C603.089 607.89 610.693 613.788 625.126 627.368C641.033 642.268 644.292 644.131 654.069 643.743C661.673 643.355 661.673 643.898 654.302 647.545C645.456 651.969 611.78 661.98 597.89 664.463C585.785 666.636 567.24 666.481 557.928 664.152C547.453 661.514 537.365 656.237 531.08 650.106C525.183 644.286 523.165 640.716 521.846 634.042C521.303 631.404 520.682 628.92 520.372 628.455C520.062 627.911 516.958 628.455 510.983 630.24C483.902 638.078 442.932 649.408 436.879 650.727C422.058 653.909 405.065 655.771 377.131 657.013C367.354 657.478 351.447 658.565 341.825 659.419C309.235 662.212 280.835 660.738 247.546 654.607C193.772 644.674 149 630.084 121.686 613.477C111.288 607.191 102.054 600.285 82.6556 584.453C74.7408 578.012 64.9638 570.097 60.8512 566.837C46.1857 555.119 41.0644 548.29 26.4764 520.508C21.8983 511.739 17.1649 503.358 16.0786 501.883C13.3918 498.241 7.90269 491.979 0 483.559L0 350.655C7.21632 361.776 15.1264 378.519 23.9157 402.473C26.7868 410.311 38.8917 438.015 43.5474 447.25C47.8928 456.097 53.2469 462.848 72.1026 483.181C86.9233 499.167 89.1736 503.047 97.3211 526.949C103.296 544.332 104.538 547.204 109.116 553.878C117.186 565.829 143.878 585.85 167.312 597.646C196.799 612.468 228.768 621.238 266.402 624.807C278.817 625.971 281.067 625.971 297.44 624.807C314.045 623.566 331.815 623.566 335.229 624.73C336.083 625.04 335.462 624.575 333.91 623.721C323.9 618.133 320.796 600.673 326.849 583.755C332.591 567.846 343.997 552.714 356.801 544.255C365.879 538.202 377.441 533.856 396.374 529.355C414.764 525.009 419.653 523.147 424.619 518.645C426.947 516.473 429.896 512.98 431.137 510.807L433.387 506.85V510.807C433.387 512.98 432.379 518.335 431.137 522.836C427.723 534.865 418.489 561.716 414.92 569.941C412.825 574.675 412.126 577.314 412.669 577.469C416.394 578.711 436.258 581.97 439.983 581.97C444.716 581.97 450.846 579.952 453.717 577.314C456.589 574.675 455.735 576.926 452.088 581.427C445.415 589.575 423.61 608.588 412.126 616.271C396.219 626.825 379.226 631.869 366.578 629.696C363.862 629.231 357.965 628.765 353.464 628.688C347.799 628.61 344.463 628.144 342.445 627.291C339.109 625.816 330.961 625.583 325.53 626.825C322.348 627.523 318.546 630.084 318.546 631.481C318.546 632.956 330.496 634.741 342.989 635.051C353.619 635.361 361.379 634.973 382.95 633.033C419.11 629.774 425.395 628.3 450.458 617.668C472.418 608.355 481.341 605.406 498.18 601.914C509.819 599.586 515.018 598.112 519.13 596.094C526.269 592.602 536.745 583.522 541.012 577.081C547.763 566.76 549.703 564.82 561.963 555.662C582.371 540.375 583.845 538.59 585.863 526.406C587.104 518.335 588.19 515.541 590.829 513.136C592.769 511.351 591.838 510.342 588.346 510.342C585.552 510.342 579.5 504.754 576.706 499.633C567.317 482.327 573.137 456.562 591.682 433.204C596.493 427.151 614.806 408.914 622.721 402.24C629.316 396.73 636.067 393.16 632.187 397.273C631.334 398.204 629.782 400.765 628.851 402.861C626.368 408.293 626.6 415.433 629.782 431.962C631.954 443.525 632.342 447.328 632.42 457.183C632.42 467.272 632.187 469.6 630.635 474.644C624.738 493.191 611.159 508.945 599.209 510.963C596.26 511.506 595.872 511.894 594.941 514.61C594.165 516.938 594.165 518.102 594.864 519.81C595.329 520.974 595.95 521.982 596.183 521.982C597.735 521.982 604.951 516.24 610.072 510.885C616.435 504.211 622.177 496.063 629.006 483.879C633.273 476.351 636.455 472.859 655.543 454.622C664.079 446.474 665.088 444.689 675.873 418.769C688.211 389.125 689.297 387.185 708.153 363.283C722.508 344.968 726 339.691 734.613 323.162C742.606 307.719 749.434 295.38 757.582 281.644C760.142 277.298 762.47 273.107 762.703 272.331C762.936 271.555 764.41 258.751 765.884 243.851C768.911 214.206 769.842 208.851 773.256 201.867C775.661 196.9 778.532 194.495 782.179 194.495H784.274L782.102 196.978C778.843 200.858 774.808 209.938 774.808 213.352C774.808 220.492 778.92 221.423 786.292 215.836C794.827 209.395 813.218 188.985 818.339 180.138C821.287 175.094 822.451 170.903 824.857 156.857C825.943 150.416 827.185 143.975 827.65 142.5C829.823 135.671 833.548 129.851 843.169 118.443C866.215 91.1266 872.268 82.7454 877.311 71.1049C881.191 62.1028 882.51 56.2825 883.442 43.9436C884.838 24.853 885.459 22.5249 890.58 17.8687C894.305 14.3765 895.857 13.6005 908.66 8.2458C912.057 6.85422 915.648 5.35471 918.625 4.11158Z" fill="black" fill-opacity="0.1"/>
</svg>
