<svg width="238" height="735" viewBox="0 0 238 735" fill="none" xmlns="http://www.w3.org/2000/svg">
<path d="M156.564 1.37085C151.976 2.11775 147.216 2.74974 145.897 2.74974C142.513 2.8072 141.71 3.72646 140.965 8.0355C140.449 11.138 140.506 14.0107 141.596 24.6397C144.004 48.7703 143.832 63.421 141.022 78.359C139.99 83.8745 139.76 88.4134 139.244 114.842C138.9 131.446 138.613 150.406 138.499 157.071L138.384 169.136L136.262 173.732C135.115 176.203 132.649 180.627 130.814 183.499C123.817 194.301 122.212 199.069 121.753 210.273L121.409 218.087L117.91 215.961C102.942 206.883 83.5581 206.366 61.5359 214.582C36.0154 224.004 20.6458 242.045 9.6347 275.426C4.18651 291.915 1.03229 310.932 0.286747 331.73L0 340.348L1.03229 337.476C4.81735 327.364 11.1258 319.378 20.4737 312.943C26.6101 308.749 40.546 302.831 60.1595 296.166C66.2386 294.098 71.3427 292.374 71.4 292.374C71.5147 292.374 72.4323 295.017 73.4072 298.235C75.4718 304.842 79.3142 314.552 82.067 320.067C84.533 325.008 90.7267 335.58 90.9561 335.292C91.0708 335.178 90.8988 334.201 90.612 333.109C89.8092 330.409 89.8092 322.48 90.6694 319.091C91.3576 316.045 94.4545 309.381 96.519 306.508C99.1571 302.659 104.605 296.281 111.889 288.41C121.581 278.011 125.022 273.645 127.889 268.186C131.273 261.694 132.707 255.949 132.707 248.71C132.707 241.355 131.502 236.127 128.405 229.922C125.653 224.464 125.538 221.534 127.545 213.548C128.577 209.411 129.667 206.883 131.904 203.264C133.567 200.621 135.058 198.323 135.23 198.15C135.803 197.576 134.828 263.073 133.911 285.48C132.707 314.839 132.993 337.935 134.771 351.265C136.32 363.158 136.893 385.507 135.975 398.951C135.574 404.295 134.37 418.428 133.223 430.264C129.61 468.585 130.068 490.992 135.058 521.328C136.32 529.084 136.32 529.084 133.681 529.084C128.749 529.084 120.204 532.876 114.584 537.587C104.777 545.803 100.476 555.456 99.4439 571.658C98.641 584.125 101.566 602.797 106.326 615.552L107.186 617.85V615.84C107.301 612.737 108.792 606.934 110.34 603.889C113.15 598.374 118.713 592.915 131.56 583.263C134.714 580.85 139.072 577.173 141.252 575.105C143.373 573.094 145.209 571.543 145.323 571.658C145.438 571.772 145.954 574.358 146.528 577.345C147.216 581.137 147.503 585.619 147.503 591.996C147.503 602.338 146.585 609.405 142.456 631.927C138.212 654.793 138.155 655.31 137.811 666.456C137.409 678.924 137.868 682.888 141.194 695.7C143.087 703.112 143.431 705.18 143.144 708.168C142.857 711.845 141.252 715.694 139.187 717.935C138.556 718.682 138.155 719.371 138.327 719.544C138.958 720.233 144.693 716.614 146.585 714.373C148.65 711.787 150.772 707.076 150.886 704.721C150.886 704.031 151.288 704.95 151.747 706.789C153.868 715.694 160.12 723.163 169.467 727.989C179.504 733.16 188.106 735.056 201.296 734.999C208.809 734.999 210.931 734.826 214.773 733.735C223.949 731.092 230.487 726.84 235.305 720.405C236.796 718.452 238 716.614 238 716.269C238 715.982 235.305 717.188 231.978 718.969C223.605 723.508 219.017 724.542 212.652 723.508C210.013 723.048 209.841 722.416 212.307 721.899C213.34 721.727 216.322 720.463 219.017 719.199C228.251 714.718 235.935 705.065 237.312 696.16C238.86 686.278 233.068 675.477 223.777 670.88C220.222 669.099 219.533 668.984 214.2 668.984C201.124 668.984 191.547 675.247 191.547 683.865V686.795L192.465 685.071C193.784 682.543 195.045 681.279 197.11 680.418C201.698 678.464 211.677 680.36 215.519 683.922C217.584 685.761 217.641 685.991 217.641 689.783C217.641 693 217.354 694.321 215.92 697.079C211.275 706.272 204.221 710.179 196.078 708.053C185.697 705.41 173.195 694.436 167.804 683.348C161.611 670.478 161.611 659.217 167.747 623.883C171.589 602.108 172.622 593.433 172.622 583.493C172.622 568.842 170.672 554.709 165.166 528.797C160.062 504.724 158.284 493.003 158.284 483.121C158.284 477.95 159.202 471.056 159.947 470.309C160.578 469.677 166.084 475.939 168.722 480.363C172.392 486.396 174.916 494.842 174.916 501.391C174.973 504.724 175.661 503.747 176.636 498.921C177.611 494.267 177.496 484.328 176.407 479.214C175.891 476.916 173.826 470.711 171.819 465.425C162.528 441.122 160.808 432.332 160.177 406.708L159.833 392.689L163.503 396.021C168.951 400.962 174.457 404.352 187.819 411.132C213.856 424.231 221.197 429.517 227.276 439.571C229.398 443.076 232.208 451.004 232.322 453.877C232.437 456.52 233.297 450.775 233.986 442.386C234.846 432.275 234.444 411.591 233.183 403.835C229.455 380.681 223.663 366.318 213.971 355.976C201.87 343.049 182.199 334.948 167.288 336.614C164.88 336.901 162.643 337.303 162.356 337.418C162.069 337.591 161.668 335.12 161.496 331.845C161.267 328.628 160.808 322.882 160.406 319.091C159.489 309.151 159.546 272.955 160.521 261.349C161.094 254.857 161.324 244.918 161.267 229.75C161.152 212.111 161.324 206.653 162.012 202.746C164.019 191.428 164.65 180.569 164.593 156.381C164.593 130.929 165.281 111.395 166.6 101.628C167.001 98.2955 169.353 87.7239 171.761 78.0717C178.701 50.2066 178.643 50.4939 178.643 28.9487C178.643 16.5387 178.414 8.95476 177.898 5.62243L177.095 0.623952L174.514 0.279229C170.156 -0.295309 165.281 -0.00803972 156.564 1.37085Z" fill="black" fill-opacity="0.1"/>
</svg>
