<svg width="3548" height="537" viewBox="0 0 3548 537" fill="none" xmlns="http://www.w3.org/2000/svg">
  <style>
    #leaf-1 {
      animation: fade 2.5s infinite;
    }

    #leaf-2 {
      animation: fade 2.5s infinite;
      animation-delay: 0.4s;
      opacity: 0;
    }

    #leaf-3 {
      animation: fade 2.5s infinite;
      animation-delay: 0.8s;
      opacity: 0;
    }

    @keyframes fade {
      0% { opacity: 0; }
      16% { opacity: 1; }
      32% { opacity: 1; }
      48% { opacity: 1; }
      68% { opacity: 0; }
      84% { opacity: 0; }
      100% { opacity: 0; }
    }
  </style>
  <g id="loader">
    <g id="leaf-3">
      <path
        d="M3276.52 452.266C3276.52 432.344 3296.06 423.017 3311.21 426.662C3311.25 426.374 3301.8 412.502 3301.43 412.399C3285.49 411.749 3260.01 429.138 3258.08 449.685L3276.52 452.266Z"
        fill="url(#paint0_linear_17_7)" />
      <path
        d="M3393.56 290.804C3393.71 290.871 3393.5 291.012 3393.02 291.228C3392.11 291.641 3389.91 293.301 3388.16 294.918C3386.41 296.535 3384.89 297.814 3384.72 297.7C3384.57 297.626 3383.72 296.59 3382.87 295.453L3381.3 293.313L3378.76 295.011C3374.19 298.116 3356.42 309.47 3356.24 309.419C3356.13 309.424 3355.81 307.933 3355.5 306.178C3354.89 302.503 3354.72 302.023 3354.14 302.663C3353.74 303.152 3330.03 323.872 3329.6 324.118C3329.44 324.208 3329.65 322.731 3330.06 320.877L3330.1 320.7C3330.43 318.911 3330.7 317.483 3330.64 317.467C3330.56 317.41 3325.42 323.191 3319.2 330.209C3313 337.266 3307.61 343.345 3307.22 343.772C3306.7 344.328 3306.31 344.287 3305.53 343.736L3304.47 342.976L3300.71 351.741C3297.43 359.361 3296.03 362.553 3295.25 365.889C3294.64 368.479 3294.4 371.155 3293.93 376.056C3293.36 382.541 3292.33 389.13 3291.21 393.891L3289.46 401.414L3291.71 404.842C3298.38 415.07 3300.68 417.844 3311.76 429.293L3322.64 440.589L3329.67 443.61C3337.59 447.011 3338.84 447.551 3339.06 447.276C3339.11 447.215 3339.1 447.115 3339.11 446.997C3339.14 446.825 3339.19 446.38 3339.24 445.798C3339.3 445.2 3339.37 444.459 3339.46 443.721C3339.6 442.126 3339.93 441.151 3340.24 441.237C3340.55 441.323 3346.71 445 3353.86 449.42L3366.85 457.432L3371.11 456.176C3374.46 455.199 3375.94 454.882 3376.23 454.119C3376.48 453.453 3375.82 452.448 3374.72 450.371L3372.71 446.543L3383.44 451.188C3390.64 454.322 3395.75 456.24 3398.98 456.971L3403.78 458.07L3405 456.439C3406.36 454.68 3406.34 453.806 3404.75 450.995C3404.23 450.085 3403.97 449.243 3404.16 449.131C3404.36 449.019 3411.16 449.038 3419.23 449.176C3427.31 449.313 3433.93 449.382 3433.95 449.32C3433.96 449.258 3432.22 447.372 3430.04 445.1L3426.12 440.943L3426.67 439.326C3426.99 438.414 3427.34 437.643 3427.46 437.576C3427.58 437.508 3429.43 438.188 3431.59 439.055L3435.52 440.646L3440.68 438.041C3443.54 436.632 3450.17 433.198 3455.38 430.407L3464.96 425.356L3460.5 417.478L3468.79 411.536C3477.93 405.062 3478.57 404.337 3482.12 397.415C3483.46 394.773 3484.09 393.563 3483.73 393.024C3483.41 392.56 3482.37 392.592 3480.41 392.635C3478.23 392.665 3476.92 392.468 3477.15 392.13C3477.3 391.837 3480.07 389.639 3483.29 387.194L3489.05 382.786L3494.3 374.799C3498.48 368.416 3499.76 366.07 3500.73 362.966C3501.39 360.814 3501.91 358.955 3501.9 358.752C3501.88 358.549 3500.35 358.79 3498.5 359.211C3496.67 359.671 3494.75 360.074 3494.27 360.139C3493.54 360.238 3494.44 357.585 3498.9 346.707L3499.17 346.047C3502.09 338.865 3504.57 332.781 3504.78 332.355C3505.06 331.73 3504.32 331.727 3500.96 332.53C3500.24 332.69 3499.52 332.85 3498.87 332.995C3497.48 333.306 3496.39 333.55 3496.13 333.591C3495.75 333.652 3497.16 331.075 3499.51 327.554C3503.49 321.485 3503.6 321.215 3505.3 314.51C3506.24 310.735 3506.97 307.501 3506.91 307.382C3506.82 307.224 3502.13 307.056 3496.5 306.997C3490.86 306.899 3486.16 306.731 3486.1 306.613C3486.03 306.494 3486.44 305.373 3487 304.061C3487.57 302.75 3487.96 301.589 3487.87 301.431C3487.8 301.312 3482.8 300.692 3476.78 300.124C3474.31 299.879 3471.84 299.637 3469.72 299.429C3466.72 299.135 3464.41 298.908 3463.73 298.836L3461.56 298.601L3463.37 296.166C3464.38 294.812 3465.15 293.591 3465.06 293.433C3464.99 293.314 3459.1 293.248 3451.96 293.267C3444.83 293.326 3439 293.176 3439.07 292.928C3439.16 292.719 3440.24 291.117 3441.52 289.402C3442.79 287.687 3443.79 286.129 3443.68 285.931C3443.61 285.711 3437.31 285.666 3429.77 285.807C3422.16 285.931 3415.99 286.022 3416.02 285.898C3416.03 285.882 3416.02 285.766 3416.02 285.766L3393.56 290.804Z"
        fill="url(#paint1_linear_17_7)" />
    </g>
    <g id="leaf-2">
      <path
        d="M2976.52 452.266C2976.52 432.344 2996.06 423.017 3011.21 426.662C3011.25 426.374 3001.8 412.502 3001.43 412.399C2985.49 411.749 2960.01 429.138 2958.08 449.685L2976.52 452.266Z"
        fill="url(#paint2_linear_17_7)" />
      <path
        d="M3093.56 290.804C3093.71 290.871 3093.5 291.012 3093.02 291.228C3092.11 291.641 3089.91 293.301 3088.16 294.918C3086.41 296.535 3084.89 297.814 3084.72 297.7C3084.57 297.626 3083.72 296.59 3082.87 295.453L3081.3 293.313L3078.76 295.011C3074.19 298.116 3056.42 309.47 3056.24 309.419C3056.13 309.424 3055.81 307.933 3055.5 306.178C3054.89 302.503 3054.72 302.023 3054.14 302.663C3053.74 303.152 3030.03 323.872 3029.6 324.118C3029.44 324.208 3029.65 322.731 3030.06 320.877L3030.1 320.7C3030.43 318.911 3030.7 317.483 3030.64 317.467C3030.56 317.41 3025.42 323.191 3019.2 330.209C3013 337.266 3007.61 343.345 3007.22 343.772C3006.7 344.328 3006.31 344.287 3005.53 343.736L3004.47 342.976L3000.71 351.741C2997.43 359.361 2996.03 362.553 2995.25 365.889C2994.64 368.479 2994.4 371.155 2993.93 376.056C2993.36 382.541 2992.33 389.13 2991.21 393.891L2989.46 401.414L2991.71 404.842C2998.38 415.07 3000.68 417.844 3011.76 429.293L3022.64 440.589L3029.67 443.61C3037.59 447.011 3038.84 447.551 3039.06 447.276C3039.11 447.215 3039.1 447.115 3039.11 446.997C3039.14 446.825 3039.19 446.38 3039.24 445.798C3039.3 445.2 3039.37 444.459 3039.46 443.721C3039.6 442.126 3039.93 441.151 3040.24 441.237C3040.55 441.323 3046.71 445 3053.86 449.42L3066.85 457.432L3071.11 456.176C3074.46 455.199 3075.94 454.882 3076.23 454.119C3076.48 453.453 3075.82 452.448 3074.72 450.371L3072.71 446.543L3083.44 451.188C3090.64 454.322 3095.75 456.24 3098.98 456.971L3103.78 458.07L3105 456.439C3106.36 454.68 3106.34 453.806 3104.75 450.995C3104.23 450.085 3103.97 449.243 3104.16 449.131C3104.36 449.019 3111.16 449.038 3119.23 449.176C3127.31 449.313 3133.93 449.382 3133.95 449.32C3133.96 449.258 3132.22 447.372 3130.04 445.1L3126.12 440.943L3126.67 439.326C3126.99 438.414 3127.34 437.643 3127.46 437.576C3127.58 437.508 3129.43 438.188 3131.59 439.055L3135.52 440.646L3140.68 438.041C3143.54 436.632 3150.17 433.198 3155.38 430.407L3164.96 425.356L3160.5 417.478L3168.79 411.536C3177.93 405.062 3178.57 404.337 3182.12 397.415C3183.46 394.773 3184.09 393.563 3183.73 393.024C3183.41 392.56 3182.37 392.592 3180.41 392.635C3178.23 392.665 3176.92 392.468 3177.15 392.13C3177.3 391.837 3180.07 389.639 3183.29 387.194L3189.05 382.786L3194.3 374.799C3198.48 368.416 3199.76 366.07 3200.73 362.966C3201.39 360.814 3201.91 358.955 3201.9 358.752C3201.88 358.549 3200.35 358.79 3198.5 359.211C3196.67 359.671 3194.75 360.074 3194.27 360.139C3193.54 360.238 3194.44 357.585 3198.9 346.707L3199.17 346.047C3202.09 338.865 3204.57 332.781 3204.78 332.355C3205.06 331.73 3204.32 331.727 3200.96 332.53C3200.24 332.69 3199.52 332.85 3198.87 332.995C3197.48 333.306 3196.39 333.55 3196.13 333.591C3195.75 333.652 3197.16 331.075 3199.51 327.554C3203.49 321.485 3203.6 321.215 3205.3 314.51C3206.24 310.735 3206.97 307.501 3206.91 307.382C3206.82 307.224 3202.13 307.056 3196.5 306.997C3190.86 306.899 3186.16 306.731 3186.1 306.613C3186.03 306.494 3186.44 305.373 3187 304.061C3187.57 302.75 3187.96 301.589 3187.87 301.431C3187.8 301.312 3182.8 300.692 3176.78 300.124C3174.31 299.879 3171.84 299.637 3169.72 299.429C3166.72 299.135 3164.41 298.908 3163.73 298.836L3161.56 298.601L3163.37 296.166C3164.38 294.812 3165.15 293.591 3165.06 293.433C3164.99 293.314 3159.1 293.248 3151.96 293.267C3144.83 293.326 3139 293.176 3139.07 292.928C3139.16 292.719 3140.24 291.117 3141.52 289.402C3142.79 287.687 3143.79 286.129 3143.68 285.931C3143.61 285.711 3137.31 285.666 3129.77 285.807C3122.16 285.931 3115.99 286.022 3116.02 285.898C3116.03 285.882 3116.02 285.766 3116.02 285.766L3093.56 290.804Z"
        fill="url(#paint3_linear_17_7)" />
    </g>
    <g id="leaf-1">
      <path
        d="M2676.52 452.266C2676.52 432.344 2696.06 423.017 2711.21 426.662C2711.25 426.374 2701.8 412.502 2701.43 412.399C2685.49 411.749 2660.01 429.138 2658.08 449.685L2676.52 452.266Z"
        fill="url(#paint4_linear_17_7)" />
      <path
        d="M2793.56 290.804C2793.71 290.871 2793.5 291.012 2793.02 291.228C2792.11 291.641 2789.91 293.301 2788.16 294.918C2786.41 296.535 2784.89 297.814 2784.72 297.7C2784.57 297.626 2783.72 296.59 2782.87 295.453L2781.3 293.313L2778.76 295.011C2774.19 298.116 2756.42 309.47 2756.24 309.419C2756.13 309.424 2755.81 307.933 2755.5 306.178C2754.89 302.503 2754.72 302.023 2754.14 302.663C2753.74 303.152 2730.03 323.872 2729.6 324.118C2729.44 324.208 2729.65 322.731 2730.06 320.877L2730.1 320.7C2730.43 318.911 2730.7 317.483 2730.64 317.467C2730.56 317.41 2725.42 323.191 2719.2 330.209C2713 337.266 2707.61 343.345 2707.22 343.772C2706.7 344.328 2706.31 344.287 2705.53 343.736L2704.47 342.976L2700.71 351.741C2697.43 359.361 2696.03 362.553 2695.25 365.889C2694.64 368.479 2694.4 371.155 2693.93 376.056C2693.36 382.541 2692.33 389.13 2691.21 393.891L2689.46 401.414L2691.71 404.842C2698.38 415.07 2700.68 417.844 2711.76 429.293L2722.64 440.589L2729.67 443.61C2737.59 447.011 2738.84 447.551 2739.06 447.276C2739.11 447.215 2739.1 447.115 2739.11 446.997C2739.14 446.825 2739.19 446.38 2739.24 445.798C2739.3 445.2 2739.37 444.459 2739.46 443.721C2739.6 442.126 2739.93 441.151 2740.24 441.237C2740.55 441.323 2746.71 445 2753.86 449.42L2766.85 457.432L2771.11 456.176C2774.46 455.199 2775.94 454.882 2776.23 454.119C2776.48 453.453 2775.82 452.448 2774.72 450.371L2772.71 446.543L2783.44 451.188C2790.64 454.322 2795.75 456.24 2798.98 456.971L2803.78 458.07L2805 456.439C2806.36 454.68 2806.34 453.806 2804.75 450.995C2804.23 450.085 2803.97 449.243 2804.16 449.131C2804.36 449.019 2811.16 449.038 2819.23 449.176C2827.31 449.313 2833.93 449.382 2833.95 449.32C2833.96 449.258 2832.22 447.372 2830.04 445.1L2826.12 440.943L2826.67 439.326C2826.99 438.414 2827.34 437.643 2827.46 437.576C2827.58 437.508 2829.43 438.188 2831.59 439.055L2835.52 440.646L2840.68 438.041C2843.54 436.632 2850.17 433.198 2855.38 430.407L2864.96 425.356L2860.5 417.478L2868.79 411.536C2877.93 405.062 2878.57 404.337 2882.12 397.415C2883.46 394.773 2884.09 393.563 2883.73 393.024C2883.41 392.56 2882.37 392.592 2880.41 392.635C2878.23 392.665 2876.92 392.468 2877.15 392.13C2877.3 391.837 2880.07 389.639 2883.29 387.194L2889.05 382.786L2894.3 374.799C2898.48 368.416 2899.76 366.07 2900.73 362.966C2901.39 360.814 2901.91 358.955 2901.9 358.752C2901.88 358.549 2900.35 358.79 2898.5 359.211C2896.67 359.671 2894.75 360.074 2894.27 360.139C2893.54 360.238 2894.44 357.585 2898.9 346.707L2899.17 346.047C2902.09 338.865 2904.57 332.781 2904.78 332.355C2905.06 331.73 2904.32 331.727 2900.96 332.53C2900.24 332.69 2899.52 332.85 2898.87 332.995C2897.48 333.306 2896.39 333.55 2896.13 333.591C2895.75 333.652 2897.16 331.075 2899.51 327.554C2903.49 321.485 2903.6 321.215 2905.3 314.51C2906.24 310.735 2906.97 307.501 2906.91 307.382C2906.82 307.224 2902.13 307.056 2896.5 306.997C2890.86 306.899 2886.16 306.731 2886.1 306.613C2886.03 306.494 2886.44 305.373 2887 304.061C2887.57 302.75 2887.96 301.589 2887.87 301.431C2887.8 301.312 2882.8 300.692 2876.78 300.124C2874.31 299.879 2871.84 299.637 2869.72 299.429C2866.72 299.135 2864.41 298.908 2863.73 298.836L2861.56 298.601L2863.37 296.166C2864.38 294.812 2865.15 293.591 2865.06 293.433C2864.99 293.314 2859.1 293.248 2851.96 293.267C2844.83 293.326 2839 293.176 2839.07 292.928C2839.16 292.719 2840.24 291.117 2841.52 289.402C2842.79 287.687 2843.79 286.129 2843.68 285.931C2843.61 285.711 2837.31 285.666 2829.77 285.807C2822.16 285.931 2815.99 286.022 2816.02 285.898C2816.03 285.882 2816.02 285.766 2816.02 285.766L2793.56 290.804Z"
        fill="url(#paint5_linear_17_7)" />
    </g>
    <g id="LOADING">
      <path
        d="M0.531982 442.138V24.1384L94.582 15.8884L149.582 43.3884V336.538L226.582 329.938L281.582 357.438V450.388L55.532 469.638L0.531982 442.138ZM89.082 347.538V21.9384L6.03198 29.0884V436.638L221.082 417.938V335.988L89.082 347.538Z"
        fill="url(#paint6_linear_17_7)" />
      <path
        d="M524.854 472.388C522.287 472.755 519.537 472.938 516.604 472.938C514.037 472.938 511.471 472.938 508.904 472.938C489.837 472.938 472.237 470.188 456.104 464.688C440.337 459.555 424.937 453.505 409.904 446.538C370.671 427.105 341.887 399.788 323.554 364.588C305.587 329.022 296.604 286.855 296.604 238.088C296.604 209.488 300.087 181.805 307.054 155.038C314.387 127.905 325.204 103.522 339.504 81.8884C353.804 59.8884 371.587 41.9218 392.854 27.9884C414.487 14.0551 439.787 5.80509 468.754 3.23843C471.687 2.87175 474.437 2.68841 477.004 2.68841C479.571 2.68841 482.137 2.68841 484.704 2.68841C503.037 2.68841 519.354 5.07174 533.654 9.83841C547.954 14.2384 562.437 19.3718 577.104 25.2384C603.504 35.8717 625.504 51.6384 643.104 72.5384C660.704 93.4384 673.904 118.005 682.704 146.238C691.504 174.105 695.904 203.988 695.904 235.888C695.904 265.588 692.421 294.005 685.454 321.138C678.487 348.272 667.854 372.838 653.554 394.838C639.621 416.472 621.837 434.072 600.204 447.638C578.937 461.572 553.821 469.822 524.854 472.388ZM469.304 439.388C497.537 437.188 522.104 429.488 543.004 416.288C563.904 402.722 581.137 385.305 594.704 364.038C608.271 342.405 618.354 318.388 624.954 291.988C631.921 265.222 635.404 237.355 635.404 208.388C635.404 181.988 632.287 156.872 626.054 133.038C620.187 108.838 611.021 87.3884 598.554 68.6884C586.087 49.9884 570.321 35.3217 551.254 24.6884C532.554 13.6884 510.371 8.1884 484.704 8.1884C482.137 8.1884 479.571 8.1884 477.004 8.1884C474.804 8.1884 472.237 8.37174 469.304 8.73843C441.071 11.3051 416.504 19.3717 395.604 32.9384C374.704 46.1384 357.287 63.5551 343.354 85.1884C329.421 106.455 318.971 130.288 312.004 156.688C305.404 182.722 302.104 209.855 302.104 238.088C302.104 265.588 305.221 291.622 311.454 316.188C317.687 340.388 327.037 361.838 339.504 380.538C351.971 398.872 367.737 413.355 386.804 423.988C405.871 434.622 428.054 439.938 453.354 439.938C456.287 439.938 459.037 439.938 461.604 439.938C464.171 439.938 466.737 439.755 469.304 439.388ZM469.304 354.138C467.837 354.138 466.371 354.322 464.904 354.688C463.804 354.688 462.521 354.688 461.054 354.688C439.054 354.688 421.637 345.155 408.804 326.088C396.337 307.022 390.104 275.122 390.104 230.388C390.104 198.488 393.587 172.822 400.554 153.388C407.521 133.955 417.054 119.655 429.154 110.488C441.254 100.955 454.637 95.6384 469.304 94.5384C470.771 94.5384 472.237 94.5384 473.704 94.5384C475.171 94.1718 476.637 93.9884 478.104 93.9884C499.737 93.9884 516.604 103.338 528.704 122.038C540.804 140.372 546.854 171.905 546.854 216.638C546.854 264.305 539.521 298.772 524.854 320.038C510.554 340.938 492.037 352.305 469.304 354.138ZM467.654 348.638C489.287 346.805 506.887 335.805 520.454 315.638C534.387 295.472 541.354 262.472 541.354 216.638C541.354 195.738 540.071 177.955 537.504 163.288C534.937 148.622 531.087 136.705 525.954 127.538C524.121 127.172 522.287 126.988 520.454 126.988C518.621 126.622 516.787 126.438 514.954 126.438C493.321 126.438 477.187 137.805 466.554 160.538C455.921 182.905 450.604 215.355 450.604 257.888C450.604 279.155 452.071 297.305 455.004 312.338C457.937 327.005 462.154 339.105 467.654 348.638Z"
        fill="url(#paint7_linear_17_7)" />
      <path
        d="M941.225 431.688L920.875 366.238L877.425 370.088L850.475 466.338L756.975 474.588L701.975 447.088L822.425 17.5384L913.175 9.83841L968.175 37.3384L1090.83 451.488L996.225 459.188L941.225 431.688ZM826.825 23.0384L710.225 440.488L790.525 433.888L818.025 337.638L915.925 328.838L945.075 426.188L1028.13 419.038L908.775 15.8884L826.825 23.0384ZM837.275 257.338C844.242 234.605 849.925 212.972 854.325 192.438C859.092 171.905 863.125 151.372 866.425 130.838H868.625C871.559 151.005 875.225 170.805 879.625 190.238C884.392 209.305 890.075 229.838 896.675 251.838L837.275 257.338Z"
        fill="url(#paint8_linear_17_7)" />
      <path
        d="M1117.72 444.888V26.8884L1232.12 16.9884C1236.89 16.6218 1241.47 16.4384 1245.87 16.4384C1250.27 16.0718 1254.3 15.8884 1257.97 15.8884C1278.14 15.8884 1296.1 18.2718 1311.87 23.0384C1328 27.8051 1345.6 34.7718 1364.67 43.9384C1390.34 55.6717 1411.24 70.1551 1427.37 87.3884C1443.5 104.255 1455.42 125.155 1463.12 150.088C1470.82 174.655 1474.67 204.722 1474.67 240.288C1474.67 286.855 1466.79 326.088 1451.02 357.988C1435.62 389.888 1414.35 414.455 1387.22 431.688C1360.09 448.555 1328.74 458.638 1293.17 461.938L1172.72 472.388L1117.72 444.888ZM1237.62 429.488C1272.09 426.555 1302.52 416.655 1328.92 399.788C1355.69 382.922 1376.59 358.905 1391.62 327.738C1406.65 296.572 1414.17 258.255 1414.17 212.788C1414.17 150.455 1400.79 102.972 1374.02 70.3384C1347.62 37.7051 1308.39 21.3884 1256.32 21.3884C1252.65 21.3884 1248.8 21.5718 1244.77 21.9384C1240.74 21.9384 1236.7 22.1218 1232.67 22.4884L1123.22 31.8384V438.838L1237.62 429.488ZM1206.27 105.538L1222.22 104.438C1226.25 104.072 1229.92 103.888 1233.22 103.888C1236.89 103.522 1240.55 103.338 1244.22 103.338C1263.29 103.338 1278.87 106.822 1290.97 113.788C1303.44 120.755 1312.6 132.672 1318.47 149.538C1324.7 166.405 1327.82 190.055 1327.82 220.488C1327.82 263.755 1318.84 295.472 1300.87 315.638C1282.9 335.438 1258.52 346.622 1227.72 349.188L1206.27 350.838V105.538ZM1266.77 333.788C1285.47 325.722 1299.4 312.705 1308.57 294.738C1317.74 276.405 1322.32 251.655 1322.32 220.488C1322.32 181.622 1316.82 153.755 1305.82 136.888C1304.35 136.522 1302.89 136.338 1301.42 136.338C1299.95 136.338 1298.49 136.338 1297.02 136.338C1293.72 136.338 1290.42 136.522 1287.12 136.888C1284.19 136.888 1281.07 137.072 1277.77 137.438L1266.77 137.988V333.788Z"
        fill="url(#paint9_linear_17_7)" />
      <path
        d="M1530.28 437.188V19.1884L1625.98 10.3884L1680.98 37.8884V455.888L1585.28 464.138L1530.28 437.188ZM1535.78 24.1384V431.138L1620.48 423.438V16.4384L1535.78 24.1384Z"
        fill="url(#paint10_linear_17_7)" />
      <path
        d="M1945.04 433.338L1903.79 340.388V463.588L1809.19 471.838L1754.19 444.338V26.3384L1843.29 18.6384L1898.29 46.1384L1938.99 134.138V15.8884L2034.69 7.08842L2089.69 34.5884V453.138L2000.04 460.838L1945.04 433.338ZM1944.49 20.8384V174.838C1944.49 178.872 1944.68 185.472 1945.04 194.638C1945.41 203.438 1945.78 212.788 1946.14 222.688C1946.88 232.222 1947.43 240.472 1947.79 247.438C1948.16 254.038 1948.34 257.338 1948.34 257.338L1946.69 258.438C1946.69 258.438 1946.14 256.422 1945.04 252.388C1944.31 248.355 1943.03 243.588 1941.19 238.088C1939.36 232.222 1937.34 226.905 1935.14 222.138L1839.99 24.6884L1759.69 31.2884V438.288L1843.29 431.688V287.588C1843.29 283.188 1843.11 275.672 1842.74 265.038C1842.38 254.405 1842.01 243.222 1841.64 231.488C1841.64 219.755 1841.46 209.855 1841.09 201.788C1840.73 193.355 1840.54 189.138 1840.54 189.138L1842.19 188.588C1842.19 188.588 1843.11 192.255 1844.94 199.588C1847.14 206.555 1850.08 213.888 1853.74 221.588L1949.99 427.838L2029.19 420.688V13.1384L1944.49 20.8384Z"
        fill="url(#paint11_linear_17_7)" />
      <path
        d="M2511.15 375.588C2500.15 401.255 2482.37 422.888 2457.8 440.488C2433.6 458.088 2403.72 468.355 2368.15 471.288C2364.85 471.655 2361.55 471.838 2358.25 471.838C2354.95 471.838 2351.65 471.838 2348.35 471.838C2320.85 471.838 2294.63 467.072 2269.7 457.538C2245.13 448.005 2223.32 433.705 2204.25 414.638C2185.18 395.205 2170.15 370.638 2159.15 340.938C2148.15 311.238 2142.65 276.038 2142.65 235.338C2142.65 204.172 2146.5 175.022 2154.2 147.888C2161.9 120.388 2173.08 96.0051 2187.75 74.7384C2202.78 53.4718 2220.93 36.4218 2242.2 23.5884C2263.47 10.7551 2287.48 3.23842 2314.25 1.03843C2316.45 0.671745 2318.65 0.488403 2320.85 0.488403C2323.05 0.488403 2325.25 0.488403 2327.45 0.488403C2354.22 0.488403 2380.25 6.53841 2405.55 18.6384C2431.22 30.7384 2453.58 47.2384 2472.65 68.1384C2492.08 89.0384 2505.83 112.688 2513.9 139.088L2448.45 175.938L2456.15 175.388L2511.15 202.888V375.588ZM2287.3 195.188V273.288L2372 266.138V313.438C2367.23 322.972 2359.53 331.222 2348.9 338.188C2338.63 344.788 2327.82 348.455 2316.45 349.188C2314.98 349.555 2313.33 349.738 2311.5 349.738C2310.03 349.738 2308.38 349.738 2306.55 349.738C2282.72 349.738 2264.75 340.205 2252.65 321.138C2240.55 302.072 2234.5 271.088 2234.5 228.188C2234.5 189.322 2240.73 158.338 2253.2 135.238C2265.67 112.138 2285.65 99.4884 2313.15 97.2884H2319.2C2334.23 97.2884 2347.07 101.688 2357.7 110.488C2368.7 119.288 2376.58 132.122 2381.35 148.988L2452.3 108.838C2446.07 91.2384 2437.45 74.7384 2426.45 59.3384C2415.82 43.5717 2402.43 30.7384 2386.3 20.8384C2370.17 10.9384 2350.55 5.98843 2327.45 5.98843C2325.62 5.98843 2323.6 5.98843 2321.4 5.98843C2319.2 5.98843 2317 6.17176 2314.8 6.53842C2279.97 9.47176 2250.08 21.5718 2225.15 42.8384C2200.22 63.7384 2181.15 91.0551 2167.95 124.788C2154.75 158.155 2148.15 195.005 2148.15 235.338C2148.15 277.138 2154.2 313.255 2166.3 343.688C2178.4 374.122 2195.63 397.588 2218 414.088C2240.37 430.588 2266.95 438.838 2297.75 438.838C2300.32 438.838 2302.7 438.838 2304.9 438.838C2307.47 438.838 2310.03 438.655 2312.6 438.288C2347.07 435.355 2376.03 425.638 2399.5 409.138C2423.33 392.272 2440.57 371.555 2451.2 346.988V181.438L2287.3 195.188ZM2378.05 157.238C2376.58 152.105 2374.93 147.338 2373.1 142.938C2371.27 138.172 2369.25 133.955 2367.05 130.288C2350.55 131.755 2336.98 137.622 2326.35 147.888C2316.08 157.788 2308.38 171.355 2303.25 188.588L2422.05 178.688L2378.05 157.238ZM2339.55 307.938L2296.65 285.938C2297.38 300.605 2298.85 312.155 2301.05 320.588C2303.62 328.655 2307.28 336.538 2312.05 344.238C2313.15 343.872 2314.43 343.688 2315.9 343.688C2325.43 342.955 2334.97 340.022 2344.5 334.888C2354.03 329.388 2361.37 322.972 2366.5 315.638V304.638L2339.55 307.938Z"
        fill="url(#paint12_linear_17_7)" />
    </g>
    <g id="LOADING-BG">
      <path d="M89.082 347.538V21.9384L6.03198 29.0884V436.638L221.082 417.938V335.988L89.082 347.538Z" fill="#BECE7A" />
      <path
        d="M826.825 23.0384L710.225 440.488L790.525 433.888L818.025 337.638L915.925 328.838L945.075 426.188L1028.13 419.038L908.775 15.8884L826.825 23.0384ZM837.275 257.338C844.242 234.605 849.925 212.972 854.325 192.438C859.092 171.905 863.125 151.372 866.425 130.838H868.625C871.559 151.005 875.225 170.805 879.625 190.238C884.392 209.305 890.075 229.838 896.675 251.838L837.275 257.338Z"
        fill="#BECE7A" />
      <path
        d="M1237.62 429.488C1272.09 426.555 1302.52 416.655 1328.92 399.788C1355.69 382.922 1376.59 358.905 1391.62 327.738C1406.65 296.572 1414.17 258.255 1414.17 212.788C1414.17 150.455 1400.79 102.972 1374.02 70.3384C1347.62 37.7051 1308.39 21.3884 1256.32 21.3884C1252.65 21.3884 1248.8 21.5717 1244.77 21.9384C1240.74 21.9384 1236.7 22.1217 1232.67 22.4884L1123.22 31.8384V438.838L1237.62 429.488ZM1206.27 105.538L1222.22 104.438C1226.25 104.072 1229.92 103.888 1233.22 103.888C1236.89 103.522 1240.55 103.338 1244.22 103.338C1263.29 103.338 1278.87 106.822 1290.97 113.788C1303.44 120.755 1312.6 132.672 1318.47 149.538C1324.7 166.405 1327.82 190.055 1327.82 220.488C1327.82 263.755 1318.84 295.472 1300.87 315.638C1282.9 335.438 1258.52 346.622 1227.72 349.188L1206.27 350.838V105.538Z"
        fill="#BECE7A" />
      <path d="M1535.78 24.1384V431.138L1620.48 423.438V16.4384L1535.78 24.1384Z" fill="#BECE7A" />
      <path
        d="M1944.49 20.8384V174.838C1944.49 178.872 1944.68 185.472 1945.04 194.638C1945.41 203.438 1945.78 212.788 1946.14 222.688C1946.88 232.222 1947.43 240.472 1947.79 247.438C1948.16 254.038 1948.34 257.338 1948.34 257.338L1946.69 258.438C1946.69 258.438 1946.14 256.422 1945.04 252.388C1944.31 248.355 1943.03 243.588 1941.19 238.088C1939.36 232.222 1937.34 226.905 1935.14 222.138L1839.99 24.6884L1759.69 31.2884V438.288L1843.29 431.688V287.588C1843.29 283.188 1843.11 275.672 1842.74 265.038C1842.38 254.405 1842.01 243.222 1841.64 231.488C1841.64 219.755 1841.46 209.855 1841.09 201.788C1840.73 193.355 1840.54 189.138 1840.54 189.138L1842.19 188.588C1842.19 188.588 1843.11 192.255 1844.94 199.588C1847.14 206.555 1850.08 213.888 1853.74 221.588L1949.99 427.838L2029.19 420.688V13.1384L1944.49 20.8384Z"
        fill="#BECE7A" />
      <path
        d="M2287.3 195.188V273.288L2372 266.138V313.438C2367.23 322.972 2359.53 331.222 2348.9 338.188C2338.63 344.788 2327.82 348.455 2316.45 349.188C2314.98 349.555 2313.33 349.738 2311.5 349.738C2310.03 349.738 2308.38 349.738 2306.55 349.738C2282.72 349.738 2264.75 340.205 2252.65 321.138C2240.55 302.072 2234.5 271.088 2234.5 228.188C2234.5 189.322 2240.73 158.338 2253.2 135.238C2265.67 112.138 2285.65 99.4884 2313.15 97.2884H2319.2C2334.23 97.2884 2347.07 101.688 2357.7 110.488C2368.7 119.288 2376.58 132.122 2381.35 148.988L2452.3 108.838C2446.07 91.2384 2437.45 74.7384 2426.45 59.3384C2415.82 43.5717 2402.43 30.7384 2386.3 20.8384C2370.17 10.9384 2350.55 5.9884 2327.45 5.9884C2325.62 5.9884 2323.6 5.9884 2321.4 5.9884C2319.2 5.9884 2317 6.17173 2314.8 6.5384C2279.97 9.47174 2250.08 21.5717 2225.15 42.8384C2200.22 63.7384 2181.15 91.055 2167.95 124.788C2154.75 158.155 2148.15 195.005 2148.15 235.338C2148.15 277.138 2154.2 313.255 2166.3 343.688C2178.4 374.122 2195.63 397.588 2218 414.088C2240.37 430.588 2266.95 438.838 2297.75 438.838C2300.32 438.838 2302.7 438.838 2304.9 438.838C2307.47 438.838 2310.03 438.655 2312.6 438.288C2347.07 435.355 2376.03 425.638 2399.5 409.138C2423.33 392.272 2440.57 371.555 2451.2 346.988V181.438L2287.3 195.188Z"
        fill="#BECE7A" />
      <path d="M89.082 347.538V21.9384L6.03198 29.0884V436.638L221.082 417.938V335.988L89.082 347.538Z" fill="#BECE7A" />
      <path fill-rule="evenodd" clip-rule="evenodd"
        d="M469.304 439.388C497.537 437.188 522.104 429.488 543.004 416.288C563.904 402.722 581.137 385.305 594.704 364.038C608.271 342.405 618.354 318.388 624.954 291.988C631.921 265.222 635.404 237.355 635.404 208.388C635.404 181.988 632.287 156.872 626.054 133.038C620.187 108.838 611.021 87.3884 598.554 68.6884C586.087 49.9884 570.321 35.3217 551.254 24.6884C532.554 13.6884 510.371 8.18837 484.704 8.18837H477.004C474.804 8.18837 472.237 8.37172 469.304 8.7384C441.071 11.3051 416.504 19.3717 395.604 32.9384C374.704 46.1384 357.287 63.5551 343.354 85.1884C329.421 106.455 318.971 130.288 312.004 156.688C305.404 182.722 302.104 209.855 302.104 238.088C302.104 265.588 305.221 291.622 311.454 316.188C317.687 340.388 327.037 361.838 339.504 380.538C351.971 398.872 367.737 413.355 386.804 423.988C405.871 434.622 428.054 439.938 453.354 439.938H461.604C464.171 439.938 466.737 439.755 469.304 439.388ZM464.904 354.688C466.371 354.322 467.837 354.138 469.304 354.138C492.037 352.305 510.554 340.938 524.854 320.038C539.521 298.772 546.854 264.305 546.854 216.638C546.854 171.905 540.804 140.372 528.704 122.038C516.604 103.338 499.737 93.9884 478.104 93.9884C476.637 93.9884 475.171 94.1717 473.704 94.5384H469.304C454.637 95.6384 441.254 100.955 429.154 110.488C417.054 119.655 407.521 133.955 400.554 153.388C393.587 172.822 390.104 198.488 390.104 230.388C390.104 275.122 396.337 307.022 408.804 326.088C421.637 345.155 439.054 354.688 461.054 354.688H464.904Z"
        fill="#BECE7A" />
      <path fill-rule="evenodd" clip-rule="evenodd"
        d="M826.825 23.0384L710.225 440.488L790.525 433.888L818.025 337.638L915.925 328.838L945.075 426.188L1028.13 419.038L908.775 15.8884L826.825 23.0384ZM854.325 192.438C849.925 212.972 844.242 234.605 837.275 257.338L896.675 251.838C890.075 229.838 884.392 209.305 879.625 190.238C875.225 170.805 871.559 151.005 868.625 130.838H866.425C863.125 151.372 859.092 171.905 854.325 192.438Z"
        fill="#BECE7A" />
      <path fill-rule="evenodd" clip-rule="evenodd"
        d="M1237.62 429.488C1272.09 426.555 1302.52 416.655 1328.92 399.788C1355.69 382.922 1376.59 358.905 1391.62 327.738C1406.65 296.572 1414.17 258.255 1414.17 212.788C1414.17 150.455 1400.79 102.972 1374.02 70.3384C1347.62 37.7051 1308.39 21.3884 1256.32 21.3884C1252.65 21.3884 1248.8 21.5717 1244.77 21.9384C1240.74 21.9384 1236.7 22.1217 1232.67 22.4884L1123.22 31.8384V438.838L1237.62 429.488ZM1222.22 104.438L1206.27 105.538V350.838L1227.72 349.188C1258.52 346.622 1282.9 335.438 1300.87 315.638C1318.84 295.472 1327.82 263.755 1327.82 220.488C1327.82 190.055 1324.7 166.405 1318.47 149.538C1312.6 132.672 1303.44 120.755 1290.97 113.788C1278.87 106.822 1263.29 103.338 1244.22 103.338C1240.55 103.338 1236.89 103.522 1233.22 103.888C1229.92 103.888 1226.25 104.072 1222.22 104.438Z"
        fill="#BECE7A" />
      <path d="M1535.78 24.1384V431.138L1620.48 423.438V16.4384L1535.78 24.1384Z" fill="#BECE7A" />
      <path
        d="M1944.49 20.8384V174.838C1944.49 178.872 1944.68 185.472 1945.04 194.638C1945.41 203.438 1945.78 212.788 1946.14 222.688C1946.88 232.222 1947.43 240.472 1947.79 247.438L1948.34 257.338L1946.69 258.438L1945.04 252.388C1944.31 248.355 1943.03 243.588 1941.19 238.088C1939.36 232.222 1937.34 226.905 1935.14 222.138L1839.99 24.6884L1759.69 31.2884V438.288L1843.29 431.688V287.588C1843.29 283.188 1843.11 275.672 1842.74 265.038C1842.38 254.405 1842.01 243.222 1841.64 231.488C1841.64 219.755 1841.46 209.855 1841.09 201.788L1840.54 189.138L1842.19 188.588L1844.94 199.588C1847.14 206.555 1850.08 213.888 1853.74 221.588L1949.99 427.838L2029.19 420.688V13.1384L1944.49 20.8384Z"
        fill="#BECE7A" />
      <path
        d="M2287.3 195.188V273.288L2372 266.138V313.438C2367.23 322.972 2359.53 331.222 2348.9 338.188C2338.63 344.788 2327.82 348.455 2316.45 349.188C2314.98 349.555 2313.33 349.738 2311.5 349.738H2306.55C2282.72 349.738 2264.75 340.205 2252.65 321.138C2240.55 302.072 2234.5 271.088 2234.5 228.188C2234.5 189.322 2240.73 158.338 2253.2 135.238C2265.67 112.138 2285.65 99.4884 2313.15 97.2884H2319.2C2334.23 97.2884 2347.07 101.688 2357.7 110.488C2368.7 119.288 2376.58 132.122 2381.35 148.988L2452.3 108.838C2446.07 91.2384 2437.45 74.7384 2426.45 59.3384C2415.82 43.5717 2402.43 30.7384 2386.3 20.8384C2370.17 10.9384 2350.55 5.9884 2327.45 5.9884H2321.4C2319.2 5.9884 2317 6.17173 2314.8 6.5384C2279.97 9.47174 2250.08 21.5717 2225.15 42.8384C2200.22 63.7384 2181.15 91.055 2167.95 124.788C2154.75 158.155 2148.15 195.005 2148.15 235.338C2148.15 277.138 2154.2 313.255 2166.3 343.688C2178.4 374.122 2195.63 397.588 2218 414.088C2240.37 430.588 2266.95 438.838 2297.75 438.838H2304.9C2307.47 438.838 2310.03 438.655 2312.6 438.288C2347.07 435.355 2376.03 425.638 2399.5 409.138C2423.33 392.272 2440.57 371.555 2451.2 346.988V181.438L2287.3 195.188Z"
        fill="#BECE7A" />
    </g>
  </g>
  <defs>
    <linearGradient id="paint0_linear_17_7" x1="3364.74" y1="-120.223" x2="2985.22" y2="94.4057"
      gradientUnits="userSpaceOnUse">
      <stop stop-color="#4F772D" />
      <stop offset="1" stop-color="#90A955" />
    </linearGradient>
    <linearGradient id="paint1_linear_17_7" x1="3364.74" y1="-120.223" x2="2985.22" y2="94.4057"
      gradientUnits="userSpaceOnUse">
      <stop stop-color="#4F772D" />
      <stop offset="1" stop-color="#90A955" />
    </linearGradient>
    <linearGradient id="paint2_linear_17_7" x1="3064.74" y1="-120.223" x2="2685.22" y2="94.4057"
      gradientUnits="userSpaceOnUse">
      <stop stop-color="#4F772D" />
      <stop offset="1" stop-color="#90A955" />
    </linearGradient>
    <linearGradient id="paint3_linear_17_7" x1="3064.74" y1="-120.223" x2="2685.22" y2="94.4057"
      gradientUnits="userSpaceOnUse">
      <stop stop-color="#4F772D" />
      <stop offset="1" stop-color="#90A955" />
    </linearGradient>
    <linearGradient id="paint4_linear_17_7" x1="2764.74" y1="-120.223" x2="2385.22" y2="94.4057"
      gradientUnits="userSpaceOnUse">
      <stop stop-color="#4F772D" />
      <stop offset="1" stop-color="#90A955" />
    </linearGradient>
    <linearGradient id="paint5_linear_17_7" x1="2764.74" y1="-120.223" x2="2385.22" y2="94.4057"
      gradientUnits="userSpaceOnUse">
      <stop stop-color="#4F772D" />
      <stop offset="1" stop-color="#90A955" />
    </linearGradient>
    <linearGradient id="paint6_linear_17_7" x1="4593.61" y1="-2478.81" x2="279.267" y2="-3588.16"
      gradientUnits="userSpaceOnUse">
      <stop stop-color="#4F772D" />
      <stop offset="1" stop-color="#90A955" />
    </linearGradient>
    <linearGradient id="paint7_linear_17_7" x1="4593.61" y1="-2478.81" x2="279.267" y2="-3588.16"
      gradientUnits="userSpaceOnUse">
      <stop stop-color="#4F772D" />
      <stop offset="1" stop-color="#90A955" />
    </linearGradient>
    <linearGradient id="paint8_linear_17_7" x1="4593.61" y1="-2478.81" x2="279.267" y2="-3588.16"
      gradientUnits="userSpaceOnUse">
      <stop stop-color="#4F772D" />
      <stop offset="1" stop-color="#90A955" />
    </linearGradient>
    <linearGradient id="paint9_linear_17_7" x1="4593.61" y1="-2478.81" x2="279.267" y2="-3588.16"
      gradientUnits="userSpaceOnUse">
      <stop stop-color="#4F772D" />
      <stop offset="1" stop-color="#90A955" />
    </linearGradient>
    <linearGradient id="paint10_linear_17_7" x1="4593.61" y1="-2478.81" x2="279.267" y2="-3588.16"
      gradientUnits="userSpaceOnUse">
      <stop stop-color="#4F772D" />
      <stop offset="1" stop-color="#90A955" />
    </linearGradient>
    <linearGradient id="paint11_linear_17_7" x1="4593.61" y1="-2478.81" x2="279.267" y2="-3588.16"
      gradientUnits="userSpaceOnUse">
      <stop stop-color="#4F772D" />
      <stop offset="1" stop-color="#90A955" />
    </linearGradient>
    <linearGradient id="paint12_linear_17_7" x1="4593.61" y1="-2478.81" x2="279.267" y2="-3588.16"
      gradientUnits="userSpaceOnUse">
      <stop stop-color="#4F772D" />
      <stop offset="1" stop-color="#90A955" />
    </linearGradient>
  </defs>
</svg>