<svg width="741" height="1205" viewBox="0 0 741 1205" fill="none" xmlns="http://www.w3.org/2000/svg">
<g clip-path="url(#clip0_12_100)">
<path d="M113.339 576.721C118.721 579.948 123.235 582.604 123.414 582.636C123.593 582.668 123.766 581.96 123.784 581.085C123.802 580.211 123.93 579.495 124.065 579.519C124.288 579.559 137.409 586.527 146.925 591.695L148.611 592.597L149.098 590.652C149.38 589.593 149.719 588.73 149.898 588.762C150.077 588.794 155.196 592.205 161.3 596.3C167.441 600.449 172.575 603.77 172.726 603.704C172.921 603.647 173.645 602.437 174.365 600.995C175.223 599.3 175.868 598.538 176.202 598.736C176.491 598.927 180.803 603.487 185.748 608.899C193.128 616.965 198.34 621.917 199.683 622.158C199.817 622.182 200.203 620.541 200.564 618.527L201.229 614.811L212.787 631.802C219.158 641.119 224.487 648.772 224.666 648.804C224.845 648.836 225.656 647.919 226.454 646.814C227.26 645.665 228.063 644.792 228.242 644.824C228.466 644.864 230.132 650.013 231.979 656.211C234.809 665.957 239.891 679.895 241.619 682.884C242.044 683.607 242.863 683.938 245.146 684.346L248.1 684.875L250.11 692.488L252.076 700.093L250.765 715.936C250.04 724.63 249.564 731.936 249.666 732.139C249.821 732.306 251.489 732.281 253.413 732.117C255.344 731.908 257.036 731.749 257.17 731.773C257.304 731.797 257.331 732.68 257.192 733.717C256.948 735.337 256.977 735.434 257.327 734.25C257.553 733.505 257.538 731.007 257.259 728.694L256.711 724.53L259.377 716.599L261.999 708.66L267.083 703.749C269.874 701.061 272.247 698.899 272.292 698.907C272.381 698.923 273.049 700.613 273.795 702.64C274.496 704.66 275.208 706.358 275.388 706.39C275.522 706.414 278.124 701.429 281.068 695.303L286.516 684.22L291.345 679.956C294.027 677.618 296.279 675.619 296.376 675.59C296.482 675.517 296.726 676.993 296.951 678.835C297.167 680.721 297.517 682.124 297.736 681.932C298 681.748 300.633 679.17 303.606 676.238C309.038 670.927 309.143 670.853 318.075 666.122C322.981 663.49 327.42 661.143 327.924 660.909C328.729 660.545 328.831 660.748 328.862 663.156C328.874 664.637 328.96 666.223 329.014 666.694C329.073 667.398 330.194 666.813 334.664 663.779C339.398 660.56 341.526 659.509 348.218 656.965L356.158 653.905L356.304 655.409C356.339 656.247 356.448 657.19 356.481 657.52C356.543 657.947 358.302 657.153 361.344 655.387C366.924 652.089 385.228 641.968 385.452 642.008C385.541 642.024 384.984 643.587 384.184 645.477C383.429 647.374 382.827 648.93 382.916 648.946C383.006 648.962 389.231 647.997 396.744 646.801C404.25 645.649 410.503 644.782 410.613 644.94C410.724 645.099 411.11 646.554 411.509 648.196C411.991 650.407 412.408 651.175 413.006 651.19C413.425 651.172 417.812 650.664 422.777 650.028C433.934 648.606 435.423 648.549 435.279 649.355C435.134 650.161 433.947 651.888 432.273 653.76C431.514 654.641 430.996 655.472 431.151 655.638C431.335 655.902 456.867 663.475 459.321 663.96L460.343 664.189L458.767 666.54C457.892 667.816 457.228 668.944 457.346 669.058C457.42 669.164 463.485 672.189 470.791 675.761C478.135 679.385 484.334 682.435 484.632 682.58C484.921 682.771 481.076 686.703 475.209 692.12L465.289 701.34L466.89 701.95C467.753 702.289 469.385 702.72 470.496 702.965C474.786 703.779 474.773 703.592 471.001 708.923C467.913 713.267 467.187 713.969 461.529 718.223L455.403 722.763L457.586 723.476C458.762 723.872 459.744 724.325 459.72 724.459C459.696 724.593 456.973 728.449 453.622 732.977L447.616 741.234L442.032 744.3C438.961 745.968 436.46 747.553 436.51 747.793C436.514 748.025 437.177 749.483 437.93 750.958L439.288 753.696L425.84 765.333L418.629 766.907C414.641 767.764 410.592 768.702 409.58 768.937L407.706 769.341L409.244 772.619C410.083 774.386 410.596 775.91 410.393 776.012C410.047 776.135 382.317 782.907 379.431 783.545L377.842 783.907L380.204 786.455C381.526 787.847 382.452 789.121 382.197 789.26C381.985 789.407 373.621 790.451 363.635 791.528C353.648 792.605 345.397 793.531 345.292 793.604C345.142 793.67 345.942 794.876 347.077 796.28L349.117 798.817L332.257 797C322.968 795.984 315.238 795.294 315.079 795.404C314.876 795.506 315.686 797.176 316.769 799.125L318.829 802.589L317.467 802.715C313.425 803.1 308.362 801.963 293.596 797.473C285.454 794.953 278.213 792.825 277.586 792.713C276.459 792.558 274.407 794.731 252.709 819.167C239.688 833.838 228.931 846.188 228.806 846.628C228.673 847.112 222.262 858.67 214.592 872.357C206.877 886.037 200.567 897.289 200.551 897.379C200.503 897.647 207.637 897.538 208.006 897.281C208.181 897.081 210.86 895.02 213.871 892.648L219.403 888.325L228.858 887.384C234.03 886.878 238.349 886.496 238.385 886.549C238.422 886.601 237.893 887.754 237.278 889.122C236.627 890.438 236.179 891.651 236.244 891.801C236.362 891.915 239.701 891.589 243.73 891.016C249.976 890.194 252.945 890.124 263.387 890.376C270.188 890.577 275.822 890.846 275.933 891.005C276.051 891.118 275.329 892.052 274.323 893.027L272.567 894.837L274.716 895.222C275.88 895.43 283.77 896.519 292.205 897.659C300.64 898.799 308.53 899.888 309.694 900.096L311.842 900.481L306.166 904.316C303.008 906.476 300.902 908.178 301.418 908.132C301.926 908.131 305.738 908.258 309.916 908.405L317.523 908.751L330.331 914.369C337.396 917.482 343.652 920.218 344.165 920.449C345.496 921.01 345.135 921.223 338.675 923.762C335.851 924.828 333.641 925.818 333.714 925.924C333.788 926.029 342.903 930.34 354.033 935.52C365.127 940.647 374.242 944.958 374.316 945.063C374.397 945.124 372.467 945.841 370.057 946.657C367.611 947.421 365.628 948.175 365.596 948.354C365.564 948.533 371.484 953.658 378.745 959.808C387.613 967.309 391.711 970.999 391.186 971.09C390.715 971.144 387.721 971.347 384.46 971.503C381.153 971.65 378.474 971.91 378.449 972.044C378.425 972.178 383.689 979.681 390.116 988.685C396.588 997.697 401.896 1005.21 401.962 1005.36C401.975 1005.54 400.198 1005.92 397.974 1006.21C395.742 1006.55 393.831 1006.9 393.718 1007.02C393.604 1007.14 395.281 1015.06 397.455 1024.6C399.629 1034.14 401.323 1041.97 401.262 1042.05C401.156 1042.13 394.334 1041.78 386.055 1041.32C377.829 1040.82 370.373 1040.4 369.49 1040.43L367.973 1040.39L369.601 1042.39C370.471 1043.47 371.458 1044.66 371.768 1045C372.197 1045.44 371.018 1045.83 366.55 1046.79L360.794 1047.98L349.888 1044.64C343.936 1042.79 338.982 1041.3 338.929 1041.34C338.877 1041.37 339.899 1043.4 341.305 1045.87C342.666 1048.34 343.575 1050.48 343.409 1050.64C343.198 1050.79 340.478 1051.27 337.392 1051.73L331.736 1052.62L306.18 1045.18L305.949 1048.28C305.831 1049.97 305.538 1051.35 305.359 1051.31C305.225 1051.29 297.897 1047.58 289.18 1043.11C280.419 1038.63 273.218 1034.98 273.112 1035.06C273.059 1035.09 273.816 1036.8 274.876 1038.88L276.753 1042.59L275.1 1042.02C274.147 1041.66 271.186 1040.39 268.495 1039.17C265.795 1038 263.518 1037.03 263.465 1037.07C263.36 1037.14 268.166 1041.01 274.105 1045.77C280.008 1050.47 284.827 1054.52 284.742 1054.74C284.702 1054.96 282.938 1055.52 280.861 1056.03C278.784 1056.54 276.931 1057.08 276.728 1057.18C276.517 1057.33 280.912 1061.17 286.436 1065.67C291.952 1070.21 296.445 1074.02 296.421 1074.15C296.389 1074.33 295.015 1074.78 293.373 1075.18L290.426 1075.9L291.947 1077.46C292.767 1078.3 296.956 1082.52 301.182 1086.79C305.452 1091.06 308.908 1094.73 308.884 1094.86C308.852 1095.04 307.812 1095.69 306.541 1096.34C305.269 1096.99 304.238 1097.59 304.214 1097.72C304.19 1097.86 307.697 1100.98 311.982 1104.66C316.275 1108.29 319.781 1111.41 319.749 1111.59C319.725 1111.73 317.099 1113.75 313.961 1116.05C308.38 1120.14 308.124 1120.27 301.182 1122.4C297.13 1123.62 294.396 1124.7 294.73 1124.9C295.064 1125.1 297.056 1126.1 299.129 1127.17C302.229 1128.69 302.791 1129.16 302.182 1129.47C301.731 1129.66 295.598 1132.95 288.495 1136.77C278.126 1142.3 275.738 1143.77 276.361 1144.16C276.777 1144.42 278.508 1145.33 280.211 1146.14C281.905 1147 283.241 1147.79 283.12 1147.95C282.998 1148.12 281.415 1149.22 279.531 1150.45C276.811 1152.23 274.324 1153.22 267.037 1155.47L257.897 1158.27L250.648 1157.99C246.613 1157.82 243.07 1157.74 242.769 1157.87C242.379 1157.99 243.264 1158.98 244.96 1160.34C248.278 1162.97 248.286 1162.92 243.228 1165.11C236.074 1168.18 235.122 1168.33 223.955 1167.49L213.78 1166.77L212.186 1175.68L201.588 1173.46C195.792 1172.29 188.499 1170.7 185.398 1169.96L179.761 1168.68L177.749 1164.95C176.637 1162.9 175.648 1161.2 175.514 1161.17C175.38 1161.15 174.62 1161.52 173.792 1162.02L172.338 1162.91L172.703 1168.62C172.928 1171.75 173.069 1174.32 173.016 1174.35C172.963 1174.39 167.908 1170.11 161.78 1164.86C155.652 1159.6 150.425 1155.25 150.202 1155.21C149.978 1155.17 149.647 1155.99 149.462 1157.02C148.893 1160.2 148.354 1160.89 146.188 1161.38L144.208 1161.85L141.212 1157.94C139.187 1155.32 136.477 1150.58 132.927 1143.57L127.631 1133.15L126.736 1137.38C125.712 1142.33 126.253 1142.15 120.25 1139.55L116.174 1137.8L111.277 1123.34C108.591 1115.38 106.197 1108.62 106.013 1108.36C105.83 1108.09 104.948 1108.63 103.821 1109.77C102.762 1110.78 101.74 1111.84 101.468 1112.07C101.014 1112.54 101.153 1112.8 96.3598 1103.44L92.8674 1096.63L91.6936 1080.98C90.4703 1065.1 90.4685 1061.5 91.8546 1049.37L92.3071 1045.29L98.4565 1040.62C102.357 1037.66 107.352 1033.25 111.923 1028.61C119.906 1020.66 119.537 1020.92 132.657 1014.21L141.15 1009.87L141.479 1011.13C141.729 1012.05 142.003 1012.33 142.759 1012.23C143.328 1012.15 151.358 1010.91 160.632 1009.43C169.898 1007.99 177.545 1006.82 177.574 1006.91C177.611 1006.97 176.418 1007.96 174.953 1009.17C173.451 1010.33 172.347 1011.34 172.527 1011.37C173.019 1011.46 204.491 1010.62 205.113 1010.5C205.967 1010.38 205.789 1010.86 203.919 1014.08C203.04 1015.63 202.336 1016.98 202.418 1017.04C202.528 1017.2 223.455 1019.79 228.951 1020.31L231.99 1020.63L231.839 1023.28C231.77 1024.7 231.761 1026.04 231.827 1026.19C231.884 1026.38 233.873 1026.37 236.252 1026.24C238.632 1026.11 241.381 1026.23 242.35 1026.5C243.759 1026.89 243.159 1026.37 239.353 1023.89C236.742 1022.22 231.241 1018.88 227.188 1016.49L219.732 1012.2L213.347 1002.18C209.801 996.698 206.783 992.138 206.649 992.114C206.478 992.038 206.07 993.027 205.674 994.204L204.952 996.431L202.865 994.671C201.695 993.723 198.763 991.258 196.313 989.202C192.73 986.251 191.498 984.875 190.092 982.406C189.147 980.713 184.589 972.366 179.921 963.862L171.507 948.404L171.649 945.288C171.919 938.36 173.729 937.021 154.917 957.724C145.643 967.983 132.763 982.125 126.316 989.24L114.535 1002.15L84.4987 1028C67.9546 1042.23 54.2959 1054.01 54.0767 1054.2C53.9024 1054.4 61.7588 1055.16 71.5067 1055.94C81.2626 1056.67 89.3061 1057.41 89.3796 1057.52C89.6001 1057.83 89.2437 1065.76 89.0246 1065.95C88.8215 1066.06 82.7283 1066.03 53.1241 1065.72C40.4373 1065.62 40.0184 1065.64 38.7645 1066.71C38.0991 1067.33 29.0611 1074.72 18.6797 1083.16L-0.14312 1098.5L-11.3999 1100.74C-17.5831 1101.99 -22.7909 1102.95 -22.9987 1102.82C-23.2145 1102.74 4.29307 1071.39 5.24305 1070.73C5.3486 1070.66 5.50261 1073.41 5.61797 1076.9C5.74134 1080.34 5.96886 1083.2 6.10315 1083.22C6.23744 1083.25 17.1428 1076 30.3336 1067.09L54.2875 1050.96L108.18 994.033L114.71 981.296C121.062 969.035 121.247 968.514 121.007 966.762L120.684 964.948L115.931 969.826L111.169 974.749L112.182 967.538C112.708 963.567 113.648 957.545 114.212 954.134C114.813 950.777 115.175 947.978 115.085 947.962C115.041 947.954 106.143 942.943 95.36 936.855L75.7769 925.727L65.1647 910.938C59.3257 902.779 53.6865 894.794 52.6286 893.218L50.652 890.324L54.0466 889.684C55.9206 889.28 57.3837 888.849 57.2735 888.691C57.1184 888.524 52.2741 884.1 46.4227 878.849L35.8373 869.331L28.2466 851.341L29.4665 851.236C30.17 851.177 31.5611 851.149 32.6307 851.11L34.5301 851.08L28.8988 831.177C25.8221 820.232 23.4177 811.208 23.5233 811.135C23.6288 811.061 25.7441 811.117 28.2014 811.325C30.7116 811.497 33.1769 811.662 33.6934 811.615C34.6655 811.605 34.5458 810.983 31.9181 800.626C30.4208 794.537 28.2992 786.257 27.1816 782.176C26.1167 778.059 25.2451 774.669 25.2531 774.624C25.2691 774.535 26.2874 775.04 27.4607 775.712C30.1046 777.202 33.8488 777.964 35.1649 777.322C36.1804 776.811 35.7364 779.55 40.2561 747.327C41.3015 739.937 42.2568 733.825 42.4151 733.715C42.5287 733.597 44.4356 734.816 46.5471 736.441C48.7113 738.029 50.5735 739.241 50.679 739.167C50.7926 739.049 53.5564 732.383 56.8452 724.332C60.134 716.282 62.9298 709.436 63.0674 709.184C63.2658 708.85 64.3863 709.558 66.3922 711.257C68.4348 713.009 69.5106 713.71 69.709 713.375C69.8546 713.078 72.8597 706.871 76.3703 699.646C79.8891 692.375 82.8093 686.384 82.9068 686.355C82.9676 686.274 85.2727 687.333 88.0222 688.749C90.7269 690.157 93.0768 691.225 93.1824 691.151C93.2879 691.077 92.6551 690.225 91.8145 689.243C90.5088 687.762 89.7469 685.824 87.3534 677.773C85.8094 672.461 84.532 667.982 84.5481 667.892C84.5721 667.758 85.728 668.011 87.0916 668.394C89.1107 668.986 89.5216 669.014 89.394 668.436C87.6271 660.497 83.7604 641.834 83.866 641.761C83.9187 641.724 84.6637 641.95 85.4742 642.326C86.2847 642.702 87.4372 643.231 88.0399 643.478L89.2005 643.963L88.3545 632.169C87.9461 625.675 87.6588 620.31 87.7644 620.237C87.8779 620.119 88.8594 620.571 89.9512 621.183C91.043 621.794 92.0325 622.202 92.1301 622.173C92.1908 622.092 91.5991 618.428 90.7327 613.977C89.0493 605.314 89.0332 605.403 91.3433 597.917C91.8876 596.166 91.8876 596.166 93.6094 596.613C94.5782 596.879 95.4 596.933 95.432 596.754C95.6323 595.635 103.171 571.067 103.321 571.002C103.427 570.928 107.957 573.494 113.339 576.721ZM249.316 773.332L244.964 785.258L236.095 797.9C230.01 806.604 227.511 810.5 228.08 810.417C228.784 810.358 228.85 812.31 228.801 827.039C228.81 836.28 228.787 843.899 228.86 844.004C228.97 844.163 269.111 790.503 269.183 790.1C269.199 790.011 267.538 789.483 265.511 788.935C263.484 788.387 261.652 787.782 261.46 787.563C260.979 787.154 254.357 761.945 254.493 761.184C254.549 760.871 254.415 760.847 254.151 761.031C253.879 761.259 251.735 766.789 249.316 773.332ZM141.956 778.464C143.116 781.536 143.86 783.055 147.07 789.127C148.759 792.34 150.043 794.972 149.938 795.046C149.832 795.119 147.837 794.392 145.5 793.512C143.171 792.587 141.168 791.905 141.07 791.934C141.009 792.015 142.198 795.185 143.729 799.016L146.502 805.98L157.021 817.934C162.827 824.471 167.948 830.192 168.339 830.585C169.041 831.312 169.046 831.543 167.908 834.805C166.669 838.371 163.492 847.088 162.837 848.681C162.498 849.544 162.661 849.665 164.464 850.173C166.544 850.684 166.544 850.684 169.819 848.129C171.593 846.737 173.108 845.76 173.149 846.045C173.224 846.659 168.352 860.201 162.949 874.387C160.178 881.606 158.528 886.439 158.804 886.442C159.073 886.49 161.174 885.85 163.486 885.063C165.807 884.231 167.733 883.79 167.746 883.977C167.796 884.217 165.305 892.457 162.257 902.259L156.668 920.062L153.44 923.642C151.66 925.587 145.534 931.421 139.805 936.586L129.398 945.95L125.176 955.081L125.435 967.831C125.568 974.831 125.788 980.83 125.911 981.176C125.989 981.513 131.899 975.595 139.82 967.218C153.427 952.884 153.723 952.521 163.189 939.385C170.571 929.111 172.848 925.684 173.088 924.341C173.353 922.863 174.394 921.433 178.684 916.564C182.208 912.621 189.409 903.1 200.22 888.126L216.489 865.629L219.593 839.25C221.315 824.729 222.661 812.819 222.587 812.714C222.514 812.608 215.594 812.294 207.283 812.008L192.126 811.513L176.405 803.848C167.737 799.617 160.581 795.98 160.381 795.806C160.234 795.595 160.751 794.255 161.569 792.784C162.378 791.359 162.932 790.072 162.858 789.966C162.785 789.861 160.647 789.155 158.136 788.474L153.516 787.185L147.53 781.91C144.252 779.06 141.492 776.671 141.402 776.655C141.313 776.639 141.579 777.473 141.956 778.464Z" fill="url(#paint0_linear_12_100)"/>
<path d="M705.565 82.098C694.653 79.2185 686.133 90.9783 678.894 85.7535C683.072 75.0346 707.12 68.6055 706.091 65.3637C701.306 68.6016 698.123 69.5955 694.865 69.5461L695.843 63.1843C700.071 55.8513 714.321 49.1189 707.403 43.1388C703.793 48.0445 695.531 54.6435 694.51 61.4792L688.633 68.6025C688.108 68.4864 687.569 68.3642 687.003 68.2368C692.661 33.9625 683.22 80.6746 673.665 83.1383C673.544 75.6034 678.829 64.0175 675.239 59.083C667.228 70.1949 669.946 95.6132 654.836 97.2544C654.629 85.2973 664.805 75.7501 661.118 66.4017C650.082 80.0152 651.172 109.803 635.222 116.861C637.036 98.6697 642.107 97.4002 644.381 78.9491C624.669 83.8953 632.791 125.97 612.733 130.454C613.787 113.672 623.36 96.715 622.939 85.2205C603.622 96.5063 611.239 143.718 586.059 147.183C592.238 132.178 597.339 115.734 600.711 96.9825C575.054 101.27 585.808 165.727 559.647 162.082C565.273 145.593 575.525 123.708 573.517 104.299C549.828 113.392 556.59 174.706 531.667 174.889C538.335 151.598 543.506 139.771 547.89 113.707C516.229 117.971 533.582 187.615 499.765 189.002C507.94 160.787 515.183 141.317 517.821 115.008C483.69 128.207 500.871 203.656 460.279 203.899C470.159 180.025 479.262 155.113 483.043 123.107C457.022 131.62 451.264 180.841 440.405 212.262C434.167 211.313 426.011 219.073 421.579 213.304C433.588 189.363 441.534 160.006 445.39 125.192C417.465 138.799 413.799 184.765 401.967 219.837C395.987 222.758 390.167 225.893 380.787 224.278C393.355 196.723 402.586 153.104 408.261 123.616C377.636 142.806 372.256 182.448 361.699 227.151C355.578 230.61 349.326 233.896 340.256 233.422C351.938 201.781 359.106 164.12 368.254 129.099C337.363 143.571 329.53 188.12 320.907 238.125C310.448 237.98 305.283 244.893 293.974 243.611C311.453 217.121 314.102 173.955 324.587 134.059C292.995 145.727 279.986 200.944 272.269 251.713C261.766 252.231 256.872 260.234 245.074 259.028C261.106 229.554 268.073 176.375 271.768 137.709C235.639 159.522 224.502 214.908 223.109 268.96C213.546 270.773 202.311 281.853 192.253 275.753C211.97 246.867 213.882 188.846 224.44 142.145C184.602 160.265 173.902 226.21 165.58 292.482C156.383 294.743 151.296 302.489 139.954 301.89C165.123 264.207 155.597 203.062 167.176 150.763C123.681 162.023 111.709 258.172 113.542 316.789C102.099 324.046 94.0869 335.883 77.1931 335.87C102.226 279.818 96.3676 212.304 96.8373 159.378C50.6206 193.403 42.801 295.157 47.38 361.489C14.0876 390.54 -30.1019 416.19 -61.9328 446.709C-69.866 454.315 -82.8803 462.67 -81.809 468.146L-48.864 472.859C-7.65502 441.371 26.5852 400.588 68.558 370.121C112.456 406.625 165.654 459.647 245.299 453.304C201.839 416.912 158.439 370.643 93.4014 353.13C105.309 344.311 115.838 333.654 130.536 328.559C166.249 369.121 211.502 422.598 284.266 415.921C235.748 386.935 216.065 336.332 150.409 320.195C175.537 288.409 195.154 315.21 212.377 330.928C239.12 355.332 270.044 389.178 318.263 387.165C284.105 352.86 255.464 314.419 204.801 292.489C214.437 286.453 224.351 280.787 236.704 278.376C267.596 311.005 295.069 354.126 355.921 358.933C337.876 337.997 320.61 323.161 303.636 306.628C297.608 300.756 293.568 291.465 286.121 285.445C277.795 278.71 265.698 278.564 260.762 266.876C266.901 261.26 277.875 262.093 286.126 259.298C310.496 289.881 336.651 335.28 387.302 335.406C357.281 309.982 340.781 274.423 303.646 254.333C310.942 248.808 321.38 247.475 331.103 245.186C354.965 273.048 368.304 308.8 413.714 320.507C401.215 293.927 375.023 263.46 350.453 240.484C385.489 227.741 389.924 264.398 411.63 282.854C425.258 294.441 438.739 298.998 455.03 305.872C441.505 275.707 417.084 253.711 392.813 231.602C401.946 232.886 405.499 226.728 415.562 229.253C440.04 248.908 463.126 285.6 501.054 284.44C480.982 262.451 459.395 241.599 435.174 222.72C478.052 201.433 488.537 271.097 535.834 263.267C516.807 244.394 504.043 224.863 474.136 211.484C508.792 186.111 525.088 250.376 570.615 242.095C552.157 225.975 533.124 210.29 511.792 196.325C540.981 172.457 562.449 233.194 598.074 219.874C582.196 205.635 563.462 193.536 541.602 183.78C563.18 152.734 589.231 211.747 621.872 197.131C604.404 187.351 590.077 175.216 570.106 167.313C587.546 137.578 619.442 187.799 647.501 174.649C635.753 159.829 605.63 164.653 598.872 149.015C613.465 132.586 649.164 163.641 667.901 149.551C652.76 144.018 634.754 140.632 621.622 133.593C630.485 116.353 669.101 138.804 682.285 127.329C670.07 123.023 651.166 122.024 642.281 119.738C652.997 103.518 685.079 115.799 697.194 101.446C683.14 97.2666 671.258 107.485 661.633 101.962C669.441 86.2224 695.596 94.9546 705.565 82.098ZM-18.5229 417.432C-17.4956 418.802 -19.1802 416.555 -18.5229 417.432V417.432ZM129.228 324.637C130.255 326.007 128.571 323.76 129.228 324.637V324.637ZM462.38 150.035C461.723 149.159 463.408 151.405 462.38 150.035V150.035ZM457.141 199.714C456.484 198.838 458.169 201.085 457.141 199.714V199.714ZM493.492 167.56C492.835 166.683 494.52 168.93 493.492 167.56V167.56Z" fill="url(#paint1_linear_12_100)"/>
</g>
<defs>
<linearGradient id="paint0_linear_12_100" x1="483.041" y1="691.597" x2="53.8604" y2="614.785" gradientUnits="userSpaceOnUse">
<stop stop-color="#4F772D"/>
<stop offset="1" stop-color="#90A955"/>
</linearGradient>
<linearGradient id="paint1_linear_12_100" x1="648.982" y1="34.7816" x2="573.577" y2="561.9" gradientUnits="userSpaceOnUse">
<stop stop-color="#4F772D"/>
<stop offset="1" stop-color="#90A955"/>
</linearGradient>
<clipPath id="clip0_12_100">
<rect width="741" height="1205" fill="white"/>
</clipPath>
</defs>
</svg>
