<svg width="741" height="1205" viewBox="0 0 741 1205" fill="none" xmlns="http://www.w3.org/2000/svg">
<g clip-path="url(#clip0_12_100)">
<path d="M0 765.124C1.79337 763.701 3.52288 762.337 5.09591 761.097C8.45826 758.445 11.1056 756.357 12.1334 755.467L16.0001 752.533L11.3334 754.4C9.97941 754.97 5.6927 756.835 0 759.364V765.124Z" fill="url(#paint0_linear_12_100)"/>
<path d="M0 752.888C4.93307 750.332 10.2795 746.096 18.1334 739.2C26.0001 732.267 32.5334 726.133 32.5334 725.6C32.7788 723.882 13.383 730.518 0 736.678V752.888Z" fill="url(#paint1_linear_12_100)"/>
<path d="M0 720.777L5.60006 719.733C19.3334 717.2 23.6001 714.133 33.7334 698.8C37.9222 692.627 41.7465 686.819 43.2473 684.539C43.5618 684.061 43.7743 683.739 43.8667 683.6C45.4667 680.8 33.3334 686.533 22.9334 693.467C20.2667 695.267 17.6667 697 15.6167 698.367C13.5667 699.733 12.0667 700.733 11.6001 701.067C10.5334 701.6 12.0001 698.667 14.8001 694.4C16.4544 691.67 18.2114 688.889 19.4979 686.853C20.2852 685.607 20.8964 684.639 21.2001 684.133C22.0001 682.933 23.8667 681.867 25.4667 681.867C30.0001 681.867 37.0667 678.4 40.8001 674.267C46.8001 667.867 58.1334 649.467 55.6001 650.533C51.4667 652.133 36.8001 660.533 36.0001 661.867C35.6001 662.667 34.6667 663.2 33.8667 663.2C33.2001 663.2 34.9334 658.667 37.6001 653.2C41.7334 644.8 43.2001 643.2 46.6667 642.4C56.0001 640.4 60.5334 636.667 68.6667 624.4C73.0667 617.733 76.6667 612.133 76.6667 611.733C76.6667 610.8 63.0667 618 56.6667 622.267C53.4667 624.533 48.5334 628.4 45.7334 630.933C41.0667 635.2 40.6667 635.333 40.6667 632.667C40.6667 628.667 44.2667 620.533 46.0001 620.533C48.5334 620.533 56.6667 613.467 59.6001 608.8C62.1334 604.667 62.2667 603.733 60.6667 594C59.7334 588.267 59.4667 582.267 60.0001 580.667C61.2001 576.8 60.0001 577.2 56.9334 581.467C51.6001 589.067 47.0667 599.733 44.8001 610.4C40.1334 631.733 36.8001 632.8 32.6667 614.133C29.6001 600.4 27.3334 592.133 26.6667 592.8C26.5334 593.067 27.0667 601.867 28.0001 612.533C30.1334 637.333 28.1334 651.733 20.2667 666.533L18.4001 670.267L17.4667 663.733C15.7334 651.867 8.26672 629.733 6.53339 631.467C6.26672 631.867 6.66672 638.667 7.46672 646.667C9.98638 671.863 8.15341 684.661 0 698.573V720.777Z" fill="url(#paint2_linear_12_100)"/>
<path d="M0 948.361C11.0918 946.537 18.0681 943.256 41.3972 930.262C55.325 922.509 70.5058 913.562 75.0829 910.549L83.4017 904.853L66.5647 909.382C50.4655 913.634 27.2554 921.147 14.1352 926.429C10.793 927.753 8.17045 928.301 8.4457 927.644C8.67657 927.137 11.1644 924.253 13.9546 921.458C18.3354 917.158 19.7486 916.257 24.389 914.984C27.4026 914.221 34.7091 910.854 41.3484 906.964C47.7479 903.333 55.5432 899.699 58.5035 898.838C62.7971 897.628 107.489 876.198 108.048 875.131C108.093 874.98 102.243 875.901 94.9621 877.226C87.6811 878.551 81.4756 879.287 81.2086 878.799C80.9416 878.312 79.5547 878.564 78.0348 879.27C74.3195 881.304 50.3158 884.814 51.853 883.212C59.2015 875.512 59.5926 875.298 66.7946 875.917C74.299 876.625 84.5763 875.434 92.0167 873.008C97.4837 871.155 139.304 850.283 138.93 849.6C138.77 849.308 124.697 851.69 107.566 854.986C90.479 858.131 76.5571 860.557 76.6459 860.255C76.779 859.802 93.7871 843.517 98.0882 839.767C99.7766 838.209 102.061 837.972 107.263 838.419C121.027 839.882 130.841 836.917 158.218 823.32L172.226 816.41L144.053 820.429C128.53 822.717 115.577 824.359 115.275 824.271C114.972 824.183 118.1 821.076 122.108 817.487L129.59 810.728L134.508 811.585C149.908 814.18 161.5 810.748 195.543 794.008L206.512 788.509L200.608 789.333C198.92 789.583 194.087 790.335 187.798 791.312L187.734 791.322C182.217 792.18 175.586 793.212 168.977 794.231L143.249 798.305L146.626 795.188C148.456 793.425 152.215 789.846 154.916 787.353L159.884 782.731L164.81 783.836C171.693 785.265 183.339 784.718 191.331 782.37C197.501 780.64 228.798 766.544 237.25 761.789C239.641 760.353 237.499 760.386 228.777 761.865C174.867 771.104 172.832 771.331 175.213 768.253C176.457 766.811 178.092 765.155 178.82 764.629C179.602 764.201 183.219 760.826 186.827 757.202L193.42 750.676L201.397 753.407C205.888 754.878 212.468 756.218 216.202 756.075C224.328 756.062 230.657 753.23 251.286 740.54L265.427 731.783L254.269 732.061C240.417 732.294 228.717 734.137 214.503 738.118L203.551 741.326L214.071 730.368C214.956 729.449 215.785 728.586 216.564 727.776C225.292 718.694 227.633 716.258 230.216 715.962C231.163 715.854 232.143 716.033 233.481 716.278C233.772 716.331 234.079 716.387 234.406 716.444C250.714 719.303 256.012 716.909 274.504 698.924C282.261 691.507 289.094 684.723 289.716 684.002C292.586 680.656 267.758 687.533 249.438 695.157L246.344 696.47L249.179 693.524C250.716 691.921 255.177 687.07 259.006 682.691L266.052 674.903L270.8 675.219C283.799 676.214 288.59 673.59 304.433 656.802L316.287 644.1L308.339 646.297C303.895 647.463 296.41 650.04 291.69 651.865L282.934 655.138L291.712 644.246C296.679 638.231 300.765 632.697 300.987 631.942C301.254 631.036 303.432 630.604 306.579 630.782C309.478 630.969 314.492 630.378 317.745 629.357L318.061 629.259C319.286 628.88 320.261 628.578 321.195 628.18C324.824 626.633 327.835 623.63 342.545 608.957L343.446 608.058L352.874 598.586L346.74 599.917C335.361 602.345 327.396 605.438 314.491 612.505C313.567 613.003 312.703 613.471 311.897 613.908C306.102 617.048 303.304 618.564 302.663 617.925C302.064 617.328 303.345 614.853 305.822 610.068C306.2 609.337 306.606 608.553 307.037 607.713C309.311 603.046 310.794 601.346 313.115 600.709C315.826 599.858 316.333 600.088 316.921 602.555C317.616 605.216 317.767 605.26 321.553 602.427C325.579 599.335 335.619 587.499 337.662 583.338C338.363 582.066 339.258 576.506 339.709 571.062C340.115 565.769 341.47 557.801 342.757 553.42C344.833 546.072 344.869 545.672 342.549 547.703C331.015 558.202 318.64 577.148 312.142 594.523C309.23 602.202 304.033 608.725 301.312 607.933C299.044 607.273 298.784 602.852 300.178 584.976C301.219 569.701 301.451 555.504 300.473 556.039C300.18 556.2 297.715 569.338 295.057 585.371C289.935 614.543 287.592 622.798 280.656 636.357C276.793 643.923 267.652 657.168 266.54 656.763C266.14 656.728 266.431 652.386 267.086 647.083C268.378 637.375 267.803 610.563 266.092 604.655C265.46 602.339 263.775 609.473 260.336 628.723C254.974 659.547 251.77 668.78 241.464 682.917C231.017 697.258 230.865 697.214 232.61 684.85C234.195 673.587 234.384 660.934 232.99 650.035C232.124 642.65 231.027 637.166 230.538 637.434C230.343 637.541 228.09 648.281 225.475 661.376C218.861 694.787 215.195 705.034 205.263 718.459C201.109 724.004 199.017 726.798 198.125 726.458C197.22 726.114 197.551 722.542 198.219 715.344C198.962 708.345 199.357 698.622 199.229 693.748C198.869 685.199 196.92 667.251 196.236 667.626C196.041 667.733 193.372 680.73 190.251 696.383C184.098 727.386 181.941 733.891 173.511 746.113C168.207 753.835 153.359 769.191 152.611 767.825C152.398 767.435 151.793 752.174 151.223 733.726C150.608 715.428 149.968 700.567 149.675 700.728C149.479 700.835 147.824 712.897 146.16 727.498C142.604 758.601 139.516 769.672 130.694 782.109C127.47 786.663 123.747 791.237 122.396 792.484L120.032 794.666L119.927 782.173C119.826 775.257 119.751 769.087 119.875 768.385C120.238 766.031 119.002 734.763 118.467 731C117.842 726.145 117.549 727.7 114.399 754.904C111.48 780.207 109.228 790.948 104.414 801.189C101.777 806.817 94.4565 816.657 93.1937 816.207C92.7936 816.173 92.3863 803.593 92.2355 788.464C91.8977 757.211 91.4445 741.994 90.8571 740.922C90.6435 740.532 89.784 745.692 88.9343 752.496C85.013 783.165 82.5676 798.194 80.1717 806.352C77.4208 815.717 72.0662 827.523 67.5177 834.07C64.1064 838.98 54.7589 849.296 54.003 849.076C53.7007 848.988 53.5012 842.125 53.4964 833.762C53.5847 816.981 52.9485 792.61 52.0819 785.225C51.4379 778.479 50.9235 780.789 47.4797 806.76C44.0095 833.379 40.4262 848.651 35.5154 858.946C31.8032 866.556 26.6862 873.922 25.4768 873.57C25.1745 873.482 24.7072 864.738 24.5677 854.039C24.151 824.732 23.0153 797.592 22.4114 798.81C21.985 799.424 20.4361 811.681 18.7194 826.185C15.0651 857.341 11.3413 875.606 6.1905 886.159C3.73379 891.2 1.60045 894.942 0 897.083V948.361Z" fill="url(#paint3_linear_12_100)"/>
<path d="M705.565 82.098C694.653 79.2185 686.133 90.9783 678.894 85.7535C683.072 75.0346 707.12 68.6055 706.091 65.3637C701.306 68.6016 698.123 69.5955 694.865 69.5461L695.843 63.1843C700.071 55.8513 714.321 49.1189 707.403 43.1388C703.793 48.0445 695.531 54.6435 694.51 61.4791L688.633 68.6025C688.108 68.4864 687.569 68.3642 687.003 68.2368C692.661 33.9625 683.22 80.6746 673.665 83.1383C673.544 75.6034 678.828 64.0175 675.239 59.083C667.228 70.1949 669.946 95.6132 654.836 97.2544C654.629 85.2973 664.804 75.7501 661.118 66.4017C650.082 80.0152 651.172 109.803 635.222 116.861C637.036 98.6697 642.107 97.4002 644.381 78.9491C624.669 83.8953 632.791 125.97 612.733 130.454C613.787 113.672 623.36 96.715 622.939 85.2205C603.622 96.5063 611.239 143.718 586.059 147.183C592.238 132.178 597.34 115.734 600.711 96.9825C575.054 101.27 585.808 165.727 559.647 162.082C565.273 145.593 575.525 123.708 573.517 104.299C549.828 113.392 556.59 174.706 531.667 174.889C538.335 151.598 543.506 139.771 547.89 113.707C516.229 117.971 533.582 187.615 499.765 189.002C507.94 160.787 515.183 141.317 517.821 115.008C483.69 128.207 500.871 203.656 460.279 203.899C470.159 180.025 479.262 155.113 483.043 123.107C457.022 131.62 451.264 180.841 440.405 212.262C434.167 211.313 426.011 219.073 421.579 213.304C433.588 189.363 441.534 160.006 445.39 125.192C417.465 138.799 413.799 184.765 401.967 219.837C395.987 222.758 390.167 225.893 380.787 224.278C393.355 196.723 402.586 153.104 408.261 123.616C377.636 142.806 372.256 182.448 361.699 227.151C355.578 230.61 349.326 233.896 340.256 233.422C351.938 201.781 359.106 164.12 368.254 129.099C337.363 143.571 329.53 188.12 320.907 238.125C310.448 237.979 305.283 244.893 293.974 243.611C311.453 217.121 314.102 173.955 324.587 134.059C292.995 145.727 279.986 200.944 272.269 251.712C261.766 252.231 256.872 260.234 245.074 259.028C261.106 229.554 268.073 176.375 271.768 137.709C235.639 159.522 224.502 214.908 223.109 268.96C213.546 270.773 202.311 281.853 192.253 275.753C211.97 246.867 213.882 188.846 224.44 142.145C184.602 160.265 173.902 226.21 165.58 292.482C156.383 294.743 151.296 302.489 139.954 301.89C165.123 264.207 155.597 203.062 167.176 150.763C123.681 162.023 111.709 258.172 113.542 316.789C102.099 324.046 94.0869 335.883 77.1931 335.87C102.226 279.818 96.3676 212.304 96.8373 159.378C50.6206 193.403 42.801 295.157 47.38 361.489C14.0876 390.54 -30.1019 416.19 -61.9328 446.709C-69.866 454.315 -82.8803 462.67 -81.809 468.146L-48.864 472.859C-7.65501 441.371 26.5852 400.588 68.558 370.121C112.456 406.625 165.654 459.647 245.299 453.304C201.839 416.912 158.439 370.643 93.4014 353.13C105.309 344.311 115.838 333.654 130.536 328.559C166.249 369.121 211.502 422.598 284.266 415.921C235.748 386.935 216.065 336.332 150.409 320.195C175.537 288.409 195.154 315.21 212.377 330.928C239.12 355.332 270.044 389.178 318.263 387.165C284.105 352.86 255.464 314.419 204.801 292.489C214.437 286.453 224.351 280.787 236.704 278.376C267.596 311.005 295.069 354.126 355.921 358.933C337.876 337.997 320.61 323.161 303.636 306.628C297.608 300.756 293.568 291.465 286.121 285.445C277.795 278.71 265.698 278.564 260.762 266.876C266.901 261.26 277.875 262.093 286.126 259.298C310.496 289.881 336.651 335.28 387.302 335.406C357.281 309.982 340.781 274.423 303.646 254.333C310.942 248.808 321.38 247.475 331.103 245.186C354.965 273.048 368.304 308.8 413.714 320.507C401.215 293.927 375.023 263.46 350.453 240.484C385.489 227.741 389.924 264.398 411.63 282.854C425.258 294.441 438.739 298.998 455.03 305.872C441.505 275.707 417.084 253.711 392.813 231.602C401.946 232.886 405.499 226.728 415.562 229.253C440.04 248.908 463.126 285.6 501.054 284.44C480.982 262.451 459.395 241.599 435.174 222.72C478.052 201.433 488.537 271.097 535.834 263.267C516.807 244.394 504.043 224.863 474.136 211.484C508.792 186.111 525.088 250.376 570.615 242.095C552.157 225.975 533.124 210.29 511.792 196.325C540.981 172.457 562.449 233.194 598.074 219.874C582.196 205.635 563.462 193.536 541.602 183.78C563.18 152.734 589.231 211.747 621.872 197.131C604.404 187.351 590.077 175.216 570.106 167.313C587.546 137.578 619.442 187.799 647.501 174.649C635.753 159.829 605.63 164.653 598.872 149.015C613.465 132.586 649.164 163.641 667.901 149.551C652.76 144.018 634.754 140.632 621.622 133.593C630.485 116.353 669.101 138.804 682.285 127.329C670.07 123.023 651.166 122.024 642.281 119.738C652.997 103.518 685.079 115.799 697.194 101.446C683.14 97.2666 671.258 107.485 661.633 101.962C669.441 86.2224 695.596 94.9546 705.565 82.098ZM-18.5229 417.432C-17.4956 418.802 -19.1802 416.555 -18.5229 417.432V417.432ZM129.228 324.637C130.255 326.007 128.571 323.76 129.228 324.637V324.637ZM462.38 150.035C461.723 149.159 463.408 151.405 462.38 150.035V150.035ZM457.141 199.714C456.484 198.838 458.169 201.085 457.141 199.714V199.714ZM493.492 167.56C492.835 166.683 494.52 168.93 493.492 167.56V167.56Z" fill="url(#paint4_linear_12_100)"/>
</g>
<defs>
<linearGradient id="paint0_linear_12_100" x1="154.5" y1="578" x2="25.3081" y2="826.055" gradientUnits="userSpaceOnUse">
<stop stop-color="#4F772D"/>
<stop offset="1" stop-color="#90A955"/>
</linearGradient>
<linearGradient id="paint1_linear_12_100" x1="154.5" y1="578" x2="25.3081" y2="826.055" gradientUnits="userSpaceOnUse">
<stop stop-color="#4F772D"/>
<stop offset="1" stop-color="#90A955"/>
</linearGradient>
<linearGradient id="paint2_linear_12_100" x1="154.5" y1="578" x2="25.3081" y2="826.055" gradientUnits="userSpaceOnUse">
<stop stop-color="#4F772D"/>
<stop offset="1" stop-color="#90A955"/>
</linearGradient>
<linearGradient id="paint3_linear_12_100" x1="355.87" y1="567.504" x2="96.4904" y2="1047.71" gradientUnits="userSpaceOnUse">
<stop stop-color="#4F772D"/>
<stop offset="1" stop-color="#90A955"/>
</linearGradient>
<linearGradient id="paint4_linear_12_100" x1="648.982" y1="34.7816" x2="573.577" y2="561.9" gradientUnits="userSpaceOnUse">
<stop stop-color="#4F772D"/>
<stop offset="1" stop-color="#90A955"/>
</linearGradient>
<clipPath id="clip0_12_100">
<rect width="741" height="1205" fill="white"/>
</clipPath>
</defs>
</svg>
