<svg width="50" height="52" viewBox="0 0 50 52" fill="none" xmlns="http://www.w3.org/2000/svg">
<g clip-path="url(#clip0_414_43)">
<mask id="mask0_414_43" style="mask-type:alpha" maskUnits="userSpaceOnUse" x="0" y="0" width="50" height="52">
<path d="M17.6991 34.5045L41.4989 35.9891" stroke="black" stroke-width="1.58974"/>
<path d="M17.996 29.7445L41.7958 31.2291" stroke="black" stroke-width="1.58974"/>
<path d="M21.4663 25.1825L42.0928 26.4692" stroke="black" stroke-width="1.58974"/>
<g style="mix-blend-mode:multiply">
<path d="M13.4628 0.277425L16.6361 0.475377L39.6427 1.91052L37.8756 4.70287L37.2323 15.0162L45.9589 15.5605L45.761 18.7339L37.0343 18.1895L33.8611 17.9916L34.6848 4.78688L16.4382 3.64867L13.7834 46.2065L43.9299 48.087L45.9589 15.5605L37.8756 4.70287L39.6427 1.91052L49.2312 14.1718L46.9053 51.4583L10.4121 49.1819L11.7307 28.0441L13.4628 0.277425Z" fill="black"/>
</g>
<path d="M0.787041 2.91392L3.78519 2.80843L15.8831 2.13608L15.9873 5.15156L3.89068 5.80657L5.38523 48.2803L30.1487 47.2886L30.2542 50.2866L2.49257 51.384L0.787041 2.91392Z" fill="black"/>
</mask>
<g mask="url(#mask0_414_43)">
<path d="M109.485 -46.3851H-49.489V112.589H109.485V-46.3851Z" fill="url(#paint0_linear_414_43)"/>
</g>
</g>
<defs>
<linearGradient id="paint0_linear_414_43" x1="29.9982" y1="-46.3851" x2="29.9982" y2="112.589" gradientUnits="userSpaceOnUse">
<stop offset="0.3" stop-color="#4F772D"/>
<stop offset="0.6" stop-color="#90A955"/>
</linearGradient>
<clipPath id="clip0_414_43">
<rect width="50" height="52" fill="white"/>
</clipPath>
</defs>
</svg>
