<svg width="509" height="506" viewBox="0 0 509 506" fill="none" xmlns="http://www.w3.org/2000/svg">
<path fill-rule="evenodd" clip-rule="evenodd" d="M0.333252 0C0.405642 0.263086 0.478216 0.527108 0.55098 0.792082C6.55776 22.8185 14.6294 58.4862 30.0843 131.574C35.4654 156.917 41.7225 182.948 47.5415 204.161C48.7304 208.604 50.9829 218.491 52.5472 226.062C56.364 244.897 59.2422 252.782 64.4982 258.726L66.563 261.104L65.7496 258.288C64.4982 254.096 63.8725 248.026 64.6859 248.527C65.8747 249.277 68.3775 254.096 71.0055 260.791C74.3218 269.114 76.0737 272.242 85.3968 286.384C95.5332 301.715 98.5992 308.161 100.038 316.858L100.476 319.487L95.7835 322.365C86.4605 328.184 81.8928 336.695 79.7028 352.088C78.7643 358.659 79.3274 367.231 81.0168 373.426C84.7711 386.755 96.5343 400.897 113.741 412.723C118.872 416.29 139.708 427.241 141.272 427.241C141.585 427.241 140.459 425.739 138.707 423.924C135.015 419.982 132.074 414.413 130.76 408.969C129.634 404.088 129.446 380.81 130.573 383.438C138.081 400.709 148.28 417.98 161.107 435.063C175.498 454.211 193.269 473.359 205.595 483.12C249.019 517.349 287.25 513.219 323.103 470.418C332.426 459.279 338.745 450.894 344.689 441.508C351.134 431.308 354.2 427.804 360.958 422.673C367.778 417.479 370.781 414.35 372.471 410.846C374.16 407.154 374.223 406.278 372.596 408.844C371.908 409.907 370.218 411.534 368.904 412.473C366.527 414.163 362.585 415.602 362.022 415.039C361.146 414.1 365.525 403.775 373.535 388.131C378.478 378.495 383.045 368.733 383.796 366.418C384.484 364.04 386.362 356.156 387.926 348.897C392.243 328.685 394.558 322.24 400.127 314.919C401.942 312.541 403.694 309.975 404.069 309.162C404.945 307.284 405.195 307.347 406.947 309.975C409.951 314.293 416.458 319.612 422.34 322.428C429.786 325.994 433.415 326.745 442.049 326.745C447.931 326.745 451.56 326.245 462.072 324.117C477.715 320.988 485.161 320.175 491.105 320.988C496.236 321.614 503.243 324.68 506.685 327.746C507.936 328.81 509 329.561 509 329.311C509 328.685 502.493 319.424 498.488 314.355C487.663 300.777 475.087 289.638 463.323 283.13C459.256 280.94 449.933 277.686 447.618 277.686C446.179 277.686 446.179 277.686 447.368 273.306C449.495 265.735 450.309 259.477 450.559 248.589C450.809 238.577 450.747 237.639 449.996 239.829C447.118 248.527 442.738 252.281 426.532 260.165C421.589 262.606 416.27 265.422 414.831 266.423L412.203 268.238L413.017 262.794C415.394 247.087 415.645 229.942 414.143 201.032C413.58 190.707 413.142 174.25 413.142 164.426C413.079 138.269 414.643 126.255 420.4 109.673C422.277 104.229 424.029 98.4717 424.279 97.0324C424.467 95.5306 424.842 94.4043 425.093 94.5294C430.161 97.2202 431.788 97.5956 437.982 97.3453C448.306 96.9073 454.751 93.716 459.819 86.645C463.011 82.077 466.389 75.5692 468.204 70.2503C469.518 66.3707 471.583 57.2973 471.207 56.9219C471.082 56.8593 470.394 57.7353 469.706 58.9243C468.079 61.6776 464.137 64.556 460.32 65.8075C458.693 66.3707 452.999 67.6847 447.681 68.6859C442.362 69.7497 436.543 71.2515 434.791 72.065C430.787 73.8797 426.845 77.4465 424.717 81.0758C422.652 84.58 421.213 90.5246 422.089 91.651C422.715 92.4019 421.088 95.2178 417.647 99.3477L416.333 100.912L416.708 94.9674C417.271 86.0192 418.085 80.1997 420.775 66.8087C425.979 40.6095 427.238 27.504 426.847 0H405.67C405.255 3.56715 405.133 6.88115 405.133 11.7427C405.133 27.449 403.568 41.4032 397.624 79.4489C390.554 124.503 389.49 133.701 389.49 150.659C389.49 157.73 389.928 169.244 390.429 176.252C390.929 183.323 391.179 189.205 391.054 189.331C390.491 189.894 387.55 188.767 386.299 187.391C384.297 185.388 382.044 180.069 381.043 175.251L380.104 170.996L380.417 178.818C380.668 186.828 380.793 187.578 385.736 204.787C388.552 214.673 388.739 216.488 389.553 234.259C391.305 274.495 389.115 288.512 377.289 313.354C372.471 323.491 369.342 331.188 356.953 362.789C351.948 375.429 345.315 389.884 333.865 412.723C322.414 435.626 314.405 448.141 303.831 459.404C300.014 463.472 296.886 467.038 296.886 467.351C296.886 467.664 296.698 467.915 296.448 467.915C296.135 467.915 295.884 466.788 295.822 465.349C295.572 461.72 294.57 460.155 294.57 463.472C294.57 470.668 284.809 478.052 269.354 482.62C257.278 486.186 245.202 484.497 234.127 477.801C225.618 472.608 221.738 468.978 212.102 457.214C202.404 445.388 198.024 440.569 195.521 439.005L193.957 438.066L195.959 436.815L197.961 435.626L195.146 434.187C187.637 430.62 180.88 421.359 173.371 404.714C170.681 398.707 167.177 391.198 165.612 388.131C162.609 382.062 156.79 372.8 155.976 372.8C155.726 372.8 155.476 372.613 155.476 372.3C155.476 372.05 156.727 371.924 158.229 372.05L161.045 372.3L161.733 369.734C162.734 365.917 161.608 361.162 160.169 363.414C158.98 365.291 153.348 363.039 149.782 359.222C144.463 353.59 140.396 345.768 134.139 329.248C125.192 305.72 112.615 278.688 102.604 261.73C87.2113 235.699 80.4537 220.055 75.0726 197.903C72.3821 186.765 71.9441 184.45 72.6949 184.45C73.0704 184.45 73.5083 185.889 73.6961 187.641C74.2592 192.272 76.5743 196.777 80.6414 201.22C86.5856 207.602 90.7778 209.167 110.05 212.233C123.064 214.298 128.445 216.676 132.387 222.182C134.515 225.123 134.64 224.498 132.95 218.24C129.134 204.286 122.877 192.584 115.243 185.263C108.736 179.006 101.915 176.315 92.5924 176.252C86.3353 176.252 82.1431 177.254 78.4514 179.694C75.5732 181.634 75.3855 181.634 75.3855 180.132C75.3855 178.192 72.3821 169.745 67.8144 158.982C65.4367 153.35 62.6836 145.904 61.6825 142.399C58.6791 132.012 51.6086 94.6546 44.413 51.165C41.0967 31.0784 40.0956 26.1975 35.8408 10.1783C34.8514 6.43181 33.9826 3.07833 33.2096 0H0.333252ZM103.042 318.986C103.042 319.862 103.167 320.175 103.355 319.737C103.48 319.361 103.48 318.611 103.355 318.173C103.167 317.797 103.042 318.11 103.042 318.986Z" fill="url(#paint0_linear_29_22)"/>
<path d="M348.757 136.267C350.071 125.504 352.886 117.495 359.706 105.418C361.396 102.414 362.835 99.9735 362.898 99.9735C362.96 99.9735 362.898 101.913 362.71 104.291C362.209 111.612 365.15 117.87 375.224 131.011C385.736 144.652 387.55 155.04 381.544 166.866C378.853 172.185 377.664 172.873 372.158 172.248C361.771 171.059 351.009 159.295 348.757 146.905C348.131 143.275 348.131 141.148 348.757 136.267Z" fill="url(#paint1_linear_29_22)"/>
<defs>
<linearGradient id="paint0_linear_29_22" x1="-100" y1="434.642" x2="509" y2="434.642" gradientUnits="userSpaceOnUse">
<stop stop-color="#4F772D"/>
<stop offset="1" stop-color="#90A955"/>
</linearGradient>
<linearGradient id="paint1_linear_29_22" x1="-100" y1="434.642" x2="509" y2="434.642" gradientUnits="userSpaceOnUse">
<stop stop-color="#4F772D"/>
<stop offset="1" stop-color="#90A955"/>
</linearGradient>
</defs>
</svg>
