<svg width="630" height="1184" viewBox="0 0 630 1184" fill="none" xmlns="http://www.w3.org/2000/svg">
<g clip-path="url(#clip0_66_23)">
<path fill-rule="evenodd" clip-rule="evenodd" d="M69.2287 295.254C73.7621 283.816 73.5632 283.454 68.6755 283.555C52.3936 279.623 32.5772 290.679 -11.9604 321.803L-24.9413 332.005C-42.5653 346.174 -64.1001 366.497 -86.592 390.641C-100.494 405.586 -107.078 414.152 -111.404 423.829C-121.004 444.881 -125.498 447.506 -154.552 455.019C-207.868 464.87 -228.449 461.606 -264.716 455.367L-283.847 493.929C-244.97 499.126 -219.928 499.882 -143.884 480.406L-82.3423 463.386C-54.8151 456.949 -49.5842 456.189 -38.5978 458.617C-31.4331 460.089 -25.2531 462.337 -24.5573 463.602C-20.382 471.19 -1.01027 480.303 29.8803 488.962C100.064 508.717 151.29 511.13 188.266 496.198C198.538 492.194 198.438 492.014 195.167 488.635C193.152 486.684 186.403 481.689 180.051 477.417C151.489 457.591 107.408 446.775 46.3065 444.383C34.2905 443.933 26.4213 443.32 28.8063 442.949C93.2661 432.196 146.089 421.255 194.413 408.553C214.143 403.346 230.504 399.287 230.784 399.368C231.202 399.489 232.997 400.685 235.415 402.297L235.425 402.304C236.247 402.851 237.14 403.447 238.076 404.064C252.876 414.28 269.301 414.187 309.241 404.215L311.669 403.6C329.881 398.989 336.976 397.192 344.038 397.313C348.544 397.39 353.038 398.248 360.398 399.654C360.992 399.767 361.605 399.884 362.237 400.005L378.789 403.137L367.531 398.504C361.152 395.894 355.794 393.429 355.596 393.067C355.297 392.525 358.568 391.197 362.859 390.012C375.733 386.46 378.108 383.505 366.743 385.522C360.69 386.498 351.773 387.403 346.605 387.422C335.908 387.659 292.694 375.425 299.19 373.969C301.475 373.417 319.335 365.238 338.821 356.164C373.701 339.562 398.697 325.102 427.243 304.688C441.606 294.431 442.148 294.133 456.594 293.01C465.89 292.367 472.377 293.035 474.672 295.067C484.269 304.38 506.439 300.184 542.565 282.425C565.285 271.101 567.11 270.568 581.872 270.448C590.265 270.302 597.258 269.749 597.42 269.189C597.583 268.629 592.939 267.889 587.193 267.285L576.722 266.22L585.258 260.346C591.004 256.244 592.512 254.708 589.666 255.097C587.362 255.187 583.27 256.733 580.741 258.125C571.526 263.195 560.866 264.353 538.098 262.758C502.195 260.388 485.274 264.285 471.354 278.769C466.648 283.477 464.019 284.688 459.05 285.069C453.159 285.485 453.421 285.106 466.547 273.883C494.947 249.782 561.466 181.172 559.676 177.92C559.378 177.378 551.736 184.878 542.622 194.835C533.689 204.693 526.065 212.654 525.505 212.492C524.944 212.329 525.793 205.743 527.508 197.738L530.45 183.409L525.232 200.873C521.999 212.537 518.242 220.254 514.421 224.004C493.609 243.928 454.585 274.815 429.824 290.558C423.672 294.451 416.314 299.25 410.859 302.809C408.729 304.198 406.889 305.399 405.524 306.282C397.71 311.758 397.249 311.776 398.929 307.557C400.121 305.018 404.484 300.97 408.82 298.584C423.816 290.333 430.734 273.816 436.472 232.058C439.152 213.401 440.877 207.98 447.769 197.833C456.133 185.228 456.241 183.286 447.93 192.566C445.275 195.439 442.682 197.572 442.122 197.409C441.381 197.346 441.299 192.919 441.66 188.013C442.958 174.118 441.811 175.455 437.071 193.363C433.026 207.828 430.524 212.264 416.894 229.414C408.277 240.275 399.371 253.178 396.987 258.256C391.351 269.83 389.141 286.345 391.97 294.91C393.751 300.285 393.019 302.806 386.633 311.733L379.019 322.278L347.211 337.19C310.606 354.507 268.959 370.36 255.209 372.748C249.978 373.508 242.778 375.822 238.984 377.909C227.24 384.371 220.184 385.664 208.737 383.254C202.413 382.026 197.606 381.846 197.742 382.949C199.189 391.567 196.1 392.797 155.165 400.962L137.124 404.534L173.566 383.07C227.858 350.844 251.607 332.834 294.242 290.545C354.655 230.942 419.949 133.584 465.62 34.7832C478.21 7.61412 474.561 13.3878 454.231 52.5832C423.605 111.566 379.654 181.411 349.495 219.424C341.763 229.327 313.951 261.342 312.686 262.038C312.325 262.236 313.751 256.273 315.864 248.991C317.877 241.528 319.69 224.29 319.806 210.81C320.253 184.673 320.497 183.833 328.291 168.482C334.044 157.549 333.746 157.007 326.538 166.151C319.673 174.636 319.673 174.636 320.033 165.023C320.328 151.444 317.953 154.399 316.067 169.794C314.822 180.365 312.231 187.204 304.508 199.691C284.728 231.759 279.464 250.425 285.502 267.815C289.461 279.289 283.085 290.8 264.214 306.125C240.701 325.418 232.02 332.313 230.394 333.208C226.599 335.295 231.764 316.448 235.784 313.06C247.22 303.472 248.193 285.99 239.496 252.645C233.52 229.807 233.275 225.94 237.211 208.711L239.721 197.444L235.251 208.142L230.862 218.559L227.472 209.832L224.363 201.187L225.711 214.332C226.77 224.812 225.335 232.898 219.123 253.263C209.542 284.19 209.282 293.983 218.13 310.063C224.094 320.904 224.23 322.006 221.043 332.469L217.774 343.211L173.464 368.769C148.368 383.047 119.442 398.493 106.921 403.97C86.5952 412.8 82.0239 413.903 55.0112 416.997C1.80771 422.969 -77.6851 436.345 -98.9424 442.628C-102.493 443.875 -106.359 444.12 -107.399 443.515C-110.037 442.142 -108.131 441.328 -95.9616 438.634C-86.6202 436.789 -82.1034 434.304 -54.4066 415.769C16.7324 368.389 55.4842 330.591 69.2287 295.254ZM295.243 276.107C294.186 279.748 296.915 278.718 301.061 273.848C303.436 270.893 303.337 270.712 299.786 271.96C297.781 272.592 295.73 274.427 295.243 276.107Z" fill="black" fill-opacity="0.1"/>
<path d="M374.59 395.14C375.627 396.177 376.367 397.954 376.367 399.286C376.367 402.989 368.518 414.243 361.706 420.463C354.302 427.127 354.746 428.904 362.743 425.35C366.001 423.869 369.999 422.98 371.776 423.276C374.738 423.721 374.886 423.869 372.665 426.978C370.296 430.384 346.602 438.677 336.384 439.566L331.2 440.158L335.347 441.935C337.716 442.972 339.345 444.601 339.049 445.489C338.161 447.859 329.423 449.784 324.833 448.599C321.427 447.71 321.427 447.71 326.165 442.824C328.831 440.01 331.793 437.789 332.829 437.789C333.718 437.789 335.347 435.715 336.532 433.198C339.197 426.534 344.973 420.018 347.342 420.907C348.675 421.351 350.896 418.241 354.006 411.578C361.41 396.029 369.111 389.661 374.59 395.14Z" fill="url(#paint0_linear_66_23)"/>
<path d="M319.353 471.848C322.167 472.885 322.019 473.181 318.169 474.662C309.728 477.92 281.591 477.624 281.591 473.329C281.591 471.848 315.355 470.219 319.353 471.848Z" fill="url(#paint1_linear_66_23)"/>
<path fill-rule="evenodd" clip-rule="evenodd" d="M7.18469 376.185C6.50286 372.912 -15.9438 371.146 -17.8741 369.384L-16.3613 412.022C-16.0652 415.131 -14.8804 417.057 -13.2515 417.501C-11.6225 417.945 -9.99351 420.314 -9.10498 423.868C-7.92028 429.348 -7.47598 429.644 -1.70056 430.088C3.03824 430.384 4.81536 431.273 5.40771 433.494C6.00007 435.271 8.36935 437.344 10.8868 438.381L15.3295 440.306L9.70215 441.343C0.964981 442.675 -0.367806 444.008 0.816895 450.228C2.74203 460.298 14.441 469.183 22.5858 466.665C25.2514 465.777 25.5475 466.073 24.6589 469.183C23.3261 473.329 16.6622 486.657 14.7371 489.174C13.5524 490.655 12.5158 490.507 10.1464 488.878C0.52067 482.658 -14.8803 483.843 -18.4344 490.951C-20.5077 495.098 -18.8787 501.021 -15.0284 503.983C-12.8071 505.76 -12.8072 505.908 -15.4728 505.908L-1.84863 533.6C4.51913 526.048 10.1464 519.828 10.8868 519.532C12.3677 518.791 12.96 520.716 14.7371 531.675L16.0699 540.264L11.4792 542.189C8.96176 543.225 0.372583 546.779 -7.62415 550.185L-17.546 550.926L-11.6224 585.726C17.9951 585.578 17.9952 585.43 -3.47754 591.797L-16.3613 608.827C5.9999 602.904 6.59225 602.904 9.10974 605.866C10.1464 607.05 12.2197 608.087 13.7006 608.087C15.7738 608.087 16.5143 609.124 16.5143 612.529V616.972L-14.2881 616.824L-6.43945 642.887C0.0763998 640.814 5.55565 639.185 5.70374 639.185C5.70374 639.185 4.96339 642.295 3.77869 646.145C2.59399 649.847 1.70544 655.919 1.70544 659.473C1.70544 665.692 1.55728 665.84 -3.18152 665.84C-9.25311 665.84 -10.4377 664.804 -8.51257 661.102C-6.14317 656.511 -9.54921 653.549 -16.0651 654.586L-15.1765 753.211C-4.36612 760.615 -1.10814 762.096 3.1864 761.8C10.5908 761.207 10.8869 756.617 3.92676 750.397C0.965006 747.88 -2.29284 745.806 -3.47754 745.806C-4.51415 745.806 -5.8471 745.214 -6.43945 744.474C-6.88372 743.585 -5.69893 743.141 -3.92188 743.141C-1.99674 743.289 2.74199 743.289 6.74036 743.141L13.9967 742.845L13.1082 736.033L12.3677 729.221L17.8469 734.552C22.7338 739.291 31.9152 744.326 35.7655 744.326C36.9502 744.326 37.2464 740.772 36.9502 733.515L36.5061 722.853L49.0934 723.594C68.0486 724.63 73.5278 724.482 73.5278 723.001C73.5278 720.188 80.636 719.299 90.2617 720.632C102.553 722.409 112.771 722.557 112.771 720.78C112.771 718.114 105.811 709.377 101.072 706.268L96.0372 702.862L109.958 703.01C117.658 703.01 127.136 703.602 131.282 704.194L131.522 704.229C138.541 705.231 138.632 705.244 133.8 706.416C131.282 707.008 129.061 707.897 129.061 708.341C129.061 708.772 130.456 712.83 132.027 717.402L132.171 717.818C136.465 729.665 138.983 731.59 151.126 732.183C163.269 732.923 168.156 730.998 167.119 725.667C166.527 722.261 166.675 722.261 175.116 723.149C179.855 723.594 184.742 723.594 186.074 723.149C188.148 722.261 188.148 721.817 186.074 717.522C184.742 715.005 184.001 712.635 184.297 712.191C184.742 711.895 190.221 712.635 196.737 713.968C203.104 715.301 210.805 716.634 213.915 716.93C217.913 717.078 221.023 718.559 224.429 721.965C229.168 726.555 235.98 728.184 237.905 725.074C238.497 724.186 240.867 725.519 243.384 728.332C247.679 732.923 247.975 733.071 249.012 730.258C249.9 727.592 250.344 727.74 252.566 732.034C255.528 737.81 259.822 740.772 267.078 742.104C275.519 743.733 276.26 742.104 271.373 732.923C267.375 725.519 267.226 725.075 270.188 727.148C275.223 730.85 280.554 732.775 283.96 732.034C285.737 731.738 287.663 732.479 288.551 733.812C290.476 736.921 302.471 742.845 309.135 743.881C314.466 744.77 314.614 744.77 313.874 740.327L313.282 735.885L319.205 739.439C326.906 743.733 336.68 744.029 340.826 739.883C344.528 736.181 344.528 735.292 340.678 730.406L337.716 726.555L353.71 726.703C384.512 727 393.545 717.078 365.853 713.228C360.077 712.339 354.45 710.71 353.117 709.526C351.933 708.193 348.23 707.304 344.38 707.304C339.345 707.304 336.531 706.268 332.681 703.306C326.461 698.419 327.942 696.938 339.493 696.938C350.748 696.938 353.562 693.977 347.342 688.349L343.047 684.351L347.046 683.907C349.267 683.611 353.117 684.499 355.783 685.832C361.262 688.794 386.289 690.571 389.547 688.201C391.324 687.016 391.324 686.276 389.251 683.018L386.733 679.316L401.098 674.725C424.347 667.469 424.495 665.988 402.43 664.656L388.954 663.915L394.878 661.398C401.986 658.436 411.908 647.922 411.908 643.479C411.908 640.37 411.464 640.221 399.024 641.258C388.806 642.147 384.068 643.331 377.552 646.737C372.961 649.107 368.518 651.032 367.63 651.032C364.964 651.032 367.926 644.96 371.628 643.035L375.33 641.11L369.703 640.221C366.593 639.777 362.891 639.925 361.41 640.666C359.929 641.554 356.968 642.147 354.598 642.147C352.229 642.147 347.934 643.776 344.824 645.849C340.53 648.81 339.345 649.107 339.345 647.33C339.345 643.776 336.976 644.664 330.608 650.736C325.573 655.474 323.796 656.363 319.798 655.771C317.132 655.474 313.43 653.845 311.653 652.216C309.876 650.587 307.358 649.551 306.173 649.995C303.656 651.032 300.842 659.917 300.842 666.877V671.764H283.072V665.248C283.072 653.993 281.591 649.551 277.889 649.551C270.336 649.551 257.897 665.1 257.897 674.429C257.897 678.724 257.453 679.316 255.38 678.279C253.899 677.687 249.9 676.947 246.642 676.502C241.755 676.058 239.83 676.651 237.461 679.168C234.055 682.722 232.13 691.163 233.462 695.457C234.351 698.123 233.61 698.419 225.614 698.419C220.727 698.419 216.432 699.16 216.136 699.9C215.84 700.937 212.878 700.788 207.103 699.752L198.514 697.975L207.103 693.384C219.838 686.572 225.17 682.13 229.316 675.022C232.426 669.691 232.722 668.358 231.093 666.433C226.502 660.805 204.733 669.394 190.665 682.278C182.52 689.682 179.411 690.423 179.411 684.943C179.411 682.574 178.374 682.13 173.635 682.13C165.194 682.13 163.565 681.093 164.306 676.502C165.194 669.839 162.232 664.359 157.938 664.359C148.904 664.359 142.981 672.356 144.314 683.166L145.054 689.682L132.171 688.794C110.55 687.313 102.109 687.313 90.8542 688.645L80.0437 689.978L83.0055 684.943C86.8558 678.724 87.0039 675.17 83.3018 673.985C78.8591 672.652 71.1585 676.502 60.4962 685.684C51.759 693.088 50.1301 693.977 42.8738 694.273C35.9137 694.717 35.0251 694.421 35.0251 691.755C35.0251 688.645 36.9502 688.053 52.4994 685.091C59.4595 683.611 61.6809 682.574 64.7908 678.279C67.0121 675.466 68.3448 672.8 67.9005 672.356C67.1601 671.468 51.0187 673.689 43.17 675.614C40.5045 676.354 41.3929 675.318 46.1317 672.208C53.5361 667.173 60.9406 660.213 60.9406 657.992C60.9406 654.586 26.1398 661.546 20.2163 665.988C15.4775 669.839 15.4775 668.506 20.0682 662.434C22.1415 659.769 24.9552 655.03 26.436 651.772C27.9169 648.514 30.7306 643.331 32.6558 640.221L36.0618 634.594L40.0601 638.148C45.2431 643.035 48.9454 644.812 58.2749 646.737C64.0503 647.922 67.9006 649.995 72.6394 654.438C78.711 659.917 79.4514 660.213 86.2634 659.473C90.4099 658.88 93.816 659.176 94.4083 660.065C96.9258 664.359 116.769 667.913 124.914 665.692C134.244 663.175 136.021 655.178 128.024 650.884C124.174 648.81 124.174 648.81 131.875 647.774C139.723 646.885 143.869 644.664 141.796 642.591C141.204 641.998 135.725 641.258 129.801 640.962C122.841 640.518 118.102 639.629 117.066 638.296C115.733 636.667 116.029 636.223 118.547 636.223C121.212 636.223 121.656 635.631 120.916 633.113C119.879 630.152 120.027 630.152 126.395 633.706C129.801 635.779 136.317 638.593 140.76 639.925C148.905 642.591 166.527 643.776 168.452 641.85C170.525 639.629 166.379 633.706 161.048 631.188C158.086 629.855 155.716 628.375 155.716 627.93C155.716 627.486 156.309 627.486 157.197 628.078C157.938 628.523 160.307 628.523 162.38 627.93C165.49 627.19 165.786 626.598 164.454 624.969C162.232 622.303 162.677 622.007 169.785 620.822C175.264 620.082 175.857 620.23 178.67 624.821C182.372 630.744 194.219 635.039 204.882 634.446L212.138 634.002L209.176 628.523L206.363 622.895H211.249C216.729 622.895 218.95 620.822 216.581 618.009C215.396 616.528 218.061 616.232 229.02 616.676C244.125 617.416 263.08 615.195 273.15 611.641C279.222 609.42 287.515 602.904 287.515 600.238C287.515 599.35 280.11 599.054 267.819 599.646C250.492 600.238 247.827 600.09 245.013 597.721C241.755 595.203 241.755 595.055 250.789 594.167C260.563 592.982 265.894 590.909 264.561 588.836C264.117 588.243 265.894 587.207 268.559 586.615C274.039 585.43 278.925 581.728 277.741 579.803C277.296 579.062 273.298 578.47 268.855 578.47C264.413 578.47 260.859 577.877 260.859 577.285C260.859 576.545 263.376 574.62 266.486 572.843C272.558 569.437 278.037 564.106 276.852 562.921C276.408 562.477 270.781 565.142 264.265 568.844C257.601 572.546 251.825 575.508 251.381 575.508C250.789 575.508 250.789 574.027 251.233 572.102C252.27 567.956 248.715 562.921 245.606 564.105C244.421 564.55 242.2 567.66 240.719 570.917C239.09 574.768 237.165 576.841 235.832 576.545C234.351 576.397 232.426 578.47 230.649 582.172C229.02 585.43 226.799 588.688 225.466 589.428C222.8 591.057 214.952 591.501 214.952 590.021C214.952 589.428 213.915 589.28 212.73 589.724C211.546 590.317 210.509 589.872 210.509 588.984C210.509 586.318 204.882 587.207 201.92 590.465L198.958 593.426L198.07 589.576C197.477 587.503 195.404 584.986 193.331 584.097C190.369 582.616 189.036 582.912 185.63 585.43C180.743 588.984 176.153 600.979 177.041 608.383C177.337 611.493 177.485 614.01 177.485 614.01C177.337 614.01 171.71 615.047 164.898 616.232C157.049 617.564 151.422 617.861 149.349 616.972C146.535 615.935 146.831 615.639 151.57 615.639C155.42 615.491 157.197 614.751 157.197 613.418C157.197 610.901 153.94 609.568 147.424 609.568H142.389L145.35 604.681C146.979 602.163 148.312 597.721 148.312 595.055C148.312 590.465 148.164 590.317 144.906 591.946C142.833 593.13 143.573 591.798 147.127 588.392C150.089 585.43 152.903 581.58 153.495 579.951C154.236 577.433 155.716 576.989 164.009 576.989C172.302 576.989 173.487 576.693 173.487 574.323C173.487 572.694 172.154 570.325 170.525 568.844C168.896 567.363 167.564 565.734 167.564 565.142C167.564 564.55 172.302 564.402 178.078 564.846L188.592 565.586L187.703 561.144C186.815 557.145 187.111 556.701 192.294 555.072C196.737 553.739 198.218 553.74 200.143 555.517C205.622 560.551 214.655 556.405 218.506 547.076C220.283 542.929 220.283 542.929 223.096 545.891C226.354 549.445 227.391 549.593 230.353 546.483C231.834 545.151 232.722 541.596 232.722 537.302V530.49L237.017 534.636C244.125 541.448 248.419 537.302 244.569 527.528C243.236 523.974 243.532 523.678 246.79 523.678C249.752 523.678 250.493 522.938 250.493 519.976C250.493 516.57 251.085 516.274 256.564 516.274C262.636 516.274 262.636 516.126 261.895 511.831C261.155 508.277 261.451 507.537 263.524 507.685C270.336 508.277 273.002 507.389 272.113 505.019C271.521 503.539 272.261 501.761 273.742 500.725C275.964 499.096 275.964 498.8 272.706 497.023C268.559 494.801 257.601 495.986 247.235 499.984C241.015 502.354 239.534 502.502 236.128 500.725C232.426 498.8 232.426 498.8 239.534 497.763C255.083 495.69 270.336 492.58 271.817 491.099C272.558 490.359 275.371 489.618 278.037 489.618C285.737 489.618 296.4 487.841 296.4 486.509C296.4 483.991 289.588 483.695 283.22 485.916C275.371 488.582 272.706 488.73 272.706 486.212C272.706 485.176 275.075 483.399 277.741 482.51C283.96 480.289 285.737 475.995 282.479 471.108C280.258 467.702 280.258 467.554 284.997 466.665C287.514 466.073 291.661 464.592 293.882 463.407C296.104 462.223 303.212 461.186 309.431 461.038C321.723 460.594 338.16 449.043 332.829 446.822C331.348 446.229 334.664 441.047 328 442.824L315 448.599L297.584 456.595L295.067 453.338L293.586 457.04C292.549 459.705 292.105 460.001 292.105 458.076C291.957 454.818 284.257 454.522 281.591 457.78C279.222 460.594 277.148 460.594 277.148 457.78C277.148 455.115 274.335 454.966 271.225 457.484C269.892 458.52 266.338 462.371 263.228 466.221C260.118 470.219 256.564 473.329 255.527 473.329C254.195 473.329 253.454 474.958 253.454 477.772C253.454 482.955 253.158 483.103 248.271 479.845C243.532 476.735 240.423 478.068 239.83 483.251C239.386 487.249 239.238 487.397 227.983 488.138C221.764 488.582 216.136 489.322 215.692 489.915C215.1 490.507 214.507 492.728 214.507 494.801C214.655 498.207 214.211 498.504 209.769 497.615C203.549 496.578 198.662 499.096 198.662 503.39C198.662 506.5 197.921 506.796 191.554 506.796C185.778 506.648 184.297 507.241 183.261 509.906C181.928 512.72 180.891 513.016 174.079 512.276C167.712 511.535 165.935 511.979 163.269 514.645C161.64 516.274 160.159 518.939 160.159 520.568C160.159 522.79 158.678 523.382 152.607 524.122C143.425 525.307 140.463 527.38 141.648 532.119C142.092 534.34 141.796 535.525 140.464 535.525C139.279 535.525 135.429 537.154 131.578 538.931L124.766 542.485L120.916 538.487C118.695 536.265 114.696 533.156 111.883 531.675C105.959 528.417 105.367 526.64 110.55 526.64C115.881 526.64 140.167 521.013 146.535 518.347C152.459 515.978 157.197 512.127 157.197 509.906C157.197 507.685 101.22 512.424 89.077 515.533C85.671 516.57 85.6712 516.422 89.8176 513.46C92.187 511.831 95.8891 510.35 97.9623 510.35C100.036 510.35 106.255 508.277 112.031 505.908C117.658 503.39 128.024 500.429 134.984 499.096C148.904 496.43 157.197 493.469 157.197 491.247C157.197 490.359 155.42 489.618 153.347 489.618C151.274 489.618 149.941 489.026 150.533 488.138C150.978 487.249 154.088 486.657 157.197 486.657C168.008 486.657 180.151 479.549 174.82 476.291C173.931 475.698 176.449 474.662 180.299 474.069C184.297 473.477 189.925 471.996 192.738 470.812L197.921 468.442L186.074 464.888L196.293 464C207.399 462.963 213.323 459.705 210.361 456.151C208.584 453.93 210.657 452.745 222.208 449.635C225.614 448.747 228.724 447.118 229.168 445.933C229.612 444.749 232.87 442.527 236.276 440.75C239.682 439.121 244.273 435.863 246.494 433.642L250.641 429.348L235.388 433.346C226.947 435.419 217.913 438.381 215.1 439.862C211.99 441.491 208.584 442.231 205.918 441.639C203.105 441.194 200.735 441.787 198.07 443.86L194.219 446.822V443.86C194.219 440.01 193.479 440.01 183.853 444.008C176.893 446.97 175.856 446.97 174.376 444.897C172.895 442.823 172.006 442.823 168.156 444.452C163.713 446.229 163.565 446.229 161.788 441.343C160.011 436.308 160.603 433.346 163.269 433.346C165.046 433.346 193.183 410.097 193.923 408.023C194.219 407.283 193.775 406.691 192.886 406.691C191.998 406.691 191.257 406.246 191.257 405.506C191.257 404.914 194.663 404.321 198.958 404.025C207.695 403.729 211.397 401.508 208.88 398.398C206.955 396.028 206.955 396.028 220.135 393.511C225.021 392.622 229.316 391.142 229.464 390.401C229.76 389.513 230.649 389.365 231.389 389.809C232.87 390.697 274.483 394.844 282.628 394.844C285.589 394.844 287.515 394.103 287.515 392.919C287.515 387.291 271.373 378.85 259.526 378.406C256.12 378.258 255.38 377.962 257.601 377.518C266.782 375.741 253.602 371.15 239.09 371.15C231.685 371.002 230.797 370.854 233.018 369.077C234.499 368.04 235.684 366.707 235.684 366.115C235.684 363.894 222.356 365.523 214.507 368.781C206.51 372.187 206.066 372.187 206.807 369.521C207.399 367.744 207.103 366.707 205.622 366.707C203.401 366.707 192.738 371.89 186.223 376.333L181.928 379.147L182.965 375.889C183.705 373.816 183.409 372.631 182.372 372.631C178.226 372.631 170.525 377.666 167.267 382.405C165.342 385.07 163.269 387.439 162.677 387.439C161.936 387.439 161.936 386.699 162.38 385.959C162.825 385.07 162.825 382.997 162.38 381.368C161.344 378.258 161.344 378.258 157.642 381.812C155.568 383.589 151.422 389.513 148.312 394.548C145.202 399.879 142.389 403.136 142.093 401.952C141.648 400.915 139.871 402.84 137.946 406.542C135.428 411.429 134.244 417.501 133.207 430.236C131.578 448.895 130.097 452.005 121.508 455.559C117.214 457.336 115.733 460.001 118.991 460.001C119.879 460.001 118.991 461.778 116.769 464C103.738 477.92 86.1154 498.355 86.1154 499.688C86.1154 502.206 39.4677 530.786 37.8387 529.305C37.5426 528.861 36.5059 524.863 35.7655 520.42C34.2846 511.091 30.8787 502.058 27.3246 498.207C25.1033 495.69 25.1033 494.95 28.3612 488.286C31.471 481.474 32.0634 481.03 35.3213 482.362C40.2082 484.139 41.0968 484.139 43.7623 481.326C45.5394 479.697 46.1317 475.995 46.1317 467.109V455.263L50.5743 458.965C52.9437 461.038 57.3863 463.555 60.2 464.592C64.1983 466.073 65.3832 467.406 65.3832 470.219C65.3832 477.92 80.9322 488.138 90.1136 486.361C97.0738 485.028 89.9655 466.961 79.1552 458.965C76.0453 456.743 71.6028 453.189 69.3815 450.968L65.235 446.97L70.8623 446.081C78.5629 444.749 112.623 433.346 113.511 431.865C114.696 429.792 101.22 428.607 77.6744 428.755C64.7908 428.903 55.017 428.311 55.017 427.571C55.017 426.83 58.5711 425.053 62.7175 423.72C67.0121 422.24 73.2318 419.574 76.6378 417.797C83.746 413.651 95.445 401.359 94.2603 399.286C92.9275 397.065 86.2634 397.509 73.3798 400.767C59.0153 404.469 50.8705 409.652 49.5377 415.724C49.0935 418.093 48.205 420.463 47.6127 420.759C46.428 421.499 49.3897 410.245 56.646 385.514C59.6077 375 60.3481 373.964 63.0137 374.852C70.4181 377.37 89.2252 377.37 100.332 374.852C114.252 371.742 120.027 369.373 126.099 364.19C130.394 360.636 130.69 360.044 128.172 359.155C126.543 358.415 120.916 358.415 115.289 358.859C109.365 359.303 105.367 359.155 105.367 358.267C105.367 355.601 107.144 355.009 110.105 356.49C116.473 359.896 121.804 353.676 118.991 345.975C117.954 343.162 118.399 341.237 120.916 337.535C124.174 332.796 124.322 332.796 126.839 335.609C131.282 340.496 148.312 343.606 150.533 340.052C152.459 336.942 149.201 331.019 144.018 328.205L138.687 325.392L153.199 325.243C169.193 325.243 177.041 323.022 178.67 317.839C180.151 313.249 175.856 309.398 166.231 306.289L157.938 303.771L170.822 303.327C183.705 302.883 185.482 302.29 182.076 298.884C180.891 297.7 181.336 296.959 184.001 295.923C185.926 295.182 190.221 293.405 193.331 292.072C198.218 289.999 199.402 289.999 200.439 291.628C204.585 299.18 207.103 300.661 215.692 300.809C229.168 300.809 230.797 294.886 219.542 287.186C216.877 285.408 214.063 283.631 213.026 283.187C208.584 281.41 216.432 279.485 227.835 279.781C237.905 279.781 240.571 279.337 243.088 277.116C244.865 275.487 245.902 273.117 245.606 271.637C245.013 269.563 245.754 268.971 248.419 268.971C253.602 268.971 252.714 266.454 246.938 264.38C240.867 262.159 241.311 260.086 247.975 260.086C250.641 260.086 255.38 259.345 258.637 258.309L264.561 256.532L255.676 254.755L260.859 253.57C269.152 251.793 274.187 249.572 274.187 247.35C274.187 244.685 275.371 244.093 287.663 241.575C300.25 238.91 305.285 236.096 305.285 231.802C305.285 228.988 304.545 228.692 297.881 229.284C292.401 229.58 290.624 229.284 291.217 227.803C292.698 223.953 283.368 226.322 269.744 233.43C262.043 237.429 255.231 240.242 254.491 239.798C253.75 239.354 253.454 237.429 253.899 235.504C254.343 233.134 253.899 231.95 252.418 231.95C249.456 231.95 241.607 236.688 241.459 238.613C241.311 239.354 240.867 237.873 240.275 235.207C239.83 232.542 238.645 230.321 237.905 230.173C237.017 230.024 233.314 234.467 229.316 240.094C216.877 258.309 211.842 261.715 205.918 256.236C204.437 254.903 202.66 254.311 201.772 254.755C199.402 256.236 197.329 265.565 198.218 271.044C198.958 275.783 198.81 275.931 189.629 280.077C180.447 284.224 160.159 290.295 159.123 289.111C158.826 288.814 160.307 285.705 162.38 282.151C165.934 275.783 167.415 266.009 164.75 266.009C164.009 266.009 160.752 268.971 157.494 272.525L151.422 279.041L150.978 272.229C150.534 265.861 150.237 265.269 146.831 265.713C139.575 266.454 135.873 270.748 134.392 280.077L132.911 288.518L126.247 287.778C118.25 286.889 114.992 288.222 112.179 293.997C110.55 296.959 107.884 298.884 103.146 300.365C99.4433 301.698 96.4816 302.29 96.4816 301.994C96.4816 299.773 106.107 287.926 110.254 284.964C112.771 283.187 118.991 278.448 123.73 274.598C128.617 270.748 135.873 266.454 140.019 265.121C144.166 263.788 150.237 261.271 153.347 259.642C158.53 257.124 158.974 256.532 156.753 254.903C153.347 252.385 155.124 251.201 162.529 251.201C174.079 251.201 181.632 245.722 175.856 241.575C173.783 239.946 174.524 239.65 180.743 238.762C188.148 237.725 192.738 234.911 192.738 231.357C192.738 230.173 189.925 227.507 186.371 225.138L180.151 220.991L186.074 219.659C189.332 219.066 193.479 218.178 195.256 217.733C200.143 216.845 199.699 211.81 194.664 210.181C190.813 208.848 190.813 208.848 198.07 204.702C208.732 198.482 215.1 193.447 214.211 191.818C213.619 191.078 216.729 190.486 221.467 190.486C231.241 190.486 233.314 188.264 227.687 183.822L223.541 180.564L227.095 179.675C232.278 178.195 239.978 178.491 243.236 180.12C244.717 181.008 248.716 185.303 251.974 189.745C258.489 198.63 262.191 199.963 266.042 194.484L268.411 191.226L274.631 198.482C282.183 207.071 286.478 207.367 287.218 199.519C287.514 196.853 286.922 192.559 285.885 190.041C284.405 186.487 284.405 185.303 285.737 184.858C289.143 183.822 287.515 177.75 283.072 174.492C280.258 172.419 278.629 169.754 278.629 167.68C278.629 161.757 275.371 160.424 261.599 161.165C250.641 161.757 249.308 161.461 250.937 159.684C252.418 157.759 251.973 157.611 247.087 158.499C242.496 159.388 241.015 159.092 239.386 157.018C237.609 154.501 237.165 154.501 230.797 157.018C227.095 158.351 223.244 160.572 222.356 161.757C219.986 164.571 216.432 164.423 216.432 161.609C216.432 155.537 205.178 159.536 198.662 167.977L195.552 171.827L194.664 168.421C193.923 165.607 193.183 165.311 189.925 166.052C183.853 167.532 186.667 166.052 199.402 160.72C217.321 153.464 221.912 149.762 214.507 148.726C211.694 148.281 211.99 147.837 217.469 144.135C224.873 139.396 225.466 137.619 219.69 136.286C209.917 134.065 209.916 134.361 218.95 127.253C227.983 120.293 229.908 117.924 226.502 117.924C225.466 117.776 226.502 116.739 229.02 115.406C235.536 112 245.754 103.411 247.679 99.8573C249.308 96.8956 249.16 96.7475 240.275 97.636L231.389 98.3764L239.978 92.6011C249.9 85.9372 257.897 78.3849 270.929 63.4282C281.147 51.8776 280.851 49.8044 270.336 57.801C266.634 60.6146 261.895 63.2802 259.674 63.7244C239.238 67.5746 238.646 67.8708 234.943 72.1653C232.87 74.6827 231.241 77.3483 231.241 78.0887C231.241 78.8291 229.612 79.4215 227.539 79.4215C222.8 79.4215 219.246 84.9006 218.209 93.4896C217.617 98.8207 217.025 100.005 215.1 99.413C211.249 98.2283 209.176 100.598 206.214 109.187C203.697 116.887 203.253 117.183 198.366 117.183C191.406 117.183 188.888 119.701 185.926 129.03C183.409 136.731 179.855 140.137 174.228 140.137C171.71 140.137 169.044 144.727 169.044 149.17C169.044 151.835 168.452 152.28 164.75 151.539C160.011 150.503 158.678 152.724 158.678 161.905C158.678 167.236 157.345 171.235 155.716 171.235C155.124 171.235 155.124 168.717 155.865 165.607C157.79 157.018 157.494 150.058 154.68 146.06C152.755 143.394 152.162 140.137 152.607 134.213L153.051 126.068L149.793 129.03L146.387 131.992L147.72 120.145C149.201 106.817 149.201 96.0071 147.72 94.6743C147.276 94.082 145.795 94.9705 144.61 96.5994C142.537 99.2649 142.537 99.2649 142.389 95.4147C142.389 93.1934 140.612 85.9372 138.538 79.2734C136.465 72.4615 134.096 62.984 133.503 58.2452C132.022 48.4716 129.801 44.7695 127.432 48.3235C126.691 49.5082 126.395 52.0257 126.839 53.8027C127.432 56.024 126.987 57.2086 125.655 57.2086C122.397 57.2086 121.064 82.9755 124.026 88.6028C125.21 90.9722 125.507 92.7492 124.618 92.7492C122.397 92.7492 122.841 104.892 125.359 112C128.172 119.849 128.172 122.366 125.359 122.366C121.805 122.366 120.916 132.14 123.73 141.025C125.062 145.32 126.84 149.318 127.58 149.762C130.246 151.391 129.061 154.205 124.618 156.722C118.695 159.98 118.991 163.238 125.655 170.05C129.209 173.752 130.393 175.677 128.913 175.677C127.58 175.677 125.359 177.01 123.878 178.639C120.027 182.933 121.804 190.782 128.913 200.111C133.948 206.775 134.54 208.256 132.763 209.737C130.097 211.958 123.137 223.805 123.137 226.174C123.137 227.063 120.472 230.765 117.362 234.171C110.994 241.131 108.328 248.239 108.328 258.605C108.328 265.565 106.996 267.49 88.1886 288.666L83.1537 294.442V287.926C83.1537 279.929 81.2284 276.227 79.0071 280.077C77.8224 282.299 77.3783 281.706 76.4897 276.227C75.0089 266.898 73.0837 263.936 70.4181 266.157C68.641 267.638 68.3448 266.75 68.3448 260.234C68.3448 256.088 67.6043 252.682 66.8639 252.682C65.9754 252.682 65.3832 250.608 65.3832 248.239C65.3832 245.277 64.6427 243.796 63.1619 243.796C61.9772 243.796 60.9406 245.129 60.9406 246.61C60.9406 248.831 60.2001 249.276 57.6826 248.535C54.7209 247.795 54.5728 248.239 55.4613 253.866C56.0537 258.605 55.7574 260.086 54.1284 260.086C51.4628 260.086 51.611 264.973 54.2766 272.673C55.4613 275.931 56.4979 278.745 56.4979 278.745C56.4979 278.893 55.165 279.337 53.536 279.781C49.6857 280.818 49.6858 285.853 53.3879 293.109C56.0535 298.292 56.0536 299.18 53.9803 304.215C51.759 309.546 51.7591 312.36 54.4247 334.129L55.3131 342.273L47.9087 334.425C41.2448 327.169 40.0601 326.576 34.8771 327.021L29.1016 327.465L29.3978 339.312C29.694 356.49 35.7656 368.188 44.2065 368.188C46.1317 368.188 47.6127 369.077 47.6127 369.965C47.6127 375.148 37.9868 418.241 36.9502 417.649C36.3578 417.205 35.7655 415.872 35.7655 414.539C35.7655 411.133 31.471 406.691 28.0649 406.691C26.1398 406.691 25.3995 405.506 25.3995 402.248C25.3995 399.286 24.0667 396.473 21.8453 394.399C19.9202 392.622 17.2547 388.92 15.9219 386.255C13.4044 381.516 10.5907 379.887 10.5907 383.293C10.4426 386.403 8.07322 381.368 7.18469 376.185ZM69.2334 361.524C67.9006 359.599 66.8639 357.674 66.8639 357.23C66.8639 356.934 68.789 354.564 71.1584 352.047L75.4531 347.456L76.0454 352.343C76.4897 354.861 77.23 358.118 77.8224 359.451C78.5628 361.08 77.6743 362.265 75.1569 363.45C72.047 364.782 71.3066 364.634 69.2334 361.524ZM60.2 534.044C59.0153 534.044 57.9786 533.748 57.9786 533.452C57.9786 533.156 59.0153 532.563 60.2 531.971C61.3847 531.527 62.4213 531.823 62.4213 532.563C62.4213 533.452 61.3847 534.044 60.2 534.044ZM57.2383 573.139C54.4246 574.027 54.2766 573.287 54.2766 557.738V541.448C54.2766 541.557 55.5534 542.623 57.3454 544.12C57.9946 544.662 58.7114 545.261 59.4596 545.891C65.235 550.926 73.0837 552.851 77.6744 550.63C80.0438 549.445 84.4865 549.445 94.2603 550.778L107.588 552.703L100.184 556.109C92.0388 559.811 61.829 571.658 57.2383 573.139ZM-3.47754 563.661C-3.77371 563.069 -0.219621 561.144 4.37109 559.219C8.96181 557.294 18.8836 552.999 26.436 549.445L40.0601 543.225L35.7655 550.926C33.248 555.22 30.8787 561.736 30.4344 565.438L29.5459 572.102L22.5858 569.437C18.7355 567.956 11.4792 566.327 6.29614 565.734C1.26116 565.29 -3.03328 564.254 -3.47754 563.661ZM119.583 589.576C120.175 587.059 121.36 584.689 122.249 584.097C124.766 582.32 126.099 582.764 127.136 585.43C128.765 590.169 132.467 593.278 136.317 593.278C139.575 593.278 138.983 594.019 132.319 597.721C125.655 601.275 123.878 601.719 120.768 600.386C118.547 599.35 117.362 597.869 117.806 596.388C118.163 595.317 118.712 593.096 119.221 591.035C119.224 591.026 119.226 591.016 119.228 591.006C119.24 590.958 119.252 590.909 119.264 590.861C119.321 590.631 119.377 590.404 119.433 590.18C119.484 589.975 119.534 589.773 119.583 589.576ZM285.145 685.091C283.22 685.091 281.591 684.351 281.591 683.611C281.591 682.722 283.664 682.13 286.182 682.13C288.699 682.13 290.328 682.722 289.736 683.611C289.292 684.351 287.218 685.091 285.145 685.091Z" fill="url(#paint2_linear_66_23)"/>
<path fill-rule="evenodd" clip-rule="evenodd" d="M57.9786 533.452C57.9786 533.748 59.0153 534.044 60.2 534.044C61.3847 534.044 62.4213 533.452 62.4213 532.563C62.4213 531.823 61.3847 531.527 60.2 531.971C59.0153 532.563 57.9786 533.156 57.9786 533.452ZM281.591 683.611C281.591 684.351 283.22 685.091 285.145 685.091C287.218 685.091 289.292 684.351 289.736 683.611C290.328 682.722 288.699 682.13 286.182 682.13C283.664 682.13 281.591 682.722 281.591 683.611Z" fill="url(#paint3_linear_66_23)"/>
</g>
<defs>
<linearGradient id="paint0_linear_66_23" x1="2.26078" y1="587.817" x2="409.393" y2="480.135" gradientUnits="userSpaceOnUse">
<stop stop-color="#4F772D"/>
<stop offset="1" stop-color="#90A955"/>
</linearGradient>
<linearGradient id="paint1_linear_66_23" x1="2.26078" y1="587.817" x2="409.393" y2="480.135" gradientUnits="userSpaceOnUse">
<stop stop-color="#4F772D"/>
<stop offset="1" stop-color="#90A955"/>
</linearGradient>
<linearGradient id="paint2_linear_66_23" x1="2.26078" y1="587.817" x2="409.393" y2="480.135" gradientUnits="userSpaceOnUse">
<stop stop-color="#4F772D"/>
<stop offset="1" stop-color="#90A955"/>
</linearGradient>
<linearGradient id="paint3_linear_66_23" x1="2.26078" y1="587.817" x2="409.393" y2="480.135" gradientUnits="userSpaceOnUse">
<stop stop-color="#4F772D"/>
<stop offset="1" stop-color="#90A955"/>
</linearGradient>
<clipPath id="clip0_66_23">
<rect width="630" height="1184" fill="white"/>
</clipPath>
</defs>
</svg>
