<svg width="628" height="844" viewBox="0 0 628 844" fill="none" xmlns="http://www.w3.org/2000/svg">
<g clip-path="url(#clip0_12_99)">
<path d="M551.315 979.846L550.515 970.78C547.982 942.113 545.182 917.313 542.915 903.446C541.582 894.78 540.382 885.713 540.382 883.313C540.382 880.913 543.048 866.113 546.248 850.38C552.648 819.313 553.715 811.58 551.715 810.513C549.982 809.713 543.182 822.38 536.915 838.38L531.982 850.78L529.448 842.38C523.182 821.58 513.582 799.98 510.115 798.78C507.715 798.113 507.848 809.713 510.382 826.513C515.848 862.78 519.048 894.113 517.715 898.513C515.448 906.113 509.982 934.246 508.248 947.18L506.515 959.18L504.248 942.513C502.915 933.313 500.248 918.38 498.382 909.18C495.315 895.446 494.515 887.18 493.582 861.846C491.715 809.98 488.782 782.38 484.515 778.113C482.382 775.98 480.915 778.513 479.048 787.18C476.915 797.046 473.715 819.713 473.715 825.58C473.715 830.113 473.448 830.646 471.048 829.846C468.515 829.046 468.382 829.58 468.382 837.446V845.846L465.582 840.246C464.115 837.18 461.982 833.98 460.915 833.046C457.982 830.646 458.515 840.913 462.648 869.98C465.982 893.046 466.248 898.78 466.382 937.446V979.846H551.315Z" fill="url(#paint0_linear_12_99)"/>
<path fill-rule="evenodd" clip-rule="evenodd" d="M455.048 979.846V945.446C454.915 849.98 448.648 790.513 441.048 813.18C439.715 817.046 439.448 817.313 438.515 815.046C434.515 804.913 428.248 847.313 424.248 911.846C423.448 925.446 422.648 936.646 422.382 936.913C421.982 937.313 412.915 901.98 410.248 889.713L407.982 879.046L417.048 850.38C434.248 796.113 436.115 789.846 437.048 783.313C437.848 778.113 437.715 776.913 436.248 777.446C433.048 778.38 422.248 795.58 411.982 816.113L411.574 816.92C406.341 827.269 403.554 832.78 402.071 832.449C400.381 832.072 400.381 824.115 400.382 807.095L400.382 805.98C400.382 781.18 401.582 769.313 407.048 742.38C409.315 731.713 411.048 721.58 411.048 719.846V716.78L407.582 719.98C399.182 727.713 387.048 759.446 382.115 785.846C379.315 801.313 378.915 847.713 381.582 868.646L383.315 883.446L378.915 896.913C376.515 904.38 374.382 910.246 374.115 909.98C373.848 909.846 372.115 900.646 370.115 889.713C366.915 871.98 366.515 866.513 366.515 838.513C366.515 808.113 366.648 806.646 370.782 787.313C375.315 765.846 375.848 761.846 373.582 763.18C372.648 763.846 372.515 762.513 373.182 758.913C373.582 756.113 374.115 753.313 374.248 752.646C374.248 751.98 373.715 751.18 372.782 750.913C370.382 749.98 361.848 764.246 356.115 778.646C348.648 797.713 343.582 822.513 342.648 845.18L342.382 852.513L336.782 837.18C333.715 828.78 330.515 818.78 329.582 815.18C328.782 811.446 327.315 807.846 326.382 807.18C325.582 806.38 322.248 799.846 319.048 792.513C304.915 760.246 281.848 719.846 277.582 719.846C275.448 719.846 276.248 728.646 279.848 740.646C281.715 747.18 287.315 765.446 292.382 781.18C312.382 843.98 316.248 858.513 315.182 867.846L314.382 875.18L311.848 867.846C307.982 856.113 294.515 824.38 287.315 809.58C282.248 799.046 280.515 793.846 279.848 786.913C278.648 774.646 275.448 763.846 273.048 763.846C272.115 763.846 270.515 765.98 269.715 768.646L268.115 773.313L263.582 768.246L259.182 763.18L259.048 767.313C259.048 769.446 260.382 776.113 261.982 781.98C262.171 782.672 262.35 783.318 262.518 783.925C263.317 786.812 263.877 788.836 264.217 790.896C265.014 795.726 264.6 800.755 263.217 817.573C263.043 819.691 262.853 821.997 262.648 824.513C261.315 839.18 259.848 858.113 259.315 866.513C258.382 881.446 258.248 881.046 257.315 849.18C255.182 776.913 250.515 732.246 245.048 731.446C242.782 731.046 239.448 743.846 237.582 759.446C236.248 771.046 235.315 774.513 233.715 774.913C227.848 776.513 221.982 834.913 219.582 917.846L218.515 949.846L212.915 927.18C202.648 885.846 199.715 861.313 200.782 828.513C201.448 810.513 202.382 801.846 205.582 786.513C207.848 775.846 209.715 765.98 209.715 764.646C209.715 763.517 209.715 762.891 209.467 762.769C209.158 762.617 208.467 763.243 206.915 764.646C199.715 771.18 190.915 792.38 185.982 815.18C182.915 829.313 182.515 834.38 182.515 858.38C182.382 883.846 182.248 885.046 180.648 877.713C176.115 856.646 163.448 823.98 159.448 822.78C156.915 822.113 157.315 829.046 160.915 856.513C167.048 901.713 167.715 907.98 164.382 895.846C161.715 885.846 183.048 948.58 178.515 941.113C175.582 936.313 173.448 930.446 172.515 924.58C164.382 877.78 145.982 826.446 126.248 795.78C120.515 786.98 118.248 785.246 117.048 788.58C116.648 789.38 118.782 799.513 121.715 810.846C130.648 845.113 138.648 879.113 140.382 889.913C140.796 892.503 141.103 894.449 141.268 896.053L146.126 932.002C146.961 933.274 148.637 952.537 121.582 893.846C122.248 910.113 122.248 932.78 121.715 947.846C121.432 953.909 121.173 959.754 120.958 964.595L120.958 964.596C120.667 971.148 120.458 975.86 120.382 976.78C120.382 979.084 120.053 979.661 114.674 979.802L114.673 979.846H152.915H307.493L287.715 979.18L286.915 936.513C286.382 913.046 285.715 885.446 285.315 875.18L284.648 856.513L287.182 864.513C288.515 868.913 292.515 883.446 295.848 896.78C302.382 923.046 309.048 957.18 310.515 971.18L311.434 979.846H392.782L390.648 971.98C388.515 964.38 388.515 963.446 391.315 949.98C392.782 942.113 394.382 935.98 394.648 936.246C394.915 936.513 397.848 946.113 401.048 957.58C404.382 969.046 407.048 978.78 407.048 979.18C407.048 979.58 403.848 979.846 399.982 979.846H455.048ZM152.915 979.846C150.382 979.846 149.715 979.313 150.248 977.446C150.515 976.246 151.315 964.913 151.848 952.513L152.915 929.846L154.515 947.846C155.448 957.713 156.248 969.046 156.248 972.78C156.382 979.446 156.248 979.846 152.915 979.846Z" fill="url(#paint1_linear_12_99)"/>
<path d="M496.633 364.307C495.092 365.651 491.915 370.261 489.7 374.582C487.389 379 484.019 384.954 482.189 387.835C479.011 392.829 478.723 393.021 477.856 391.004C477.086 389.276 477.76 387.163 481.034 380.248C485.174 371.605 485.174 371.605 483.441 368.916C480.937 365.171 479.108 363.922 475.93 363.826C470.634 363.826 467.071 366.9 466.108 372.47C465.53 375.927 465.53 375.927 460.234 375.927C452.82 376.119 449.834 378.424 449.449 384.186C448.871 392.253 452.242 396.286 459.656 396.766C463.604 396.958 463.701 397.054 464.278 401.088C465.241 407.522 464.086 426.057 462.353 432.491C459.945 441.038 452.916 454.771 447.331 461.494C440.494 469.945 425.472 481.661 423.835 479.932C423.546 479.644 421.331 473.21 418.924 465.623C413.532 448.913 412.28 437.581 415.072 431.723C416.998 427.69 422.968 424.328 428.361 424.328H431.924V419.238C431.924 416.549 431.442 412.708 430.961 410.787C429.998 407.522 429.709 407.234 425.376 406.754C419.983 406.178 415.265 407.81 413.628 410.979C412.954 412.132 412.087 417.126 411.702 422.12C411.221 428.65 410.643 431.531 409.295 432.971C407.273 435.18 405.732 434.412 403.421 429.802C400.051 423.464 405.828 412.804 417.769 403.297C423.931 398.495 424.22 398.015 424.22 394.173C424.22 388.699 422.776 387.163 416.806 386.395C412.184 385.818 411.702 385.914 410.258 388.123C409.295 389.66 408.332 394.269 407.754 400.512C406.791 410.979 405.539 413.957 400.917 416.549C397.547 418.47 395.332 417.318 395.332 413.668C395.332 412.036 396.873 405.794 398.799 399.743C401.399 391.773 402.169 388.027 401.688 385.626C400.821 380.825 399.088 379.672 395.428 381.593C391.962 383.321 391.577 386.395 393.888 393.981C395.717 400.032 395.717 405.409 393.791 409.155L392.251 412.036L389.843 409.827C383.681 403.969 381.177 392.157 384.162 383.033C385.703 378.52 385.703 377.848 384.258 375.735C381.658 371.701 375.11 371.509 371.259 375.351C368.177 378.424 368.851 381.689 373.57 386.683C379.444 392.925 381.562 398.399 378.192 398.399C375.881 398.399 372.029 394.173 369.333 388.795C366.637 383.418 363.748 380.152 361.629 380.152C356.526 380.152 352.674 388.219 354.889 393.981C355.852 396.67 356.044 396.766 361.918 396.19L367.888 395.614L372.222 400.128C405.828 434.892 427.302 491.264 434.716 564.059C436.738 582.978 437.99 624.177 437.124 640.887L436.257 657.116L426.242 645.88C406.213 623.408 395.621 606.986 390.132 589.988C386.858 579.905 385.703 572.03 385.703 559.929C385.703 550.518 385.799 550.134 387.532 551.094C388.592 551.574 391.962 552.054 395.043 552.054C400.147 552.054 400.725 551.862 401.88 549.462C404.287 544.18 402.939 539.57 398.221 537.169C391.673 533.808 387.34 536.497 385.703 545.236C384.162 553.207 382.814 557.817 381.947 557.817C380.599 557.817 378.962 553.015 378.962 549.173C378.962 547.157 380.118 541.875 381.466 537.553C385.607 524.589 384.644 519.883 378.384 521.323C371.644 522.86 371.066 524.781 374.148 535.921C375.207 539.762 376.073 544.852 376.073 547.253L375.977 551.574L374.148 547.733C369.718 538.802 361.244 535.825 354.985 541.107C352.289 543.315 352 544.084 352 549.173C352 556.664 353.541 557.817 364.037 557.817C368.274 557.817 372.222 558.201 372.896 558.585C374.436 559.545 377.325 566.364 382.525 581.345C388.495 598.439 393.599 607.947 406.984 626.769C428.265 656.444 434.235 674.211 431.924 700.236C430.479 716.946 427.879 727.03 416.035 762.851C406.021 793.294 402.073 812.213 402.073 830.171C402.073 842.559 402.554 844 406.021 844C408.139 844 408.91 843.52 409.198 841.791C409.391 840.639 410.258 835.357 411.028 829.979C412.858 818.743 417.769 803.185 423.643 790.797C425.857 785.995 433.176 772.358 439.82 760.45C463.508 718.195 467.552 707.439 471.501 677.86C474.774 652.411 477.374 645.112 486.137 636.373C489.989 632.532 491.337 631.763 494.322 631.763C504.144 631.667 509.922 627.922 509.922 621.584C509.922 614.765 505.781 610.636 498.944 610.636C494.226 610.636 490.856 615.341 488.833 624.849C487.485 631.379 484.693 636.853 481.611 638.774C478.434 640.887 478.53 640.887 477.278 637.429C474.389 629.074 477.086 620.527 485.559 611.98C490.567 606.89 490.759 606.506 489.7 603.913C487.87 599.496 485.463 597.863 481.708 598.535C476.315 599.496 474.871 601.896 475.545 608.715C475.834 611.884 475.93 614.477 475.737 614.477C475.545 614.477 473.426 612.46 471.115 609.963C466.878 605.546 466.686 605.45 463.123 606.314C460.812 606.89 458.982 608.139 458.308 609.483C457.731 610.732 456.768 612.172 456.286 612.652C454.745 614.189 455.997 618.222 458.597 620.239C460.619 621.776 461.967 621.968 466.493 621.584C472.56 620.911 474.678 622.16 474.1 626.193C473.812 628.306 473.619 628.402 464.567 628.114C455.419 627.73 455.227 627.826 453.205 630.323C450.99 633.3 450.605 638.006 452.338 641.847C453.686 644.824 458.693 647.609 464.182 648.473L468.13 649.146L467.36 658.941C464.278 699.66 456.671 726.069 440.59 751.903C436.161 759.009 426.146 772.742 426.146 771.782C426.146 771.494 427.205 765.636 428.554 758.721C442.035 687.079 444.827 662.783 444.923 615.918C444.923 577.312 445.02 577.696 437.124 543.796C431.924 521.227 429.998 508.935 429.998 497.795V489.152L436.257 482.141C454.938 460.725 471.212 453.523 489.989 458.421C496.537 460.149 497.596 459.765 499.618 455.444C503.277 447.761 500.1 440.75 492.204 439.31C487.582 438.445 485.271 439.886 480.071 446.896C477.952 449.777 475.256 452.562 474.197 453.235C472.175 454.291 463.027 454.675 462.064 453.715C461.197 452.851 467.745 441.807 471.501 437.869C476.123 433.067 481.322 430.282 488.256 429.034C495.478 427.69 497.115 428.746 497.981 435.084C499.137 443.439 503.855 445.936 508.959 440.75C514.64 435.18 513.292 429.706 506.07 428.554C501.159 427.786 499.522 426.633 500.966 425.193C502.796 423.368 506.84 423.944 510.692 426.537C517.625 431.339 522.921 431.819 523.981 427.593C524.366 426.345 525.136 424.905 525.81 424.52C526.773 424.04 526.773 423.08 525.906 420.487C524.944 417.51 524.462 417.126 521.188 416.838C519.166 416.646 515.218 417.414 512.233 418.566C506.455 420.679 504.144 420.103 504.144 416.549C504.144 414.437 505.974 413.38 512.811 411.844C520.61 410.019 525.232 408.002 526.388 405.89C527.929 403.009 526.388 395.902 523.692 393.117C521.67 391.196 520.321 390.716 516.181 390.716C508.188 390.716 506.648 392.541 506.263 402.144C505.877 409.827 505.781 410.019 502.314 412.804C500.389 414.437 494.707 417.894 489.7 420.487C484.693 423.08 478.723 426.345 476.508 427.69L472.463 430.186L471.789 427.69C470.056 420.871 473.619 410.787 483.537 394.558L490.952 382.457H496.922C503.566 382.457 508.574 380.056 510.788 376.023C511.848 374.102 511.751 373.238 510.499 370.933C508.477 367.188 507.033 365.459 504.144 363.538C500.966 361.33 500.003 361.426 496.633 364.307Z" fill="url(#paint2_linear_12_99)"/>
<path d="M206.891 191.128C206.607 191.89 206.332 192.632 206.064 193.353C199.042 212.259 197.19 217.245 195.887 225.23C194.074 239.567 191.746 256.031 187.853 281.518C175.071 365.069 173.918 403.815 182.279 471.406C186.507 505.633 195.349 550.053 203.998 579.858C205.247 584.569 206.208 588.607 205.92 588.799C205.055 589.761 190.447 573.032 184.873 564.667C164.884 534.766 153.352 495.73 147.201 436.312C146.232 427.105 145.655 423.325 147.277 421.495C148.551 420.057 151.181 419.822 156.043 419.102C166.037 417.66 168.152 415.93 168.536 409.296C168.92 402.469 167.959 396.316 166.326 394.585C165.557 393.816 162.674 392.759 159.983 392.182C153.64 390.836 148.162 392.182 144.03 396.124C142.278 397.82 141.556 398.519 141.024 398.396C140.652 398.31 140.372 397.821 139.897 396.989C139.225 395.643 139.033 392.855 139.513 389.105C139.848 386.255 139.891 384.684 140.685 384.041C141.712 383.21 143.996 383.933 149.796 385.451C153.928 386.509 154.601 386.509 157.004 384.682C163.058 380.163 163.346 371.126 157.58 365.357C154.505 362.28 153.928 362.088 149.796 362.569C145.183 363.05 143.934 364.011 138.264 371.51L136.053 374.299L137.11 371.414C139.994 363.05 130.287 350.935 122.791 353.723C117.409 355.742 114.815 367.088 118.851 370.837C121.061 372.856 126.251 374.202 128.653 373.337C129.422 372.953 130.383 373.145 130.672 373.626C130.96 374.106 132.113 380.74 133.17 388.336C134.227 395.931 135.573 403.719 136.053 405.546C137.687 411.315 137.399 411.603 133.074 409.199C127.404 406.027 121.157 398.623 118.755 392.47C117.698 389.49 116.545 383.817 116.16 379.875C115.487 371.799 114.43 370.549 107.703 369.491C102.417 368.626 96.3629 370.357 92.2305 374.01C88.8669 376.991 88.7708 377.279 89.1552 382.471C89.4436 386.509 90.3085 388.913 92.6149 392.278C96.1707 397.47 99.1499 398.527 107.991 397.47L113.373 396.797L121.157 404.777C135.477 419.583 138.648 429.102 144.126 474.867C147.105 499.096 153.256 518.036 167.383 546.399C173.918 559.571 179.107 568.417 186.027 578.127C200.827 598.895 207.554 609.278 211.302 616.586C218.413 630.911 223.699 649.371 226.966 672.35C229.081 686.291 229.273 727.537 227.543 747.824C226.87 754.939 225.044 774.457 223.507 791.09C221.969 807.723 220.431 826.471 220.047 832.625L219.374 843.97H228.6C233.359 843.97 235.766 844.238 237.168 843.177C238.908 841.86 239.1 838.496 240.325 830.029C245.034 796.378 244.745 767.63 239.364 710.808C238.018 697.059 236.096 675.619 235.039 663.216C232.637 635.334 229.946 620.912 221.873 593.126C220.659 588.908 219.267 584.062 217.859 579.162C215.257 570.101 212.601 560.856 210.917 555.052C201.019 520.824 198.136 503.422 198.136 478.617C198.04 446.696 201.884 435.639 225.429 399.296C243.4 371.703 246.379 366.03 263.582 326.226C268.867 314.015 276.844 297.19 277.805 296.132C277.997 295.94 279.438 296.421 280.976 297.286C288.28 301.036 297.794 299.978 300.677 295.075C304.521 288.441 303.464 277.768 298.467 272.673C296.256 270.461 294.911 269.981 291.259 269.981C285.589 269.981 283.859 270.942 277.132 277.48L271.654 282.768L271.078 279.307C270.309 275.557 271.462 271.038 275.018 264.02C277.228 259.597 277.901 254.405 276.748 251.328C275.883 249.117 270.02 246.617 267.522 247.29C266.272 247.579 263.87 249.021 262.14 250.463L258.969 253.155L261.948 260.27C267.618 274.211 269.348 286.422 266.753 295.94C265.696 299.978 265.504 300.17 264.158 298.344C261.563 294.882 260.026 290.363 258.969 282.768C257.143 269.596 255.413 267.096 247.725 267.096C240.421 267.096 236 272.096 236 280.46C236 284.691 236.288 285.46 238.979 287.383C242.823 290.075 248.974 290.748 253.491 288.921L257.047 287.479L257.719 293.825C258.584 302.189 257.623 319.688 255.797 328.149C253.587 338.532 248.878 351.224 243.112 362.088C234.655 378.241 226.486 389.586 202.845 418.333C191.312 432.371 190.351 433.332 189.679 431.025C186.603 419.295 186.315 348.339 189.294 321.419C194.099 278.73 203.613 231.426 216.203 187.776C228.408 145.184 246.667 111.34 269.732 88.2655C280.496 77.401 281.745 76.728 290.106 76.4396C299.332 76.1511 301.35 74.6128 301.35 67.9787C301.35 62.21 299.812 58.6526 296.449 56.922C290.394 53.8453 284.916 56.8259 280.496 65.479C276.555 73.2668 273.384 77.6895 270.501 79.2278C266.753 81.1507 265.792 80.9584 265.792 78.1702C265.792 74.8051 267.81 71.0554 271.558 67.5942C275.979 63.5561 280.207 56.6336 280.207 53.557C280.207 51.8263 279.15 49.9996 276.844 47.9805C273.961 45.4807 272.615 45 268.675 45C262.813 45 258.776 46.6345 259.545 48.7497C261.179 53.0762 262.909 62.4985 262.909 67.5942C262.909 74.9974 260.987 82.1122 256.566 90.9575C252.722 98.8415 252.049 98.9376 248.205 91.7267C245.226 86.1503 245.322 74.9012 248.301 65.3828C250.415 58.5565 250.415 58.268 248.782 56.922C246.475 55.1914 241.382 54.23 238.403 54.9991C236.192 55.576 236 56.0567 236 61.2486C236 64.9021 237.249 71.1516 239.844 79.8047C241.958 86.9194 243.977 95.861 244.265 99.6106C244.842 105.956 244.745 106.533 243.112 106.533C239.748 106.533 235.231 102.88 231.579 97.207C229.657 94.1303 227.447 91.246 226.774 90.8614C224.852 89.7077 225.14 87.0156 227.831 80.5738C231.003 73.0745 230.907 69.9978 227.543 66.9211C222.161 61.7293 213.416 61.7293 207.938 66.825C201.691 72.6899 203.613 77.0164 218.509 91.0537C230.907 102.687 234.462 107.014 236.577 113.263C238.21 117.974 237.249 122.782 233.694 127.204C231.483 129.897 231.387 129.993 228.888 128.358C223.891 125.089 223.026 122.493 222.546 109.129L221.969 96.7263L218.894 93.9381C215.242 90.6691 212.167 89.7077 207.746 90.573C199.481 92.1113 192.946 100.861 194.195 108.648C194.676 111.34 195.925 113.744 198.04 115.859C201.019 118.84 201.595 119.032 208.226 119.032C215.146 119.032 215.338 119.128 217.452 122.205C218.702 123.935 220.143 127.877 220.72 130.858C222.257 138.55 220.912 146.145 213.896 167.489C210.821 177.008 208.034 186.526 207.65 188.449C207.448 189.508 207.167 190.461 206.891 191.128Z" fill="url(#paint3_linear_12_99)"/>
</g>
<defs>
<linearGradient id="paint0_linear_12_99" x1="-388.328" y1="977.07" x2="595.048" y2="977.071" gradientUnits="userSpaceOnUse">
<stop stop-color="#4F772D"/>
<stop offset="1" stop-color="#90A955"/>
</linearGradient>
<linearGradient id="paint1_linear_12_99" x1="-388.328" y1="977.07" x2="595.048" y2="977.071" gradientUnits="userSpaceOnUse">
<stop stop-color="#4F772D"/>
<stop offset="1" stop-color="#90A955"/>
</linearGradient>
<linearGradient id="paint2_linear_12_99" x1="352" y1="404.939" x2="527" y2="404.939" gradientUnits="userSpaceOnUse">
<stop stop-color="#4F772D"/>
<stop offset="1" stop-color="#90A955"/>
</linearGradient>
<linearGradient id="paint3_linear_12_99" x1="89" y1="772.821" x2="303" y2="772.821" gradientUnits="userSpaceOnUse">
<stop stop-color="#4F772D"/>
<stop offset="1" stop-color="#90A955"/>
</linearGradient>
<clipPath id="clip0_12_99">
<rect width="628" height="844" fill="white"/>
</clipPath>
</defs>
</svg>
