<svg width="630" height="1184" viewBox="0 0 630 1184" fill="none" xmlns="http://www.w3.org/2000/svg">
<g clip-path="url(#clip0_101_13)">
<path fill-rule="evenodd" clip-rule="evenodd" d="M630 171.786C628.696 172.251 627.472 172.94 626.723 173.689C625.374 175.038 620.17 179.084 615.159 182.359C604.366 189.68 603.595 192.378 611.69 192.378C614.57 192.378 616.015 192.378 616.407 193.02C616.803 193.668 616.128 194.968 614.774 197.58C610.534 205.864 606.294 210.874 604.944 209.525C604.366 208.754 602.632 200.47 601.283 191.029C597.235 164.441 590.104 151.34 573.722 140.165C566.205 134.963 565.434 134.771 565.434 138.046C565.434 140.165 570.253 146.716 576.035 152.689C582.973 159.817 586.635 165.019 586.635 168.102C586.635 172.34 585.671 172.918 575.649 174.267C559.267 176.194 523.804 173.689 509.542 169.45C502.603 167.524 487.57 161.744 475.813 156.735C464.249 151.533 443.434 143.441 429.558 138.239C407.008 130.147 404.502 128.798 405.08 124.945C406.044 118.972 397.949 111.073 377.52 98.5495C354.392 84.0995 300.812 57.897 276.142 48.8417C252.05 39.9791 230.079 34.1991 230.079 36.5111C230.079 36.7154 230.075 36.8959 230.105 37.0702C230.363 38.5399 233.107 39.5732 261.88 50.7684C289.248 61.5576 356.319 93.7328 378.676 107.027C393.131 115.504 401.804 123.596 399.106 126.101C398.527 126.679 386 123.596 371.352 119.55C339.166 110.302 328.373 107.99 331.456 111.265C332.613 112.614 339.937 114.926 347.839 116.66C371.738 121.477 391.204 128.413 433.412 147.101C497.592 175.423 515.709 180.625 559.267 182.166L586.635 183.322V195.846C586.635 207.598 587.213 209.14 592.802 214.92C598.199 220.507 598.97 222.434 598.392 230.526C598.199 235.535 596.079 245.939 593.959 253.645C591.839 261.545 590.682 268.288 591.068 268.866C591.646 269.251 593.766 268.866 595.886 267.71C598.199 266.554 604.559 265.591 610.148 265.591L620.363 265.783L610.919 269.444C602.824 272.719 584.708 287.169 584.708 290.637C584.708 291.215 589.911 291.215 596.272 291.023C607.643 290.252 607.835 290.445 607.835 295.261C607.835 300.271 608.028 300.463 617.472 299.115C625.76 297.959 627.109 298.344 627.109 301.041C627.109 309.711 623.64 311.83 609.377 311.83H595.693L585.671 302.39C572.951 290.252 564.471 287.94 541.343 289.481C528.044 290.445 523.226 291.408 521.106 294.105C519.564 296.032 514.745 299.885 510.313 302.775C506.072 305.665 500.676 310.482 498.556 313.372C491.81 322.427 476.392 352.29 478.319 352.29C479.283 352.29 483.523 351.134 487.57 349.593C491.81 348.244 498.556 346.51 502.796 345.74L510.505 344.198L498.941 352.29C492.581 356.722 483.715 362.502 479.283 365.392C474.85 368.282 470.995 370.979 470.995 371.557C470.995 372.906 490.268 383.695 496.05 385.621C498.749 386.392 506.458 387.741 513.396 388.511L525.924 389.86L512.047 404.117L483.33 394.484C467.526 389.089 453.071 383.117 451.144 380.997C449.216 379.071 443.242 375.025 438.038 372.328C432.641 369.63 423.776 364.428 418.379 360.575C415.584 358.648 412.983 356.818 411.031 355.445C409.08 354.073 407.779 353.157 407.586 353.061C407.2 352.676 408.742 349.978 411.055 346.703C422.426 330.904 416.644 322.812 394.48 323.583C387.349 323.776 379.447 324.932 377.134 325.895C374.05 327.244 371.738 326.858 367.498 323.968C364.607 321.849 357.283 317.996 351.308 315.298L340.515 310.289L341.479 300.463C343.213 282.16 334.54 275.995 302.932 273.105C292.332 272.141 280.189 270.022 275.949 268.481C268.626 265.976 267.662 266.169 265.542 269.059C257.832 279.077 269.011 301.041 284.237 306.629C286.935 307.592 287.128 309.133 285.586 317.803C284.622 323.583 282.888 329.556 281.924 331.482C279.419 336.106 281.346 336.684 303.703 338.033C321.82 339.189 324.325 338.996 331.842 335.143C336.275 332.831 340.9 329.363 342.249 327.436C344.37 323.776 344.755 323.776 354.006 328.592C364.414 333.794 363.836 336.877 352.657 336.877C349.573 336.877 345.526 338.226 343.791 339.767C339.359 343.62 323.94 344.006 276.335 340.923C254.749 339.574 238.174 337.648 237.595 336.492C236.825 335.336 234.319 334.95 231.814 335.528C225.839 337.07 222.37 333.794 222.37 326.28C222.37 316.647 216.202 310.482 204.06 307.784C189.798 304.509 182.088 307.207 166.092 320.5C158.96 326.28 151.637 331.097 149.709 331.097C147.782 331.097 137.567 328.014 127.16 324.354C110.686 318.472 107.458 317.304 106.853 318.108C106.665 318.357 106.73 318.797 106.73 319.344C106.73 321.656 133.52 334.18 146.047 337.84C151.444 339.382 166.67 342.272 179.968 344.198L204.06 347.666V354.024C204.06 359.804 203.289 360.768 193.074 365.006C183.052 369.245 181.896 369.245 176.306 366.548C173.03 365.006 168.79 364.043 166.863 364.621C164.935 365.392 160.502 364.428 157.033 362.694C152.6 360.575 148.36 359.997 142.964 360.768C131.4 362.694 128.123 365.199 123.883 374.832C121.763 379.649 119.643 383.117 118.872 382.539C118.294 381.768 118.679 380.227 119.836 378.878C120.799 377.53 122.148 374.254 122.534 371.557C123.112 367.318 122.148 366.548 113.668 364.428C101.719 361.538 90.5403 363.465 78.9763 370.786C74.158 373.869 70.3033 376.952 70.1106 377.53C70.1106 378.108 73.7725 379.841 78.3981 381.383L86.4929 384.08L73.387 384.658C62.2085 385.236 60.2812 385.621 60.8594 388.511C61.6303 392.172 67.4123 392.172 104.417 389.86L122.148 388.511V394.484C122.148 397.567 121.378 402.383 120.221 405.081C119.257 407.778 119.065 410.09 119.836 410.09C126.967 410.09 157.226 405.659 162.237 404.117C172.066 400.842 181.51 391.594 183.052 383.887C184.208 377.915 185.558 376.566 194.809 372.328C195.38 372.088 195.943 371.852 196.494 371.621C201.7 369.437 205.831 367.704 206.18 367.704C206.566 367.704 206.951 370.208 206.951 373.291C206.951 376.566 207.722 379.649 208.878 380.227C211.384 381.768 234.512 377.144 236.825 374.447C237.981 373.291 242.799 370.786 248.003 368.86C257.832 365.199 262.844 359.804 262.844 352.676V348.244L286.55 349.786C316.231 351.712 333.577 351.712 340.515 349.786C345.526 348.437 345.719 348.63 343.791 352.483C342.442 354.602 342.057 357.107 342.828 357.685C345.14 359.997 377.327 363.08 384.265 361.731C387.927 360.96 393.709 359.804 396.793 359.226C400.648 358.456 403.924 359.034 406.43 360.96L410.284 364.043L406.43 366.162C398.72 370.594 391.975 379.841 388.891 390.053L386 400.264L369.232 399.301C359.981 398.723 349.381 396.989 345.526 395.64C338.202 392.943 326.06 394.484 323.554 398.53C322.783 399.686 313.725 400.457 303.317 400.457C286.164 400.457 283.851 400.842 278.84 405.081C275.949 407.393 268.626 411.053 262.844 412.98C246.847 418.182 226.802 427.815 229.693 428.779C231.235 429.357 241.45 427.43 252.436 424.54C263.422 421.457 273.058 419.531 273.637 420.301C275.564 422.228 272.673 428.201 266.698 434.751C259.76 442.458 259.567 443.999 265.349 445.541C279.611 449.394 299.27 444.963 306.594 436.293C310.063 432.439 311.219 431.669 310.256 434.173C309.484 436.295 306.401 444.772 303.317 452.862L297.728 467.89H308.907C349.188 467.89 390.818 436.293 379.832 414.136L376.749 407.971L383.88 409.319C387.734 409.897 396.215 411.631 402.575 412.98C428.979 418.953 436.11 419.723 468.682 419.723H502.796L502.603 435.137C502.411 443.614 501.254 451.706 500.098 453.247C497.399 456.522 497.785 456.715 511.469 461.146C524.382 465.385 545.968 465.578 557.147 461.532L565.049 458.449L563.121 464.229L561.194 469.816H528.622C470.995 469.816 455.576 472.899 411.826 492.744C387.734 503.726 368.847 510.276 344.562 516.056C331.02 519.249 326.793 520.325 325.819 519.005C325.324 518.333 325.67 517.041 326.06 515.093C327.795 505.074 318.543 501.606 306.594 507.579C304.41 508.67 300.164 511.06 295.491 513.69C292.74 515.238 289.841 516.869 287.128 518.368C273.637 526.267 272.866 529.157 284.044 529.735C287.513 529.928 246.654 544.571 242.028 544.956C241.836 544.956 242.992 542.837 244.534 540.332C248.774 533.781 245.69 528.387 235.09 523.763C221.599 517.79 212.54 517.02 203.867 521.451C195.002 526.075 173.223 548.617 175.535 550.736C176.306 551.699 181.51 554.011 186.714 556.131L196.351 559.984L190.569 562.296C187.485 563.645 178.041 567.113 169.946 570.003L155.299 575.59L148.167 568.847C138.145 559.406 130.821 556.131 117.137 554.975C101.912 553.819 100.177 556.516 110.97 564.415C122.919 573.085 129.858 576.361 138.531 577.709L146.24 578.865L132.556 582.141C110.006 587.342 83.9873 588.306 55.6556 584.645C37.346 582.333 29.2512 580.407 25.3965 577.517L20 573.663V578.287C20 582.526 21.1564 583.104 29.8294 584.26C38.1169 585.416 39.2733 585.994 36.575 587.92C35.0332 589.269 32.1422 594.086 30.6003 598.902C28.8657 603.526 26.3602 609.306 24.8183 611.618C22.1201 615.857 22.3128 616.05 35.4186 618.362C64.9068 623.564 86.6856 611.618 77.8199 594.856C75.8926 591.388 76.6635 591.196 96.515 591.196L117.33 591.388L110.584 594.856C106.923 596.976 99.7914 602.37 94.7804 606.994C85.9147 615.279 85.5292 615.857 85.5292 626.454V637.243L104.995 630.692C126.196 623.371 135.447 618.554 141.422 611.04C145.469 605.838 146.626 594.278 143.156 592.159C140.073 590.04 158.382 582.333 189.027 572.893C204.445 568.076 217.359 564.223 217.937 564.223C218.322 564.223 216.588 566.92 213.889 570.195C207.722 577.517 207.529 588.498 212.54 617.206L216.009 636.472L221.599 635.894C236.439 634.353 259.567 616.435 266.505 600.829C273.444 585.608 270.938 566.535 260.916 556.516C258.603 554.204 257.062 552.085 257.447 551.699C258.218 551.121 329.915 527.616 331.264 527.616C331.842 527.616 329.336 531.469 325.674 536.286C316.038 548.809 314.303 555.553 316.809 571.159C317.965 578.287 319.314 584.838 319.892 585.608C321.434 588.113 332.035 583.875 341.864 576.746C354.006 567.883 362.679 557.865 367.305 547.461C371.545 538.02 370.388 534.552 360.945 527.038L354.777 522.222L365.185 519.332C370.967 517.598 382.916 514.515 391.975 512.203C419.728 505.267 440.736 498.524 449.216 493.9C460.588 487.734 467.333 486.578 483.715 488.12C496.436 489.276 497.978 489.854 497.978 493.322C497.978 502.377 492.774 513.552 485.257 521.066L477.355 528.965L461.358 528.194C442.663 527.423 442.085 527.809 442.085 542.451C442.085 550.158 441.121 553.626 437.845 557.287C433.027 562.489 413.368 572.7 369.81 592.737C336.853 607.765 310.449 622.6 315.074 623.564C318.158 624.142 388.698 592.93 416.066 579.058C429.943 571.737 433.219 570.966 449.409 570.003C459.046 569.425 467.14 569.425 467.14 569.81C467.14 570.195 464.828 573.663 462.129 577.131C454.227 587.535 459.238 589.269 467.719 579.251C469.129 577.639 470.75 575.771 472.41 573.857C475.515 570.278 478.757 566.541 481.017 564.03C484.486 560.177 487.956 554.589 488.726 551.507C490.461 544.956 488.726 533.011 485.643 531.084C484.294 530.121 491.232 521.836 503.76 509.12L523.997 488.698L565.434 489.854C597.428 490.817 609.185 490.432 617.087 488.505L627.109 485.808V497.753C627.109 504.893 627.893 509.812 630 514.769V171.786ZM491.232 407.2L475.813 400.649C471.851 399.029 467.973 397.409 464.848 396.103C461.284 394.614 458.698 393.533 458.082 393.328C456.733 392.75 455.576 393.521 455.576 395.062C455.576 398.337 448.445 405.081 443.242 407.007C441.314 407.585 439.965 408.356 440.351 408.741C440.736 408.934 452.493 408.741 466.177 408.163L491.232 407.2ZM313.34 414.907C313.34 417.989 313.725 419.145 314.303 417.219C314.689 415.485 314.689 412.787 314.303 411.439C313.725 410.283 313.34 411.631 313.34 414.907Z" fill="black" fill-opacity="0.1"/>
<path d="M630 645.205C626.196 643.447 621.299 641.714 614.388 639.555C603.595 636.28 594.151 633.582 593.381 633.582C589.651 633.582 615.15 655.645 630 665.94V645.205Z" fill="black" fill-opacity="0.1"/>
<path d="M630 676.664C629.631 676.874 629.245 677.091 628.843 677.317C602.054 692.153 577.769 699.089 552.136 699.089H541.343L538.837 685.987C534.79 664.409 524.96 647.454 512.625 640.904C509.542 639.17 509.156 639.555 510.12 643.023C511.26 647.581 511.089 647.459 498.162 638.228L497.592 637.821C492.388 634.16 488.341 631.656 488.341 632.234C488.341 632.812 490.461 637.05 493.159 641.482C498.941 651.886 499.134 653.62 493.93 652.271C488.919 650.922 489.497 652.464 500.869 670.189C505.687 677.703 509.156 684.639 508.385 685.409C507.807 685.987 506.265 684.831 504.916 682.712C500.676 675.198 484.486 659.399 476.97 655.161L469.261 650.73L472.151 658.051C473.472 661.132 475.352 665.107 476.769 668.104C477.213 669.042 477.612 669.885 477.933 670.574C481.403 677.125 481.017 677.125 467.911 671.152C462.129 668.455 455.191 666.335 452.493 666.335C445.169 666.335 435.532 670.959 430.907 676.739C426.667 682.327 414.332 710.456 415.681 711.805C418.572 714.695 470.995 699.667 490.654 690.226C494.701 688.299 498.556 687.336 499.134 688.107C501.061 690.033 490.654 697.74 481.017 701.401C476.392 703.135 467.911 708.337 462.129 712.961C458.278 715.941 453.786 719.322 450.202 722.019C448.226 723.507 446.526 724.786 445.362 725.677C427.823 738.392 417.03 753.998 417.03 766.714C417.03 773.843 422.619 784.44 429.172 789.642C433.219 793.11 433.412 792.917 438.809 780.201C441.7 773.265 448.638 761.32 454.035 753.998C459.624 746.484 465.406 735.695 467.333 729.915C469.839 721.823 471.959 718.548 476.584 715.658L482.752 711.997L481.788 722.979C481.017 732.998 482.559 736.658 485.45 731.842C487.763 728.181 501.64 722.209 508.193 722.209C511.662 722.209 518.986 720.089 524.189 717.392C532.091 713.346 536.332 712.575 550.016 712.575C568.325 712.575 575.649 710.841 607.835 699.089C617.078 695.695 624.256 693.073 630 691.03V676.664Z" fill="black" fill-opacity="0.1"/>
<path d="M630 721.651C629.642 721.48 629.259 721.279 628.843 721.053C619.592 716.043 613.232 717.777 598.97 728.952C591.646 734.924 582.78 740.704 579.504 741.86C576.035 743.209 573.144 744.75 573.144 745.328C573.144 746.677 598.006 752.842 606.294 753.613L611.305 753.998L601.861 769.412C596.657 777.889 582.587 802.358 570.831 823.743L549.437 862.662L543.077 849.368C534.211 830.679 519.757 818.156 503.181 814.303C490.654 811.606 481.21 817.385 453.649 845.129C440.158 858.616 428.208 871.525 426.859 874.029C424.739 878.075 424.932 878.268 431.485 878.268C440.158 878.268 449.602 882.314 461.358 890.599C474.272 899.846 486.992 903.892 498.941 902.351C511.854 900.81 527.466 891.754 533.826 882.121C536.717 877.882 539.415 874.8 539.993 875.378C543.077 878.461 499.905 934.141 473.308 960.921L455.191 979.417L452.493 973.252C446.325 958.609 435.918 959.38 406.237 976.527C393.324 983.849 381.567 990.014 380.218 990.207C376.941 990.207 405.851 999.262 414.91 1001L421.463 1002.15L412.982 1006.58C408.357 1008.9 400.262 1011.59 394.866 1012.17C389.662 1012.94 382.145 1014.68 378.291 1016.02C364.607 1021.03 301.39 1027.2 313.532 1022.57C316.423 1021.42 318.736 1019.68 318.351 1018.91C317.387 1016.6 294.259 997.721 292.139 997.721C289.055 997.721 285.393 1008.7 286.742 1014.1C287.321 1016.6 290.404 1020.07 293.295 1021.61C297.921 1024.31 294.259 1024.5 253.207 1024.5C228.344 1024.5 206.18 1023.73 204.253 1022.96C200.976 1021.8 201.362 1021.23 206.758 1018.91C213.697 1016.22 219.479 1008.7 217.937 1004.85C216.202 1000.03 190.954 964.968 189.412 964.968C188.449 964.968 187.678 967.857 187.678 971.325C187.678 975.179 185.172 981.151 181.125 987.124C173.608 998.491 173.994 1001 185.75 1012.56L194.038 1020.46L184.594 1018.53C182.307 1018.11 179.797 1017.61 177.488 1017.15C174.544 1016.57 171.929 1016.05 170.524 1015.83C167.055 1015.06 166.477 1014.29 168.212 1012.56C173.994 1006.78 167.633 997.913 143.542 978.839C133.327 970.747 124.461 963.233 123.69 962.27C121.763 959.38 121.185 960.729 118.679 974.986C115.017 995.216 119.836 1003.5 140.651 1012.36C147.396 1015.25 152.986 1018.72 152.986 1019.88C152.986 1022.57 158.96 1024.69 166.092 1024.69C168.404 1024.69 170.332 1025.27 170.332 1026.04C170.332 1027.01 164.55 1031.82 157.611 1037.02C150.92 1042.11 147.285 1044.76 147.643 1046.65C148.058 1048.85 153.848 1050.03 166.477 1052.82C182.281 1056.1 189.412 1054.75 198.663 1046.85C205.024 1041.26 205.795 1039.91 203.674 1036.64C201.554 1032.98 201.747 1032.79 207.529 1034.52C215.238 1036.64 308.328 1036.64 329.336 1034.33C337.817 1033.56 344.948 1032.98 345.14 1033.17C345.333 1033.36 337.624 1036.83 327.795 1040.88C317.965 1044.92 297.921 1054.56 283.08 1062.26C261.302 1073.63 253.4 1076.71 241.836 1078.45C225.261 1080.95 222.177 1080.18 235.283 1076.71L235.989 1076.53C249.551 1073.05 249.725 1073.01 248.967 1070.36C248.389 1069.2 244.919 1067.85 240.872 1067.47C235.09 1066.89 231.235 1068.43 222.37 1074.21C216.009 1078.25 210.998 1082.11 210.806 1082.88C210.806 1083.65 217.551 1084.42 225.839 1084.81L240.679 1085.38L228.73 1092.7C222.177 1096.75 210.035 1104.84 201.747 1110.82L186.907 1121.41L174.572 1120.26C157.033 1118.52 141.807 1112.16 137.76 1105.42C133.905 1098.48 132.363 1098.48 130.821 1105.42C128.509 1116.21 137.567 1139.52 146.24 1145.3C150.673 1148.19 152.6 1148.19 163.008 1146.07C172.066 1144.15 178.041 1141.06 188.449 1133.16L202.133 1122.95L202.711 1135.48C203.096 1142.41 203.867 1148 204.638 1148C209.456 1147.61 233.548 1128.54 236.825 1122.38C240.486 1115.44 240.486 1115.05 237.21 1109.27C235.283 1105.81 234.126 1102.92 234.319 1102.72C239.716 1097.52 316.616 1057.45 336.082 1049.74C346.104 1045.69 378.483 1034.33 379.832 1034.33C380.218 1034.33 379.832 1035.87 378.869 1037.6C377.905 1039.53 376.363 1047.04 375.785 1054.56C375.014 1061.88 373.858 1071.9 373.279 1076.52L372.123 1085.19L377.52 1080.95C380.411 1078.64 389.662 1074.59 398.142 1072.09C419.535 1065.35 429.365 1059.37 434.183 1049.16C441.121 1034.71 438.809 1026.24 425.896 1019.49C422.426 1017.57 422.426 1017.37 426.859 1015.06C437.074 1009.86 459.431 991.555 472.344 978.261C489.497 960.344 537.102 903.507 539.223 898.305C539.415 898.112 541.149 897.535 543.461 896.764L543.463 896.764C547.125 895.608 547.703 896.378 548.666 906.204C550.401 923.737 558.11 935.104 576.805 947.628C583.965 952.424 588.145 954.453 590.022 957.78C592.897 962.872 590.379 971.005 584.9 996.757C581.817 1011.59 579.504 1023.92 579.889 1024.31C580.275 1024.69 585.093 1011.01 590.682 994.06L600.897 963.041L606.294 968.243C609.185 970.94 612.076 975.757 612.654 978.839L614.003 984.427L620.749 975.564C624.381 970.745 627.47 965.836 630 960.851V886.665C629.936 886.561 629.871 886.459 629.807 886.36C628.072 883.855 627.109 881.543 627.494 881.351C627.669 881.176 628.593 880.725 630 880.124V862.137C626.748 867.635 623.752 872.303 622.098 874.222C621.519 874.8 618.436 872.488 614.967 869.213C603.017 857.845 584.322 851.487 572.373 854.763C568.518 855.919 565.434 856.497 565.434 856.111C565.434 855.533 592.417 805.633 605.137 782.32L610.726 772.302L614.581 776.926C615.111 777.552 615.834 778.395 616.683 779.385C619.231 782.356 622.917 786.655 625.952 790.412C627.709 792.552 629.043 794.239 630 795.593V779.258L617.665 762.283L621.712 756.118C623.501 753.354 627.075 749.767 630 747.44V721.651Z" fill="black" fill-opacity="0.1"/>
<path d="M630 801.843C628.636 802.586 627.177 803.128 626.531 803.128C625.181 803.128 617.858 817.193 610.148 834.34C608.989 836.824 620.214 836.034 630 833.562V801.843Z" fill="black" fill-opacity="0.1"/>
<path d="M472.618 188.821L472.891 191.18L472.891 191.182C475.205 211.214 475.815 216.498 478.274 224.206C483.158 237.806 488.548 253.536 496.634 278.018C523.126 358.282 539.666 393.34 577.765 449.792C597.053 478.382 625.074 513.963 646.297 536.607C649.547 540.239 652.234 543.403 652.065 543.705C651.73 544.954 631.125 536.667 622.364 531.738C530.855 480.442 526.125 374.248 450.118 255.785C445.079 248.017 450.81 247.069 451.425 244.702C451.909 242.843 454.146 241.441 458.154 238.596C466.408 232.778 467.508 230.277 464.842 224.19C462.09 217.931 458.443 212.883 456.202 212.081C455.168 211.744 452.119 212.109 449.459 212.815C443.196 214.491 438.924 218.174 437.028 223.562C436.235 225.868 435.909 226.818 435.379 226.95C435.008 227.042 434.537 226.732 433.737 226.207C432.527 225.312 431.091 222.914 429.82 219.354C428.826 216.662 428.152 215.242 428.568 214.309C429.107 213.103 431.47 212.712 437.328 211.435C441.491 210.504 442.091 210.199 443.404 207.482C446.751 200.709 442.91 192.523 435.155 189.996C431.019 188.648 430.418 188.738 426.953 191.04C423.059 193.56 422.382 194.984 420.728 204.239L420.022 207.726L419.657 204.676C418.434 195.913 404.29 189.517 398.873 195.401C394.992 199.641 397.823 210.929 403.121 212.441C406.006 213.238 411.242 212.085 412.991 210.224C413.502 209.533 414.446 209.268 414.921 209.566C415.396 209.864 419.431 215.254 423.817 221.544C428.204 227.835 432.934 234.166 434.19 235.576C438.262 239.977 438.136 240.365 433.192 240.183C426.699 239.926 417.775 236.16 412.844 231.765C410.55 229.588 406.95 225.055 404.82 221.716C400.559 214.823 399.05 214.188 392.574 216.296C387.471 217.921 382.859 222.209 380.833 227.339C379.186 231.521 379.231 231.821 381.928 236.274C384.016 239.743 385.876 241.493 389.458 243.446C394.981 246.462 398.116 246.053 405.517 241.102L410.009 238.062L420.565 241.645C440.041 248.349 447.184 255.395 545.329 470.176C558.97 490.42 573.04 504.513 598.491 523.387C610.289 532.164 618.925 537.695 629.495 543.213C652.102 555.012 662.806 561.217 669.46 566.03C682.294 575.574 695.375 589.631 708.706 608.631C716.912 620.098 735.785 656.773 743.442 675.639C746.068 682.286 753.29 700.509 759.462 716.032C765.633 731.554 772.763 748.962 775.211 754.62L779.755 765.037L787.978 760.854C792.22 758.696 794.486 757.844 795.255 756.263C796.209 754.3 794.855 751.214 792.107 743.112C781.046 710.984 767.754 685.492 737.194 637.287C729.76 625.643 718.326 607.405 711.76 596.829C696.976 573.067 688.039 561.433 668.245 540.328C665.315 537.188 661.962 533.591 658.563 529.944L658.337 529.702L658.327 529.691C651.902 522.798 645.347 515.767 641.217 511.36C616.875 485.341 606.415 471.138 595.168 449.029C580.609 420.622 579.022 409.024 583.529 365.956C587.035 333.213 587.118 326.806 584.402 283.529C583.577 270.249 583.058 251.636 583.435 250.258C583.519 249.999 585.021 249.774 586.784 249.848C594.994 249.878 602.995 244.622 603.341 238.944C603.759 231.288 597.978 222.256 591.214 219.98C588.241 219.011 586.824 219.193 583.569 220.848C578.515 223.419 577.409 225.061 574.378 233.938L571.893 241.135L569.81 238.311C567.424 235.318 566.403 230.767 566.39 222.899C566.355 217.955 564.6 213.023 562.177 210.803C560.404 209.225 554.045 209.655 552.124 211.387C551.141 212.211 549.653 214.586 548.765 216.656L547.159 220.493L553.041 225.484C564.416 235.338 571.494 245.437 573.497 255.097C574.386 259.176 574.302 259.434 572.274 258.416C568.392 256.508 564.973 253.177 560.586 246.887C552.987 235.975 550.311 234.531 543.459 238.017C536.949 241.329 535.276 247.789 539.068 255.245C540.986 259.015 541.592 259.57 544.862 260.064C549.509 260.72 555.296 258.531 558.494 254.855L561.009 251.957L564.486 257.308C569.05 264.371 576.127 280.404 578.336 288.773C581.074 299.03 582.632 312.477 582.418 324.775C582.204 343.006 580.068 356.821 572.031 393.163C568.117 410.904 567.697 412.196 566.051 410.445C557.991 401.384 525.562 338.273 516.011 312.928C500.938 272.7 487.97 226.225 479.399 181.611C473.35 150.414 472.117 121.817 475.628 96.6912C475.698 93.1919 492.507 93.4194 504.757 90.2681C506.267 89.798 510.687 88.9939 508.396 83.3389C506.965 79.8099 503.858 79.979 499.947 80.6707C487.951 82.7921 475.648 95.6914 476.504 91.0661C477.093 87.6351 477.775 84.273 478.549 80.9821C478.584 80.8316 478.62 80.6812 478.655 80.5309C486.215 74.443 495.599 71.3466 505.412 71.3492C512.185 71.3709 513.113 70.7321 513.98 66.0403C515.584 57.6832 510.741 51.7004 502.737 52.2973C498.046 52.6263 496.173 54.603 492.909 62.6981C491.585 66.0202 489.678 69.395 488.823 70.3126C487.132 71.8447 481.595 74.4683 480.421 73.7818C480.916 72.0484 481.439 70.3366 481.989 68.6468C486.656 54.0829 487.465 52.9166 494.786 48.8685C502.878 44.4283 503.979 42.1421 500.971 36.2292C498.356 31.0875 495.372 28.614 491.59 28.5966C484.798 28.5996 481.267 33.7399 481.251 43.4568C481.27 52.1846 480.448 57.5645 478.576 60.2429C476.108 63.6562 475.164 63.9206 473.9 61.4354C472.374 58.4361 472.472 54.179 474.244 49.3946C476.353 43.791 476.983 35.7037 475.588 32.9615C474.803 31.419 473.033 30.2701 470.062 29.5163C466.358 28.5955 464.941 28.7771 461.429 30.5637C456.204 33.2217 453.348 36.5087 454.992 38.0453C458.41 41.1608 464.224 48.7745 466.535 53.3163C469.891 59.9147 471.404 67.1276 471.475 77.0159C471.623 85.7859 471.067 86.1766 464.371 81.4925C459.188 77.873 454.173 67.8032 452.512 57.9687C451.301 50.9257 451.171 50.6686 449.104 50.2097C446.264 49.713 441.288 51.1655 438.981 53.2019C437.273 54.7183 437.32 55.2339 439.674 59.8614C441.33 63.1178 445.277 68.1214 451.514 74.6574C456.624 80.0401 462.477 87.0946 464.434 90.306C467.825 95.7004 468.001 96.2581 466.545 96.9989C463.547 98.524 457.865 97.3156 452.038 93.9154C448.93 92.0447 445.652 90.4761 444.878 90.4383C442.642 90.2815 441.678 87.7513 441.155 80.7897C440.582 72.6676 439.101 69.9689 434.708 68.7518C427.557 66.5645 419.763 70.5297 417.191 77.5552C414.283 85.6149 417.957 88.5997 437.599 94.357C453.923 99.1049 459.054 101.349 463.772 105.961C467.364 109.419 468.687 114.139 467.524 119.693C466.774 123.095 466.732 123.224 463.764 122.9C457.828 122.253 455.88 120.331 449.392 108.637L443.254 97.8443L439.249 96.7536C434.512 95.4958 431.335 96.0332 427.787 98.8089C421.118 103.927 419.261 114.689 423.906 121.063C425.554 123.245 427.758 124.821 430.601 125.748C434.608 127.053 435.209 126.963 441.12 123.957C447.287 120.819 447.502 120.818 450.781 122.601C452.679 123.577 455.751 126.437 457.617 128.832C462.475 134.991 464.72 142.371 468.145 164.576C469.719 174.454 471.551 184.201 472.081 186.089C472.381 187.124 472.563 188.101 472.618 188.821Z" fill="url(#paint0_linear_101_13)"/>
<path d="M519.915 597.034C520.394 599.022 523.011 603.971 525.817 607.934C528.664 612.027 532.383 617.77 534.091 620.725C537.047 625.853 537.084 626.198 534.895 626.033C533.006 625.916 531.445 624.341 526.83 618.239C521.084 610.569 521.084 610.569 517.898 610.862C513.419 611.348 511.466 612.392 509.91 615.165C507.46 619.86 508.536 624.441 513.028 627.872C515.826 629.983 515.826 629.983 513.375 634.679C510.115 641.341 510.777 645.053 515.707 648.061C522.591 652.306 527.726 651.184 531.583 644.833C533.58 641.422 533.709 641.381 537.552 642.735C543.702 644.859 559.599 654.459 564.501 658.973C570.964 665.061 579.886 677.647 583.262 685.709C587.051 694.437 589.569 706.655 590.857 712.908L590.858 712.913L590.861 712.925C591.043 713.808 591.2 714.571 591.333 715.189C591.486 715.9 585.736 713.613 579.227 711.024C555.435 700.861 514.215 688.968 489.82 671.783C468.773 657.105 463.506 651.423 459.813 639.611C458.19 634.419 458.132 632.868 459.514 630.222C463.973 621.47 463.326 614.615 457.707 611.683C451.662 608.528 446.086 610.288 442.922 616.349C440.739 620.532 443.351 625.697 450.844 631.889C456.01 636.105 459.57 641.114 459.847 644.734C460.25 648.529 460.295 648.443 456.651 647.954C447.907 646.649 441.577 640.304 437.921 628.837C435.726 622.043 435.474 621.694 432.685 621.434C427.923 621.012 425.361 622.39 424.22 626.031C422.576 631.256 424.036 633.647 430.393 636.204C433.336 637.414 435.679 638.529 435.59 638.7C435.501 638.87 432.733 639.815 429.45 640.709C423.573 642.421 423.399 642.547 422.517 646.106C421.958 648.421 422.219 650.621 423.099 651.84C423.938 652.93 424.77 654.45 424.972 655.099C425.622 657.176 429.777 657.933 432.768 656.561C435.065 655.479 435.859 654.373 437.613 650.183C439.824 644.494 441.911 643.193 445.219 645.572C446.959 646.805 446.955 647.021 442.511 654.912C437.938 662.844 437.934 663.059 439.212 666.007C440.826 669.348 444.82 671.867 449.027 672.107C452.29 672.29 457.076 669.139 460.382 664.673L462.805 661.484L471.132 666.7C505.804 688.272 567.601 714.377 590.245 723.714C605.386 727.681 612.124 730.876 618.607 733.952C627.601 738.217 636.107 742.251 665.873 747.792L651.501 732.838C629.088 727.006 617.299 723.026 607.423 717.871L599.761 713.872L596.442 705.079C586.1 678.609 587.245 660.85 600.275 646.47C604.837 641.465 604.987 640.348 602.091 636.556C596.973 629.757 589.288 629.33 584.357 635.664C581.453 639.362 581.66 642.077 585.469 649.93C587.043 653.141 588.265 656.82 588.371 658.07C588.371 660.352 584.479 668.639 583.182 669.049C582.015 669.417 575.254 658.502 573.501 653.351C571.383 647.032 571.32 641.133 573.421 634.409C575.571 627.385 577.265 626.422 583.285 628.587C591.226 631.428 595.623 628.401 593.387 621.477C591.078 613.863 585.601 612.525 581.238 618.394C578.285 622.393 576.506 623.311 575.897 621.364C575.126 618.897 577.508 615.579 581.589 613.364C589.054 609.439 591.93 604.966 588.674 602.072C587.745 601.153 586.825 599.803 586.796 599.028C586.816 597.952 585.964 597.508 583.265 597.077C580.18 596.553 579.617 596.802 577.846 599.571C576.741 601.275 575.595 605.13 575.235 608.31C574.435 614.409 572.855 616.192 569.705 614.547C567.832 613.57 567.742 611.459 569.543 604.687C571.534 596.928 571.885 591.898 570.547 589.896C568.706 587.197 561.693 585.274 557.976 586.376C555.338 587.28 554.288 588.253 552.372 591.924C548.674 599.009 549.579 601.219 557.915 606.004C564.547 609.9 564.673 610.075 565.538 614.436C566.094 616.899 566.53 623.535 566.512 629.174C566.494 634.813 566.626 641.616 566.794 644.202L567.136 648.943L564.61 648.385C557.764 646.767 550.473 638.942 540.674 622.64L533.377 610.468L536.14 605.176C539.214 599.285 539.402 593.735 536.851 589.906C535.639 588.078 534.828 587.764 532.206 587.807C527.95 587.867 525.749 588.347 522.71 590.02C519.281 591.815 518.921 592.713 519.915 597.034Z" fill="url(#paint1_linear_101_13)"/>
</g>
<defs>
<linearGradient id="paint0_linear_101_13" x1="648.965" y1="534.718" x2="371.653" y2="220.152" gradientUnits="userSpaceOnUse">
<stop stop-color="#4F772D"/>
<stop offset="1" stop-color="#90A955"/>
</linearGradient>
<linearGradient id="paint1_linear_101_13" x1="650.268" y1="740.728" x2="450.272" y2="645.187" gradientUnits="userSpaceOnUse">
<stop stop-color="#4F772D"/>
<stop offset="1" stop-color="#90A955"/>
</linearGradient>
<clipPath id="clip0_101_13">
<rect width="630" height="1184" fill="white" transform="matrix(-1 0 0 1 630 0)"/>
</clipPath>
</defs>
</svg>
