<svg width="731" height="578" viewBox="0 0 731 578" fill="none" xmlns="http://www.w3.org/2000/svg">
<g clip-path="url(#clip0_57_82)">
<path d="M52.2333 243.667C46.7666 240.467 47.0333 240.333 33.1666 252.2L0 260.5V291L58.7666 277.533C75.0333 271.133 81.4333 271.667 83.1666 279.533L83.9666 283.4L91.1666 279.4C97.7 275.933 98.3666 275.133 97.7 271.933C97.1666 269.4 97.8333 267.133 99.5667 265C102.1 261.8 102.767 261.667 119.967 261.667C129.833 261.667 156.767 262.467 179.833 263.4C229.033 265.533 232.233 266.2 277.433 283C299.7 291.4 305.433 293.933 309.567 298.067C315.7 303.933 316.767 307.4 313.967 312.6C310.5 319.4 309.167 319.933 301.033 316.733C296.5 315 290.367 313.933 284.5 313.8C276.633 313.667 274.233 314.2 269.167 317.267C263.033 320.867 257.033 328.067 252.1 337.933C248.9 344.2 242.1 366.333 243.033 367.4C243.433 367.667 246.1 367 249.167 365.8C253.033 364.333 258.767 363.667 268.9 363.667C287.167 363.667 295.3 361.4 301.3 354.733C306.767 348.333 310.367 340.067 311.433 331.267C311.967 326.333 313.3 323 316.1 319.667C318.233 317.133 321.167 313.533 322.633 311.933C325.833 307.933 325.833 307.933 321.7 301.933C319.833 299.133 318.5 296.6 318.767 296.333C319.033 296.067 324.9 296.333 331.833 297C338.767 297.8 346.233 298.2 348.5 297.933L352.5 297.667L353.3 307.667C354.233 318.6 356.5 324.333 362.1 329.667C368.9 335.8 386.1 339.533 400.367 337.8L407.833 336.867L404.5 332.333C402.633 329.933 399.567 323.4 397.7 317.8C393.833 306.467 390.233 300.6 384.767 296.467C381.433 294.067 379.033 293.667 366.633 293.533C358.767 293.533 351.7 293.133 351.033 292.6C350.233 292.2 346.1 291.4 341.7 291C337.433 290.6 330.767 289.933 327.167 289.533C321.3 288.733 258.367 264.867 255.433 262.333C254.767 261.667 272.767 261.4 295.433 261.533C339.967 261.667 343.167 261.267 349.567 254.6C351.433 252.6 357.033 244.333 361.967 236.333C373.433 217.267 378.5 211.133 385.433 207.8C388.633 206.333 400.1 203.667 411.167 201.8C440.1 196.867 450.233 193.933 463.567 186.333C475.833 179.267 485.033 175.4 497.033 172.2C506.767 169.667 512.633 169.8 524.9 172.867C530.5 174.333 539.967 175.933 545.833 176.333C558.367 177.4 564.9 180.2 573.3 188.067C576.633 191.267 581.3 195.133 583.567 196.867C585.967 198.6 589.7 203 591.833 206.733L595.7 213.4L590.767 217.267C584.5 222.333 577.033 232.333 572.233 242.067C569.167 248.333 568.5 251.4 568.5 259.8C568.633 274.2 574.5 286.067 590.1 302.333C599.433 312.067 614.767 325.267 621.967 329.4C622.9 329.933 623.167 327.933 622.767 323C621.967 313.4 623.833 306.6 632.9 285.667C639.7 269.8 640.367 267.533 640.367 258.333C640.5 250.067 639.833 247.133 636.9 241.533C631.7 231.533 621.167 220.733 611.833 215.8C604.9 212.067 603.3 210.467 599.967 203.933C595.3 194.6 590.233 189 586.5 189C583.167 189 556.633 171.533 558.1 170.333C558.633 169.8 564.233 168.333 570.5 167.133C576.767 165.933 583.167 164.6 584.767 164.2C587.167 163.533 588.1 164.067 589.033 166.733C590.233 169.8 592.9 171.667 595.967 171.667C596.767 171.667 597.033 169.267 596.367 165.667L595.567 159.667H600.233C602.767 159.667 605.167 160.467 605.567 161.267C605.967 162.467 607.967 161.267 611.3 158.067C614.233 155.4 618.767 152.2 621.433 151.133L626.367 149L631.167 155.667C636.5 162.867 645.7 170.2 654.633 174.333C671.967 182.2 694.367 173.133 718.767 148.333C725.3 141.8 730.5 136.067 730.5 135.4C730.5 134.867 729.033 134.333 727.167 134.333C719.433 134.333 709.833 131 696.367 123.533C688.5 119 678.367 114.467 673.833 113.4C666.5 111.4 665.167 111.4 658.367 113.4C648.633 116.333 635.833 125.667 630.1 134.333C626.233 140.067 623.7 142.067 613.833 147L602.233 152.733L571.967 156.2C540.9 159.8 521.833 160.6 520.633 158.467C519.167 156.2 528.367 149.933 544.5 142.2L560.5 134.467L562.9 127.933C565.167 121.4 565.833 115.667 564.5 115.667C564.1 115.667 562.233 116.6 560.5 117.8C558.1 119.4 555.833 119.667 552.233 119C546.633 118.067 531.833 111.8 531.833 110.467C531.833 110.067 532.767 106.333 533.833 102.333C537.833 87.5333 535.567 61.4 529.167 49C516.767 24.6 480.5 10.3333 431.167 10.3333H414.233L418.9 15.6666C427.833 25.4 432.233 36.7333 437.833 63.5333C441.833 82.3333 444.9 90.7333 450.633 99.2667C459.7 112.333 481.567 121.4 504.5 121.4C511.033 121.4 518.1 120.733 519.967 119.933C522.767 118.733 524.9 119.267 533.567 123.4C539.033 126.2 543.7 128.6 543.7 129C543.833 129.4 542.233 130.6 540.1 131.8C538.1 133 526.233 139.8 513.833 147.133L491.167 160.333L463.033 161.667L445.7 172.467C419.967 188.733 419.7 188.867 398.767 190.867C386.767 191.933 378.9 193.4 375.833 195C373.433 196.333 364.1 204.6 355.433 213.533C341.967 227.133 339.7 229.133 340.233 225.8C340.5 223.8 339.967 220.467 339.033 218.467C336.233 213.133 336.767 211.267 342.633 207.667C345.7 205.8 349.567 201.8 351.433 198.6C354.233 193.8 354.767 191.8 353.967 186.733C353.567 183.267 351.567 177.8 349.567 174.467C345.433 167.267 335.967 156.733 334.5 157.667C333.967 158.067 333.033 159.933 332.5 161.933C332.1 164.067 329.3 168.733 326.633 172.333C314.633 188.2 314.5 194.867 325.7 207.267C329.033 211 330.1 213.4 329.7 215.267C329.3 216.867 328.233 223.667 327.433 230.6L325.833 243L301.167 243.4C271.433 243.933 254.367 242.2 243.3 237.533C230.9 232.333 228.5 231.8 210.9 230.6C193.167 229.4 189.567 227.933 185.167 220.6C178.767 210.2 180.367 191 189.167 173.533C195.567 160.333 210.5 144.2 222.767 136.867C229.033 133.267 230.767 131.4 232.1 127.133C233.167 124.067 235.833 120.333 238.767 117.933L243.7 113.933L249.833 119.4C261.3 129.533 279.033 133.933 291.3 129.8C304.767 125.4 319.3 110.6 331.167 89.5333C334.5 83.6667 337.167 78.4667 337.167 78.0667C337.167 77.8 332.5 77.6666 326.767 78.0667C318.367 78.4667 313.7 77.7999 300.633 74.4666C281.833 69.5333 275.967 69.4 267.167 73.5333C258.1 77.6667 247.3 89.9333 243.567 99.9333C241.3 106.2 239.567 108.6 233.7 113C229.7 115.933 225.433 120.6 223.967 123.4C222.633 126.067 219.967 129.667 218.233 131.267C214.9 134.467 205.3 138.867 204.233 137.8C203.833 137.533 204.767 130.067 206.367 121.4C207.967 112.733 209.167 102.867 209.167 99.4C209.167 94.6 209.833 92.7333 211.967 91.2667C213.7 90.0667 214.1 88.9999 213.3 88.4666C212.5 87.9333 210.1 84.8666 207.833 81.6666L203.7 75.6666L208.5 71.4C221.033 60.4666 224.5 45.5333 217.7 31.9333C214.233 24.8666 203.7 13.2666 193.7 5.39996L188.233 1L187.433 8.73328C187.033 13.3999 184.633 20.8666 181.3 28.3333C175.033 42.3333 174.233 50.0666 178.5 58.3333C181.7 64.6 188.9 72.0667 194.5 75C198.1 76.8667 203.167 83.9333 201.833 85.1333C201.567 85.5333 200.367 92.7333 199.167 101.4C196.367 121.667 193.967 130.733 181.033 169.667C169.567 204.067 162.5 220.2 157.167 223.933C155.033 225.4 149.3 226.733 141.833 227.667C135.167 228.333 121.967 231.133 112.5 233.667C87.8333 240.467 70.7666 244.6 63.4333 245.667C58.2333 246.333 56.0999 245.933 52.2333 243.667Z" fill="black" fill-opacity="0.1"/>
<path d="M-10.5022 528.059C-8.5636 526.709 -6.7605 525.428 -5.177 524.267C-4.51233 523.794 -3.87952 523.345 -3.27466 522.916L-3.27368 522.915C0.253784 520.413 2.83008 518.585 5.23291 516.552C11.7391 511.049 16.9745 504.043 36.3843 478.07L36.415 478.029C37.6887 476.325 39.0232 474.539 40.4231 472.667C58.6898 448.133 75.2229 429.467 86.0229 420.933C95.4896 413.333 117.356 402.667 123.09 402.667C125.356 402.667 127.89 403.6 128.823 404.8C132.156 408.667 136.29 409.867 146.823 410C157.356 410 157.623 410.133 165.756 416.267C174.69 422.933 180.29 425.2 194.556 428.533C204.823 430.933 208.956 433.733 238.956 459.467C249.223 468.267 260.69 477.6 264.29 480C267.89 482.533 274.423 487.867 278.823 492C283.223 496.133 290.29 502.267 294.556 505.867C304.423 514.133 310.156 523.733 310.156 532.267C310.156 535.733 311.09 541.467 312.29 544.933C316.69 558.133 324.69 564.267 339.49 566C353.09 567.6 361.49 569.6 366.023 572.4L370.556 575.2L369.623 566.133C367.756 547.067 359.756 529.6 349.756 522.133C346.556 519.733 344.023 519.333 334.423 519.333C328.023 519.333 320.69 519.867 318.023 520.4C311.49 522 309.89 518.4 315.49 515.067C317.756 513.867 319.49 512.4 319.49 512C319.49 511.6 315.49 509.867 310.556 508.133C292.023 501.6 282.69 494.4 284.423 487.867C285.356 484.4 296.29 475.6 311.756 465.867C318.556 461.6 327.49 455.467 331.49 452.267L338.823 446.267L351.49 447.2C364.956 448.133 368.823 450 368.823 455.333C368.823 461.6 372.823 471.467 377.09 475.6C382.423 480.667 384.156 481.2 399.756 482.667C406.556 483.333 413.49 484.267 415.223 484.667C419.09 485.867 419.09 482.8 415.356 471.6C407.89 449.067 395.623 441.333 377.623 447.467C370.29 450 368.29 448.8 369.356 442.267C369.89 440 369.49 438.667 368.423 438.533C359.223 438 356.29 435.6 357.49 429.467C359.49 418.533 362.423 416.8 382.823 414.133C407.756 410.8 413.89 409.467 428.556 404.533C442.29 400 451.356 395.867 458.823 390.667C462.29 388.4 464.156 388.133 472.156 388.8C494.023 390.667 521.623 379.867 532.29 365.467C538.69 356.667 541.89 346.133 544.823 322.667C548.156 297.067 551.223 286.667 558.156 277.067L563.49 269.467L555.89 270.133C512.556 273.867 483.356 283.6 465.756 300C455.356 309.733 450.69 319.2 448.823 334.533C447.09 347.6 448.823 364 452.823 372.933C454.69 377.067 455.09 379.6 454.156 380.667C450.956 384.533 438.556 389.867 430.956 390.533C424.023 391.2 422.823 391.733 422.823 394C422.823 396.4 421.623 396.8 408.156 397.467C395.09 398.267 391.356 399.067 374.423 405.067C355.623 411.733 354.956 412.133 335.09 427.067C299.623 453.867 281.09 465.333 273.623 465.333C268.69 465.333 264.423 462 240.823 440.667C202.556 406 195.49 401.867 162.156 395.333C145.49 392 140.023 387.867 143.49 381.333C145.223 378.133 167.356 367.2 185.49 360.667C209.356 352 239.756 343.867 261.89 340.133L283.623 336.533L291.223 327.067C295.49 321.867 303.756 312.933 309.49 307.2C315.356 301.333 326.156 290.267 333.49 282.533C348.556 266.533 363.356 254.4 376.556 247.2C381.49 244.4 389.89 239.2 395.356 235.6C400.823 231.867 407.756 228.4 410.69 227.733C413.756 227.067 419.356 225.333 423.09 223.867C428.956 221.467 430.823 221.333 434.29 222.533C440.423 224.667 457.89 224.4 465.756 222C481.623 217.333 487.623 209.733 495.89 183.867C500.956 168.133 503.223 163.333 508.023 157.2L513.89 149.6L507.89 148.8C497.756 147.467 478.156 148 467.223 149.867C446.823 153.6 432.823 163.2 427.223 177.333C424.956 183.2 424.29 187.867 424.023 200L423.756 215.333L419.49 217.067C415.49 218.667 415.356 218.667 416.156 215.867C416.956 213.733 416.69 213.067 415.356 213.6C403.756 218.267 400.956 219.6 398.023 222.667C395.09 225.467 387.223 230.4 367.09 241.6C364.956 242.933 362.556 243.6 361.89 243.2C359.89 242 360.69 234.667 364.29 221.6C367.623 209.467 368.023 208.667 375.356 201.867C383.89 194 390.69 181.867 392.156 172C393.223 164.933 390.423 155.467 384.956 147.333C383.557 145.281 380.658 141.077 377.627 136.681C376.325 134.793 374.998 132.87 373.756 131.067C368.29 122.933 365.89 118 364.556 112L362.956 104L359.09 107.733C352.156 114.267 339.223 132.533 334.69 142C326.956 158.133 326.156 170.533 331.89 182C335.49 189.2 347.623 201.733 354.69 205.467C360.423 208.4 360.423 208.533 359.223 213.2C357.756 218.267 353.756 224.933 350.423 227.6C348.69 229.067 348.956 229.467 351.756 230.533C354.956 231.733 355.09 232.133 354.023 238.267C353.538 240.787 352.983 244.013 352.562 246.457C352.47 246.996 352.383 247.498 352.306 247.945C352.251 248.258 352.201 248.545 352.156 248.8C351.49 252.4 349.223 254.533 335.09 263.733C320.956 272.933 316.823 276.667 303.356 291.467C294.823 300.933 286.156 310.667 284.156 312.933C280.023 318.133 278.29 318.667 237.49 328C221.356 331.733 194.556 338.133 177.89 342.133L147.49 349.6L126.556 362.667C114.956 369.867 92.2896 384.4 76.1562 394.933L46.823 414.133L31.7563 432.133C14.4645 452.495 -2.27783 470.501 -16 483.5L-10.5022 528.059Z" fill="url(#paint0_linear_57_82)"/>
</g>
<defs>
<linearGradient id="paint0_linear_57_82" x1="561.656" y1="197.976" x2="88.5639" y2="73.9412" gradientUnits="userSpaceOnUse">
<stop stop-color="#4F772D"/>
<stop offset="1" stop-color="#90A955"/>
</linearGradient>
<clipPath id="clip0_57_82">
<rect width="731" height="578" fill="white"/>
</clipPath>
</defs>
</svg>
