<svg width="513" height="516" viewBox="0 0 513 516" fill="none" xmlns="http://www.w3.org/2000/svg">
<path d="M0 13.2048C3.80378 11.4465 8.70104 9.71343 15.6116 7.55463C26.4046 4.27932 35.8486 1.58198 36.6195 1.58198C40.3493 1.58198 14.8504 23.6449 0 33.9394V13.2048Z" fill="url(#paint0_linear_57_86)"/>
<path d="M0 44.6639C0.369447 44.8736 0.754834 45.0912 1.15662 45.3171C27.9465 60.1523 52.2309 67.0884 77.8644 67.0884H88.6573L91.1629 53.9871C95.2103 32.4085 105.04 15.454 117.375 8.90333C120.458 7.16932 120.844 7.55461 119.88 11.0226C118.74 15.5805 118.911 15.4584 131.838 6.22761L132.408 5.82062C137.612 2.15994 141.659 -0.34469 141.659 0.233343C141.659 0.811332 139.539 5.04993 136.841 9.48127C131.059 19.8852 130.866 21.6192 136.07 20.2706C141.081 18.9219 140.503 20.4632 129.131 38.1885C124.313 45.7024 120.844 52.6384 121.615 53.4091C122.193 53.987 123.735 52.8311 125.084 50.7117C129.324 43.1978 145.514 27.3992 153.03 23.1606L160.74 18.7293L157.849 26.0505C156.528 29.1316 154.648 33.1064 153.231 36.1033C152.787 37.0419 152.388 37.8845 152.066 38.5738C148.597 45.1244 148.983 45.1244 162.089 39.1518C167.871 36.4545 174.809 34.3352 177.507 34.3352C184.831 34.3352 194.468 38.9592 199.093 44.7391C203.333 50.3264 215.668 78.4556 214.319 79.8043C211.428 82.6943 159.005 67.6663 139.346 58.2257C135.299 56.299 131.444 55.3357 130.866 56.1064C128.939 58.0331 139.346 65.7397 148.983 69.4003C153.608 71.1343 162.089 76.3363 167.871 80.9603C171.722 83.9408 176.214 87.3216 179.798 90.0191C181.774 91.5064 183.474 92.786 184.638 93.6762C202.177 106.392 212.97 121.998 212.97 134.714C212.97 141.843 207.381 152.439 200.828 157.641C196.781 161.109 196.588 160.917 191.191 148.201C188.3 141.265 181.362 129.319 175.965 121.998C170.376 114.484 164.594 103.695 162.667 97.9149C160.161 89.823 158.041 86.5476 153.416 83.6576L147.248 79.997L148.212 90.9789C148.983 100.998 147.441 104.658 144.55 99.8415C142.237 96.1809 128.36 90.2083 121.807 90.2083C118.338 90.2083 111.014 88.0889 105.811 85.3916C97.9086 81.3456 93.6684 80.575 79.9844 80.575C61.6748 80.575 54.3509 78.841 22.1645 67.0884C12.9218 63.6943 5.74445 61.0729 0 59.0297V44.6639Z" fill="url(#paint1_linear_57_86)"/>
<path d="M0 89.6509C0.357845 89.48 0.740498 89.2791 1.15662 89.0523C10.4078 84.043 16.768 85.7769 31.0302 96.9515C38.3541 102.924 47.2198 108.704 50.4963 109.86C53.9655 111.209 56.8564 112.75 56.8564 113.328C56.8564 114.677 31.9939 120.842 23.7064 121.613L18.6953 121.998L28.1392 137.411C33.343 145.889 47.4125 170.357 59.1693 191.743L80.5626 230.662L86.9228 217.368C95.7885 198.679 110.243 186.156 126.819 182.302C139.346 179.605 148.79 185.385 176.351 213.129C189.842 226.616 201.792 239.524 203.141 242.029C205.261 246.075 205.068 246.268 198.515 246.268C189.842 246.268 180.398 250.314 168.642 258.598C155.728 267.846 143.008 271.892 131.059 270.351C118.146 268.809 102.534 259.754 96.174 250.121C93.283 245.882 90.5847 242.8 90.0065 243.378C86.9228 246.46 130.095 302.141 156.692 328.921L174.809 347.417L177.507 341.252C183.675 326.609 194.082 327.38 223.763 344.527C236.676 351.848 248.433 358.014 249.782 358.206C253.059 358.206 224.149 367.262 215.09 368.996L208.537 370.152L217.018 374.583C221.643 376.895 229.738 379.592 235.134 380.17C240.338 380.941 247.855 382.675 251.709 384.024C265.393 389.033 328.61 395.198 316.468 390.574C313.577 389.418 311.264 387.684 311.649 386.914C312.613 384.602 335.741 365.72 337.861 365.72C340.945 365.72 344.607 376.702 343.258 382.097C342.679 384.602 339.596 388.07 336.705 389.611C332.079 392.308 335.741 392.501 376.793 392.501C401.656 392.501 423.82 391.73 425.747 390.96C429.024 389.804 428.638 389.226 423.242 386.914C416.303 384.216 410.521 376.702 412.063 372.849C413.798 368.032 439.046 332.967 440.588 332.967C441.551 332.967 442.322 335.857 442.322 339.325C442.322 343.178 444.828 349.151 448.875 355.124C456.392 366.491 456.006 368.996 444.25 380.556L435.962 388.455L445.406 386.528C447.693 386.105 450.203 385.607 452.512 385.149C455.456 384.565 458.071 384.047 459.476 383.831C462.945 383.06 463.523 382.29 461.788 380.556C456.006 374.776 462.367 365.913 486.458 346.839C496.673 338.747 505.539 331.233 506.31 330.27C508.237 327.38 508.815 328.729 511.321 342.986C514.983 363.216 510.164 371.5 489.349 380.363C482.604 383.253 477.014 386.721 477.014 387.877C477.014 390.574 471.04 392.694 463.908 392.694C461.596 392.694 459.668 393.272 459.668 394.042C459.668 395.006 465.45 399.822 472.389 405.024C479.08 410.108 482.715 412.756 482.357 414.649C481.942 416.847 476.152 418.029 463.523 420.823C447.719 424.098 440.588 422.749 431.337 414.85C424.976 409.263 424.205 407.914 426.325 404.639C428.446 400.978 428.253 400.785 422.471 402.519C414.762 404.639 321.671 404.639 300.664 402.327C292.183 401.556 285.052 400.978 284.859 401.171C284.667 401.364 292.376 404.832 302.205 408.878C312.035 412.923 332.079 422.557 346.92 430.263C368.698 441.631 376.6 444.713 388.164 446.447C404.739 448.952 407.823 448.181 394.717 444.713L394.011 444.532C380.449 441.052 380.275 441.007 381.033 438.355C381.611 437.199 385.081 435.851 389.128 435.465C394.91 434.887 398.765 436.429 407.63 442.209C413.991 446.255 419.002 450.108 419.194 450.879C419.194 451.649 412.449 452.42 404.161 452.805L389.321 453.383L401.27 460.705C407.823 464.75 419.965 472.843 428.253 478.815L443.093 489.412L455.428 488.256C472.967 486.522 488.193 480.164 492.24 473.42C496.095 466.485 497.637 466.485 499.179 473.42C501.491 484.21 492.433 507.522 483.76 513.302C479.327 516.192 477.4 516.192 466.992 514.073C457.934 512.146 451.959 509.064 441.551 501.164L427.867 490.953L427.289 503.476C426.904 510.412 426.133 516 425.362 516C420.543 515.614 396.452 496.54 393.175 490.375C389.513 483.439 389.514 483.054 392.79 477.274C394.717 473.806 395.874 470.916 395.681 470.723C390.284 465.521 313.384 425.447 293.918 417.74C283.896 413.694 251.517 402.327 250.168 402.327C249.782 402.327 250.168 403.868 251.131 405.602C252.095 407.529 253.637 415.043 254.215 422.557C254.986 429.878 256.142 439.897 256.721 444.521L257.877 453.191L252.48 448.952C249.589 446.64 240.338 442.594 231.858 440.089C210.465 433.346 200.635 427.373 195.817 417.162C188.879 402.712 191.191 394.235 204.104 387.492C207.574 385.565 207.574 385.372 203.141 383.06C192.926 377.858 170.569 359.555 157.656 346.261C140.503 328.343 92.8975 271.507 90.7775 266.305C90.5848 266.112 88.851 265.535 86.5391 264.764L86.5374 264.763C82.8754 263.608 82.2972 264.378 81.3336 274.204C79.5989 291.737 71.8896 303.104 53.1945 315.627C46.0351 320.424 41.8554 322.453 39.9775 325.779C37.1034 330.871 39.621 339.004 45.0997 364.757C48.1835 379.592 50.4962 391.923 50.1108 392.308C49.7253 392.694 44.907 379.014 39.3177 362.06L29.1029 331.04L23.7064 336.242C20.8154 338.94 17.9244 343.756 17.3462 346.839L15.9971 352.426L9.2514 343.564C5.6194 338.745 2.53046 333.835 0 328.851V254.664C0.0641845 254.56 0.128544 254.459 0.192993 254.36C1.92756 251.855 2.89126 249.543 2.5058 249.35C2.33133 249.176 1.40672 248.725 0 248.123V230.137C3.25184 235.635 6.2476 240.303 7.90228 242.222C8.48052 242.8 11.5642 240.488 15.0334 237.212C26.9828 225.845 45.6779 219.487 57.6274 222.762C61.482 223.918 64.5658 224.496 64.5658 224.111C64.5658 223.533 37.5832 173.633 24.8628 150.32L19.2735 140.301L15.4189 144.925C14.8889 145.552 14.1662 146.394 13.317 147.385C10.7693 150.356 7.0832 154.655 4.04761 158.412C2.29116 160.552 0.956857 162.239 0 163.592V147.258L12.3351 130.283L8.28778 124.117C6.49869 121.353 2.92531 117.766 0 115.44V89.6509Z" fill="url(#paint2_linear_57_86)"/>
<path d="M0 169.843C1.36353 170.586 2.82299 171.128 3.46942 171.128C4.81853 171.128 12.1424 185.192 19.8517 202.34C21.0112 204.824 9.78556 204.034 0 201.562V169.843Z" fill="url(#paint3_linear_57_86)"/>
<defs>
<linearGradient id="paint0_linear_57_86" x1="52.7682" y1="-596" x2="52.7682" y2="516" gradientUnits="userSpaceOnUse">
<stop stop-color="#4F772D"/>
<stop offset="1" stop-color="#90A955"/>
</linearGradient>
<linearGradient id="paint1_linear_57_86" x1="52.7682" y1="-596" x2="52.7682" y2="516" gradientUnits="userSpaceOnUse">
<stop stop-color="#4F772D"/>
<stop offset="1" stop-color="#90A955"/>
</linearGradient>
<linearGradient id="paint2_linear_57_86" x1="52.7682" y1="-596" x2="52.7682" y2="516" gradientUnits="userSpaceOnUse">
<stop stop-color="#4F772D"/>
<stop offset="1" stop-color="#90A955"/>
</linearGradient>
<linearGradient id="paint3_linear_57_86" x1="52.7682" y1="-596" x2="52.7682" y2="516" gradientUnits="userSpaceOnUse">
<stop stop-color="#4F772D"/>
<stop offset="1" stop-color="#90A955"/>
</linearGradient>
</defs>
</svg>
