<svg width="650" height="893" viewBox="0 0 650 893" fill="none" xmlns="http://www.w3.org/2000/svg">
<g clip-path="url(#clip0_57_63)">
<path d="M673.166 635.334C656.027 611.526 632.063 590.302 602.047 572.438C590.105 565.287 580.396 560.558 559.434 551.832C544.52 545.607 529.125 538.85 525.347 536.862C515.155 531.601 509.202 532.558 470.576 545.483C451.976 551.7 431.114 558.298 424.156 560.1C390.674 568.857 361.431 578.047 358.241 580.942C356.053 582.695 352.476 588.516 349.324 594.989C345.004 603.86 344.199 606.73 344.823 609.407C345.564 611.845 344.82 614.894 342.08 620.826C339.978 625.141 337.661 631.725 336.982 635.25C335.228 644.332 330.232 651.242 323.523 654.055C320.554 655.279 312.695 656.494 305.9 656.743C299.104 656.993 291.602 658.085 289.11 659.244C286.676 660.283 284.358 661.082 283.999 660.907C282.8 660.323 287.915 641.904 291.068 635.43C296.089 625.121 301.516 619.46 308.409 617.181C315.125 614.965 325.03 615.637 331.384 618.731C336.059 621.008 337.65 619.262 333.861 616.081C331.635 614.256 331.567 613.481 333.218 611.616C348.909 595.232 352.03 585.778 343.28 581.516C339.204 579.531 322.733 578.331 291.479 577.643C280.206 577.343 271.907 576.416 269.15 575.073C262.437 571.804 257.028 573.47 250.187 580.817C245.648 585.873 242.213 588.056 235.202 590.573C223.914 594.567 219.731 593.716 205.318 584.027C195.71 577.568 188.401 574.305 182.552 573.829C180.403 573.673 180.874 573.012 185.659 568.668C199.125 556.244 214.246 548.036 223.964 547.875C233.504 547.776 246.229 555.753 251.274 564.884C252.549 567.136 254.062 569.208 254.781 569.558C255.62 569.967 259.182 568.439 262.676 566.136C266.705 563.649 269.794 562.484 270.519 563.431C272.69 565.674 295.262 568.659 309.452 568.451C328.114 568.197 349.373 565.352 373.825 559.909C385.307 557.344 400.662 554.441 408.047 553.589C426.866 551.186 464.332 535.769 469.679 528.14C471.09 526.157 470.607 525.626 464.257 522.829C457.308 519.741 422.583 512.172 406.342 510.195C401.326 509.532 396.203 510.002 393.532 511.223C390.92 512.324 384.669 513.283 379.481 513.278C366.898 513.23 361.795 510.003 354.866 497.434C348.481 485.574 344.307 479.833 339.438 476.127L335.47 473.008L346.119 470.631C375.864 463.761 392.197 468.898 398.708 487.197C400.184 491.475 401.371 496.651 401.396 499.036C401.507 503.984 402.226 504.334 410.334 504.13C413.792 504.035 417.551 504.234 418.568 504.581C420.904 505.571 474.961 514.25 482.78 514.944C486.182 515.266 489.044 515.177 489.336 514.577C489.978 513.259 484.381 508.308 475.372 502.141C471.047 499.145 458.054 488.367 446.26 478.174C417.855 453.365 402.394 440.348 392.964 433.827C388.698 430.711 376.061 419.811 364.744 409.553C333.978 381.37 331.455 379.547 319.787 375.793C314.344 374.18 302.631 371.738 293.733 370.519C284.777 369.419 270.494 366.467 262.002 364.111C249.443 360.664 244.725 359.998 236.562 360.619C229.293 361.232 222.129 360.412 210.114 357.675C196.846 354.772 192.608 354.339 188.268 355.637C182.266 357.607 173.734 362.944 170.437 366.974C168.553 369.319 168.563 370.213 171.037 373.05C173.45 375.708 175.728 376.817 182.545 378.655C200.845 383.711 207.807 393.776 205.919 412.878C204.673 424.877 205.316 435.127 207.434 438.086C210.401 442.349 205.677 441.086 190.213 433.555C175.229 426.257 174.147 425.434 169.072 419.106C161.879 409.819 161.261 401.954 166.788 388.777C171.268 378.057 171.084 377.522 161.854 373.026C159.456 371.859 157.593 370.507 157.769 370.147C157.944 369.787 160.255 368.392 162.806 367.113C168.202 364.254 177.198 357.66 178.132 355.742C179.708 352.506 156.153 352.453 148.494 355.694C143.328 357.775 142.563 358.737 138.476 367.128C133.338 377.677 126.842 383.708 119.401 384.978C116.841 385.362 108.542 384.435 101.012 382.844C93.4821 381.253 85.242 380.206 82.8017 380.648C80.4198 380.971 78.0963 381.175 77.4969 380.883C75.6988 380.007 88.7771 358.94 95.0371 353.09C106.964 341.696 121.326 340.83 134.666 350.59C140.857 355.236 141.868 354.987 147.218 347.657C150.454 343.449 151.465 343.2 152.633 346.586C153.433 348.904 162.026 349.53 178.77 348.341C184.253 348.046 197.377 348.505 207.882 349.469C218.446 350.313 227.989 350.512 229.055 349.845C234.384 346.211 237.009 346.303 248.689 351.25C258.211 355.146 262.634 356.114 272.54 356.786C279.283 357.252 287.461 358.121 290.867 358.741C301.504 360.956 310.043 362 310.51 361.041C310.743 360.562 303.913 351.748 295.1 341.523C274.391 317.052 265.022 304.925 258.591 294.377C253.796 286.258 252.772 285.314 245.22 281.636L237.069 277.666L235.851 269.51C234.494 259.506 229.723 247.987 219.821 230.558C215.69 223.207 208.816 210.219 204.672 201.675C198.883 189.809 195.007 184.066 187.768 176.091C177.815 165.163 166.018 154.671 157.433 149.155L152.149 145.692L142.477 150.325C134.17 154.288 131.982 156.04 127.339 162.528C121.344 170.88 110.643 179.757 101.681 183.846C98.4755 185.251 92.1074 186.45 87.3374 186.5C78.87 186.528 78.7501 186.47 55.4949 175.144C33.7981 164.577 31.6435 163.824 24.9034 163.656C20.9663 163.518 17.5638 163.196 17.5607 162.897C17.4378 162.541 21.1469 157.97 25.6828 152.616C44.4223 131.192 67.5885 116.817 84.7568 116.281C98.4675 115.839 118.929 128.03 127.837 141.712L130.626 146.036L135.085 144.797C139.84 143.256 146.41 138.596 150.181 134.204C152.181 131.619 152.778 131.612 154.708 133.739C157.361 136.514 179.15 150.241 180.398 149.81C182.122 149.315 186.444 129.174 187.399 117.775C188.197 108.524 187.554 104.058 184.35 94.1924C180.587 82.1264 180.286 81.8314 173.686 78.0241C168.707 75.1541 165.237 74.0573 160.046 73.7536C150.918 73.3121 139.186 69.0812 133.588 64.1305C127.21 58.6512 124.016 49.6801 122.397 31.6882C121.268 20.6085 119.77 14.2435 117.219 9.7381L113.693 3.275L118.109 3.64638C120.436 3.7414 127.425 4.92081 133.52 6.10954C146.905 8.77269 166.448 18.5871 170.985 24.8012C177.763 34.3312 179.541 50.4728 175.018 62.8041C172.874 68.73 172.825 69.7443 175.468 71.6249C176.971 72.8019 180.924 74.4304 184.154 75.4105C185.614 75.7923 187.015 76.1747 188.159 76.4869C189.591 76.8778 190.619 77.1585 190.852 77.1893C191.211 77.3644 190.689 78.7414 189.749 80.0631C188.396 81.9257 188.523 88.3646 190.412 103.67C193.793 130.529 194.828 149.72 193.455 155.28C192.023 160.96 196.646 169.737 208.112 182.736C218.674 194.851 223.153 201.185 229.184 213.466C231.862 218.626 234.109 222.538 234.284 222.178C234.985 220.74 234.442 208.76 233.434 203.522C232.868 200.726 231.275 196.687 229.944 194.853C228.374 192.901 227.688 190.046 228.324 188.131C229.239 184.424 230.911 184.645 234.717 189.317C236.77 191.8 237.548 192.03 239.207 191.059C241.518 189.663 245.168 179.428 246.102 171.726C246.479 167.906 247.294 165.929 248.542 165.499C249.433 165.191 250.966 163.565 251.725 162.007C252.484 160.449 256.329 157.427 260.124 155.42C264.691 153.046 267.764 150.39 269.049 147.753C271.854 142.298 277.641 136.811 283.929 133.644C293.183 128.956 295.989 129.285 312.94 136.502C323.003 140.81 330.422 143.237 334.061 143.378C337.224 143.584 339.732 143.916 339.913 144.152C340.104 145.283 326.251 160.634 320.811 165.103C312.71 171.688 301.068 176.102 293.249 175.409C286.146 174.767 277.088 169.614 270.695 162.644C266.05 157.564 263.785 157.647 258.416 163.189C254.228 167.527 246.78 185.255 243.987 197.688C241.994 206.653 240.713 243.996 242.113 252.39C244.21 264.831 279.338 299.588 359.425 368.403C396.971 400.63 413.572 414.351 414.098 413.272C414.857 411.714 415.625 359.588 415.049 350.112C414.406 339.862 413.917 338.734 405.617 326.239C400.893 319.192 395.178 308.696 392.974 303.174L392.966 303.155C391.939 300.545 391.177 298.609 390.625 296.615C389.042 290.894 389.184 284.696 389.737 260.711L389.772 259.199C389.912 249.776 389.728 249.241 387.485 251.411C386.068 252.797 383.726 256.996 382.454 260.826C378.11 273.095 368.715 281.422 359.237 281.7C356.673 281.786 349.807 280.964 343.894 280.011C337.919 278.881 330.521 278.541 327.487 279.288C324.393 279.857 321.414 280.186 320.935 279.953C320.455 279.719 323.258 273.965 327.062 267.068C335.604 251.355 342.805 244.184 352.437 241.46C359.392 239.36 363.215 240.036 376.933 245.975L383.642 248.946L386.937 244.619C388.82 242.273 391.174 239.267 392.115 237.945C394.997 234.159 395.907 235.64 394.783 242.211C393.057 253.977 394.09 284.438 396.614 292.044C399.139 299.651 413.116 324.848 415.394 325.958C417.072 326.775 418.28 322.469 424.433 294.915C431.095 264.791 433.479 247.413 431.674 240.157C430.677 236.112 426.189 228.884 417.662 217.464C410.709 208.294 403.802 197.811 402.154 194.19C400.506 190.57 398.803 187.368 398.204 187.076C396.286 186.142 393.271 188.678 389.282 195.04C382.009 206.625 372.002 213.468 362.401 213.389C358.882 213.306 351.883 211.232 343.139 207.567C332.839 203.44 327.697 202.122 322.927 202.172L316.488 202.299L318.43 199.834C319.549 198.45 322.314 194.903 324.548 191.839C335.018 177.955 348.931 168.269 359.417 167.444C364.78 167.09 367.59 167.716 374.302 170.986C378.799 173.324 384.323 176.904 386.493 179.148C386.654 179.313 386.81 179.473 386.962 179.628C389.556 182.289 390.728 183.492 391.941 183.535C392.94 183.57 393.967 182.818 395.84 181.446L395.938 181.375C398.777 179.198 400.243 176.798 402.446 170.752C404.88 163.929 404.799 161.962 402.699 155.007C399.862 145.913 399.458 135.779 401.193 124.908C404.056 107.764 412.076 99.2129 433.036 90.5863C457.857 80.4288 463.253 77.5698 469.744 70.9427L475.939 64.6167L477.009 70.0321C479.279 81.8155 480.345 103.987 479.39 115.387C478.368 126.012 477.563 128.883 472.134 140.031C464.897 155.193 460.761 158.814 444.893 163.989C435.741 166.946 417.927 168.504 414.091 166.635C410.375 164.826 407.301 184.536 410.237 191.602C412.195 196.411 428.21 216.817 433.445 221.295C437.115 224.417 438.391 226.67 439.098 231.612C440.965 244.831 434.33 300.477 428.523 321.229C423.291 339.889 423.239 340.605 426.332 345.522C431.244 353.402 432.496 359.054 431.578 368.247C430.168 381.798 430.834 394.135 433.385 398.64C434.541 400.835 435.922 407.439 436.341 413.279C437.796 432.823 443.649 439.381 466.932 447.606L480.517 452.295L486.139 459.63C495.751 472.172 501.757 476.284 539.772 496.281C597.035 526.395 661.038 562.461 675.278 572.807C684.77 579.507 691.277 585.939 697.33 594.522C698.88 596.673 700.249 598.48 701.492 599.984L673.166 635.334Z" fill="url(#paint0_linear_57_63)"/>
<path d="M450.46 796.411C448.567 805.113 438.01 813.975 422.238 820.119L419.109 821.305L420.316 816.534C421.168 812.923 421.106 809.617 420.116 802.762C418.795 793.741 419.056 788.385 421.073 784.769C423.155 781.047 429.291 776.638 435.438 774.56C440.351 772.952 441.91 771.956 444.063 769.295C445.3 767.613 446.749 765.882 447.42 765.08L447.423 765.077L447.432 765.067L447.594 764.872C448.238 764.182 449.933 764.141 453.058 764.839C461.587 766.775 461.672 766.755 479.488 758.245C488.588 753.855 498.992 748.529 502.47 746.542C510.6 741.842 512.639 741.361 523.157 741.84L531.75 742.146L534.721 736.869C536.348 733.883 538.266 731.366 538.946 731.206C539.626 731.045 542.031 731.734 544.411 732.698C548.201 734.317 548.921 734.326 552.879 732.854C558.222 730.786 560.53 729.164 562.388 726.393C564.375 723.412 564.03 722.327 560.169 719.648C558.538 718.463 551.705 715.518 544.419 712.658L548.419 709.768C557.344 712.238 569.994 716.433 576.395 719.23C576.636 719.332 576.874 719.433 577.109 719.532C627.711 731.029 696.856 706.257 706.796 731.481C720.074 728.565 728.17 727.627 726.5 731.206L707 746.541C708.446 740.196 708.29 735.274 706.796 731.481C670.839 739.378 596.883 761.776 575.988 748.239C566.018 741.779 554.635 746.349 551.994 746.971L545.452 748.515L540.902 754.703C524.066 777.25 523.612 777.986 524.908 780.82C525.504 782.205 525.816 784.286 525.546 785.426L524.948 787.452L521.128 786.468L517.328 785.57L516.021 788.391C515.302 789.907 512.651 795.019 510.219 799.541L505.746 807.954L507.874 812.029C509.03 814.269 510.861 816.708 511.826 817.378C513.547 818.587 513.972 818.487 516.79 816.745C525.504 811.1 534.177 810.22 541.558 814.132C549.169 818.259 555.429 826.922 561.648 841.876L562.919 844.986L558.065 843.798C554.35 842.88 551.046 842.942 543.938 843.991C538.804 844.663 533.291 845.246 531.576 845.202C523.663 844.736 516.76 838.288 513.108 827.754C511.581 823.179 510.254 820.979 507.973 818.915C506.278 817.431 504.817 815.801 504.737 815.461C504.636 815.036 504.216 814.776 503.791 814.876C502.687 815.137 502.811 821.748 503.898 824.453L504.884 826.733L502.594 825.389C500.494 824.089 500.288 823.599 500.171 819.679C499.984 809.762 495.03 809.675 482.474 819.188C476.099 824.102 475.175 825.127 475.596 826.912C475.957 828.443 475.522 829.263 473.624 830.339C472.279 831.105 470.266 832.836 469.167 834.262L467.229 836.693L469.996 840.437C473.659 845.316 477.009 853.051 477.231 857.036C477.702 864.732 472.933 873.036 463.985 880.352C458.355 885 446.872 891.837 445.907 891.167C445.507 890.993 445.57 889.362 446.039 887.547C446.707 885.056 446.29 881.386 443.982 870.085L443.961 869.977C441.183 855.938 441.148 855.759 442.85 851.598C444.996 846.246 451.92 839.856 458.262 837.463C464.029 835.295 470.093 828.301 469.271 824.815C468.769 822.69 469.519 822.065 482.83 813.092C502.122 800.195 504.714 797.878 511.94 786.303C517.782 776.848 530.907 751.498 530.586 750.138C530.506 749.798 528.881 749.374 526.936 749.115C519.197 748.248 495.293 756.042 470.706 767.406L461.311 771.686L455.137 770.989C448.793 770.333 446.858 770.878 445.171 773.61C444.327 774.975 444.467 775.57 446.274 778.285C448.991 782.579 451.252 792.545 450.46 796.411Z" fill="url(#paint1_linear_57_63)"/>
</g>
<defs>
<linearGradient id="paint0_linear_57_63" x1="17.9992" y1="529.173" x2="171.044" y2="17.6328" gradientUnits="userSpaceOnUse">
<stop stop-color="#4F772D"/>
<stop offset="1" stop-color="#90A955"/>
</linearGradient>
<linearGradient id="paint1_linear_57_63" x1="620.595" y1="836.94" x2="459.221" y2="741.092" gradientUnits="userSpaceOnUse">
<stop stop-color="#4F772D"/>
<stop offset="1" stop-color="#90A955"/>
</linearGradient>
<clipPath id="clip0_57_63">
<rect width="650" height="893" fill="white" transform="matrix(-1 0 0 1 650 0)"/>
</clipPath>
</defs>
</svg>
