<svg width="911" height="1615" viewBox="0 0 911 1615" fill="none" xmlns="http://www.w3.org/2000/svg">
<g clip-path="url(#clip0_97_23)">
<path d="M640.826 267.153C632.139 265.59 618.597 261.186 614.403 258.601C609.128 255.324 598.592 250.169 582.795 243.134C575.07 239.722 567.375 236.1 565.691 235.108C563.948 234.161 558.732 232.718 554.118 231.951C549.459 231.125 543.387 229.667 540.636 228.63C530.506 224.767 517.61 224.105 503.286 226.675C488.963 229.245 477.916 235.182 461.848 248.829C441.632 265.963 439.002 269.344 431.592 287.771C429.954 291.724 428.27 295.617 427.684 296.338C427.203 297.075 426.707 298.292 426.707 299.044C426.647 300.967 423.716 303.072 421.897 302.651C420.65 302.365 420.499 301.914 420.755 300.126C421.371 296.939 420.214 296.022 416.712 296.864L413.556 297.54L413.856 294.309C414.262 289.589 413.481 289.048 408.656 290.882L404.462 292.43L405.83 289.619C408.235 284.81 407.273 284.78 398.36 289.679C393.521 292.37 391.597 293.813 388.861 296.803C385.254 300.636 381.015 308.136 380.354 311.638C380.083 312.78 379.512 314.524 378.986 315.576C378.46 316.628 377.588 319.348 377.062 321.528C376.281 324.744 375.769 325.691 374.627 325.796C372.027 325.962 371.937 325.09 374.191 321.708C376.641 318.086 378.084 312.495 377.333 310.24C377.017 309.444 376.13 308.512 375.334 308.076C373.966 307.505 374.132 306.723 376.942 300.576C380.73 292.475 383.992 283.171 386.126 274.995C387.599 269.193 387.885 268.697 391.838 265.075C398.436 259.093 402.645 252.555 405.906 243.252C407.575 238.712 411.302 229.905 414.323 223.788C420.185 211.689 422.605 204.144 422.636 197.17C422.651 194.81 423.898 188.332 425.491 182.816C429.43 169.154 430.497 162.435 430.542 151.974C430.602 147.044 430.933 139.845 431.219 135.967C431.549 132.15 431.955 124.8 432.196 119.735C432.437 114.67 432.857 109.094 433.173 107.26C433.759 103.908 433.339 99.339 432.392 99.2037C432.136 99.1135 427.642 101.263 422.487 103.908C402.572 114.053 397.867 116.172 393.298 117.344C385.122 119.343 383.213 119.929 378.839 121.613L374.631 123.266L365.989 110.866C356.445 97.2635 351.44 91.7173 345.097 87.6441C342.933 86.2613 339.446 83.2402 337.357 80.9556C333.705 76.8373 327.482 71.9223 325.498 71.5315C324.972 71.4563 323.469 69.9533 322.162 68.2098C320.854 66.4663 317.442 62.5434 314.557 59.4471C309.807 54.3669 309.146 53.3598 307.297 48.6404C302.413 35.8647 301.811 35.9399 298.835 49.6322C295.573 64.1963 293.093 87.568 292.897 104.342C292.867 106.055 292.822 109.752 292.792 112.593C292.626 128.781 297.947 160.299 302.846 172.218L304.965 177.298L302.56 179.101C301.133 180.078 299.088 181.987 297.946 183.22L295.782 185.594L293.918 180.604C292.355 176.516 290.266 173.104 282.977 162.884C273.373 149.326 269.54 144.968 268.277 145.914C267.796 146.275 266.94 150.018 266.338 154.226C265.722 158.54 264.099 164.642 262.791 167.783C260.281 173.705 252.931 186.075 251.984 185.939C250.932 185.789 248.407 177.537 246.438 167.648C243.387 152.182 242.531 149.912 235.377 139.12C232.04 133.92 226.84 125.984 223.954 121.385C218.558 112.938 209.901 102.522 204.701 98.3431C203.408 97.2459 199.561 92.6166 196.344 88.0774C190.092 79.2396 187.672 73.6334 183.645 58.994C182.713 55.7475 181.435 51.9148 180.714 50.5771C179.602 48.2174 179.451 48.1422 177.948 49.2694C175.724 50.9377 171.245 58.2423 167.036 67.0348C164.676 71.9045 162.497 78.5177 160.738 85.9425C158.258 96.163 158.048 98.3874 158.513 108.277C159.445 125.802 165.141 152.06 172.4 172.261C174.174 177.13 175.902 181.94 176.233 183.007C179.584 194.114 196.913 238.138 200.52 244.826L202.173 247.907L199.333 250.508C197.724 251.996 196.026 253.739 195.545 254.475C194.733 255.648 194.222 255.467 191.216 252.837C189.413 251.184 185.385 248.568 182.334 247.005C179.283 245.442 175.375 243.112 173.631 241.79C169.258 238.588 164.132 236.138 156.091 233.433C151.177 231.764 149.027 230.652 148.591 229.57C147.554 227.06 143.226 219.409 135.756 206.694C128.497 194.384 124.724 186.974 122.425 180.526C121.613 178.317 120.366 176.152 119.449 175.431L117.766 174.063L116.458 177.58C115.706 179.459 113.707 183.682 112.009 186.929C110.356 190.235 108.357 194.835 107.755 197.164C106.613 201.027 103.096 206.859 97.8952 213.577L95.7459 216.222L87.6748 215.23C77.4844 214.043 69.1577 214.087 62.8601 215.335L57.9453 216.297L58.8019 218.19C59.2829 219.333 61.0864 222.113 62.7397 224.443C66.5122 229.598 69.5181 235.235 70.4499 238.857L71.1262 241.638L67.8196 240.36C65.9859 239.669 61.6874 237.444 58.1704 235.385C52.1734 231.898 44.8689 228.922 43.967 229.598C43.7266 229.778 40.0592 228.02 35.896 225.6C31.6275 223.165 25.9912 220.535 23.376 219.678C17.2287 217.619 5.26488 211.561 1.41723 208.435C-0.371321 207.052 -1.97951 206.286 -2.46048 206.646C-4.32424 208.044 1.28176 221.03 12.8696 242.118C24.1568 262.679 24.5326 263.43 28.7859 271.983C32.0473 278.461 42.9589 297.143 45.574 300.63C45.9798 301.171 45.3485 303.711 44.1461 306.492C40.659 314.368 39.0655 328.526 39.937 343.09C40.3577 349.914 40.2824 359.082 39.7263 363.351C38.0126 377.599 39.6807 389.217 47.3306 415.701C49.9607 424.719 52.9665 437.119 53.9283 443.161C55.7317 454.208 57.445 460.25 61.0521 468.066C63.9227 474.273 79.8393 495.12 88.6317 504.213C98.1756 514.058 97.6797 513.021 93.847 515.426C89.879 518.026 86.7977 523.813 84.3176 533.282C80.9657 546.598 75.2089 558.712 68.1446 567.58C64.6876 571.863 63.1395 573.306 57.6985 576.823C46.0351 584.443 33.8005 590.049 15.8244 596.016C9.18109 598.18 -1.03947 601.712 -6.97639 603.816C-18.6699 607.889 -30.1979 610.429 -38.3442 610.714C-45.6338 611.015 -50.669 613.57 -59.5669 621.746C-63.2794 625.188 -69.006 629.952 -72.1924 632.342C-78.3849 636.986 -78.9861 638.189 -75.1083 638.474C-74.1614 638.61 -62.5582 635.544 -49.4519 631.726C-20.7292 623.43 -8.41953 620.304 4.85208 617.96C25.744 614.127 40.278 614.218 52.3321 618.141C71.7057 624.559 85.7739 627.535 92.8681 626.724C95.6487 626.423 97.9783 625.521 100.864 623.733L104.997 621.103L108.95 624.244C138.289 647.707 151.485 658.664 169.611 674.566C173.564 678.083 179.14 683.013 182.01 685.463C184.866 688.018 189.931 692.392 193.268 695.338C232.391 729.968 264.991 746.005 298.222 747.103C306.609 747.389 311.058 748.186 329.905 753.026C347.355 757.505 362.671 760.015 371.478 759.985C376.363 759.985 379.7 760.677 386.914 763.157C391.979 764.9 397.059 766.539 398.262 766.764C400.396 767.23 400.577 767.095 400.877 765.366C401.073 764.374 400.787 762.992 400.291 762.33C399.75 761.609 399.359 760.211 399.404 759.144C399.389 756.619 396.038 747.39 392.431 739.95C390.762 736.599 388.899 732.36 388.298 730.557C385.758 723.162 380.798 715.045 370.442 701.488C362.206 690.757 359.546 686.834 357.141 681.874C349.115 665.16 346.696 660.681 342.187 653.917C336.566 645.546 331.786 640.676 322.768 633.912C317.102 629.613 314.021 626.758 302.643 614.718C295.835 607.519 289.672 602.559 282.984 599.027C280.038 597.478 277.363 595.915 277.047 595.494C273.921 591.451 240.043 581.726 221.151 579.456C213.29 578.494 204.783 579.05 199.282 580.734C197.929 581.184 189.888 582.612 181.546 583.89C164.202 586.565 151.757 589.134 144.046 591.629C141.175 592.561 138.034 593.508 137.192 593.764C136.306 593.959 133.315 595.357 130.624 596.905C125.499 599.715 115.819 603.593 108.079 605.922C103.87 607.2 103.765 607.185 102.668 605.096C100.128 600.331 89.3666 597.505 77.117 598.332C73.9758 598.527 63.9356 600.045 54.8424 601.698C39.4215 604.433 31.9515 605.245 32.162 604.147C32.2522 603.516 36.9115 601.713 50.0629 597.204C61.0199 593.402 62.057 592.906 71.0752 586.894C81.2957 579.98 93.6055 573.848 98.9562 572.841C104.698 571.729 111.161 571.954 123.696 573.638L135.975 575.231L136.366 571.369C136.562 569.249 136.577 567.265 136.351 566.965C135.675 566.063 122.854 564.124 118.015 564.184C115.489 564.199 113.551 563.868 113.821 563.478C114.618 562.41 128.836 559.074 139.192 557.601C159.783 554.746 167.343 554.806 193.436 558.158C206.872 559.917 220.204 562.036 222.985 562.863C225.81 563.75 230.364 564.562 233.13 564.742C241.922 565.193 253.901 569.266 263.746 575.128C266.572 576.767 275.815 583.831 284.367 590.85C339.421 636.077 362.612 656.353 376.259 671.293C383.038 678.703 400.022 703.352 403.493 710.988C411.429 727.957 413.789 736.614 413.773 748.743C413.848 753.102 414.254 757.025 414.675 757.461C416.058 758.678 451.875 732.286 457.812 725.673C463.313 719.481 475.578 703.143 478.328 698.168C481.425 692.652 484.731 683.409 486.851 674.586C489.12 665.087 492.473 638.244 492.157 631.811C491.211 611.009 480.54 588.764 463 571.014C455.41 563.273 451.292 560.162 443.401 556.028C436.607 552.481 434.668 552.15 427.108 552.842C423.08 553.232 423.035 553.172 421.397 550.362C420.495 548.783 419.789 547.34 419.819 547.13C419.849 546.92 422.915 546.499 426.612 546.168C443.566 544.726 459.829 549.25 487.845 563.183C494.112 566.28 503.326 570.548 508.391 572.668C513.456 574.787 523.872 579.657 531.537 583.49C557.929 596.762 575.319 603.541 589.538 606.216C593.986 607.013 600.93 608.381 605.048 609.237C613.285 610.951 633.876 612.229 645.54 611.748C661.847 611.072 683.37 606.203 692.809 601.003L695.951 599.304L692.569 597.801C690.705 596.944 686.061 595.261 682.213 594.013C657.594 585.987 652.98 583.717 646.367 576.277C640.686 569.829 632.509 562.434 626.152 558.09C619.178 553.176 603.156 545.089 594.769 542.173C590.982 540.88 584.894 538.776 581.257 537.559C573.472 534.943 560.35 533.23 551.422 533.725C547.53 533.921 541.503 533.274 535.461 531.982C522.956 529.336 517.244 528.735 510.496 529.381C505.115 529.847 503.206 529.682 505.776 528.975C506.498 528.81 510.09 526.961 513.862 524.977C519.439 522.016 521.363 520.574 524.699 517.132L528.833 512.999L533.657 512.668C539.775 512.307 561.478 508.806 566.032 507.363C567.941 506.777 571.067 505.559 572.871 504.582C574.78 503.621 578.883 501.577 582.114 499.998C586.669 497.804 590.231 495.414 598.287 488.997C610.281 479.438 616.444 473.125 623.538 462.92L628.603 455.645L640.161 458.156C652.696 460.967 655.432 461.733 663.052 464.754C668.328 466.904 670.417 466.934 670.868 464.905C671.228 463.507 667.621 460.2 649.33 445.455L637.532 435.986L639.23 422.595C642.131 398.907 641.891 379.548 638.465 365.21C637.743 362.369 637.172 358.852 637.127 357.289C637.127 355.786 636.691 352.449 636.18 350.014C635.729 347.534 635.444 342.018 635.624 337.75C635.91 330.49 635.414 326.823 634.046 326.627C633.686 326.522 630.605 328.551 627.087 331.001C619.738 336.231 616.551 337.494 603.37 340.334C598.109 341.461 592.293 343.1 590.354 343.896C588.415 344.693 584.823 345.79 582.343 346.241C576.556 347.293 567.343 350.539 560.804 353.846C555.363 356.611 538.289 369.041 535.163 372.512C533.314 374.557 533.149 374.587 530.323 373.324C524.521 370.724 520.103 369.717 506.741 368.183C491.275 366.349 486.06 366.409 474.952 368.634C470.578 369.565 466.806 370.046 466.58 369.746C466.355 369.445 468.099 368.138 470.669 366.68C478.439 362.261 480.468 360.457 481.836 356.52C483.354 352.281 482.663 347.351 479.838 342.707C478.665 340.768 477.884 339.1 478.004 339.009C478.124 338.919 480.529 338.619 483.294 338.423C490.779 337.882 501.451 339.461 511.205 342.572C521.26 345.834 527.317 346.27 541.641 344.827C547.518 344.271 555.454 343.956 559.302 344.076C563.194 344.256 569.101 343.866 572.423 343.159C578.495 341.987 578.555 341.942 591.331 333.3C611.396 319.848 615.785 315.43 621.271 302.955C626.607 290.78 630.921 284.633 638.737 278.02C646.297 271.693 648.116 269.859 647.439 268.957C647.063 268.581 644.118 267.785 640.826 267.153ZM501.975 421.45C501.404 423.945 499.12 430.919 496.82 436.871C491.995 449.225 490.808 453.028 489.71 459.581L488.929 464.3L485.036 465.623C476.965 468.388 469.494 477.466 464.083 491.294C462.595 494.946 460.867 498.403 460.145 498.944C456.598 501.605 456.087 508.188 459.018 515.102C459.829 516.935 460.355 518.513 460.235 518.604C457.049 520.993 439.313 530.913 434.849 532.852C426.568 536.339 425.876 536.293 430.085 532.386C434.97 527.877 444.905 515.447 446.633 511.614C447.52 509.54 447.775 507.376 447.385 505.227L446.663 502.01L453.307 496.84C461.213 490.723 466.563 484.08 471.839 473.829C476.168 465.322 477.776 457.071 477.175 447.001C476.92 442.777 476.995 435.863 477.266 431.715C478.228 420.097 478.123 415.197 476.8 408.674C476.139 405.412 475.748 402.512 475.853 402.151C476.019 401.745 479.731 403.564 484.105 406.014C488.464 408.569 494.235 411.755 496.94 413.108C499.586 414.506 502.021 415.874 502.336 416.295C502.667 416.61 502.486 419 501.975 421.45ZM361.176 299.719C362.784 303.491 362.769 303.597 360.484 306.437C358.124 309.428 357.087 313.306 357.132 319.754C357.162 321.798 357.072 323.556 356.832 323.737C356.651 323.872 353.54 323.857 349.918 323.662L343.305 323.361L344.793 315.2C345.589 310.751 346.07 305.881 345.755 304.333C344.928 300.35 346.476 298.155 352.323 295.18C357.779 292.309 357.929 292.384 361.176 299.719ZM481.803 540.849C480.826 543.178 479.594 545.418 479.128 545.673C478.647 546.034 476.242 545.207 473.732 543.99C469.283 541.69 466.593 541.359 451.337 541.058C449.203 540.968 448.331 540.683 448.932 540.232C449.834 539.555 452.479 539.45 461.452 539.766C463.752 539.826 466.217 539.48 466.878 538.985C467.96 538.173 467.9 537.842 465.916 535.948C463.887 533.994 463.872 533.724 465.075 532.822C467.6 530.928 471.417 531.259 477.49 533.844C480.781 535.227 483.501 536.475 483.547 536.535C483.652 536.55 482.84 538.474 481.803 540.849ZM431.348 499.876C431.227 499.966 430.762 500.597 430.401 501.243C429.724 502.22 429.574 502.145 429.364 500.612C429.228 499.68 428.627 498.252 428.101 497.426C427.124 495.998 427.124 495.998 428.733 497.14C430.581 498.478 431.708 499.605 431.348 499.876ZM427.56 505.347C426.628 506.609 424.824 511.719 423.592 516.589C420.195 529.845 416.723 535.361 410.966 536.579C408.907 537.09 408.907 537.09 403.572 529.725C400.611 525.652 397.424 521.654 396.417 520.812L394.584 519.369L399.378 516.619C402.009 515.116 406.803 511.614 410.095 508.863L416.062 503.918L421.548 503.468C424.584 503.257 427.44 502.806 427.861 502.491C429.424 501.318 429.228 503.062 427.56 505.347ZM319.691 383.06C314.461 385.104 309.756 387.223 309.23 387.899C308.704 388.576 308.073 388.861 307.847 388.561C307.622 388.26 308.043 387.569 308.824 386.983C309.606 386.396 311.966 383.405 314.13 380.279L318.008 374.553L320.368 375.319C326.62 377.394 329.416 378.491 329.356 378.912C329.265 379.167 324.967 381.076 319.691 383.06ZM386.617 566.488C385.971 571.388 384.543 578.001 383.28 581.203C382.123 584.419 381.056 587.756 380.98 588.657C380.905 591.062 380.304 591.137 376.862 588.928C356.301 575.791 326.782 568.997 301.096 571.447C293.641 572.153 283.841 573.866 282.759 574.678C281.196 575.85 279.858 575.069 278.656 572.213C277.634 569.598 277.138 569.312 270.69 566.727C263.987 564.051 261.356 563.3 247.228 559.993C239.593 558.204 238.285 556.461 245.5 557.813C248.175 558.249 250.805 558.249 251.527 557.708C252.789 556.761 285.495 554.027 301.126 553.576C305.981 553.411 312.248 553.501 314.954 553.726C317.704 554.012 321.777 553.681 323.912 553.02C326.707 552.239 331.442 552.164 339.708 552.915C346.231 553.471 353.01 554.118 354.784 554.479C356.617 554.794 360.254 554.885 362.915 554.674C367.469 554.359 386.768 556.418 387.399 557.26C387.579 557.5 387.203 561.633 386.617 566.488ZM370.806 540.02C370.626 540.531 359.383 541.823 348.216 542.59C347.239 542.665 347.825 541.943 350.29 540.095C352.77 538.141 354.664 537.284 357.564 536.893C359.714 536.503 362.509 535.721 363.772 535.15C365.621 534.233 366.417 534.293 367.544 535.421C370.175 538.051 371.122 539.314 370.806 540.02ZM329.444 504.157C325.641 503.722 322.304 506.788 318.667 513.837C314.143 522.584 309.844 527.499 302.119 532.729C296.723 536.306 294.363 537.418 288.08 539.312C273.155 543.836 262.424 545.684 250.866 545.804L244.733 545.895L241.156 542.002C236.602 537.057 235.385 534.306 236.632 531.962C237.504 530.368 238.301 530.053 242.028 529.512C244.433 529.211 248.657 528.58 251.512 528.129C254.263 527.663 260.215 527.333 264.709 527.438C273.967 527.634 279.183 526.822 284.744 524.342C286.863 523.41 292.018 521.517 296.182 520.179C310.325 515.49 318.096 511.071 323.251 504.668C325.521 501.933 325.581 501.888 328.752 502.609C332.435 503.511 332.931 504.548 329.444 504.157ZM230.849 377.076C229.511 383.81 227.061 392.317 226.49 392.182C226.279 392.152 226.099 390.408 226.234 388.334C226.309 386.305 226.009 383.149 225.543 381.525C224.28 377.212 225.378 374.04 228.504 372.447C229.887 371.786 231.164 371.485 231.39 371.786C231.57 372.026 231.33 374.461 230.849 377.076ZM209.746 374.867C208.424 376.986 209.175 380.368 212.572 386.65C214.015 389.326 215.518 393.459 215.938 395.774C216.78 400.779 215.983 409.361 214.014 415.628C213.293 418.048 212.241 422.031 211.775 424.541C210.782 429.982 208.498 436.58 203.989 447.477C201.178 454.376 196.639 463.604 195.857 464.19C195.737 464.28 196.007 462.011 196.458 459.23C197.105 455.082 196.984 453.669 195.767 452.046C194.955 450.964 193.498 449.897 192.611 449.716C191.048 449.385 191.093 449.07 193.858 445.493C198.398 439.646 201.419 431.65 201.629 425.292C201.795 417.747 200.713 413.298 195.843 400.793C191.59 389.987 191.59 389.987 192.311 383.809C192.702 380.322 192.777 375.287 192.462 372.612C192.101 369.876 191.891 367.592 192.011 367.502C192.191 367.366 193.258 367.787 194.416 368.328C195.618 368.93 199.691 370.102 203.479 371.019C207.327 371.891 210.528 372.777 210.618 372.898C210.753 373.078 210.363 373.935 209.746 374.867ZM240.181 436.866C240.136 437.182 239.309 437.708 238.423 437.903C237.521 438.204 234.951 439.286 232.651 440.353C228.909 442.127 228.638 442.142 229.465 440.488C230.111 439.346 230.006 438.204 229.284 437.242C228.067 435.619 228.924 434.131 231.779 432.928C234.455 431.861 240.497 434.657 240.181 436.866ZM233.748 456.345C232.771 459.802 231.929 463.439 231.989 464.521C232.019 466.19 231.764 466.475 229.569 467.182C224.279 468.895 218.267 474.907 216.388 480.543C215.817 482.287 215.05 483.143 213.502 483.835C212.36 484.316 208.858 485.909 205.807 487.352C199.945 490.057 196.443 491.274 194.399 491.304C193.542 491.289 194.985 488.328 199.704 480.844C210.827 463.108 216.944 456.36 225.587 452.603C229.825 450.739 235.026 449.281 235.477 449.882C235.567 450.002 234.83 452.903 233.748 456.345ZM223.483 444.411C221.619 445.809 219.665 446.335 219.169 445.674C218.718 445.072 221.033 443.149 222.881 442.607C224.73 442.066 225.106 443.194 223.483 444.411ZM222.595 500.969C222.445 502.397 221.678 504.005 221.017 504.501C217.409 507.207 210.901 505.794 211.382 502.427C211.758 500.172 218.206 495.618 220.25 496.34C222.52 496.986 223.061 498.083 222.595 500.969ZM178.648 448.634C181.263 455.878 181.924 458.764 182.24 465.948C183.051 481.309 180.255 493.739 174.123 502.096C166.758 511.94 157.65 521.589 158.085 518.914C158.221 518.343 159.138 516.81 160.145 515.397C161.167 513.879 162.279 510.602 162.685 507.386C163.301 503.072 163.151 501.119 161.768 497.647C160.866 495.317 159.589 491.86 158.943 489.996C157.41 485.322 156.478 484.33 153.382 483.834L150.601 483.383L153.547 480.046C158.567 474.215 162.821 466.609 168.427 453.669C174.124 440.472 174.755 439.06 175.161 439.601C175.296 439.781 176.859 443.869 178.648 448.634ZM209.233 510.333C209.128 511.069 208.632 511.911 208.151 512.272C205.445 514.301 205.385 522.612 207.925 528.128L209.157 530.774L202.499 535.673C192.774 542.873 186.898 545.307 179.939 544.796C171.853 544.285 156.747 544.435 148.691 545.217C140.319 545.953 140.8 545.968 140.906 545.231C140.951 544.916 144.302 542.872 148.21 540.692C159.167 534.636 197.269 511.039 202.8 506.891C203.642 506.26 204.934 506.229 206.287 506.906C208.917 508.033 209.458 508.755 209.233 510.333ZM234.287 546.871C229.177 548.074 224.052 548.63 216.717 548.87C208.135 549.201 201.838 548.945 202.679 548.314C203.04 548.043 206.377 546.856 210.089 545.668C213.817 544.376 218.671 542.332 220.911 540.934C225.615 538.064 226.622 538.154 231.928 542.347C236.752 546.15 236.843 546.27 234.287 546.871ZM144.378 529.194C143.01 528.999 144.047 528.127 146.828 527.075L148.646 526.369L147.038 527.857C146.166 528.698 145.009 529.285 144.378 529.194ZM118.797 520.762C118.481 522.596 118.556 525.076 119.037 526.218C119.593 527.586 119.368 529.54 118.21 532.38C114.002 542.676 104.788 552.31 91.1859 560.727C81.296 566.829 78.7108 567.64 83.3702 563.206C88.766 558.126 99.2272 546.148 102.804 541.022C109.839 530.862 112.905 520.672 109.719 518.177C108.997 517.591 108.952 517.155 109.508 517.019C110.575 516.689 118.136 514.119 119.774 513.548C120.57 513.232 120.676 513.623 120.074 515.201C119.684 516.433 119.067 518.868 118.797 520.762ZM129.468 539.249C128.551 540.031 127.649 540.331 127.424 540.031C126.747 539.129 128.686 536.829 130.791 536.003C132.609 535.296 132.714 535.311 131.888 536.589C131.452 537.386 130.37 538.573 129.468 539.249Z" fill="black" fill-opacity="0.1"/>
<path d="M15.1453 759.318C13.8076 759.288 13.7926 759.393 14.9198 760.52C15.5661 761.257 16.5881 761.617 17.1442 761.482C18.3917 761.016 17.009 759.423 15.1453 759.318Z" fill="black" fill-opacity="0.1"/>
<path d="M9.31371 752.043C8.77263 752.073 8.93799 752.795 9.61433 753.696C10.2907 754.598 10.9369 754.959 11.1173 754.448C11.3427 753.997 11.1774 753.276 10.8167 752.795C10.456 752.314 9.80971 751.953 9.31371 752.043Z" fill="black" fill-opacity="0.1"/>
<path d="M505.388 451.443C503.117 450.131 499.549 447.838 497.546 446.505C495.471 445.111 492.807 443.966 491.584 443.927C488.455 443.767 488.892 445.019 495.315 455.15C498.038 459.611 501.324 466.059 502.481 469.559C504.492 475.295 505.517 485.715 504.349 487.23C504.039 487.593 504.225 492.525 504.816 498.305C505.505 506.177 505.306 510.529 503.762 515.868C499.422 532.132 499.341 543.995 503.576 564.19C505.323 572.589 505.831 578.172 505.218 582.421C504.267 589.272 505.617 596.076 509.989 606.843C512.842 613.799 512.895 614.473 511.209 621.449C506.748 639.619 505.691 650.272 506.411 668.847C506.715 676.14 506.52 677.104 502.885 683.421C498.724 690.795 494.581 701.826 494.114 707.08C493.921 708.925 492.255 715.289 490.433 721.395C488.611 727.501 487.058 733.585 486.895 734.953C486.43 741.088 485.255 749.378 484.759 749.959C484.449 750.323 482.811 750.181 481.08 749.707C478.084 748.656 478.001 748.459 477.762 742.855C477.484 738.473 478.285 734.887 480.935 728.106L484.357 719.096L483.214 701.164C482.072 684.113 482.044 675.172 483.161 673.864C484.391 672.277 479.921 659.417 477.306 657.184C476.507 656.502 476.367 653.871 476.858 650.648C477.789 644.409 476.908 639.261 473.84 632.999C472.706 630.649 470.384 624.396 468.757 619.239C465.087 607.062 462.27 602.271 454.41 593.676C450.112 589.001 446.081 583.424 442.318 576.946L436.808 567.217L425.466 558.287C419.323 553.419 411.189 547.353 407.465 544.801C403.678 542.321 396.125 536.751 390.574 532.514C379.025 523.533 377.875 523.555 380.638 532.823C381.618 535.795 382.642 540.185 382.968 542.599C383.294 545.012 384.309 550.149 385.217 553.939C387.704 564.855 388.398 570.22 387.785 574.469C387.551 576.656 387.496 580.251 387.749 582.602C388.868 593.354 389.454 606.791 388.955 611.641C388.191 618.273 388.487 621.163 391.086 630.918C392.38 636.168 392.761 640.135 392.073 643.442C390.533 650.542 389.98 658.986 390.401 667.761C390.606 672.081 390.659 677.904 390.55 680.825C390.362 685.312 392.734 695.627 396.382 706.654C396.975 708.165 397.233 713.158 397.056 717.78C396.653 728.991 399.312 737.792 412.25 768.683C422.44 793.084 422.888 794.471 421.214 796.433C420.221 797.595 419.114 798.157 418.667 797.65C416.042 795.282 414.663 794.984 412.055 796.274C408.732 797.959 406.914 800.677 407.045 804.054C407.03 807.307 406.302 810.955 405.31 812.118C404.875 812.626 404.165 814.782 403.661 816.99C403.158 819.198 402.364 821.158 401.971 821.324C401.505 821.429 401.084 823.833 401.1 826.61C401.119 831.148 400.892 831.707 398.894 832.136C397.63 832.439 395.447 833.966 393.959 835.709C390.795 839.414 384.391 844.12 383.592 843.437C383.229 843.127 383.63 841.334 384.424 839.374C386.641 833.983 388.973 824.043 389.16 818.675C389.337 814.054 389.601 811.391 391.351 800.074C391.688 797.473 391.433 789.092 390.901 781.478C390.233 773.874 390.114 760.333 390.49 751.36C391.615 727.829 391.082 720.215 386.921 706.112C384.96 699.288 382.629 688.632 381.799 682.396C380.063 668.982 378.387 664.914 369.44 651.12C365.668 645.388 361.781 639.054 360.803 636.963C354.644 624.169 353.137 621.375 349.375 615.777C347.141 612.362 344.813 608.616 344.314 607.436C343.731 606.059 341.613 604.126 338.823 602.245C336.385 600.54 334.267 598.607 334.069 597.81C333.943 597.074 328.109 590.962 321.133 584.127C314.095 577.365 306.165 569.588 303.445 566.889C300.725 564.191 295.869 560.169 292.642 557.917C285.899 553.164 284.573 553.539 285.601 559.692C286.167 563.441 284.871 578.787 283.634 582.002C282.686 584.583 281.246 595.537 281.379 599.795C281.476 601.888 280.696 605.743 279.613 608.335C276.551 615.894 275.226 627.449 275.884 640.947C276.229 647.898 276.356 654.664 276.048 655.907C275.802 657.079 276.065 659.565 276.68 661.346C277.378 663.323 277.188 666.929 276.274 670.795C271.268 691.515 272.098 708.049 279.11 728.229C280.329 731.656 281.273 737.611 281.301 741.403C281.339 745.33 282.129 751.907 283.08 756.236C284.104 760.627 284.664 766.003 284.43 768.19C283.788 773.796 288.596 790.084 292.763 796.531C295.319 800.598 296.382 803.766 297.275 809.929C299.156 823.467 308.739 844.46 321.467 863.24C324.075 867.099 326.257 870.722 326.311 871.395C326.498 872.058 327.34 873.279 328.284 874.085C329.229 874.891 331.422 878.648 333.149 882.509L336.406 889.434L328.321 903.757C319.225 919.854 316.759 925.537 315.747 932.459C314.816 938.698 310.456 955.573 309.402 956.808C308.968 957.317 308.939 958.674 309.304 959.865C309.669 961.056 309.703 962.34 309.393 962.703C309.082 963.067 308.965 966.735 309.222 970.847C309.478 974.96 308.849 981.581 307.883 985.655C306.495 991.252 306.236 996.557 307.139 1008C308.043 1020.33 307.946 1023.39 306.436 1024.86C305.422 1025.75 303.824 1029.54 302.826 1033.21C301.046 1039.85 299.219 1043.32 293.288 1051.44C291.573 1053.74 288.796 1058.91 287.135 1062.77C284.34 1069.42 284.041 1069.92 281.948 1070.02C279.917 1070.04 279.761 1069.78 279.684 1067.08C279.505 1060.52 281.315 1048.25 284.757 1033.48C295.022 989.243 298.817 942.873 297.046 884.339C295.567 837.232 292.345 816.144 283.03 794.249C277.295 780.812 272.162 773.29 263.195 765.256C255.608 758.402 255.307 758.019 251.872 749.685C248.447 741.486 248.063 740.907 242.033 735.759C232.6 727.83 220.681 720.165 215.768 718.858C213.342 718.169 209.371 716.788 206.913 715.694C201.231 713.229 177.976 710.455 176.964 712.229C176.541 712.872 177.145 714.518 178.412 715.976C179.544 717.445 181.146 720.571 181.875 722.953C184.065 730.097 188.659 742.811 189.626 744.768C191.061 747.5 194.409 759.025 193.913 759.606C192.797 760.914 195.525 784.344 197.274 788.475C198.356 791.032 199.152 795.102 199.125 797.34C199.036 799.651 199.025 804.665 199.126 808.519C199.285 815.688 199.276 816.434 197.746 823.669C196.864 827.939 197.673 833.905 200.427 843.919C201.283 847.036 202.197 853.468 202.579 858.316C203.303 868.354 204.068 872.901 205.661 876.772C206.244 878.149 206.683 880.283 206.696 881.298C206.626 882.997 206.502 883.143 205.34 882.15C204.541 881.468 203.065 879.077 202.004 876.79C201.015 874.564 199.779 872.629 199.364 872.526C198.131 872.352 192.76 865.255 190.815 861.208C185.759 850.36 184.035 848.26 169.143 835.544C159.47 827.16 154.561 822.466 153.593 820.51C152.47 818.294 150.436 816.558 145.062 812.849C141.203 810.307 134.624 805.067 130.535 801.324C124.982 796.206 122.533 794.366 120.896 794.224C118.72 794.125 118.658 794.198 118.725 796.767C118.77 798.186 119.46 801.79 120.429 804.627C121.535 808.334 121.627 812.934 120.791 820.385C120.171 826.261 119.625 833.079 119.568 835.794C119.583 838.57 118.391 843.204 116.843 846.781C115.121 850.711 114.176 855.054 114.11 858.514C114.137 861.426 113.061 867.54 111.857 872.039C110.581 876.476 109.773 881.689 109.994 883.636C110.215 885.583 109.548 894.308 108.477 903.065C106.416 919.014 106.7 926.918 109.344 932.943C110.166 934.775 110.44 937.396 110.008 938.785C108.751 942.611 109.68 956.969 111.416 960.084C112.217 961.647 112.795 965.531 112.573 968.733C112.142 976.152 113.346 982.832 117.582 997.878C119.387 1004.44 121.172 1011.62 121.55 1013.83C123.374 1024.93 131.665 1042.43 143.479 1059.93C145.162 1062.37 148.242 1068.77 150.22 1074.1C157.197 1092.12 159.277 1096.15 166.36 1105.21C170.193 1109.99 175.249 1115.69 177.523 1117.88C180.003 1120.13 183.795 1125.25 186.612 1130.04C190.582 1136.57 192.981 1139.5 198.607 1144.68C202.478 1148.24 207.742 1153.99 210.256 1157.51C212.77 1161.04 216.156 1165.31 217.724 1167.16C221.525 1171.53 225.371 1183.36 224.853 1188.82C224.202 1195.17 224.948 1200.33 226.974 1203.69C228.929 1206.99 229.467 1217.25 228.165 1224.8C227.632 1227.49 225.594 1234.29 223.47 1240.01C219.421 1251.37 217.826 1256.92 217.421 1262.1C217.228 1263.95 216.106 1267.76 214.91 1270.63C210.238 1281.84 209.508 1284.61 209.725 1289.94C209.824 1292.92 209.395 1296.07 208.713 1296.87C208.093 1297.59 207.733 1299.04 207.953 1300.11C208.394 1303.13 205.818 1316 203.899 1320.01C202.619 1322.69 202.458 1324.93 203.388 1328.99C204.401 1333.25 204.158 1336.18 202.184 1343.79C200.764 1348.99 199.936 1354.81 200.303 1356.88C201.089 1361.7 199.887 1372.23 198.499 1372.67C197.837 1372.86 195.871 1374.57 193.989 1376.48C192.108 1378.39 188.549 1381.38 186.045 1383.14C182.962 1385.28 180.077 1388.22 177.143 1392.24C173.113 1397.85 172.73 1398.15 171.35 1396.97C167.863 1393.99 160.794 1398 160.131 1403.34C159.713 1406.63 156.424 1409.6 146.407 1415.74C141.946 1418.46 137.827 1420.34 135.599 1420.45C132.098 1420.73 131.715 1421.03 128.057 1426.19L124.152 1431.65L111.179 1436.4L98.1444 1441.22L100.542 1443.27C101.849 1444.39 105.769 1445.97 109.231 1446.92C112.755 1447.79 115.886 1448.84 116.249 1449.15C116.613 1449.46 119.742 1449.62 123.326 1449.54C128.196 1449.42 130.319 1448.85 132.542 1446.98C134.063 1445.64 138.078 1443.29 141.473 1441.67C147.022 1439 150.56 1436.62 155.432 1432.24C158.276 1429.64 172.679 1419.83 176.715 1417.75C178.661 1416.65 180.66 1416.22 181.168 1416.66C182.694 1417.96 193.446 1411.69 197.551 1407.03C198.295 1406.16 198.809 1404.09 198.743 1402.4C198.543 1400.72 198.892 1399.13 199.348 1398.89C199.865 1398.58 202.13 1396.37 204.519 1394.02C211.54 1386.82 217.43 1384.19 228.742 1383.3C234.129 1382.87 238.945 1382.09 239.441 1381.51C239.875 1381 242.289 1380.67 244.744 1380.88C247.128 1381.04 250.101 1380.94 251.168 1380.72C252.296 1380.43 253.664 1380.59 254.173 1381.02C254.681 1381.46 256.535 1380.9 258.273 1379.75C263.499 1376.43 273.399 1373.95 290.449 1371.93C299.243 1370.9 310.222 1369.22 314.758 1368.32C321.759 1366.89 324.474 1366.94 330.828 1368.48C335.658 1369.59 342 1370.1 347.936 1369.77C353.126 1369.43 359.414 1369.27 361.797 1369.42C369.558 1369.89 381.589 1376.4 390.941 1385.01C402.856 1396.06 405.356 1397.7 414.179 1400.46C430.154 1405.43 429.947 1405.38 447.649 1419.36C465.362 1433.48 466.285 1434.02 475.538 1434.51C483.227 1434.92 489.354 1437.01 502.4 1443.5C517.064 1450.75 523.927 1452.71 537.48 1453.61C556.401 1454.69 573.615 1452.19 585.032 1446.61C588.034 1445.15 590.458 1444.96 594.583 1445.72C597.609 1446.3 605.287 1446.57 611.638 1446.34C623.728 1445.86 631.978 1447.38 635.973 1450.79C639.097 1453.46 645.72 1454.97 652.755 1454.82C655.925 1454.64 662.589 1455.81 668.135 1457.4C673.474 1458.95 680.875 1460.87 684.669 1461.72C689.291 1462.78 693.149 1464.44 696.655 1466.81C702.175 1470.64 707.836 1472.84 708.828 1471.68C709.2 1471.24 709.438 1470.82 709.365 1470.75C709.22 1470.63 706.374 1467.2 702.875 1463.2C695.627 1454.63 677.607 1437.48 675.908 1437.41C675.235 1437.47 673.015 1435.95 670.835 1434.09C668.729 1432.29 666.156 1430.6 665.192 1430.4C664.228 1430.2 661.168 1428.35 658.367 1426.33C655.566 1424.32 651.324 1422.08 648.825 1421.32C646.327 1420.57 640.882 1417.68 636.732 1414.89C632.521 1412.18 627.615 1409.24 625.862 1408.5C621.3 1406.49 608.218 1402.98 603.088 1402.37C600.694 1402.08 598.134 1401.4 597.418 1400.92C594.99 1399.35 591.259 1398.42 588.441 1398.78C586.96 1398.9 585.323 1398.75 584.814 1398.32C584.233 1397.82 582.606 1397.82 581.084 1398.28C579.034 1398.91 578.205 1398.71 577.684 1397.26C577.34 1396.33 576.665 1395.51 576.261 1395.54C575.049 1395.63 569.459 1392.62 560.559 1387.16C550.165 1380.79 533.357 1373.85 518.202 1369.83C494.951 1363.67 454.307 1358.61 433.079 1359.2C427.06 1359.33 415.062 1359.26 406.297 1358.94C397.604 1358.67 382.312 1358.93 372.408 1359.64C356.092 1360.66 350.238 1360.31 350.141 1358.21C349.962 1356.8 363.369 1351.55 376.882 1347.64C384.503 1345.48 393.884 1342.43 397.818 1340.77C402.352 1338.99 407.748 1337.82 412.472 1337.58C423.204 1337.07 443.908 1338.42 452.168 1340.08C456.096 1340.92 463.092 1341.99 467.672 1342.51C472.253 1343.03 480.419 1344.35 485.654 1345.43C495.707 1347.48 503.853 1348.54 505.313 1348.15C505.841 1347.97 508.1 1348.27 510.453 1348.9C512.869 1349.45 520.444 1350.14 527.313 1350.48C534.245 1350.75 543.478 1351.85 547.697 1352.94C551.916 1354.03 559.006 1355.44 563.317 1355.98C567.7 1356.58 573.67 1357.53 576.624 1358.04C582.749 1359.25 588.531 1359.54 599.606 1359.08C603.926 1358.87 607.946 1359.17 608.662 1359.65C612.792 1363.05 627.735 1364.38 640.185 1362.45C650.024 1360.93 652.891 1359.48 656.166 1354.62C658.893 1350.54 658.955 1350.47 662.458 1351.07C668.024 1352.06 675.638 1351.53 680.515 1349.79C682.958 1348.98 686.708 1348.42 688.687 1348.6C705.63 1350.38 723.743 1346.38 733.964 1338.53C735.433 1337.39 739.502 1335.72 742.877 1334.71C746.263 1333.83 759.039 1329.17 771.131 1324.42C798.67 1313.64 808.683 1310.89 825.859 1309.6C833.265 1309.02 839.636 1308.18 840.07 1307.67C840.628 1307.02 839.714 1305.73 837.316 1303.69C835.282 1301.95 832.789 1298.69 831.5 1296.08C829.95 1292.75 827.042 1289.39 820.586 1283.12C815.811 1278.42 811.502 1273.61 810.991 1272.29C810.481 1270.98 809.774 1269.74 809.214 1269.52C808.727 1269.35 805.832 1267.01 802.915 1264.39C799.636 1261.47 795.984 1258.98 793.402 1258.03C791.163 1257.12 788.622 1255.83 787.75 1255.08C786.951 1254.4 783.799 1253.09 780.751 1252.25C777.009 1251.19 772.705 1249.02 767.258 1245.25C762.248 1241.85 757.933 1239.55 755.663 1239.12C753.674 1238.8 751.579 1238.02 750.998 1237.52C749.69 1236.4 738.081 1233.53 736.559 1233.98C736.031 1234.16 731.222 1233.32 725.977 1232.11C715.964 1229.71 696.164 1229.51 694.034 1231.71C692.535 1233.32 684.071 1233.38 678.328 1231.87C672.171 1230.25 657.669 1231.94 649.459 1235.23C645.256 1236.91 638.11 1238.22 627.886 1239.16C619.547 1239.96 609.293 1241.37 605.099 1242.31C597.911 1243.96 594.961 1245.21 575.272 1254.15C570.366 1256.37 566.017 1257.93 565.581 1257.56C565.218 1257.25 562.773 1257.17 560.214 1257.37C557.728 1257.63 555.625 1257.6 555.604 1257.33C555.519 1256.25 574.309 1243.66 578.771 1241.81C581.597 1240.71 589.873 1239.11 597.527 1238.24C625.93 1234.98 635.934 1232.97 648.005 1227.96C654.372 1225.35 659.105 1224.37 670.614 1223.4C682.796 1222.37 686.793 1221.51 694.672 1218.32C702.488 1215.19 706.351 1214.35 716.389 1213.62C741.116 1211.88 752.157 1210.13 757.549 1207.19C760.271 1205.62 765.22 1203.95 768.442 1203.56C774.543 1202.74 782.483 1199.47 790.43 1194.57C794.497 1192.02 800.15 1189.81 802.522 1189.83C802.926 1189.79 806.415 1188.5 810.225 1186.98C817.772 1183.88 826.248 1178.81 831.45 1174.33C837.481 1169.18 842.885 1167.27 851.608 1167.05C856.074 1166.97 859.896 1166.47 859.915 1165.86C860.243 1164 857.77 1160.13 854.168 1156.55C852.33 1154.73 849.154 1151.39 847.088 1149.25C844.056 1146.04 842.065 1144.84 836.767 1142.95C826.295 1139.04 817.069 1136.31 814.499 1136.37C813.215 1136.41 810.146 1135.3 807.594 1133.87C804.981 1132.52 801.85 1131.48 800.441 1131.66C799.167 1131.82 797.737 1131.73 797.301 1131.36C795.703 1130 797.13 1128.33 800.424 1128C808.41 1127.03 820.452 1123.37 827.148 1119.79C843.015 1111.36 847.549 1109.58 853.009 1109.22C856.044 1109.05 860.054 1109.21 861.92 1109.67C866.885 1110.77 868.393 1108.41 865.473 1104.04C861.878 1098.83 846.979 1087.74 841.215 1085.96C838.789 1085.27 836.197 1084.19 835.543 1083.63C834.017 1082.33 825.289 1079.9 819.755 1079.32C817.3 1079.11 814.594 1078.3 813.722 1077.56C810.816 1075.08 804.507 1074.97 783.727 1076.94L763.009 1078.85L748.438 1087.38C733.484 1096.22 730.284 1096.87 737.719 1089.78C739.984 1087.57 747.625 1079.65 754.687 1072.12L767.57 1058.5L770.266 1048.87C771.675 1043.54 773.509 1038.45 774.316 1037.51C776.672 1034.75 780.231 1026.61 781.743 1020.86C783.152 1015.54 782.446 1004.01 779.772 987.28C779.1 983.064 778.927 979.148 779.361 978.64C779.733 978.204 779.477 974.091 778.649 969.617C775.978 954.651 774.577 953.203 769.39 960.455C764.152 967.914 752.194 977.8 738.813 985.969C731.311 990.49 729.914 991.684 723.351 999.518C716.353 1007.86 713.905 1012.05 711.681 1019.07C711.146 1020.87 709.101 1024.15 707.116 1026.48C702.34 1032.07 697.809 1040.76 696.029 1047.4C694.466 1053.35 691.274 1058.42 691.443 1054.54C691.492 1053.45 692.244 1050.96 693.111 1049.06C700.868 1031.44 711.262 1006.03 712.022 1002.78C713.142 998.087 712.292 976.135 710.834 972.252C710.313 970.803 707.549 966.685 704.9 963.167C702.179 959.588 699.768 955.645 699.61 954.505C699.442 953.231 699.077 952.041 698.786 951.792C698.496 951.544 697.87 949.629 697.431 947.495C696.469 943.032 691.477 932.991 689.37 931.193C688.062 930.076 688.186 929.931 691.746 927.821C693.754 926.647 697.812 924.836 700.773 923.722C703.807 922.67 709.686 919.903 714.043 917.594C718.339 915.359 725.42 912.362 729.862 911.131C737.079 909.003 738.364 908.97 741.744 910.6C748.164 913.821 747.092 911.398 738.945 904.317C734.649 900.523 730.809 897.37 730.311 897.07C726.225 895.089 718.984 890.036 707.093 881.014C699.311 875.123 692.495 870.308 691.811 870.227C691.127 870.145 688.885 868.357 686.83 866.351C674.156 854.274 649.903 843.99 623.392 839.44C608.208 836.775 594.671 833.506 594.524 832.501C594.49 831.217 610.383 825.696 615.366 825.303C617.925 825.101 623.531 825.743 627.874 826.688C632.155 827.706 637.306 828.587 639.212 828.708C645.274 829.111 655.466 827.765 663.626 825.564C668.007 824.405 674.821 823.191 678.862 822.872C684.052 822.531 687.831 821.488 691.671 819.491C701.224 814.334 708.089 812.032 713.58 812.073C716.502 812.181 721.784 811.291 725.367 810.331C736.229 807.171 749.776 804.545 753.786 804.703C758.137 804.902 762.17 806.21 766.215 808.534C767.782 809.494 769.513 809.968 770.092 809.583C772.1 808.409 769.263 804.228 761.177 796.193C750.672 785.842 746.095 781.935 732.119 771.383L720.664 762.733L710.339 759.82C704.586 758.174 695.048 754.928 689.034 752.557C682.595 749.948 677.256 748.404 675.993 748.706C674.864 748.999 671.216 748.27 667.867 747.043C661.097 744.528 654.796 743.67 647.938 744.346C645.11 744.569 642.436 744.17 641.492 743.363C639.821 741.937 639.883 741.864 647.182 739.053C651.199 737.585 656.737 734.777 659.51 733C665.687 728.854 673.358 725.607 685.204 722.031C698.178 718.163 704.327 715.375 714.457 708.953C726.202 701.523 731.502 699.14 739.435 697.498C746.178 696.222 754.056 693.026 754.022 691.741C753.991 691.337 751.492 690.586 748.611 690.135C745.657 689.623 741.396 687.994 739.248 686.537C731.821 681.703 712.584 672.311 707.608 671.077C704.986 670.471 699.099 669.715 694.664 669.32C690.167 668.996 683.969 667.724 680.89 666.476C677.883 665.29 674.006 664.241 672.369 664.099C670.731 663.957 667.508 663.465 665.228 662.9C659.838 661.563 635.95 663.649 627.801 665.986C617.539 669.03 616.939 669.145 616.822 667.664C616.758 666.856 618.16 663.155 620.017 659.214C625.259 648.367 626.396 641.299 625.201 628.724C624.494 622.343 624.962 617.97 627.243 608.237C628.878 601.468 629.994 595.012 629.847 594.007C629.47 591.801 628.363 592.362 618.172 599.738C611.768 604.443 601.095 609.146 594.342 610.288C592.136 610.666 579.108 619.01 577.051 621.272C576.368 622.071 573.946 623.143 571.751 623.655C569.555 624.167 565.859 625.407 563.436 626.478C559.255 628.434 559.255 628.434 560.017 626.07C563.138 616.678 566.745 601.42 567.209 595.286C567.988 585.4 566.818 569.706 564.583 560.262C563.559 555.871 562.032 548.538 561.173 543.66C559.559 534.37 549.856 510.134 545.806 505.169C544.601 503.638 541.991 498.898 540.097 494.643C536.893 487.511 534.086 482.854 523.78 468.151C519.655 462.243 512.504 455.76 505.388 451.443ZM661.225 954.889C661.588 955.199 662.261 960.295 662.801 966.282C663.341 972.27 664.086 977.428 664.45 977.738C664.813 978.048 666.072 981.133 667.291 984.56C669.323 990.566 669.242 991.25 666.84 997.74C665.376 1001.51 663.829 1005.09 663.333 1005.67C661.472 1007.85 657.178 1021.27 655.712 1029.31C654.912 1033.78 653.81 1042.13 653.375 1047.79C652.463 1058.56 650.216 1069.58 648.541 1071.54C647.983 1072.2 647.933 1073.28 648.328 1074C648.661 1074.78 648.674 1075.8 648.24 1076.31C647.868 1076.74 647.653 1078.32 647.832 1079.73C648.011 1081.14 647.858 1082.64 647.548 1083C647.238 1083.37 647.034 1085.08 647.234 1086.75C647.3 1088.44 647.244 1092.04 647.042 1094.63C646.851 1097.35 646.797 1101.83 647.082 1104.58C647.44 1107.4 647.005 1113.06 646.257 1117.32C645.499 1121.44 644.733 1127.2 644.749 1129.97C644.63 1132.76 643.623 1137.17 642.478 1139.84C641.322 1142.37 639.396 1148.01 638.233 1152.17C637.009 1156.4 635.617 1160.23 635.183 1160.74C634.005 1162.12 632.178 1160.44 632.775 1158.56C633.61 1156.26 631.247 1150.35 628.631 1148.11C626.888 1146.62 625.095 1146.22 621.666 1146.56C619.107 1146.76 616.632 1147.16 616.177 1147.4C615.783 1147.57 613.813 1146.64 611.738 1145.24C608.014 1142.69 607.941 1142.63 609.552 1139.86C610.45 1138.37 612.127 1132.14 613.41 1126.07C614.621 1119.95 617.524 1110.37 619.647 1104.65C628.05 1083.18 635.407 1057.06 637.634 1040.63C641.383 1013.43 632.268 971.738 619.058 955.435C617.033 952.952 615.433 950.707 615.412 950.438C615.39 950.168 620.446 949.838 626.6 949.691C642.896 949.287 649.681 948.549 654.805 946.519L659.402 944.666L659.992 949.566C660.339 952.249 660.934 954.641 661.225 954.889ZM524.805 836.778C522.93 837.061 517.565 837.755 512.935 838.323C499.376 839.934 481.188 848.143 470.007 857.561C466.314 860.562 462.901 863.677 462.404 864.258C460.792 866.147 451.948 873.416 450.436 874.009C448.531 874.769 449.832 867.214 451.911 865.221C453.369 863.954 453.316 863.28 451.385 861.129C449.516 858.905 449.433 858.708 451.185 859.451C453.581 860.617 459.866 858.699 461.384 856.479C461.921 855.556 461.929 853.929 461.429 852.749C460.306 850.534 460.728 849.01 462.18 850.251C464.069 851.864 467.776 850.758 470.257 847.853C472.428 845.31 472.736 844.066 472.221 840.11L471.642 835.345L476.238 833.492C481.953 831.212 501.677 829.59 510.091 830.62C515.574 831.408 525.629 834.341 527.507 835.819C527.933 836.057 526.752 836.556 524.805 836.778ZM570.235 959.216L570.005 963.163L565.981 961.109C563.782 959.86 561.179 958.642 560.215 958.447C559.241 958.117 558.722 957.549 559.032 957.185C559.9 956.168 569.086 954.089 569.812 954.71C570.176 955.02 570.335 957.04 570.235 959.216ZM688.527 1068.25C688.25 1069.9 686.735 1073.88 685.011 1076.93C680.21 1085.64 679.021 1092.04 679.315 1105.23C679.703 1117.87 678.726 1121.81 674.709 1123.27C673.001 1123.95 671.905 1125.53 669.47 1130.73C666.344 1137.48 664.834 1138.96 659.017 1141.65C656.853 1142.57 655.985 1143.59 654.913 1146.31C654.119 1148.27 651.805 1151.57 649.799 1153.63L646.169 1157.44L651.782 1145.27C654.846 1138.59 661.161 1125.02 665.731 1115.11C673.511 1098.64 686.23 1070.06 687.549 1066.16C688.508 1063.72 688.862 1064.77 688.527 1068.25ZM421.757 857.435C419.71 859.832 419.255 860.071 419.676 858.547C420.541 855.769 422.836 853.081 423.708 853.826C424.144 854.198 423.256 855.826 421.757 857.435ZM709.742 1114.75C707.198 1116.85 703.774 1119.83 701.995 1121.33C700.289 1122.88 698.871 1123.81 698.85 1123.54C698.797 1122.87 712.034 1110.3 713.979 1109.2C716.898 1107.55 714.263 1111.08 709.742 1114.75ZM548.521 1024.07C547.964 1025.61 543.554 1032.39 538.604 1039.22C531.205 1049.35 529.171 1052.77 527.482 1057.98C526.328 1061.39 523.471 1068.12 521.201 1072.84C515.298 1084.75 513.632 1091.12 513.961 1100.44C514.32 1109.29 513.765 1111.71 508.812 1121.92C503.002 1134.17 498.969 1159.49 499.762 1178.12C500.084 1183.92 499.965 1191.86 499.537 1195.89C499.037 1199.86 499.07 1206.29 499.524 1210.32C499.904 1214.29 500.053 1221.33 499.741 1225.96C499.428 1230.59 499.899 1238.28 500.675 1242.96C502.644 1254.18 501.696 1256.77 487.883 1276.62C478.398 1290.38 478.584 1290.16 471.122 1294.34C465.679 1297.48 463.763 1298.1 462.674 1297.17C461.511 1296.18 461.841 1295.21 465.437 1290.11C470.964 1282.02 478.738 1268.06 481.79 1260.37C489.523 1240.72 492.271 1220.58 493.027 1177.77C493.269 1163.66 493.847 1157.25 495.188 1154.5C497.17 1150.41 508.16 1117.09 509.773 1110.06C511.069 1105.01 510.732 1080.98 509.151 1066.95C508.497 1061.24 507.063 1053.36 505.947 1049.52C504.758 1045.61 503.954 1042.29 504.14 1042.07C504.326 1041.85 506.998 1041.37 510.085 1040.99C517.004 1040.24 521.507 1038.06 531.315 1030.98C538.423 1025.75 548.162 1020.37 549.033 1021.12C549.251 1021.3 549.015 1022.61 548.521 1024.07ZM678.833 1139.48C677.933 1140.09 677.084 1140.5 676.938 1140.38C676.793 1140.25 677.206 1139.47 677.888 1138.67C678.571 1137.88 679.419 1137.47 679.783 1137.78C680.146 1138.09 679.733 1138.87 678.833 1139.48ZM430.844 970.068C428.205 971.834 424.068 975.209 421.617 977.638C418.338 980.742 415.813 982.229 412.634 983.157C407.125 984.607 404.404 986.177 397.369 991.474C394.431 993.738 389.019 997.281 385.459 999.391C380.088 1002.59 377.875 1004.6 372.168 1011.28C366.648 1017.74 364.311 1019.89 360.347 1022.04C355.99 1024.34 353.404 1026.78 340.874 1040.58C330.784 1051.81 325.624 1056.82 323.729 1057.71C321.566 1058.63 320.883 1059.43 320.669 1061C320.485 1062.1 318.916 1065.41 317.181 1068.33C314.434 1073.01 313.121 1074.4 306.779 1079.04C299.858 1084.05 297.207 1084.81 297.698 1081.58C297.779 1080.9 297.333 1080.39 296.711 1080.24C296.027 1080.16 295.694 1079.37 295.765 1078.55C296.123 1076.22 302.781 1068.71 305.224 1067.91C306.943 1067.37 307.439 1066.79 307.767 1064.93C307.992 1063.49 310.337 1059.72 313.675 1055.66C316.631 1051.9 319.266 1048.38 319.359 1047.83C319.635 1046.18 329.732 1038.47 337.639 1033.92C348.599 1027.7 359.305 1019.14 369.201 1008.87C373.957 1003.89 381.362 997.275 385.645 994.024C391.78 989.34 394.614 986.61 399.037 980.841C405.672 972.188 408.135 970.774 419.289 968.743C423.297 968.02 428.569 966.995 431.034 966.462C433.426 965.867 435.446 965.708 435.478 966.112C435.51 966.516 433.482 968.302 430.844 970.068ZM598.671 1181.44C597.978 1182.1 597.801 1181.57 598.139 1179.85C598.806 1176.28 599.933 1175.1 599.752 1177.96C599.651 1179.26 599.167 1180.86 598.671 1181.44ZM606.494 1186.99C603.516 1190.47 602.313 1189.82 603.331 1185.54C604.132 1181.96 605.488 1181.1 607.594 1182.9C608.757 1183.89 608.54 1184.59 606.494 1186.99ZM588.064 1182.68C588.023 1188.17 587.2 1191.49 583.599 1199.09C580.865 1204.79 578.035 1209.28 565.057 1227.72L562.32 1231.66L559.952 1229.14C558.624 1227.75 557.337 1226.91 556.965 1227.34C556.655 1227.7 555.09 1227.62 553.421 1227.08C551.825 1226.59 550.063 1226.6 549.629 1227.11C549.133 1227.69 548.398 1227.81 547.889 1227.38C547.308 1226.88 550.76 1222.55 561.667 1210.51C570.703 1200.51 576.946 1192.91 578.247 1190.5C581.013 1185.2 586.718 1177.64 587.517 1178.32C587.807 1178.57 588.101 1180.58 588.064 1182.68ZM594.603 1199.44C594.295 1200.69 592.848 1202.97 591.277 1204.51L588.454 1207.38L591.199 1201.81C593.893 1196.45 595.496 1195.31 594.603 1199.44ZM397.149 1081.47C396.871 1082.23 394.346 1083.72 391.53 1084.96C388.704 1086.06 385.206 1088.1 383.686 1089.44C381.968 1090.86 377.962 1092.46 372.763 1093.55C361.972 1095.89 354.799 1099.44 347.725 1105.96C344.632 1108.85 340.277 1112.03 338.113 1112.95C336.022 1113.93 331.417 1116.53 327.93 1118.7C321.866 1122.56 320.739 1123.74 298.823 1149.11C275.171 1176.52 275.295 1176.37 269.075 1190.28C267.868 1193.01 264.977 1198.46 262.706 1202.3C260.361 1206.07 257.977 1211.07 257.277 1213.36C254.828 1221.82 247.72 1232.21 242.524 1235.05L239.989 1236.41L239.948 1231.6C239.836 1221.58 246.014 1201.99 252.551 1191.24C255.784 1185.84 257.081 1181.67 256.38 1177.93C256.139 1176.59 256.745 1173.97 257.684 1172.14C263.185 1161.13 265.984 1156.24 268.588 1153.19C271.628 1149.63 275.165 1141.22 275.385 1137.14C275.474 1134.83 275.401 1134.76 272.812 1135.44L270.223 1136.12L271.181 1132.79C275.938 1117.51 286.172 1100.38 290.864 1099.74C292.003 1099.58 296.051 1097.63 299.797 1095.31C307.951 1090.46 310.508 1089.38 318.865 1087.1C326.165 1085.16 329.874 1084.94 345.572 1085.53C357.736 1086 364.303 1085.07 370.958 1081.84C373.246 1080.78 378.062 1079.99 383.066 1079.87C387.739 1079.84 392.172 1079.35 393.072 1078.74C394.945 1077.57 397.809 1079.52 397.149 1081.47ZM231.198 945.425C230.578 946.151 234.396 959.333 236.476 963.37C237.36 965.129 237.996 967.18 237.914 967.864C237.833 968.548 237.512 968.776 237.273 968.321C237.033 967.865 235.588 964.998 233.935 962.08C230.836 956.294 228 941.815 230.46 943.789C231.113 944.348 231.446 945.134 231.198 945.425ZM247.355 985.345C250.017 989.878 252.646 994.007 253.165 994.575C253.746 995.072 255.004 997.276 255.982 999.367C257.033 1001.52 259.175 1005.48 260.879 1008.2C264.578 1013.87 271.183 1032.32 271.972 1038.89C272.236 1041.38 272.853 1044.04 273.32 1044.82C274.017 1045.91 272.244 1061.23 270.783 1066.77C270.012 1069.88 269.618 1075.19 269.898 1080.45C270.254 1087.54 267.148 1104.86 265.101 1107.25C264.295 1108.2 263.276 1111.6 262.857 1114.88C261.395 1124.69 260.016 1129.54 254.221 1143.68C244.177 1168.39 242.054 1174.11 242.461 1175.84C242.901 1177.98 241.102 1180.08 237.303 1181.74C233.431 1183.33 232.797 1182.16 233.196 1174.34C233.647 1166.31 235.137 1160.3 240.167 1146.76C245.753 1131.68 247.797 1122.37 247.087 1114.23C246.79 1110.46 246.937 1106.32 247.453 1105.12C249.454 1100.43 251.856 1088.79 252.214 1081.31C252.486 1077.02 253.498 1070.09 254.453 1065.88C256.456 1056.92 256.076 1047.8 253.317 1041.18C251.996 1038.16 251.103 1032 250.829 1024.23C250.578 1017.61 249.829 1010.69 249.163 1009.12C248.486 1007.41 246.754 1000.91 245.312 994.652C244.005 988.387 242.168 981.418 241.314 979.181C239.907 975.092 240.161 972.294 241.762 975.42C242.106 976.341 244.694 980.812 247.355 985.345ZM471.326 1217.9C470.463 1221.56 470.475 1227.72 471.385 1237.54C472.209 1245.4 472.568 1254.25 472.19 1257.19C471.163 1267.37 463.635 1280.16 448.553 1297.68L437.316 1310.69L426.364 1315.28C420.328 1317.79 410.658 1321.46 404.777 1323.35C398.834 1325.31 393.709 1327.34 393.213 1327.92C392.717 1328.5 390.481 1329.36 388.285 1329.87C386.09 1330.38 382.922 1331.44 381.286 1332.18C377.964 1333.87 376.698 1333.29 374.971 1329.43C373.837 1327.08 373.951 1326.8 379.791 1320.1C383.141 1316.18 387.222 1310.37 389.111 1306.83C392.724 1300.25 393.407 1299.45 408.2 1287.71C414.758 1282.39 431.867 1263.08 440.175 1251.59C442.303 1248.51 448.69 1240.14 454.281 1232.86C460.007 1225.57 465.72 1217.26 467.113 1214.3C468.579 1211.41 470.303 1208.36 470.851 1207.57C471.967 1206.26 472.112 1206.39 472.408 1209.28C472.619 1211.09 472.108 1214.92 471.326 1217.9ZM507.33 1271.5C505.737 1272.78 503.346 1274.25 502.032 1274.76C499.671 1275.76 499.599 1275.7 501.819 1272.07C503.09 1270.14 504.391 1267.73 504.866 1266.88C505.443 1265.62 505.993 1265.71 507.809 1267.26C510.133 1269.24 510.071 1269.32 507.33 1271.5ZM378.782 1216.25C379.599 1220.59 379.974 1227.06 379.577 1230.62C379.078 1235.47 379.711 1240.91 381.926 1250.96C385.625 1266.93 386.992 1282.54 385.485 1290.93C383.691 1300.82 380.243 1306.92 369.924 1317.83C365.116 1323.02 359.584 1328.47 357.732 1329.9C355.694 1331.56 353.957 1333.59 353.452 1334.92C352.958 1336.38 351.459 1337.99 349.534 1339.36C346.513 1341.43 317.699 1351.49 304.372 1355.18C298.666 1356.72 297.92 1356.71 297.233 1354.86C296.296 1352.43 293.983 1351.46 292.743 1352.91C292.309 1353.42 291.024 1353.46 289.832 1352.94C287.498 1351.7 285.324 1352.48 277.759 1357.08C269.491 1362.2 264.561 1363.27 261.117 1360.83C258.098 1358.63 258.76 1358.44 250.391 1364.86C249.057 1365.98 248.165 1365.85 246.495 1364.42C244.678 1362.87 243.663 1362.88 239.802 1364.61C237.245 1365.69 233.786 1366.5 232.076 1366.3C229.216 1366.12 228.926 1365.87 227.615 1362.99C226.189 1359.52 224.062 1358.33 222.512 1360.14C219.648 1363.35 218.661 1362.01 219.032 1355.54C219.284 1351.86 219.091 1348.56 218.582 1348.12C217.627 1347.18 218.193 1339.75 219.969 1331.35C220.781 1327.89 220.888 1324.09 220.378 1322.78C219.628 1321.01 220.327 1317.84 223.398 1309.53C226.531 1301.15 227.333 1297.57 226.87 1294.28C226.617 1291.93 227.011 1286.62 227.842 1282.55C232.35 1261.53 234.037 1255.44 235.3 1255.14C236.108 1255.07 239.5 1251.69 243.046 1247.68C249.941 1239.75 256.615 1235.03 264.98 1232C276.649 1227.89 304.011 1222.62 325.92 1220.35C336.734 1219.16 347.431 1216.49 370.035 1209.28C373.276 1208.28 376.279 1207.71 376.57 1207.96C376.933 1208.27 377.904 1211.98 378.782 1216.25ZM440.928 1324.7C437.393 1328.84 433.323 1329.64 434.59 1325.95C435.27 1324.27 442.08 1320.41 442.952 1321.15C443.315 1321.46 442.427 1323.09 440.928 1324.7Z" fill="url(#paint0_linear_97_23)"/>
<path d="M-14.3637 1412.01C-14.3637 1413.12 -13.7185 1415.3 -13.0733 1416.38C-12.8313 1416.75 -12.1054 1417.61 -11.4333 1418.32C-10.7612 1419.04 -10.3311 1419.61 -10.4655 1419.61C-10.6268 1419.61 -12.2399 1419.23 -14.0949 1418.77C-20.6547 1417.18 -22.0527 1416.91 -24.9831 1416.65C-30.8439 1416.13 -32.672 1416.94 -38.4253 1422.76C-41.2212 1425.59 -41.6514 1426.39 -41.9471 1429.73C-42.1353 1431.89 -41.8396 1433.24 -40.7642 1434.66C-39.3662 1436.55 -37.2423 1436.71 -31.8386 1435.36C-22.7248 1433.07 -15.7348 1433.45 -6.97052 1436.71C-5.6263 1437.19 -4.28208 1437.68 -3.93258 1437.79C-3.60997 1437.87 -3.39489 1438.06 -3.47555 1438.19C-3.69062 1438.51 -7.45443 1439.7 -9.79338 1440.18C-10.8956 1440.4 -12.2936 1440.75 -12.8851 1440.94C-13.826 1441.23 -13.9605 1441.4 -14.0411 1442.2L-14.1218 1443.12L-12.2936 1442.93C-11.2989 1442.85 -8.87931 1442.58 -6.97052 1442.37C-0.975297 1441.69 1.74003 1441.8 6.01464 1442.9C8.03097 1443.44 11.0151 1444.28 12.6013 1444.79C15.5855 1445.73 19.1073 1446.54 22.8712 1447.11C30.345 1448.21 34.4852 1449.88 38.6523 1453.38C41.287 1455.59 42.5236 1456.32 45.0239 1457.04C46.1262 1457.37 48.6533 1458.23 50.6696 1458.98C57.3638 1461.43 57.3638 1461.43 68.0369 1461.51C78.1455 1461.57 79.3015 1461.65 84.0331 1462.46C92.905 1463.96 101.266 1465.98 102.476 1466.9C102.906 1467.25 103.874 1467.79 104.573 1468.11C105.299 1468.44 106.804 1469.54 107.96 1470.62C110.245 1472.77 111.24 1473.2 113.794 1473.2C115.38 1473.2 115.488 1473.26 117.397 1474.79C118.499 1475.65 119.789 1476.57 120.273 1476.81C122.317 1477.86 126.188 1477.94 126.457 1476.92C126.537 1476.54 127.102 1477.19 128.607 1479.45C131.027 1483.11 133.043 1485.81 138.071 1492.19C142.641 1497.93 143.77 1499.65 145.545 1503.39C147.05 1506.52 150.115 1511.45 154.981 1518.5L158.234 1523.21V1524.8C158.234 1526.72 157.643 1529.38 156.89 1530.84C156.379 1531.83 156.325 1531.86 155.492 1531.62C155.008 1531.48 154.578 1531.37 154.578 1531.37C154.551 1531.37 154.578 1531.16 154.658 1530.86C154.739 1530.49 154.067 1529.62 152.212 1527.69C147.695 1522.97 144.631 1521.41 139.415 1521.19C134.092 1521.01 129.038 1522.62 117.639 1528.22C109.788 1532.05 109.197 1532.32 104.196 1534.31C99.1153 1536.33 98.0668 1536.65 94.8944 1537.17C93.4427 1537.41 92.206 1537.62 92.1791 1537.65C92.0178 1537.81 100.352 1545.08 101.454 1545.73C106.078 1548.5 112.342 1550.2 117.854 1550.23H119.789L119.332 1551.25C118.66 1552.76 116.187 1560.33 114.789 1565.17C111.482 1576.67 108.014 1584.81 104.734 1588.69C103.82 1589.76 103.121 1590.71 103.148 1590.73C103.202 1590.79 104.707 1591.08 106.482 1591.38C108.256 1591.68 111.213 1592.21 113.068 1592.54C115.73 1592.99 116.993 1593.08 119.198 1592.94C131.699 1592.21 142.587 1585.94 149.658 1575.41C155.223 1567.17 159.121 1554.46 159.444 1543.57C159.498 1541.61 159.686 1539.78 159.82 1539.48C159.982 1539.19 160.116 1538.51 160.116 1538C160.116 1536.9 160.412 1536.68 163.046 1535.9C164.283 1535.55 166.004 1535.36 168.719 1535.25L172.617 1535.12L178.801 1539.99C186.033 1545.68 187.672 1546.83 191.006 1548.48C195.845 1550.87 207.352 1554.19 211.815 1554.46C213.75 1554.59 214.046 1554.54 215.605 1553.76C219.584 1551.82 223.429 1546.89 224.854 1542.01C225.391 1540.13 225.633 1530.97 225.176 1529.35C224.639 1527.42 222.891 1526.2 217.622 1524.08C214.261 1522.76 211.707 1521.49 209.18 1519.93C208.105 1519.26 205.362 1518.04 202.728 1517.1C200.227 1516.19 197.808 1515.24 197.351 1515C196.921 1514.78 193.695 1512.66 190.226 1510.31C182.349 1504.98 181.597 1504.2 178.935 1499.06L176.919 1495.15L174.499 1493.54C173.047 1492.57 170.52 1490.38 168.181 1488.12C166.031 1486.05 163.557 1483.79 162.643 1483.11C159.955 1481.04 155.922 1476.33 154.497 1473.5L153.933 1472.42L154.712 1471.99C155.142 1471.77 156.191 1470.78 157.024 1469.78C160.815 1465.26 163.073 1464.31 171.676 1463.64C174.553 1463.43 178.37 1463.1 180.145 1462.91C184.312 1462.51 194.178 1462.51 197.62 1462.91C210.47 1464.42 214.503 1465.01 222.488 1466.63C227.3 1467.6 231.897 1468.54 232.704 1468.76C234.962 1469.35 239.479 1470.21 241.925 1470.54C243.135 1470.7 251.2 1470.91 259.857 1471.05C276.767 1471.29 276.364 1471.26 283.919 1472.96C285.397 1473.28 287.682 1473.61 289 1473.69C290.693 1473.77 291.634 1473.96 292.226 1474.31C293.382 1475.01 294.834 1474.95 296.447 1474.14C299.78 1472.45 300.829 1470.59 301.259 1465.45C301.42 1463.72 301.662 1461.51 301.824 1460.54C302.227 1458.12 301.904 1453.3 301.205 1451.17C300.13 1447.83 295.882 1443.09 292.71 1441.64C289.403 1440.13 286.096 1440.29 279.483 1442.26C264.508 1446.76 262.304 1447.08 247.087 1447.27C237.22 1447.4 232.838 1447.24 223.966 1446.38C211.68 1445.22 210.659 1445.14 206.492 1445.27C204.099 1445.35 198.534 1445.84 193.99 1446.38C189.474 1446.92 183.263 1447.46 180.145 1447.62C169.122 1448.13 164.014 1448.48 163.02 1448.72C162.482 1448.86 159.444 1449.07 156.298 1449.21C150.975 1449.42 150.276 1449.37 146.539 1448.8C140.679 1447.89 141.109 1448.05 140.894 1446.73C140.463 1444.01 139.469 1442.63 137.345 1441.93C135.866 1441.45 133.097 1441.53 130.973 1442.1L129.145 1442.61L125.785 1441.75L122.451 1440.88L120.838 1441.69L119.252 1442.53L117.047 1442.07C113.418 1441.34 108.713 1441.93 106.428 1443.44C105.89 1443.82 105.568 1443.77 102.933 1442.93C101.347 1442.42 98.1206 1441.31 95.7816 1440.51C89.4369 1438.27 89.6789 1438.33 72.6073 1437.38C52.5784 1436.28 46.8789 1435.39 33.0872 1431.35C31.9043 1431 29.9149 1430.43 28.6513 1430.08C27.3609 1429.76 25.9629 1429.17 25.4252 1428.76C23.3282 1427.18 14.1068 1421.95 8.99881 1419.5C3.83701 1417 0.288269 1415.92 -5.89514 1415.06C-9.33634 1414.54 -10.4655 1414.09 -11.9979 1412.47C-13.6916 1410.67 -14.3637 1410.53 -14.3637 1412.01Z" fill="url(#paint1_linear_97_23)"/>
</g>
<defs>
<linearGradient id="paint0_linear_97_23" x1="-30.5" y1="1443.5" x2="554.5" y2="835.5" gradientUnits="userSpaceOnUse">
<stop stop-color="#4F772D"/>
<stop offset="1" stop-color="#90A955"/>
</linearGradient>
<linearGradient id="paint1_linear_97_23" x1="-30.5" y1="1443.5" x2="554.5" y2="835.5" gradientUnits="userSpaceOnUse">
<stop stop-color="#4F772D"/>
<stop offset="1" stop-color="#90A955"/>
</linearGradient>
<clipPath id="clip0_97_23">
<rect width="911" height="1615" fill="white"/>
</clipPath>
</defs>
</svg>
