<svg width="457" height="632" viewBox="0 0 457 632" fill="none" xmlns="http://www.w3.org/2000/svg">
<g clip-path="url(#clip0_94_63)">
<path d="M-66.7859 361.2L-41.5884 308.558C-1.8103 333.143 33.2816 361.091 61.5923 390.546C89.0394 419.057 111.653 450.872 108.832 456.765C107.796 458.93 104.899 456.952 88.195 442.748C44.3815 405.811 -2.35032 369.104 -6.29337 368.695C-7.18771 368.71 -5.78668 370.416 -3.1254 372.576C24.0514 395.784 59.846 438.047 67.4235 455.569C73.0778 468.771 68.4974 465.987 27.8838 431.322C4.51846 411.269 -16.5156 394.992 -42.2298 377.067C-48.3102 372.812 -57.2392 367.077 -66.7859 361.2Z" fill="black" fill-opacity="0.1"/>
<path d="M-1.88133 547.906L-2.67104 523.167C18.9449 535.602 37.3709 551.15 50.0601 568.226C59.8141 581.255 72.3526 610.47 68.2213 610.602C66.3556 610.661 60.9668 604.83 51.9218 593.113C38.2519 575.473 19.6754 560.012 -1.88133 547.906Z" fill="url(#paint0_linear_94_63)"/>
<path d="M-2.99453 513.033L-3.80237 487.725C9.51504 492.845 21.9522 498.792 31.764 504.911C37.3471 508.468 41.9546 510.722 41.9291 509.923C41.9036 509.123 35.8315 502.78 28.5429 495.943C18.3458 486.479 7.52389 478.483 -4.3112 471.785L-4.99996 450.208C9.67879 458.611 22.5933 468.62 32.6926 479.669C43.4787 491.597 48.3896 499.178 54.0506 513.538C57.6758 522.627 59.9187 526.024 65.9738 531.833C75.1961 540.744 83.8117 551.541 88.1939 559.272C91.4589 565.437 97.8204 580.842 99.6237 587.188C101.586 594.329 96.5487 591.155 87.7743 579.562C83.0391 573.31 72.6783 562.168 64.7022 554.685C45.2593 536.265 23.3607 522.755 -2.99453 513.033Z" fill="url(#paint1_linear_94_63)"/>
<path d="M-40.2093 139.716C-40.7633 139.8 -40.9164 140.066 -40.9037 140.831L-40.2513 147.575C-40.0136 150.138 -39.3381 154.217 -38.7738 156.564L-28.3804 185.231C-28.2947 185.551 -27.1383 188.045 -25.9752 190.827L-25.5506 191.842C-22.6742 198.758 -18.1967 212.613 -17.2592 217.551L-11.9659 232.18L-14.6356 236.804C-14.7137 238.426 -15.1689 239.477 -17.3791 243.305C-18.8452 245.845 -21.2817 250.502 -22.8269 253.704C-24.8215 257.858 -26.1782 260.208 -27.5754 261.928C-27.824 262.236 -28.1368 262.64 -28.4918 263.109L-14.8479 270.986C-11.5421 269.104 -6.09304 266.51 -1.67683 264.752C0.313113 263.93 4.2248 261.792 7.09853 259.964C14.2399 255.294 15.6641 254.752 21.4448 254.451L26.4006 254.179L23.8901 252.578C20.3786 250.348 15.325 248.34 13.111 248.325C12.0747 248.283 10.6243 248.608 9.93327 249.018C8.29016 249.939 4.86584 251.145 -1.72027 253.104L-6.88799 254.618L-5.1129 252.156C-4.10795 250.765 -1.98268 247.697 -0.349005 245.305C4.36095 238.372 14.8252 228.646 22.5466 224.109C26.7528 221.635 33.2034 219.649 38.0833 219.333C40.1298 219.201 46.206 219.525 51.6248 220.026C67.7398 221.598 76.7674 222.059 80.6388 221.566C82.6154 221.292 86.6896 220.359 89.6678 219.4C95.8793 217.478 96.3549 216.742 92.0498 215.975C90.5589 215.67 87.0686 214.716 84.24 213.841C77.9708 211.838 74.0286 211.23 65.9059 211.038C62.4823 210.931 56.8025 210.533 53.2988 210.127C46.4489 209.305 42.4554 209.223 32.5119 209.648C26.0098 209.886 23.2445 210.564 20.0063 212.585C18.0089 213.858 17.2816 213.893 17.96 212.718C19.2073 210.557 32.0012 182.973 33.2812 179.619C34.1379 177.435 36.092 172.651 37.6666 168.961C39.2412 165.271 41.2728 160.178 42.169 157.663C45.4561 148.645 46.6015 146.224 49.5886 142.187C52.7508 137.847 57.5224 132.82 63.7503 127.37C77.8905 114.864 88.6769 110.53 102.825 111.572C123.194 113.125 126.534 113.638 136.944 116.868C145.89 119.658 149.263 121.252 152.375 124.262C154.266 126.061 155.548 126.902 158.916 128.594C162.169 130.22 164.112 131.493 167.61 134.27C170.826 136.835 173.915 138.921 178.711 141.639C183.105 144.177 187.536 147.089 191.851 150.288C195.437 152.914 198.542 155.06 198.797 155.056C199.779 155.016 199.527 154.315 197.636 151.555C196.428 149.797 195.122 147.072 194.401 144.735C192.39 138.419 188.719 132.004 185.396 128.923C184.131 127.789 183.2 127.302 180.908 126.635C178.54 125.925 176.033 124.579 166.287 118.801L154.533 111.863L143.389 111.392L132.381 105.087C124.133 100.36 121.893 99.0057 119.515 98.6927C118.435 98.5506 117.327 98.6232 115.615 98.6922C114.085 98.7183 110.406 98.6159 107.461 98.3808C103.734 98.099 100.862 98.2605 97.8479 98.8447C95.5069 99.3124 91.7272 99.9097 89.4518 100.264C87.225 100.571 86.0344 100.713 84.9127 101.071C83.436 101.543 82.0787 102.389 78.6334 104.479C71.412 108.85 65.9079 112.696 63.0469 115.29C61.7009 116.484 60.552 117.336 60.488 117.097C60.3557 116.364 62.4449 107.059 64.1943 100.791C67.3514 89.3738 67.596 86.9378 66.3568 79.1978C65.8497 76.2266 65.5631 72.5236 65.6732 71.0206C65.7833 69.5175 67.0512 64.0842 68.4969 58.9556C70.7091 51.1869 71.2585 48.573 71.7234 43.1309C72.2438 37.4176 74.0661 28.312 76.179 20.8903C77.1004 17.6321 77.1341 17.3988 76.5658 17.0708C75.9218 16.6989 75.4404 17.5327 72.366 23.9951C64.8295 40.1109 62.7956 46.8707 59.3802 67.1346C57.2266 79.7886 56.3499 83.9318 53.913 92.1771C53.675 92.9912 53.4358 93.8072 53.2061 94.591L53.2019 94.6054L53.1992 94.6147C52.4313 97.2345 51.7703 99.4894 51.6133 100.097L51.2481 101.605L50.2704 98.3114C49.7525 96.4963 48.8834 94.3269 48.4263 93.4565C46.909 90.6601 40.2385 83.9284 31.78 76.6191C30.326 75.3754 29.5018 74.0909 28.4012 71.5352C26.6776 67.6089 26.478 67.3422 22.3889 63.3136C20.7253 61.6456 17.6472 58.403 15.5904 56.1037C12.1571 52.2516 11.0702 51.422 10.6107 52.2179C10.5231 52.3695 10.9702 53.0825 11.6126 53.8071C14.0685 56.64 14.8457 58.7059 15.4886 63.979C15.8442 66.8627 16.449 69.8398 16.8742 70.5906C17.2994 71.3414 19.2468 73.8303 21.2497 76.0479C28.4237 84.1822 33.1074 96.8923 34.5116 112.308C34.6213 113.442 34.7502 114.804 34.8779 116.154C35.0457 117.927 35.2115 119.679 35.3292 120.866C36.5353 133.387 36.512 136.052 35.0227 141.257C33.9582 144.938 27.5826 162.28 25.7673 166.386C25.1589 167.703 24.5167 169.252 24.3459 169.811C24.0817 170.618 23.7963 170.15 22.8287 167.014C22.0691 164.655 20.7631 161.931 19.4539 159.911C17.061 156.357 9.6218 148.069 3.4363 142.072C1.28607 140.022 -2.28869 136.24 -4.54504 133.674C-7.42189 130.346 -8.75632 129.07 -9.23446 129.198C-9.59307 129.294 -9.83801 129.456 -9.76812 129.597C-3.42676 144.073 -2.52833 145.754 3.47811 154.074C9.19325 162.022 12.6592 170.543 12.2877 175.735C11.9237 180.478 4.78242 207.283 2.59511 212.034L1.51533 214.341L-1.4905 209.574C-3.15506 206.945 -5.97476 202.992 -7.74451 200.808C-12.0021 195.672 -12.4054 194.883 -14.515 187.601C-17.0145 178.982 -19.2907 172.513 -22.141 165.814C-25.281 158.391 -26.8858 155.747 -30.5844 151.741C-35.8649 146.014 -37.2136 144.326 -38.3638 141.944C-39.2404 140.225 -39.6933 139.609 -40.2093 139.716Z" fill="black" fill-opacity="0.1"/>
<path d="M24 381.228C27.2 375.045 31.1999 373.83 38 372C36.9132 376.657 34.5575 376.598 34.5 379.415C31.1657 380.1 27.6736 380.692 24 381.228Z" fill="url(#paint2_linear_94_63)"/>
<path d="M186.223 94.9735C186.322 95.2086 185.872 96.8244 185.23 98.5457L184.07 101.741L184.595 107.694C185.506 117.46 185.205 126.744 183.686 137.756C182.186 148.329 181.285 151.561 177.882 158.416C173.059 168.119 168.857 173.756 162.218 179.444C147.325 192.227 143.74 195.697 136.942 203.75C130.99 210.817 128.514 215.505 127.115 222.556C126.616 225.138 126.383 227.094 126.587 226.902C126.84 226.672 128.669 223.749 130.689 220.411C135.607 212.224 137.275 209.809 141.744 204.785C148.95 196.657 152.004 193.819 161.37 186.971C173.161 178.3 177.032 176.242 189.494 172.175C204.226 167.37 206.465 167.158 222.855 168.732C228.473 169.308 234.468 169.717 236.188 169.74C237.87 169.714 243.773 170.154 249.304 170.717C254.792 171.275 261.294 171.844 263.707 171.966C269.968 172.368 278.006 173.951 277.889 174.774C277.827 175.207 276.912 175.431 274.697 175.47C272.965 175.534 270.064 175.741 268.22 175.966C266.371 176.234 262.374 176.374 259.331 176.34C256.287 176.306 250.305 176.429 246.03 176.662C241.755 176.896 236.132 176.982 233.583 176.885C231.04 176.745 228.25 176.791 227.396 176.891C226.604 177.023 223.98 177.347 221.355 177.67L221.351 177.671L220.691 177.752C214.765 178.414 213.033 178.787 205.45 180.849C202.419 181.657 196.346 183.049 191.985 183.889C179.039 186.384 173.033 188.538 163.047 194.149C157.476 197.292 154.286 199.845 150.243 204.355C144.57 210.711 142.976 213.226 135.336 228.143C132.223 234.199 124.323 255.932 123.733 260.091C123.505 261.695 135.431 252.38 137.742 249.172C141.159 244.397 142.009 246.816 139.249 253.497C138.249 255.874 136.877 258.067 134.201 261.356C132.168 263.852 130.147 266.571 129.684 267.346C126.954 271.953 116.297 296.919 113.934 304.231C113.052 307.023 111.731 310.725 110.996 312.478C110.268 314.187 108.959 317.803 108.095 320.465C107.238 323.084 105.929 326.7 105.244 328.415C104.17 331.003 102.086 339.46 102.476 339.515C102.519 339.521 103.65 338.4 104.911 336.987C107.272 334.361 107.798 334.082 108.04 335.177C108.288 336.229 103.007 345.116 99.2802 349.891C97.3954 352.276 94.9298 355.639 93.8115 357.293C92.6499 358.94 91.2842 360.78 90.7156 361.362C88.9911 363.239 90.2218 362.663 95.0507 359.458C97.5857 357.784 99.7189 356.451 99.7499 356.544C99.9418 356.748 96.0203 364.767 95.1244 366.099C93.8515 367.907 92.0215 369.283 88.4719 370.946C86.7157 371.801 84.2857 373.357 83.1174 374.429C81.7561 375.646 80.7289 376.534 79.8807 377.195L80.7429 377.195L81.3365 377.132C84.9111 376.75 86.416 376.589 87.875 376.78C89.0426 376.932 90.1808 377.309 92.327 377.978C94.5371 378.624 98.2122 379.69 100.53 380.262C103.507 381.014 106.175 382.088 109.428 383.927C111.995 385.392 115.281 387.048 116.678 387.675C118.257 388.34 119.29 388.745 120.207 389.333C122.227 390.627 123.679 392.805 129.136 400.589L136.42 410.975L146.308 416.137L153.999 427.413C160.365 436.786 162.062 439.07 163.903 440.719C165.695 442.297 166.331 443.133 166.993 444.697C168.692 448.898 169.288 456.265 168.424 462.837C168.084 465.259 168.108 468.281 168.454 470.386C168.993 473.688 168.923 474.43 168.017 474.048C167.785 473.943 165.886 470.681 163.757 466.78C161.21 462.05 158.437 457.531 155.538 453.367C152.352 448.868 150.443 445.667 148.621 441.978C146.635 437.977 145.418 435.999 143.164 433.145C140.835 430.182 140.032 428.876 139.085 426.443C137.547 422.397 135.171 419.52 128.259 413.193C120.209 405.845 117.404 403.96 99.6254 393.898C87.2622 386.941 75.6563 386.28 57.5419 391.59L52.9438 392C35.0205 400.715 18.9373 402.965 -4.49999 407.5L-4.5 384.5C6.15031 383.4 15.5547 382.462 24 381.228C27.6736 380.692 31.1657 380.1 34.5 379.415C51.5715 375.905 64.5051 369.951 76.4701 356.512C76.5193 356.165 77.4459 354.617 78.5891 353.099L80.5726 350.331L80.7908 345.057C80.8935 342.154 82.0564 338.305 82.0313 337.86L82.9387 339.262C83.6758 340.295 84.5059 341.606 84.7725 342.219C85.324 343.313 85.324 343.313 86.3555 341.338C86.9051 340.267 87.8366 337.128 88.3972 334.423C89.2536 330.256 89.6979 328.993 91.2547 326.429C92.2865 324.763 93.1941 322.726 93.3048 321.946C93.4216 321.123 94.3408 318.071 95.3715 315.167C95.5738 314.566 95.8073 313.873 96.0602 313.124C97.0493 310.192 98.335 306.38 99.2096 303.688C100.308 300.308 102.055 295.472 103.116 292.971C105.45 287.423 106.85 281.919 108.573 271.643C109.312 267.372 110.267 262.822 110.711 261.559C112.038 257.813 112.701 251.895 112.271 248.077C112.047 246.233 111.165 242.173 110.364 239.098C108.75 233.034 106.569 229.1 103.003 225.897C99.9076 223.115 98.4519 220.92 98.0044 218.469C97.0283 212.893 96.1613 211.842 91.4458 210.2C89.7625 209.608 88.2274 208.594 85.8004 206.393C82.8286 203.673 79.6222 201.671 74.5597 199.361C72.5669 198.459 72.4359 197.203 74.329 197.251C74.9476 197.25 76.4261 197.106 77.6941 196.889C84.1704 195.774 93.0946 199.516 97.7456 205.348C100.186 208.391 102.427 210.344 109.806 215.635C114.653 219.152 115.761 219.751 115.853 219.101C116.019 217.931 115.856 207.874 115.573 202.706C115.214 195.583 113.128 179.771 112.142 176.448C110.485 170.997 106.296 162.844 102.685 158.088C99.6318 154.074 98.6969 153.19 93.2804 149.327C89.3702 146.509 87.2544 144.908 84.9051 143.806C81.4264 142.173 77.4357 141.631 66.3486 139.847L50.3605 137.313L42.786 134.646C38.6151 133.215 33.3301 131.227 31.0279 130.326C26.4359 128.436 19.4252 126.778 6.32019 124.476C-0.0157486 123.356 -1.72356 122.937 -1.65592 122.46C-1.56983 121.854 -0.215179 121.648 4.46159 121.384C9.80646 121.081 14.4592 121.609 30.528 124.508C40.0938 126.219 48.9974 127.615 51.9238 127.854C59.1377 128.391 61.6684 128.927 69.5213 131.501C73.3642 132.753 78.6984 134.394 81.3716 135.171C93.1907 138.44 100.52 143.459 108.002 153.317C111.358 157.683 114.364 163.9 116.79 171.406L118.545 176.782L119.351 171.725C120.305 165.628 121.194 163.411 123.098 162.134C124.804 161.006 124.897 160.665 123.886 157.826C122.956 155.041 123.007 150.009 124.019 146.307C125.147 142.091 129.023 131.281 132.147 123.591C134.894 116.687 136.759 112.885 140.545 106.128C141.663 104.165 143.188 100.58 143.966 98.2152C144.99 95.0453 145.552 93.8873 146.028 93.9549C146.505 94.0225 146.444 95.6936 145.585 103.617C145.014 108.884 144.395 115.737 144.219 118.85C143.914 124.111 144.15 132.101 144.596 132.695C144.707 132.844 147.069 130.836 149.825 128.221C152.576 125.65 156.279 122.286 158.078 120.817C160.223 119.088 161.793 117.366 162.732 115.731C165.351 111.284 167.922 107.803 169.486 106.743C170.321 106.155 172.795 104.914 174.916 103.978C178.49 102.452 179.133 101.968 181.982 98.7036C183.719 96.7399 185.159 94.9993 185.19 94.7826C185.257 94.306 185.988 94.4538 186.223 94.9735Z" fill="url(#paint3_linear_94_63)"/>
</g>
<defs>
<linearGradient id="paint0_linear_94_63" x1="-4.99999" y1="530" x2="101" y2="583" gradientUnits="userSpaceOnUse">
<stop stop-color="#4F772D"/>
<stop offset="1" stop-color="#90A955"/>
</linearGradient>
<linearGradient id="paint1_linear_94_63" x1="-4.99999" y1="530" x2="101" y2="583" gradientUnits="userSpaceOnUse">
<stop stop-color="#4F772D"/>
<stop offset="1" stop-color="#90A955"/>
</linearGradient>
<linearGradient id="paint2_linear_94_63" x1="286.648" y1="113.056" x2="-112.753" y2="56.3752" gradientUnits="userSpaceOnUse">
<stop stop-color="#4F772D"/>
<stop offset="1" stop-color="#90A955"/>
</linearGradient>
<linearGradient id="paint3_linear_94_63" x1="286.648" y1="113.056" x2="-112.753" y2="56.3752" gradientUnits="userSpaceOnUse">
<stop stop-color="#4F772D"/>
<stop offset="1" stop-color="#90A955"/>
</linearGradient>
<clipPath id="clip0_94_63">
<rect width="457" height="632" fill="white"/>
</clipPath>
</defs>
</svg>
