<svg width="498" height="761" viewBox="0 0 498 761" fill="none" xmlns="http://www.w3.org/2000/svg">
<g clip-path="url(#clip0_94_63)">
<path d="M-40.2093 287.716C-40.7633 287.8 -40.9164 288.066 -40.9037 288.831L-40.2513 295.575C-40.0136 298.138 -39.3381 302.217 -38.7738 304.564L-28.3804 333.231C-28.2947 333.551 -27.1383 336.045 -25.9752 338.827L-25.5506 339.842C-22.6742 346.758 -18.1967 360.613 -17.2592 365.551L-11.9659 380.18L-14.6356 384.804C-14.7137 386.426 -15.1689 387.477 -17.3791 391.305C-18.8452 393.845 -21.2817 398.502 -22.8269 401.704C-24.8215 405.858 -26.1782 408.208 -27.5754 409.928C-27.824 410.236 -28.1368 410.64 -28.4918 411.109L-14.8479 418.986C-11.5421 417.104 -6.09304 414.51 -1.67683 412.752C0.313113 411.93 4.2248 409.792 7.09853 407.964C14.2399 403.294 15.6641 402.752 21.4448 402.451L26.4006 402.179L23.8901 400.578C20.3786 398.348 15.325 396.34 13.111 396.325C12.0747 396.283 10.6243 396.608 9.93327 397.018C8.29016 397.939 4.86584 399.145 -1.72027 401.104L-6.88799 402.618L-5.1129 400.156C-4.10795 398.765 -1.98268 395.697 -0.349005 393.305C4.36095 386.372 14.8252 376.646 22.5466 372.109C26.7528 369.635 33.2034 367.649 38.0833 367.333C40.1298 367.201 46.206 367.525 51.6248 368.026C67.7398 369.598 76.7674 370.059 80.6388 369.566C82.6154 369.292 86.6896 368.359 89.6678 367.4C95.8793 365.478 96.3549 364.742 92.0498 363.975C90.5589 363.67 87.0686 362.716 84.24 361.841C77.9708 359.838 74.0286 359.23 65.9059 359.038C62.4823 358.931 56.8025 358.533 53.2988 358.127C46.4489 357.305 42.4554 357.223 32.5119 357.648C26.0098 357.886 23.2445 358.564 20.0063 360.585C18.0089 361.858 17.2816 361.893 17.96 360.718C19.2073 358.557 32.0012 330.973 33.2812 327.619C34.1379 325.435 36.092 320.651 37.6666 316.961C39.2412 313.271 41.2728 308.178 42.169 305.663C45.4561 296.645 46.6015 294.224 49.5886 290.187C52.7508 285.847 57.5224 280.82 63.7503 275.37C77.8905 262.864 88.6769 258.53 102.825 259.572C123.194 261.125 126.534 261.638 136.944 264.868C145.89 267.658 149.263 269.252 152.375 272.262C154.266 274.061 155.548 274.902 158.916 276.594C162.169 278.22 164.112 279.493 167.61 282.27C170.826 284.835 173.915 286.921 178.711 289.639C183.105 292.177 187.536 295.089 191.851 298.288C195.437 300.914 198.542 303.06 198.797 303.056C199.779 303.016 199.527 302.315 197.636 299.555C196.428 297.797 195.122 295.072 194.401 292.735C192.39 286.419 188.719 280.004 185.396 276.923C184.131 275.789 183.2 275.302 180.908 274.635C178.54 273.925 176.033 272.579 166.287 266.801L154.533 259.863L143.389 259.392L132.381 253.087C124.133 248.36 121.893 247.006 119.515 246.693C118.435 246.551 117.327 246.623 115.615 246.692C114.085 246.718 110.406 246.616 107.461 246.381C103.734 246.099 100.862 246.26 97.8479 246.845C95.5069 247.312 91.7272 247.91 89.4518 248.264C87.225 248.571 86.0344 248.713 84.9127 249.071C83.436 249.543 82.0787 250.389 78.6334 252.479C71.412 256.85 65.9079 260.696 63.0469 263.29C61.7009 264.484 60.552 265.336 60.488 265.097C60.3557 264.364 62.4449 255.059 64.1943 248.791C67.3514 237.374 67.596 234.938 66.3568 227.198C65.8497 224.227 65.5631 220.524 65.6732 219.021C65.7833 217.518 67.0512 212.084 68.4969 206.956C70.7091 199.187 71.2585 196.573 71.7234 191.131C72.2438 185.418 74.0661 176.312 76.179 168.89C77.1004 165.632 77.1341 165.399 76.5658 165.071C75.9218 164.699 75.4404 165.533 72.366 171.995C64.8295 188.111 62.7956 194.871 59.3802 215.135C57.2266 227.789 56.3499 231.932 53.913 240.177C53.675 240.991 53.4358 241.807 53.2061 242.591L53.2019 242.605L53.1992 242.615C52.4313 245.234 51.7703 247.489 51.6133 248.097L51.2481 249.605L50.2704 246.311C49.7525 244.496 48.8834 242.327 48.4263 241.456C46.909 238.66 40.2385 231.928 31.78 224.619C30.326 223.375 29.5018 222.091 28.4012 219.535C26.6776 215.609 26.478 215.342 22.3889 211.314C20.7253 209.646 17.6472 206.403 15.5904 204.104C12.1571 200.252 11.0702 199.422 10.6107 200.218C10.5231 200.37 10.9702 201.082 11.6126 201.807C14.0685 204.64 14.8457 206.706 15.4886 211.979C15.8442 214.863 16.449 217.84 16.8742 218.591C17.2994 219.341 19.2468 221.83 21.2497 224.048C28.4237 232.182 33.1074 244.892 34.5116 260.308C34.6213 261.442 34.7502 262.804 34.8779 264.154C35.0457 265.927 35.2115 267.679 35.3292 268.866C36.5353 281.387 36.512 284.052 35.0227 289.257C33.9582 292.938 27.5826 310.28 25.7673 314.386C25.1589 315.703 24.5167 317.252 24.3459 317.811C24.0817 318.618 23.7963 318.15 22.8287 315.014C22.0691 312.655 20.7631 309.931 19.4539 307.911C17.061 304.357 9.6218 296.069 3.4363 290.072C1.28607 288.022 -2.28869 284.24 -4.54504 281.674C-7.42189 278.346 -8.75632 277.07 -9.23446 277.198C-9.59307 277.294 -9.83801 277.456 -9.76812 277.597C-3.42676 292.073 -2.52833 293.754 3.47811 302.074C9.19325 310.022 12.6592 318.543 12.2877 323.735C11.9237 328.478 4.78242 355.283 2.59511 360.034L1.51533 362.341L-1.4905 357.574C-3.15506 354.945 -5.97476 350.992 -7.74451 348.808C-12.0021 343.672 -12.4054 342.883 -14.515 335.601C-17.0145 326.982 -19.2907 320.513 -22.141 313.814C-25.281 306.391 -26.8858 303.747 -30.5844 299.741C-35.8649 294.014 -37.2136 292.326 -38.3638 289.944C-39.2404 288.225 -39.6933 287.609 -40.2093 287.716Z" fill="black" fill-opacity="0.1"/>
<path d="M186.223 242.973C186.322 243.209 185.872 244.824 185.23 246.546L184.07 249.741L184.595 255.694C185.506 265.46 185.205 274.744 183.686 285.756C182.186 296.329 181.285 299.561 177.882 306.416C173.059 316.119 168.857 321.756 162.218 327.444C147.325 340.227 143.74 343.697 136.942 351.75C130.99 358.817 128.514 363.505 127.115 370.556C126.616 373.138 126.383 375.094 126.587 374.902C126.84 374.672 128.669 371.749 130.689 368.411C135.607 360.224 137.275 357.809 141.744 352.785C148.95 344.657 152.004 341.819 161.37 334.971C173.161 326.3 177.032 324.242 189.494 320.175C204.226 315.37 206.465 315.158 222.855 316.732C228.473 317.308 234.468 317.717 236.188 317.74C237.87 317.714 243.773 318.154 249.304 318.717C254.792 319.275 261.294 319.844 263.707 319.966C269.968 320.368 278.006 321.951 277.889 322.774C277.827 323.207 276.912 323.431 274.697 323.47C272.965 323.534 270.064 323.741 268.22 323.966C266.371 324.234 262.374 324.374 259.331 324.34C256.287 324.306 250.305 324.429 246.03 324.662C241.755 324.896 236.132 324.982 233.583 324.885C231.04 324.745 228.25 324.791 227.396 324.891C226.604 325.023 223.98 325.347 221.355 325.67L221.351 325.671L220.691 325.752C214.765 326.414 213.033 326.787 205.45 328.849C202.419 329.657 196.346 331.049 191.985 331.889C179.039 334.384 173.033 336.538 163.047 342.149C157.476 345.292 154.286 347.845 150.243 352.355C144.57 358.711 142.976 361.226 135.336 376.143C132.223 382.199 124.323 403.932 123.733 408.091C123.505 409.695 135.431 400.38 137.742 397.172C141.159 392.397 142.009 394.816 139.249 401.497C138.249 403.874 136.877 406.067 134.201 409.356C132.168 411.852 130.147 414.571 129.684 415.346C126.954 419.953 116.297 444.919 113.934 452.231C113.052 455.023 111.731 458.725 110.996 460.478C110.268 462.187 108.959 465.803 108.095 468.465C107.238 471.084 105.929 474.7 105.244 476.415C104.17 479.003 102.086 487.46 102.476 487.515C102.519 487.521 103.65 486.4 104.911 484.987C107.272 482.361 107.798 482.082 108.04 483.177C108.288 484.229 103.007 493.116 99.2802 497.891C97.3954 500.276 94.9298 503.639 93.8115 505.293C92.6499 506.94 91.2842 508.78 90.7156 509.362C88.9911 511.239 90.2218 510.663 95.0507 507.458C97.5857 505.784 99.7189 504.451 99.7499 504.544C99.9418 504.748 96.0203 512.767 95.1244 514.099C93.8515 515.907 92.0215 517.283 88.4719 518.946C86.7157 519.801 84.2857 521.357 83.1174 522.429C79.0189 526.091 77.9492 526.779 75.673 527.252C74.3988 527.513 73.2484 527.836 73.0567 527.941C45.4766 547.409 27.2259 549.362 -4.49999 555.5L-4.5 532.5C6.15031 531.4 15.5547 530.462 24 529.228C27.6736 528.692 31.1657 528.1 34.5 527.415C51.5715 523.905 64.5051 517.951 76.4701 504.512C76.5193 504.165 77.4459 502.617 78.5891 501.099L80.5726 498.331L80.7908 493.057C80.8935 490.154 82.0564 486.305 82.0313 485.86L82.9387 487.262C83.6758 488.295 84.5059 489.606 84.7725 490.219C85.324 491.313 85.324 491.313 86.3555 489.338C86.9051 488.267 87.8366 485.128 88.3972 482.423C89.2536 478.256 89.6979 476.993 91.2547 474.429C92.2865 472.763 93.1941 470.726 93.3048 469.946C93.4216 469.123 94.3408 466.071 95.3715 463.167C95.5738 462.566 95.8073 461.873 96.0602 461.124C97.0493 458.192 98.335 454.38 99.2096 451.688C100.308 448.308 102.055 443.472 103.116 440.971C105.45 435.423 106.85 429.919 108.573 419.643C109.312 415.372 110.267 410.822 110.711 409.559C112.038 405.813 112.701 399.895 112.271 396.077C112.047 394.233 111.165 390.173 110.364 387.098C108.75 381.034 106.569 377.1 103.003 373.897C99.9076 371.115 98.4519 368.92 98.0044 366.469C97.0283 360.893 96.1613 359.842 91.4458 358.2C89.7625 357.608 88.2274 356.594 85.8004 354.393C82.8286 351.673 79.6222 349.671 74.5597 347.361C72.5669 346.459 72.4359 345.203 74.329 345.251C74.9476 345.25 76.4261 345.106 77.6941 344.889C84.1704 343.774 93.0946 347.516 97.7456 353.348C100.186 356.391 102.427 358.344 109.806 363.635C114.653 367.152 115.761 367.751 115.853 367.101C116.019 365.931 115.856 355.874 115.573 350.706C115.214 343.583 113.128 327.771 112.142 324.448C110.485 318.997 106.296 310.844 102.685 306.088C99.6318 302.074 98.6969 301.19 93.2804 297.327C89.3702 294.509 87.2544 292.908 84.9051 291.806C81.4264 290.173 77.4357 289.631 66.3486 287.847L50.3605 285.313L42.786 282.646C38.6151 281.215 33.3301 279.227 31.0279 278.326C26.4359 276.436 19.4252 274.778 6.32019 272.476C-0.0157486 271.356 -1.72356 270.937 -1.65592 270.46C-1.56983 269.854 -0.215179 269.648 4.46159 269.384C9.80646 269.081 14.4592 269.609 30.528 272.508C40.0938 274.219 48.9974 275.615 51.9238 275.854C59.1377 276.391 61.6684 276.927 69.5213 279.501C73.3642 280.753 78.6984 282.394 81.3716 283.171C93.1907 286.44 100.52 291.459 108.002 301.317C111.358 305.683 114.364 311.9 116.79 319.406L118.545 324.782L119.351 319.725C120.305 313.628 121.194 311.411 123.098 310.134C124.804 309.006 124.897 308.665 123.886 305.826C122.956 303.041 123.007 298.009 124.019 294.307C125.147 290.091 129.023 279.281 132.147 271.591C134.894 264.687 136.759 260.885 140.545 254.128C141.663 252.165 143.188 248.58 143.966 246.215C144.99 243.045 145.552 241.887 146.028 241.955C146.505 242.023 146.444 243.694 145.585 251.617C145.014 256.884 144.395 263.737 144.219 266.85C143.914 272.111 144.15 280.101 144.596 280.695C144.707 280.844 147.069 278.836 149.825 276.221C152.576 273.65 156.279 270.286 158.078 268.817C160.223 267.088 161.793 265.366 162.732 263.731C165.351 259.284 167.922 255.803 169.486 254.743C170.321 254.155 172.795 252.914 174.916 251.978C178.49 250.452 179.133 249.968 181.982 246.704C183.719 244.74 185.159 242.999 185.19 242.783C185.257 242.306 185.988 242.454 186.223 242.973Z" fill="url(#paint0_linear_94_63)"/>
<path d="M24 529.228C27.2 523.045 31.1999 521.83 38 520C36.9132 524.657 34.5575 524.598 34.5 527.415C31.1657 528.1 27.6736 528.692 24 529.228Z" fill="url(#paint1_linear_94_63)"/>
</g>
<defs>
<linearGradient id="paint0_linear_94_63" x1="286.648" y1="261.056" x2="-112.753" y2="204.375" gradientUnits="userSpaceOnUse">
<stop stop-color="#4F772D"/>
<stop offset="1" stop-color="#90A955"/>
</linearGradient>
<linearGradient id="paint1_linear_94_63" x1="286.648" y1="261.056" x2="-112.753" y2="204.375" gradientUnits="userSpaceOnUse">
<stop stop-color="#4F772D"/>
<stop offset="1" stop-color="#90A955"/>
</linearGradient>
<clipPath id="clip0_94_63">
<rect width="498" height="761" fill="white"/>
</clipPath>
</defs>
</svg>
