<svg width="151" height="151" viewBox="0 0 151 151" fill="none" xmlns="http://www.w3.org/2000/svg">
<g id="arrows">
<mask id="mask0_3_57" style="mask-type:alpha" maskUnits="userSpaceOnUse" x="5" y="27" width="141" height="97">
<g id="arrow_mask">
<g id="bottomArrow" style="mix-blend-mode:multiply">
<path id="Vector" d="M5.97703 75.2549L54.0602 27.1718L65.374 38.4856L28.6044 75.2549L65.374 112.025L54.0602 123.338L5.97703 75.2549Z" fill="black"/>
</g>
<g id="middleArrow" style="mix-blend-mode:multiply">
<path id="Vector_2" d="M45.977 75.2549L94.0602 27.1718L105.374 38.4856L68.6044 75.2549L105.374 112.025L94.0602 123.338L45.977 75.2549Z" fill="black"/>
</g>
<g id="topArrow" style="mix-blend-mode:multiply">
<path id="Vector_3" d="M85.977 75.2549L134.06 27.1718L145.374 38.4856L108.604 75.2549L145.374 112.025L134.06 123.338L85.977 75.2549Z" fill="black"/>
</g>
</g>
</mask>
<g mask="url(#mask0_3_57)">
<path id="gradient" d="M171.977 175.172L171.977 -24.8282L-28.0229 -24.8283L-28.023 175.172L171.977 175.172Z" fill="url(#paint0_linear_3_57)"/>
</g>
</g>
<defs>
<linearGradient id="paint0_linear_3_57" x1="171.977" y1="75.1718" x2="-28.023" y2="75.1717" gradientUnits="userSpaceOnUse">
<stop offset="0.25" stop-color="#4F772D"/>
<stop offset="0.75" stop-color="#90A955"/>
</linearGradient>
</defs>
</svg>
