<svg width="586" height="1124" viewBox="0 0 586 1124" fill="none" xmlns="http://www.w3.org/2000/svg">
<g clip-path="url(#clip0_57_59)">
<path d="M197.825 815.649C194.732 820.206 192.232 823.902 192.321 823.93L179.975 835.735C179.362 836.125 177.487 836.794 175.815 837.211C174.143 837.627 172.765 838.04 172.767 838.188C172.754 838.306 173.044 839.23 173.394 840.199L174.064 842.003L172.029 842.866C168.341 844.395 154.427 850.634 154.385 850.767C154.341 850.827 155.116 851.614 156.053 852.502C158.032 854.336 158.256 854.628 157.639 854.723C157.184 854.772 135.251 860.881 134.93 861.047C134.813 861.107 135.789 861.567 137.075 862.054L137.196 862.104C138.411 862.611 139.381 863.016 139.367 863.059C139.368 863.133 133.832 863.946 127.121 864.92C120.396 865.864 114.581 866.71 114.17 866.774C113.626 866.868 113.497 867.12 113.52 867.812L113.561 868.755L106.765 867.549C96.2688 865.693 96.579 865.793 89.369 861.985C85.223 859.748 80.8299 857.75 77.5054 856.535L72.2599 854.605L71.0795 851.879C69.8603 849.087 68.9702 846.961 68.2235 844.914C68.0423 844.369 67.8257 843.748 67.6112 843.154C66.5127 839.839 65.65 836.288 64.2393 830.022L61.722 818.943L62.6856 813.482C64.0069 805.984 63.9653 806.191 64.38 806.422C64.6166 806.523 65.5496 807.042 66.4968 807.518C67.5185 808.066 68.2415 808.249 68.3123 808.028C68.3832 807.806 68.5999 802.618 68.7615 796.533L69.0689 785.482L71.5151 783.407C75.1113 780.332 74.6993 780.322 76.4592 783.528L77.9781 786.266L79.4217 777.927C80.3834 772.318 81.2488 768.464 82.0895 766.215L83.3288 762.872L84.7987 762.782C86.4006 762.661 86.9199 763.024 87.9895 765.103C88.336 765.777 88.7392 766.273 88.8854 766.198C89.0316 766.123 91.7177 761.998 94.8352 757.057C97.9528 752.117 100.537 748.082 100.581 748.096C100.626 748.11 101.074 749.917 101.586 752.135L102.547 756.161L103.743 756.471C104.421 756.641 105.026 756.737 105.113 756.692C105.201 756.647 105.522 755.258 105.855 753.605L106.452 750.593L110.074 748.505C112.061 747.334 116.765 744.688 120.521 742.643L127.374 738.854L130.372 744.683L137.254 742.028C144.794 739.071 145.484 738.975 151.081 739.575C155.044 740.016 155.028 739.987 153.294 742.511C152.412 743.817 152.011 744.691 152.305 744.687C152.541 744.714 154.973 743.906 157.727 742.932L162.678 741.198L169.591 741.194C175.108 741.206 177.037 741.361 179.295 742.013C180.86 742.467 182.189 742.894 182.308 742.981C182.427 743.068 181.672 743.901 180.683 744.855C179.679 745.78 178.676 746.778 178.444 747.046C178.096 747.447 180.059 747.955 188.404 749.585L188.929 749.689C194.425 750.773 199.076 751.691 199.419 751.73C199.905 751.813 199.617 752.258 197.799 753.973C196.592 755.15 195.429 756.268 195.24 756.476C195.051 756.684 197.172 756.852 200.231 756.833C205.483 756.833 205.689 756.875 210.416 758.516C213.075 759.443 215.321 760.287 215.366 760.375C215.427 760.492 213.667 763.399 211.473 766.826C209.294 770.283 207.534 773.19 207.579 773.278C207.625 773.366 208.465 773.562 209.483 773.743C210.5 773.923 211.356 774.149 211.416 774.266C211.461 774.354 209.853 777.627 207.811 781.495C205.799 785.347 203.8 789.155 203.412 789.911L202.693 791.318L204.884 791.191C206.104 791.118 207.148 791.136 207.209 791.253C207.254 791.341 204.958 794.931 202.113 799.25C199.252 803.539 197.03 807.129 197.208 807.186C197.37 807.213 198.767 807.198 200.31 807.107C201.854 807.016 203.193 807.03 203.268 807.177C203.373 807.308 200.903 811.136 197.825 815.649Z" fill="url(#paint0_linear_57_59)"/>
<path d="M187.541 946.878C187.41 946.749 187.368 946.697 187.432 946.734C187.509 946.792 187.544 946.84 187.541 946.878Z" fill="url(#paint1_linear_57_59)"/>
<path d="M70.5421 868.236C95.4748 879.171 128.367 905 139.367 909L159 915.5L136 914C137.576 915.933 139.434 917.764 144 922.659C148 930.5 149 931.5 149.125 933.725C148.784 933.962 152.031 934.79 159.551 936.391L170.49 938.701L178.688 942.862C183.202 945.13 187.07 946.997 187.327 946.984C187.46 946.965 187.536 946.93 187.541 946.878C189.002 948.316 201.59 959.26 202.444 959.936C203.031 960.416 203.453 960.896 203.394 960.975C203.335 961.054 202.362 961.806 201.239 962.649C200.142 963.512 199.248 964.322 199.249 964.487C199.295 964.645 203.161 968.276 207.844 972.519L216.373 980.255L219.096 985.25L221.8 990.271L220.501 992.01C219.497 993.353 219.228 993.933 219.361 994.525C219.927 996.96 224.136 1006.85 227.462 1013.4C229.552 1017.59 231.219 1021.14 231.12 1021.27C231.042 1021.38 230.186 1021.31 229.191 1021.1C228.223 1020.91 227.341 1020.83 227.262 1020.93C227.184 1021.04 228.153 1027.72 229.397 1035.79L231.695 1050.49L229.506 1048.85C228.319 1047.97 227.304 1047.29 227.245 1047.37C226.654 1048.16 226.35 1053.35 226.441 1061.27C226.506 1066.57 226.484 1071.11 226.425 1071.36C226.347 1071.63 225.629 1071.54 224.338 1071.07C223.244 1070.66 222.263 1070.38 222.131 1070.45C222.019 1070.49 220.95 1074.78 219.757 1080.01C218.558 1085.19 217.541 1089.52 217.463 1089.63C217.384 1089.73 216.778 1089.44 216.105 1089.02L214.886 1088.23L214.441 1089.54C211.97 1096.98 208.485 1107.14 208.387 1107.27C208.328 1107.35 207.906 1107.04 207.464 1106.58C207.022 1106.13 206.58 1105.84 206.501 1105.95C206.423 1106.05 205.352 1109.69 204.105 1114.05C202.857 1118.42 201.734 1122.01 201.641 1122.02C201.53 1122.06 185.395 1112.79 184.735 1112.29C184.63 1112.21 184.223 1112.65 183.842 1113.27C183.154 1114.35 183.154 1114.35 182 1113.7C177.077 1110.88 177.13 1110.92 173.734 1105.5C171.989 1102.72 170.49 1100.49 170.418 1100.47C170.352 1100.51 170.031 1101.21 169.757 1102.07C169.482 1102.94 169.188 1103.66 169.069 1103.65C168.977 1103.67 166.475 1100.69 163.479 1097.05L158.092 1090.39L157.719 1091.22C157.522 1091.65 157.175 1092.5 156.933 1093.1C156.691 1093.7 156.409 1094.18 156.363 1094.19C156.271 1094.2 149.082 1082.42 146.088 1077.34C145.87 1076.97 145.667 1077.19 144.893 1078.5C144.362 1079.38 143.876 1080.08 143.797 1080.02C143.745 1079.98 142.204 1076.98 140.392 1073.41C137.674 1067.97 137.118 1066.57 137.075 1065.14C137.034 1064.2 136.946 1063.44 136.854 1063.45L132.632 1045.36L131.039 1048.95L128.105 1030.99L125.77 1035.37L125.839 1010.56L122.371 1014.79L120.034 994.395C120.073 994.342 120.35 991.715 120.672 988.588L121.225 982.841L123.028 979.877C124.018 978.277 124.798 976.848 124.785 976.755C124.772 976.663 123.843 976.256 122.71 975.901C121.55 975.526 120.614 975.073 120.588 974.889C120.607 974.698 122.589 969.239 125.075 962.72L129.589 950.9L137.352 943.153C141.601 938.898 145.101 935.314 145.087 935.222C145.074 935.13 143.092 926.834 135 920L120 903C95.7186 879.785 67.8547 876.656 19.8993 859.767L9.31327 856.094L-37.6953 844.027C-38.4928 843.77 -19.8192 839.376 -19.688 839.271C-19.572 839.137 -36.2353 824.379 -31.6953 823.93L-2.97046 837.404L13.3057 844.027C22.2789 847.668 30.0993 850.865 30.6912 851.153C31.7855 851.627 32.0787 851.55 40.8272 848.786C61.225 842.282 66.4702 840.717 66.6323 840.745C66.7191 840.784 67.1607 841.908 67.6112 843.154C67.8064 843.744 68.009 844.325 68.2235 844.914C68.5052 845.76 68.7017 846.422 68.6733 846.511C68.645 846.6 62.2047 849.076 55.6164 851.654C49.0431 854.262 43.774 856.457 43.937 856.558C44.1293 856.644 56.0788 861.902 70.5421 868.236Z" fill="url(#paint2_linear_57_59)"/>
<path fill-rule="evenodd" clip-rule="evenodd" d="M123.414 4.65544C123.235 4.62334 118.721 1.9631 113.339 -1.26921C107.957 -4.50152 103.427 -7.07208 103.321 -6.99846C103.171 -6.93285 95.6323 17.6759 95.432 18.7969C95.4 18.9762 94.5782 18.9215 93.6094 18.6552C91.8876 18.2077 91.8876 18.2077 91.3433 19.9612C89.0332 27.46 89.0493 27.3704 90.7327 36.0479C91.5991 40.5068 92.1908 44.176 92.1301 44.2577C92.0325 44.2865 91.043 43.8777 89.9512 43.2655C88.8594 42.6533 87.8779 42.1997 87.7644 42.3182C87.6588 42.3918 87.9461 47.7649 88.3545 54.2703L89.2005 66.0833L88.0399 65.5975C87.4372 65.3507 86.2847 64.8201 85.4742 64.4435C84.6637 64.0668 83.9187 63.8407 83.866 63.8775C83.7604 63.9511 87.6271 82.6453 89.394 90.5973C89.5216 91.1755 89.1107 91.1481 87.0916 90.5548C85.728 90.1715 84.5721 89.918 84.5481 90.0525C84.532 90.1422 85.8094 94.6285 87.3534 99.9492C89.7469 108.014 90.5088 109.955 91.8145 111.438C92.6551 112.422 93.2879 113.276 93.1824 113.35C93.0768 113.423 90.7269 112.354 88.0222 110.944C85.2727 109.525 82.9676 108.464 82.9068 108.546C82.8093 108.575 79.8891 114.576 76.3703 121.858C72.8597 129.096 69.8546 135.313 69.709 135.611C69.5106 135.945 68.4348 135.244 66.3922 133.489C64.3863 131.788 63.2658 131.078 63.0674 131.412C62.9318 131.662 60.2139 138.326 56.9869 146.238L56.8452 146.586C53.5564 154.649 50.7926 161.326 50.679 161.445C50.5735 161.519 48.7113 160.306 46.5471 158.714C44.4356 157.086 42.5287 155.865 42.4151 155.984C42.2568 156.094 41.3015 162.216 40.2561 169.618C35.7364 201.894 36.1804 199.151 35.1649 199.663C33.8488 200.307 30.1046 199.543 27.4607 198.051C26.2874 197.378 25.2691 196.871 25.2531 196.961C25.2451 197.006 26.1167 200.401 27.1816 204.525C28.2992 208.613 30.4208 216.906 31.9181 223.005C34.5458 233.379 34.6655 234.002 33.6934 234.013C33.1769 234.059 30.7116 233.895 28.2014 233.723C25.7441 233.513 23.6288 233.458 23.5233 233.532C23.4177 233.605 25.8221 242.644 28.8988 253.607L34.5301 273.543L32.6307 273.573C31.5611 273.612 30.17 273.641 29.4665 273.7L28.2466 273.805L35.8373 291.824L46.4227 301.357C52.2741 306.617 57.1184 311.049 57.2735 311.216C57.3837 311.374 55.9206 311.806 54.0466 312.211L50.652 312.851L52.6286 315.751C53.6865 317.329 59.3257 325.327 65.1647 333.5L75.7769 348.313L95.36 359.46C106.143 365.557 115.041 370.577 115.085 370.585C115.175 370.601 114.813 373.405 114.212 376.768C113.648 380.184 112.708 386.216 112.182 390.194L111.169 397.416L115.931 392.485L120.684 387.6L121.007 389.416C121.247 391.171 121.062 391.693 114.71 403.974L108.18 416.732L54.2875 473.753L30.3336 489.912C17.1428 498.839 6.23744 506.092 6.10315 506.068C5.96886 506.044 5.74134 503.181 5.61797 499.734C5.50261 496.243 5.3486 493.485 5.24305 493.559C4.29307 494.221 -23.2145 525.616 -22.9987 525.701C-22.7909 525.831 -17.5831 524.867 -11.3999 523.615L-0.14312 521.376L18.6797 506.009C29.0611 497.551 38.0991 490.148 38.7645 489.526C40.0184 488.456 40.4373 488.438 53.1241 488.538C82.7283 488.847 88.8215 488.875 89.0246 488.773C89.2437 488.58 89.6001 480.639 89.3796 480.322C89.3061 480.216 81.2626 479.468 71.5067 478.737C61.7588 477.961 53.9024 477.201 54.0767 477.001C54.2959 476.809 67.9546 465.005 84.4987 450.756L114.535 424.859L126.316 411.932C132.763 404.804 145.643 390.639 154.917 380.363C173.729 359.626 171.919 360.968 171.649 367.907L171.507 371.028L179.921 386.511C184.589 395.03 189.147 403.39 190.092 405.086C191.498 407.559 192.73 408.937 196.313 411.893L197.292 412.716C199.499 414.571 201.848 416.545 202.865 417.371L204.952 419.134L205.674 416.903C206.07 415.725 206.478 414.734 206.649 414.81C206.783 414.835 209.801 419.402 213.347 424.896L219.732 434.926L227.188 439.224C231.241 441.616 236.742 444.962 239.353 446.634C243.159 449.121 243.759 449.645 242.35 449.253C241.381 448.987 238.632 448.864 236.252 448.993C233.873 449.122 231.884 449.135 231.827 448.94C231.761 448.79 231.77 447.449 231.839 446.027L231.99 443.37L228.951 443.057C223.455 442.534 202.528 439.939 202.418 439.781C202.336 439.72 203.04 438.365 203.919 436.811C205.789 433.583 205.967 433.106 205.113 433.23C204.491 433.35 173.019 434.187 172.527 434.098C172.347 434.066 173.451 433.061 174.953 431.896L175.092 431.78C176.493 430.615 177.61 429.686 177.574 429.635C177.545 429.538 169.898 430.712 160.632 432.151C151.358 433.635 143.328 434.88 142.759 434.963C142.003 435.058 141.729 434.778 141.479 433.854L141.15 432.592L132.657 436.946C119.537 443.664 119.906 443.406 111.923 451.369C107.352 456.01 102.357 460.436 98.4565 463.393L92.3071 468.075L91.8546 472.158C90.4685 484.311 90.4703 487.921 91.6936 503.828L92.8674 519.494L96.3598 526.321C101.153 535.695 101.014 535.438 101.468 534.964C101.74 534.736 102.762 533.669 103.821 532.656C104.948 531.516 105.83 530.98 106.013 531.244C106.197 531.509 108.591 538.277 111.277 546.256L116.174 560.738L120.25 562.487C126.253 565.09 125.712 565.271 126.736 560.318L127.631 556.082L132.927 566.518C136.477 573.54 139.187 578.283 141.212 580.914L144.208 584.829L146.188 584.351C148.354 583.86 148.893 583.17 149.462 579.987C149.647 578.955 149.978 578.136 150.202 578.176C150.425 578.216 155.652 582.577 161.78 587.84C167.908 593.104 172.963 597.388 173.016 597.351C173.069 597.314 172.928 594.744 172.703 591.603L172.338 585.892L173.792 584.996C174.62 584.497 175.38 584.124 175.514 584.148C175.648 584.172 176.637 585.876 177.749 587.927L179.761 591.665L185.398 592.954C188.499 593.695 195.792 595.28 201.588 596.458L212.186 598.681L213.78 589.759L223.955 590.472C235.122 591.317 236.074 591.164 243.228 588.096C248.286 585.903 248.278 585.948 244.96 583.317C243.264 581.948 242.379 580.957 242.769 580.842C243.07 580.71 246.613 580.79 250.648 580.958L257.897 581.24L267.037 578.436C274.324 576.179 276.811 575.19 279.531 573.411C281.415 572.175 282.998 571.071 283.12 570.907C283.241 570.744 281.905 569.949 280.211 569.09C278.508 568.276 276.777 567.364 276.361 567.104C275.738 566.715 278.126 565.246 288.495 559.701L289.146 559.351C295.969 555.684 301.745 552.581 302.182 552.39C302.791 552.083 302.229 551.612 299.129 550.085C297.056 549.019 295.064 548.014 294.73 547.815C294.396 547.616 297.13 546.533 301.182 545.316C308.124 543.182 308.38 543.043 313.961 538.954C317.099 536.647 319.725 534.619 319.749 534.484C319.781 534.305 316.275 531.178 311.982 527.539C307.697 523.855 304.19 520.728 304.214 520.593C304.238 520.459 305.269 519.857 306.541 519.206C307.812 518.555 308.852 517.908 308.884 517.729C308.908 517.594 305.452 513.921 301.182 509.638C296.956 505.364 292.767 501.142 291.947 500.301L290.426 498.733L293.373 498.011C295.015 497.612 296.389 497.164 296.421 496.984C296.445 496.85 291.952 493.037 286.436 488.485C280.912 483.977 276.517 480.135 276.728 479.988C276.931 479.886 278.784 479.339 280.861 478.832C282.938 478.325 284.702 477.762 284.742 477.538C284.827 477.322 280.008 473.265 274.105 468.551C268.166 463.784 263.36 459.915 263.465 459.841C263.518 459.804 265.795 460.768 268.495 461.946C271.186 463.169 274.147 464.44 275.1 464.796L276.753 465.37L274.876 461.655C273.816 459.568 273.059 457.859 273.112 457.822C273.218 457.748 280.419 461.399 289.18 465.885C297.897 470.363 305.225 474.083 305.359 474.107C305.538 474.14 305.831 472.758 305.949 471.066L306.18 467.961L331.736 475.412L337.392 474.528C340.478 474.064 343.198 473.579 343.409 473.432C343.575 473.277 342.666 471.124 341.305 468.659C339.899 466.186 338.877 464.151 338.929 464.114C338.982 464.078 343.936 465.567 349.888 467.421L360.794 470.764L366.55 469.575C371.018 468.618 372.197 468.227 371.768 467.78C371.458 467.447 370.471 466.252 369.601 465.171L367.973 463.167L369.49 463.207C370.373 463.18 377.829 463.592 386.055 464.094C394.334 464.56 401.156 464.904 401.262 464.831C401.323 464.749 399.629 456.903 397.455 447.35C395.281 437.798 393.604 429.862 393.718 429.744C393.831 429.625 395.742 429.274 397.974 428.934C400.198 428.638 401.975 428.263 401.962 428.075C401.896 427.925 396.588 420.402 390.116 411.375C383.689 402.356 378.425 394.841 378.449 394.707C378.474 394.572 381.153 394.312 384.46 394.165C387.721 394.009 390.715 393.805 391.186 393.751C391.711 393.66 387.613 389.964 378.745 382.451C371.484 376.29 365.564 371.157 365.596 370.977C365.628 370.798 367.611 370.043 370.057 369.278C372.467 368.461 374.397 367.743 374.316 367.682C374.242 367.576 365.127 363.258 354.033 358.122C342.903 352.934 333.788 348.616 333.714 348.51C333.641 348.405 335.851 347.413 338.675 346.346C345.135 343.802 345.496 343.589 344.165 343.026C343.652 342.795 337.396 340.054 330.331 336.937L317.523 331.309L309.916 330.963C305.738 330.816 301.926 330.688 301.418 330.689C300.902 330.735 303.008 329.031 306.166 326.867L311.842 323.025L309.694 322.64C308.53 322.431 300.64 321.341 292.205 320.199C283.77 319.057 275.88 317.967 274.716 317.758L272.567 317.373L274.323 315.559C275.329 314.582 276.051 313.647 275.933 313.534C275.822 313.375 270.188 313.105 263.387 312.904C252.945 312.652 249.976 312.721 243.73 313.545C239.701 314.118 236.362 314.445 236.244 314.332C236.179 314.181 236.627 312.966 237.278 311.648C237.893 310.277 238.422 309.123 238.385 309.07C238.349 309.017 234.03 309.4 228.858 309.907L219.403 310.85L213.871 315.18C210.86 317.555 208.181 319.62 208.006 319.82C207.637 320.078 200.503 320.187 200.551 319.918C200.567 319.829 209.877 309.558 217.592 295.856C225.262 282.145 231.673 273.569 231.806 273.083C231.931 272.643 244.688 254.273 257.709 239.578C275 224 324.873 218.995 326 219.151C327.216 219.48 335.54 208.731 334 208C332.973 207.512 320.006 214.964 320 215C319.969 215.175 260.555 224.886 251.964 236.406C240.785 251.398 228.922 266.545 228.86 266.455C228.787 266.35 228.81 258.719 228.801 249.462C228.85 234.709 228.784 232.754 228.08 232.813C227.511 232.896 230.01 228.994 236.095 220.275L244.964 207.612L249.316 195.666C251.735 189.112 253.879 183.574 254.151 183.345C254.304 183.238 254.413 183.201 254.467 183.25C254.585 180.417 256.968 157.475 257.192 155.986C257.331 154.947 257.304 154.063 257.17 154.039C257.036 154.015 255.344 154.174 253.413 154.383C251.489 154.547 249.821 154.572 249.666 154.406C249.564 154.202 250.04 146.884 250.765 138.175L252.076 122.306L250.11 114.689L248.1 107.063L245.146 106.534C242.863 106.125 242.044 105.793 241.619 105.069C239.891 102.075 234.809 88.1142 231.979 78.352C230.132 72.1439 228.466 66.9865 228.242 66.9464C228.063 66.9143 227.26 67.7884 226.454 68.9395C225.656 70.0458 224.845 70.9648 224.666 70.9327C224.487 70.9006 219.158 63.2354 212.787 53.9026L201.229 36.8838L200.564 40.6054C200.203 42.6232 199.817 44.2662 199.683 44.2421C198.34 44.0013 193.128 39.0411 185.748 30.9619C180.803 25.5405 176.491 20.973 176.202 20.7823C175.868 20.5836 175.223 21.3472 174.365 23.0445C173.645 24.4887 172.921 25.7008 172.726 25.7583C172.575 25.8239 167.441 22.4972 161.3 18.3422C155.196 14.24 150.077 10.8236 149.898 10.7915C149.719 10.7594 149.38 11.6241 149.098 12.6841L148.611 14.633L146.925 13.7291C137.409 8.55254 124.288 1.57291 124.065 1.53279C123.93 1.50871 123.802 2.22613 123.784 3.10214C123.766 3.97814 123.593 4.68754 123.414 4.65544ZM147.07 211.488C143.86 205.405 143.116 203.884 141.956 200.807C141.579 199.814 141.313 198.979 141.402 198.995C141.492 199.011 144.252 201.403 147.53 204.259L153.516 209.543L158.136 210.834C160.647 211.515 162.785 212.222 162.858 212.328C162.932 212.434 162.378 213.723 161.569 215.151C160.751 216.624 160.234 217.966 160.381 218.177C160.581 218.352 167.737 221.995 176.405 226.233L192.126 233.91L207.283 234.406C215.594 234.693 222.514 235.008 222.587 235.113C222.661 235.219 221.315 247.148 219.593 261.694L216.489 288.116L200.22 310.65C189.409 325.649 182.208 335.186 178.684 339.136C174.394 344.012 173.353 345.445 173.088 346.925C172.848 348.27 170.571 351.702 163.189 361.994C153.723 375.151 153.427 375.515 139.82 389.873C131.899 398.263 125.989 404.191 125.911 403.854C125.788 403.508 125.568 397.499 125.435 390.487L125.176 377.715L129.398 368.569L139.805 359.19C145.534 354.016 151.66 348.173 153.44 346.225L156.668 342.639L162.257 324.807C165.305 314.988 167.796 306.735 167.746 306.494C167.733 306.307 165.807 306.748 163.486 307.582C161.174 308.37 159.073 309.012 158.804 308.964C158.528 308.96 160.178 304.12 162.949 296.888C168.352 282.679 173.224 269.115 173.149 268.5C173.108 268.215 171.593 269.192 169.819 270.587C166.544 273.146 166.544 273.146 164.464 272.634C162.661 272.126 162.498 272.004 162.837 271.14C163.492 269.545 166.669 260.813 167.908 257.241C169.046 253.974 169.041 253.742 168.339 253.015C167.948 252.62 162.827 246.89 157.021 240.342L146.502 228.369L143.729 221.393C142.198 217.555 141.009 214.381 141.07 214.299C141.168 214.27 143.171 214.953 145.5 215.88C147.837 216.762 149.832 217.489 149.938 217.416C150.043 217.342 148.759 214.706 147.07 211.488Z" fill="url(#paint3_linear_57_59)"/>
<path d="M299.81 143.413C300.045 142.344 299.872 138.801 299.383 135.534L298.445 129.655L301.266 118.258L304.03 106.852L310.036 99.6087C313.335 95.6437 316.148 92.4474 316.204 92.4563C316.316 92.4742 317.249 94.8365 318.3 97.6733C319.295 100.501 320.284 102.872 320.508 102.908C320.676 102.935 323.598 95.72 326.875 86.8692L332.953 70.8496L338.684 64.5388C341.869 61.0764 344.541 58.118 344.66 58.072C344.786 57.962 345.18 60.0429 345.573 62.6443C345.958 65.3097 346.479 67.2806 346.739 66.9967C347.055 66.7217 350.164 62.9217 353.674 58.5998C360.088 50.7708 360.215 50.6608 371.009 43.4661C376.936 39.4651 382.302 35.8952 382.913 35.5371C383.889 34.9768 384.028 35.2595 384.215 38.6744C384.322 40.7745 384.526 43.0204 384.623 43.6868C384.739 44.6818 386.094 43.7916 391.456 39.2445C397.133 34.4225 399.71 32.816 407.86 28.8444L417.526 24.0733L417.801 26.2003C417.896 27.3872 418.088 28.7199 418.15 29.1854C418.254 29.7878 420.388 28.5663 424.055 25.8969C430.777 20.9162 452.873 5.56612 453.153 5.61087C453.265 5.62877 452.67 7.87728 451.794 10.6016C450.973 13.3348 450.322 15.5743 450.434 15.5923C450.546 15.6102 458.213 13.9049 467.466 11.8019C476.711 9.76281 484.42 8.19444 484.566 8.41314C484.713 8.63184 485.282 10.6757 485.879 12.9842C486.614 16.096 487.179 17.1626 487.922 17.1511C488.441 17.1038 493.855 16.1456 499.979 14.975C513.74 12.3551 515.584 12.1939 515.455 13.345C515.326 14.4961 513.959 17.0119 511.996 19.758C511.109 21.0485 510.517 22.2559 510.72 22.4836C510.964 22.8481 543.124 32.2141 546.2 32.7703L547.482 33.0402L545.671 36.4615C544.664 38.3187 543.909 39.9558 544.063 40.1106C544.161 40.2564 551.876 44.2222 561.166 48.8953C570.505 53.6413 578.388 57.634 578.766 57.8245C579.137 58.079 574.607 63.8654 567.659 71.8696L555.916 85.4875L557.939 86.2664C559.032 86.7012 561.085 87.2242 562.479 87.5119C567.853 88.4351 567.826 88.1704 563.473 95.9379C559.909 102.269 559.051 103.304 552.29 109.645L544.967 116.418L547.719 117.313C549.204 117.811 550.451 118.4 550.429 118.592C550.407 118.784 547.266 124.401 543.385 131.007L536.441 143.048L529.698 147.7C525.99 150.233 522.983 152.617 523.06 152.955C523.08 153.283 523.993 155.317 525.018 157.368L526.872 161.18L510.899 178.418L502.044 181.041C497.147 182.472 492.18 184.023 490.938 184.41L488.637 185.084L490.749 189.653C491.899 192.115 492.629 194.249 492.383 194.405C491.962 194.599 457.96 205.704 454.417 206.766L452.466 207.366L455.556 210.853C457.282 212.757 458.511 214.515 458.202 214.726C457.949 214.946 447.632 216.879 435.302 218.946C422.972 221.014 412.788 222.773 412.662 222.883C412.479 222.984 413.547 224.652 415.042 226.583L417.732 230.072L396.691 228.405C385.099 227.465 375.461 226.903 375.271 227.068C375.025 227.224 376.134 229.549 377.599 232.257L380.369 237.061L378.686 237.313C373.692 238.078 367.338 236.738 348.733 231.163C338.471 228.027 329.35 225.4 328.565 225.274C328.58 225.146 315.894 221.233 313.344 220.566C310.794 219.898 308.483 219.138 308.231 218.838C307.609 218.283 297.833 182.872 297.955 181.785C298.005 181.337 300.127 143.138 299.81 143.413Z" fill="url(#paint4_linear_57_59)"/>
<path d="M479.557 27.1934L444.065 56.2992L450.913 64.6505L478.054 42.3931L500.312 69.5346L508.663 62.6861L479.557 27.1934Z" fill="#EFF4D8"/>
<path d="M476.901 54.0629L441.408 83.1687L448.256 91.52L475.398 69.2625L497.655 96.4041L506.007 89.5556L476.901 54.0629Z" fill="#EFF4D8"/>
<path d="M474.244 80.9323L438.751 110.038L445.6 118.389L472.741 96.132L494.999 123.274L503.35 116.425L474.244 80.9323Z" fill="#EFF4D8"/>
<path d="M317.39 169.371C318.764 169.341 320.056 169.248 321.266 169.09C322.475 168.933 323.533 168.774 324.439 168.613C325.517 168.448 326.493 168.225 327.366 167.944C328.492 167.637 329.871 167.152 331.505 166.49C333.178 165.818 334.898 165.154 336.663 164.5C338.417 163.805 340.112 163.213 341.749 162.723C343.416 162.182 344.81 161.909 345.932 161.906C347.043 161.862 348.212 161.953 349.44 162.179C350.697 162.354 351.892 162.698 353.025 163.209C354.147 163.68 355.147 164.336 356.024 165.176C356.89 165.977 357.533 166.989 357.954 168.213C358.342 169.792 358.38 171.358 358.07 172.911C357.825 174.23 357.21 175.694 356.223 177.302C355.226 178.87 353.569 180.315 351.252 181.639C352.542 181.459 353.684 181.45 354.678 181.611C355.701 181.72 356.606 181.948 357.392 182.295C358.207 182.591 358.897 182.986 359.464 183.479C360.07 183.961 360.577 184.471 360.982 185.008C361.969 186.251 362.679 187.741 363.11 189.481C363.483 191.798 363.509 193.713 363.188 195.226C362.907 196.728 362.443 197.956 361.796 198.909C361.149 199.863 360.422 200.602 359.615 201.124C358.807 201.647 358.063 202.088 357.384 202.446C356.704 202.804 355.842 203.126 354.797 203.411C353.751 203.696 352.621 203.983 351.404 204.272C350.216 204.51 348.994 204.779 347.737 205.078C346.469 205.338 345.283 205.662 344.179 206.049C343.277 206.382 342.173 206.77 340.868 207.212C339.765 207.599 338.385 208.084 336.73 208.665C335.064 209.206 333.122 209.844 330.903 210.579C331.258 210.137 331.521 209.676 331.693 209.198C331.893 208.668 332.051 208.215 332.164 207.838C332.255 207.381 332.332 206.95 332.394 206.544C332.427 206.19 332.286 205.278 331.971 203.809C331.657 202.34 331.245 200.595 330.737 198.574C330.218 196.513 329.64 194.317 329.004 191.986C328.397 189.603 327.757 187.338 327.084 185.189C326.441 182.989 325.828 181.062 325.247 179.406C324.695 177.7 324.234 176.486 323.865 175.767C323.393 174.988 322.836 174.212 322.193 173.437C321.663 172.761 320.976 172.063 320.131 171.344C319.327 170.613 318.413 169.955 317.39 169.371ZM331.791 172.049C331.835 172.21 332.003 172.747 332.295 173.66C332.555 174.453 332.935 175.688 333.436 177.366C333.966 178.992 334.708 181.316 335.663 184.338C336.788 184.506 337.839 184.478 338.815 184.255C339.779 183.992 340.633 183.716 341.374 183.427C342.226 183.065 343.015 182.634 343.742 182.133C344.707 181.395 345.354 180.441 345.682 179.271C346.051 178.091 346.188 176.931 346.093 175.79C346.027 174.599 345.802 173.538 345.418 172.606C345.023 171.634 344.565 170.982 344.042 170.649C343.092 170.174 341.994 169.869 340.747 169.734C339.684 169.636 338.392 169.729 336.872 170.014C335.381 170.248 333.687 170.927 331.791 172.049ZM339.289 200.711C340.984 201.069 342.428 201.215 343.619 201.149C344.811 201.083 345.788 200.946 346.552 200.737C347.436 200.496 348.167 200.167 348.744 199.75C349.409 199.18 350.021 198.495 350.58 197.694C351.169 196.843 351.528 195.945 351.66 195.003C351.82 194.009 351.718 193 351.352 191.977C350.976 190.913 350.19 189.854 348.995 188.798C347.979 188.082 346.857 187.611 345.629 187.384C344.543 187.205 343.241 187.258 341.72 187.544C340.24 187.818 338.545 188.648 336.634 190.033L339.289 200.711ZM367.096 158.268C369.138 157.84 370.854 157.48 372.243 157.187C373.661 156.843 374.837 156.566 375.773 156.353C376.829 156.108 377.713 155.867 378.426 155.629C379.138 155.392 380.096 155.023 381.298 154.522C382.31 154.116 383.648 153.557 385.31 152.844C387.002 152.08 389.094 151.12 391.586 149.965C390.914 151.142 390.421 152.183 390.107 153.09C389.822 153.945 389.61 154.672 389.471 155.271C389.325 156.002 389.252 156.605 389.252 157.08C389.281 157.504 389.636 158.487 390.316 160.029C390.996 161.571 391.859 163.387 392.904 165.478C393.939 167.528 395.057 169.727 396.26 172.077C397.452 174.386 398.605 176.555 399.72 178.583C400.824 180.571 401.785 182.274 402.604 183.691C403.452 185.058 404.015 185.855 404.293 186.081C405.126 186.761 405.662 187.219 405.899 187.457C406.126 187.654 406.467 187.798 406.924 187.89C407.107 187.926 407.401 187.976 407.807 188.038C408.172 188.111 408.649 188.196 409.238 188.295C409.866 188.383 410.646 188.472 411.578 188.563C410.033 189.071 408.702 189.499 407.588 189.847C406.462 190.154 405.543 190.426 404.831 190.664C403.998 190.934 403.285 191.172 402.693 191.377C402.09 191.541 401.378 191.779 400.555 192.09C399.854 192.367 398.931 192.706 397.787 193.104C396.684 193.492 395.379 193.934 393.874 194.431C394.524 193.649 395.03 192.971 395.392 192.397C395.783 191.772 396.075 191.261 396.269 190.862C396.48 190.373 396.603 189.951 396.636 189.596C396.617 189.212 396.529 188.653 396.372 187.919C396.237 187.265 396.007 186.421 395.681 185.386C395.345 184.312 394.86 182.933 394.228 181.248L378.814 187.203C378.599 187.997 378.462 188.682 378.404 189.259C378.334 189.796 378.309 190.257 378.327 190.641C378.327 191.116 378.386 191.488 378.503 191.759C378.671 192.058 378.916 192.402 379.237 192.789C379.548 193.136 379.961 193.542 380.476 194.006C381.021 194.419 381.774 194.883 382.735 195.398C381.719 195.632 380.689 195.892 379.644 196.177C378.598 196.462 377.639 196.745 376.766 197.027C375.732 197.352 374.718 197.672 373.724 197.987C372.73 198.301 371.601 198.674 370.336 199.105C369.273 199.482 368.034 199.928 366.62 200.444C365.155 200.93 363.6 201.484 361.955 202.105C362.869 201.338 363.622 200.614 364.213 199.934C364.794 199.214 365.266 198.567 365.627 197.993C366.059 197.357 366.415 196.764 366.696 196.212C366.868 195.733 367.178 194.655 367.627 192.977C368.066 191.26 368.533 189.253 369.03 186.958C369.567 184.652 370.105 182.195 370.646 179.585C371.226 176.965 371.725 174.518 372.141 172.245C372.546 169.932 372.847 167.949 373.044 166.298C373.242 164.646 373.28 163.599 373.159 163.157C372.936 162.656 372.576 162.128 372.079 161.573C371.644 161.087 371.026 160.564 370.226 160.005C369.466 159.435 368.422 158.856 367.096 158.268ZM392.287 176.984C391.662 175.643 391.111 174.497 390.636 173.547C390.15 172.557 389.753 171.736 389.446 171.086C389.066 170.326 388.754 169.655 388.509 169.074C388.234 168.544 387.896 167.859 387.494 167.019C387.125 166.299 386.666 165.409 386.118 164.349C385.599 163.239 384.959 161.923 384.199 160.403C383.158 165.611 382.34 169.656 381.745 172.54C381.179 175.372 380.774 177.448 380.529 178.767C380.218 180.32 380.056 181.228 380.041 181.491L392.287 176.984ZM414.915 141.202C416.321 140.818 417.653 140.713 418.911 140.888C420.197 141.013 421.399 141.224 422.518 141.524C423.676 141.812 424.763 142.077 425.779 142.318C426.784 142.519 427.749 142.493 428.674 142.241C429.386 142.003 430.183 141.678 431.063 141.265C431.823 140.885 432.682 140.391 433.64 139.784C434.626 139.126 435.689 138.275 436.829 137.229C435.854 138.878 435.065 140.259 434.462 141.374C433.888 142.437 433.457 143.311 433.169 143.994C432.822 144.78 432.577 145.387 432.435 145.814C432.314 146.322 432.133 147.084 431.892 148.1C431.669 149.025 431.363 150.275 430.972 151.85C430.57 153.385 430.083 155.397 429.509 157.885C428.752 155.112 427.884 153.038 426.905 151.664C425.965 150.279 425.064 149.273 424.202 148.644C423.186 147.928 422.162 147.581 421.132 147.603C420.214 147.724 419.374 148.126 418.61 148.809C417.836 149.453 417.116 150.297 416.451 151.342C415.826 152.377 415.266 153.566 414.769 154.911C414.301 156.205 413.91 157.542 413.596 158.924C413.322 160.294 413.155 161.657 413.093 163.013C413.02 164.329 413.066 165.526 413.23 166.604C413.362 167.561 413.638 168.652 414.058 169.876C414.468 171.06 414.989 172.257 415.621 173.466C416.243 174.636 416.939 175.763 417.71 176.848C418.482 177.933 419.32 178.87 420.227 179.66C421.163 180.398 422.135 180.953 423.143 181.326C424.141 181.658 425.177 181.656 426.251 181.32C427.435 180.91 428.522 180.225 429.513 179.264C430.375 178.467 431.181 177.383 431.93 176.013C432.667 174.602 433.139 172.767 433.343 170.509L442.711 169.702C440.994 173.539 439.123 176.576 437.099 178.813C435.115 181.039 433.246 182.736 431.492 183.906C429.439 185.244 427.401 186.167 425.381 186.675C422.772 187.085 420.191 186.969 417.641 186.326C415.09 185.683 412.769 184.697 410.678 183.367C408.617 181.986 406.854 180.351 405.388 178.462C403.922 176.572 402.97 174.586 402.531 172.504C402.239 171.115 402.087 169.45 402.075 167.51C402.053 165.529 402.181 163.464 402.458 161.316C402.776 159.156 403.265 156.992 403.926 154.825C404.587 152.658 405.424 150.659 406.436 148.828C407.437 146.957 408.641 145.354 410.047 144.02C411.483 142.635 413.106 141.695 414.915 141.202ZM435.042 137.328C436.464 137.156 437.708 136.968 438.775 136.763C439.883 136.547 440.809 136.381 441.554 136.264C442.42 136.114 443.155 135.957 443.758 135.792L446.109 135.15C447.677 134.723 450.253 133.955 453.838 132.847C453.031 133.37 452.397 133.974 451.936 134.662C451.516 135.338 451.202 136.007 450.994 136.668C450.727 137.432 450.587 138.183 450.572 138.921C450.561 139.831 450.647 141.017 450.83 142.479C450.969 143.779 451.213 145.462 451.56 147.527C451.948 149.581 452.473 152.137 453.135 155.196C454.326 152.754 455.356 150.594 456.225 148.716C457.135 146.826 457.913 145.167 458.56 143.738C459.206 142.309 459.736 141.085 460.149 140.065C460.602 139.035 460.967 138.157 461.245 137.434C461.917 135.782 462.267 134.693 462.297 134.167C462.26 133.874 462.147 133.538 461.956 133.158C461.788 132.858 461.564 132.509 461.282 132.111C460.99 131.673 460.606 131.216 460.131 130.741C461.761 130.383 463.144 130.07 464.28 129.803C465.457 129.525 466.433 129.302 467.207 129.134C468.103 128.933 468.832 128.755 469.394 128.602L471.927 127.911C472.851 127.658 474.057 127.329 475.544 126.923C477.021 126.477 478.879 125.927 481.119 125.272C479.73 126.04 478.455 126.906 477.293 127.871C476.131 128.836 475.105 129.743 474.213 130.591C473.194 131.603 472.26 132.614 471.412 133.622C470.587 134.712 469.679 135.974 468.689 137.411C467.856 138.631 466.902 140.123 465.828 141.884C464.743 143.606 463.597 145.581 462.392 147.81C465.166 150.854 467.529 153.34 469.481 155.27C471.462 157.148 473.101 158.644 474.398 159.758C475.882 161.081 477.101 162.066 478.055 162.712C478.987 163.279 480.045 163.832 481.229 164.373C482.22 164.837 483.433 165.326 484.869 165.841C486.295 166.316 487.895 166.721 489.671 167.057L472.718 172.591C472.871 172.204 472.908 171.783 472.827 171.33C472.776 170.826 472.695 170.373 472.586 169.971C472.465 169.529 472.293 169.057 472.07 168.557C471.734 167.957 471.027 167.027 469.948 165.767C469.046 164.674 467.704 163.162 465.924 161.229C464.133 159.256 461.703 156.68 458.632 153.501L454.972 160.266C455.122 161.607 455.339 162.8 455.625 163.845C455.91 164.89 456.186 165.743 456.453 166.405C456.804 167.216 457.162 167.896 457.527 168.444C457.933 168.981 458.461 169.571 459.112 170.214C459.66 170.799 460.362 171.471 461.217 172.231C462.072 172.991 463.116 173.808 464.348 174.681C463.357 174.692 462.389 174.784 461.442 174.955C460.485 175.087 459.619 175.237 458.844 175.405C457.949 175.606 457.11 175.857 456.328 176.157C455.506 176.467 454.554 176.857 453.472 177.325C452.552 177.749 451.421 178.273 450.08 178.898C448.739 179.524 447.213 180.264 445.503 181.119C446.245 180.355 446.794 179.601 447.152 178.855C447.51 178.11 447.773 177.412 447.941 176.761C448.128 176.019 448.199 175.33 448.155 174.694C448.093 174.15 447.846 173.008 447.414 171.269C447.023 169.518 446.515 167.497 445.889 165.206C445.293 162.864 444.624 160.412 443.882 157.85C443.14 155.288 442.441 152.888 441.787 150.648C441.132 148.408 440.551 146.515 440.043 144.969C439.564 143.372 439.255 142.398 439.116 142.047C438.842 141.518 438.517 140.958 438.14 140.37C437.785 139.862 437.345 139.356 436.819 138.852C436.322 138.297 435.73 137.789 435.042 137.328Z" fill="#EFF4D8"/>
</g>
<defs>
<linearGradient id="paint0_linear_57_59" x1="417.625" y1="1016.48" x2="137.223" y2="1160.69" gradientUnits="userSpaceOnUse">
<stop stop-color="#4F772D"/>
<stop offset="1" stop-color="#90A955"/>
</linearGradient>
<linearGradient id="paint1_linear_57_59" x1="417.625" y1="1016.48" x2="137.223" y2="1160.69" gradientUnits="userSpaceOnUse">
<stop stop-color="#4F772D"/>
<stop offset="1" stop-color="#90A955"/>
</linearGradient>
<linearGradient id="paint2_linear_57_59" x1="417.625" y1="1016.48" x2="137.223" y2="1160.69" gradientUnits="userSpaceOnUse">
<stop stop-color="#4F772D"/>
<stop offset="1" stop-color="#90A955"/>
</linearGradient>
<linearGradient id="paint3_linear_57_59" x1="483.041" y1="113.797" x2="53.8164" y2="37.1031" gradientUnits="userSpaceOnUse">
<stop stop-color="#4F772D"/>
<stop offset="1" stop-color="#90A955"/>
</linearGradient>
<linearGradient id="paint4_linear_57_59" x1="632.766" y1="43.3809" x2="358.742" y2="-31.0552" gradientUnits="userSpaceOnUse">
<stop stop-color="#4F772D"/>
<stop offset="1" stop-color="#90A955"/>
</linearGradient>
<clipPath id="clip0_57_59">
<rect width="586" height="1124" fill="white"/>
</clipPath>
</defs>
</svg>
