<svg width="3012" height="1021" viewBox="0 0 3012 1021" fill="none" xmlns="http://www.w3.org/2000/svg">
<path fill-rule="evenodd" clip-rule="evenodd" d="M582.703 392.626C521.703 434.626 465.203 448.626 409.703 458.126C245.789 465.872 154.88 467.237 0.202969 447.126V561.626C131.824 585.377 227.096 584.375 408.203 575.126C480.203 568.626 520.703 550.626 578.703 549.126C630.703 577.626 690.703 607.126 718.203 658.626C767.203 652.626 803.703 672.126 865.203 709.626C886.203 689.5 860.203 674.626 966.703 681.626L1029.2 770.626C1102.2 887.631 1124.7 894.131 1170.2 913.126C1118.2 885.601 1055.7 802.131 1047.7 762.626C1075.19 778.516 1088.12 784.347 1105.7 788.126L1121.7 784.126C1027.86 751.916 1004.94 714.658 972.703 642.626C931.703 651.126 946.294 660.055 873.203 664.626C835.703 664.626 804.567 652.462 791.203 632.626C813.703 628.626 842.203 644.626 881.203 639.626C887.849 591.868 901.711 579.874 932.703 567.626C939.203 565.057 950.203 594.131 964.203 593.126C973.203 590.131 948.703 570.963 958.203 569.126C989.203 563.131 1035.2 597.631 1114.2 672.626C1197.2 735.131 1183.2 753.131 1211.7 781.126C1331.2 754.131 1382.2 743.131 1452.7 781.126C1486.7 708.131 1537.7 694.131 1619.2 710.131C1669.85 720.075 1666.7 617.889 1823.2 552.131C1887.2 516.131 1995.2 448.131 2049.2 412.631C2134.2 427.131 2207.2 440.131 2247.2 483.631C2396.7 477.631 2446.2 516.131 2555.7 529.131C2636.84 503.552 2669.41 536.437 2713.95 555.261C2707.7 556 2701.25 555.691 2694.76 562.547C2684.77 572.962 2680.17 590.242 2679.69 619.038L2679.32 638.635L2674.64 639.646C2665.28 641.801 2660.18 655.741 2664.85 666.731C2667.96 673.968 2681.77 690.401 2682.73 687.879C2686.17 678.72 2688.95 670.086 2688.97 667.952C2689 665.153 2689.14 665.021 2693.51 667.073C2698.82 669.67 2699.95 675.151 2700.32 700.357C2700.58 723.029 2700.44 723.827 2697.16 730.321C2692.38 739.598 2691.52 744.788 2693.43 752.145C2695.34 759.768 2695.34 759.768 2698.03 757.534C2699.92 755.956 2700.04 756.758 2699.26 766.482C2698.79 772.211 2697.56 785.664 2696.77 796.321C2694.6 821.364 2687.25 867.546 2686.82 858.607C2686.73 855.406 2680.28 848.128 2677.62 848.096C2676.42 848.082 2669.17 852.262 2661.64 857.506L2647.92 866.809L2654.3 869.019C2657.75 870.26 2662.52 872.584 2664.77 874.344C2670.58 878.548 2673.66 878.184 2680 871.993C2684.58 867.514 2685.39 867.124 2684.56 869.781C2681.64 879.213 2680.42 881.465 2678.02 881.437C2673.75 881.386 2668.09 886.385 2657.26 899.59C2651.58 906.722 2646.44 912.661 2645.77 912.787C2643.23 913.823 2644.94 915.71 2648.54 915.753C2650.8 915.78 2652.93 916.472 2653.45 917.279C2654.89 919.696 2667.04 918.108 2671.48 914.828L2675.52 911.942L2674.82 915.001C2671.43 930.428 2670.61 932.418 2665.75 937.427C2663.05 940.195 2661.01 942.838 2661.41 943.242C2662.73 944.458 2673.27 944.051 2677.82 942.505C2684.91 940.19 2692.45 934.813 2693.29 931.49C2694.68 926.439 2690.3 913.986 2685.3 908.192L2680.56 902.802L2683.55 898.171C2685.18 895.523 2687.64 890.619 2689.01 887.302L2691.35 881.329L2697.78 890.207L2704.07 899.216L2706.42 892.71C2710.56 881.026 2711.05 873.431 2708.06 866.595C2706.51 862.843 2704.14 859.748 2702.02 858.789C2699.11 857.42 2698.72 856.616 2699.42 853.824C2700.25 851.034 2705.8 822.031 2705.81 820.698C2705.81 820.565 2707.01 820.979 2708.47 821.797C2711.25 823.297 2728.04 824.164 2729.39 822.847C2729.79 822.452 2727.32 817.755 2723.78 812.379C2719.46 805.927 2715.77 801.882 2712.85 800.514L2708.48 798.462L2709.54 787.54C2710.18 779.147 2713.24 723.713 2713.8 709.986C2713.82 708.519 2715.42 708.272 2721.55 709.012C2725.81 709.596 2730.33 710.317 2731.53 710.864C2733.25 711.552 2733.79 710.891 2733.82 708.358C2733.91 701.559 2731.18 684.058 2729.24 679.101C2726.65 672.27 2720.58 667.264 2714.98 667.197C2711.38 667.154 2710.32 666.474 2709.03 662.992C2707.09 658.302 2700.74 653.692 2695.81 653.5C2689.68 653.293 2697.04 651.248 2706.91 650.432C2714.66 649.725 2715.99 649.341 2715.22 647.465C2714.7 646.125 2713.82 641.848 2712.93 637.837C2712.18 633.827 2710.89 629.812 2710.1 629.136C2709.18 628.325 2707.49 624.971 2706.33 621.357C2703.88 614.66 2701.24 612.362 2695.77 612.296C2691.77 612.248 2691.4 609.977 2693.93 598.673C2696.32 588.435 2699.87 581.277 2705.55 575.077C2715.68 564.131 2727.67 562.422 2750.7 565.631C2779.2 569.403 2789.2 521.631 2885.2 565.631C2950.2 590.631 2978.7 647.131 3011.2 649.131C3011.2 637.131 2962.2 550.131 2831.2 532.131C2708.23 537.523 2691.2 530.131 2630.7 501.131C2576.8 504.338 2548.94 504.435 2524.2 490.631C2594.99 483.148 2636.19 480.96 2714.7 483.631C2763.51 440.719 2802.95 439.913 2898.2 486.631C2949.05 516.614 2968.91 518.778 2990.7 499.631C2910.29 462.905 2867.74 446.09 2800.2 428.631C2823.2 357.131 2835.2 348.631 2918.7 348.631L2905.7 335.131C2885.17 345.414 2870.65 348.078 2839.7 347.631C2846.7 324.131 2864.5 315.119 2920.2 313.631C2959.2 312.589 2980.64 314.209 3003.2 292.631C3002.13 287.463 3001.44 284.728 2999.2 281.631C2971.7 308.631 2942.2 288.631 2897.2 303.131C2930.7 246.631 2950.2 211.631 2906.2 179.631L2902.2 186.131C2941.7 216.631 2921.7 270.631 2881.2 284.131C2875.94 245.637 2878.6 224.162 2902.2 186.131L2906.2 179.631C2917.81 163.958 2925.2 156.131 2925.2 137.131L2911.7 152.131C2900.63 148.576 2903.74 128.035 2911.2 87.6309C2902.06 102.959 2896.51 111.289 2894.7 131.131C2894.7 154.131 2906.2 168.131 2897.7 175.631C2881.86 169.298 2873.89 164.639 2861.7 154.131C2862.94 165.575 2864.57 171.931 2894.7 181.631C2877.14 207.925 2870.39 226.184 2862.2 263.131C2833.91 340.03 2818.7 342.631 2768.7 367.631C2635.7 420.631 2604.2 487.131 2545.2 448.631C2534.7 386.631 2562.41 346.795 2635.7 292.131C2601.7 290.131 2631.2 242.131 2700.7 252.631C2688.2 241.631 2665.7 246.131 2661.7 233.631C2691.2 198.131 2692.2 112.131 2663.7 64.6309C2687.7 184.631 2644.2 257.631 2610.7 263.131C2592.2 259.131 2597.7 246.631 2590.2 214.631C2581.43 195.244 2573.7 188.631 2560.2 165.131C2558.2 206.131 2602.7 237.131 2594.2 287.131C2578.7 344.631 2556 329.631 2558.2 297.131C2558.41 294.138 2549.7 284.131 2547.2 300.131C2527.2 404.131 2517.2 463.131 2461.7 471.631C2431.7 463.631 2398.2 458.631 2343.7 456.131C2255.2 449.631 2259.2 406.131 2242.2 434.131C2189.7 419.631 2166.7 401.838 2145.7 400.131C2084.2 395.131 2071.7 392.131 2060.2 375.631C2040.7 341.631 2060.2 289.131 2109.7 273.131C2114.75 258.039 2115.69 252.627 2115.7 245.631C2099.2 266.131 2069.47 267.131 2056.7 287.631C2037.7 318.131 2039.06 363.723 2025.2 381.631C2003.7 409.406 1989.05 390.115 1960.7 416.631C1898.7 474.631 1899.2 452.131 1846.2 472.131C1776.28 520.742 1729.05 559.192 1622.7 658.631C1604.7 647.131 1587 650.96 1552.2 658.631C1526.2 620.631 1461.78 607.126 1462.7 577.126C1467.2 430.631 1489.7 387.631 1551.2 361.631C1552.7 301.631 1582.2 288.131 1604.7 323.131C1610.56 326.427 1616.85 326.119 1622.7 323.131C1619.2 298.631 1635.59 289.437 1667.2 291.131C1702.37 243.432 1736.7 215.131 1816.7 160.631C1855.7 174.631 1967.2 175.631 1985.2 162.631C1910.2 162.631 1835.06 151.131 1838.7 134.631C1848.2 91.6309 1951.2 113.131 1919.7 38.1309C1869.2 96.6309 1825.41 95.1309 1744.2 186.131C1673.7 265.131 1586.7 288.131 1585.2 262.131C1585.2 229.631 1638.2 189.131 1612.7 162.631C1587.7 188.131 1591.2 220.631 1570.2 261.131C1540.7 295.131 1532.91 341.631 1523.7 348.131C1506.7 360.131 1491.2 354.131 1479.7 374.131C1443.2 437.631 1452.2 489.126 1399.7 510.131C1384.2 510.131 1374.7 493.131 1362.2 489.126C1262.7 517.131 1122.2 478.631 1049.2 490.126C1019.75 463.095 981.027 451.739 869.203 438.626C883.703 433.631 896.703 400.631 906.703 353.131C923.203 335.126 945.234 334.545 1032.7 324.626C1221.7 266.631 1209.7 373.131 1279.7 380.131C1217.38 314.672 1177.7 280.631 1082.2 289.631C1090.3 259.958 1095.3 247.996 1105.7 246.626C1154.2 268.631 1204.2 257.631 1215.7 234.131C1188.7 251.131 1110.76 245.626 1114.7 224.631C1119.2 200.689 1157.36 178.131 1169.2 157.131C1177.97 141.584 1191.56 87.4855 1196.2 78.1296C1211.2 52.1309 1237.7 2.62025 1228.2 0.125831C1218.7 -2.36859 1190.69 32.6276 1183.7 69.1289C1173.47 122.629 1135.17 202.128 1093.2 219.125C1078.7 206.631 1057.77 203.87 1060.2 192.626C1066.7 162.631 1105.7 164.631 1105.7 132.626C1034.2 198.131 997.032 238.626 891.703 238.626C897.203 281.131 883.703 284.626 885.703 329.126C878.63 334.945 862.202 336.532 809.703 335.126C809.703 314.626 794.901 308.126 795.703 296.626C797.203 275.126 834.203 279.626 834.203 264.626C821.703 261.126 805.703 264.626 781.703 284.626C781.703 298.126 790.703 315.126 795.703 335.126C738.703 349.126 745.703 388.126 686.703 362.626C681.203 408.126 626.703 412.626 582.703 392.626ZM757.703 625.626C731.203 619.631 708.203 564.631 684.203 561.626L911.703 554.626C874.344 598.779 862.763 611.906 859.203 626.126C822.203 623.626 816.703 613.239 795.703 613.626C777.391 613.963 772.703 618.131 757.703 625.626ZM795.703 458.126H711.203C711.203 416.131 770.703 375.126 828.203 375.126C828.203 414.631 778.203 420.631 795.703 458.126ZM848.203 362.626H874.203C871.203 414.631 842.203 421.131 821.703 451.126C800.703 413.631 852.203 406.131 848.203 362.626ZM913.703 322.626C918.203 319.631 922.203 291.131 930.703 259.126C975.203 259.126 1011.7 222.626 1047.2 222.626C1062.2 222.626 1067.75 223.876 1080.2 234.126C1060.18 291.203 1022.2 306.131 913.703 322.626ZM1222.2 581.126C1336.7 529.631 1397.7 616.131 1504.7 677.626C1490.2 735.131 1377.2 716.131 1325.7 729.631C1290.08 670.066 1268.43 637.205 1222.2 581.126ZM1183.2 607.126C1246.86 629.82 1272.82 662.844 1312.7 735.131H1249.7C1235.7 678.626 1168.7 662.131 1183.2 607.126ZM2679.7 457.131C2723.37 446.902 2749.82 434.394 2802.2 394.131C2762.7 378.131 2700.7 405.131 2679.7 457.131Z" fill="black" fill-opacity="0.05"/>
<path d="M1721 209.692C1714.11 216.037 1707.16 221.887 1700.25 227.248C1712.79 208.851 1716.43 190.01 1715.79 157.785C1715.19 152.933 1715.18 152.311 1715.56 150.271C1715.77 149.067 1716.08 147.968 1716.5 146.797C1717.19 144.87 1717.44 143.926 1716.84 145.424L1716.47 146.394L1713.52 147.527C1709.72 148.987 1709.57 149.036 1708.03 149.208C1701.33 149.937 1694.06 147.243 1686.87 141.356C1678.52 134.516 1674.27 125.833 1673.14 113.313C1672.08 101.58 1673.26 90.289 1677.02 76.3031C1678.06 72.3738 1679.15 68.847 1679.19 69.2092C1679.21 69.3687 1679.21 70.0717 1679.18 70.7553C1679.08 73.5491 1679.67 77.1186 1680.7 79.8297C1682.17 83.6978 1684.18 86.7186 1687.48 90.0031C1690.48 92.9805 1695.1 96.9445 1701.56 102.087C1703.96 104 1706.51 106.101 1707.23 106.756C1712.77 111.861 1716.46 117.782 1718.14 124.288C1719.53 129.687 1719.66 134.139 1718.58 139.625C1718.04 142.374 1718 143.265 1718.22 145.666C1718.39 147.621 1719.05 149.783 1719.61 150.278C1719.83 150.467 1719.84 150.457 1719.79 150.078C1719.66 149.248 1719.79 147.009 1720.05 145.168C1720.26 143.752 1720.64 142.021 1721.58 138.447C1722.85 133.541 1722.94 133.083 1723.72 127.556C1724.71 120.503 1725.76 114.841 1726.57 112.223C1728.22 106.839 1730.08 103.123 1732.89 99.6077C1734.41 97.701 1735.53 96.6321 1741.57 91.2753C1746.36 87.0268 1749 83.9516 1750.91 80.3744C1751.6 79.0944 1752.08 77.0223 1752.04 75.4774C1751.93 71.5517 1749.39 67.3855 1746.32 66.082C1743.06 64.6924 1739.8 67.0342 1738.35 71.7878C1738.16 72.4213 1737.96 72.9251 1737.92 72.9159C1737.88 72.9067 1737.76 72.4695 1737.65 71.9386C1737.14 69.3736 1737.65 67.2644 1739.24 65.3998C1740.11 64.3727 1742.54 62.8974 1743.8 62.6084C1745.97 62.1012 1748.11 62.4608 1750.21 63.6842C1755.02 66.4815 1757.25 70.8605 1757.02 76.9887C1756.95 78.8458 1755.95 83.2371 1755.13 85.276C1754.41 87.0831 1752.84 90.1766 1751.93 91.5744C1751.56 92.1517 1751.25 92.6444 1751.24 92.6846C1751.23 92.7247 1751.53 92.5686 1751.91 92.3444C1754.69 90.6954 1758.88 89.5507 1762.86 89.37C1764.73 89.2752 1766.12 89.3504 1770.43 89.7958C1778.06 90.5868 1782.77 90.8275 1785.51 90.5486C1790.15 90.1111 1794.41 88.0522 1797.49 84.7813C1797.88 84.3636 1798.18 84.1076 1798.15 84.2014C1798.04 84.7235 1794.92 89.9276 1793.03 92.7645C1789.29 98.3509 1785.48 102.976 1781.5 106.758C1775.42 112.502 1770.69 115.524 1765.7 116.811C1762.32 117.676 1759.39 117.882 1755.84 117.485C1748.83 116.678 1743.92 113.732 1741.52 108.864C1740.81 107.392 1740.25 105.365 1740.45 104.974C1740.75 104.409 1740.06 105.139 1738.79 106.694C1736.73 109.225 1735.36 111.801 1734.04 115.682C1733.49 117.303 1733.2 118.475 1732.55 121.61C1732.11 123.761 1731.63 126.369 1731.46 127.416C1731.31 128.465 1730.45 132.733 1729.57 136.912C1727.6 146.321 1727.26 148.833 1726.61 160.247C1727.47 180.821 1726.1 195.875 1721 209.692Z" fill="black" fill-opacity="0.05"/>
<path d="M2665.77 181.442C2665.48 182.873 2665.17 184.288 2664.85 185.685C2663.27 184.127 2661.3 180.135 2660.24 177.494L2658.83 174.148L2653.53 172.208C2646.47 169.603 2638.55 164.795 2635.65 161.294C2630.16 154.686 2630.22 148.895 2635.96 133.251C2639.08 124.82 2639.65 122.826 2639.73 119.152C2639.85 116.81 2639.74 114.323 2639.51 113.635C2639.34 112.953 2640.62 114.052 2642.46 116.115C2644.31 118.179 2648.47 122.415 2651.78 125.536C2662.08 135.301 2664.67 138.951 2665.93 145.422C2666.89 150.171 2665.65 159.822 2663.22 166.876L2661.22 172.765L2662.95 175.3C2663.84 176.621 2664.99 179.142 2665.77 181.442Z" fill="black" fill-opacity="0.05"/>
<path d="M2685.11 245.381C2683.43 244.945 2681.74 244.556 2680.08 244.173C2679.5 244.038 2678.92 243.904 2678.34 243.77C2679.09 242.262 2680.76 240.559 2683.22 238.916L2687.74 235.944L2688.41 225C2689.17 211.876 2693.6 195.307 2698.34 188.207C2704.74 178.503 2711.4 174.283 2734.74 165.259C2742.22 162.384 2751.84 158.261 2756.22 156.131C2760.61 154.001 2763.43 153.065 2762.69 154.062C2761.86 155.03 2760.02 159.013 2758.65 162.913C2756.32 168.957 2755.92 172.589 2755.36 188.42C2754.25 217.769 2750.47 227.247 2737.1 234.348C2730.02 238.114 2713.9 240.655 2700.65 240.181L2690.7 239.793L2686.17 244.306C2685.79 244.695 2685.44 245.053 2685.11 245.381Z" fill="black" fill-opacity="0.05"/>
<path fill-rule="evenodd" clip-rule="evenodd" d="M2211.74 456.442C2216.99 459.337 2221.99 462.438 2226.71 465.772C2226.5 478.406 2225.35 487.184 2222.46 501.74C2220.57 511.108 2220 515.18 2219.61 521.44L2219.35 525.599L2220.27 524.504C2222.68 521.615 2223.82 519.645 2223.38 519.12C2222.76 518.332 2223.77 514.173 2225.22 511.721C2226.71 509.182 2229.46 506.687 2232.27 505.417C2233.49 504.848 2237.57 503.797 2241.29 503.053C2245.01 502.353 2248.99 501.433 2250.13 501.039C2252.8 500.164 2255.56 498.15 2256.7 496.224C2257.18 495.392 2257.67 494.779 2257.75 494.823C2258.02 495.086 2256.57 501.433 2255.65 504.148C2254.38 507.869 2252.02 512.422 2249.78 515.617C2246.24 520.564 2241.73 522.797 2234.5 523.103C2230.16 523.278 2229.03 523.016 2225.48 521.133C2225.3 521.046 2225.04 521.834 2224.91 522.884C2224.73 523.891 2223.51 527.919 2222.19 531.728C2218.17 543.329 2217.07 551.734 2217.11 570.033C2217.11 576.906 2217.42 588.42 2217.82 595.643C2218.87 615.868 2218.69 627.864 2217.03 638.852L2216.46 642.66L2218.3 641.391C2219.3 640.69 2223.03 638.72 2226.49 637.013C2237.83 631.497 2240.89 628.87 2242.91 622.785C2243.43 621.253 2243.48 621.91 2243.3 628.914C2243.13 636.531 2242.56 640.909 2241.07 646.206C2240.24 649.271 2240.24 649.271 2241.24 649.271C2242.86 649.271 2249.39 651.547 2252.24 653.079C2260.47 657.632 2269.27 665.425 2276.85 674.925C2279.65 678.471 2284.2 684.95 2284.2 685.388C2284.2 685.563 2283.46 685.037 2282.58 684.293C2280.17 682.148 2275.27 680.003 2271.68 679.565C2267.52 678.996 2262.31 679.565 2251.36 681.754C2244 683.242 2241.46 683.593 2237.35 683.593C2231.3 683.593 2228.76 683.067 2223.55 680.572C2219.44 678.602 2214.88 674.881 2212.78 671.86C2211.55 670.021 2211.38 669.978 2210.76 671.291C2210.5 671.86 2209.28 673.655 2208.01 675.319C2204.11 680.441 2202.49 684.95 2199.47 699.09C2198.37 704.168 2197.06 709.684 2196.58 711.348C2196.05 712.967 2192.85 719.797 2189.39 726.539C2183.79 737.483 2180.72 744.706 2181.34 745.363C2181.73 745.757 2184.49 744.75 2186.15 743.568C2187.07 742.911 2188.26 741.773 2188.74 741.029C2189.88 739.234 2189.83 739.847 2188.65 742.43C2187.47 744.881 2185.37 747.07 2180.59 750.704C2175.86 754.294 2173.72 756.745 2169.21 763.881C2165.05 770.448 2160.62 776.314 2154.1 784.106C2129.01 814.05 2102.25 816.94 2071.86 792.993C2063.23 786.164 2050.8 772.768 2040.72 759.372C2031.75 747.421 2024.61 735.338 2019.35 723.255C2018.57 721.417 2018.7 737.702 2019.48 741.117C2020.4 744.925 2022.46 748.822 2025.05 751.58C2026.27 752.849 2027.06 753.9 2026.84 753.9C2025.75 753.9 2011.16 746.239 2007.57 743.743C1995.53 735.469 1987.3 725.575 1984.67 716.251C1983.49 711.917 1983.09 705.919 1983.75 701.323C1985.28 690.553 1988.48 684.599 1995.01 680.528L1998.29 678.514L1997.98 676.676C1996.98 670.591 1994.83 666.081 1987.74 655.356C1981.21 645.462 1979.99 643.273 1977.66 637.451C1975.83 632.767 1974.07 629.396 1973.24 628.87C1972.67 628.52 1973.11 632.767 1973.99 635.7L1974.56 637.67L1973.11 636.006C1969.43 631.847 1967.42 626.331 1964.75 613.154C1963.65 607.857 1962.07 600.94 1961.24 597.832C1957.17 582.991 1952.79 564.78 1949.02 547.05C1943.24 519.706 1938.93 499.849 1935.54 484.935C1942.28 480.754 1949 476.568 1955.65 472.41C1956.78 477.383 1957.6 482.01 1959.05 490.795C1964.09 521.221 1969.04 547.356 1971.14 554.623C1971.84 557.075 1973.77 562.284 1975.43 566.224C1978.63 573.754 1980.73 579.664 1980.73 581.021C1980.73 582.072 1980.86 582.072 1982.88 580.715C1985.46 579.008 1988.39 578.307 1992.77 578.307C1999.3 578.351 2004.07 580.233 2008.62 584.611C2013.97 589.733 2018.35 597.919 2021.02 607.682C2022.2 612.06 2022.11 612.497 2020.62 610.44C2017.86 606.587 2014.1 604.924 2004.99 603.479C1991.5 601.334 1988.57 600.24 1984.41 595.774C1981.56 592.666 1979.94 589.514 1979.55 586.275C1979.42 585.049 1979.11 584.042 1978.85 584.042C1978.32 584.042 1978.63 585.662 1980.51 593.454C1984.28 608.951 1989.01 619.896 1999.78 638.107C2006.79 649.971 2015.59 668.883 2021.85 685.344C2026.23 696.901 2029.08 702.373 2032.8 706.313C2035.29 708.984 2039.23 710.56 2040.07 709.246C2041.07 707.67 2041.86 710.997 2041.16 713.668L2040.68 715.463L2038.71 715.288C2037.66 715.2 2036.78 715.288 2036.78 715.463C2036.78 715.682 2036.96 715.813 2037.13 715.813C2037.7 715.813 2041.77 722.292 2043.88 726.539C2044.97 728.684 2047.42 733.937 2049.31 738.14C2054.56 749.785 2059.29 756.264 2064.55 758.759L2066.52 759.766L2065.12 760.598L2063.71 761.473L2064.81 762.13C2066.56 763.224 2069.63 766.595 2076.41 774.869C2083.16 783.099 2085.87 785.639 2091.83 789.272C2099.58 793.956 2108.03 795.138 2116.48 792.643C2127.3 789.447 2134.13 784.281 2134.13 779.247C2134.13 776.927 2134.83 778.021 2135.01 780.56C2135.05 781.567 2135.23 782.355 2135.44 782.355C2135.62 782.355 2135.75 782.18 2135.75 781.961C2135.75 781.742 2137.94 779.247 2140.61 776.401C2148.01 768.521 2153.62 759.766 2161.63 743.743C2169.65 727.764 2174.29 717.652 2177.79 708.809C2186.46 686.701 2188.65 681.316 2192.02 674.224C2200.3 656.844 2201.83 647.038 2200.61 618.889C2200.04 606.456 2199.9 605.187 2197.93 598.27C2194.47 586.231 2194.39 585.706 2194.21 580.102L2193.99 574.63L2194.65 577.607C2195.35 580.978 2196.93 584.699 2198.33 586.099C2199.2 587.063 2201.26 587.851 2201.66 587.457C2201.74 587.369 2201.57 583.254 2201.22 578.307C2200.87 573.404 2200.56 565.349 2200.56 560.402C2200.56 548.538 2201.31 542.103 2206.25 510.583C2210.41 483.966 2211.51 474.204 2211.51 463.215C2211.51 460.474 2211.57 458.436 2211.74 456.442ZM2000.09 678.164C2000.09 678.777 2000.17 678.996 2000.3 678.69C2000.39 678.427 2000.39 677.902 2000.3 677.595C2000.17 677.332 2000.09 677.551 2000.09 678.164Z" fill="black" fill-opacity="0.05"/>
<path d="M1607.79 708.056C1611.53 708.678 1615.33 709.37 1619.2 710.131C1619.85 710.258 1620.49 710.366 1621.11 710.457C1621.13 711.265 1621.15 712.122 1621.17 713.031C1621.3 719.381 1621.41 726.425 1621.48 730.84L1621.48 730.898L1621.5 731.718C1621.51 732.643 1621.53 733.417 1621.54 734.001L1621.59 739.993L1622.64 742.275C1623.21 743.502 1624.44 745.699 1625.35 747.126C1628.81 752.49 1629.61 754.858 1629.84 760.421L1630.01 764.302L1631.74 763.246C1639.16 758.738 1648.77 758.481 1659.69 762.561C1672.35 767.24 1679.97 776.199 1685.43 792.776C1688.13 800.965 1689.69 810.408 1690.06 820.737L1690.2 825.017L1689.69 823.59C1687.81 818.568 1684.69 814.603 1680.05 811.407C1677.01 809.324 1670.1 806.386 1660.38 803.076C1657.36 802.049 1654.83 801.193 1654.8 801.193C1654.75 801.193 1654.29 802.505 1653.81 804.103C1652.78 807.384 1650.88 812.206 1649.51 814.945C1648.29 817.399 1645.22 822.648 1645.11 822.506C1645.05 822.449 1645.14 821.964 1645.28 821.422C1645.68 820.081 1645.68 816.143 1645.25 814.46C1644.91 812.948 1643.37 809.638 1642.35 808.212C1641.04 806.3 1638.34 803.133 1634.73 799.224C1629.92 794.06 1628.22 791.892 1626.8 789.181C1625.12 785.957 1624.41 783.104 1624.41 779.509C1624.41 775.857 1625 773.26 1626.54 770.179C1627.9 767.469 1627.96 766.013 1626.97 762.048C1626.45 759.993 1625.91 758.738 1624.81 756.94C1623.98 755.628 1623.24 754.487 1623.16 754.401C1622.87 754.116 1623.36 786.642 1623.81 797.769C1624.41 812.349 1624.27 823.818 1623.38 830.438C1622.62 836.344 1622.33 847.442 1622.79 854.119C1622.99 856.772 1623.58 863.791 1624.15 869.668C1625.94 888.699 1625.72 899.826 1623.24 914.891C1622.82 917.456 1622.69 918.313 1623.03 918.599C1623.2 918.743 1623.49 918.743 1623.92 918.743C1626.37 918.743 1630.61 920.626 1633.39 922.965C1638.25 927.045 1640.39 931.839 1640.9 939.884C1641.3 946.076 1639.85 955.348 1637.49 961.682L1637.06 962.824V961.825C1637 960.284 1636.26 957.403 1635.5 955.891C1634.1 953.152 1631.35 950.441 1624.98 945.648C1623.41 944.449 1621.25 942.623 1620.17 941.596C1619.12 940.598 1618.21 939.827 1618.15 939.884C1618.1 939.941 1617.84 941.225 1617.55 942.709C1617.21 944.592 1617.07 946.818 1617.07 949.985C1617.07 955.12 1617.53 958.63 1619.57 969.814C1621.68 981.169 1621.71 981.426 1621.88 986.961C1622.08 993.153 1621.85 995.121 1620.2 1001.48C1619.26 1005.16 1619.09 1006.19 1619.23 1007.68C1619.37 1009.5 1620.17 1011.41 1621.19 1012.53C1621.51 1012.9 1621.71 1013.24 1621.62 1013.32C1621.31 1013.67 1618.46 1011.87 1617.53 1010.76C1616.5 1009.47 1615.45 1007.13 1615.39 1005.96C1615.39 1005.62 1615.19 1006.08 1614.97 1006.99C1613.92 1011.41 1610.82 1015.12 1606.18 1017.52C1601.21 1020.09 1596.94 1021.03 1590.4 1021C1586.68 1021 1585.62 1020.91 1583.72 1020.37C1579.17 1019.06 1575.93 1016.95 1573.54 1013.75C1572.8 1012.78 1572.2 1011.87 1572.2 1011.7C1572.2 1011.56 1573.54 1012.15 1575.19 1013.04C1579.34 1015.29 1581.61 1015.81 1584.77 1015.29C1586.08 1015.06 1586.16 1014.75 1584.94 1014.49C1584.43 1014.41 1582.95 1013.78 1581.61 1013.15C1577.04 1010.93 1573.23 1006.13 1572.54 1001.71C1571.78 996.805 1574.65 991.441 1579.25 989.158C1581.02 988.274 1581.36 988.217 1584 988.217C1590.49 988.217 1595.23 991.327 1595.23 995.606V997.062L1594.78 996.206C1594.13 994.95 1593.5 994.323 1592.48 993.895C1590.2 992.924 1585.25 993.866 1583.35 995.635C1582.33 996.548 1582.3 996.662 1582.3 998.545C1582.3 1000.14 1582.44 1000.8 1583.15 1002.17C1585.45 1006.73 1588.95 1008.67 1592.99 1007.62C1598.13 1006.31 1604.33 1000.86 1607.01 995.35C1610.08 988.959 1610.08 983.366 1607.03 965.82C1605.13 955.006 1604.62 950.698 1604.62 945.762C1604.62 938.486 1605.58 931.468 1608.31 918.6C1610.84 906.645 1611.73 900.825 1611.73 895.917C1611.73 893.35 1611.27 889.926 1610.9 889.555C1610.59 889.241 1607.86 892.351 1606.55 894.548C1604.73 897.544 1603.48 901.738 1603.48 904.99C1603.45 906.645 1603.11 906.16 1602.63 903.764C1602.14 901.453 1602.2 896.517 1602.74 893.977C1603 892.836 1604.02 889.755 1605.02 887.13C1609.62 875.061 1610.47 870.696 1610.79 857.971L1610.96 851.009L1609.14 852.664C1606.44 855.117 1603.71 856.801 1597.08 860.167C1584.17 866.673 1580.53 869.298 1577.52 874.291C1576.47 876.031 1575.07 879.968 1575.02 881.395C1574.96 882.707 1574.53 879.854 1574.19 875.689C1573.77 870.667 1573.97 860.396 1574.59 856.544C1576.44 845.046 1579.31 837.913 1584.12 832.777C1590.12 826.358 1599.87 822.335 1607.26 823.162C1608.46 823.305 1609.56 823.504 1609.71 823.562C1609.85 823.647 1610.05 822.42 1610.13 820.794C1610.25 819.196 1610.47 816.343 1610.67 814.46C1611.13 809.524 1611.1 791.549 1610.62 785.786C1610.33 782.562 1610.22 777.626 1610.25 770.094C1610.3 761.334 1610.22 758.624 1609.88 756.684C1608.88 751.063 1608.57 745.671 1608.6 733.659C1608.6 722.275 1608.32 713.276 1607.79 708.056Z" fill="black" fill-opacity="0.05"/>
<path d="M1423.96 767.944C1433.32 771.436 1442.82 775.799 1452.7 781.126C1453.35 779.728 1454.01 778.352 1454.67 776.998C1454.3 778.359 1453.82 779.995 1453.35 781.426C1451.52 787.067 1450.88 789.684 1450.3 793.785C1450.24 794.265 1450.17 794.75 1450.11 795.212C1450.02 795.899 1449.92 796.537 1449.85 797.035L1449.85 797.072L1449.84 797.094C1449.78 797.507 1449.74 797.818 1449.72 797.972C1449.63 798.437 1449.43 802.683 1449.28 807.423C1448.85 820.014 1448.38 821.555 1441.58 834.931C1439.29 839.41 1436.96 844.179 1436.41 845.545C1435.42 847.93 1434.03 853.222 1432.17 861.568C1429.73 872.443 1428.39 875.497 1421.3 885.994C1418.69 889.891 1416.45 893.235 1416.36 893.438C1416.22 893.671 1416.94 893.758 1419.12 893.787C1424.41 893.816 1426.91 894.805 1434.9 900.01C1445.1 906.669 1449.31 908.123 1454.51 906.786C1455.38 906.553 1456.14 906.408 1456.2 906.437C1456.37 906.611 1451.26 910.072 1448.38 911.729C1443.59 914.462 1437.2 916.847 1431.7 917.981C1429.58 918.417 1424.32 918.446 1422.58 918.01L1421.33 917.719L1421.51 918.475C1422.12 921.471 1422.35 926.036 1422.03 928.973C1420.69 940.866 1411.6 953.952 1396.84 965.06C1393.61 967.474 1387.92 971.196 1387.71 970.992C1387.66 970.963 1388.15 970.294 1388.79 969.509C1389.43 968.753 1390.36 967.328 1390.82 966.369C1394.25 959.593 1394.05 953.835 1389.75 934.672C1389.11 931.794 1388.41 927.926 1388.24 926.094C1388.03 924.262 1387.83 922.721 1387.8 922.663C1387.77 922.605 1386.38 923.361 1384.72 924.349C1380.83 926.676 1371.18 931.416 1366.18 933.451C1358.16 936.737 1351.13 938.86 1344.39 940.052C1341.78 940.517 1338.41 940.75 1328.7 941.07C1305.66 941.855 1299.88 941.651 1292.64 939.79C1279.92 936.533 1267.51 933.044 1262.6 931.328C1258.59 929.932 1253.24 927.17 1250.77 925.222C1248.33 923.332 1246.65 921.18 1242.7 915.044C1239.91 910.682 1238.16 908.908 1232.67 904.779C1224.94 898.963 1221.51 894.776 1215.76 884.191C1215.4 883.548 1215.05 882.907 1214.71 882.298L1214.69 882.266C1213.67 880.41 1212.8 878.855 1212.56 878.463L1211.95 877.503L1211.78 879.102C1211.58 880.644 1211.49 880.76 1209.75 882.156C1205.01 885.936 1199.95 887.826 1193.59 888.204C1188.77 888.466 1183.51 887.332 1178.54 884.889C1177.06 884.162 1173.14 881.807 1169.82 879.655C1153.73 869.128 1149.83 867.413 1142.6 867.732C1140.19 867.82 1138.59 868.052 1137.37 868.459C1136.41 868.808 1135.6 869.041 1135.57 868.983C1135.39 868.838 1141.93 864.272 1145.1 862.324C1151.37 858.456 1158.03 855.287 1163.58 853.571C1175.63 849.791 1185.51 849.878 1193.27 853.833C1194.09 854.24 1194.75 854.472 1194.75 854.385C1194.75 854.269 1194.29 853.571 1193.74 852.786C1191.99 850.343 1189.15 845.08 1184.93 836.531C1180.31 827.109 1180.28 827.051 1173.48 820.537C1171.1 818.269 1169.18 816.292 1169.18 816.175C1169.18 816.03 1169.65 816.117 1170.2 816.35C1171.89 817.048 1171.92 816.815 1170.35 815.39C1168.14 813.413 1166.98 811.494 1162.56 802.596C1159.48 796.408 1154.63 790.355 1150.26 784.901L1150.26 784.9C1145.76 779.282 1141.77 774.301 1140.75 770.465C1138.75 762.904 1136.04 753.454 1134.97 750.4C1132.91 744.439 1131.63 741.909 1125.18 731.208C1116.46 716.785 1113.82 711.638 1111.4 704.31C1108.96 696.924 1106.2 692.446 1097.34 681.657C1092.31 675.58 1088.28 670.2 1086.47 667.176C1083.8 662.756 1082.14 657.696 1079.73 646.414C1079.13 643.624 1078.6 641.238 1078.11 639.172C1089.32 649.247 1101.32 660.398 1114.2 672.626C1114.68 672.985 1115.15 673.342 1115.62 673.697C1118.46 680.263 1121.46 685.687 1125.19 691.136C1128.48 695.963 1129.49 698.376 1131.09 705.384C1134 718.15 1134.46 719.022 1144.46 729.956C1152.65 738.912 1153.2 739.93 1156.11 751.068C1156.89 754.034 1157.88 757.523 1158.32 758.773C1159.07 761.1 1170.32 782.211 1170.67 781.979C1170.78 781.92 1170.93 781.31 1171.04 780.641C1171.48 777.762 1173.86 771.132 1175.93 767.032C1177.9 763.164 1181.94 756.447 1182.17 756.68C1182.23 756.738 1182.11 757.145 1181.94 757.61C1181.74 758.076 1181.59 759.791 1181.59 761.507C1181.59 766.567 1182.49 768.573 1189.67 779.245C1195.45 787.852 1196.79 791.138 1196.79 796.663C1196.79 800.793 1194.87 806.23 1192.43 808.964C1191.38 810.156 1191.32 810.185 1189.44 810.185C1188.04 810.214 1187.52 810.301 1187.61 810.563C1187.69 810.767 1188.83 812.511 1190.16 814.489C1192.89 818.56 1195.68 824.463 1200.86 837.112C1202.66 841.503 1204.6 845.807 1205.16 846.679C1206.26 848.337 1208.32 850.663 1212.51 854.909C1216.05 858.514 1216.92 859.765 1220.96 866.947C1225.23 874.537 1225.76 875.293 1228.46 878.201C1231.28 881.225 1232.79 882.417 1233.14 881.865C1233.63 881.08 1233.4 878.783 1232.67 877.096C1232.26 876.165 1231.97 875.38 1232.03 875.293C1232.09 875.235 1232.82 875.787 1233.6 876.485C1235.43 878.143 1236.13 879.742 1237.09 884.337C1238.19 889.687 1239.18 891.054 1246.18 896.87C1250.83 900.737 1253.45 903.471 1254.49 905.535C1256.24 908.967 1258.56 911.816 1261.73 914.404C1264.98 917.051 1266.17 917.516 1271.78 918.388C1274.4 918.795 1277.24 919.319 1278.09 919.58C1280.15 920.162 1285.49 922.401 1290.78 924.873C1299.56 929.002 1301.13 929.293 1314.73 929.293C1325.51 929.293 1328.56 929.089 1332.19 928.101C1334.4 927.49 1337.13 926.21 1337.13 925.745C1337.13 925.164 1335.67 924.088 1334.66 923.884C1334.08 923.797 1332.68 923.768 1331.58 923.826C1329.83 923.971 1329.63 923.913 1330.07 923.593C1331.03 922.866 1334.34 921.994 1336.69 921.849C1337.97 921.761 1341.89 921.587 1345.41 921.441C1351.34 921.209 1352.06 921.122 1355.58 920.191C1362.75 918.272 1368.42 915.945 1374.49 912.427C1385.68 905.913 1394.77 897.073 1402.3 885.354C1406.28 879.161 1407.47 875.235 1408.6 864.447L1408.73 863.25C1409.3 857.852 1409.62 854.804 1410.37 851.868C1411.35 848.063 1413.06 844.445 1416.99 836.138L1417.76 834.524C1420.81 828.069 1422.03 824.928 1422.81 821.526C1423.54 818.298 1426.76 800.88 1427.23 797.623C1427.72 794.163 1427.4 786.98 1426.68 784.188C1426.36 782.996 1425.34 777.093 1424.44 771.103C1424.28 770.047 1424.12 768.985 1423.96 767.944Z" fill="black" fill-opacity="0.05"/>
<path d="M546.43 551.675C552.294 550.916 558.255 550.292 564.379 549.84C561.775 554.563 558.33 560.075 553.623 567.175L553.572 567.253C542.227 584.416 542.016 584.736 539.678 589.832C536.347 597.072 535.202 601.083 531.248 619.573C527.865 635.407 525.263 643.532 521.1 651.814C520.372 653.22 519.8 654.522 519.8 654.679C519.8 654.783 521.309 653.897 523.13 652.647C529.739 648.116 534.63 647.074 547.691 647.23C556.485 647.387 557.11 647.335 559.191 646.241C560.336 645.616 561.845 644.418 562.47 643.636L563.666 642.178L563.302 643.689C562.782 645.772 559.504 651.241 553.103 660.668C546.911 669.731 539.261 677.961 534.11 680.982C527.397 684.94 520.268 686.19 515.897 684.159C512.723 682.648 509.913 679.471 509.548 676.867L509.236 674.731L507.155 677.179C505.958 678.482 504.085 680.252 502.94 681.086C500.598 682.753 500.65 682.805 503.668 681.763C504.917 681.346 506.01 681.086 506.114 681.19C506.322 681.346 505.177 682.388 494.458 691.555C491.544 694.055 488.369 697.076 487.381 698.274C486.392 699.524 482.854 705.931 479.627 712.545C471.718 728.431 470.729 729.89 456.315 746.088C444.242 759.683 443.462 760.724 436.229 772.756C424.468 792.34 420.566 796.82 406.1 806.768C394.287 814.945 392.57 816.508 387.158 824.581C385.077 827.706 385.025 827.862 386.17 827.862C388.511 827.862 395.172 830.05 399.075 832.081C404.643 834.998 409.742 838.957 419.421 848.072C430.088 858.072 432.274 859.322 438.831 859.062C443.93 858.801 443.93 859.166 438.987 861.614C433.055 864.583 410.471 871.302 401.156 872.968C393.038 874.427 380.602 874.323 374.357 872.76C367.332 870.989 360.568 867.447 356.353 863.333C352.398 859.426 351.045 857.03 350.16 852.551C349.796 850.78 349.38 849.113 349.172 848.801C348.963 848.436 346.882 848.801 342.875 849.999C324.714 855.259 297.239 862.864 293.18 863.749C283.241 865.885 271.845 867.135 253.112 867.968C246.555 868.281 235.888 869.01 229.435 869.583C207.58 871.458 188.534 870.468 166.211 866.354C130.149 859.687 100.124 849.894 81.8073 838.748C74.8344 834.529 68.6421 829.894 55.6329 819.268C50.3252 814.945 43.7686 809.633 41.0106 807.445C31.1757 799.58 27.7413 794.997 17.9584 776.35C14.8882 770.464 11.714 764.839 10.9855 763.849C9.18371 761.405 5.50262 757.202 0.202969 751.551V662.35C5.04233 669.814 10.347 681.051 16.2412 697.128C18.1665 702.389 26.2843 720.983 29.4065 727.181C32.3205 733.119 35.911 737.651 48.5559 751.297C58.4949 762.026 60.004 764.631 65.4678 780.673C69.4747 792.34 70.3072 794.267 73.3774 798.747C78.7892 806.768 96.6898 820.206 112.405 828.123C132.179 838.071 153.618 843.957 178.856 846.353C187.181 847.134 188.691 847.134 199.67 846.353C210.806 845.519 222.723 845.519 225.012 846.301C225.585 846.509 225.168 846.196 224.127 845.624C217.415 841.873 215.333 830.154 219.392 818.8C223.243 808.122 230.892 797.965 239.478 792.288C245.567 788.225 253.32 785.309 266.017 782.288C278.35 779.371 281.628 778.121 284.958 775.1C286.519 773.642 288.497 771.298 289.329 769.839L290.838 767.183V769.839C290.838 771.298 290.162 774.892 289.329 777.913C287.04 785.986 280.847 804.007 278.454 809.528C277.049 812.706 276.58 814.476 276.945 814.581C279.442 815.414 292.764 817.602 295.262 817.602C298.436 817.602 302.547 816.247 304.472 814.477C306.397 812.706 305.825 814.216 303.379 817.237C298.904 822.706 284.282 835.467 276.58 840.623C265.913 847.707 254.517 851.092 246.035 849.634C244.214 849.322 240.259 849.009 237.241 848.957C233.442 848.905 231.204 848.592 229.852 848.019C227.614 847.03 222.15 846.874 218.508 847.707C216.374 848.176 213.824 849.895 213.824 850.832C213.824 851.822 221.838 853.02 230.216 853.228C237.345 853.436 242.548 853.176 257.015 851.874C281.264 849.686 285.479 848.697 302.287 841.561C317.013 835.311 322.997 833.331 334.289 830.988C342.095 829.425 345.581 828.435 348.339 827.081C353.126 824.737 360.151 818.643 363.013 814.32C367.54 807.393 368.841 806.091 377.063 799.945C390.749 789.684 391.738 788.486 393.09 780.308C393.923 774.892 394.651 773.016 396.421 771.402C397.722 770.204 397.097 769.527 394.756 769.527C392.882 769.527 388.823 765.777 386.95 762.339C380.654 750.724 384.556 733.432 396.993 717.754C400.219 713.691 412.5 701.451 417.808 696.972C422.231 693.274 426.758 690.878 424.156 693.638C423.584 694.263 422.543 695.982 421.919 697.389C420.254 701.035 420.41 705.826 422.543 716.921C424 724.681 424.26 727.234 424.312 733.848C424.312 740.619 424.156 742.182 423.116 745.568C419.161 758.016 410.054 768.589 402.041 769.943C400.063 770.308 399.803 770.568 399.179 772.391C398.658 773.954 398.658 774.735 399.127 775.881C399.439 776.663 399.855 777.34 400.011 777.34C401.052 777.34 405.891 773.485 409.326 769.891C413.593 765.412 417.444 759.943 422.023 751.766C424.885 746.713 427.018 744.37 439.819 732.13C445.543 726.661 446.22 725.463 453.453 708.066C461.727 688.169 462.455 686.867 475.1 670.825C484.727 658.533 487.069 654.991 492.845 643.897C498.204 633.532 502.784 625.25 508.247 616.031C509.965 613.114 511.526 610.302 511.682 609.781C511.838 609.26 512.827 600.666 513.815 590.666C515.845 570.769 516.469 567.175 518.759 562.487C520.372 559.154 522.297 557.539 524.743 557.539H526.148L524.691 559.206C522.505 561.81 519.8 567.904 519.8 570.196C519.8 574.988 522.558 575.613 527.501 571.863C532.216 568.302 541.414 558.381 546.43 551.675Z" fill="black" fill-opacity="0.05"/>
<path d="M2172.05 550.333C2172.97 542.803 2174.94 537.2 2179.72 528.751C2180.9 526.649 2181.91 524.942 2181.95 524.942C2181.99 524.942 2181.95 526.299 2181.82 527.963C2181.47 533.085 2183.53 537.462 2190.58 546.656C2197.93 556.199 2199.2 563.466 2195 571.74C2193.12 575.462 2192.28 575.943 2188.43 575.505C2181.16 574.674 2173.63 566.443 2172.05 557.775C2171.62 555.236 2171.62 553.748 2172.05 550.333Z" fill="black" fill-opacity="0.05"/>
<path d="M1275.96 882.766C1274.8 875.584 1274.57 871.949 1274.66 861.393L1274.69 856.159L1275.5 858.66C1277.77 865.755 1282.5 870.699 1291.07 875.002C1294.36 876.631 1299.06 878.666 1305.66 881.341C1316.18 885.587 1321.23 888.757 1325.77 893.933C1331.05 900.039 1333.55 907.047 1333.29 915.248C1333.18 919.609 1333.12 919.697 1330.3 921.558C1323.82 925.862 1315.42 926.472 1305.86 923.332C1296.07 920.133 1288.98 914.666 1284.27 906.757C1280.67 900.65 1277.33 890.996 1275.96 882.766Z" fill="black" fill-opacity="0.05"/>
<path fill-rule="evenodd" clip-rule="evenodd" d="M2.11614e-07 273.496C2.11614e-07 273.496 92.68 247.376 110.649 258.965C128.618 270.554 134.944 264.033 151.22 261.809C167.497 259.585 182.108 261.587 190.1 250.84C198.092 240.092 210.842 233.474 223.423 232.047C236.005 230.621 249.65 234.12 259.503 231.994C269.355 229.867 274.45 223.612 293.987 224.551C313.524 225.49 319.08 233.314 333.424 234.085C347.769 234.856 372.304 223.116 388.314 219.66C404.325 216.205 408.986 213.91 425.528 212.917C442.07 211.925 445.862 217.551 465.665 219.722C485.468 221.893 505.466 236.911 515.85 237.248C524.542 237.53 552.589 235.44 564.332 230.361L563.697 221.01L565.982 218.694C565.982 218.694 559.39 223.984 550.769 225.845C542.148 227.705 524.906 231.427 518.65 226.332C512.395 221.237 494.692 210.879 488.702 207.016C482.713 203.153 464.575 196.756 458.586 192.893C452.596 189.03 439.749 189.225 439.749 189.225C439.749 189.225 440.617 181.304 448.875 171.788C457.133 162.272 478.167 164.177 489.951 159.055C501.736 153.934 513.157 141.157 513.157 141.157L508.399 137.028C508.399 137.028 497.943 148.308 488.091 150.434C478.238 152.561 455.104 158.843 441.556 161.767C428.009 164.69 422.577 181.33 406.832 186.017C391.088 190.704 362.424 207.203 344.021 199.574C325.618 191.945 326.053 187.984 305.116 192.503C284.179 197.022 255.321 200.673 240.178 196.207C225.036 191.741 206.659 202.152 187.388 202.445C168.117 202.737 171.307 217.516 153.267 217.543C135.227 217.569 117.356 212.404 105.04 215.062C92.7243 217.72 0 224.436 0 224.436L2.11614e-07 273.496Z" fill="black" fill-opacity="0.05"/>
<path fill-rule="evenodd" clip-rule="evenodd" d="M447.228 162.1C447.228 162.1 429.078 145.244 434.509 128.99C439.94 112.736 446.983 95.3115 446.983 95.3115C446.983 95.3115 460.174 109.291 456.627 126.223C453.1 143.064 452.797 157.564 452.797 157.564C452.797 157.564 463.176 132.563 478.596 127.996C489.735 124.696 508.479 123.038 508.479 123.038C508.479 123.038 497.045 135.772 484.441 146.894C471.837 158.017 447.082 161.221 447.228 162.1Z" fill="black" fill-opacity="0.05"/>
<path fill-rule="evenodd" clip-rule="evenodd" d="M442.642 213.273C442.642 213.273 463.585 214.313 468.406 232.478C473.226 250.643 474.535 263.973 474.535 263.973C474.535 263.973 463.405 262.207 452.72 252.24C442.035 242.272 438.527 232.017 438.527 232.017C438.527 232.017 438.807 250.033 432.355 260.134C425.904 270.236 415.061 275.647 415.061 275.647C415.061 275.647 409.07 255.87 414.206 243.278C419.341 230.685 432.682 213.119 432.682 213.119L442.642 213.273Z" fill="black" fill-opacity="0.05"/>
<path fill-rule="evenodd" clip-rule="evenodd" d="M563.697 221.01C563.697 221.01 577.884 205.288 594.297 200.359C610.71 195.43 628.099 204.861 628.099 204.861C628.099 204.861 619.176 215.085 606.36 219.272C593.545 223.459 579.632 221.254 579.632 221.254C579.632 221.254 600.263 227.148 614.44 238.124C628.617 249.1 633.129 266.702 633.129 266.702C633.129 266.702 609.165 270.32 598.911 263.389C588.657 256.458 577.01 236.356 577.01 236.356C577.01 236.356 587.376 262.017 574.795 276.967C562.213 291.916 538.574 300.321 538.574 300.321C538.574 300.321 534.153 276.743 541.145 262.505C548.137 248.267 564.998 240.157 564.998 240.157L564.332 230.361L563.697 221.01Z" fill="black" fill-opacity="0.05"/>
</svg>
