<svg width="3011" height="1028" viewBox="0 0 3011 1028" fill="none" xmlns="http://www.w3.org/2000/svg">
<path d="M2837 508C2857.76 519.928 2864 556.626 2864 600.229C2864 600.229 2878.73 606.115 2886 609.317C2890.64 540.705 2862.67 507.666 2837 508Z" fill="black" fill-opacity="0.05"/>
<path fill-rule="evenodd" clip-rule="evenodd" d="M788.5 392.626C727.5 434.626 671 448.626 615.5 458.126C466.031 465.19 377.266 466.947 245.5 451.953C265.545 443.503 276.783 438.67 297 445C316.811 451.903 317.467 451.164 319 450C315.537 445.179 314.407 442.44 303.5 438C273.661 430.101 234.472 437.046 206 447.126C165.713 436.297 136.361 429.847 91 432C111.182 418.535 127.437 399.44 139 385.5C132.76 380.732 128.995 379.428 121.5 381C71.9498 421.377 46.0586 428.303 0.5 435.5V590C43.5 557.5 132 548.273 206 561.626C337.621 585.377 432.893 584.375 614 575.126C686 568.626 726.5 550.626 784.5 549.126C836.5 577.626 896.5 607.126 924 658.626C973 652.626 1009.5 672.126 1071 709.626C1092 689.5 1066 674.626 1172.5 681.626L1079 664.626C1041.5 664.626 1010.36 652.462 997 632.626C1019.5 628.626 1048 644.626 1087 639.626C1093.65 591.868 1107.51 579.874 1138.5 567.626C1145 565.057 1156 594.131 1170 593.126C1179 590.131 1154.5 570.963 1164 569.126C1195 563.131 1241 597.631 1320 672.626C1403 735.131 1389 753.131 1417.5 781.126C1526.43 756.519 1562.65 767.113 1636 777.985L1644 775.247L1531.5 729.631C1495.87 670.066 1474.23 637.205 1428 581.126C1542.5 529.631 1603.5 616.131 1710.5 677.626L1825 710.131C1875.65 720.075 1872.5 617.889 2029 552.131C2085.81 566.302 2119.66 580.391 2182 611.626C2331.5 605.626 2381 644.126 2490.5 657.126C2571.63 631.547 2604.21 664.432 2648.74 683.256C2642.5 683.995 2636.04 683.686 2629.56 690.542C2619.57 700.957 2614.96 718.236 2614.49 747.033L2614.12 766.63L2609.44 767.641C2600.08 769.795 2594.98 783.735 2599.65 794.725C2602.76 801.963 2616.57 818.396 2617.53 815.874C2620.97 806.715 2623.74 798.08 2623.77 795.947C2623.8 793.147 2623.94 793.016 2628.31 795.068C2633.61 797.665 2634.75 803.146 2635.11 828.352C2635.38 851.023 2635.23 851.822 2631.96 858.316C2627.18 867.593 2626.32 872.783 2628.23 880.14C2630.14 887.763 2630.14 887.763 2632.83 885.529C2634.72 883.951 2634.84 884.753 2634.06 894.477C2633.59 900.206 2632.36 913.658 2631.57 924.316C2629.4 949.359 2622.05 995.541 2621.62 986.602C2620.35 998.657 2621.44 1003.59 2626.15 1009.32L2632.58 1018.2L2638.87 1027.21L2641.21 1020.71C2645.35 1009.02 2645.85 1001.43 2642.86 994.59C2641.31 990.838 2638.94 987.742 2636.82 986.784C2633.9 985.415 2633.51 984.611 2634.21 981.819C2635.05 979.029 2640.59 950.026 2640.61 948.693C2640.61 948.56 2641.81 948.974 2643.26 949.791C2646.04 951.291 2662.84 952.159 2664.18 950.842C2664.59 950.446 2662.11 945.75 2658.58 940.374C2654.25 933.922 2650.57 929.877 2647.65 928.509L2643.27 926.457L2644.34 915.535C2644.97 907.142 2648.04 851.708 2648.6 837.981C2648.62 836.514 2650.22 836.266 2656.35 837.006C2660.61 837.591 2665.13 838.312 2666.32 838.859C2668.05 839.547 2668.59 838.886 2668.62 836.353C2668.7 829.554 2665.98 812.053 2664.04 807.096C2661.45 800.265 2655.38 795.258 2649.78 795.192C2646.18 795.148 2645.12 794.469 2643.83 790.987C2641.88 786.297 2635.54 781.687 2630.61 781.495C2624.48 781.288 2631.83 779.242 2641.71 778.427C2649.45 777.72 2650.79 777.336 2650.01 775.46C2649.5 774.12 2648.61 769.842 2647.73 765.832C2646.98 761.822 2645.69 757.807 2644.9 757.13C2643.98 756.319 2642.28 752.966 2641.13 749.352C2638.67 742.655 2636.03 740.357 2630.57 740.291C2626.57 740.243 2626.19 737.972 2628.73 726.668C2631.12 716.429 2634.67 709.271 2640.35 703.072C2650.48 692.126 2662.47 690.417 2685.5 693.626C2714 697.398 2724 649.626 2820 693.626C2883.52 718.058 2884 649 2884.5 638.625L2862.5 630.487C2859.5 689.5 2805.96 665.616 2766 660.126C2643.02 665.518 2626 658.126 2565.5 629.126C2511.6 632.333 2483.74 632.43 2459 618.626C2529.79 611.143 2570.99 608.955 2649.5 611.626C2698.31 568.714 2737.74 567.908 2833 614.626C2844.23 621.245 2853.94 626.509 2862.5 630.487L2884.5 638.625L2963.5 644.5L2910.5 627.626H2925.5C2911.65 621.3 2897.92 614.566 2886 609.317C2878.73 606.115 2864 600.229 2864 600.229C2864 600.229 2783.81 569.243 2735 556.626C2758 485.126 2770 476.626 2853.5 476.626L2840.5 463.126C2819.97 473.409 2805.44 476.073 2774.5 475.626C2781.5 452.126 2799.3 443.114 2855 441.626C2894 440.584 2915.44 442.203 2938 420.626C2936.93 415.458 2936.24 412.723 2934 409.626C2906.5 436.626 2877 416.626 2832 431.126C2853.05 395.626 2868.57 368.613 2866.29 345.5C2881.4 335.469 2890.06 327.336 2906 306L2895 300.5C2883.03 316.545 2875.39 322.6 2860 327.046C2855.88 320.361 2849.68 313.935 2841 307.626L2837 314.126C2876.5 344.626 2856.5 398.626 2816 412.126C2810.74 373.632 2813.39 352.157 2837 314.126L2841 307.626C2852.61 291.953 2860 284.126 2860 265.126L2846.5 280.126C2835.42 276.571 2838.54 256.03 2846 215.626C2836.86 230.954 2831.31 239.284 2829.5 259.126C2829.5 282.126 2841 296.126 2832.5 303.626C2816.65 297.292 2808.69 292.634 2796.5 282.126C2797.74 293.57 2799.36 299.926 2829.5 309.626C2811.93 335.92 2805.19 354.179 2797 391.126C2768.71 468.025 2753.5 470.626 2703.5 495.626C2570.5 548.626 2539 615.126 2480 576.626C2469.5 514.626 2497.2 474.79 2570.5 420.126C2536.5 418.126 2566 370.126 2635.5 380.626C2623 369.626 2600.5 374.126 2596.5 361.626C2626 326.126 2627 240.126 2598.5 192.626C2622.5 312.626 2579 385.626 2545.5 391.126C2527 387.126 2532.5 374.626 2525 342.626C2516.23 323.239 2508.5 316.626 2495 293.126C2493 334.126 2537.5 365.126 2529 415.126C2513.5 472.626 2490.8 457.626 2493 425.126C2493.2 422.133 2484.5 412.126 2482 428.126C2462 532.126 2452 591.126 2396.5 599.626C2366.5 591.626 2333 586.626 2278.5 584.126C2190 577.626 2194 534.126 2177 562.126C2156.14 556.365 2090.36 542.138 2077.5 523.865C2138.65 487.313 2213.09 440.183 2255 412.631C2272.81 389.895 2273.95 382.598 2266 375.631C2246.5 341.631 2266 289.131 2315.5 273.131C2320.55 258.039 2321.48 252.627 2321.5 245.631C2305 266.131 2275.27 267.131 2262.5 287.631C2243.5 318.131 2244.86 363.723 2231 381.631C2209.5 409.406 2194.84 390.115 2166.5 416.631C2104.5 474.631 2105 452.131 2052 472.131C1982.08 520.742 1934.85 559.192 1828.5 658.631C1810.5 647.131 1792.8 650.96 1758 658.631C1732 620.631 1667.58 607.126 1668.5 577.126C1673 430.631 1695.5 387.631 1757 361.631C1758.5 301.631 1788 288.131 1810.5 323.131C1816.36 326.427 1822.64 326.119 1828.5 323.131C1825 298.631 1841.39 289.437 1873 291.131C1908.17 243.432 1942.5 215.131 2022.5 160.631C2061.5 174.631 2173 175.631 2191 162.631C2116 162.631 2040.85 151.131 2044.5 134.631C2054 91.6309 2157 113.131 2125.5 38.1309C2075 96.6309 2031.21 95.1309 1950 186.131C1879.5 265.131 1792.5 288.131 1791 262.131C1791 229.631 1844 189.131 1818.5 162.631C1793.5 188.131 1797 220.631 1776 261.131C1746.5 295.131 1738.71 341.631 1729.5 348.131C1712.5 360.131 1697 354.131 1685.5 374.131C1649 437.631 1658 489.126 1605.5 510.131C1590 510.131 1580.5 493.131 1568 489.126C1468.5 517.131 1328 478.631 1255 490.126C1225.55 463.095 1186.82 451.739 1075 438.626C1089.5 433.631 1102.5 400.631 1112.5 353.131C1129 335.126 1151.03 334.545 1238.5 324.626C1427.5 266.631 1415.5 373.131 1485.5 380.131C1423.18 314.672 1383.5 280.631 1288 289.631C1296.1 259.958 1301.1 247.996 1311.5 246.626C1360 268.631 1410 257.631 1421.5 234.131C1394.5 251.131 1316.55 245.626 1320.5 224.631C1325 200.689 1363.16 178.131 1375 157.131C1383.76 141.584 1397.36 87.4855 1402 78.1296C1417 52.1309 1443.5 2.62025 1434 0.125831C1424.5 -2.36859 1396.48 32.6276 1389.5 69.1289C1379.26 122.629 1340.97 202.128 1299 219.125C1284.5 206.631 1263.56 203.87 1266 192.626C1272.5 162.631 1311.5 164.631 1311.5 132.626C1240 198.131 1202.83 238.626 1097.5 238.626C1103 281.131 1089.5 284.626 1091.5 329.126C1084.43 334.945 1068 336.532 1015.5 335.126C1015.5 314.626 1000.7 308.126 1001.5 296.626C1002.2 286.629 1001.5 279.5 987.5 284.626C987.5 298.126 996.5 315.126 1001.5 335.126C944.5 349.126 951.5 388.126 892.5 362.626C887 408.126 832.5 412.626 788.5 392.626ZM963.5 625.626C937 619.631 914 564.631 890 561.626L1117.5 554.626C1080.14 598.779 1068.56 611.906 1065 626.126C1028 623.626 1022.5 613.239 1001.5 613.626C983.188 613.963 978.5 618.131 963.5 625.626ZM1001.5 458.126H917C917 416.131 976.5 375.126 1034 375.126C1034 414.631 984 420.631 1001.5 458.126ZM1054 362.626H1080C1077 414.631 1048 421.131 1027.5 451.126C1006.5 413.631 1058 406.131 1054 362.626ZM1119.5 322.626C1124 319.631 1128 291.131 1136.5 259.126C1181 259.126 1217.5 222.626 1253 222.626C1268 222.626 1273.55 223.876 1286 234.126C1265.97 291.203 1228 306.131 1119.5 322.626ZM1389 607.126C1452.66 629.82 1478.62 662.844 1518.5 735.131H1455.5C1441.5 678.626 1374.5 662.131 1389 607.126ZM2614.5 585.126C2658.17 574.897 2684.61 562.389 2737 522.126C2697.5 506.126 2635.5 533.126 2614.5 585.126Z" fill="black" fill-opacity="0.05"/>
<path d="M1006.28 309.554C1003.46 305.213 1001.17 301.34 1001.5 296.627C1002.2 286.63 1001.5 279.501 987.5 284.627C987.5 287.198 987.827 289.897 988.39 292.72C985.057 298.641 980.15 305.633 971.969 305.214C962.989 304.755 948.173 290.54 943.225 270.013C941.485 262.796 940.968 254.799 942.35 246.346C945.54 255.469 947.541 259.774 950.101 263.463C953.897 268.932 965.741 276.189 968.135 272.981C969.513 271.135 966.402 269 962.071 266.028C958.878 263.836 955.022 261.19 951.813 257.868C947.519 253.425 945.217 248.689 943.174 242.222C943.632 240.264 944.189 238.286 944.865 236.29C946.161 232.461 947.327 228.326 948.51 224.133C948.719 223.389 948.93 222.642 949.142 221.896C949.258 221.485 949.375 221.074 949.493 220.663C949.558 220.434 949.624 220.204 949.69 219.975C949.751 219.763 949.812 219.551 949.873 219.339C950.128 220.388 950.39 221.445 950.661 222.507C952.573 229.975 954.868 237.519 957.102 241.772C962.208 251.492 976.639 259.068 978.34 257.348C979.413 256.264 975.675 252.061 970.981 246.782C968.23 243.689 965.151 240.226 962.52 236.806C958.056 231.005 954.064 223.738 951.255 214.713C953.26 208.301 955.583 202.203 958.806 197.369C959.414 196.456 960.036 195.573 960.664 194.704C961.667 201.307 963.062 207.716 964.027 212.012C964.098 212.328 964.176 212.645 964.26 212.961C966.892 222.782 976.009 232.865 978.145 231.086C979.672 229.815 975.03 220.271 970.901 211.783L970.898 211.776C969.068 208.014 967.339 204.459 966.294 201.925C965.047 198.902 964.294 194.835 964.012 190.35C976.485 175.168 990.97 167.757 993.951 167.505C996.212 167.314 1006.93 170.644 1019.32 178.11C1019.26 184.243 1019 190.205 1018.28 193.426C1017.37 197.474 1013.55 202.746 1010.15 207.437C1006.94 211.877 1004.1 215.797 1004.46 217.666C1004.51 217.922 1004.62 218.14 1004.8 218.315C1007.63 221.117 1019.22 206.759 1022.56 198.817C1024.23 194.832 1024.81 188.623 1024.79 181.621C1029.37 184.743 1034.04 188.413 1038.48 192.657C1038.31 201.252 1036.24 209.495 1032.96 215.824C1030.49 220.591 1024.28 227.045 1019.01 232.53C1014.26 237.469 1010.27 241.622 1010.44 243.049C1010.45 243.146 1010.48 243.231 1010.53 243.302C1012.17 245.582 1024.65 235.804 1034.47 223.978C1040.67 216.528 1043.03 207.741 1042.56 196.794C1048.4 203.098 1053.64 210.496 1057.45 219.065C1053.94 226.134 1046.93 239.292 1040.77 244.846C1037.1 248.147 1031.78 251.348 1026.97 254.239C1020.49 258.135 1014.94 261.468 1015.66 263.724C1016.48 266.283 1030.49 262.025 1045.09 249.545C1050.08 245.277 1055.62 235.204 1060.27 226.444C1060.51 227.206 1060.75 227.975 1060.97 228.754C1064.24 240.203 1064.98 252.256 1064.02 263.528C1058.36 269.11 1052.33 274.3 1047.84 276.174C1043.01 278.19 1036.89 278.72 1031.36 279.199C1023.91 279.843 1017.53 280.395 1016.84 284.366C1016.8 284.648 1016.82 284.928 1016.92 285.205C1018.36 289.359 1035.58 292.689 1053.27 286.102C1055.8 285.16 1058.3 283.799 1060.75 282.168C1056.48 297.906 1049.08 309.615 1041.83 311.696C1025.93 316.259 1014.41 315.831 1006.28 309.554Z" fill="black" fill-opacity="0.05"/>
<path fill-rule="evenodd" clip-rule="evenodd" d="M1691.36 366.301C1689.31 368.358 1687.35 370.907 1685.5 374.131C1679.61 384.374 1674.91 394.305 1670.94 403.846C1671.56 392.573 1673.88 381.961 1676.09 371.878C1680.51 351.651 1684.47 333.558 1673.31 316.547C1673 318.077 1672.74 319.488 1672.49 320.808L1672.49 320.811L1672.49 320.813L1672.49 320.814C1671.95 323.717 1671.5 326.185 1670.78 328.543C1663.73 351.775 1641.83 364.79 1617.51 359.78C1596.1 355.41 1580.53 341.603 1564.71 327.196C1569.41 326.123 1574.04 325.083 1578.61 324.055L1578.62 324.054L1578.65 324.046C1589.46 321.616 1599.97 319.255 1610.46 316.691C1615.66 315.45 1620.72 313.459 1625.64 311.287C1627.11 310.674 1628.99 308.169 1628.76 306.84C1628.54 305.511 1626.16 303.889 1624.42 303.571C1621.89 303.065 1618.97 303.073 1616.39 303.535C1600.05 306.672 1583.79 309.82 1567.56 313.378C1557.69 315.527 1553.14 313.203 1549.05 303.88C1546.45 297.899 1543.47 292.083 1540.49 286.266C1539 283.358 1537.51 280.449 1536.07 277.52C1535.78 276.944 1535.46 276.369 1535.14 275.79C1534.24 274.182 1533.33 272.546 1533.09 270.783C1531.39 258.782 1526.14 249.057 1515.64 242.11C1530.45 247.777 1545.57 251.211 1561.24 250.012C1570.34 249.302 1579.51 247.544 1588.36 245.175C1591.35 244.363 1594.06 242.495 1597.17 240.357C1598.62 239.36 1600.16 238.303 1601.85 237.268C1591.47 231.399 1581.87 231.36 1572.44 231.322C1571.39 231.318 1570.34 231.313 1569.3 231.301C1565.89 231.26 1562.49 231.346 1559.09 231.431C1555.3 231.526 1551.51 231.622 1547.76 231.539C1527.68 231.164 1519.6 219.514 1526.3 200.698C1527.62 196.901 1529.27 193.147 1531.05 189.574C1536.9 177.624 1537.95 165.103 1535.93 153.707C1539.17 153.558 1542.4 153.422 1545.63 153.286L1545.65 153.285C1553.06 152.974 1560.44 152.663 1567.79 152.193C1578.77 151.493 1584.36 155.095 1587.14 165.701C1588.57 171.144 1589.86 176.634 1591.16 182.133L1591.16 182.141L1591.16 182.15L1591.16 182.158C1592.39 187.365 1593.62 192.58 1594.96 197.772C1595.01 197.962 1595.06 198.156 1595.1 198.354C1595.15 198.528 1595.19 198.705 1595.23 198.883C1595.27 199.039 1595.3 199.197 1595.34 199.355C1596.31 203.574 1597.48 208.678 1602.8 207.605C1608.52 206.499 1607.76 200.667 1607.16 196.072C1607.11 195.716 1607.07 195.367 1607.02 195.028C1605.33 181.81 1600.29 169.922 1592.15 159.319C1591.19 158.179 1589.92 157.231 1588.56 156.207C1587.95 155.748 1587.32 155.274 1586.68 154.76C1610.25 142.052 1638.1 158.664 1638.67 184.392C1638.84 192.434 1637.13 200.564 1635.44 208.62C1634.95 210.921 1634.47 213.217 1634.03 215.502C1632.65 222.701 1632.16 229.291 1638.6 235.038C1644.23 231.825 1646.8 226.655 1647.74 220.938C1651 201.736 1651.99 182.55 1644.02 162.958C1657.98 167.129 1670.3 172.619 1679.2 183.001C1682.34 186.756 1683.05 193.509 1683.05 198.867C1683.05 216.806 1678.1 233.505 1667.57 248.229L1667.48 248.355L1667.39 248.481C1667.32 248.58 1667.24 248.679 1667.17 248.779C1666.07 250.246 1664.9 251.817 1664.66 253.516C1664.41 255.396 1664.67 257.347 1664.94 259.331C1665.04 260.039 1665.13 260.75 1665.21 261.464C1666.12 261.251 1667.16 261.139 1668.2 261.027C1670.42 260.789 1672.62 260.552 1673.45 259.337C1676.8 254.434 1679.9 248.93 1681.32 243.278C1682.75 237.536 1683.7 231.647 1684.64 225.755C1685.33 221.415 1686.03 217.073 1686.92 212.787C1687.55 209.707 1688.62 206.686 1689.69 203.665C1690.26 202.038 1690.84 200.412 1691.34 198.776L1691.35 198.775L1691.35 198.773C1692.21 198.404 1693.07 198.035 1693.94 197.587C1694.03 197.866 1694.12 198.15 1694.21 198.434C1694.23 198.506 1694.25 198.578 1694.27 198.649C1694.33 198.846 1694.39 199.044 1694.44 199.241L1694.44 199.251C1694.78 200.43 1695.11 201.599 1695.69 202.614C1698.25 207.205 1700.89 211.762 1703.54 216.322L1703.55 216.33C1708.8 225.378 1714.06 234.44 1718.67 243.808C1724.65 255.905 1727.11 268.902 1722.75 282.435C1717.18 299.537 1706.47 307.254 1688.48 306.433C1684.91 306.274 1681.39 305.721 1677.42 305.096C1675.47 304.789 1673.41 304.465 1671.18 304.162C1697.86 315.411 1695.57 342.958 1691.36 366.301ZM1605.8 272.825C1605.9 273.271 1606.01 273.729 1606.08 274.21C1596.4 279.793 1585.7 280.856 1574.73 280.908C1574.65 280.328 1574.56 279.828 1574.39 279.238C1579.59 277.997 1584.79 276.775 1589.99 275.554C1595.19 274.333 1600.39 273.111 1605.59 271.87C1605.62 272.023 1605.65 272.177 1605.69 272.332C1605.72 272.494 1605.76 272.656 1605.8 272.82L1605.8 272.825Z" fill="black" fill-opacity="0.05"/>
<path d="M2631.47 380.077C2632.8 380.238 2634.14 380.421 2635.5 380.626C2632.63 378.102 2629.24 376.394 2625.66 375.109C2627.88 375.082 2630.1 375.295 2632.33 375.508C2636.08 375.866 2639.82 376.224 2643.53 375.441C2646.04 374.906 2651 373.499 2649.93 370.37C2649.58 369.477 2648.98 368.707 2648.19 368.157C2647.41 367.606 2646.48 367.301 2645.52 367.28C2644.27 367.324 2642.9 367.421 2641.47 367.522L2641.46 367.523C2632.31 368.172 2620.53 369.006 2619.54 357.546C2618.9 350.183 2624.47 342.429 2629.26 337.409C2630.93 335.748 2633.05 334.617 2635.36 334.157C2635.57 340.902 2637.25 347.887 2643.24 351.786C2643.95 352.34 2644.8 352.697 2645.69 352.822C2646.59 352.947 2647.5 352.835 2648.33 352.498C2648.76 352.289 2649.11 351.955 2649.34 351.541C2649.57 351.127 2649.67 350.653 2649.63 350.181C2649.73 348.792 2649.45 347.402 2648.8 346.169C2647.2 343.958 2645.53 341.822 2643.86 339.685L2643.85 339.684C2641.82 337.082 2639.78 334.479 2637.88 331.742C2637.6 331.281 2637.46 330.746 2637.48 330.207C2637.5 329.667 2637.69 329.147 2638 328.711C2639.17 327.298 2640.65 326.188 2642.33 325.473C2647.54 323.034 2652.97 321.106 2658.56 319.716C2659.26 319.648 2659.97 319.731 2660.65 319.96C2660.66 320.202 2660.7 320.449 2660.74 320.696C2660.82 321.197 2660.91 321.699 2660.75 322.165C2658.71 328.077 2657.39 335.255 2658.53 341.56C2658.91 343.059 2659.46 344.508 2660.18 345.875C2660.7 347.077 2662.42 346.758 2663.14 346.368C2664.21 345.694 2665.07 344.735 2665.62 343.598C2666.18 342.462 2666.41 341.193 2666.28 339.934C2665.92 337.695 2665.44 335.466 2664.97 333.24C2664.07 329.042 2663.18 324.851 2663.05 320.611C2662.96 317.936 2665.7 315.869 2668.09 315.742C2669.95 315.641 2671.82 315.561 2673.7 315.48L2673.7 315.48C2678.47 315.276 2683.25 315.07 2687.98 314.533C2688.35 316.632 2688.02 318.791 2687.04 320.681C2685.56 322.982 2683.99 325.226 2682.41 327.466C2680.62 330.014 2678.83 332.558 2677.2 335.18C2676.7 336.456 2676.51 337.829 2676.63 339.192C2676.57 340.858 2677.76 341.568 2678.78 342.176L2678.84 342.213C2681.08 340.697 2682.98 338.735 2684.43 336.45C2686.61 332.9 2687.93 329.149 2689.25 325.411C2690.26 322.544 2691.27 319.686 2692.65 316.931C2693.29 316.782 2693.94 316.702 2694.59 316.694C2699.11 317.086 2705.95 318.731 2708.93 322.35C2709.31 322.874 2709.56 323.48 2709.66 324.12C2705.62 327.936 2701.67 331.867 2697.76 335.83C2697.44 336.129 2697.18 336.495 2697.01 336.903C2696.84 337.312 2696.76 337.752 2696.78 338.194C2696.8 338.636 2696.91 339.069 2697.12 339.462C2697.32 339.856 2697.6 340.201 2697.95 340.473C2699.7 341.655 2702.5 339.3 2703.48 338.119C2706.87 334.08 2709.84 329.705 2712.34 325.063C2712.63 324.431 2713.14 323.928 2713.78 323.651C2714.42 323.374 2715.13 323.343 2715.79 323.564C2716.18 323.678 2716.57 323.793 2716.96 323.908C2721.3 325.188 2725.48 326.421 2730.16 325.751C2727.25 332.315 2725.64 339.383 2725.43 346.562C2725.5 347.04 2725.4 347.526 2725.15 347.938C2724.9 348.351 2724.51 348.664 2724.06 348.826C2720.4 350.494 2715.72 350.508 2711.33 350.522C2709.71 350.526 2708.12 350.531 2706.64 350.62C2706 350.754 2705.43 351.128 2705.05 351.666C2704.68 352.204 2704.52 352.866 2704.62 353.515C2704.79 353.602 2704.95 353.687 2705.1 353.768C2707.17 354.852 2708.26 355.426 2710.89 355.121C2715.78 354.504 2720.53 353.041 2724.93 350.798C2726.67 357.176 2726.34 364.394 2722.46 369.86C2721.06 371.827 2718.05 371.877 2716.14 371.044C2715.02 370.558 2713.61 369.713 2712.05 368.779C2706.41 365.404 2698.82 360.857 2695.83 367.761C2695.75 368.209 2695.79 368.674 2695.96 369.097C2696.13 369.521 2696.43 369.886 2696.8 370.146C2703.86 374.477 2712.61 373.616 2720.43 372.606C2721.43 372.524 2722.44 372.555 2723.43 372.7C2722.62 376.99 2719.96 380.657 2717.4 384.18L2717.4 384.182C2716.95 384.795 2716.51 385.404 2716.08 386.011C2714.3 388.547 2710.18 388.708 2707.57 387.531C2704.07 385.957 2700.77 383.124 2697.61 380.419C2696.24 379.238 2694.89 378.082 2693.56 377.066C2692.48 376.428 2691.28 376.025 2690.04 375.884C2689.6 375.808 2689.14 375.905 2688.78 376.155C2688.41 376.406 2688.15 376.789 2688.06 377.225C2686.92 381.298 2690.64 384.804 2693.76 386.689C2698.54 389.586 2704.8 392.187 2710.49 391.244C2710.67 395.999 2705.05 400.212 2701.04 401.964C2700.11 402.385 2699.09 402.602 2698.06 402.599C2697.03 402.596 2696.01 402.373 2695.07 401.946C2690.74 399.954 2687.88 395.343 2685.14 390.919C2683.74 388.66 2682.37 386.45 2680.85 384.663C2679.64 383.233 2678.46 383.538 2677.08 383.894L2677.08 383.894L2677.08 383.895L2677.07 383.896L2677.07 383.896L2677.07 383.897L2677.07 383.898L2677.07 383.898L2677.06 383.898L2677.06 383.899L2677.06 383.899C2676.88 383.946 2676.69 383.994 2676.5 384.038C2674.82 387.868 2677.05 392.023 2679.4 394.991C2683.14 399.613 2688.8 402.295 2694.16 404.544C2695.22 404.994 2695.8 405.415 2694.77 405.965C2687.86 409.61 2676.59 414.46 2670.61 406.134C2668.12 402.669 2667.38 397.047 2666.76 392.32C2666.6 391.12 2666.45 389.977 2666.28 388.942C2665.96 386.963 2664.06 384.968 2662.58 383.778C2662.16 383.505 2661.66 383.393 2661.16 383.462C2660.22 385.228 2659.99 387.287 2660.51 389.219C2661.08 391.479 2662.74 394.191 2664.48 397.022C2667.69 402.261 2671.16 407.904 2668.37 411.832C2666.31 414.731 2659.06 413.37 2656.39 412.732C2649.35 411.065 2642.47 407.396 2639.35 400.496C2635.42 391.75 2643.89 382.255 2650.32 377.492C2651.55 376.587 2652.58 375.088 2651.16 375.64C2648.63 376.615 2646.76 377.535 2645.17 378.316C2640.98 380.375 2638.75 381.475 2631.5 380.091L2631.47 380.077Z" fill="black" fill-opacity="0.05"/>
<path d="M2893.82 321.386C2897.5 317.098 2901.45 312.086 2906 306.001L2895 300.501C2890.32 306.771 2886.31 311.516 2882.23 315.236C2870.4 305.184 2863.85 291.714 2866.87 274.993C2881.13 281.205 2897.65 284.983 2898.61 281.941C2899.25 279.911 2893.55 276.793 2885.83 272.568C2881.08 269.971 2875.57 266.955 2870.3 263.516C2871.63 260.256 2873.31 256.892 2875.35 253.426C2877.3 250.127 2879.5 246.867 2881.9 243.686C2889.21 251.274 2897.19 258.273 2901.72 260.949C2903.61 262.064 2904.9 262.429 2905.29 261.772C2906.12 260.352 2902.96 256.114 2898.55 250.212C2895.47 246.09 2891.78 241.157 2888.43 235.805C2892.2 231.634 2896.28 227.693 2900.55 224.091C2906.55 234.382 2913.67 243.707 2917.36 246.145C2918.32 246.78 2919.05 246.949 2919.47 246.545C2921.18 244.882 2918.64 239.538 2913.75 229.279C2912.2 226.022 2910.42 222.269 2908.45 217.981C2913.23 214.61 2918.13 211.7 2923.01 209.42C2926.53 218.927 2930.29 226.611 2932.81 228.078C2933.26 228.342 2933.68 228.406 2934.04 228.238C2936.64 227.046 2934.08 220.881 2930.47 212.183C2929.81 210.587 2929.11 208.905 2928.4 207.153C2931.95 205.831 2935.02 204.151 2937.82 202.617L2937.82 202.617C2943.99 199.24 2948.86 196.575 2954.64 200.018C2960.99 203.8 2969.67 217.723 2972.14 225.895C2967.12 228.753 2961.99 230.917 2958.09 232.558C2953.83 234.359 2951.05 235.53 2951.54 236.295C2951.59 236.367 2951.66 236.435 2951.74 236.497C2953.46 237.748 2962.98 236.996 2973.43 231.105C2974.76 237.781 2975.07 245.255 2974.5 253.023C2968.75 252.908 2963.47 252.381 2959.09 251.943C2952.34 251.269 2947.72 250.808 2946.79 252.4C2946.51 252.86 2946.9 253.384 2947.81 253.943C2951.3 256.078 2962.42 258.727 2973.72 260.303C2972.81 266.746 2971.35 273.274 2969.39 279.624C2957.6 276.775 2950.37 273.161 2945.81 270.881C2941.82 268.886 2939.87 267.911 2938.69 269.356C2937.63 270.65 2941.04 273.54 2946.54 276.815C2952.05 280.101 2959.67 283.763 2967 286.597C2965.32 291.052 2963.41 295.359 2961.26 299.415C2958.15 297.877 2955.38 296.505 2952.92 295.285L2952.92 295.284L2952.87 295.261C2933.59 285.7 2933.19 285.504 2930.81 288.339C2928.82 290.707 2941 302.619 2954.28 310.524L2954.29 310.53L2954.3 310.535L2954.31 310.542C2950.97 315.045 2947.45 318.704 2943.79 321.595C2936.15 317.216 2929.3 312.14 2923.96 308.175C2917.89 303.667 2913.75 300.596 2912.57 301.621C2910.53 303.396 2919.16 315.963 2933.79 327.524C2922.67 332.121 2905.73 327.586 2894.23 322.515C2893.88 322.362 2893.76 321.964 2893.82 321.386Z" fill="black" fill-opacity="0.05"/>
<path d="M2915.85 435.148C2923.54 432.147 2930.71 427.597 2938 420.626C2936.93 415.459 2936.24 412.724 2934 409.626C2925.1 418.364 2915.99 422.179 2906.22 423.835C2905.99 423.554 2905.76 423.266 2905.53 422.972C2898.77 414.48 2887.83 400.75 2901.89 381.943C2905.27 401.084 2918.54 413.095 2923.17 410.955C2923.28 410.906 2923.38 410.85 2923.47 410.786C2925.48 409.463 2924.02 406.852 2921.63 402.589C2918 396.09 2912.22 385.751 2913.29 370.283C2914.56 369.227 2915.9 368.159 2917.33 367.077C2922.84 362.918 2928.6 359.976 2934.44 357.988C2931.84 378.217 2934.71 403.391 2937.14 402.039C2938.3 401.393 2938.36 398.624 2938.47 393.121C2938.63 385.902 2938.87 373.977 2941.84 355.968C2947.98 354.689 2954.12 354.345 2960.04 354.656C2949.77 373.579 2949.94 395.778 2952.31 395.187C2952.36 395.175 2952.41 395.154 2952.46 395.125C2953.36 394.591 2954.35 391.292 2955.81 386.42C2958.17 378.544 2961.76 366.556 2968.19 355.49C2972.45 356.136 2976.52 357.082 2980.33 358.194C2970.52 370.667 2968.19 385.622 2970.99 385.465C2971.12 385.458 2971.25 385.421 2971.39 385.357C2972.74 384.738 2974.7 381.54 2977.35 377.219C2980.23 372.511 2983.93 366.471 2988.55 360.982C2998.99 365.042 3006.22 369.89 3007.55 371.944C3010.28 376.189 3013.6 382.022 3005.27 400.482C2998.66 403.011 2992.02 404.568 2986.67 405.824C2979.44 407.518 2974.55 408.666 2975.19 410.911C2976.14 414.198 2989.05 411.646 3002.52 406.194C3000.55 410.063 2998.13 414.411 2995.21 419.279C2989.42 419.906 2983.29 420.136 2977.76 420.343C2967.55 420.726 2959.38 421.033 2959.16 423.622C2958.86 427.218 2974 427.466 2991.41 425.443C2987.02 432.271 2982 437.92 2976.61 442.309C2974.5 441.791 2972.39 441.25 2970.37 440.728C2961.26 438.384 2953.67 436.431 2953.52 438.717C2953.36 441.066 2960.81 444.374 2970.21 446.821C2968.46 447.88 2966.67 448.819 2964.87 449.627C2948.06 457.149 2929.53 453.631 2915.32 437.117C2914.97 436.713 2915.22 436.023 2915.85 435.148Z" fill="black" fill-opacity="0.05"/>
<path d="M2735.11 676.469C2738.27 675.806 2741.66 675.317 2745.34 675.068C2745.06 676.668 2744.86 677.976 2744.82 678.592C2744.5 682.118 2744.57 689.138 2744.98 698.271C2745.39 706.949 2745.34 710.856 2744.8 714.949C2744.62 716.362 2744.65 718.323 2744.97 724.651C2745.23 730.092 2745.31 733.663 2745.21 736.001C2745.05 740.181 2745.61 753.17 2746.1 756.722C2746.3 758.076 2746.56 760.131 2746.69 761.281C2746.8 762.454 2746.99 763.334 2747.09 763.267C2747.19 763.222 2747.98 763.042 2748.83 762.9C2754.13 762.064 2761.28 764.657 2765.8 769.103C2769.42 772.659 2771.72 777.721 2773.42 785.97C2774 788.733 2774.47 796.148 2774.33 799.79C2774.22 802.811 2774 804.886 2773.92 803.94C2773.83 802.911 2772.7 800.111 2771.89 798.887C2769.56 795.376 2766.85 793.597 2757.35 789.311C2752.48 787.092 2750.46 785.963 2748.44 784.277L2747.07 783.14L2747.42 788.165C2748.06 797.35 2748.81 800.476 2752.52 809.049C2753.32 810.913 2754.15 813.107 2754.37 813.923C2754.85 815.741 2755.05 819.305 2754.77 820.991C2754.5 822.738 2754.27 823.1 2754.2 821.905C2754.09 819.555 2753.06 816.564 2751.65 814.458C2750.64 812.913 2748.57 810.754 2748.36 810.99C2748.11 811.27 2747.89 813.759 2747.97 815.614C2748.13 819.16 2748.95 823.337 2751.16 831.894C2753.54 841.104 2754.46 846.144 2754.7 851.401C2754.86 854.968 2754.63 858.098 2753.61 865.972C2751.98 878.749 2752.16 882.79 2754.58 887.309C2756.68 891.202 2761.32 894.94 2765.06 895.723C2768 896.355 2770.46 894.841 2771.97 891.468C2772.44 890.456 2772.52 889.977 2772.46 888.823C2772.4 887.462 2772.38 887.381 2771.61 886.754C2770.19 885.537 2766.59 885.016 2764.99 885.79C2764.27 886.132 2763.84 886.606 2763.41 887.534L2763.11 888.167L2763.06 887.116C2762.92 884.023 2766.24 881.623 2770.9 881.415C2772.81 881.33 2773.05 881.36 2774.35 881.942C2777.74 883.443 2779.98 887.227 2779.59 890.797C2779.24 894.015 2776.65 897.601 2773.43 899.356C2772.49 899.853 2771.44 900.354 2771.08 900.432C2770.21 900.657 2770.28 900.881 2771.23 901.004C2773.51 901.273 2775.13 900.829 2778.05 899.067C2779.21 898.375 2780.15 897.899 2780.15 898.002C2780.16 898.126 2779.76 898.805 2779.26 899.529C2777.64 901.915 2775.38 903.545 2772.15 904.64C2770.79 905.093 2770.04 905.188 2767.36 905.308C2762.65 905.539 2759.55 904.996 2755.89 903.301C2752.48 901.718 2750.13 899.138 2749.23 895.976C2749.03 895.324 2748.88 895 2748.89 895.248C2748.88 896.095 2748.2 897.819 2747.51 898.78C2746.87 899.614 2744.88 901.004 2744.64 900.767C2744.58 900.708 2744.71 900.454 2744.93 900.176C2745.63 899.339 2746.14 897.932 2746.18 896.608C2746.23 895.532 2746.08 894.795 2745.28 892.166C2743.89 887.621 2743.66 886.206 2743.61 881.726C2743.55 877.721 2743.56 877.535 2744.71 869.262C2745.82 861.115 2746.04 858.564 2745.87 854.853C2745.77 852.565 2745.59 850.961 2745.29 849.612C2745.04 848.549 2744.81 847.63 2744.77 847.59C2744.72 847.551 2744.09 848.137 2743.37 848.892C2742.63 849.669 2741.13 851.058 2740.04 851.974C2735.61 855.642 2733.72 857.69 2732.8 859.714C2732.3 860.831 2731.86 862.937 2731.87 864.052L2731.9 864.774L2731.56 863.963C2729.66 859.462 2728.31 852.808 2728.4 848.322C2728.51 842.492 2729.89 838.96 2733.25 835.855C2735.18 834.075 2738.17 832.578 2739.93 832.499C2740.87 832.457 2740.87 832.457 2740.3 829.696L2740.3 829.694C2738.03 818.889 2737.51 810.856 2738.18 797.047C2738.4 792.782 2738.6 787.692 2738.66 785.768C2738.77 780.929 2738.21 772.919 2737.47 768.676C2736.62 763.921 2736.15 755.638 2736.1 745.084C2736.07 737.03 2735.37 713.512 2735.17 713.727C2735.12 713.792 2734.62 714.64 2734.07 715.615C2733.33 716.95 2732.98 717.874 2732.68 719.375C2732.09 722.273 2732.18 723.322 2733.25 725.237C2734.45 727.414 2734.97 729.271 2735.09 731.909C2735.2 734.507 2734.78 736.592 2733.68 738.975C2732.74 740.979 2731.59 742.601 2728.29 746.487C2725.82 749.428 2723.98 751.803 2723.1 753.226C2722.41 754.29 2721.41 756.731 2721.22 757.834C2720.96 759.065 2721.09 761.909 2721.42 762.866C2721.54 763.253 2721.62 763.6 2721.58 763.644C2721.5 763.75 2719.12 760.056 2718.16 758.322C2717.09 756.387 2715.57 752.964 2714.72 750.626C2714.32 749.487 2713.95 748.554 2713.91 748.555C2713.89 748.556 2712.1 749.256 2709.96 750.095C2703.07 752.8 2698.19 755.145 2696.07 756.748C2692.84 759.206 2690.72 762.173 2689.53 765.861L2689.21 766.909L2689.17 763.812C2689.1 756.337 2689.92 749.463 2691.6 743.459C2695 731.306 2700.19 724.587 2709.15 720.799C2716.87 717.5 2723.79 717.376 2729.28 720.394L2730.56 721.101L2730.56 718.292C2730.54 714.265 2731.04 712.528 2733.36 708.541C2733.97 707.481 2734.78 705.854 2735.15 704.949L2735.83 703.266L2735.68 698.935C2735.67 698.397 2735.65 697.638 2735.62 696.715L2735.62 696.703C2735.53 693.515 2735.38 688.389 2735.27 683.77C2735.19 680.529 2735.14 678.205 2735.11 676.469Z" fill="black" fill-opacity="0.05"/>
<path fill-rule="evenodd" clip-rule="evenodd" d="M2470.12 654.327C2476.69 655.353 2483.47 656.292 2490.5 657.126C2491.68 656.754 2492.85 656.394 2494.01 656.046C2494.41 656.101 2494.65 656.14 2494.72 656.159C2499.9 657.689 2506.85 670.031 2507.5 674.666C2515.54 657.72 2534.99 650.92 2552.47 656.159C2557.53 657.682 2562.17 660.97 2566.6 664.113L2566.6 664.118L2566.6 664.118C2567.9 665.038 2569.18 665.945 2570.45 666.792C2571.8 667.619 2572.92 668.775 2573.71 670.151C2574.5 671.528 2574.92 673.08 2574.95 674.666C2574.56 685.249 2560.31 688.688 2549.12 691.389C2545.53 692.256 2542.26 693.047 2539.85 693.974C2535.97 695.481 2531.71 699.598 2531.17 703.777C2531.04 704.791 2531.2 706.719 2531.98 707.329C2532.6 707.816 2533.34 708.128 2534.12 708.235C2534.91 708.342 2535.7 708.24 2536.43 707.938C2539.47 706.291 2542.31 704.468 2545.1 702.672L2545.1 702.67C2552.02 698.227 2558.67 693.951 2567.42 692.935C2570.63 692.707 2573.83 693.483 2576.58 695.157C2579.33 696.83 2581.49 699.318 2582.77 702.275C2585.58 708.744 2581.66 715.732 2576.55 719.745C2575.96 720.199 2577.48 721.027 2578.17 721.282C2586.31 724.344 2588.53 736.16 2587.6 743.609C2587.51 744.326 2587.36 745.032 2587.21 745.741L2587.21 745.743L2587.2 745.754C2587.13 746.108 2587.05 746.462 2586.98 746.82C2580.86 741.279 2572.09 742.206 2564.94 745.319C2564.55 745.489 2565.11 745.798 2565.67 746.108C2565.95 746.266 2566.24 746.425 2566.4 746.566C2571.9 746.145 2576.13 749.731 2579.51 753.663C2585.22 760.324 2583.81 771.292 2580.24 778.588C2578.41 782.333 2575.9 785.9 2573.36 789.486C2567.81 797.35 2562.2 805.307 2563.65 815.442C2563.77 816.353 2562.12 817.912 2561.58 818.397C2557.25 812.199 2550.96 807.628 2543.73 805.41C2541.28 804.774 2538.82 804.297 2536.37 803.822L2536.37 803.822C2532.1 802.994 2527.86 802.172 2523.73 800.523C2518.12 798.274 2513.79 791.505 2515 785.631C2516.31 779.3 2520.09 772.654 2523.69 767.308C2524.67 765.892 2524.11 765.076 2523.5 764.182C2523.35 763.97 2523.21 763.754 2523.07 763.524C2519 763.274 2516.57 767.123 2514.57 770.3C2514.36 770.628 2514.16 770.949 2513.96 771.257C2510.55 776.537 2510.02 784.07 2509.57 790.332L2509.55 790.663C2509.53 790.892 2509.52 791.118 2509.5 791.343C2509.47 792 2509.23 792.63 2508.8 793.135C2508.38 793.639 2507.8 793.989 2507.16 794.131C2503.94 795.36 2500.99 793.148 2498.87 791.199C2487.61 780.861 2493.25 764.122 2501.14 753.794C2502.09 752.551 2501.05 749.963 2500.18 748.943C2499.76 749.423 2499.34 749.891 2498.93 750.352L2498.92 750.368L2498.91 750.374L2498.89 750.4L2498.89 750.401C2495.92 753.747 2493.28 756.731 2491.58 761.048C2489 767.583 2488.98 775.42 2488.95 782.757V782.759C2488.94 784.859 2488.94 786.917 2488.87 788.893C2481.57 791.169 2474.92 782.528 2471.48 777.245C2465.97 768.757 2463.38 759.256 2466.95 749.386C2468.76 744.389 2471.01 739.781 2475.09 736.438C2479.64 732.708 2485.25 729.969 2490.62 727.348C2492.01 726.67 2493.38 725.999 2494.72 725.321C2495.05 725.101 2495.31 724.795 2495.48 724.437C2495.65 724.079 2495.71 723.681 2495.67 723.287C2495.45 722.118 2494.79 721.078 2493.82 720.383C2488 716.101 2478.71 721.452 2474.31 725.371C2467.4 731.514 2463.88 741.908 2462.1 750.782C2461.97 751.496 2459.6 753.127 2458.91 753.136C2454.21 753.192 2450.92 749.691 2449.58 745.429C2445.12 731.182 2447.32 715.878 2451.62 701.937C2455.78 688.444 2468.1 680.855 2481.03 677.366C2487.67 675.736 2492.51 676.027 2498.89 678.5C2497.62 673.159 2489.39 659.93 2470.12 654.327ZM2512.62 684.98C2513.39 683.549 2514.55 682.368 2515.97 681.575C2517.54 680.551 2519.35 679.956 2521.22 679.849C2524.38 679.799 2526.2 683.523 2525.03 686.326C2523.37 690.291 2520.34 692.761 2515.91 692.287C2513.96 692.083 2512.01 691.47 2511.63 689.65C2511.51 688.031 2511.85 686.41 2512.62 684.98ZM2526.44 720.634L2526.35 720.709C2525.6 721.344 2524.42 722.336 2524.98 723.615C2526.31 726.81 2529.09 733.264 2533.42 733.466C2534.02 733.553 2534.64 733.443 2535.19 733.153C2535.73 732.863 2536.16 732.407 2536.43 731.852C2536.22 728.102 2534.44 722.965 2531.03 720.964C2529.64 720.275 2528.04 720.126 2526.54 720.547C2526.51 720.575 2526.47 720.604 2526.44 720.634ZM2516.39 709.068C2516.37 708.7 2516.44 708.333 2516.61 708.003C2516.97 707.39 2517.51 706.902 2518.16 706.604C2518.81 706.305 2519.53 706.211 2520.23 706.334C2520.86 706.444 2521.43 706.765 2521.84 707.242C2522.26 707.72 2522.51 708.326 2522.53 708.96C2522.45 709.908 2522.12 710.817 2521.58 711.599C2521.33 711.97 2520.97 712.253 2520.55 712.404C2520.13 712.556 2519.67 712.57 2519.25 712.443C2518.51 712.192 2517.85 711.745 2517.35 711.151C2516.85 710.557 2516.52 709.837 2516.39 709.068ZM2561.84 707.759C2560.79 708.335 2559.98 709.243 2559.51 710.337C2559.05 711.431 2558.96 712.65 2559.27 713.799C2559.57 714.711 2560.13 715.52 2560.87 716.138C2561.61 716.755 2562.5 717.158 2563.45 717.301C2563.95 717.294 2564.44 717.17 2564.88 716.94C2565.32 716.709 2565.7 716.377 2565.99 715.972C2566.57 714.962 2566.88 713.812 2566.86 712.644C2566.85 711.476 2566.51 710.334 2565.9 709.339C2565.56 708.601 2564.95 708.025 2564.19 707.73C2563.43 707.436 2562.59 707.446 2561.84 707.759ZM2542.51 745.107C2542.67 743.592 2543.29 742.161 2544.28 741.005C2544.96 740.48 2545.77 740.15 2546.62 740.052C2548.52 740.117 2549.72 742.488 2549.84 744.09C2550.02 746.605 2549.37 748.567 2547.26 749.645C2546.35 750.114 2544.81 749.151 2544.12 748.699C2543.6 748.257 2543.19 747.705 2542.91 747.084C2542.63 746.463 2542.5 745.788 2542.51 745.107ZM2559.54 768.704C2558.62 770.307 2558.24 772.167 2558.46 774.005C2558.78 775.322 2559.88 777.544 2561.31 778.117C2562.61 778.584 2564.03 778.591 2565.34 778.137C2566.64 777.683 2567.75 776.796 2568.48 775.623C2569.03 774.867 2569.41 774.002 2569.59 773.085C2569.77 772.169 2569.75 771.225 2569.53 770.317C2569.23 769.304 2568.65 768.398 2567.86 767.701C2567.06 767.004 2566.09 766.545 2565.04 766.377C2564 766.208 2562.93 766.338 2561.96 766.749C2560.99 767.161 2560.15 767.839 2559.54 768.704ZM2536.09 775.191L2536.09 775.19C2536.2 775.051 2536.3 774.917 2536.39 774.788C2537.11 775.432 2537.83 776.097 2538.49 776.797C2539.44 777.979 2540.03 779.413 2540.18 780.923C2540.33 782.433 2540.04 783.955 2539.35 785.304C2538.65 785.621 2537.89 785.773 2537.13 785.75C2536.37 785.726 2535.62 785.526 2534.95 785.166C2533.99 784.373 2533.37 783.242 2533.22 782.007C2532.78 779.65 2534.7 777.07 2536.08 775.21L2536.09 775.191ZM2502.28 732.028C2501.59 732.45 2501.02 733.041 2500.63 733.744C2500.23 734.448 2500.01 735.24 2500.01 736.048C2500.16 737.745 2502.49 739.539 2504.23 737.829C2505.41 736.656 2507.41 734.395 2506.27 732.508C2506.05 732.21 2505.76 731.96 2505.44 731.774C2505.11 731.588 2504.75 731.469 2504.38 731.424C2504.01 731.38 2503.63 731.41 2503.27 731.514C2502.91 731.617 2502.57 731.792 2502.28 732.028Z" fill="black" fill-opacity="0.05"/>
<path d="M2181.26 611.258C2181.51 611.381 2181.75 611.503 2182 611.626C2185.85 611.472 2189.64 611.347 2193.36 611.25C2193.88 612.63 2194.4 614.012 2194.92 615.394L2194.92 615.395C2197.78 623.032 2200.63 630.652 2204.26 637.82C2206.34 638.15 2207.99 638.209 2209.12 636.688C2214.71 629.047 2221.48 621.544 2230.55 618.251C2256.61 608.819 2285.79 622.289 2298.62 646.51C2299.35 647.879 2299.07 650.66 2297.49 651.371C2291.01 650.511 2284.64 649.128 2278.26 647.746C2269.44 645.833 2260.63 643.921 2251.55 643.391C2246.81 643.103 2241.35 643.485 2239.45 648.19C2239.23 649.044 2239.29 649.943 2239.61 650.763C2239.94 651.583 2240.5 652.283 2241.24 652.766C2243.21 654.316 2245.56 655.295 2248.04 655.595C2250.85 655.819 2255.72 655.812 2261.36 655.804C2274.91 655.785 2292.87 655.759 2297.07 658.922C2300.18 660.925 2302.41 664.035 2303.3 667.619C2304.76 674.464 2306.07 681.325 2307.38 688.2L2307.38 688.201L2307.38 688.203L2307.38 688.204C2307.74 690.119 2308.11 692.036 2308.48 693.953C2308.64 695.646 2308.53 697.354 2308.14 699.01C2307.57 699.465 2306.91 699.792 2306.2 699.967C2305.49 700.143 2304.75 700.164 2304.04 700.028C2299.63 698.384 2295.19 696.277 2290.69 694.144C2279 688.604 2266.94 682.884 2254.11 684.619C2253.16 684.758 2252.28 685.187 2251.58 685.848C2250.88 686.508 2250.41 687.368 2250.22 688.31C2249.25 692.442 2254.37 695.202 2257.39 696.309C2264.83 699.056 2272.85 700.156 2280.84 701.251C2285.85 701.938 2290.86 702.624 2295.7 703.714C2296.06 703.795 2296.42 703.873 2296.78 703.951C2300.78 704.812 2304.54 705.623 2305 709.634C2305.69 715.556 2305.08 722.094 2304.47 728.522L2304.47 728.524C2304.11 732.415 2303.75 736.265 2303.68 739.915C2292 729.57 2278.5 722.595 2262.61 722.321C2261.18 722.378 2259.78 722.791 2258.55 723.521C2257.31 724.251 2256.28 725.276 2255.54 726.505C2254.78 727.556 2255.28 729.507 2255.91 730.401C2256.7 731.554 2257.81 732.444 2259.11 732.955C2264.77 734.548 2270.62 735.689 2276.47 736.827C2279.4 737.398 2282.32 737.968 2285.22 738.594C2290 739.641 2295.94 741.813 2296.29 746.59C2296.77 753.019 2294.18 760.867 2291.89 767.852C2291.14 770.108 2290.43 772.274 2289.86 774.273C2289.6 775.198 2287.82 773.783 2287.3 772.97C2280.4 761.854 2268.54 753.549 2254.8 755.504C2255.61 759.55 2257.69 763.231 2260.75 766.004C2267.31 771.466 2274.21 776.521 2281.39 781.14C2273.39 790.228 2266.49 800.231 2260.84 810.942C2259.89 812.805 2259.45 812.327 2258.22 810.989L2258.22 810.986L2258.21 810.976C2258.07 810.825 2257.92 810.663 2257.76 810.492C2257.62 810.343 2257.48 810.194 2257.34 810.046C2253.8 806.28 2250.48 802.754 2245.41 801.749C2241.77 801.026 2237.8 801.133 2233.88 801.238C2231.65 801.298 2229.44 801.358 2227.31 801.263C2230.3 796.42 2232.7 791.237 2234.47 785.824C2235.21 783.365 2235.7 778.738 2233.04 777.314C2224.97 780.507 2222.47 791.328 2222.36 799.316C2216.27 799.483 2208.84 795.213 2204.09 791.611C2203.46 791.049 2203.03 790.298 2202.86 789.471C2202.69 788.644 2202.79 787.786 2203.16 787.024C2208.7 779.306 2213.28 770.933 2216.78 762.093C2219.26 756.137 2219.77 749.541 2218.23 743.27C2214.34 746.531 2211.09 750.485 2208.64 754.933C2205.05 761.805 2203 768.937 2200.93 776.126C2199.78 780.126 2198.63 784.143 2197.2 788.144C2184.21 782.365 2175.41 770.554 2167.96 758.748C2166.27 756.093 2166.14 754.229 2168.17 752.383C2170.91 749.889 2173.68 747.583 2176.42 745.305C2182.92 739.89 2189.25 734.627 2194.54 727.332C2197.71 722.971 2200.99 717.524 2200.66 711.896C2191.26 710.902 2181.52 719.78 2175.14 725.876C2168.56 732.151 2166.33 739.26 2163.78 747.382C2163.55 748.102 2163.32 748.831 2163.09 749.568C2162.81 750.415 2161.13 749.752 2160.45 749.16C2153.15 742.671 2148.23 729.103 2144.7 719.363L2144.7 719.361L2144.69 719.347C2144.39 718.506 2144.09 717.693 2143.81 716.916C2143.6 716.557 2143.48 716.16 2143.44 715.75C2143.4 715.34 2143.44 714.926 2143.57 714.534C2143.7 714.143 2143.91 713.782 2144.18 713.476C2144.46 713.17 2144.79 712.925 2145.17 712.757C2149.04 710.114 2153.28 707.898 2157.5 705.694C2168.72 699.833 2179.78 694.055 2183.31 680.563C2183.76 678.901 2181.42 677.083 2180.08 676.974C2179.04 676.977 2178.02 677.211 2177.08 677.658C2169.92 680.42 2163.9 685.728 2157.97 690.953L2157.97 690.954C2154.92 693.646 2151.9 696.315 2148.75 698.604C2146.37 700.326 2143.28 701.8 2141.02 699.43C2135.56 693.752 2136.33 684.974 2137.25 677.718C2138.82 665.355 2143.6 649.493 2156.55 646.855C2162.76 645.596 2170.76 646.62 2178.11 647.56C2181.36 647.976 2184.49 648.375 2187.27 648.555C2191.03 648.685 2194.75 647.757 2198.01 645.876C2196.11 639.255 2192.69 633.381 2189.27 627.504C2186.62 622.958 2183.97 618.41 2182.02 613.514C2181.75 612.827 2181.49 612.064 2181.26 611.258Z" fill="black" fill-opacity="0.05"/>
<path d="M1959.68 589.677C1967.58 584.194 1976.15 578.766 1985.48 573.454C1984.96 575.905 1984.34 578.71 1983.58 582.129C1976.68 613.184 1971.35 640.099 1970.56 647.863C1970.28 650.479 1970.12 656.206 1970.19 660.617C1970.35 669.053 1970.09 675.518 1969.56 676.816C1969.16 677.822 1969.28 677.872 1971.73 677.349C1974.86 676.71 1977.94 677.169 1982.12 678.854C1988.35 681.407 1992.19 685.046 1994.86 690.988C1997.99 697.946 1999.03 707.466 1997.82 717.837C1997.27 722.481 1997.02 722.866 1996.38 720.324C1995.23 715.576 1992.27 712.534 1984.11 707.646C1972.04 700.402 1969.66 698.225 1967.4 692.351C1965.87 688.281 1965.54 684.641 1966.41 681.389C1966.76 680.165 1966.85 679.083 1966.6 678.982C1966.1 678.78 1965.77 680.448 1964.56 688.63C1962.2 704.91 1962.51 717.204 1965.79 738.778C1967.92 752.828 1969.06 774.315 1968.71 792.477C1968.44 805.223 1969.06 811.555 1971.1 816.758C1972.46 820.275 1975.62 823.3 1976.92 822.363C1978.49 821.243 1977.96 824.73 1976.27 827.016L1975.11 828.548L1973.3 827.622C1972.33 827.134 1971.45 826.88 1971.39 827.048C1971.3 827.257 1971.42 827.451 1971.59 827.518C1972.13 827.737 1973.53 835.505 1973.91 840.378C1974.13 842.852 1974.45 848.823 1974.63 853.57C1975.17 866.736 1977.2 874.757 1981.26 879.167L1982.76 880.89L1981.1 881.146L1979.42 881.445L1980.22 882.495C1981.47 884.216 1983.1 888.622 1986.41 899.152C1989.69 909.624 1991.3 913.099 1995.6 918.868C2043.33 969.185 2068.28 889.627 2018.49 917.54C2041.93 866.773 2098.61 941.756 2022.09 948.124C2001.2 949.862 1988.77 938.641 1975.07 914.744C1969.45 904.888 1962.72 887.281 1958.24 870.585C1954.26 855.692 1952.09 841.382 1951.72 827.797C1951.67 825.734 1945.53 841.369 1944.96 844.94C1944.38 848.939 1944.84 853.46 1946.25 857.094C1946.94 858.78 1947.29 860.089 1947.08 860.005C1946.03 859.584 1935.03 846.639 1932.56 842.869C1924.23 830.316 1920.17 817.679 1921.25 807.745C1921.79 803.142 1923.72 797.251 1926.12 793.105C1931.73 783.389 1937.08 778.921 1944.89 777.537L1948.81 776.874L1949.22 774.996C1950.6 768.785 1950.29 763.644 1947.63 750.65C1945.2 738.67 1944.87 736.103 1944.9 729.638C1944.94 724.448 1944.57 720.548 1943.97 719.725C1943.56 719.17 1942.35 723.403 1942.05 726.547L1941.84 728.651L1941.1 726.503C1939.18 721.107 1939.38 715.053 1941.9 701.415C1942.89 695.924 1944.05 688.698 1944.45 685.403C1946.27 669.634 1949.1 650.52 1952.33 632.103C1955.25 615.491 1957.67 601.526 1959.68 589.677Z" fill="black" fill-opacity="0.05"/>
<path fill-rule="evenodd" clip-rule="evenodd" d="M1629.7 777.04C1631.77 777.354 1633.87 777.67 1636 777.986L1644 775.247L1635.68 771.874C1647.87 774.03 1664.94 776.382 1667.8 771.952C1668.18 771.282 1668.37 770.517 1668.33 769.747C1668.29 768.976 1668.03 768.232 1667.59 767.603C1666.5 765.907 1664.78 763.699 1662.68 763.214C1661.04 762.832 1659.34 762.473 1657.59 762.107C1649.85 760.482 1641.37 758.7 1635.34 754.014C1633.03 752.467 1631.2 750.309 1630.05 747.781C1626.09 737.343 1633.95 727.474 1641.38 720.699C1646.67 715.568 1653.2 711.917 1660.34 710.115C1661.48 709.867 1663.6 710.989 1663.18 712.419C1660.49 721.551 1659.63 736.453 1669.32 741.966C1671.15 743.005 1672.99 743.81 1674.97 742.767C1678.39 740.976 1677.98 736.598 1677.25 733.045C1676.36 728.703 1674.58 724.682 1672.8 720.674L1672.8 720.673C1670.83 716.23 1668.87 711.801 1668.13 706.967C1668.12 706.212 1668.29 705.466 1668.65 704.8C1669.01 704.134 1669.53 703.572 1670.17 703.167C1678.26 699.314 1688.25 699.434 1697.35 699.544L1697.35 699.544C1698.55 699.558 1699.74 699.573 1700.91 699.578C1702.88 699.666 1704.8 700.219 1706.52 701.189C1706.63 702.125 1706.49 703.074 1706.11 703.936C1704.95 706.109 1703.69 708.205 1702.44 710.292C1699.33 715.491 1696.26 720.632 1694.79 726.754L1694.69 727.129C1693.82 730.703 1691.82 738.936 1696.05 740.769C1699.35 742.196 1703.36 738.851 1704.86 735.765C1707.49 730.339 1707.67 724.442 1707.85 718.525C1707.99 713.779 1708.13 709.02 1709.54 704.481C1710.7 700.707 1714.2 697.383 1718.62 698.212C1723.14 699.061 1727.58 700.263 1732.02 701.466C1736.97 702.806 1741.93 704.148 1747.01 705.005C1747.55 705.127 1748.03 705.439 1748.36 705.884C1748.69 706.328 1748.85 706.876 1748.81 707.429C1747.94 710.576 1746.15 713.388 1743.65 715.495C1741.25 717.576 1738.53 719.384 1735.81 721.199C1731.39 724.14 1726.95 727.097 1723.78 731.254C1721.35 734.441 1720.02 739.493 1723.26 742.644C1736.45 737.535 1744.49 725.908 1751.88 714.505C1752.31 713.767 1752.88 713.124 1753.57 712.618C1754.26 712.112 1755.05 711.754 1755.88 711.565C1759.73 711.059 1763.79 714.336 1767.01 716.937L1767.02 716.946C1767.51 717.337 1767.97 717.712 1768.41 718.057C1768.75 718.322 1769.11 718.592 1769.47 718.869C1772.4 721.091 1775.86 723.726 1776.4 727.349C1776.69 729.317 1775.67 730.704 1773.55 731.613C1771.96 732.287 1770.3 732.926 1768.62 733.574L1768.62 733.576L1768.62 733.577C1762.85 735.8 1756.81 738.129 1752.49 742.36C1752.04 742.881 1751.7 743.493 1751.51 744.154C1751.32 744.815 1751.27 745.509 1751.37 746.19C1751.44 746.979 1752.14 748.633 1753.13 748.762C1761.08 749.832 1767.48 743.785 1773.56 738.033C1776.37 735.379 1779.11 732.788 1781.9 730.987C1783.13 730.186 1785.12 730.861 1786.41 731.71C1787.37 732.343 1788.34 733.014 1789.32 733.692L1789.32 733.696L1789.32 733.698L1789.33 733.702L1789.34 733.706C1793.93 736.894 1798.76 740.249 1804.38 740.738C1805.08 740.802 1805.78 740.862 1806.49 740.922C1798.55 748.971 1792.74 758.868 1789.57 769.721C1789.17 770.328 1788.69 770.881 1788.15 771.365C1781.98 773.807 1772.74 770.824 1765.37 768.445C1763.52 767.848 1761.78 767.288 1760.25 766.862C1759.54 766.753 1758.83 766.805 1758.15 767.013C1756.49 768.127 1755.29 771.008 1757.61 772.509C1765.64 777.692 1777.01 777.076 1786.16 775.64C1786.17 775.68 1786.18 775.721 1786.19 775.761C1786.21 775.809 1786.22 775.857 1786.23 775.905L1786.25 776.005L1786.3 776.199L1786.31 776.215L1786.31 776.216C1786.44 776.744 1786.57 777.277 1786.65 777.81C1787.21 781.449 1785.57 785.548 1784.08 788.792C1781.82 793.695 1778.83 799.631 1774.05 802.477C1771.59 803.941 1766.27 802.651 1764.32 800.772C1762.53 799.053 1760.78 797.125 1759.01 795.173C1755.46 791.264 1751.82 787.257 1747.63 784.641C1744.91 782.943 1739.12 783.866 1736.75 786.646C1735.02 788.679 1736.24 791.061 1738.49 792.956C1748.75 801.565 1761.38 804.026 1774.32 805.98C1774.32 807.374 1773.89 808.733 1773.07 809.861C1768.43 814.439 1763.49 818.691 1758.27 822.587C1754.57 825.346 1749.39 824.723 1745.77 822.012C1741.16 818.561 1738.08 813.495 1735.01 808.449L1735 808.447C1732.9 804.995 1730.81 801.552 1728.23 798.641C1727.12 797.494 1725.75 796.626 1724.24 796.108C1723.66 795.931 1723.03 795.931 1722.44 796.109C1721.86 796.288 1721.34 796.636 1720.95 797.11C1718.08 802.031 1719.86 807.88 1723.42 812.138C1729.02 818.835 1736.74 825.589 1745.4 827.788C1745.83 827.899 1747.64 829.202 1747.39 829.619C1744 835.119 1736.16 837.877 1730.16 839.176C1717.61 841.893 1713.78 827.643 1710.63 815.906C1709.46 811.577 1708.39 807.59 1707.01 804.923C1706.28 803.619 1705.15 802.588 1703.79 801.99C1703.11 801.733 1702.36 801.705 1701.66 801.911C1700.97 802.117 1700.35 802.545 1699.92 803.13C1693.41 817.814 1707.15 832.595 1718.26 840.864C1719.21 841.571 1718.61 841.877 1717.47 842.235C1706.21 845.786 1690.89 845.609 1683.72 834.777C1679.81 828.874 1681.13 822.42 1682.46 815.928C1683.38 811.419 1684.3 806.892 1683.48 802.519C1682.77 798.741 1681.6 796.123 1678.35 793.926C1672.35 799.21 1674.82 809.685 1676.9 818.49C1677.68 821.807 1678.41 824.887 1678.61 827.363C1679.01 831.193 1678.45 835.063 1676.98 838.623C1675.46 839.275 1673.83 839.62 1672.18 839.637C1670.53 839.655 1668.89 839.345 1667.36 838.725C1656.22 834.936 1644.38 827.103 1640.37 815.414C1634.01 796.916 1652.44 786.16 1666.69 779.542C1667.84 779.003 1669.09 778.213 1667.83 778.283C1656.4 778.914 1644.9 779.382 1633.53 777.71L1633.21 777.661C1632.03 777.476 1630.85 777.29 1629.7 777.04ZM1746.01 754.229L1746.01 754.229C1745.68 754.249 1745.35 754.268 1745.02 754.296L1745.02 754.294C1742.18 754.603 1739.51 755.769 1737.35 757.636C1735.19 759.504 1733.66 761.985 1732.95 764.747C1732.83 765.154 1733.41 765.2 1733.98 765.246C1734.27 765.27 1734.56 765.293 1734.76 765.362C1739.03 763.716 1742.61 760.649 1744.89 756.678C1745.34 755.889 1745.75 755.069 1746.09 754.225L1746.01 754.229ZM1725.86 749.941C1726.61 750.343 1728.07 751.252 1728.04 752.35C1728 754.638 1727.29 756.864 1725.98 758.744C1724.68 760.624 1722.84 762.072 1720.71 762.903C1720.55 762.951 1720.42 762.997 1720.29 763.039L1720.28 763.043L1720.27 763.045C1719.01 763.459 1718.8 763.529 1718.59 761.985C1718.36 760.09 1718.56 758.169 1719.16 756.358C1719.76 754.547 1720.76 752.891 1722.07 751.504C1722.54 750.968 1723.12 750.548 1723.78 750.276C1724.44 750.005 1725.15 749.89 1725.86 749.94L1725.86 749.941ZM1705.47 764.994C1706.94 760.919 1707.99 756.642 1705.93 752.56L1705.93 752.559C1705.26 751.154 1703.4 750.379 1702.52 751.208C1698.85 754.613 1700.76 762.599 1703.39 766.046C1703.97 766.803 1705.34 765.333 1705.47 764.994ZM1683.17 777.822C1684.48 777.061 1685.67 778.969 1685.34 780.134C1684.89 781.994 1684.06 783.743 1682.91 785.273C1681.76 786.802 1680.3 788.081 1678.64 789.031C1676.41 785.145 1680 779.905 1683.17 777.821L1683.17 777.822ZM1703.76 782.656C1703.42 781.141 1702.96 779.657 1702.38 778.219L1702.38 778.218C1698.25 781.14 1698.25 786.609 1699.57 791.014C1699.9 791.904 1700.5 792.67 1701.28 793.205C1703.87 790.911 1704.33 785.862 1703.76 782.656ZM1720.07 775.339C1721.18 776.598 1721.88 778.158 1722.1 779.82C1722.7 782.179 1721.76 783.252 1720.51 784.683C1720.41 784.8 1720.3 784.92 1720.2 785.042C1719.63 784.599 1719.13 784.084 1718.7 783.51C1716.5 780.496 1716.34 777.13 1716.98 773.523C1718.14 773.873 1719.2 774.495 1720.07 775.337L1720.07 775.339ZM1732.26 781.878C1734.43 778.331 1736.08 773.937 1732.85 770.628L1732.85 770.627C1732.13 770.8 1731.47 771.16 1730.93 771.671C1730.39 772.182 1730 772.826 1729.79 773.538C1729.35 775.018 1729.35 776.593 1729.79 778.073C1730.23 779.553 1731.09 780.875 1732.26 781.878Z" fill="black" fill-opacity="0.05"/>
<path fill-rule="evenodd" clip-rule="evenodd" d="M580.867 576.767C591.593 576.256 602.627 575.707 614 575.127C627.789 573.882 640.423 572.215 652.245 570.323C687.179 576.722 692.676 583.52 703.403 597.478C706.945 579.821 717.018 571.29 734.958 570.008C749.142 569.046 761.163 574.563 771.459 583.291C779.439 590.022 786.964 597.313 794.478 604.591L794.482 604.596L794.484 604.597L794.485 604.598C798.273 608.267 802.057 611.934 805.895 615.524C806.741 616.33 807.795 616.935 808.858 617.545C809.361 617.834 809.866 618.124 810.352 618.437C809.706 619.174 809.139 619.921 808.573 620.667L808.571 620.67C806.861 620.767 805.144 620.932 803.427 621.098C800.238 621.405 797.049 621.712 793.907 621.581C790.436 621.447 785.164 621.173 779.305 620.868C767.76 620.267 753.935 619.548 747.118 619.557C741.291 619.569 735.2 621.252 729.635 623.316C728.257 623.827 727.496 625.908 726.728 628.006C726.369 628.988 726.009 629.973 725.583 630.803C726.258 631.047 726.925 631.312 727.588 631.576C729.449 632.315 731.279 633.042 733.165 633.248C734.87 633.434 736.677 632.673 738.365 631.963C738.578 631.873 738.789 631.785 738.998 631.699C755.825 625.037 789.072 624.371 806.483 628.696C811.682 629.99 818.065 632.304 820.951 636.26C831.236 650.708 832.492 670.016 833.671 688.128C833.991 693.047 834.306 697.878 834.794 702.5C836.71 712.734 834.158 723.936 826.042 732.856C825.696 732.117 825.388 731.39 825.09 730.687C824.426 729.117 823.81 727.662 822.937 726.45C814.609 715.995 804.289 708.235 791.869 703.403C791.551 703.281 791.223 703.152 790.889 703.021C786.575 701.329 781.099 699.181 778.645 704.47C776.32 709.373 780.991 711.742 784.851 713.7C785.352 713.955 785.84 714.202 786.297 714.447C791.014 717.007 795.782 719.458 800.542 721.904L800.544 721.905C805.573 724.49 810.593 727.07 815.536 729.77C825.158 735.026 827.303 741.328 823.977 751.807C805.038 798.273 799.301 796.378 774.185 788.081C770.819 786.969 767.105 785.742 762.965 784.501C738.701 775.501 737.66 771.692 742.14 752.114C742.967 748.447 743.971 744.8 744.979 741.141L744.979 741.14L744.98 741.139L744.98 741.137L744.98 741.135L744.981 741.134L744.981 741.132C745.883 737.859 746.787 734.577 747.568 731.264C747.808 730.248 748.056 729.233 748.304 728.216C750.543 719.047 752.82 709.725 749.63 698.234C748.227 699.614 746.841 700.843 745.532 702.003L745.525 702.01L745.515 702.018L745.51 702.022L745.507 702.025L745.505 702.027L745.503 702.028C742.677 704.531 740.209 706.718 738.701 709.423C734.267 717.435 730.35 725.909 727.464 734.575C722.521 749.491 727.464 760 732 768.5C721.773 768.5 716.096 765.233 709.981 761.714C707.098 760.054 704.117 758.339 700.517 756.883C698.863 756.227 697.496 754.946 696.152 753.687L696.151 753.686C695.668 753.233 695.187 752.783 694.698 752.366C692.203 750.26 689.74 748.113 687.278 745.966C682.351 741.671 677.425 737.376 672.246 733.413C664.185 727.195 663.029 722.214 667.495 713.153C674.863 698.259 681.84 683.241 688.825 668.144C689.895 665.752 690.609 662.917 690.727 660.341C690.839 658.573 689.839 655.875 688.603 655.336C687.367 654.796 684.483 656.019 683.535 657.292C680.239 661.545 677.086 665.975 674.627 670.723C672.208 675.333 670.153 683.204 668.1 691.064C664.085 706.432 660.082 721.759 653.397 712.588C643.231 693.76 633.59 675.314 634.511 653.487C635.516 628.676 653.43 610.562 677.677 609.32C680.137 609.199 682.644 609.35 685.592 609.528L685.593 609.528C686.934 609.609 688.367 609.696 689.927 609.765C673.99 592.538 639.561 586.877 608.527 581.774C598.741 580.164 589.292 578.611 580.867 576.767ZM790.141 673.5C785.941 672.961 781.857 672.436 778.514 672.253C771.194 671.86 764.681 670.746 760.658 663.106C765.134 658.416 770.772 657.169 776.547 657.636C791.264 658.75 818.324 671.26 812.5 674C808.538 675.864 799.077 674.648 790.141 673.5ZM727.213 682.862C727.323 682.925 727.407 682.974 727.464 683C724.869 688.011 696.395 734.796 693 733.413C695.696 722.784 707.044 693.27 714.799 685.215C721.411 679.509 725.974 682.145 727.213 682.862Z" fill="black" fill-opacity="0.05"/>
<path fill-rule="evenodd" clip-rule="evenodd" d="M300.445 437.251C297.524 436.588 294.523 436.058 291.46 435.651C292.621 434.435 294.43 433.225 296.145 432.078C297.985 430.848 299.715 429.69 300.416 428.679C288.332 432.691 272.621 428.574 265.407 417.657C261.777 411.882 259.854 405.198 259.858 398.376C259.96 396.911 260.548 395.522 261.529 394.43C262.511 393.338 263.829 392.605 265.274 392.348C267.692 392.023 270.153 392.267 272.46 393.059C275.506 394.047 278.331 395.757 281.149 397.463C286.163 400.499 291.157 403.522 297.335 402.443C298.049 402.351 298.733 402.102 299.339 401.714C299.944 401.325 300.456 400.807 300.837 400.197C301.146 399.818 301.31 399.34 301.297 398.851C301.285 398.362 301.098 397.893 300.771 397.53C300.035 396.799 299.151 396.235 298.177 395.878C295.964 395.317 293.764 394.912 291.591 394.513C286.036 393.493 280.661 392.506 275.723 389.011C272.918 387.023 270.381 382.582 270.75 379.035C271.474 372.129 277.92 368.579 284.398 369.589C281.331 363.155 284.737 355.95 289.664 351.502C290.08 351.151 290.54 350.855 291.031 350.621L291.204 350.528L291.207 350.526C291.967 350.116 292.418 349.873 292.323 350.779C291.798 355.809 298.373 360.074 302.523 361.398C303.258 361.635 303.979 361.366 303.394 360.847C301.841 359.429 300.683 357.631 300.036 355.63C299.388 353.629 299.273 351.494 299.701 349.434C301.781 338.512 312.762 336.063 322.751 333.836C326.186 333.071 329.502 332.331 332.3 331.282C337.184 330.787 337.904 331.436 339.958 333.287C340.786 334.033 341.832 334.975 343.454 336.116C345.67 341.926 348.817 347.336 352.771 352.135C355.545 355.571 354.115 362.741 350.977 365.293C346.969 368.544 341.162 370.067 336.185 371.249C335.007 371.552 334.917 372.383 334.827 373.21C334.812 373.347 334.797 373.483 334.778 373.617C336.523 376.184 341.135 374.939 343.444 374.068C348.468 372.171 352.349 369.052 356.351 365.605C356.682 365.337 357.084 365.172 357.507 365.129C357.931 365.086 358.357 365.167 358.735 365.362C360.995 366.451 361.688 369.532 361.715 371.755C361.828 382.534 350.903 388.733 341.43 389.832C341.177 389.884 340.938 389.988 340.728 390.139C340.518 390.29 340.343 390.484 340.214 390.708C340.085 390.932 340.005 391.181 339.979 391.438C339.954 391.695 339.984 391.955 340.066 392.2C343.309 393.682 347.371 392.287 350.535 390.845C354.516 389.034 357.841 385.696 361.072 382.453L361.074 382.451C362.624 380.895 364.152 379.361 365.722 378.027C368.055 378.528 368.777 380.319 369.312 382.449C370.355 387.128 370.072 392.006 368.497 396.534C366.921 401.061 364.114 405.059 360.392 408.08C356.485 411.108 351.648 412.685 346.707 412.541C341.365 412.173 335.385 410.163 330.201 408.421L330.196 408.42L329.18 408.079C328.808 408.606 328.544 409.202 328.404 409.832C328.263 410.462 328.248 411.113 328.36 411.749C328.472 412.384 328.708 412.991 329.056 413.535C329.403 414.079 329.854 414.549 330.384 414.918C332.792 416.983 335.76 418.284 338.909 418.654C347.03 419.52 353.992 415.501 360.715 411.62L360.987 411.463C361.628 411.087 362.782 411.513 363.325 411.874C366.842 414.188 365.643 419.251 363.788 422.287C357.595 432.443 347.502 441.126 336.045 444.812C326.486 447.887 315.874 443.841 308.504 437.634C306.067 435.565 305.515 434.531 304.5 431.5C303.855 432.459 303.218 433.319 302.609 434.142C301.828 435.198 301.093 436.192 300.445 437.251ZM337.422 353.743C337.965 353.843 338.456 354.132 338.807 354.558C339.211 354.994 339.467 355.546 339.538 356.136C339.609 356.726 339.493 357.323 339.204 357.842C338.582 358.851 337.636 359.619 336.522 360.022C335.407 360.425 334.189 360.439 333.066 360.063C333.115 359.822 333.159 359.589 333.201 359.363L333.271 358.983C333.646 356.929 333.911 355.484 335.838 354.013C336.318 353.739 336.879 353.644 337.422 353.743ZM320.806 344.818C319.908 344.153 318.82 343.794 317.702 343.794C316.585 343.793 315.497 344.152 314.598 344.816C314.115 345.219 313.724 345.722 313.452 346.29C313.181 346.858 313.035 347.477 313.024 348.107C312.998 348.661 313.101 349.213 313.324 349.721C313.548 350.228 313.886 350.677 314.313 351.032C315.124 351.698 316.655 352.521 317.722 352.208C319.103 351.871 320.307 351.03 321.099 349.851C321.689 349.128 321.987 348.21 321.933 347.277C321.878 346.345 321.477 345.468 320.806 344.818ZM311.141 369.468C311.762 368.947 312.486 368.564 313.266 368.344C314.324 367.948 315.2 368.848 315.669 369.545C315.837 370.076 315.907 370.633 315.876 371.188C315.762 372.139 315.298 373.013 314.575 373.64C313.852 374.267 312.921 374.603 311.964 374.581C311.102 374.58 310.38 374.433 309.96 373.688C309.169 372.267 310.262 370.474 311.141 369.468ZM333.564 398.808C333.618 397.15 321.946 392.216 320.707 392.565L320.577 392.601L320.49 392.624L320.387 392.651C319.652 392.843 319.021 393.008 318.853 393.823C318.369 396.18 330.579 401.543 332.068 400.69C332.789 400.277 333.324 399.603 333.564 398.808ZM310.81 402.833C310.643 402.59 310.427 402.384 310.176 402.228C309.925 402.072 309.645 401.97 309.353 401.927C309.061 401.884 308.762 401.902 308.478 401.979C308.192 402.056 307.927 402.191 307.696 402.376C307.372 402.617 306.456 403.865 306.613 404.607C306.809 405.111 307.092 405.578 307.448 405.985C308.18 406.423 309.326 406.913 310.161 406.151C310.592 405.729 310.884 405.185 311 404.593C311.116 404.001 311.05 403.387 310.81 402.833ZM296.386 412.955C297.673 412.75 298.992 412.888 300.209 413.357C301.166 413.761 301.972 414.455 302.514 415.342C303.055 416.228 303.305 417.263 303.228 418.299C303.092 419.295 301.522 420.332 300.642 420.574C297.726 421.389 293.247 420.891 292.114 417.674C291.941 417.129 291.921 416.548 292.055 415.992C292.19 415.437 292.475 414.93 292.878 414.525C293.888 413.701 295.099 413.16 296.386 412.955ZM300.68 383.511L300.604 383.348C300.024 381.602 287.383 378.72 286.047 379.847C285.804 380.047 285.545 380.225 285.296 380.396C284.373 381.027 283.598 381.559 284.4 382.76C285.41 383.847 299.071 387.469 300.337 386.695C301.697 385.671 301.563 385.388 300.68 383.511Z" fill="black" fill-opacity="0.05"/>
<path d="M1868.93 290.972C1870.19 291.002 1871.49 291.052 1872.81 291.121C1871.54 291.443 1870.28 291.748 1869.01 292.031C1869 291.744 1868.97 291.384 1868.93 290.972Z" fill="black" fill-opacity="0.05"/>
<path d="M1873.05 291.058C1876.29 286.677 1879.51 282.46 1882.76 278.371C1884.6 277.824 1886.44 277.252 1888.29 276.674C1897.14 273.911 1906.35 271.039 1917.83 270.364C1911.6 262.54 1911.57 255.207 1917.45 247.124C1922.12 240.752 1928.76 237.618 1936.16 236.365C1941.87 235.383 1947.66 234.794 1953.45 234.205L1953.46 234.204C1956.37 233.908 1959.28 233.611 1962.18 233.265C1962.82 233.194 1963.46 232.963 1964.09 232.729C1964.4 232.619 1964.7 232.508 1965.01 232.414C1965.09 232.953 1965.21 233.461 1965.32 233.97C1964.75 234.731 1964.21 235.52 1963.66 236.309L1963.66 236.31C1962.65 237.775 1961.64 239.239 1960.46 240.527C1958.82 242.325 1957.1 244.053 1955.37 245.781L1955.37 245.783C1953.03 248.129 1950.69 250.474 1948.57 252.991C1946.49 255.472 1945.03 258.662 1943.92 261.766C1941.93 267.306 1953.46 255.375 1954.71 251.457C1956.99 248.921 1958.32 247.199 1959.4 245.801C1961.5 243.087 1962.66 241.59 1967.98 237.729C1970.39 235.983 1973.66 234.098 1976.38 234.287C1983.95 234.903 1990.43 238.655 1996.86 243.576C1985.45 246.379 1977.14 253.079 1969.57 260.806C1967.31 263.093 1962.04 269.027 1962.43 272.608C1967.11 273.632 1973.7 268.171 1976.49 265.201C1977.37 264.259 1978.25 263.293 1979.12 262.325C1982.2 258.937 1985.3 255.517 1988.97 252.971C2000.72 244.834 2017.28 251.946 2019.25 266.689C2018.81 266.571 2018.39 266.442 2017.99 266.317L2017.99 266.316C2017.08 266.037 2016.24 265.778 2015.41 265.716C2007.99 265.514 2001 267.123 1994.5 270.672C1987.82 274.369 1989.89 279.9 1997.2 276.992C1999.98 275.903 2002.73 274.754 2005.47 273.607L2005.47 273.606C2008.37 272.394 2011.26 271.183 2014.18 270.049C2019.85 267.84 2023.3 269.184 2026.56 274.348C2028.75 277.81 2031.02 281.229 2033.29 284.666L2033.31 284.694C2034.3 286.182 2035.29 287.673 2036.27 289.173C2035.91 296.58 2029.26 305.628 2022.27 310.229C2012.71 316.523 2004.13 318.145 1997.41 309.235C1996.15 307.572 1994.96 305.84 1993.76 304.103L1993.76 304.101C1992.69 302.546 1991.62 300.986 1990.49 299.468C1986.16 293.635 1972.39 280.516 1978.04 295.421C1979.85 300.172 1982.05 304.868 1984.7 309.196C1989.27 316.634 1995.75 322.314 2003.13 327.13C1996.58 324.672 1990.49 325.48 1984.54 328.631C1983.67 329.099 1982.64 329.221 1981.62 329.342C1981.26 329.385 1980.89 329.428 1980.54 329.487C1979.98 329.583 1979.6 329.5 1979.23 329.418C1978.86 329.336 1978.48 329.254 1977.93 329.341C1977.38 328.395 1976.82 327.447 1976.27 326.498C1970.54 316.723 1964.73 306.784 1960.41 296.375C1960.28 296.438 1960.04 296.011 1959.74 295.452C1959.17 294.408 1958.36 292.904 1957.47 293.299C1958.22 300.441 1961.98 307.534 1965.76 314.672C1968.56 319.973 1971.38 325.299 1972.99 330.689C1970.13 331.141 1967.28 331.622 1964.45 332.246C1958.92 333.447 1956.39 332.156 1954.14 327.016C1950.45 318.555 1946.56 310.216 1942.65 301.846C1942.01 300.535 1941.06 299.217 1940.01 298.245C1939.3 297.565 1937.8 297.025 1937.12 297.357C1936.45 297.689 1935.94 299.353 1936.14 300.211C1936.77 303.133 1937.52 306.058 1938.66 308.802C1940.93 314.358 1943.29 319.853 1945.73 325.506C1946.76 327.905 1947.8 330.332 1948.86 332.805C1937.22 330.388 1925.93 327.885 1916.98 319.683C1906.8 310.378 1905.51 296.283 1913.66 285.534C1914.49 284.446 1915.45 283.434 1916.58 282.245L1916.59 282.239L1916.59 282.234L1916.59 282.232C1917.1 281.695 1917.65 281.121 1918.23 280.487C1906.73 281.025 1896.22 284.219 1885.82 287.38C1881.57 288.673 1877.33 289.96 1873.05 291.058Z" fill="black" fill-opacity="0.05"/>
</svg>
