<svg width="630" height="1116" viewBox="0 0 630 1000" fill="none" xmlns="http://www.w3.org/2000/svg">
<path fill-rule="evenodd" clip-rule="evenodd" d="M630 1082.68V1116H72V1082.67H86C96.2667 1082.67 100 1082.27 100 1080.93C99.8667 1070.27 94.1333 1033.6 89.7333 1016.67C78 970.267 51.4667 928.933 18 904.667C6 896 0 890.8 0 888.933C0 884.8 29.6 896.4 42.9333 905.733C73.0667 926.667 99.2 964.8 112.8 1007.33C117.333 1021.47 116.533 1013.6 111.467 993.2C100.533 949.867 83.2 917.6 56 890.667C48.2667 882.933 36.8 872.933 30.4 868.4C18.5333 860 15.2 855.067 22.4 856.8C28.8 858.4 44.4 864.267 50.6667 867.333C58.5333 871.467 69.6 879.733 78.8 888.667C84.8 894.533 88.2667 896.667 97.4667 900C112 905.2 119.733 909.867 132 920.267C155.333 940.267 174.667 972.267 184.8 1007.33L187.867 1018V1007.33C188 992.533 183.867 948.133 180.533 928C175.467 897.067 169.867 871.067 161.867 841.333C148.133 789.733 147.6 784.4 157.067 795.2C169.6 809.6 192.267 860.133 201.467 894.667C202.267 898 203.2 900 203.6 899.2C204.933 895.467 192 837.467 177.6 782C172 760.8 171.467 757.333 173.867 757.333C180.4 757.333 199.333 791.467 213.2 828.533C229.2 871.2 239.867 920.667 244.133 973.2C245.733 991.867 245.867 992.4 247.6 987.333C249.067 983.2 249.067 979.2 248 968.133C244 926.667 237.6 894.4 221.467 833.333C215.2 809.867 216.133 805.467 224.667 816.933C236.267 832.667 255.6 878 262.8 906.267C264.533 913.067 266.267 918.667 266.667 918.667C267.6 918.667 271.067 904.8 278.933 870.667C283.6 850.133 284.133 846 283.467 836.667C282.667 826.4 282.4 825.6 275.2 815.067C266.933 803.067 266.667 802.933 246 798.533C234.933 796.133 231.067 794.4 221.733 787.467C197.867 769.467 150.533 707.333 130.133 666.933C128.267 663.2 126.4 660 126 660C125.733 660 121.067 660.933 115.733 662C89.3333 667.6 54.6667 669.2 54.6667 664.8C54.6667 660 76 644 100.933 630.133L114.4 622.533L121.867 625.2C156 637.2 242.533 713.2 266 752C270.667 759.733 271.2 761.6 272.133 773.733C272.933 784.133 273.733 787.733 275.733 789.6C278.133 792.133 278.133 791.467 275.333 773.733C269.467 737.6 261.467 700.933 251.733 666C246.8 648.4 245.6 645.2 240.8 639.733C237.733 636.133 234.533 633.333 233.6 633.333C228 633.333 216.8 625.2 202.267 610.4C169.2 576.8 151.867 548.533 148.8 522.933C147.867 515.867 148 515.867 150.933 516.667C152.667 517.2 157.6 519.467 162 521.733C182.133 531.733 202 553.333 222.4 587.2C226.4 593.867 229.2 598.133 228.667 596.667C214.667 556.8 204.4 523.467 196.533 492.133C193.333 479.333 190.533 468.8 190.4 468.667C190.201 468.468 188.964 467.824 187.298 466.957C186.729 466.661 186.111 466.339 185.467 466C175.067 460.8 170 451.467 163.2 425.733C159.829 412.81 158.632 408.005 156.264 403.871C154.699 401.138 152.622 398.698 149.067 394.4L142.133 386L148.267 390.933C151.733 393.733 154.8 396 155.067 396C155.467 396 155.2 393.733 154.533 390.933C152.533 382.533 153.467 380.267 155.867 387.333C157.2 391.067 159.467 396.4 161.067 399.333C164.267 405.467 184.667 426.133 183.467 422C183.067 420.533 182.133 407.867 181.2 394C179.733 369.067 180.133 350.4 182.8 327.867C184.133 316.533 184.133 316.133 180.267 307.6C177.733 302.133 175.333 298.667 173.467 298C165.2 295.467 160.667 281.6 159.467 255.6C158.8 239.2 158.533 238 154 229.6C151.467 224.8 149.6 220.667 149.867 220.4C150.133 220.133 152 222.533 154.133 225.6L158 231.2L158.667 224.533C159.2 220 159.6 218.667 160.267 220.4C160.933 221.733 161.333 224.533 161.333 226.4C161.333 233.2 164 239.6 172 252C184.533 271.6 187.6 282.4 183.733 294.8C182.533 298.933 182.667 300.8 184 303.733C185.6 307.2 185.733 306.933 188 296C192.8 272.4 210.933 213.333 213.333 213.333C213.733 213.333 211.867 220 209.067 228.267C206.267 236.4 204.133 243.2 204.4 243.467C204.667 243.733 208.133 241.2 212.133 237.733L219.333 231.6L211.067 240C205.467 245.467 202.267 250 201.333 253.333C196.533 271.333 191.2 303.067 190 322C189.712 326.699 189.287 332.363 188.971 336.562C188.848 338.202 188.742 339.618 188.667 340.667C188 346.8 188.133 347.067 190 344.8C191.067 343.333 192 339.6 192 336.4C192 325.333 199.2 316.267 221.067 300C230.8 292.667 233.333 290 236.933 282.933C241.467 274.267 242.533 273.6 239.867 281.2C239.067 283.6 238.667 285.733 238.933 286C239.2 286.4 241.733 285.067 244.4 283.333C251.867 278.267 251.467 279.333 242.8 287.6C235.867 294.4 234.133 297.2 228.667 310.267C225.2 318.533 220.667 327.6 218.533 330.533C213.733 337.333 205.067 343.733 199.333 344.8C195.733 345.467 194.533 346.667 191.467 353.067L187.867 360.667L189.333 383.333C190.933 409.467 194.933 438 197.867 446.533C199.067 449.733 200 454.533 200 457.333C200 466 201.467 470.4 206.4 476.133C209.067 479.333 210.667 482 210 482.267C204.667 484.133 204.933 486.267 213.067 512L216.667 523.333L217.467 496C218.8 455.2 221.6 436.133 232.267 398.8C247.2 346 282 278.667 323.733 222C335.2 206.4 333.067 210.267 317.2 234C293.333 269.733 267.467 316.4 255.333 345.333C252.133 352.8 242.667 378.533 242.667 379.467C242.667 379.733 245.6 377.067 249.067 373.6C252.667 370.133 261.867 363.733 269.467 359.467C284.133 351.067 284.533 350.667 290.8 341.467C295.2 334.8 295.6 334.8 292.667 341.733C290 348.267 290 348.267 295.333 345.067C302.933 340.667 302 342.933 293.867 348.8C288.267 352.8 285.2 356.4 280.533 364.667C268.533 385.867 259.6 394.667 247.867 396.667C240.133 398 235.6 405.2 232.8 420.667C229.2 440 228 447.067 228 448.267C228 451.067 237.067 442.267 237.733 438.933C239.6 429.467 249.2 423.467 270.8 418C285.6 414.267 287.867 413.2 296.4 405.6L302 400.667L297.333 406.533L292.8 412.267L298.8 411.467L304.667 410.533L296.8 413.867C290.533 416.533 286.4 419.867 276.8 429.733C262.267 444.8 256.8 448 244.933 448C236.933 448 236.267 448.267 231.333 453.333L226.267 458.533L225.6 491.6C225.333 510.267 225.6 531.467 226.4 540.267C227.733 554.533 228.533 557.467 235.2 573.733C248.4 605.733 265.6 654.933 268.667 668.933C269.067 671.333 270.133 673.6 270.8 674C272.4 675.067 272.267 673.733 270 666C268.133 660.133 268.133 656.8 270 635.333C274.667 580.267 284 546.533 299.733 527.733C304.8 521.6 305.067 521.6 306.533 524.4C307.733 526.8 307.867 525.733 307.333 518.667C306 502.667 305.467 411.6 306.667 392.667C313.067 293.067 334.267 219.333 378.133 144.8L382 138.267L378.8 131.733C376.133 126.267 375.867 124.533 376.933 120.267C378.667 113.333 454.667 10.1333 460 7.33325C465.333 4.66658 471.733 4.79991 477.467 7.86658L482.267 10.5333L487.467 5.19995C490.267 2.39995 492.8 0 493.2 0C493.6 0 491.333 2.66658 488.133 5.86658C482.533 11.5999 482.4 11.8666 484.533 14.7999C488.267 20.1333 487.333 29.3333 482.4 36.1333C463.2 62.9333 410.933 133.467 408.267 136.4C403.733 141.067 395.867 143.333 390.267 141.333C385.067 139.6 384.4 140.533 374.8 158.667C336.667 231.733 315.467 328.4 316.133 426.267L316.134 426.294C316.267 445.733 316.268 445.864 318.133 439.333C331.333 393.867 340.4 368.533 352.533 343.467C362.133 323.733 378.533 296.133 390.667 279.467L398.667 268.133L395.333 263.2C391.333 257.333 391.067 252.8 394.533 247.333C398.667 240.8 466.667 168.933 471.2 166.267C476.4 163.333 480.933 163.333 486 166.533L490 168.933L498 162.4L506 155.733L498.133 163.2C492 168.933 490.533 171.067 491.733 172.267C492.667 173.2 493.333 176.4 493.333 179.6C493.333 184.267 492.4 186.267 488.4 190.933C476.133 204.667 418 266.133 415.6 267.867C414.133 268.933 410.267 269.733 407.067 269.733C401.2 269.733 401.067 269.867 394.8 279.2C359.867 330.933 332.4 401.2 320.533 468.933C318.4 481.867 318.4 483.867 320.533 508.933C325.067 562.4 326.533 630.133 324.267 672.4C323.733 680.933 323.733 688 324.4 688C324.933 688 325.333 687.6 325.333 686.933C325.333 686.4 328.4 682.533 332 678.267C338.267 670.933 338.667 670 338.667 662.933C338.667 654.267 342.267 645.467 352.667 629.333C375.067 594.4 415.2 550.667 424.933 550.667C426.533 550.667 426.8 552 426 557.6C423.067 579.067 401.733 629.333 384.133 656C374.533 670.667 368.667 675.733 353.067 682.933L339.467 689.2L330.533 702.533C321.733 715.733 321.6 716.133 320.667 726.933C318.8 749.467 314.667 784.133 310.4 811.333C305.6 842.667 305.333 850.533 307.867 884C309.867 910 311.733 919.733 311.867 904.933C312 898.133 312.4 896 313.867 896C317.6 896 322 912.267 323.6 931.6L324.533 943.333L325.6 932.667C326.933 918.133 329.2 909.333 331.467 909.333C332.533 909.333 333.333 910.133 333.467 910.933C333.467 911.867 334 911.333 334.667 909.733C335.333 908 336.533 897.6 337.333 886.4C338.133 875.2 339.333 865.467 340 864.8C342.8 862 347.467 877.333 349.467 895.733C351.2 911.733 349.467 937.6 345.333 959.2C342.533 973.6 342.133 979.867 343.6 990.133L344.4 996.533L347.467 985.333C353.6 962.933 357.333 942.667 358.8 923.867C359.6 913.333 360.8 904.133 361.333 903.6C362.533 902.133 366.4 911.733 368.133 920.533C370.4 932.4 369.733 961.867 366.8 978.933C363.733 996.4 358.133 1019.47 351.333 1042.67C348 1054.27 346.8 1060.93 346.533 1070L346.267 1082L369.067 1082.8L369.867 1058.4C370.267 1044.93 370.933 1019.33 371.333 1001.33C373.067 924.8 377.467 872.667 382.533 867.6C387.867 862.267 392.4 889.467 396.667 952.4C397.6 967.733 398.8 980.533 399.2 981.067C399.6 981.467 400 972.533 400 961.2C400 921.067 404.533 856.533 408.133 841.733C410.133 834 412.533 832.133 414.4 836.933C416.533 842.267 418.267 850.667 420 865.6C421.2 875.067 422.133 878.267 423.333 877.867C425.2 877.067 425.6 878.133 427.867 888.667C432.4 910.267 437.067 978.533 437.467 1027.73C437.6 1041.2 438.133 1051.73 438.667 1051.07C440.133 1049.33 449.067 1011.2 452 994C458.933 953.733 458.533 921.6 450.8 885.333C448.667 875.467 447.333 866.8 448 866.267C450.533 863.6 460.267 881.067 465.867 897.733C472.8 919.2 474 927.867 474 959.6C474 976 474.133 989.333 474.267 989.333C474.4 989.333 475.467 985.067 476.667 979.867C481.867 956.4 494.4 924.533 497.867 925.733C499.867 926.533 499.333 935.6 495.333 966C493.467 979.867 491.6 994.267 491.333 998L490.667 1004.67L493.733 995.333C498 982.667 504.8 967.2 508 962.667C509.6 960.4 512.133 951.333 514.667 938.8C519.2 916.4 525.867 892.667 532.8 873.333C538.933 856.667 554.667 824.8 560.667 816.933C569.733 805.067 570.133 809.2 562.667 837.6C554.267 869.6 549.333 890 546 907.2L542.933 923.067L546.933 932.533C552.267 945.467 559.467 966.133 564 981.333C566.133 988.267 567.867 993.333 567.867 992.4C568 991.467 565.067 976.533 561.467 959.067C553.6 921.2 552.267 911.467 554.667 912.267C557.333 913.067 566 930.933 572.933 949.733C576.267 959.067 579.333 966.533 579.467 966.267C579.733 966 576.4 948.8 572.133 928C563.467 885.6 561.733 874.667 563.867 874.667C568 874.667 580.8 902.667 591.867 936C605.333 976.267 614.267 1019.33 618 1060.67C618.663 1067.96 619.274 1074.48 619.642 1078.4C619.866 1080.79 620 1082.22 620 1082.27C620 1082.68 624.736 1082.78 630 1082.68ZM239.6 389.733C238.133 393.6 238.4 395.467 240.133 393.733C240.933 392.933 241.333 391.2 241.067 389.867C240.667 387.467 240.533 387.467 239.6 389.733ZM189.333 569.067C189.333 566 170.4 537.067 163.733 529.867C155.333 520.933 150.667 517.333 150.667 520C150.667 522.933 158 535.733 164.133 543.333C170.667 551.6 189.333 570.667 189.333 569.067ZM294.8 583.333C301.2 563.467 304.4 549.467 305.067 536.933C305.333 529.867 305.333 524 304.8 524C303.733 524 299.333 533.867 297.467 540.933C295.6 547.333 292 577.333 292.133 585.333V591.333L294.8 583.333ZM302.667 729.333C305.6 704 308 670.8 309.333 638C310.267 618.933 310.667 598.533 310.4 592.667L310 582L308.267 592.533C305.733 606.933 300.933 625.467 294.267 645.733C290.133 658.267 287.333 664.667 283.2 670.133C274.267 682.133 273.733 685.867 278.533 704.667C284.4 727.6 288.533 746.4 292.133 764.933C293.733 773.867 295.333 781.067 295.6 780.8C296.133 780.267 300.667 747.467 302.667 729.333ZM165.2 1018.67C156 979.067 140.533 949.867 115.867 924.933C108.8 917.867 102.267 912 101.467 912C100.667 912 103.067 916.533 106.8 922C120.533 942.533 133.867 975.067 139.867 1002.8C143.467 1019.6 146.267 1043.07 147.467 1065.07L148.267 1082.67H172V1072.13C172 1059.07 168.8 1033.87 165.2 1018.67ZM283.467 1035.07C286.133 1027.33 286.8 1021.33 288 994C289.733 958.667 289.467 923.333 287.6 930C286.933 932.133 284.133 942.933 281.333 954C276.533 972.667 276.267 974.667 277.467 983.333C278.133 988.4 279.067 1004.27 279.6 1018.4L280.4 1044.13L283.467 1035.07ZM554.447 1039.47C553.652 1033.91 552.729 1028.37 550.667 1016C544.667 980.667 539.067 955.067 538.267 959.333C534.8 976 533.867 1051.87 536.8 1075.6L537.733 1082.67H558.667V1077.6C558.667 1074.93 557.733 1065.47 556.667 1056.67C555.652 1048.49 555.091 1043.97 554.447 1039.47ZM322.8 960.8C322.8 962.267 323.2 962.667 323.6 961.6C324 960.667 323.867 959.467 323.467 959.067C323.067 958.533 322.667 959.333 322.8 960.8ZM503.733 1082.67C506.533 1082.67 506.533 1082.4 505.733 1057.6C505.333 1043.87 504.8 1032.53 504.667 1032.27C504 1031.47 502.667 1046.67 501.867 1064.27C500.933 1082.4 500.933 1082.67 503.733 1082.67ZM313.067 1082.67C315.2 1082.67 316.4 1080.4 319.333 1071.6C321.6 1064.4 322.667 1058.53 322.4 1054.67C322 1048.8 321.733 1049.2 316.8 1064.67C314 1073.47 311.467 1081.07 311.067 1081.6C310.8 1082.27 311.733 1082.67 313.067 1082.67ZM245.067 1082.67C247.2 1082.67 247.733 1081.33 248.533 1075.2C249.067 1071.07 249.2 1067.47 249.067 1067.33C248 1066.27 244.267 1073.33 243.467 1077.6C242.667 1082 242.933 1082.67 245.067 1082.67Z" fill="url(#paint0_linear_11_66)"/>
<defs>
<linearGradient id="paint0_linear_11_66" x1="-9.52821e-05" y1="1016.58" x2="630" y2="1016.58" gradientUnits="userSpaceOnUse">
<stop stop-color="#4F772D"/>
<stop offset="1" stop-color="#90A955"/>
</linearGradient>
</defs>
</svg>
