<svg width="720" height="1152" viewBox="0 0 720 1152" fill="none" xmlns="http://www.w3.org/2000/svg">
<g clip-path="url(#clip0_101_23)">
<path d="M452.246 804.827C440.639 807.358 434.094 808.956 423.669 811.918C408.176 816.381 402.166 817.705 385.703 820.507C378.272 821.781 368.923 823.628 364.933 824.651C349.313 828.632 339.08 830.793 323.082 833.329C297.906 837.339 283.537 841.106 245.723 853.503C234.671 857.175 218.761 862.323 210.425 864.976C202.097 867.698 191.999 871.048 187.925 872.576C179.288 875.689 150.846 888.291 144.579 891.699C139.515 894.474 133.376 899.001 133.48 899.91C133.616 901.099 143.592 898.543 149.301 895.836C154.608 893.316 161.516 891.181 161.612 892.02C161.628 892.16 161.141 892.853 160.575 893.485C159.553 894.452 161.239 894.33 173.02 892.701C186.06 890.928 190.462 889.787 194.058 887.18C194.841 886.594 195.564 886.724 196.499 887.468C198.213 888.831 201.746 888.144 215.212 883.913C221.359 881.935 230.66 879.668 239.667 877.931C247.712 876.445 256.703 874.567 259.739 873.866C277.867 869.528 297 865.925 310.343 864.33C324.742 862.685 325.162 862.637 334.016 863.892C344.892 865.484 347.05 865.166 368.855 858.92C398.345 850.521 433.597 843.588 456.473 841.754C479.341 839.85 487.384 840.207 525.215 844.67C556.291 848.276 561.847 848.562 580.661 847.121C600.881 845.591 601.953 845.681 631.743 850.425C641.772 852.043 656.134 853.165 656.753 852.386C657.124 851.918 649.237 849.206 639.733 846.607C618.533 840.811 588.713 836.424 555.093 834.101C543.747 833.342 539.712 832.74 533.482 830.901C517.219 826.17 503.161 825.226 482.819 827.55C470.726 828.931 467.752 829.554 456.513 832.822C440.747 837.387 425.333 840.069 392.619 843.806C357.171 847.785 300.57 855.669 286.446 858.487C271.352 861.487 262.277 863.87 230.647 873.364C203.324 881.516 184.902 886.384 173.922 888.205L166.63 889.463L171.713 887.465C174.491 886.369 183.066 883.334 190.773 880.753C211.829 873.53 215.701 872.096 223.226 868.544C234.629 862.99 237.035 862.36 269.002 855.803C310.239 847.337 329.724 844.332 397.371 835.824C431.015 831.555 435.675 830.81 454.402 826.758C479.97 821.215 495.744 819.201 504.931 820.276C508.305 820.67 515.443 822.405 520.81 824.13C532.415 827.764 534.88 828.262 540.334 828.277L544.514 828.295L544.306 826.477C544.018 823.959 541.711 821.743 536.987 819.448C534.816 818.421 530.277 815.893 526.937 813.936C517.673 808.476 516.117 807.875 507.271 806.689C502.739 806.073 496.511 804.872 493.362 803.956C490.22 803.111 485.804 802.269 483.597 802.167C479.252 801.955 456.804 803.811 452.246 804.827Z" fill="black" fill-opacity="0.1"/>
<path d="M309.929 873.092C358.305 866.36 372.881 863.774 401.869 856.566C413.095 853.795 416.706 853.17 432.116 851.693C456.902 849.215 473.94 848.969 519.414 850.292C539.874 850.86 548.648 851.416 568.988 853.414C576.294 854.138 580.443 853.877 596.061 851.739C609.869 849.877 616.686 850.657 639.496 856.908L652.655 860.506L649.253 861.107C647.312 861.471 639.239 861.472 631.196 861.115C618.04 860.635 615.5 860.712 606.453 862.1C596.784 863.63 589.145 865.565 572.543 870.863C566.117 872.872 562.374 873.583 549.52 875.123C538.336 876.401 533.614 877.223 532.156 878.098C529.768 879.505 521.953 879.902 508.222 879.345C503.17 879.143 492.799 879.477 485.287 880.052C472.02 881.072 471.453 881.066 465.744 879.451C460.984 878.082 458.412 877.879 451.785 878.141C447.341 878.294 440.449 878.09 436.508 877.69C430.414 877.04 427.804 877.125 419.238 878.387C401.749 880.881 383.518 882.468 360.842 883.571C342.461 884.466 333.28 885.303 304.636 888.717C234.083 897.202 196.522 901.281 187.47 901.394C170.641 901.616 149.862 900.731 149.758 899.822C149.646 898.843 155.601 897.667 161.661 897.399C185.69 896.355 195.576 894.871 235.655 886.183C267.721 879.26 275.354 877.892 309.929 873.092Z" fill="black" fill-opacity="0.1"/>
<path d="M133.491 903.098C133.329 903.541 133.743 904.061 134.466 904.191C135.189 904.321 139.054 905.296 143.066 906.325C162.982 911.419 180.307 913.053 203.924 912.126L207.41 912.022L207.422 912.022L207.599 912.016C213.932 911.827 223.207 911.551 230.393 911.369C241.837 911.125 253.008 910.344 270.15 908.528C291.005 906.358 294.803 906.136 300.462 906.694C304.045 907.064 313.564 907.323 321.691 907.174C348.122 906.705 368.291 908.439 385.624 912.623C390.212 913.728 401.295 917.138 410.218 920.228C443.612 931.717 447.749 932.591 494.428 938.877C511.039 941.089 531.5 944.136 539.819 945.666C571.414 951.337 586.013 953.283 586.699 951.858C587.61 949.912 582.512 947.448 572.769 945.231C569.356 944.487 561.406 941.853 555.112 939.455C543.707 935.09 528.611 930.65 472.756 915.351C438.537 905.94 428.187 903.367 413.998 900.667C379.392 894.063 361.637 893.612 304.612 897.789C247.875 902.003 222.141 904.235 210.438 905.926C196.994 907.887 182.445 908.841 175.504 908.217C173.359 908.037 170.217 907.191 168.559 906.318C164.566 904.223 161.682 903.774 147.897 903.365C141.564 903.096 135.798 902.834 135.137 902.626C134.413 902.496 133.722 902.646 133.491 903.098Z" fill="black" fill-opacity="0.1"/>
<path d="M152.768 810.418C146.705 811.89 141.497 815.886 135.369 823.6C132.46 827.262 129.453 831.928 128.628 834.006C127.804 836.084 126.467 842.968 125.642 849.368C124.779 856.055 123.542 862.573 122.663 864.799C121.661 867.181 117.454 873.117 111.257 880.84C100.408 894.336 97.5714 898.628 95.1302 905.142C94.6074 911.586 93.4469 912.985 91.0487 914.645C88.1956 916.009 77.5802 921.912 67.532 927.812C43.2513 941.948 14.1252 957.142 -13.6811 970.387L-11.0839 983.289C-9.88616 982.606 -8.68973 981.924 -7.49705 981.245C47.114 950.136 62.0713 941.06 78.337 929.303C85.3803 924.253 93.3648 919.03 96.0782 917.65C101.248 914.303 103.978 914.676 108.551 918.622C110.093 919.721 114.623 923.249 121.439 928.351C128.325 933.445 136.822 939.63 140.428 942.053C148.262 947.392 157.557 954.974 169.933 965.96C174.975 970.414 184.817 979.067 191.737 985.078C206.597 997.976 210.089 1001.26 219.095 1010.65C223.024 1014.66 234.97 1024.99 247.233 1034.99C263.314 1048.04 269.766 1053.68 273.223 1057.89C274.762 1059.78 276.616 1062.03 278.154 1063.89L278.155 1063.89C279.087 1065.02 279.903 1066.01 280.462 1066.69C281.937 1068.44 286.637 1073 290.83 1076.85C304.337 1089.05 311.456 1096.81 320.956 1109.89C323.649 1113.62 326.945 1116.44 329.2 1116.96C329.862 1117.17 330.429 1117.17 330.413 1117.03C330.245 1115.56 325.727 1107.65 318.806 1096.68C313.174 1087.68 308.265 1078.82 304.32 1070.35C296.855 1054.62 288.947 1038.73 285.954 1033.62C284.641 1031.43 281.724 1028.22 279.137 1026.04C276.628 1023.91 272.933 1020.08 270.857 1017.42C266.128 1011.37 236.6 982.929 228.195 976.308C220.724 970.43 209.208 963.244 198.156 957.634C187.244 952.008 150.185 934.49 139.377 929.774C134.459 927.643 127.15 923.802 123.101 921.218C118.982 918.642 116.426 917.51 114.434 916.816C108.526 913.653 105.8 911.948 108.925 910.568C115.906 914.137 123.085 919.309 130.639 921.49C133.493 922.298 141.435 924.862 148.288 927.197C162.639 931.934 171.35 934.411 190.269 938.838C221.567 946.245 242.039 954.959 282.644 978.093C303.336 989.971 322.468 999.971 349.326 1013.13C389.313 1032.72 412.252 1045.05 418.369 1050.23C422.374 1053.67 427.378 1055.93 430.174 1055.61C432.271 1055.37 432.465 1055.21 431.877 1053.79C431.501 1052.98 430.229 1051.14 429.004 1049.72C425.564 1045.65 390.85 1018.3 383.391 1013.77C379.358 1011.33 373.687 1006.94 369.416 1003.04C358.715 993.067 353.769 989.452 343.518 984.034C333.57 978.794 328.696 975.808 318.758 968.795C300.433 955.939 281.467 946.77 259.456 940.074C232.677 931.939 210.293 927.552 186.659 925.86C181.374 925.472 172.256 924.388 166.418 923.496L166.187 923.46C147.717 920.598 128.662 917.644 111.767 909.486C118.997 909.129 123.143 909.415 130.854 911.617C135.568 913.204 144.263 915.541 150.141 916.783C169.307 920.899 182.576 922.359 225.567 924.886C284.039 928.409 328.591 935.293 354.831 944.907C364.369 948.422 371.911 952.449 390.41 963.727C399.17 969.103 410.901 975.698 416.388 978.472C420.379 980.411 428.074 984.309 435.828 988.237C438.855 989.77 441.89 991.308 444.718 992.736C464.721 1002.92 484.114 1012.11 484.485 1011.64C484.609 1011.49 482.931 1009.2 480.715 1006.55C476.44 1001.37 471.68 997.52 460.506 990.223C456.597 987.623 447.154 979.987 439.509 973.209C416.808 953.059 408.855 947.308 388.907 936.975C363.081 923.559 336.87 917.909 291.674 915.917C275.588 915.204 240.987 914.835 221.261 915.105C182.942 915.657 175.59 915.151 144.308 910.364C132.771 908.564 121.904 907.043 120.132 907.033L117.808 907.06L112.821 907.118C117.363 898.152 137.18 891.836 145.449 886.923C181.057 865.78 182.205 865.295 224.155 851.291C260.392 839.155 260.647 839.116 280.128 836.114L280.202 836.102C298.366 833.319 299.888 833.003 311.575 828.692C315.518 827.25 322.488 825.037 327.153 823.724C333.813 821.901 336.11 820.93 338.109 819.213C342.424 815.461 357.68 809.538 365.439 808.652C371.171 807.997 375.788 808.745 386.125 811.815C395.582 814.631 399.268 815.273 399.123 814.014C398.315 806.95 373.085 792.545 359.803 791.583C354.09 791.173 344.686 792.53 338.065 794.704C334.798 795.856 326.94 799.588 319.944 803.434C300.695 814.065 298.057 815.145 285.051 817.836C281.339 818.552 275.657 819.734 271.219 820.657L271.162 820.669C270.238 820.861 269.368 821.042 268.583 821.205C258.823 823.17 253.98 824.786 244.36 829.215C240.458 831.007 226.476 836.927 213.286 842.33C173.993 858.51 167.974 861.607 145.167 877.036C129.066 887.945 118.126 898.004 115.609 899.685L104.803 907.827L113.195 895.922C118.483 890.146 132.098 879.167 144.578 870.656C157.323 861.973 174.859 852.46 198.636 841.17C215.159 833.331 241.27 820.783 250.99 815.988C258.762 812.124 259.314 811.99 267.414 810.994C272.028 810.467 280.658 809.765 286.639 809.435L297.406 808.843L295.696 806.275C291.511 800.022 281.152 794.9 270.037 793.69C264.013 793.032 246.457 794.329 240.899 795.885C230.474 798.848 218.864 805.063 204.136 815.602L202.378 816.866C197.236 820.564 189.708 825.979 184.564 829.599C155.303 850.513 135.616 867.216 118.096 886.151C111.787 892.895 102.021 904.709 102.41 905.019L99.217 910.482C98.4181 907.934 97.8905 906.588 99.5932 901.444C102.266 894.478 104.796 891.214 111.809 885.665C121.039 878.447 126.927 871.114 132.593 859.981C134.739 855.839 138.682 850.074 144.083 843.435C151.287 834.606 153.192 832.687 158.077 829.579C163.551 826.049 164.226 825.759 172.682 824.155C184.539 821.95 191.596 818.027 187.875 815.83C185.29 814.283 175.395 810.738 171.476 809.91C166.547 808.914 157.939 809.189 152.768 810.418Z" fill="black" fill-opacity="0.1"/>
<path d="M338.929 8.6585C339.379 6.55858 339.771 5.79292 340.867 5.39331C343.224 4.37613 343.638 5.26443 342.639 8.85027C342.119 10.7776 341.29 15.15 340.819 18.6705C339.245 29.9521 338.445 32.5489 335.771 35.864C331.135 41.6477 328.943 48.596 325.643 67.5924C324.615 73.8114 322.465 83.5653 320.894 89.2002C319.384 94.8605 317.037 103.889 315.69 109.331C311.485 126.733 308.839 135.279 303.349 149.428C297.095 165.403 295.075 169.206 285.674 181.935C282.104 186.878 277.675 193.534 275.823 196.764C271.361 204.694 260.386 232.637 254.077 252.163C247.599 272.262 241.565 286.684 235.833 295.942C232.98 300.54 229.087 308.136 224.699 317.598C218.382 331.33 217.752 332.497 213.38 337.819C203.695 349.858 191.491 367.921 178.469 389.647C169.384 404.867 148.578 440.927 148.719 441.272C148.79 441.445 150.641 439.072 152.858 435.995C155.1 432.857 161.745 423.981 167.76 416.271C195.823 379.955 200.751 372.792 223.792 335.664C246.405 299.216 248.527 295.169 276.976 233.492C296.328 191.677 308.266 171.858 322.449 158.125C333.162 147.731 339.111 139.493 347.247 123.805C352.035 114.581 358.687 97.4858 361.227 87.8237C362.125 84.4813 363.027 81.6411 363.2 81.5703C363.855 81.2006 365.788 85.297 366.12 87.5804C366.296 88.8693 365.747 93.4297 364.883 97.7158C364.02 102.002 362.864 108.525 362.316 112.228C360.047 127.223 356.675 139.898 351.174 154.757C346.864 166.254 345.618 168.378 333.73 185.001C323.332 199.601 321.76 202.162 315.24 215.523C306.049 234.417 304.487 237.124 290.99 257.936C287.348 263.563 280.942 275.971 268.56 301.467C255.836 327.607 248.294 338.968 227.554 363.76C214.719 379.057 213.535 380.35 206.085 387.389C202.665 390.607 196.201 397.342 191.626 402.294C187.113 407.271 179.758 415.279 175.296 420.135C161.385 435.269 141.409 461.309 141.263 464.394C141.215 465.875 147.837 459.277 156.834 448.881C166.243 438.014 167.712 436.554 174.498 431.955C181.31 427.295 185.685 423.332 192.583 415.562C196.049 411.72 204.415 402.491 211.282 395.136C218.087 387.757 227.81 377.164 232.786 371.594C237.823 366.049 243.582 359.805 245.66 357.742C251.708 351.833 256.283 346.024 260.906 338.733C263.281 334.936 268.581 326.713 272.736 320.37C276.952 314.053 282.663 305.359 285.475 301.029C288.348 296.725 293.321 289.795 296.56 285.643C298.911 282.702 302.711 277.861 306.249 273.355C307.675 271.539 309.058 269.777 310.286 268.216C314.562 262.781 322.748 251.761 328.499 243.655C345.477 219.65 347.19 217.435 358.571 204.246L359.71 202.935C367.534 193.923 371.468 189.391 374.651 184.382C377.87 179.315 380.32 173.76 385.247 162.586C385.551 161.897 385.865 161.186 386.189 160.452C390.57 150.554 394.339 142.121 395.44 139.657L395.665 139.153C395.728 139.012 395.762 138.936 395.764 138.931C395.85 138.895 396.251 139.134 396.662 139.52C398.086 140.902 397.399 145.619 395.006 151.34C393.148 155.782 392.739 157.613 392.76 160.982C392.745 164.264 392.311 166.156 390.672 169.904C389.196 173.433 388.323 176.715 387.559 182.472C386.842 187.606 385.479 193.256 383.563 199.033C382.029 203.897 380.151 211.119 379.415 215.101C377.849 224.313 377.356 225.322 369.233 238.585C353.063 264.929 346.779 273.456 337.638 281.289C332.161 286.007 329.146 289.966 320.347 304.162C314.538 313.602 298.928 335.533 287.895 349.94C285.394 353.184 282.325 355.905 276.341 360.125C274.197 361.66 272.189 363.895 270.043 367.144C264.632 375.464 262.461 377.917 253.711 385.843C249.001 390.094 242.954 396.003 240.26 399.024C232.468 407.564 228.983 410.254 214.959 418.478C195.359 429.948 171.803 446.772 152.877 462.955C145.575 469.127 137.625 475.313 134.755 477.045C131.936 478.655 129.818 480.129 130.183 480.282C131.826 480.969 135.629 479.912 140.718 477.32C143.841 475.837 149.234 473.372 152.687 471.956C159.963 468.919 162.788 466.954 168.023 461.277C174.503 454.334 177.704 451.811 185.139 448.054C215.265 432.618 235.354 419.637 257.09 401.696C269.071 391.689 281.792 382.134 287.755 378.478C289.659 377.343 297.826 373.035 305.977 368.934C323.366 360.186 326.114 358.403 339.395 347.51C352.96 336.449 359.411 332.139 364.356 330.917C368.367 329.876 370.754 328.443 378.075 322.565C380.346 320.726 384.857 317.464 388.113 315.321C394.28 311.178 409.055 298.764 414.585 293.068C419.728 287.782 422.398 283.964 426.768 275.567C428.931 271.252 431.536 266.907 432.41 265.843C434.006 264.079 434.128 264.13 434.608 265.546C435.629 268.403 434.671 271.72 431.558 276.425C426.386 284.344 423.567 289.886 418.139 303.203L412.701 316.373L406.489 323.358C403.084 327.225 397.955 333.16 395.134 336.485C389.242 343.389 380.502 351.461 375.712 354.536C373.929 355.721 369.211 358.111 365.311 359.912C359.426 362.529 356.876 364.18 350.718 369.328C346.521 372.865 339.892 377.601 335.625 380.108C328.23 384.453 326.432 385.846 319.449 392.794C317.594 394.664 314.038 397.182 311.148 398.619C308.406 400.047 303.804 402.843 300.954 404.869C298.165 406.921 293.167 409.98 289.881 411.681C286.596 413.382 282.08 416.142 279.86 417.859C277.614 419.638 273.758 422.53 271.366 424.319C268.947 426.168 263.792 429.09 259.918 430.831C255.439 432.82 251.172 435.326 248.479 437.49C245.314 440.099 241.977 441.922 235.935 444.401C231.446 446.243 226.683 448.399 225.519 449.129C224.27 449.893 221.696 450.748 219.731 450.999C208.793 452.362 196.658 456.585 179.888 464.877C177.224 466.172 174.52 467.492 172.196 468.627L172.165 468.642C169.259 470.061 166.95 471.189 166.06 471.61C164.455 472.369 161.199 474.512 158.867 476.325C153.868 480.242 149.689 481.856 138.084 484.299C129.454 486.126 123.046 488.453 119.749 490.864C118.063 492.161 117.986 492.343 118.838 492.699C119.386 492.928 121.223 492.981 122.903 492.897C126.756 492.576 169.257 479.523 186.287 473.342C193.273 470.828 208.348 465.903 219.797 462.465C246.167 454.468 250.072 453.168 266.839 446.591C283.545 439.989 286.413 439.114 305.776 434.194C320.895 430.36 326.032 429.361 351.164 425.35C358.154 424.195 367.434 422.354 371.825 421.258C373.46 420.829 375.322 420.349 377.171 419.873L377.175 419.872C380.32 419.061 383.426 418.26 385.309 417.741C388.335 417.004 393.101 416.207 395.872 416.079C399.613 415.854 401.705 415.299 404.031 413.84C405.763 412.776 413.452 409.269 421.099 406.03C433.951 400.606 434.936 400.302 434.482 401.9C433.651 404.913 428.348 411.776 422.438 417.528C419.242 420.553 415.867 424.005 414.881 425.166C413.895 426.326 411.294 428.099 409.121 429.193C406.973 430.225 399.624 433.946 392.819 437.394C377.405 445.18 375.257 446.213 364.832 450.793C360.18 452.853 353.263 456.396 349.515 458.691C341.398 463.735 336.848 465.551 323.978 468.967C318.663 470.392 311.403 472.362 307.808 473.434C300.299 475.658 295.644 476.358 286.377 476.632C282.748 476.76 277.607 477.257 274.952 477.792C259.402 480.946 213.425 486.755 203.168 486.83C196.576 486.864 157.326 490.266 150.448 491.324C141.407 492.765 128.674 496.023 125.008 497.78C122.86 498.812 121.975 499.73 121.212 501.555C120.651 502.894 120.376 504.066 120.558 504.142C121.897 504.702 134.039 503.198 141.969 501.507C146.497 500.529 152.916 499.197 157.287 498.29C157.924 498.158 158.518 498.035 159.056 497.923C176.169 494.279 195.961 494.828 217.539 499.484C224.829 501.029 227.254 501.899 251.321 511.885C265.564 517.836 279.482 523.367 282.262 524.242C304.623 531.298 326.285 537.633 330.892 538.415C341.659 540.197 346.984 538.919 358.108 531.986C365.991 526.987 368.443 526.939 366.223 531.731C364.956 534.419 362.756 536.43 357.834 539.307C352.318 542.578 349.255 544.944 347.394 547.169C345.92 548.984 344.539 549.551 338.833 550.884C326.106 553.787 309.449 554.119 292.943 551.869C273.661 549.245 257.569 544.808 232.613 535.238C208.266 525.922 205.582 525.158 192.486 523.474C182.287 522.215 182.287 522.215 167.171 516.471C154.211 511.556 151.101 510.614 145.576 509.806C134.23 508.211 122.78 508.573 114.571 510.934C110.301 512.081 108.534 513.058 88.9943 524.554C72.3601 534.403 67.01 538.816 50.0753 556.905C34.9346 573.098 32.3835 575.607 26.6739 579.512C20.1718 583.944 16.3202 587.339 12.5837 591.998C7.53567 598.253 4.44674 600.68 -5.02023 605.875C-10.1527 608.697 -13.2943 610.702 -16 613L-16 597.819C-14.1393 596.86 -12.278 595.96 -10.192 594.991C0.79218 589.93 5.17598 586.972 11.8996 580.13C18.486 573.445 21.9357 570.669 25.8259 568.72C27.258 568.031 29.7681 565.792 31.5268 563.81C36.5183 558.032 50.5754 543.745 55.1839 539.737L59.3454 536.114L63.4409 524.957C69.9463 507.014 70.097 504.432 65.4753 492.063L62.9371 485.14L60.1926 484.35C58.4474 483.907 56.2972 482.723 54.4215 481.224C50.5129 478.089 47.079 476.726 37.3735 474.458C28.4494 472.373 22.9493 471.504 11.6081 470.411C0.744986 469.374 -8.84702 467.983 -16 466.421L-16 440.901C-13.9209 441.043 -11.3402 441.615 -7.95378 442.648C-2.09955 444.38 1.48274 444.876 10.7291 445.165C15.469 445.287 38.3003 453.612 48.1693 458.737C62.9474 466.485 68.974 472.077 73.8569 482.625C75.5521 486.265 77.4708 489.712 78.1248 490.199C79.154 490.987 79.3266 490.916 79.6997 488.999C81.1456 481.953 78.9275 471.018 73.2226 456.623C64.2402 433.996 57.8154 426.449 16.301 389.799C-0.63039 374.81 -9.91401 366.401 -16 360.271L-16 344.036C-10.9032 346.545 -3.87259 349.928 3.15086 353.205C23.1236 362.552 33.2714 367.865 39.7308 372.423C54.9059 382.982 75.6245 407.296 82.3133 422.245C85.4601 429.422 86.0442 432.812 86.3342 447.16C86.6221 459.291 86.8354 462.883 88.4668 476.076C88.9534 480.211 89.3016 485.361 89.2074 487.467C88.9946 490.881 89.0654 491.054 89.8391 489.375C90.9338 486.758 91.2961 481.619 91.3172 466.186C91.3293 464.013 91.3426 461.273 91.3573 458.248C91.3917 451.145 91.4338 442.469 91.4855 435.872C91.761 408.892 91.2146 403.874 86.1625 390.824C83.7604 384.602 82.0488 378.096 79.9624 367.358C75.7543 345.796 72.9571 338.979 57.7521 313.108C41.0533 284.826 36.6561 275.339 32.4918 258.8C30.9119 252.492 28.6626 245.904 26.9873 242.559C22.974 234.376 19.6612 226.057 19.3504 223.211L19.0341 220.719L21.2297 222.137C24.4444 224.195 27.2264 227.288 33.6345 235.9C39.5514 243.806 43.9401 248.356 46.9834 249.628C52.157 251.79 60.6346 261.266 70.1863 275.695C80.6599 291.51 85.3714 301.272 87.2099 311.406C87.7741 314.501 88.1712 317.312 88.0439 317.616C87.9421 317.86 90.672 321.932 94.1521 326.603C108.442 345.943 112.304 353.634 114.975 367.761C117.72 382.564 117.911 395.44 115.549 411.683C113.269 427.388 109.315 442.822 102.395 462.951L98.416 474.514L99.8124 477.671L101.234 480.768L103.06 477.599C104.093 475.814 106.435 470.216 108.366 465.088C112.614 453.566 113.957 447.622 117.637 424.638C118.605 418.393 120.38 408.34 121.54 402.319C125.599 380.994 126.071 373.542 124.275 358.35C120.551 327.768 120.343 319.889 122.34 288.624C123.133 276.301 123.577 267.55 124.024 252.294C124.282 245.182 125.018 238.125 126.055 232.911C126.959 228.356 127.698 222.659 127.651 220.209L127.65 219.525C127.646 216.394 127.643 214.105 127.795 211.826C128.21 205.624 129.777 199.5 135.607 176.711L135.806 175.931C137.02 171.149 138.654 163.824 139.355 159.756C141.12 149.555 142.181 149.069 145.851 156.537C147.05 158.968 148.29 161.131 148.595 161.258C149.203 161.512 151.324 173.194 153.34 186.833C160.143 233.643 160.367 270.198 154.268 309.901C153.07 317.55 152.116 325.302 152.149 327.103C152.186 333.338 151.548 343.581 150.365 354.954C147.707 379.938 145.13 390.371 132.655 428.053C124.068 453.705 121.626 461.765 122.403 461.446C122.835 461.269 124.446 459.297 126.038 457.031C128.418 453.736 130.179 450.039 135.454 437.087C150.597 400.377 158.863 371.731 173.855 304.788C176.306 293.802 179.358 281.208 180.592 276.719C182.979 268.279 183.599 263.891 183.946 251.097C184.475 232.229 190.185 205.589 199.75 176.915C204.209 163.693 214.507 140.615 224.323 121.768C236.926 97.7941 250.404 65.7497 252.443 55.2347C252.964 52.4499 253.964 59.8024 254.051 66.7735C254.046 70.2031 253.257 79.9534 252.179 88.5112C251.188 97.0335 250.352 107.408 250.336 111.548C250.379 117.428 249.907 120.948 248.309 127.502C245.783 137.813 238.888 162.671 235.059 175.583C231.918 185.996 230.383 191.717 223.889 215.956C217.416 240.489 216.054 245.282 209.814 265.838C203.146 287.931 199.331 301.493 196.58 312.854C191.266 335.299 186.896 346.77 175.239 368.994C168.293 382.178 159.41 402.558 158.021 408.269L157.302 411.186L160.307 407.079C165.605 399.714 171.766 388.919 179.42 373.529C189.277 353.556 192.406 347.786 194.912 345.044C200.808 338.642 209.929 315.644 215.893 292.328L216.093 291.534C217.927 284.26 220.494 274.072 221.965 268.413C226.404 250.965 232.634 234.194 244.204 208.931C250.46 195.174 256.282 183.308 260.037 176.727C267.978 162.53 271.421 153.959 278.079 131.72C290.147 91.0793 302.805 64.4118 321.978 38.7509C332.889 24.2934 337.351 16.3634 338.929 8.6585Z" fill="black" fill-opacity="0.1"/>
<path d="M418.756 303.31C391.277 318.749 382.183 324.209 351.91 343.447L335.884 353.686L337.42 346.6L339.049 339.419L349.172 333.101C357.327 328.027 361.537 324.499 369.376 315.939C374.882 309.947 386.834 297.577 395.892 288.346C405.044 279.02 412.422 271.502 412.045 271.505C411.856 271.507 404.078 276.577 394.614 282.795C375.593 295.326 358.668 310.289 347.862 324.156C344.322 328.715 341.339 332.326 341.149 332.14C341.054 332.046 341.225 330.159 341.676 327.986C342.306 324.869 345.657 320.311 355.547 309.281C369.728 293.307 369.543 293.686 376.759 269.01C378.584 262.581 380.9 258.316 385.187 252.996C392.642 243.686 388.418 245.705 377.49 256.651C367.776 266.36 361.078 275.852 354.605 289.301C351.643 295.175 349.143 300.007 348.954 300.009C348.766 300.011 348.235 293.699 347.689 285.878C346.624 272.877 336.957 217.623 335.73 217.54C334.692 217.456 329.921 261.343 329.659 273.603C329.299 285.392 332.369 300.92 337.59 314.636C340.392 321.87 341.05 331.669 338.902 333.858C338.342 334.429 337.374 331.798 336.678 327.939C334.203 315.422 329.666 304.245 322.006 291.872C314.251 279.405 301.543 261.517 298.212 258.248C295.93 256.196 314.37 301.938 320.999 314.981C323.496 319.861 327.908 327.739 331.064 332.518L336.616 341.328L333.225 351.637C331.299 357.407 329.55 361.855 329.264 361.575C328.979 361.294 325.675 350.954 321.975 338.543C318.275 326.133 313.523 312.129 311.405 307.435C307.363 298.799 276.516 247.233 275.292 247.339C274.726 247.344 287.974 282.388 300.333 313.197C303.037 319.96 309.971 335.357 315.932 347.558C326.511 369.52 327.586 373.565 323.761 377.843C323.107 378.51 319.74 371.47 316.166 362.358C306.796 338.592 303.537 332.966 288.07 312.558C272.794 292.337 267.131 281.736 256.874 253.924C253.68 245.186 250.782 237.859 250.497 237.579C250.211 237.299 250.823 242.196 251.825 248.409C254.32 263 259.365 278.038 267.245 293.803C270.609 300.654 275.532 312.771 278.152 320.572C284.753 340.686 298.269 364.224 313.815 383.029L319.347 389.765L316.77 396.389C315.297 400.175 313.722 403.112 313.252 403.211C312.779 403.121 305.872 390.552 298.089 375.069C281.95 343.353 273.721 330.608 256.753 310.968C250.271 303.486 239.21 290.391 232.153 281.972C218.042 265.322 217.374 264.48 217.385 265.611C217.388 265.988 224.385 278.085 233.005 292.335C241.626 306.585 251.971 323.836 255.997 330.775C267.495 350.278 282.225 372.578 296.647 392.148C303.907 402.074 309.837 411.069 309.755 412.296C309.778 414.747 300.835 436.234 299.892 436.243C299.515 436.246 293.725 422.158 286.962 404.874C280.294 387.682 271.714 367.681 267.968 360.456C262.11 349.103 211.131 272.365 209.529 272.474C208.587 272.483 241.58 341.66 258.394 374.972C266.754 391.582 278.846 414.096 285.36 424.971C295.995 442.88 297.054 445.227 295.667 448.163C294.836 449.962 292.53 455.358 290.407 460.186L286.529 468.897L283.533 461.1C281.983 456.777 276.852 442.589 272.393 429.62C258.438 389.586 254.497 381.609 230.676 345.157C221.396 331.007 210.106 313.577 205.418 306.361C200.825 299.239 196.808 293.243 196.431 293.246C196.054 293.25 198.277 298.98 201.455 306.021C204.538 312.969 213.019 332.501 220.154 349.216C240.593 396.92 249.25 415.13 266.621 447.494L282.746 477.701L277.391 489.632C274.341 496.166 271.564 501.661 271.092 501.571C270.621 501.67 261.757 481.577 251.438 457.066C233.213 414.149 232.157 412.179 221.168 396.726C209.036 379.964 205.095 371.987 188.576 329.997C177.854 302.85 176.502 299.468 176.128 299.849C175.941 300.039 177.121 305.12 178.78 311.044C180.25 316.97 182.7 326.847 183.888 332.87C186.952 347.832 191.715 362.967 198.38 379.781C201.565 387.577 204.38 396.13 204.784 398.955C206.295 409.218 210.874 424.92 215.797 437.037C221.875 451.593 230.208 465.375 249.603 492.44C257.344 503.398 264.036 513.141 264.423 514.268C264.716 515.303 262.975 520.693 260.482 526.28C255.863 536.318 255.863 536.318 254.423 533.597C253.561 532.191 243.555 510.977 232.011 486.572C210.846 441.892 208.16 437.014 186.477 407.331C182.369 401.618 171.662 386.068 162.767 372.669C153.779 359.365 146.227 348.405 145.756 348.504C145.379 348.508 146.532 350.76 148.257 353.76C154.003 363.135 171.869 398.04 177.554 410.904C180.636 417.852 184.812 430.729 186.782 439.573C193.782 472.036 201.937 486.95 245.978 547.914C248.271 551.098 248.091 552.042 243.745 561.041C241.155 566.345 238.84 570.798 238.556 570.707C238.179 570.71 235.207 565.553 231.753 559.174C221.77 540.411 208.645 518.378 201.477 508.168C197.752 503.018 184.693 487.961 172.405 474.783C154.024 455.251 149.065 449.264 145.323 442.416C138.798 430.409 132.204 411.049 128.741 393.827C127.155 385.545 125.394 378.773 124.923 378.872C121.906 378.9 125.832 415.257 130.606 431.524C135.378 447.601 140.742 456.602 155.904 474.656C172.973 494.955 178.815 504.611 183.205 520.127C186.23 530.941 192.819 539.836 213.767 561.512L233.382 581.881L226.257 596.185C222.277 604.049 218.568 610.684 217.911 610.973C216.971 611.359 212.741 602.724 184.647 543.024C169.157 510.265 160.557 498.089 122.72 455.169C106.806 437.311 93.562 422.634 93.2783 422.542C92.4289 422.456 92.5259 422.738 105.545 443.546C118.947 464.916 130.181 486.402 144.431 517.758C165.136 563.668 167.721 567.887 196.054 602.788C204.828 613.453 211.894 622.815 211.899 623.381C211.727 625.08 201.531 643.656 200.683 643.758C200.306 643.762 189.629 621.328 176.926 594.105C151.226 538.437 151.323 538.719 132.309 512.027C124.76 501.444 109.846 479.711 99.4199 463.875C88.8982 447.946 79.8129 434.36 79.337 433.893C78.6727 433.428 82.1307 440.184 86.833 448.908C108.804 489.149 120.656 516.097 124.605 534.917C132.309 571.992 140.191 587.946 176.028 638.805L191.987 661.377L185.965 672.654C182.629 678.908 179.752 683.744 179.562 683.557C179.372 683.37 175.991 674.822 171.84 664.584C160.73 636.309 156.409 627.959 141.971 606.692C117.3 570.154 115.966 568.658 73.9905 526.72C49.6225 502.248 36.3027 489.551 37.8361 492.176C39.1773 494.426 44.9949 501.443 50.7102 507.612C69.5728 528.176 81.6476 548.805 95.8454 584.594C107.727 614.747 123.224 638.361 163.008 687.862C172.455 699.747 172.453 699.558 166.41 708.572L163.807 712.557L157.112 702.437C153.571 696.908 144.764 682.848 137.584 671.319C118.148 639.917 112.802 632.99 86.9942 605.797C74.1378 592.247 57.3653 573.36 49.8257 563.72C36.3716 546.781 13.263 515.885 9.52834 509.792C8.47616 508.199 7.52449 507.265 7.52983 507.831C7.54585 509.528 30.9517 551.924 36.1156 559.606C42.3299 568.693 53.0687 587.637 61.7191 605.093C81.7078 645.07 94.4095 662.204 136.019 705.277C147.16 716.957 156.303 726.676 156.307 727.053C156.406 727.524 144.913 748.564 144.259 749.23C144.166 749.325 142.241 745.195 140.024 740.03C137.9 734.77 133.286 725.385 129.925 718.911L123.781 707.278L96.3726 680.382C67.4419 651.993 49.0009 636.138 12.0576 607.919C-18.6172 584.543 -20.4129 584.088 0.144915 604.448C16.4202 620.606 22.5233 627.903 41.2436 653.372C48.8854 663.859 101.564 720.97 122.12 741.142C139.726 758.418 139.631 758.325 134.809 766.856C131.655 772.354 130.536 773.685 129.584 772.751C128.918 772.097 123.081 763.007 116.664 752.413C105.077 733.571 104.695 733.009 90.7127 720.035C74.4481 705.009 70.9411 703.062 49.9636 698.169C37.6792 695.268 4.06682 690.305 -7.44206 689.659L-12.8185 689.427L-7.61992 690.793C-4.7845 691.52 8.06919 694.793 20.8277 697.972C52.6764 705.875 56.2749 707.538 68.6466 719.678C76.2599 727.149 80.0773 732.016 84.8694 740.268C90.5216 749.737 93.0965 752.824 108.133 767.579L125.072 784.202L122.289 788.943C120.805 791.597 118.391 795.579 117.188 797.948C115.89 800.223 114.496 802.405 114.216 802.69C113.936 802.976 110.885 799.422 107.542 794.833C97.8941 781.63 78.4854 763.145 66.5354 755.715C53.4469 747.541 50.044 746.631 37.0427 747.696C22.8167 748.868 19.5179 748.993 13.5705 748.201L8.56759 747.588L14.5257 749.512C31.741 755.383 46.5318 764.107 58.1422 775.5C63.0908 780.356 73.8215 788.457 87.0106 797.29C98.6805 805.005 108.081 811.988 108.088 812.742C46.636 870 20.8278 886.666 -23.8639 906L-23.864 922C17.136 919.5 116.772 823.099 127.759 799.168C128.499 797.653 131.353 800.266 146.493 816.057C159.825 830.074 167.625 837.354 177.218 844.712C203.145 864.55 204.755 865.384 242.02 877.666C260.84 883.806 276.537 888.56 276.91 888.18C277.19 887.894 276.429 887.147 275.199 886.687C263.933 881.796 215.414 855.855 209.907 851.758C206.014 848.872 194.791 838.606 184.799 828.801C168.525 812.832 165.105 810.036 150.116 800.371C141.009 794.423 133.42 789.592 133.325 789.498C132.945 789.125 139.804 776.615 141.111 775.282C141.765 774.616 161.334 780.183 184.599 787.694C207.769 795.113 232.257 802.33 238.869 803.588C245.765 804.937 266.238 806.347 286.418 806.722C305.938 807.009 334.325 807.778 349.512 808.483C391.203 810.353 392.426 810.058 361.47 806.768C341.743 804.597 322.932 799.4 292.556 787.713C266.438 777.588 251.704 774.898 184.888 768.363L146.196 764.58L150.921 755.767C153.514 750.84 156.48 745.343 157.403 743.26C158.421 741.27 159.348 739.565 159.535 739.374C159.815 739.089 200.538 748.227 222.273 753.491C254.688 761.387 280.266 764.257 297.784 762.206C314.358 760.164 374.797 750.354 375.637 749.497C376.011 749.116 357.529 748.914 334.526 749.131L292.665 749.338L261.073 738.699C225.131 726.592 214.744 724.993 184.964 726.406C175.162 726.875 166.959 726.859 166.954 726.293C166.94 724.785 180.557 699.105 182.236 697.203C183.824 695.585 204.916 702.646 236.526 715.171C252.804 721.617 274.364 728.39 285.038 730.458C289.384 731.36 305.991 732.712 322.029 733.692C338.16 734.577 364.011 736.407 379.487 737.769C417.987 741.177 422.042 741.233 400.229 737.762C379.456 734.564 360.352 728.333 331.571 715.782C304.02 703.691 287.199 699.701 223.85 690.776C204.873 688.032 189.289 685.257 189.189 684.598C188.799 683.281 194.541 672.29 195.486 672.47C197.752 672.825 238.76 682.244 253.22 685.785C277.79 691.775 300.458 695.899 311.588 696.359C316.775 696.593 329.405 696.097 339.673 695.151C367.277 692.911 401.199 690.705 430.51 689.391C444.834 688.69 456.331 688.016 456.045 687.736C455.665 687.362 446.138 686.98 434.635 686.9C408.798 686.579 389.434 682.896 350.854 671.003C328.16 664.052 308.249 662.26 242.81 661.746L200.755 661.389L206.127 651.155C209.091 645.47 212.243 639.783 213.268 638.548C214.572 636.838 220.423 637.349 243.374 641.564C277.469 647.747 278.223 647.74 320.482 649.793C338.876 650.656 358.406 652.075 363.979 653.059C376.538 655.109 412.542 663.726 439.01 671.019C449.786 673.935 458.481 676.116 458.573 675.832C458.553 673.758 321.605 628.851 306.397 625.883C290.716 622.825 248.31 625.111 224.034 630.432C220.741 631.123 217.821 631.433 217.44 631.06C216.869 630.5 230.855 603.873 232.816 601.875C233.376 601.304 244.323 602.332 257.071 604.38C339.123 616.9 355.147 616.371 415.521 599.773C456.899 588.445 493.277 576.693 491.754 575.199C491.564 575.012 479.326 577.014 464.548 579.699C444.216 583.285 430.181 584.643 406.899 585.334C390.026 585.777 364.769 586.958 350.731 588.127C327.649 589.948 241.293 590.952 239.675 589.365C239.009 588.711 249.365 567.116 250.31 567.296C253.802 567.734 334.962 575.642 347.229 576.658C367.704 578.256 393.054 576.979 407.825 573.54C414.034 572.161 436.051 567.239 456.846 562.8C477.546 558.268 497.305 553.933 500.692 553.146L506.806 551.674L502.654 551.336C500.483 551.074 484.359 550.943 466.916 550.825C449.567 550.8 415.622 550.555 391.577 550.311C346.127 549.797 325.582 550.745 282.16 555.398C268.126 556.945 256.067 558.001 255.405 557.725C254.837 557.542 256.77 552.526 259.638 546.748L264.913 536.232L307.209 532.156C382.191 524.848 387.46 523.667 430.482 506.667C445.418 500.774 467.493 492.174 479.518 487.535C513.619 474.296 513.527 474.58 485.103 479.94C474.562 481.925 444.819 487.297 419.028 491.878C364.34 501.54 343.076 506.266 305.37 517.088C290.231 521.473 275.843 525.475 273.586 526.062L269.26 527.234L276.464 511.326L283.575 495.513L323.599 490.516C381.798 483.178 381.327 483.277 439.933 459.152C460.878 450.563 478.629 443.324 479.382 443.128C480.041 443.028 480.414 442.647 480.129 442.367C479.367 441.62 367.388 464.928 350.458 469.237C342.181 471.389 324.785 476.362 311.812 480.444C298.839 484.527 288.21 487.173 288.201 486.23C288.185 484.533 296.483 464.655 297.697 463.418C298.164 462.942 318.205 458.51 342.294 453.379C366.384 448.438 388.68 443.23 392.062 441.878C395.443 440.526 406.798 434.856 417.401 429.382C428.003 423.908 447.616 414.011 461.131 407.472C474.553 401.028 485.908 395.358 486.375 394.883C486.748 394.502 479.418 397.023 469.929 400.601C445.032 409.981 425.661 415.444 394.515 422.055C364.215 428.376 344.285 434.598 320.248 445.196C311.515 448.956 303.908 452.139 303.154 452.146C302.024 452.345 310.109 429.829 311.79 428.116C312.163 427.735 328.142 422.493 347.508 416.465C377.307 407.038 384.541 404.235 396.262 397.43C403.763 393.022 421.3 382.957 435.084 375.001C448.964 367.139 460.214 360.244 460.21 359.867C460.206 359.49 456.638 361.032 452.226 363.054C436.083 370.937 418.14 377.801 384.869 389.052C353.477 399.531 347.279 402.23 316.504 418.172C314.91 419.035 319.754 402.867 321.809 400.773C322.182 400.393 340.325 394.658 362.043 388.136C387.71 380.446 403.029 375.115 406.024 372.824C408.553 371.009 423.086 362.48 438.376 354.133C453.571 345.693 465.481 338.886 464.726 338.893C460.298 339.218 387.304 367.344 360.731 379.003C343.642 386.519 328.15 393.359 326.272 394.131C322.983 395.388 322.982 395.199 325.911 385.932L328.934 376.569L360.312 364.581C382.203 356.36 394.691 350.868 401.438 346.468C406.779 342.929 419.434 335.172 429.371 329.044C439.402 323.009 447.557 317.935 447.649 317.652C447.543 316.427 377.323 348.769 356.682 359.524C343.734 366.246 332.377 371.728 331.625 371.924C330.87 371.931 331.312 368.815 332.597 365.032L335.077 358.125L351.893 351.65C380.732 340.346 389.925 335.356 403.482 323.254C410.121 317.44 422.471 307.329 430.898 301.027C439.417 294.629 446.435 289 446.337 288.53C446.333 288.153 434.044 294.774 418.756 303.31Z" fill="url(#paint0_linear_101_23)"/>
</g>
<defs>
<linearGradient id="paint0_linear_101_23" x1="286.508" y1="905.497" x2="-67.1974" y2="652.296" gradientUnits="userSpaceOnUse">
<stop stop-color="#4F772D"/>
<stop offset="1" stop-color="#90A955"/>
</linearGradient>
<clipPath id="clip0_101_23">
<rect width="720" height="1152" fill="white" transform="matrix(-1 0 0 1 720 0)"/>
</clipPath>
</defs>
</svg>
