<svg width="777" height="1184" viewBox="0 0 777 1184" fill="none" xmlns="http://www.w3.org/2000/svg">
<path d="M326.287 12.6485C325.716 9.98034 325.219 9.00749 323.826 8.49975C320.834 7.2073 320.307 8.33599 321.576 12.8922C322.237 15.3411 323.289 20.8967 323.888 25.3698C325.886 39.7043 326.902 43.0037 330.298 47.2159C336.185 54.5648 338.968 63.3933 343.158 87.5303C344.464 95.4321 347.194 107.825 349.189 114.985C351.107 122.177 354.087 133.648 355.798 140.564C361.138 162.675 364.498 173.534 371.47 191.511C379.411 211.809 381.976 216.641 393.915 232.814C398.447 239.095 404.072 247.553 406.424 251.656C412.089 261.732 426.026 297.236 434.038 322.046C442.264 347.584 449.926 365.909 457.205 377.672C460.829 383.515 465.772 393.166 471.344 405.189C479.365 422.637 480.167 424.119 485.718 430.881C498.016 446.178 513.514 469.13 530.05 496.734C541.587 516.073 568.008 561.891 567.828 562.33C567.738 562.549 565.388 559.535 562.573 555.625C559.726 551.638 551.287 540.359 543.65 530.563C508.012 484.42 501.755 475.318 472.496 428.143C443.78 381.832 441.086 376.691 404.96 298.323C380.385 245.193 365.225 220.011 347.214 202.561C333.611 189.355 326.057 178.887 315.724 158.954C309.644 147.234 301.198 125.513 297.971 113.236C296.831 108.989 295.686 105.381 295.466 105.291C294.634 104.821 292.18 110.026 291.758 112.927C291.535 114.565 292.232 120.359 293.329 125.805C294.426 131.251 295.893 139.54 296.589 144.245C299.47 163.297 303.752 179.402 310.738 198.282C316.21 212.89 317.793 215.589 332.889 236.71C346.094 255.261 348.09 258.515 356.369 275.492C368.04 299.498 370.024 302.938 387.164 329.382C391.788 336.532 399.923 352.297 415.647 384.693C431.804 417.906 441.381 432.342 467.718 463.842C484.017 483.279 485.521 484.921 494.981 493.865C499.324 497.954 507.533 506.512 513.342 512.804C519.074 519.128 528.413 529.303 534.08 535.472C551.745 554.702 577.111 587.789 577.297 591.708C577.357 593.59 568.949 585.206 557.524 571.997C545.576 558.19 543.711 556.335 535.093 550.491C526.442 544.57 520.887 539.535 512.128 529.662C507.726 524.781 497.102 513.054 488.383 503.71C479.74 494.333 467.393 480.874 461.075 473.796C454.678 466.751 447.366 458.817 444.726 456.196C437.047 448.688 431.237 441.307 425.366 432.043C422.35 427.218 415.62 416.77 410.344 408.711C404.99 400.685 397.738 389.637 394.167 384.136C390.518 378.667 384.203 369.862 380.091 364.587C377.104 360.85 372.279 354.699 367.787 348.974C365.976 346.666 364.22 344.427 362.66 342.443C357.23 335.539 346.836 321.535 339.533 311.236C317.972 280.736 315.797 277.921 301.344 261.164L299.899 259.497C289.963 248.046 284.967 242.288 280.925 235.924C276.837 229.486 273.727 222.428 267.469 208.23C267.083 207.354 266.685 206.45 266.274 205.518C260.71 192.942 255.924 182.226 254.526 179.096L254.24 178.456C254.16 178.276 254.117 178.18 254.114 178.173C254.005 178.128 253.496 178.432 252.975 178.922C251.166 180.678 252.038 186.672 255.077 193.94C257.437 199.584 257.955 201.911 257.929 206.191C257.948 210.362 258.499 212.766 260.58 217.528C262.456 222.012 263.563 226.182 264.533 233.497C265.445 240.02 267.175 247.199 269.608 254.539C271.557 260.719 273.941 269.896 274.876 274.955C276.864 286.66 277.491 287.942 287.806 304.794C308.339 338.267 316.319 349.101 327.927 359.055C334.882 365.049 338.711 370.079 349.884 388.117C357.261 400.112 377.084 427.977 391.094 446.282C394.27 450.404 398.167 453.862 405.766 459.223C408.489 461.174 411.038 464.014 413.763 468.143C420.635 478.714 423.391 481.831 434.502 491.901C440.484 497.303 448.163 504.811 451.584 508.649C461.479 519.5 465.904 522.918 483.712 533.368C508.602 547.942 538.515 569.317 562.549 589.881C571.821 597.722 581.917 605.582 585.561 607.783C589.141 609.829 591.831 611.702 591.367 611.896C589.28 612.768 584.451 611.426 577.989 608.133C574.023 606.248 567.175 603.116 562.79 601.316C553.55 597.459 549.963 594.961 543.315 587.749C535.086 578.926 531.022 575.72 521.58 570.947C483.324 551.334 457.813 534.84 430.212 512.044C414.998 499.329 398.844 487.189 391.272 482.543C388.853 481.101 378.483 475.627 368.132 470.417C346.051 459.301 342.561 457.036 325.696 443.195C308.469 429.141 300.277 423.664 293.998 422.111C288.905 420.789 285.874 418.968 276.577 411.5C273.693 409.163 267.964 405.018 263.83 402.296C255.999 397.031 237.236 381.258 230.214 374.02C223.683 367.304 220.293 362.454 214.743 351.784C211.996 346.302 208.689 340.781 207.579 339.428C205.552 337.187 205.398 337.252 204.788 339.051C203.491 342.682 204.708 346.896 208.661 352.874C215.228 362.936 218.808 369.978 225.702 386.899L232.607 403.632L240.495 412.507C244.819 417.421 251.332 424.962 254.915 429.187C262.396 437.959 273.495 448.216 279.577 452.122C281.841 453.628 287.833 456.664 292.785 458.954C300.259 462.278 303.497 464.376 311.317 470.917C316.646 475.411 325.065 481.429 330.483 484.614C339.874 490.135 342.157 491.905 351.024 500.733C353.38 503.109 357.896 506.308 361.565 508.135C365.048 509.949 370.891 513.501 374.51 516.076C378.052 518.683 384.399 522.569 388.571 524.731C392.744 526.892 398.478 530.399 401.297 532.581C404.149 534.841 409.045 538.516 412.084 540.789C415.155 543.138 421.701 546.851 426.621 549.063C432.309 551.59 437.727 554.775 441.146 557.524C445.166 560.839 449.403 563.155 457.076 566.306C462.777 568.646 468.825 571.385 470.303 572.312C471.889 573.284 475.158 574.37 477.653 574.689C491.543 576.421 506.953 581.787 528.248 592.323C531.631 593.967 535.065 595.645 538.016 597.087L538.056 597.107C541.746 598.91 544.677 600.342 545.808 600.877C547.846 601.842 551.981 604.564 554.942 606.869C561.29 611.845 566.597 613.895 581.333 616.999C592.292 619.321 600.43 622.277 604.616 625.341C606.758 626.989 606.855 627.221 605.773 627.674C605.077 627.964 602.745 628.031 600.611 627.924C595.719 627.517 541.749 610.931 520.123 603.078C511.251 599.884 492.108 593.626 477.569 589.258C444.082 579.097 439.124 577.445 417.832 569.088C396.618 560.699 392.975 559.588 368.387 553.336C349.188 548.464 342.665 547.195 310.75 542.098C301.874 540.632 290.09 538.292 284.514 536.899C282.438 536.355 280.073 535.745 277.725 535.139L277.72 535.138C273.726 534.108 269.782 533.09 267.391 532.431C263.549 531.494 257.496 530.482 253.977 530.319C249.227 530.034 246.57 529.328 243.616 527.474C241.417 526.123 231.654 521.666 221.942 517.551C205.622 510.658 204.371 510.273 204.947 512.303C206.003 516.131 212.736 524.852 220.242 532.16C224.3 536.005 228.586 540.39 229.838 541.865C231.09 543.339 234.393 545.592 237.153 546.981C239.881 548.294 249.213 553.021 257.855 557.402C277.428 567.295 280.155 568.607 293.394 574.427C299.301 577.044 308.085 581.547 312.845 584.462C323.152 590.871 328.93 593.179 345.273 597.519C352.023 599.329 361.242 601.833 365.807 603.195C375.342 606.021 381.253 606.91 393.021 607.258C397.629 607.421 404.159 608.052 407.53 608.732C427.275 612.739 485.661 620.121 498.686 620.216C507.057 620.259 556.899 624.581 565.634 625.925C577.114 627.756 593.283 631.897 597.939 634.128C600.667 635.44 601.79 636.606 602.76 638.926C603.471 640.627 603.821 642.116 603.589 642.212C601.889 642.923 586.47 641.013 576.401 638.864C570.651 637.622 562.499 635.93 556.948 634.778C556.139 634.61 555.385 634.453 554.702 634.311C532.971 629.681 507.838 630.379 480.437 636.294C471.179 638.257 468.1 639.363 437.537 652.051C419.451 659.613 401.777 666.639 398.247 667.752C369.851 676.718 342.344 684.767 336.493 685.76C322.821 688.024 316.058 686.401 301.932 677.591C291.922 671.24 288.809 671.179 291.627 677.267C293.236 680.682 296.03 683.238 302.28 686.893C309.285 691.05 313.175 694.056 315.538 696.883C317.41 699.189 319.164 699.909 326.41 701.603C342.571 705.292 363.723 705.714 384.684 702.854C409.169 699.521 429.603 693.883 461.294 681.723C492.212 669.886 495.62 668.915 512.251 666.776C525.202 665.176 525.202 665.176 544.397 657.877C560.855 651.632 564.804 650.435 571.82 649.409C586.228 647.382 600.767 647.843 611.192 650.842C616.614 652.3 618.859 653.541 643.671 668.147C664.794 680.663 671.588 686.27 693.093 709.253C712.32 729.828 715.559 733.016 722.81 737.978C731.067 743.61 735.958 747.923 740.702 753.842C747.113 761.79 751.035 764.874 763.057 771.474C769.575 775.06 773.564 777.608 777 780.528V761.24C774.637 760.021 772.273 758.877 769.625 757.646C755.676 751.215 750.109 747.457 741.571 738.763C733.207 730.27 728.827 726.742 723.887 724.266C722.068 723.391 718.881 720.545 716.647 718.027C710.309 710.685 692.458 692.532 686.606 687.44L681.321 682.836L676.121 668.66C667.86 645.862 667.668 642.581 673.537 626.865L676.76 618.068L680.246 617.065C682.462 616.502 685.192 614.997 687.574 613.093C692.537 609.11 696.898 607.377 709.223 604.495C720.555 601.846 727.54 600.743 741.941 599.354C755.736 598.036 767.917 596.268 777 594.284V561.858C774.36 562.039 771.083 562.765 766.782 564.078C759.348 566.278 754.799 566.908 743.058 567.276C737.039 567.431 708.046 578.009 695.513 584.52C676.747 594.365 669.094 601.471 662.894 614.873C660.741 619.497 658.304 623.877 657.474 624.497C656.167 625.498 655.948 625.408 655.474 622.971C653.638 614.019 656.455 600.124 663.699 581.835C675.106 553.084 683.264 543.496 735.982 496.928C757.483 477.883 769.272 467.198 777 459.409V438.781C770.528 441.969 761.6 446.267 752.681 450.431C727.318 462.308 714.432 469.058 706.229 474.849C686.959 488.266 660.649 519.16 652.155 538.154C648.159 547.273 647.417 551.58 647.049 569.811C646.684 585.225 646.413 589.789 644.341 606.552C643.723 611.806 643.281 618.35 643.401 621.025C643.671 625.363 643.581 625.582 642.598 623.45C641.208 620.125 640.748 613.595 640.721 593.985C640.706 591.224 640.689 587.743 640.671 583.899C640.627 574.874 640.573 563.851 640.508 555.469C640.158 521.187 640.852 514.811 647.267 498.23C650.318 490.324 652.491 482.057 655.14 468.414C660.484 441.017 664.036 432.356 683.345 399.484C704.55 363.548 710.134 351.494 715.422 330.48C717.428 322.465 720.284 314.094 722.412 309.844C727.508 299.447 731.715 288.876 732.11 285.26L732.511 282.094L729.723 283.896C725.641 286.511 722.108 290.44 713.971 301.382C706.457 311.428 700.884 317.21 697.019 318.825C690.45 321.572 679.684 333.613 667.555 351.947C654.255 372.042 648.272 384.445 645.937 397.321C645.221 401.254 644.716 404.825 644.878 405.212C645.007 405.521 641.541 410.695 637.121 416.631C618.975 441.205 614.071 450.976 610.68 468.927C607.193 487.734 606.951 504.096 609.95 524.734C612.845 544.688 617.867 564.299 626.654 589.875L631.707 604.567L629.934 608.579L628.128 612.513L625.809 608.487C624.498 606.219 621.523 599.105 619.072 592.591C613.677 577.951 611.972 570.397 607.298 541.194C606.069 533.26 603.816 520.486 602.342 512.835C597.188 485.741 596.589 476.272 598.87 456.969C603.599 418.111 603.862 408.1 601.327 368.374C600.319 352.717 599.756 341.597 599.188 322.214C598.86 313.176 597.926 304.21 596.609 297.585C595.46 291.797 594.523 284.559 594.583 281.445L594.584 280.577C594.589 276.599 594.593 273.69 594.399 270.794C593.872 262.914 591.883 255.133 584.48 226.177L584.227 225.186C582.685 219.109 580.61 209.803 579.72 204.634C577.479 191.673 576.131 191.055 571.471 200.543C569.948 203.633 568.373 206.38 567.987 206.542C567.214 206.865 564.521 221.708 561.96 239.038C553.322 298.515 553.037 344.962 560.782 395.409C562.303 405.128 563.515 414.977 563.473 417.266C563.426 425.188 564.236 438.202 565.738 452.654C569.114 484.398 572.386 497.655 588.228 545.534C599.132 578.128 602.233 588.367 601.246 587.962C600.698 587.737 598.652 585.232 596.631 582.353C593.609 578.166 591.373 573.469 584.674 557.012C565.444 510.368 554.947 473.971 535.909 388.912C532.797 374.953 528.921 358.951 527.354 353.248C524.323 342.524 523.536 336.949 523.095 320.692C522.424 296.718 515.173 262.87 503.026 226.436C497.364 209.636 484.287 180.313 471.822 156.366C455.817 125.905 438.703 85.1889 436.113 71.8284C435.451 68.2901 434.181 77.6323 434.071 86.4897C434.077 90.8474 435.08 103.236 436.448 114.11C437.707 124.938 438.769 138.12 438.789 143.38C438.735 150.851 439.334 155.325 441.362 163.651C444.57 176.753 453.326 208.337 458.189 224.744C462.177 237.974 464.126 245.244 472.372 276.042C480.593 307.214 482.322 313.304 490.246 339.422C498.714 367.493 503.558 384.725 507.052 399.161C513.799 427.679 519.349 442.255 534.152 470.493C542.972 487.244 554.253 513.139 556.016 520.396L556.93 524.102L553.114 518.884C546.386 509.525 538.562 495.809 528.843 476.255C516.325 450.877 512.352 443.545 509.17 440.061C501.683 431.928 490.101 402.706 482.526 373.08L482.272 372.071C479.944 362.829 476.684 349.885 474.816 342.694C469.179 320.525 461.268 299.216 446.575 267.116C438.631 249.636 431.238 234.559 426.47 226.197C416.386 208.158 412.014 197.269 403.559 169.011C388.234 117.373 372.16 83.4889 347.813 50.8841C333.957 32.5142 328.292 22.4383 326.287 12.6485Z" fill="url(#paint0_linear_57_84)"/>
<path d="M777 919.397C775.539 918.914 774.079 918.432 772.624 917.952C705.998 895.942 687.627 889.306 667.234 880.025C658.412 876.051 648.522 872.096 645.248 871.183C639.543 869.661 637.909 868.707 637.127 866.318C636.712 865.049 639.524 864.046 641.979 864.73C642.081 864.756 642.21 864.789 642.364 864.829L642.905 864.971L642.908 864.971L642.912 864.972L642.929 864.977C644.49 865.384 647.329 866.125 650.091 866.787C653.514 867.651 666.434 871.772 678.731 876.015C708.421 886.133 743.648 896.342 777 904.709V919.397Z" fill="url(#paint1_linear_57_84)"/>
<path d="M533.175 782.784C540.013 781.456 547.159 783.086 556.968 788.059C561.626 790.42 566.849 793.754 568.653 795.478C570.457 797.202 575.018 803.563 578.835 809.671C582.825 816.054 587.114 822.09 589.042 823.939C591.168 825.889 598.2 829.953 608.085 834.902C625.376 843.544 630.254 846.578 635.763 852.049C640.309 856.596 640.505 857.194 637.182 856.132C635.719 855.701 632.305 853.099 629.513 850.375C623.558 844.553 619.471 842.419 609.771 840.054C597.044 837.027 587.655 832.329 576.723 823.672C572.617 820.469 565.931 816.457 557.36 812.235C545.939 806.632 543.112 805.573 536.709 804.692C529.511 803.659 528.691 803.679 519.363 805.988C506.305 809.269 497.316 808.573 500.07 804.613C501.973 801.841 510.363 793.639 513.955 790.976C518.493 787.672 527.356 783.945 533.175 782.784Z" fill="url(#paint2_linear_57_84)"/>
<path d="M436.977 809.059C448.935 807.212 463.611 808.113 483.462 811.95L485.835 812.414C492.775 813.773 502.935 815.761 509.84 817.04C549.269 824.638 577.023 832.419 603.617 843.474C613.159 847.377 628.57 854.817 628.319 855.312C627.891 856.279 620.351 854.2 613.139 851.104C605.085 847.705 586.158 842.905 569.53 840.08C552.555 837.203 530.331 835.713 500.948 835.327C480.531 835.064 448.192 834.488 436.097 834.147C426.411 833.845 425.789 833.966 417.105 836.725C412.178 838.338 403.094 841.641 396.87 844.091L385.669 848.501L386.209 845.101C387.545 836.81 395.672 826.793 406.388 820.392C412.194 816.921 430.613 810.067 436.977 809.059Z" fill="url(#paint3_linear_57_84)"/>
<path d="M360.28 853.504C351.391 852.858 341.679 852.73 337.827 853.081C330.097 853.957 319.921 856.957 314.316 860.031C301.286 867.189 282.389 893.544 284.858 901.086C285.298 902.43 288.738 900.064 297.024 892.805C306.084 884.88 310.422 881.973 316.543 879.969C324.829 877.258 343.068 876.166 349.194 877.964C352.021 878.775 354.804 878.691 362.411 877.441C367.756 876.601 375.86 875.603 380.532 875.231C394.398 874.165 396.089 873.777 415.818 868.147L415.898 868.124C437.064 862.103 437.341 862.024 479.764 857.47C528.851 852.152 530.243 852.11 576.22 856.986C600.624 859.581 615.149 860.78 616.343 860.389C617.762 859.925 615.934 857.877 612.442 856.044C608.132 853.735 593.321 850.398 571.903 846.826C541.576 841.788 534.026 841.448 486.621 843.322C470.72 843.979 453.777 844.481 448.983 844.48C437.159 844.464 431.492 845.078 420.673 847.627C419.8 847.828 418.833 848.049 417.806 848.284L417.743 848.298C412.809 849.427 406.494 850.872 402.393 851.874C387.943 855.197 384.762 855.329 360.28 853.504Z" fill="url(#paint4_linear_57_84)"/>
<path d="M226.674 916.49C239.631 913.655 247.016 912.23 258.974 910.383C276.774 907.7 283.488 906.246 301.499 901.427C309.633 899.26 319.98 896.784 324.505 895.964C342.209 892.733 353.599 890.163 371.013 885.29C398.428 877.641 414.764 874.775 458.906 869.752C471.831 868.333 490.373 866.15 500.067 864.962C509.786 863.848 521.592 862.547 526.437 862.201C536.651 861.339 571.38 860.885 579.326 861.426C585.757 861.884 594.094 863.62 594.412 864.59C594.827 865.86 583.514 867.909 576.46 867.82C569.902 867.734 561.898 868.783 562.192 869.679C562.24 869.828 563.058 870.305 563.925 870.682C565.413 871.188 563.645 871.849 550.932 875.679C536.874 879.949 531.876 880.84 527.013 879.869C525.946 879.64 525.273 880.108 524.67 881.297C523.565 883.477 519.66 884.425 504.025 886.4C496.867 887.255 486.374 889.284 476.424 891.713C467.569 893.95 457.571 896.23 454.164 896.931C433.749 900.967 412.656 906.217 398.374 910.808C382.996 915.841 382.547 915.988 374.147 921.382C363.852 928.058 361.514 928.741 336.479 932.552C302.644 937.756 263.644 947.13 239.577 955.916C215.485 964.627 207.489 968.732 171.177 990.867C141.321 1008.99 135.816 1011.86 116.054 1019.16C94.8232 1027.02 93.7767 1027.61 65.7557 1046.28C56.3322 1052.59 42.2803 1060.41 41.2894 1059.91C40.6949 1059.61 47.4363 1053.19 55.8702 1046.13C74.6846 1030.38 102.902 1012.05 135.937 994.05C147.098 988 150.912 985.512 156.378 980.747C170.678 968.379 184.504 960.878 206.228 953.769C219.143 949.542 222.451 948.79 235.378 946.874C253.501 944.167 270.391 939.714 305.328 928.28C343.152 915.819 404.258 897.474 419.902 893.76C436.616 889.778 446.935 887.972 483.452 882.882C514.973 878.436 535.933 874.8 547.923 871.538L555.908 869.421L549.821 869.759C546.491 869.94 536.376 870.853 527.354 871.821C502.625 874.293 498.028 874.64 488.738 874.539C474.581 874.212 471.846 874.694 436.355 882.919C390.568 893.523 369.396 899.542 296.79 922.394C260.661 933.722 255.586 935.135 234.696 939.74C206.171 946.017 189.226 951.314 180.404 956.681C177.164 958.651 170.728 963.733 166.084 967.981C156 977.068 153.731 978.72 148.203 981.273L143.969 983.237L143.334 981.296C142.454 978.608 143.764 975.286 147.489 970.76C149.214 968.707 152.643 964.031 155.121 960.491C161.98 950.641 163.279 949.307 171.704 943.987C176.016 941.253 181.776 937.136 184.546 934.741C187.341 932.421 191.43 929.512 193.622 928.382C197.932 926.145 221.576 917.58 226.674 916.49Z" fill="url(#paint5_linear_57_84)"/>
<path d="M402.872 919.504C350.649 935.19 334.654 939.35 301.882 945.529C289.2 947.943 285.245 948.989 268.919 954.663C242.615 963.685 225.21 971.365 179.681 993.87C159.184 1003.97 150.539 1008.62 130.829 1020.11C123.752 1024.24 119.421 1025.91 102.577 1031.01C87.6977 1035.55 81.1434 1039.51 60.9067 1056.47L49.2289 1066.24L52.9601 1065.27C55.0992 1064.73 63.2919 1060.98 71.2877 1056.87C84.414 1050.26 87.0281 1049.16 96.855 1046.36C107.378 1043.41 116.031 1041.82 135.344 1039.46C142.802 1038.51 146.931 1037.49 160.691 1033.07C172.635 1029.16 177.809 1027.8 179.696 1028.01C182.774 1028.32 190.89 1025.09 204.564 1018.13C209.596 1015.58 220.276 1011.09 228.166 1008.18C242.105 1003.04 242.677 1002.77 247.718 998.471C251.911 994.867 254.427 993.465 261.273 990.645C265.854 988.733 272.753 985.318 276.566 983.078C282.447 979.583 285.136 978.455 294.416 975.748C313.324 970.139 332.563 963.264 356.087 953.829C375.156 946.183 384.862 942.759 415.518 932.891C491.063 908.664 531.078 895.32 540.315 891.222C557.496 883.616 578.17 873.047 577.853 872.076C577.511 871.031 570.919 872.609 564.646 875.158C539.776 885.282 529.053 888.377 484.338 898.217C448.576 906.118 440.193 908.283 402.872 919.504Z" fill="url(#paint6_linear_57_84)"/>
<path d="M595.885 867.828C596.255 868.203 596.077 868.923 595.404 869.391C594.731 869.859 591.263 872.648 587.671 875.559C569.832 889.995 553.013 899.715 528.615 909.766L525.029 911.284L525.017 911.289L524.835 911.366C518.321 914.121 508.78 918.157 501.403 921.318C489.676 926.396 477.977 930.803 459.736 936.938C437.564 944.442 433.606 945.985 428.124 949.185C424.66 951.228 415.121 955.92 406.805 959.551C379.765 971.377 360.106 982.523 344.465 994.833C340.324 998.09 330.664 1006.71 323.049 1013.99C294.51 1041.19 290.719 1044 246.278 1072.1C230.451 1082.08 211.107 1094.69 203.377 1100.11C173.955 1120.57 160.047 1129.34 158.687 1128.21C156.858 1126.66 160.883 1121.79 169.738 1115.01C172.855 1112.67 179.696 1106.29 184.966 1100.93C194.508 1091.2 207.76 1079.67 257.316 1038.15C287.659 1012.68 296.964 1005.25 310.105 995.91C342.148 973.106 359.955 964.385 419.766 942.083C479.303 919.953 506.455 910.24 519.119 906.509C533.674 902.242 548.882 896.438 555.635 892.575C557.727 891.394 560.522 889.074 561.798 887.416C564.875 883.433 567.592 881.635 581.39 874.804C587.692 871.584 593.421 868.635 593.995 868.116C594.668 867.648 595.439 867.478 595.885 867.828Z" fill="url(#paint7_linear_57_84)"/>
<path d="M611.559 867.741C612.53 867.424 613.553 866.51 613.831 865.593C614.435 864.155 614.187 864.154 611.273 865.603C609.48 866.438 599.16 873.039 588.291 880.234C558.776 899.648 551.551 903.583 512.409 920.857C492.266 929.764 457.326 946.241 441.335 954.451C396.399 977.506 372.431 995.436 352.471 1021.06C337.038 1040.83 331.646 1050.37 317.99 1081.37C313.388 1091.8 307.361 1103.95 304.605 1108.4C296.663 1121 293.624 1127.12 291.697 1134.37C290.683 1138.09 290.046 1141.19 290.244 1141.29C290.838 1141.59 306.239 1123.24 321.795 1103.6C324 1100.84 326.365 1097.87 328.722 1094.9C334.762 1087.31 340.756 1079.77 343.903 1075.95C348.18 1070.58 357.014 1058.43 363.399 1048.9C376.921 1028.85 382.7 1021.26 390.742 1013.25C412.893 991.287 454.898 963.57 512.594 932.784C555.043 910.211 567.827 902.555 585.36 889.46C590.747 885.465 598.482 879.048 602.527 875.244C606.571 871.441 610.663 868.035 611.559 867.741Z" fill="url(#paint8_linear_57_84)"/>
<path d="M631.793 865.17C631.939 865.618 631.135 867.452 630.081 869.285C629.028 871.118 624.412 879.49 619.871 887.837C615.256 896.209 609.512 906.438 606.981 910.574C601.517 919.637 595.615 931.654 588.171 948.557C585.128 955.422 579.169 968.78 574.946 978.099C565.871 998.098 563.857 1003.06 559.088 1016.77C556.97 1022.67 549.655 1038.7 541.869 1054.56C531.622 1075.28 527.7 1084 526.153 1089.88C525.474 1092.52 524.638 1095.66 523.944 1098.27C523.524 1099.85 523.156 1101.23 522.907 1102.18C522.223 1104.64 519.578 1111.46 517.113 1117.31C509.088 1135.97 505.476 1147.16 501.927 1164.85C500.931 1169.89 498.896 1174.28 496.85 1175.85C496.276 1176.37 495.703 1176.64 495.655 1176.49C495.141 1174.93 496.041 1164.79 497.956 1150.44C499.485 1138.7 500.341 1127.43 500.397 1116.99C500.651 1097.56 501.279 1077.77 501.936 1071.19C502.249 1068.35 503.715 1063.74 505.323 1060.32C506.881 1057 508.849 1051.4 509.713 1047.73C511.695 1039.39 528.419 996.797 533.867 986.169C538.712 976.73 547.052 964.08 555.655 953.246C564.109 942.46 593.559 907.443 602.331 897.628C606.33 893.179 611.958 885.88 614.864 881.375C617.844 876.845 621.572 871.822 623.27 870.191C626.817 866.633 631.402 863.976 631.793 865.17Z" fill="url(#paint9_linear_57_84)"/>
<path d="M607.342 885.159C611.983 881.16 615.991 874.971 615.283 872.806C614.965 871.835 614.642 871.858 613.792 872.797C611.817 875.097 581.89 897.292 571.968 903.845C566.459 907.467 557.711 912.81 552.529 915.663C529.335 928.379 508.662 943.246 485.275 963.962C466.056 980.998 451.08 999.126 438.469 1020.7C431.649 1032.44 428.093 1037.73 420.438 1047.68C412.558 1057.94 409.222 1063.91 403.006 1079.01C400.489 1084.96 396.775 1092.04 393.82 1096.4C388.362 1104.47 365.868 1148.37 364.272 1154.1C363.69 1156.11 363.255 1158.57 363.249 1159.56C363.315 1161.27 363.587 1161.35 365.827 1160.62C368.813 1159.64 372.837 1155.02 375.3 1149.66C379.095 1141.56 396.633 1118.38 428.089 1079.89C449.218 1054.05 463.977 1035 479.445 1013.32C509.879 970.955 526.596 952.588 554.908 930.509C572.045 917.212 579.731 910.646 592.089 899.162C597.956 893.604 604.821 887.307 607.342 885.159Z" fill="url(#paint10_linear_57_84)"/>
<defs>
<linearGradient id="paint0_linear_57_84" x1="43.5808" y1="241.051" x2="674.167" y2="156.409" gradientUnits="userSpaceOnUse">
<stop stop-color="#4F772D"/>
<stop offset="1" stop-color="#90A955"/>
</linearGradient>
<linearGradient id="paint1_linear_57_84" x1="43.5808" y1="241.051" x2="674.167" y2="156.409" gradientUnits="userSpaceOnUse">
<stop stop-color="#4F772D"/>
<stop offset="1" stop-color="#90A955"/>
</linearGradient>
<linearGradient id="paint2_linear_57_84" x1="43.5808" y1="241.051" x2="674.167" y2="156.409" gradientUnits="userSpaceOnUse">
<stop stop-color="#4F772D"/>
<stop offset="1" stop-color="#90A955"/>
</linearGradient>
<linearGradient id="paint3_linear_57_84" x1="43.5808" y1="241.051" x2="674.167" y2="156.409" gradientUnits="userSpaceOnUse">
<stop stop-color="#4F772D"/>
<stop offset="1" stop-color="#90A955"/>
</linearGradient>
<linearGradient id="paint4_linear_57_84" x1="43.5808" y1="241.051" x2="674.167" y2="156.409" gradientUnits="userSpaceOnUse">
<stop stop-color="#4F772D"/>
<stop offset="1" stop-color="#90A955"/>
</linearGradient>
<linearGradient id="paint5_linear_57_84" x1="43.5808" y1="241.051" x2="674.167" y2="156.409" gradientUnits="userSpaceOnUse">
<stop stop-color="#4F772D"/>
<stop offset="1" stop-color="#90A955"/>
</linearGradient>
<linearGradient id="paint6_linear_57_84" x1="43.5808" y1="241.051" x2="674.167" y2="156.409" gradientUnits="userSpaceOnUse">
<stop stop-color="#4F772D"/>
<stop offset="1" stop-color="#90A955"/>
</linearGradient>
<linearGradient id="paint7_linear_57_84" x1="43.5808" y1="241.051" x2="674.167" y2="156.409" gradientUnits="userSpaceOnUse">
<stop stop-color="#4F772D"/>
<stop offset="1" stop-color="#90A955"/>
</linearGradient>
<linearGradient id="paint8_linear_57_84" x1="43.5808" y1="241.051" x2="674.167" y2="156.409" gradientUnits="userSpaceOnUse">
<stop stop-color="#4F772D"/>
<stop offset="1" stop-color="#90A955"/>
</linearGradient>
<linearGradient id="paint9_linear_57_84" x1="43.5808" y1="241.051" x2="674.167" y2="156.409" gradientUnits="userSpaceOnUse">
<stop stop-color="#4F772D"/>
<stop offset="1" stop-color="#90A955"/>
</linearGradient>
<linearGradient id="paint10_linear_57_84" x1="43.5808" y1="241.051" x2="674.167" y2="156.409" gradientUnits="userSpaceOnUse">
<stop stop-color="#4F772D"/>
<stop offset="1" stop-color="#90A955"/>
</linearGradient>
</defs>
</svg>
