<svg width="693" height="938" viewBox="0 0 693 938" fill="none" xmlns="http://www.w3.org/2000/svg">
<g clip-path="url(#clip0_66_25)">
<path fill-rule="evenodd" clip-rule="evenodd" d="M52.8386 556.517C52.8386 556.517 53.0933 557.149 53.5964 558.207C56.1258 563.528 64.9338 579.615 79.2147 580.231C96.3359 580.969 115.127 580.62 115.127 580.62C115.127 580.62 106.786 563.304 89.7054 560.563C72.7163 557.837 59.0661 552.937 59.0661 552.937C59.0661 552.937 86.1247 552.181 95.9024 539.412C102.966 530.189 111.215 513.276 111.215 513.276C111.215 513.276 95.2353 519.402 80.3423 527.198C76.3556 529.285 72.5875 532.387 69.1919 535.804C59.9028 545.151 53.4015 556.846 52.8386 556.517Z" fill="black" fill-opacity="0.1"/>
<path d="M44.38 551.515C56.2192 547.205 61.9593 526.879 70.9548 517.704C79.9502 508.53 95.9654 502.43 95.9654 502.43C95.9654 502.43 83.8491 514.082 78.3411 522.524C76.2544 525.722 72.9293 530.487 69.1919 535.804C59.9028 545.151 53.4015 556.846 52.8386 556.517C52.8386 556.517 53.0933 557.149 53.5964 558.207C52.7156 559.515 51.8858 560.763 51.1227 561.933C43.5492 573.54 2.5952 580.231 -12.0002 637.5L-38.5001 637.5C-6.14436 616.134 -9.50011 566.5 44.38 551.515Z" fill="black" fill-opacity="0.1"/>
<path fill-rule="evenodd" clip-rule="evenodd" d="M90.6506 381.267L-10.6891 563.947L-24.2243 547.603L82.612 366.741C116.045 211.873 138.341 142.869 204.864 154.065C235.392 64.7999 291.29 42.8212 317.78 65.6061C343.711 45.0868 361.41 37.1246 399.922 30.6707C412.931 16.6725 425.557 16.899 453.709 25.8123C470.276 15.7892 480.322 13.458 500.194 17.7739C520.036 22.0732 524.968 28.2971 528.236 45.6891C554.514 49.785 565.189 57.0448 580.03 69.6953C615.907 73.7404 633.795 100.955 661.052 143.18C622.851 105.607 565.843 88.4606 425.403 97.448L407.715 105.334C515.923 87.7649 591.383 113.17 666.122 183.696C590.315 135.311 536.122 127.297 381.453 125.744L347.628 146.646C468.827 140.415 612.192 172.011 607.375 275.369C576.73 193.091 497.903 193.056 324.97 165.174L274.274 202.477C385.341 187.054 526.392 236.837 557.421 353.5C496.802 245.529 361.331 249.756 251.604 225.981L197.181 270.651C242.085 241.48 330.064 275.921 518.168 362.573C420.454 337.439 365.908 329.167 268.876 320.809C220.91 310.324 202.814 302.078 185.335 283.532L122.958 340.328C177.237 311.073 366.849 375.062 442.258 422.829C340.079 395.362 319.236 415.349 243.428 398.923C175.761 384.261 150.544 375.879 90.6506 381.267ZM119.168 328.321C120.05 324.25 160.974 172.253 191.526 183.667C169.361 233.841 161.956 260.345 173.786 277.833L119.168 328.321ZM197.944 254.837C206.058 230.242 212.731 215.612 228.929 188.043C246.865 178.161 255.029 174.705 267.91 170.389L256.632 205.231L197.944 254.837ZM276.229 141.829C264.577 142.479 258.533 143.336 249.603 146.713C274.603 91.9647 286.32 85.4228 304.077 79.6822C287.319 105.687 282.454 118.927 276.229 141.829ZM292.332 175.68C333.728 112.063 355.566 79.694 392.808 41.3804C363.045 84.7902 351.38 106.441 350.273 134.436L292.332 175.68ZM397.98 101.094C423.267 44.0807 434.355 27.8798 447.697 31.4342C426.676 53.4337 420.494 67.0281 414.253 92.3686L397.98 101.094ZM518.959 63.9202C529.749 63.785 537.078 64.2041 553.132 65.998C538.898 55.9448 525.972 58.0113 518.959 63.9202ZM510.276 44.9936C491.306 45.3931 483.709 49.8585 472.245 60.723C476.874 51.7088 478.851 46.7665 491.935 36.2255C503.956 35.9429 505.611 39.6639 510.276 44.9936Z" fill="url(#paint0_linear_66_25)"/>
<path d="M-24 756.5L84.5 723C92 691.5 83.5 671.5 90 638.5C95.5152 610.5 115.234 597.291 132.5 595C123.5 606 118.637 616.5 116 633C111.445 661.5 116 674.5 105.5 716.5L116 713.5C127.957 621.289 144.31 588.864 207 598C160.057 617.757 145.585 644.358 132.5 708.5L159 698C187 609.5 244 592 311.5 617.5C238.5 624.5 207.365 645.569 176.5 695L204.5 691.5C233.059 620.927 285.401 620.572 390.5 657C299.141 648.756 253.829 653.249 222 691.5L256.5 689.5C315.511 661.456 401 699 428 736.5C371 723 326.884 688.234 270 695C386.168 726.107 418.115 759.57 447 826.5C410.434 791.782 399.937 778.809 341 756.5C310 744.765 292.5 716.5 264.5 708.5C294.748 770.885 362.429 802.87 419.5 834.5C377 841 288.5 821 251 711.5L219 707C289.727 824.144 331 834.5 397 861.5C313.5 879.5 243.5 816.5 197.5 710L169.5 713.5C264.5 829.5 227 844 329 893.5C235 895.5 204.5 883 155 716.5L134.5 726C176.5 767.5 168 809.5 212 875C169.5 864.5 154.655 853.569 117.5 730.5L105.5 734C130.284 770.5 130 811 155 854C123 846 105.361 830.026 86 740.5L-24 790V756.5Z" fill="url(#paint1_linear_66_25)"/>
</g>
<defs>
<linearGradient id="paint0_linear_66_25" x1="-12.9122" y1="529.813" x2="644.773" y2="75.0537" gradientUnits="userSpaceOnUse">
<stop stop-color="#4F772D"/>
<stop offset="1" stop-color="#90A955"/>
</linearGradient>
<linearGradient id="paint1_linear_66_25" x1="2.48787" y1="878.373" x2="223.358" y2="496.543" gradientUnits="userSpaceOnUse">
<stop stop-color="#4F772D"/>
<stop offset="1" stop-color="#90A955"/>
</linearGradient>
<clipPath id="clip0_66_25">
<rect width="693" height="938" fill="white"/>
</clipPath>
</defs>
</svg>
