<svg width="718" height="1462" viewBox="0 0 718 1462" fill="none" xmlns="http://www.w3.org/2000/svg">
<g clip-path="url(#clip0_89_8)">
<path d="M726.429 1415.02C721.472 1412.93 718.245 1413.07 717.889 1415.39C716.902 1421.82 694.297 1429.02 681.319 1427.04C674.481 1426 669.103 1423.73 669.369 1422C670.101 1417.23 692.665 1405.88 703.383 1404.89C715.463 1403.77 715.684 1401.29 704.52 1392.15L695.503 1384.77L680.665 1396.24C669.373 1404.97 663.299 1407.32 655.252 1406.09C646.199 1404.7 645.255 1403.7 648.695 1399.14C653.514 1392.76 667.755 1383.12 677.28 1379.78C683.666 1377.55 683.473 1376.86 674.643 1370.43C663.383 1362.23 661.654 1361.74 660.914 1366.56C659.625 1374.96 643.139 1387.23 631.274 1388.62C624.336 1389.44 618.06 1389.29 617.328 1388.29C614.566 1384.53 628.451 1370.29 640.468 1364.57C652.764 1358.71 652.842 1358.57 645.282 1355.64C626.608 1348.42 625.3 1348.6 620.751 1359.01C616.142 1369.56 600.404 1380.7 591.95 1379.4C584.705 1378.29 592.091 1362.88 604.442 1353.33L614.513 1345.54L602.29 1343.67C591.226 1341.97 589.937 1342.64 588.695 1350.72C587.41 1359.09 570.193 1376.06 563.958 1375.11C559.322 1374.39 562.744 1363.31 571.245 1351.49C579.056 1340.64 579.149 1340.11 573.406 1339.23C562.693 1337.59 557.053 1340.35 557.733 1346.9C558.54 1354.67 545.609 1374.47 538.751 1375.96C532.674 1377.28 534.847 1356.95 541.771 1347.72C545.373 1342.92 545.094 1341.68 540.261 1340.98C530.947 1339.63 527.118 1343.12 524.894 1354.97C523.633 1361.69 519.503 1368.31 514.272 1372L505.713 1378.04L509.846 1361.16C513.768 1345.15 513.605 1344.37 506.64 1345.79C501.737 1346.79 498.055 1351.14 495.543 1358.87C488.349 1381.03 472.365 1387.28 478.784 1365.42C482.951 1351.23 482.714 1350.82 472.539 1354.4C467.69 1356.11 465.059 1360.38 463.803 1368.56C461.807 1381.56 455.107 1392.33 449.544 1391.47C447.214 1391.11 447.31 1385.77 449.814 1376.52C452.872 1365.24 452.677 1362.36 448.911 1363.18C446.098 1363.79 443.298 1369.21 442.15 1376.28C440.295 1387.7 432.527 1399.04 427.133 1398.21C425.775 1398 426.149 1391.95 427.964 1384.77C431.635 1370.23 428.713 1366.56 423.444 1379.08C420.135 1386.95 397.322 1397.14 393.792 1392.34C390.975 1388.5 402.483 1377.74 412.815 1374.56L422.713 1371.51L414.968 1366.44C401.116 1357.37 406.738 1353.23 426.069 1358.28C446.666 1363.65 452.762 1361.68 438.333 1354.32C432.796 1351.5 427.942 1347.23 427.547 1344.83C426.617 1339.19 441.711 1341.42 455.54 1348.96C469.706 1356.69 478.411 1351.28 465.831 1342.57C461.151 1339.33 457.001 1334.72 456.608 1332.33C455.581 1326.07 476.652 1329.94 484.507 1337.45C488.762 1341.53 493.382 1342.99 498.605 1341.92C506.016 1340.4 505.861 1339.91 495.241 1331.23C484.303 1322.28 483.994 1315.32 494.606 1316.95C497.57 1317.41 506.048 1321.95 513.448 1327.05C523.987 1334.31 528.584 1335.8 534.67 1333.93C540.549 1332.12 541.108 1331.28 536.967 1330.47C533.957 1329.89 528.156 1323.93 524.076 1317.24C517.664 1306.72 517.458 1305.04 522.555 1304.83C531.199 1304.47 546.077 1314.43 551.659 1324.31C555.633 1331.35 558.335 1332.72 566.46 1331.83C574.608 1330.94 575.541 1330.04 571.64 1326.85C565.351 1321.71 557.848 1304.64 560.893 1302.4C564.92 1299.45 585.777 1316.44 590.299 1326.36C592.944 1332.16 597.622 1336.16 602.664 1336.94L610.776 1338.18L604.44 1324.86C598.004 1311.33 597.386 1298.8 603.198 1299.69C609.072 1300.6 626.716 1324.31 627.467 1332.32C628.144 1339.53 635.372 1345.19 646.195 1346.97C649.428 1347.5 649.584 1345.19 646.861 1337.1C642.891 1325.32 645.126 1302.74 650.186 1303.51C655.484 1304.33 665.833 1330.34 666.188 1343.74C666.415 1352.31 668.842 1357.63 674.095 1361.07C684.628 1367.97 684.701 1367.9 681.326 1354.31C678.517 1343 682.693 1321.93 687.548 1322.93C693.515 1324.16 699.581 1344.89 698.502 1360.38C697.469 1375.19 698.517 1378.75 705.343 1383.61C709.776 1386.77 714.085 1389.88 714.919 1390.53C715.753 1391.18 717.797 1382.83 719.462 1371.99C722.696 1350.92 730.288 1340.18 734.687 1350.45C738.674 1359.75 737.168 1384.06 732.001 1393.8C728.151 1401.06 727.97 1404.15 731.183 1407.77C737.62 1415.03 735.205 1418.71 726.429 1415.02L726.429 1415.02Z" fill="black" fill-opacity="0.1"/>
<path d="M209.111 999.478C215.55 1002.47 217.771 1002.77 221.844 1000.83C223.824 999.952 225.412 999.014 225.399 998.749C225.235 998.308 218.254 995.508 215.666 994.819C213.887 994.355 207.996 995.466 206.13 996.581C204.781 997.404 204.869 997.543 209.111 999.478Z" fill="black" fill-opacity="0.1"/>
<path d="M222 975.189C221.499 977.892 221.529 981.426 222.23 986.991L222.485 989.288L225.042 986.013C227.965 982.271 228.516 978.912 227.207 971.783L226.482 967.404L224.932 969.137C222.916 971.363 222.715 971.843 222 975.189Z" fill="black" fill-opacity="0.1"/>
<path d="M246.049 994.881C245.435 997.773 245.832 1002.13 247.304 1009.27L248.46 1014.93L251.179 1010.38C252.653 1007.92 254.011 1004.79 254.186 1003.35C254.636 1000.44 253.048 991.774 251.504 988.192L250.428 985.834L248.49 989.221C247.394 991.054 246.313 993.58 246.049 994.881Z" fill="black" fill-opacity="0.1"/>
<path d="M264.853 997.972C263.69 1005.94 265.212 1012 270.725 1020.69C272.988 1024.36 275.113 1028.12 275.442 1029C276.164 1031.23 277.059 1030.74 277.27 1027.95C277.331 1026.7 277.795 1024.49 278.261 1023.14C279.656 1019.08 279.613 1014.86 278.207 1011.19C276.916 1007.75 266.839 991.783 266.07 991.923C265.83 992.037 265.329 994.74 264.853 997.972Z" fill="black" fill-opacity="0.1"/>
<path d="M567.389 1002.2C566.549 1026.4 570.74 1037.31 588.823 1058.23C593.346 1063.43 598.73 1070.33 600.703 1073.48C602.738 1076.67 604.596 1079.16 604.861 1079.14C605.101 1079.03 605.073 1076.78 604.779 1074.12C604.46 1071.35 604.818 1065.31 605.443 1060.53C607.306 1047.67 606.82 1042.75 602.949 1035.03C600.343 1029.78 594.061 1020.8 588.501 1014.47C584.369 1009.77 569.435 993.898 568.677 993.445C567.856 992.954 567.631 994.192 567.389 1002.2Z" fill="black" fill-opacity="0.1"/>
<path d="M181.245 915.922C181.296 916.982 181.096 917.891 180.793 917.968C180.49 918.044 181.2 920.441 182.301 923.329C183.504 926.192 184.34 928.665 184.264 928.791C184.189 928.917 183.519 928.174 182.761 927.292C181.952 926.208 180.474 925.239 179.212 924.914L177.079 924.325L178.899 926.871C180.265 928.888 181.136 929.58 182.89 929.943C184.872 930.355 185.352 930.985 187.996 936.597C191.767 944.768 191.831 945.235 189.355 943.069C187.309 941.332 183.396 940.28 182.791 941.291C182.64 941.544 183.639 942.741 185.041 943.836C186.935 945.397 188.084 945.912 189.838 945.845C192.058 945.715 192.147 945.853 195.524 952.246C197.396 955.852 198.813 958.929 198.738 959.056C198.662 959.182 197.147 958.276 195.467 956.929C193.093 955.167 191.754 954.539 189.584 954.442C185.382 954.161 185.017 955.058 188.314 957.714C191.118 959.905 194.955 961.083 195.635 959.946C195.824 959.63 196.694 959.464 197.552 959.462C198.801 959.523 199.926 960.795 202.822 965.699C204.845 969.053 206.439 971.978 206.325 972.168C206.212 972.357 204.823 971.527 203.332 970.293C201.741 969.085 199.531 967.764 198.345 967.312C196.035 966.446 190.723 966.873 190.977 967.883C191.015 968.249 192.847 969.772 194.943 971.283C198.694 974.039 198.82 974.115 202.832 973.425C206.768 972.861 206.995 972.911 208.398 974.864C213.087 981.355 214.706 983.952 214.479 984.332C214.29 984.647 212.472 983.818 210.389 982.573C206.032 979.969 202.524 979.244 199.081 980.274L196.646 981.049L199.261 983.127C203.391 986.539 206.66 987.377 211.327 986.307L215.49 985.364L220.886 992.106C223.869 995.862 228.911 1001.62 232.221 1004.97C235.43 1008.35 238.147 1011.26 238.261 1011.5C238.387 1012 234.866 1011.44 231.055 1010.36C225.892 1008.82 221.804 1009.21 217.631 1011.6L213.735 1013.82L216.462 1014.85C221.915 1016.91 228.289 1018.14 230.446 1017.55C231.631 1017.14 233.762 1016.01 235.224 1015C239.283 1011.94 239.182 1011.96 244.399 1016.28C247.039 1018.46 250.676 1021.4 252.647 1022.84C254.516 1024.3 255.678 1025.51 255.237 1025.67C254.77 1025.74 251.931 1025.33 248.839 1024.77C241.254 1023.41 236.927 1023.91 232.489 1026.74C230.51 1028.05 228.657 1029.43 228.392 1029.87C227.448 1031.45 243.072 1034.27 246.78 1033.23C247.991 1032.92 250.664 1031.17 252.844 1029.39L256.752 1026.15L265.186 1030.68C269.883 1033.14 275.552 1035.84 277.799 1036.67C280.109 1037.54 281.99 1038.41 282.041 1038.61C282.193 1039.21 276.515 1039.68 272.477 1039.41C266.736 1038.98 258.827 1041.03 255.235 1044.03C251.618 1046.93 248.203 1050.63 248.835 1051.01C249.087 1051.16 252.658 1051.49 256.835 1051.67C268.86 1052.34 275.393 1050.16 279.095 1043.97C279.662 1043.02 281.098 1041.47 282.283 1040.64C284.136 1039.26 284.931 1039.22 288.25 1040.26C291.987 1041.46 298.259 1042.73 304.43 1043.58L307.472 1043.94L305.467 1045.15C304.395 1045.79 300.272 1047.53 296.337 1048.95C292.377 1050.27 287.421 1052.54 285.303 1053.94C281.937 1056.13 281.143 1057.03 277.694 1062.94C275.579 1066.48 273.968 1069.89 274.12 1070.5C274.45 1071.81 289.119 1067.62 294.994 1064.53C300.151 1061.78 302.369 1059.08 304.064 1053.23C304.78 1050.74 306.038 1047.63 306.793 1046.37C308.078 1044.22 308.519 1044.05 312.103 1044.22C316.999 1044.49 329.313 1043.96 336.567 1043.15C339.531 1042.78 342.08 1042.67 342.131 1042.87C342.283 1043.48 336.129 1046.32 331.299 1047.81C325.144 1049.79 320.012 1052.21 315.7 1055.12C312.813 1057.09 311.516 1058.54 308.872 1062.96C305.095 1069.28 302.679 1074.61 303.437 1075.07C303.689 1075.22 308.709 1073.84 314.549 1072.1C331.55 1066.74 336.806 1062.68 339.267 1052.83C340.56 1047.94 343.569 1042.62 345.41 1042.26C347.328 1041.78 369.432 1040.49 378.554 1040.28C382.856 1040.11 387.55 1040 389.001 1040.01C391.549 1039.9 391.613 1039.94 389.986 1040.51C389.065 1040.91 384.814 1041.71 380.474 1042.38C366.649 1044.58 358.514 1047.43 353.019 1052.04C349.641 1054.82 338.733 1069.06 339.037 1070.27C339.316 1071.38 360.195 1068.85 368.809 1066.62C373.35 1065.48 378.508 1063.59 380.387 1062.31C383.614 1060.21 384.231 1059.46 389.784 1050.17C393.221 1044.42 396.117 1040.15 396.723 1039.99C400.179 1039.23 448.735 1042.01 448.951 1043.08C449.128 1043.78 437.522 1045.42 430.141 1045.73C411.103 1046.62 400.434 1050.7 391.299 1060.68C386.259 1066.25 381.221 1073.1 382.218 1073.01C382.647 1073.01 387.832 1072.93 393.775 1072.88C408.373 1072.69 414.517 1072.16 421.719 1070.29C430.763 1068.06 433.183 1066.16 439.618 1056.54C444.983 1048.43 448.196 1044.77 450.781 1043.74C452.383 1043.07 472.057 1046 486.483 1048.96C498.245 1051.36 511.977 1054.76 512.104 1055.26C512.358 1056.27 499.691 1056.68 490.832 1056.02C464.421 1054.04 453.549 1057.32 438.275 1071.69C430.739 1078.85 430.059 1079.56 430.69 1079.94C430.943 1080.09 436.887 1080.9 443.853 1081.71C462.353 1084.02 474.503 1083.91 483.156 1081.62C489.084 1080.02 493.181 1076.89 499.795 1068.84C506.446 1060.72 512.837 1055.62 515.638 1056.09C521.305 1057.08 544.999 1065.32 558.241 1070.83C567.773 1074.81 583.201 1081.98 583.328 1082.48C583.67 1083.63 567.011 1080.96 559.135 1078.66C536.415 1071.94 521.778 1071.77 508.412 1077.93C503.141 1080.44 486.385 1090.84 486.525 1091.61C486.639 1091.85 492.585 1093.94 499.792 1096.37C530.188 1106.3 545.192 1107.72 556.237 1101.71C558.444 1100.46 563.196 1096.95 566.763 1093.85C571.136 1090.12 575.069 1087.41 578.865 1085.65L584.439 1083.06L590.07 1085.83C609.526 1095.57 636.248 1113.51 657.228 1131.03L670.63 1142.72C684.223 1154.97 699.447 1170.93 712.185 1186.17L717.632 1192.69L725.341 1202.44L732.891 1185.65L725.714 1178.31L716.11 1166.99C715.845 1167 713.723 1164.96 711.284 1162.31C705.876 1156.59 697.74 1148.55 688.607 1140.17C684.817 1136.62 679.285 1132.12 679.259 1131.59C678.627 1131.21 676.821 1129.79 675.217 1128.31C671.011 1124.6 654.806 1112 648.542 1107.57C645.536 1105.43 642.176 1102.73 641.961 1102.09C641.772 1102.4 637.062 1099.67 631.304 1095.98C615.165 1085.56 599.319 1076.94 581.291 1068.83C567.227 1062.39 568.351 1063.24 566.767 1058.43C565.995 1056 565.168 1050.79 564.872 1046.84C563.883 1033.29 561.428 1027.79 552.673 1019.22C546.622 1013.28 539.815 1008.19 526.706 999.58L515.985 992.571L516.469 996.206C517.297 1002.28 521.455 1017.11 523.555 1021.63C527.136 1029.26 535.879 1038.43 547.675 1046.93C557.753 1054.16 566.646 1061.79 564.626 1061.44C563.844 1061.32 558.732 1059.55 553.341 1057.53C547.913 1055.57 539.973 1052.8 535.719 1051.45C527.919 1049.02 527.855 1048.98 526.262 1046.49C525.478 1045.08 523.465 1039.41 521.868 1033.91C517.66 1019.3 514.323 1014.99 500.623 1006.8C493.425 1002.5 469.299 991.256 467.86 991.511C466.99 991.677 470.043 1000.62 473.231 1007.33C479.911 1021.53 486.758 1027.42 514.119 1042.15C526.328 1048.67 527.035 1048.49 507.484 1043.93C502.07 1042.66 494.371 1041.06 490.37 1040.3L482.949 1038.95L480.282 1034.96C478.765 1032.77 476.475 1028.14 475.285 1024.68C470.701 1011.99 465.736 1006.97 451.356 1000.77C443.428 997.407 420.353 989.705 419.938 990.4C419.56 991.032 428.16 1006.46 431.067 1010.35C437.248 1018.5 446.605 1024.35 463.394 1030.53C471.713 1033.52 481.51 1037.92 481.208 1038.43C481.132 1038.55 479.037 1038.33 476.526 1037.95C474.115 1037.53 465.42 1036.45 457.205 1035.58L442.415 1033.94L439.522 1030.75C437.968 1029.05 435.199 1024.65 433.365 1020.98C431.493 1017.38 429.002 1013.23 427.826 1011.75C425.008 1008.44 417.747 1004.1 410.805 1001.67C405.377 999.709 381.055 994.092 379.58 994.411C378.571 994.665 387.711 1008.19 391.703 1012.55C394.243 1015.18 396.339 1016.69 402.652 1020.04C410.203 1024.04 412.74 1024.95 427.041 1028.7C430.537 1029.58 435.043 1031.08 437.088 1031.96L440.787 1033.65L434.276 1033.36C430.655 1033.26 421.368 1033.02 413.621 1032.94C397.269 1032.77 398.039 1033.06 390.921 1022.46C387.002 1016.69 386.573 1016.26 381.105 1013.08C376.711 1010.54 374.085 1009.48 369.921 1008.71C363.522 1007.37 342.574 1005.14 342.234 1005.71C341.818 1006.41 348.971 1014.8 353.506 1018.97C357.333 1022.46 358.786 1023.32 363.141 1025.07C368.847 1027.28 377.985 1029.48 383.108 1029.8C386.78 1030.11 396.725 1032.1 396.461 1032.55C396.385 1032.67 391.843 1032.96 386.418 1033.15C381.056 1033.37 371.404 1034.04 365.033 1034.52C358.687 1035.1 353.224 1035.35 352.845 1035.13C351.709 1034.45 349.774 1030.8 347.47 1025.05C344.622 1018.2 342.247 1015.58 335.605 1012.21C330.303 1009.47 312.782 1003.37 312.366 1004.07C312.064 1004.58 317.591 1014.4 320.017 1017.65C323.127 1021.91 329.428 1025.85 338.921 1029.46C343.503 1031.26 348.427 1033.34 349.69 1034.1L352.026 1035.49L343.435 1036.53C338.641 1037.1 332.245 1037.91 329.179 1038.31C326.114 1038.7 321.761 1039.1 319.515 1039.13L315.351 1039.22L314.413 1035.48C313.88 1033.36 313.118 1029.48 312.724 1026.84C312.176 1023.17 311.341 1021.13 309.256 1018.59C306.602 1015.29 297.041 1007.78 290.285 1003.74L286.876 1001.7L288.424 1008.29C291.125 1019.25 294.095 1023.17 306.51 1032.22C310.198 1034.94 313.558 1037.63 313.874 1038.25C315.619 1041.35 287.792 1036.73 278.941 1032.47C277.666 1031.88 276.189 1031.34 275.596 1031.32C273.615 1031.34 256.253 1021.39 250.014 1016.63C241.906 1010.42 234.958 1004.12 234.918 1002.89C234.892 1002.36 235.962 1000.43 237.424 998.56C239.59 995.652 239.892 994.717 239.938 991.486C239.961 989.441 239.286 985.264 238.462 982.198L236.941 976.572L234.928 980.943C232.286 986.655 232.011 988.978 233.281 995.741C234.159 1000.73 234.199 1002.81 233.378 1002.32C233.252 1002.24 230.75 999.546 227.857 996.358C221.236 989.228 212.793 978.263 212.766 976.875C212.778 976.282 213.545 974.424 214.527 972.781C216.265 969.874 216.277 969.281 214.894 963.566L213.448 957.384L212.012 959.785C210.237 962.755 210.027 965.975 211.157 971.539C211.639 973.886 211.831 975.716 211.515 975.527C211.2 975.338 209.202 972.515 207.041 969.25L203.033 963.338L205.337 959.484C207.49 955.881 207.565 955.326 206.928 950.228C206.52 947.325 205.924 944.739 205.608 944.55C204.724 944.022 202.421 948.306 202.033 951.248C201.796 952.649 201.963 955.666 202.357 957.874C202.714 960.145 202.931 962.076 202.855 962.203C202.78 962.329 200.984 959.455 198.948 955.836L195.154 949.28L196.816 946.5C198.214 944.162 198.364 943.051 197.704 939.997L196.955 936.376L195.532 938.613C194.625 940.13 194.312 942.087 194.568 944.813L194.952 948.902L193.611 946.128C192.865 944.653 191.347 941.601 190.158 939.432C188.172 935.587 188.184 935.422 189.796 932.869C190.992 931.011 191.394 929.622 191.09 928.411C190.684 926.796 190.621 926.758 189.412 928.78C188.732 929.918 188.179 931.56 188.079 932.444C188.08 933.302 187.867 933.946 187.677 933.833C187.488 933.72 185.957 930.403 184.337 926.519C181.641 920.276 181.425 919.203 182.445 917.497C183.087 916.423 183.577 914.314 183.487 912.888L183.357 910.237L182.224 912.133C181.582 913.207 181.155 914.925 181.245 915.922Z" fill="black" fill-opacity="0.1"/>
<path d="M305.69 287.97C321.732 289.682 328.395 291.684 337.318 297.239C345.816 302.59 353.096 309.206 362.87 320.378C366.478 324.524 371.991 330.04 375.09 332.643C378.171 335.174 380.58 337.409 380.47 337.586C380.376 337.834 377.633 337.414 374.36 336.663C371.104 335.985 365.701 335.502 362.126 335.728C344.398 336.522 336.752 333.54 323.324 320.951C318.385 316.284 294.55 288.819 294.201 287.315C294.051 286.67 294.818 286.718 305.69 287.97Z" fill="black" fill-opacity="0.1"/>
<path d="M185.379 6.50971C190.958 10.8995 192.229 12.7455 192.341 17.2554C192.456 19.4169 192.339 21.2577 192.096 21.3661C191.628 21.4189 185.973 16.4594 184.188 14.4632C182.97 13.0856 181.296 7.32936 181.446 5.16099C181.571 3.58546 181.734 3.60166 185.379 6.50971Z" fill="black" fill-opacity="0.1"/>
<path d="M169.547 28.9907C171.73 27.3214 174.896 25.7494 180.176 23.8575L182.34 23.0463L180.576 26.8081C178.56 31.1073 175.814 33.1178 168.863 35.1751L164.63 36.5091L165.475 34.3433C166.548 31.5386 166.885 31.1419 169.547 28.9907Z" fill="black" fill-opacity="0.1"/>
<path d="M197.987 41.5325C200.288 39.6764 204.351 38.0609 211.386 36.1443L216.961 34.6124L214.133 39.0958C212.602 41.5243 210.422 44.1533 209.217 44.9602C206.831 46.6756 198.381 49.1798 194.488 49.4228L191.898 49.5303L194.042 46.2692C195.181 44.4634 196.946 42.3556 197.987 41.5325Z" fill="black" fill-opacity="0.1"/>
<path d="M209.249 56.9051C215.828 52.264 221.918 50.8822 232.169 51.8643C236.464 52.2235 240.776 52.419 241.712 52.3132C244.03 51.9473 243.995 52.9693 241.602 54.4194C240.515 55.0395 238.754 56.4529 237.758 57.479C234.773 60.5575 230.982 62.4315 227.073 62.8383C223.429 63.2383 204.627 61.4755 204.404 60.7257C204.397 60.4604 206.581 58.791 209.249 56.9051Z" fill="black" fill-opacity="0.1"/>
<path d="M299.95 244.945C324.09 246.852 334.455 252.251 353.201 272.587C357.847 277.67 364.098 283.801 367.006 286.118C369.945 288.502 372.201 290.629 372.158 290.891C372.017 291.116 369.788 290.833 367.176 290.24C364.466 289.61 358.417 289.281 353.604 289.361C340.609 289.755 335.774 288.715 328.545 283.995C323.628 280.812 315.411 273.552 309.756 267.311C305.555 262.674 291.475 246.038 291.11 245.234C290.716 244.363 291.971 244.279 299.95 244.945Z" fill="black" fill-opacity="0.1"/>
<path d="M380.644 277.137L381.556 283.344C384.885 304.846 393.804 335.774 404.069 361.103C406.83 367.786 407.056 368.111 406.871 365.36C406.672 360.272 403.879 349.216 399.798 337.176C396.515 327.593 395.645 324.171 394.611 316.784C392.457 300.672 393.249 293.994 398.935 281.045C401.61 274.988 410.63 259.15 411.491 258.951C412.136 258.801 421.71 283.762 425.221 294.651C429.546 308.069 431.472 322.875 429.802 329.681C428.533 334.959 425.014 341.289 419.499 348.459C413.62 356.016 411.191 360.204 409.047 366.592L407.826 370.122L411.112 377.439C418.613 394.122 429.157 413.497 439.782 430.285L444.32 437.462L442.722 429.602C441.518 423.766 440.145 419.478 437.069 412.415C431.16 398.685 430.667 397.213 428.177 386.163C424.335 369.612 424.767 362.036 430.247 347.549C433.746 338.204 440.754 324.118 441.549 324.613C441.991 324.888 452.865 347.961 456.423 356.121C459.963 364.209 465.499 385.124 465.655 390.676C465.835 398.94 463.976 404.28 457.46 414.627C450.465 425.841 448.433 429.787 446.906 435.578L445.763 439.77L451.251 447.783C460.47 461.123 470.185 473.667 482.926 488.831C492.535 500.268 495.115 502.916 494.892 501.306C494.502 497.999 489.13 485.277 485.88 480.066C477.726 467.084 470.59 450.996 467.89 439.692C464.962 427.082 467.158 412.451 475.201 391.102C476.736 386.97 477.914 384.884 478.279 385.479C478.627 386.003 480.54 389.032 482.663 392.315C499.86 419.508 505.843 430.956 509.561 444.364C511.395 450.961 512.149 454.863 512.053 457.377C511.839 463.619 509.387 471.286 504.597 480.931C500.253 489.566 497.46 498.369 497.427 503.436C497.353 505.719 498.298 506.859 512.39 521.332C526.394 535.75 552.218 559.732 552.769 558.849C553.154 558.231 548.204 547.978 545.352 543.506C543.821 541.143 539.924 535.101 536.635 530.05C526.823 514.809 519.896 497.993 519.178 487.739C518.45 478.092 521.431 460.334 526.254 445.623L527.782 440.813L529.054 442.708C529.733 443.682 533.956 449.498 538.388 455.567C554.531 477.568 562.647 491.692 566.552 504.604C569.797 515.328 569.023 523.059 563.272 536.702C558.302 548.503 557.753 550.367 557.042 556.422L556.243 562.422L564.782 569.576C579.22 581.628 599.262 596.985 615.795 608.626L617.877 610.106L616.782 607.34C614.402 601.323 608.703 592.075 602.187 583.545C590.643 568.329 584.042 556.496 580.01 543.69C577.656 536.156 577.308 530.423 578.53 518.435C579.508 509.298 583.442 490.111 584.391 489.966C585.037 489.816 602 510.796 609.052 520.335C615.109 528.518 622.456 540.631 624.979 546.614C626.13 549.292 627.614 554.384 628.297 558.303C629.847 566.929 629.118 571.931 624.135 585.623C621.302 593.605 620.324 597.532 619.867 603.377L619.274 610.915L622.853 613.633C628.475 617.991 680.656 650.351 696.309 659.176C723.177 674.308 725.744 675.6 732.445 677.442C741.635 679.914 744.766 681.679 745.498 684.832C746.745 690.205 740.966 703.402 736.301 705.769C733.869 707.013 729.916 705.288 720.666 698.979C716.094 695.887 709.446 691.994 705.902 690.4C686.993 681.878 639.268 652.107 609.215 630.089L602.002 624.741L599.25 625.909C592.113 628.698 586.12 632.506 578.021 639.294C567.062 648.408 562.844 650.747 553.636 652.432C545.002 653.983 536.46 653.324 521.607 649.901C511.86 647.633 505.109 645.576 483.57 638.419L474.727 635.489L477.82 633.185C482.958 629.274 497.77 620.474 503.908 617.614C512.169 613.808 521.741 611.737 530.167 611.895C542.395 612.152 556.297 614.738 572.034 619.693C578.393 621.69 592.958 624.198 598.724 624.294C601.456 624.339 602.792 625.539 583.496 610.462C575.355 604.046 565.104 595.704 560.669 591.901C555.637 587.481 552.108 584.978 551.32 585.161C546.713 586.155 538.685 590.964 530.25 597.604C516.473 608.58 510.34 611.137 498.879 610.928C484.151 610.648 471.12 607.255 436.475 594.76C431.612 593.019 427.604 591.382 427.482 591.184C427.333 590.539 435.08 585.494 443.302 580.866C463.385 569.71 475.158 567.354 495.39 570.51C504.402 571.891 508.741 572.998 520.515 576.833C525.913 578.601 531.847 580.394 533.768 580.855C536.897 581.638 549.171 583.395 550.032 583.195C550.247 583.145 548.49 581.438 546.132 579.419C543.757 577.327 535.775 569.968 528.483 562.977L515.11 550.3L506.604 552.728C500.36 554.48 496.566 556.041 492.49 558.346C489.353 560.132 484.257 562.598 481.146 563.849C468.599 568.726 455.106 567.252 431.578 558.368C423.469 555.342 394.121 542.221 394.396 541.78C394.892 540.985 407.313 536.214 415.642 533.676C428.82 529.559 437.266 528.504 447.012 529.79C459.772 531.359 471.479 534.908 489.084 542.373C492.772 543.934 500.053 546.321 505.352 547.658C513.443 549.63 514.762 549.777 513.497 548.561C509.227 544.493 493.902 527.965 486.283 519.238L477.614 509.245L469.45 511.518C462.99 513.319 459.825 514.658 454.288 517.832C448.768 521.076 445.586 522.344 439.126 524.146C431.68 526.252 430.427 526.392 424.776 525.816C412.029 524.623 396.688 519.425 370.873 507.523C361.642 503.248 356.9 500.724 357.39 500.233C357.826 499.83 361.587 498.126 365.795 496.394C375.524 492.398 396.63 487.271 402.286 487.544C414.669 488.142 431.327 492.505 446.233 499.088C456.479 503.505 462.551 505.568 470.824 507.347L476.945 508.645L469.005 498.86C464.651 493.452 458.71 485.77 455.814 481.761L450.509 474.535L446.795 474.491C442.011 474.394 437.532 475.283 423.714 479.246C413.217 482.212 411.909 482.44 407.003 482.144C394.179 481.271 377.66 472.949 347.657 452.127L340.175 446.917L348.278 445.036C361.474 441.972 375.173 440.755 383.242 441.977C387.552 442.638 397.516 445.837 403.842 448.672C406.608 449.842 415.222 454.714 422.963 459.41C436.767 467.759 450.316 474.354 448.536 471.898C443.446 464.622 433.248 449.018 428.156 440.762L421.832 430.45L417.445 430.11C414.377 429.916 408.953 430.646 399.316 432.431C383.908 435.404 379.444 435.384 371.136 432.48C365.776 430.553 351.315 421.98 343.345 415.977C334.725 409.446 315.692 393.552 315.967 393.111C316.369 392.564 330.361 390.977 337.385 390.63C344.497 390.338 354.557 391.023 358.984 392.185C368.604 394.557 382.811 402.359 396.259 412.753C405.089 419.537 419.75 428.97 420.318 428.159C420.411 427.911 419.117 425.266 417.331 422.132C413.538 415.235 408.373 405.032 403.19 393.776C400.966 389.082 398.766 385.138 398.269 384.952C395.216 383.848 384.611 383.743 376.914 384.775C366.371 386.241 362.818 386.235 356.145 384.84C349.632 383.482 337.297 375.926 326.896 366.939C319.594 360.554 298.415 339.647 298.762 339.189C299.109 338.731 314.934 338.53 320.519 338.819C328.404 339.254 337.395 340.866 341.635 342.525C351.869 346.567 365.598 356.216 378.408 368.42C385.699 375.411 398.368 384.4 397.868 382.251C397.702 381.534 396.9 379.38 395.987 377.402C393.735 372.261 386.689 352.981 384.385 345.662C383.267 342.147 382 338.967 381.453 338.566C380.994 338.219 380.823 337.806 381.182 337.723C381.54 337.639 380.381 332.321 378.619 325.707C371.828 300.449 374.206 274.609 359.978 252.512L350.293 240.192L345.553 235.035L335.074 239.591C329.35 241.583 325.79 241.523 318.884 239.591C309.956 235.972 305.032 230.996 296.428 222.301L296.104 221.973C289.516 216.424 272.21 199.329 272.642 198.644C273.034 198.021 290.688 198.711 295.465 199.548C305.532 201.372 314.982 207.071 328.083 219.251C334.521 225.314 342.874 232.063 343.188 231.564C343.267 231.44 342.121 229.672 340.641 227.607C339.183 225.643 334.287 218.377 329.788 211.448L321.64 198.997L317.488 197.858C315.268 197.242 310.092 196.762 305.99 196.786C301.927 196.747 297.101 196.402 295.254 196.02C291.024 195.006 283.87 190.493 278.559 185.402C274.357 181.447 258.347 162.296 257.964 160.836C257.735 159.821 273.931 161.855 279.625 163.444C283.122 164.518 285.417 165.705 291.255 169.822C298.236 174.748 300.201 176.596 310.009 187.657C312.383 190.373 315.752 193.717 317.462 195.143L320.648 197.675L317.445 191.999C315.712 188.817 311.304 180.64 307.724 173.769C300.178 159.26 300.784 159.817 288.11 158.264C281.189 157.38 280.613 157.19 275.302 153.754C271.048 150.984 268.92 149.119 266.346 145.755C262.259 140.653 250.797 122.978 251.151 122.417C251.583 121.732 262.302 124.315 268.071 126.475C272.914 128.31 274.345 129.213 277.871 132.308C282.423 136.397 288.52 143.551 291.121 147.976C293.056 151.112 299.337 159.078 299.612 158.642C299.69 158.517 297.892 154.337 295.606 149.413C293.382 144.529 289.609 135.62 287.156 129.721C284.804 123.798 282.557 118.812 282.184 118.577C281.064 117.871 276.939 117.793 270.768 118.339C263.372 118.897 259.96 117.964 253.952 113.565C249.109 110.075 235.745 97.2067 236.177 96.5217C236.492 96.0235 247.751 96.51 251.749 97.2037C256.954 98.05 263.316 101.889 270.835 108.72C274.509 111.995 278.595 115.443 279.839 116.228L282.141 117.679L279.183 109.547C277.519 105.015 275.348 98.9453 274.316 96.0313C273.284 93.1174 271.672 89.0544 270.683 87.0378L268.875 83.2862L265.12 84.1383C262.989 84.6219 259.178 85.7 256.648 86.541C253.125 87.7138 250.925 87.8929 247.723 87.1788C243.578 86.3052 232.55 81.1775 225.894 76.9787L222.534 74.8598L229.108 73.2614C240.108 70.712 244.947 71.5881 258.634 78.567C262.726 80.6263 266.649 82.4041 267.343 82.4067C270.899 82.5603 254.188 59.8337 246.385 53.8675C245.281 52.9974 244.132 51.9243 243.853 51.4005C242.972 49.6262 226.247 38.6415 219.181 35.2292C209.967 30.8103 201.209 27.462 200.099 27.9806C199.615 28.1973 198.374 30.0261 197.366 32.1757C195.753 35.4231 195.055 36.1149 192.194 37.6178C190.381 38.5629 186.351 39.8509 183.244 40.5025L177.537 41.6906L180.526 37.9178C184.424 32.9781 186.372 31.6824 192.979 29.7564C197.82 28.2842 199.696 27.3783 198.888 26.8682C198.763 26.7897 195.227 25.778 191.075 24.6391C181.721 21.9595 168.124 19.389 166.873 19.9929C166.35 20.2719 165.04 21.7962 164.019 23.4152C162.212 26.2796 161.689 26.5585 155.966 27.9104L149.798 29.4167L151.291 27.0504C153.137 24.1238 155.913 22.4801 161.386 20.9712C163.698 20.34 165.416 19.6833 165.105 19.4871C164.794 19.2909 161.373 18.7866 157.483 18.3353L150.398 17.4352L148.002 21.2336C145.764 24.783 145.302 25.1011 140.467 26.8386C137.694 27.7879 135.117 28.426 134.806 28.2298C133.935 27.6804 136.714 23.6883 139.163 22.0122C140.305 21.166 143.072 19.9514 145.219 19.304C147.406 18.5944 149.226 17.9145 149.305 17.79C149.383 17.6655 146.008 17.3643 141.86 17.185L134.297 16.7668L132.569 19.5067C131.115 21.8107 130.192 22.447 127.171 23.2394L123.602 24.2092L124.954 21.9282C125.896 20.4338 127.501 19.2694 130.047 18.2646L133.868 16.7574L130.787 16.8162C129.134 16.8179 125.726 16.8442 123.254 16.7648C118.926 16.7332 118.785 16.8185 117.237 19.4108C116.121 21.3181 115.063 22.305 113.845 22.5814C112.222 22.9498 112.159 22.9106 113.416 20.918C114.123 19.7971 115.338 18.5611 116.081 18.0724C116.847 17.6851 117.325 17.2032 117.138 17.0855C116.951 16.9677 113.301 17.1024 109.104 17.4145C102.317 17.834 101.263 18.1266 100.202 19.8079C99.5346 20.8664 97.8749 22.2568 96.5622 22.8215L94.1396 23.9048L95.3179 22.0367C95.9856 20.9781 97.3244 19.8206 98.2542 19.4495C99.2232 19.0162 99.9433 18.426 99.8745 18.1214C99.8057 17.8169 102.264 17.3657 105.339 17.0416C108.436 16.8191 111.019 16.4464 111.097 16.3218C111.176 16.1973 110.21 15.9362 109.081 15.659C107.748 15.4278 106.216 14.5483 105.354 13.5699L103.864 11.9337L106.958 12.4055C109.375 12.711 110.386 13.175 111.503 14.5757C112.767 16.1564 113.546 16.2997 119.747 16.1199C128.741 15.7866 129.186 15.6322 126.134 14.4038C123.659 13.3647 120.951 10.3509 121.579 9.35462C121.737 9.10553 123.256 9.45448 124.867 10.2094C127.116 11.193 128.095 11.9847 128.829 13.579C129.716 15.6186 129.88 15.6348 137.109 15.7552C141.172 15.7937 144.557 15.6658 144.636 15.5413C144.714 15.4168 143.221 14.475 141.26 13.5861C138.614 12.2656 137.449 11.3562 136.381 9.46419C134.229 5.84392 134.864 5.1129 138.725 6.85145C141.947 8.36137 144.733 11.2506 144.026 12.3715C143.83 12.6828 144.076 13.5341 144.462 14.3002C145.081 15.3869 146.725 15.8143 152.408 16.1787C156.314 16.4663 159.644 16.5644 159.762 16.3776C159.88 16.1908 158.511 15.3276 156.736 14.5564C154.939 13.6837 152.761 12.3103 151.821 11.4564C150.004 9.78782 147.983 4.85732 148.998 4.62703C149.342 4.49567 151.529 5.44002 153.824 6.62663C157.979 8.72516 158.104 8.80364 159.303 12.6934C160.58 16.4587 160.728 16.6387 163.105 17.0064C171.015 18.2529 174.063 18.5217 174.298 18.148C174.495 17.8367 172.933 16.5904 170.88 15.2954C166.587 12.5878 164.354 9.78648 163.715 6.24984L163.305 3.72831L166.34 5.12051C171.252 7.26086 173.478 9.79695 174.635 14.4434L175.677 18.5823L184.131 20.3457C188.829 21.3071 196.245 23.1993 200.73 24.6359C205.193 25.971 209.017 27.0775 209.282 27.0707C209.79 26.9555 207.697 24.0688 205.012 21.1566C201.302 17.2496 199.799 13.4289 200.047 8.62384L200.262 4.14636L202.413 6.11262C206.716 10.0452 210.701 15.1702 211.144 17.3642C211.317 18.6053 211.275 21.016 211.033 22.7783C210.137 27.7838 210.114 27.6823 216.325 30.3814C219.462 31.7506 223.735 33.6623 225.906 34.7704C228.054 35.777 229.658 36.2667 229.606 35.7984C229.452 35.3531 227.801 33.0064 225.902 30.5028C221.258 24.3532 219.748 20.2672 220.271 15.0263C220.539 12.6711 220.931 10.3944 221.206 9.9585C222.188 8.40177 231.77 21.0608 232.517 24.8397C232.793 26.0578 232.443 29.2319 231.838 31.9838L230.716 36.9338L238.568 42.4087C242.89 45.4831 247.864 49.3167 249.619 50.946C251.436 52.6146 253.06 53.9001 253.263 53.8541C253.872 53.7159 251.72 48.4416 249.654 44.9621C246.673 40.0358 244.924 32.0557 245.974 27.4955C246.923 22.9583 248.683 18.2369 249.305 18.6293C249.554 18.7863 251.467 21.8205 253.517 25.4638C259.553 35.8862 260.559 42.701 256.71 48.8034C256.121 49.7374 255.394 51.7164 255.185 53.1512C254.792 55.4279 255.117 56.1547 257.546 58.6447C260.31 61.4325 264.273 66.456 267.829 71.5716L269.525 74.1214L269.692 71.7892C269.783 70.5412 269.468 66.0774 268.957 61.9249C268.344 57.7954 268.127 52.3488 268.411 49.8299C268.843 45.8369 269.284 44.7229 272.999 38.971C275.199 35.4839 277.513 32.5044 278.122 32.3662C279.441 32.0668 282.345 47.0417 282.244 53.6807C282.124 59.5239 280.714 62.7253 276.265 66.8828C274.37 68.6468 272.167 71.1742 271.381 72.4196C270.046 74.5368 270.098 75.0051 271.87 78.1246C274.323 82.3702 279.42 93.5927 281.978 100.429C282.987 103.241 284.044 105.562 284.247 105.516C284.856 105.378 284.606 98.6052 283.748 93.6243C282.732 87.2386 282.57 81.566 283.218 76.4035C283.662 72.9411 284.372 71.1259 287.122 66.7671C291.049 60.5401 294.712 55.974 295.459 56.4449C295.707 56.6018 296.753 61.7004 297.841 67.6963C300.748 85.2848 299.502 91.8103 291.829 98.4603C288.054 101.825 284.67 106.914 285.184 108.719C285.62 110.647 294.473 130.942 298.413 139.172C300.205 143.087 302.229 147.323 302.894 148.613C303.952 150.934 304.014 150.973 303.788 149.264C303.722 148.265 302.517 144.11 301.147 139.939C296.856 126.613 295.725 118.065 297.348 111.081C298.303 106.809 306.066 90.641 307.284 90.3647C308.4 90.1114 315.587 109.877 317.497 118.567C318.529 123.135 319.175 128.591 318.884 130.845C318.469 134.674 318.083 135.562 312.309 144.716C308.735 150.382 306.234 154.898 306.372 155.507L332.745 200.692C333.456 200.531 329.669 189.438 326.604 182.717C318.782 165.337 317.602 153.973 322.369 141.313C325.053 134.301 328.885 126.708 329.255 127.638C329.449 128.021 331.728 132.679 334.371 138.002C340.8 151.11 343.106 156.83 344.695 164.099C346.799 173.173 346.2 176.19 340.532 186.28C335.72 194.735 333.914 199.253 334.167 202.024C334.288 203.706 350.247 223.772 359.566 235.49L360.394 236.53C362.881 234.593 362.94 232.914 357.967 227.678C354.431 222.711 352.583 219.508 350.027 211.621C347.622 197.95 349.323 190.8 353.436 178.23C356.414 168.27 356.738 167.342 357.36 167.735C357.609 167.892 361.018 172.828 364.898 178.67L382.591 213.766C383.843 219.778 382.907 224.846 378.715 234.388C374.675 239.144 371.896 240.662 365.872 240.958L366.031 246.934C370.853 253.343 378.662 264.891 380.433 275.902L380.644 277.137Z" fill="black" fill-opacity="0.1"/>
<path d="M382.375 261.915C380.909 242.89 383.239 231.334 390.343 221.844C393.207 218.116 404.218 206.671 404.801 206.91C404.97 207.04 405.62 212.076 406.313 218.16C409.019 243.771 407.611 255.827 401.021 263.514C399.662 265.041 396.1 268.193 393.058 270.48C389.382 273.296 386.585 275.938 384.558 278.63L381.755 282.391L381.755 280.601C382.377 277.375 382.776 267.309 382.375 261.915Z" fill="black" fill-opacity="0.1"/>
<path fill-rule="evenodd" clip-rule="evenodd" d="M269.089 759.667C268.589 761.167 261.947 759.281 258.055 758.743L258.052 758.742L258.008 758.736L258.007 758.736L257.999 758.735C251.879 757.889 242.146 756.543 231.423 755C213.823 752.6 199.289 750.733 199.023 751C198.756 751.267 200.889 752.2 203.689 753C206.489 753.933 216.889 758.2 226.756 762.6C249.556 772.467 257.156 774.467 273.423 774.467C285.956 774.6 286.756 774.733 292.089 778.6C295.023 780.867 297.423 782.867 297.156 783C296.889 783.267 289.289 782.333 280.089 781C250.623 776.6 235.423 774.467 235.156 774.867C234.356 775.667 283.289 795.133 291.423 797.267C296.623 798.6 306.223 802.333 312.756 805.533C319.423 808.733 328.356 812.333 332.889 813.4C338.489 814.733 343.423 817.133 348.489 821.133C352.623 824.333 355.823 827.133 355.556 827.267C355.423 827.4 348.489 825.533 340.223 823C324.756 818.2 282.089 807.4 272.756 805.8C266.623 804.733 318.623 831.4 337.556 839C349.823 843.933 365.556 848.2 377.156 849.667C382.623 850.333 384.756 851.4 386.356 853.933C387.556 855.667 390.489 858.2 392.889 859.4C397.156 861.667 424.223 883.933 423.556 884.733C423.289 884.867 408.489 881.8 390.623 877.8C332.489 864.867 299.689 858.733 270.489 855.667L269.39 855.555C257.521 854.347 251.979 853.783 251.59 854.945C251.248 855.964 254.858 858.306 261.628 862.701L262.089 863C297.556 886.067 336.889 899.667 375.423 902.067C389.689 903 411.023 902.333 430.089 900.333L439.423 899.4L464.623 924.467C478.623 938.6 488.889 949.8 487.823 950.067C486.756 950.2 478.489 948.2 469.423 945.533C460.223 942.867 447.823 939.8 441.689 938.867C435.689 937.933 415.823 933.8 397.689 929.8C349.556 919.133 314.623 913.133 286.089 910.467C262.089 908.333 250.756 907.533 250.756 908.067C250.756 909 273.023 921.533 287.823 928.867C327.156 948.6 367.689 960.2 414.489 965.133C427.289 966.467 485.556 966.2 498.623 964.733C501.289 964.333 504.623 967.533 517.423 982.333C526.089 992.2 533.023 1000.47 532.889 1000.6C532.756 1000.73 515.823 997.667 495.289 993.667C423.156 979.533 370.223 970.6 339.423 967.533C321.956 965.8 270.089 965.667 263.023 967.267L258.756 968.333L267.689 975.133C299.556 999.4 337.289 1017.8 372.489 1026.2C396.223 1031.93 409.423 1033.53 436.089 1033.53C471.289 1033.67 495.823 1029.27 528.223 1017.4L542.223 1012.2L553.556 1027.53C566.356 1044.87 585.423 1072.33 585.423 1073.4C585.423 1073.8 584.356 1073.8 583.156 1073.53C561.156 1068.87 427.156 1047.93 398.756 1044.87C368.089 1041.53 297.423 1043.53 297.423 1047.8C297.423 1048.33 301.423 1051.8 306.489 1055.4C334.223 1075.93 368.489 1093.67 400.756 1103.93C411.156 1107.27 411.956 1107.67 406.089 1107C369.023 1102.6 330.623 1100.73 330.756 1103.27C330.889 1105.4 359.956 1128.33 376.089 1139C424.756 1171.53 474.756 1188.6 531.423 1192.33C560.089 1194.33 602.756 1187.93 629.823 1177.67C634.756 1175.8 639.289 1174.33 639.956 1174.33C640.489 1174.33 642.756 1178.73 644.756 1183.93C646.889 1189.27 651.956 1201.53 656.223 1211.27L663.823 1228.87C670 1241 659.664 1246.44 655.156 1245C646.489 1242.2 567.156 1219 532.356 1209C445.556 1184.2 403.556 1175.8 355.956 1173.67L338.089 1172.87L344.089 1178.2C398.889 1228.07 462.089 1259.27 531.423 1270.73L550.089 1273.93C601.451 1280.06 621.819 1279.53 661.289 1280.07C681.937 1280.08 694.897 1300.88 717.982 1337.5V1216C708.452 1199.72 715.5 1142 704.595 1087.31C704.327 1086.18 702.541 1075.63 700.756 1063C692.089 1004.33 677.956 950.733 658.223 901.533C645.289 869.4 633.956 842.467 633.156 841.533C632.756 841.133 631.956 848.867 631.423 858.733C629.823 888.867 633.423 928.333 641.956 972.333C643.823 981.8 646.889 999.267 648.756 1011C650.623 1022.73 655.823 1052.73 660.223 1077.67C670.756 1136.47 670.889 1138.2 662.223 1101.67C650.889 1053.53 644.356 1027 639.423 1009C637.023 999.8 633.956 985.667 632.756 977.667C621.689 904.6 605.023 843.8 582.889 797L577.556 785.667V795.667C577.423 820.333 582.889 869.4 594.089 942.333C598.089 968.333 601.956 997.4 602.756 1007C603.556 1016.47 605.423 1032.33 606.756 1042.2C608.223 1052.07 609.289 1060.33 609.023 1060.6C607.823 1061.8 592.889 1027.67 587.556 1011.67C577.156 980.333 571.423 949.267 567.423 903C562.089 840.6 555.289 803.133 543.289 769.667C538.623 756.6 529.156 736.2 526.623 733.8C523.423 730.467 527.156 787.267 533.289 833.667C534.189 840.363 535.987 852.527 539.134 873.81L539.138 873.837L539.14 873.85C540.189 880.952 541.389 889.068 542.756 898.333C553.556 970.067 556.756 994.333 555.556 994.333C554.089 994.333 541.023 974.733 535.956 964.733C527.823 948.6 523.289 936.2 519.023 918.2C513.956 897.533 512.623 887.533 510.089 852.333C508.889 836.867 507.156 818.067 505.956 810.333C501.423 779.267 491.823 747.8 480.623 728.2L475.423 719L475.023 727.667C474.356 741.4 480.489 800.2 484.623 819C485.111 821.051 485.313 822.172 488.268 838.551L488.296 838.707C489.372 844.674 490.811 852.648 492.756 863.4C497.156 888.067 504.089 932.333 504.089 935.933C504.089 941.267 485.956 913.933 479.556 899C469.956 876.867 466.089 857 464.089 819.667C461.823 781.267 458.223 757.933 451.023 736.733C447.023 725.133 437.823 705.4 435.956 704.2C432.356 702.067 438.223 756.467 448.089 817.667C452.223 843 457.423 880.467 457.423 884.6V888.333L454.089 884.333C439.556 867 429.023 845.4 423.423 821.133C422.223 816.467 420.223 801.933 418.623 788.6C413.956 746.6 407.156 724.867 391.156 700.6C387.823 695.667 384.889 691.667 384.623 691.933C384.356 692.2 385.023 695.4 386.223 699C387.289 702.733 390.223 715.8 392.756 728.333C397.156 750.6 397.689 753.667 399.423 767C399.956 770.6 400.889 775.8 401.423 778.333C402.089 780.867 403.823 793.133 405.289 805.667C405.984 811.053 406.679 816.49 407.276 821.157L407.279 821.184C408.055 827.248 408.663 832.01 408.889 833.667L409.689 839L406.756 836.333C402.223 832.333 389.156 814.733 383.556 805.133C370.889 783.267 360.089 754.067 352.889 722.067C351.023 713.533 349.423 705.533 349.289 704.2C349.289 702.733 348.889 702.333 348.623 703.133C347.956 704.733 353.289 739.267 359.823 776.6C361.956 788.6 363.289 798.333 362.756 798.333C361.023 798.333 349.556 785.267 345.023 778.067C337.689 766.6 333.689 756.733 323.289 725.667C316.623 705.933 313.689 698.467 314.223 703C315.689 715.267 320.089 742.867 322.889 756.733C324.356 764.333 325.289 770.867 324.889 771.4C323.289 772.867 310.889 758.467 304.889 748.333C301.689 742.6 296.489 731.4 293.556 723.133C290.489 715 285.956 702.6 283.423 695.667L278.756 683L279.556 692.333C279.956 697.4 282.089 711.8 284.223 724.067C286.356 736.467 288.089 746.867 288.089 747.133C288.089 749 284.489 746.6 276.089 738.733C254.209 718.462 230.589 702.667 203.689 690.167C226.756 736.733 270.316 755.985 269.089 759.667ZM599.556 1095.8C608.623 1110.73 636.089 1160.73 636.089 1162.33C636.089 1163 634.623 1163 632.489 1162.33C619.156 1158.07 486.089 1123.13 464.889 1118.33L449.156 1114.87L472.223 1114.73C497.023 1114.73 512.623 1112.73 534.489 1107C548.089 1103.4 571.423 1094.07 582.756 1087.8C586.756 1085.53 590.623 1083.93 591.423 1084.07C592.089 1084.33 595.823 1089.53 599.556 1095.8ZM417.023 1108.47C416.623 1108.87 415.423 1109 414.489 1108.6C413.423 1108.2 413.823 1107.8 415.289 1107.8C416.756 1107.67 417.556 1108.07 417.023 1108.47ZM670.356 1135.93C669.956 1137 669.556 1136.6 669.556 1135.13C669.423 1133.67 669.823 1132.87 670.223 1133.4C670.623 1133.8 670.756 1135 670.356 1135.93Z" fill="url(#paint0_linear_89_8)"/>
<path d="M5.49822 117.098C16.4103 114.218 24.9302 125.978 32.1694 120.753C27.9916 110.035 3.94358 103.605 4.97223 100.364C9.75716 103.602 12.9402 104.596 16.1979 104.546L15.2206 98.1843C10.9925 90.8513 -3.25752 84.1189 3.66043 78.1388C7.27023 83.0445 15.5322 89.6435 16.5528 96.4791L22.4297 103.602C22.9547 103.486 23.4939 103.364 24.06 103.237C18.4025 68.9625 27.8432 115.675 37.3979 118.138C37.5193 110.603 32.2347 99.0175 35.8243 94.083C43.8351 105.195 41.1172 130.613 56.2268 132.254C56.4346 120.297 46.2587 110.75 49.9454 101.402C60.9811 115.015 59.8914 144.803 75.8411 151.861C74.0268 133.67 68.9557 132.4 66.6823 113.949C86.3941 118.895 78.2724 160.97 98.3306 165.454C97.2766 148.672 87.7031 131.715 88.1244 120.221C107.441 131.506 99.8246 178.718 125.004 182.183C118.825 167.178 113.724 150.734 110.352 131.982C136.01 136.27 125.255 200.727 151.416 197.082C145.79 180.593 135.538 158.708 137.547 139.299C161.236 148.392 154.473 209.706 179.396 209.889C172.728 186.598 167.557 174.771 163.173 148.707C194.834 152.971 177.481 222.615 211.298 224.002C203.123 195.787 195.88 176.317 193.243 150.008C227.373 163.207 210.192 238.656 250.784 238.899C240.904 215.025 231.801 190.113 228.02 158.107C254.042 166.62 259.799 215.841 270.658 247.262C276.897 246.313 285.052 254.073 289.484 248.304C277.476 224.363 269.529 195.006 265.673 160.192C293.598 173.799 297.264 219.765 309.096 254.837C315.076 257.758 320.896 260.893 330.277 259.278C317.708 231.723 308.478 188.104 302.802 158.616C333.427 177.806 338.807 217.448 349.365 262.151C355.485 265.61 361.738 268.896 370.807 268.422C359.125 236.781 351.958 199.12 342.809 164.099C373.7 178.571 381.533 223.12 390.157 273.125C400.615 272.979 405.781 279.893 417.09 278.611C399.61 252.121 396.961 208.955 386.476 169.059C418.068 180.727 431.077 235.944 438.794 286.712C449.297 287.231 454.191 295.234 465.989 294.028C449.957 264.554 442.99 211.375 439.295 172.709C475.424 194.522 486.561 249.908 487.954 303.96C497.517 305.773 508.753 316.853 518.81 310.753C499.093 281.867 497.181 223.846 486.623 177.145C526.461 195.265 537.161 261.21 545.483 327.482C554.68 329.743 559.767 337.489 571.11 336.89C545.94 299.207 555.467 238.062 543.887 185.763C587.382 197.023 599.354 293.172 597.521 351.789C608.965 359.046 616.976 370.883 633.87 370.87C608.837 314.818 614.696 247.304 614.226 194.378C660.443 228.403 668.262 330.157 663.683 396.489C696.976 425.54 741.165 451.19 772.996 481.709C780.929 489.315 793.943 497.67 792.872 503.146L759.927 507.859C718.718 476.371 684.478 435.588 642.505 405.121C598.608 441.625 545.409 494.647 465.764 488.304C509.224 451.912 552.624 405.643 617.662 388.13C605.754 379.311 595.225 368.654 580.528 363.559C544.814 404.121 499.561 457.598 426.797 450.921C475.315 421.935 494.998 371.332 560.654 355.195C535.526 323.409 515.909 350.21 498.687 365.928C471.943 390.332 441.019 424.178 392.8 422.165C426.958 387.86 455.599 349.419 506.262 327.489C496.626 321.453 486.712 315.787 474.359 313.376C443.467 346.005 415.994 389.126 355.142 393.933C373.187 372.997 390.454 358.161 407.427 341.628C413.455 335.756 417.496 326.465 424.942 320.445C433.268 313.71 445.366 313.564 450.301 301.876C444.162 296.26 433.189 297.093 424.937 294.298C400.568 324.881 374.412 370.28 323.761 370.406C353.782 344.982 370.283 309.423 407.417 289.333C400.121 283.808 389.683 282.475 379.96 280.186C356.098 308.048 342.76 343.8 297.349 355.507C309.848 328.927 336.04 298.46 360.61 275.484C325.574 262.741 321.139 299.398 299.433 317.854C285.805 329.441 272.324 333.998 256.033 340.872C269.558 310.707 293.979 288.711 318.25 266.602C309.117 267.886 305.564 261.728 295.501 264.253C271.023 283.908 247.937 320.6 210.009 319.44C230.081 297.451 251.668 276.599 275.889 257.72C233.011 236.433 222.527 306.097 175.229 298.267C194.256 279.394 207.02 259.863 236.927 246.484C202.271 221.111 185.975 285.376 140.449 277.095C158.906 260.975 177.94 245.29 199.272 231.325C170.082 207.457 148.615 268.194 112.989 254.874C128.868 240.635 147.601 228.536 169.461 218.78C147.883 187.734 121.832 246.747 89.1908 232.131C106.659 222.351 120.986 210.216 140.957 202.313C123.517 172.578 91.6212 222.799 63.5621 209.649C75.31 194.829 105.434 199.653 112.191 184.015C97.5981 167.586 61.8994 198.641 43.1623 184.551C58.3035 179.018 76.3096 175.632 89.4415 168.593C80.5783 151.353 41.9622 173.804 28.7782 162.329C40.9936 158.023 59.8975 157.024 68.7822 154.738C58.0665 138.518 25.9838 150.799 13.8689 136.446C27.9233 132.267 39.8053 142.485 49.4297 136.962C41.6219 121.222 15.4675 129.955 5.49822 117.098ZM729.586 452.432C728.559 453.802 730.243 451.555 729.586 452.432V452.432ZM581.835 359.637C580.808 361.007 582.492 358.76 581.835 359.637V359.637ZM248.683 185.035C249.34 184.159 247.656 186.405 248.683 185.035V185.035ZM253.922 234.714C254.579 233.838 252.894 236.085 253.922 234.714V234.714ZM217.571 202.56C218.228 201.683 216.543 203.93 217.571 202.56V202.56Z" fill="url(#paint1_linear_89_8)"/>
</g>
<defs>
<linearGradient id="paint0_linear_89_8" x1="718" y1="1169" x2="375.716" y2="1299.51" gradientUnits="userSpaceOnUse">
<stop stop-color="#4F772D"/>
<stop offset="1" stop-color="#90A955"/>
</linearGradient>
<linearGradient id="paint1_linear_89_8" x1="62.0811" y1="69.7816" x2="137.486" y2="596.9" gradientUnits="userSpaceOnUse">
<stop stop-color="#4F772D"/>
<stop offset="1" stop-color="#90A955"/>
</linearGradient>
<clipPath id="clip0_89_8">
<rect width="718" height="1462" fill="white" transform="matrix(-1 0 0 1 718 0)"/>
</clipPath>
</defs>
</svg>
