<svg width="718" height="1462" viewBox="0 0 718 1462" fill="none" xmlns="http://www.w3.org/2000/svg">
<g clip-path="url(#clip0_89_8)">
<path d="M259.578 1319.01C266.047 1321.93 268.271 1322.21 272.324 1320.23C274.295 1319.33 275.874 1318.38 275.858 1318.11C275.689 1317.67 268.68 1314.94 266.085 1314.28C264.301 1313.84 258.422 1315.01 256.567 1316.14C255.227 1316.98 255.317 1317.12 259.578 1319.01Z" fill="black" fill-opacity="0.1"/>
<path d="M272.218 1294.59C271.745 1297.3 271.81 1300.83 272.568 1306.39L272.847 1308.68L275.371 1305.38C278.255 1301.61 278.771 1298.24 277.39 1291.13L276.62 1286.76L275.088 1288.51C273.095 1290.75 272.899 1291.23 272.218 1294.59Z" fill="black" fill-opacity="0.1"/>
<path d="M296.467 1314.03C295.882 1316.93 296.324 1321.28 297.869 1328.41L299.083 1334.06L301.756 1329.48C303.203 1327 304.53 1323.86 304.69 1322.42C305.111 1319.51 303.434 1310.85 301.853 1307.29L300.754 1304.94L298.85 1308.35C297.773 1310.19 296.717 1312.73 296.467 1314.03Z" fill="black" fill-opacity="0.1"/>
<path d="M315.302 1316.93C314.22 1324.91 315.804 1330.95 321.405 1339.59C323.706 1343.24 325.869 1346.97 326.207 1347.85C326.952 1350.08 327.842 1349.57 328.024 1346.78C328.073 1345.53 328.514 1343.32 328.966 1341.96C330.319 1337.89 330.233 1333.66 328.79 1330.01C327.464 1326.59 317.224 1310.72 316.456 1310.87C316.218 1310.99 315.744 1313.69 315.302 1316.93Z" fill="black" fill-opacity="0.1"/>
<path d="M617.865 1318.06C617.273 1342.27 621.574 1353.14 639.87 1373.88C644.447 1379.02 649.901 1385.88 651.905 1389.01C653.974 1392.18 655.857 1394.64 656.122 1394.62C656.36 1394.51 656.309 1392.26 655.988 1389.6C655.641 1386.84 655.937 1380.79 656.513 1376.01C658.245 1363.13 657.709 1358.21 653.759 1350.53C651.1 1345.31 644.725 1336.39 639.101 1330.12C634.921 1325.47 619.826 1309.75 619.063 1309.3C618.238 1308.82 618.025 1310.06 617.865 1318.06Z" fill="black" fill-opacity="0.1"/>
<path d="M230.859 1235.74C230.922 1236.8 230.73 1237.71 230.428 1237.79C230.126 1237.87 230.861 1240.26 231.992 1243.14C233.223 1245.99 234.084 1248.45 234.01 1248.58C233.936 1248.71 233.258 1247.97 232.491 1247.09C231.671 1246.02 230.184 1245.07 228.919 1244.75L226.78 1244.19L228.626 1246.71C230.012 1248.72 230.89 1249.4 232.648 1249.74C234.634 1250.14 235.12 1250.76 237.822 1256.35C241.676 1264.48 241.744 1264.94 239.246 1262.8C237.182 1261.09 233.259 1260.07 232.665 1261.09C232.517 1261.35 233.527 1262.53 234.94 1263.61C236.851 1265.16 238.005 1265.66 239.758 1265.57C241.977 1265.42 242.067 1265.56 245.509 1271.92C247.418 1275.5 248.866 1278.57 248.792 1278.69C248.718 1278.82 247.193 1277.93 245.5 1276.6C243.108 1274.86 241.763 1274.25 239.592 1274.17C235.387 1273.94 235.032 1274.84 238.355 1277.46C241.181 1279.62 245.03 1280.76 245.699 1279.61C245.884 1279.3 246.753 1279.12 247.611 1279.11C248.861 1279.16 249.998 1280.42 252.944 1285.29C255.001 1288.63 256.625 1291.54 256.513 1291.73C256.402 1291.92 255.004 1291.1 253.501 1289.88C251.898 1288.69 249.675 1287.39 248.483 1286.95C246.165 1286.11 240.858 1286.59 241.122 1287.6C241.164 1287.96 243.011 1289.47 245.123 1290.96C248.902 1293.68 249.029 1293.75 253.033 1293.02C256.963 1292.42 257.19 1292.46 258.613 1294.4C263.369 1300.85 265.014 1303.43 264.791 1303.81C264.605 1304.12 262.779 1303.31 260.683 1302.09C256.3 1299.53 252.784 1298.84 249.352 1299.91L246.926 1300.71L249.561 1302.76C253.726 1306.13 257.004 1306.93 261.66 1305.81L265.812 1304.83L271.277 1311.52C274.298 1315.24 279.399 1320.95 282.743 1324.26C285.986 1327.61 288.732 1330.49 288.849 1330.73C288.981 1331.23 285.454 1330.71 281.631 1329.67C276.453 1328.18 272.37 1328.61 268.221 1331.04L264.348 1333.3L267.085 1334.3C272.56 1336.31 278.945 1337.48 281.096 1336.86C282.277 1336.44 284.397 1335.29 285.848 1334.26C289.876 1331.16 289.775 1331.18 295.036 1335.45C297.698 1337.6 301.365 1340.51 303.35 1341.92C305.234 1343.36 306.409 1344.56 305.969 1344.73C305.503 1344.8 302.659 1344.42 299.562 1343.89C291.963 1342.61 287.642 1343.15 283.233 1346.03C281.267 1347.36 279.429 1348.76 279.169 1349.2C278.241 1350.79 293.893 1353.45 297.59 1352.37C298.798 1352.05 301.452 1350.28 303.615 1348.47L307.489 1345.19L315.969 1349.63C320.691 1352.05 326.387 1354.69 328.642 1355.5C330.961 1356.34 332.851 1357.19 332.903 1357.39C333.062 1357.99 327.39 1358.52 323.349 1358.29C317.604 1357.92 309.716 1360.05 306.155 1363.08C302.567 1366.02 299.191 1369.76 299.826 1370.13C300.08 1370.28 303.655 1370.58 307.833 1370.71C319.864 1371.26 326.375 1369.01 330.013 1362.78C330.57 1361.82 331.99 1360.27 333.167 1359.42C335.005 1358.02 335.8 1357.97 339.13 1358.98C342.878 1360.14 349.164 1361.34 355.343 1362.14L358.388 1362.47L356.396 1363.69C355.331 1364.35 351.225 1366.13 347.305 1367.59C343.358 1368.95 338.426 1371.27 336.322 1372.68C332.979 1374.91 332.195 1375.82 328.806 1381.77C326.727 1385.33 325.151 1388.75 325.309 1389.36C325.653 1390.67 340.278 1386.33 346.122 1383.18C351.25 1380.38 353.44 1377.65 355.076 1371.78C355.766 1369.29 356.992 1366.17 357.734 1364.9C358.997 1362.74 359.436 1362.57 363.021 1362.7C367.92 1362.92 380.228 1362.26 387.473 1361.37C390.434 1360.97 392.981 1360.84 393.034 1361.04C393.192 1361.65 387.068 1364.55 382.253 1366.08C376.119 1368.13 371.012 1370.6 366.73 1373.56C363.863 1375.55 362.581 1377.02 359.982 1381.47C356.27 1387.83 353.909 1393.18 354.671 1393.63C354.925 1393.78 359.931 1392.35 365.752 1390.55C382.698 1385.02 387.912 1380.9 390.272 1371.02C391.515 1366.12 394.469 1360.77 396.307 1360.39C398.219 1359.89 420.309 1358.38 429.429 1358.08C433.729 1357.86 438.422 1357.7 439.873 1357.7C442.42 1357.57 442.483 1357.6 440.862 1358.19C439.946 1358.59 435.703 1359.44 431.371 1360.15C417.568 1362.49 409.463 1365.43 404.015 1370.1C400.666 1372.91 389.904 1387.26 390.22 1388.47C390.511 1389.58 411.363 1386.83 419.954 1384.52C424.483 1383.33 429.622 1381.38 431.487 1380.08C434.692 1377.95 435.302 1377.2 440.759 1367.85C444.137 1362.07 446.99 1357.76 447.594 1357.6C451.042 1356.8 499.624 1359.08 499.85 1360.15C500.035 1360.86 488.447 1362.62 481.069 1363C462.041 1364.08 451.414 1368.27 442.382 1378.35C437.399 1383.96 432.431 1390.87 433.427 1390.77C433.856 1390.76 439.04 1390.63 444.982 1390.52C459.578 1390.18 465.716 1389.58 472.899 1387.64C481.919 1385.32 484.32 1383.4 490.656 1373.71C495.938 1365.54 499.113 1361.85 501.688 1360.8C503.282 1360.11 522.986 1362.84 537.441 1365.65C549.227 1367.93 562.993 1371.19 563.125 1371.7C563.389 1372.7 550.727 1373.24 541.862 1372.66C515.432 1370.96 504.594 1374.35 489.468 1388.88C482.006 1396.11 481.333 1396.83 481.968 1397.2C482.222 1397.35 488.174 1398.09 495.148 1398.84C513.671 1400.96 525.819 1400.72 534.448 1398.34C540.359 1396.68 544.424 1393.51 550.955 1385.39C557.523 1377.21 563.861 1372.04 566.668 1372.48C572.344 1373.41 596.121 1381.41 609.419 1386.79C618.991 1390.67 634.491 1397.68 634.623 1398.18C634.977 1399.33 618.292 1396.83 610.393 1394.61C587.605 1388.12 572.967 1388.1 559.664 1394.4C554.42 1396.96 537.771 1407.53 537.919 1408.3C538.035 1408.54 544.002 1410.57 551.234 1412.92C581.73 1422.54 596.748 1423.81 607.731 1417.69C609.924 1416.41 614.641 1412.86 618.175 1409.72C622.511 1405.94 626.416 1403.19 630.193 1401.39L635.74 1398.75L641.399 1401.46C660.954 1411 687.858 1428.67 709.016 1445.97L722.537 1457.53C736.254 1469.63 751.641 1485.44 764.534 1500.55L770.047 1507.01L777.855 1516.69L785.233 1499.82L777.981 1492.55L768.262 1481.33C767.997 1481.35 765.854 1479.33 763.389 1476.69C757.923 1471.03 749.705 1463.08 740.486 1454.8C736.661 1451.28 731.082 1446.83 731.051 1446.3C730.416 1445.93 728.595 1444.53 726.976 1443.07C722.732 1439.4 706.399 1426.96 700.09 1422.6C697.063 1420.49 693.676 1417.83 693.454 1417.19C693.268 1417.51 688.531 1414.83 682.735 1411.19C666.491 1400.93 650.557 1392.48 632.447 1384.55C618.318 1378.26 619.451 1379.09 617.818 1374.3C617.02 1371.88 616.14 1366.67 615.805 1362.73C614.677 1349.2 612.166 1343.72 603.324 1335.23C597.212 1329.36 590.353 1324.34 577.158 1315.86L566.365 1308.97L566.887 1312.59C567.777 1318.66 572.086 1333.45 574.232 1337.94C577.891 1345.53 586.727 1354.61 598.609 1363C608.76 1370.12 617.731 1377.66 615.708 1377.33C614.924 1377.22 609.794 1375.5 604.383 1373.53C598.936 1371.63 590.968 1368.94 586.7 1367.64C578.875 1365.29 578.812 1365.25 577.193 1362.77C576.395 1361.37 574.323 1355.73 572.67 1350.24C568.313 1335.68 564.933 1331.4 551.149 1323.35C543.908 1319.13 519.668 1308.13 518.232 1308.4C517.364 1308.57 520.507 1317.48 523.764 1324.16C530.589 1338.29 537.496 1344.11 565.006 1358.56C577.281 1364.96 577.986 1364.77 558.39 1360.4C552.963 1359.2 545.248 1357.68 541.24 1356.96L533.805 1355.68L531.097 1351.71C529.558 1349.54 527.221 1344.93 525.995 1341.49C521.282 1328.85 516.266 1323.87 501.824 1317.83C493.862 1314.54 470.709 1307.08 470.301 1307.78C469.93 1308.41 478.687 1323.76 481.633 1327.61C487.897 1335.7 497.313 1341.45 514.165 1347.45C522.514 1350.37 532.355 1354.67 532.058 1355.17C531.984 1355.3 529.887 1355.1 527.372 1354.74C524.957 1354.35 516.252 1353.36 508.028 1352.57L493.222 1351.08L490.296 1347.93C488.725 1346.24 485.911 1341.87 484.04 1338.22C482.131 1334.63 479.597 1330.51 478.407 1329.05C475.555 1325.76 468.251 1321.5 461.283 1319.13C455.836 1317.23 431.458 1311.86 429.986 1312.2C428.979 1312.46 438.257 1325.89 442.294 1330.21C444.861 1332.82 446.972 1334.31 453.319 1337.59C460.91 1341.51 463.457 1342.4 477.795 1346C481.3 1346.85 485.821 1348.3 487.875 1349.15L491.591 1350.81L485.078 1350.59C481.456 1350.52 472.167 1350.38 464.419 1350.38C448.066 1350.38 448.839 1350.66 441.613 1340.13C437.636 1334.4 437.202 1333.97 431.702 1330.85C427.282 1328.35 424.646 1327.32 420.473 1326.59C414.061 1325.32 393.092 1323.31 392.758 1323.88C392.349 1324.58 399.587 1332.9 404.164 1337.02C408.027 1340.47 409.488 1341.32 413.861 1343.02C419.589 1345.17 428.749 1347.28 433.876 1347.55C437.551 1347.82 447.516 1349.72 447.256 1350.16C447.182 1350.29 442.643 1350.62 437.22 1350.86C431.86 1351.15 422.216 1351.91 415.85 1352.45C409.51 1353.1 404.05 1353.41 403.669 1353.18C402.526 1352.52 400.553 1348.89 398.191 1343.17C395.273 1336.35 392.871 1333.75 386.196 1330.45C380.865 1327.76 363.283 1321.84 362.875 1322.54C362.578 1323.05 368.204 1332.82 370.664 1336.04C373.817 1340.27 380.158 1344.14 389.687 1347.66C394.288 1349.41 399.233 1351.45 400.503 1352.19L402.853 1353.56L394.273 1354.69C389.485 1355.3 383.098 1356.18 380.037 1356.61C376.975 1357.04 372.627 1357.48 370.382 1357.53L366.219 1357.66L365.242 1353.94C364.688 1351.82 363.886 1347.94 363.465 1345.31C362.88 1341.64 362.024 1339.61 359.913 1337.1C357.225 1333.82 347.588 1326.41 340.791 1322.44L337.361 1320.43L338.976 1327C341.79 1337.94 344.8 1341.83 357.307 1350.75C361.022 1353.43 364.409 1356.09 364.732 1356.71C366.508 1359.79 338.635 1355.45 329.742 1351.28C328.461 1350.7 326.978 1350.18 326.385 1350.17C324.404 1350.21 306.942 1340.44 300.654 1335.75C292.483 1329.61 285.471 1323.38 285.419 1322.16C285.388 1321.63 286.438 1319.69 287.88 1317.8C290.016 1314.87 290.308 1313.93 290.322 1310.7C290.323 1308.66 289.607 1304.49 288.751 1301.43L287.172 1295.82L285.204 1300.21C282.62 1305.95 282.369 1308.27 283.709 1315.02C284.637 1320 284.699 1322.08 283.873 1321.6C283.746 1321.52 281.217 1318.85 278.291 1315.7C271.597 1308.63 263.043 1297.76 263.002 1296.37C263.008 1295.77 263.756 1293.91 264.721 1292.26C266.429 1289.33 266.435 1288.74 264.994 1283.04L263.484 1276.87L262.073 1279.29C260.329 1282.27 260.151 1285.5 261.338 1291.05C261.845 1293.39 262.055 1295.22 261.737 1295.03C261.42 1294.85 259.394 1292.04 257.199 1288.8L253.131 1282.93L255.396 1279.05C257.512 1275.43 257.581 1274.87 256.891 1269.78C256.454 1266.88 255.832 1264.3 255.514 1264.12C254.625 1263.6 252.365 1267.91 252.008 1270.85C251.784 1272.26 251.983 1275.27 252.4 1277.47C252.779 1279.74 253.016 1281.67 252.941 1281.8C252.867 1281.93 251.043 1279.07 248.97 1275.47L245.109 1268.95L246.742 1266.16C248.116 1263.81 248.255 1262.69 247.563 1259.65L246.777 1256.03L245.377 1258.28C244.486 1259.81 244.193 1261.77 244.477 1264.49L244.903 1268.58L243.533 1265.82C242.772 1264.35 241.223 1261.31 240.012 1259.16C237.987 1255.33 237.998 1255.17 239.583 1252.6C240.76 1250.73 241.148 1249.34 240.831 1248.13C240.409 1246.52 240.345 1246.48 239.158 1248.51C238.489 1249.66 237.953 1251.31 237.862 1252.19C237.872 1253.05 237.665 1253.7 237.475 1253.58C237.284 1253.47 235.719 1250.17 234.06 1246.31C231.3 1240.09 231.073 1239.02 232.076 1237.3C232.707 1236.22 233.175 1234.11 233.07 1232.68L232.913 1230.03L231.8 1231.94C231.168 1233.02 230.759 1234.74 230.859 1235.74Z" fill="black" fill-opacity="0.1"/>
<path d="M305.69 287.97C321.732 289.682 328.395 291.684 337.318 297.239C345.816 302.59 353.096 309.206 362.87 320.378C366.478 324.524 371.991 330.04 375.09 332.643C378.171 335.174 380.58 337.409 380.47 337.586C380.376 337.834 377.633 337.414 374.36 336.663C371.104 335.985 365.701 335.502 362.126 335.728C344.398 336.522 336.752 333.54 323.324 320.951C318.385 316.284 294.55 288.819 294.201 287.315C294.051 286.67 294.818 286.718 305.69 287.97Z" fill="black" fill-opacity="0.1"/>
<path d="M185.379 6.50971C190.958 10.8995 192.229 12.7455 192.341 17.2554C192.456 19.4169 192.339 21.2577 192.096 21.3661C191.628 21.4189 185.973 16.4594 184.188 14.4632C182.97 13.0856 181.296 7.32936 181.446 5.16099C181.571 3.58546 181.734 3.60166 185.379 6.50971Z" fill="black" fill-opacity="0.1"/>
<path d="M169.547 28.9907C171.73 27.3214 174.896 25.7494 180.176 23.8575L182.34 23.0463L180.576 26.8081C178.56 31.1073 175.814 33.1178 168.863 35.1751L164.63 36.5091L165.475 34.3433C166.548 31.5386 166.885 31.1419 169.547 28.9907Z" fill="black" fill-opacity="0.1"/>
<path d="M197.987 41.5325C200.288 39.6764 204.351 38.0609 211.386 36.1443L216.961 34.6124L214.133 39.0958C212.602 41.5243 210.422 44.1533 209.217 44.9602C206.831 46.6756 198.381 49.1798 194.488 49.4228L191.898 49.5303L194.042 46.2692C195.181 44.4634 196.946 42.3556 197.987 41.5325Z" fill="black" fill-opacity="0.1"/>
<path d="M209.249 56.9051C215.828 52.264 221.918 50.8822 232.169 51.8643C236.464 52.2235 240.776 52.419 241.712 52.3132C244.03 51.9473 243.995 52.9693 241.602 54.4194C240.515 55.0395 238.754 56.4529 237.758 57.479C234.773 60.5575 230.982 62.4315 227.073 62.8383C223.429 63.2383 204.627 61.4755 204.404 60.7257C204.397 60.4604 206.581 58.791 209.249 56.9051Z" fill="black" fill-opacity="0.1"/>
<path d="M299.95 244.945C324.09 246.852 334.455 252.251 353.201 272.587C357.847 277.67 364.098 283.801 367.006 286.118C369.945 288.502 372.201 290.629 372.158 290.891C372.017 291.116 369.788 290.833 367.176 290.24C364.466 289.61 358.417 289.281 353.604 289.361C340.609 289.755 335.774 288.715 328.545 283.995C323.628 280.812 315.411 273.552 309.756 267.311C305.555 262.674 291.475 246.038 291.11 245.234C290.716 244.363 291.971 244.279 299.95 244.945Z" fill="black" fill-opacity="0.1"/>
<path d="M380.644 277.137L381.556 283.344C384.885 304.846 393.804 335.774 404.069 361.103C406.83 367.786 407.056 368.111 406.871 365.36C406.672 360.272 403.879 349.216 399.798 337.176C396.515 327.593 395.645 324.171 394.611 316.784C392.457 300.672 393.249 293.994 398.935 281.045C401.61 274.988 410.63 259.15 411.491 258.951C412.136 258.801 421.71 283.762 425.221 294.651C429.546 308.069 431.472 322.875 429.802 329.681C428.533 334.959 425.014 341.289 419.499 348.459C413.62 356.016 411.191 360.204 409.047 366.592L407.826 370.122L411.112 377.439C418.613 394.122 429.157 413.497 439.782 430.285L444.32 437.462L442.722 429.602C441.518 423.766 440.145 419.478 437.069 412.415C431.16 398.685 430.667 397.213 428.177 386.163C424.335 369.612 424.767 362.036 430.247 347.549C433.746 338.204 440.754 324.118 441.549 324.613C441.991 324.888 452.865 347.961 456.423 356.121C459.963 364.209 465.499 385.124 465.655 390.676C465.835 398.94 463.976 404.28 457.46 414.627C450.465 425.841 448.433 429.787 446.906 435.578L445.763 439.77L451.251 447.783C460.47 461.123 470.185 473.667 482.926 488.831C492.535 500.268 495.115 502.916 494.892 501.306C494.502 497.999 489.13 485.277 485.88 480.066C477.726 467.084 470.59 450.996 467.89 439.692C464.962 427.082 467.158 412.451 475.201 391.102C476.736 386.97 477.914 384.884 478.279 385.479C478.627 386.003 480.54 389.032 482.663 392.315C499.86 419.508 505.843 430.956 509.561 444.364C511.395 450.961 512.149 454.863 512.053 457.377C511.839 463.619 509.387 471.286 504.597 480.931C500.253 489.566 497.46 498.369 497.427 503.436C497.353 505.719 498.298 506.859 512.39 521.332C526.394 535.75 552.218 559.732 552.769 558.849C553.154 558.231 548.204 547.978 545.352 543.506C543.821 541.143 539.924 535.101 536.635 530.05C526.823 514.809 519.896 497.993 519.178 487.739C518.45 478.092 521.431 460.334 526.254 445.623L527.782 440.813L529.054 442.708C529.733 443.682 533.956 449.498 538.388 455.567C554.531 477.568 562.647 491.692 566.552 504.604C569.797 515.328 569.023 523.059 563.272 536.702C558.302 548.503 557.753 550.367 557.042 556.422L556.243 562.422L564.782 569.576C579.22 581.628 599.262 596.985 615.795 608.626L617.877 610.106L616.782 607.34C614.402 601.323 608.703 592.075 602.187 583.545C590.643 568.329 584.042 556.496 580.01 543.69C577.656 536.156 577.308 530.423 578.53 518.435C579.508 509.298 583.442 490.111 584.391 489.966C585.037 489.816 602 510.796 609.052 520.335C615.109 528.518 622.456 540.631 624.979 546.614C626.13 549.292 627.614 554.384 628.297 558.303C629.847 566.929 629.118 571.931 624.135 585.623C621.302 593.605 620.324 597.532 619.867 603.377L619.274 610.915L622.853 613.633C628.475 617.991 680.656 650.351 696.309 659.176C723.177 674.308 725.744 675.6 732.445 677.442C741.635 679.914 744.766 681.679 745.498 684.832C746.745 690.205 740.966 703.402 736.301 705.769C733.869 707.013 729.916 705.288 720.666 698.979C716.094 695.887 709.446 691.994 705.902 690.4C686.993 681.878 639.268 652.107 609.215 630.089L602.002 624.741L599.25 625.909C592.113 628.698 586.12 632.506 578.021 639.294C567.062 648.408 562.844 650.747 553.636 652.432C545.002 653.983 536.46 653.324 521.607 649.901C511.86 647.633 505.109 645.576 483.57 638.419L474.727 635.489L477.82 633.185C482.958 629.274 497.77 620.474 503.908 617.614C512.169 613.808 521.741 611.737 530.167 611.895C542.395 612.152 556.297 614.738 572.034 619.693C578.393 621.69 592.958 624.198 598.724 624.294C601.456 624.339 602.792 625.539 583.496 610.462C575.355 604.046 565.104 595.704 560.669 591.901C555.637 587.481 552.108 584.978 551.32 585.161C546.713 586.155 538.685 590.964 530.25 597.604C516.473 608.58 510.34 611.137 498.879 610.928C484.151 610.648 471.12 607.255 436.475 594.76C431.612 593.019 427.604 591.382 427.482 591.184C427.333 590.539 435.08 585.494 443.302 580.866C463.385 569.71 475.158 567.354 495.39 570.51C504.402 571.891 508.741 572.998 520.515 576.833C525.913 578.601 531.847 580.394 533.768 580.855C536.897 581.638 549.171 583.395 550.032 583.195C550.247 583.145 548.49 581.438 546.132 579.419C543.757 577.327 535.775 569.968 528.483 562.977L515.11 550.3L506.604 552.728C500.36 554.48 496.566 556.041 492.49 558.346C489.353 560.132 484.257 562.598 481.146 563.849C468.599 568.726 455.106 567.252 431.578 558.368C423.469 555.342 394.121 542.221 394.396 541.78C394.892 540.985 407.313 536.214 415.642 533.676C428.82 529.559 437.266 528.504 447.012 529.79C459.772 531.359 471.479 534.908 489.084 542.373C492.772 543.934 500.053 546.321 505.352 547.658C513.443 549.63 514.762 549.777 513.497 548.561C509.227 544.493 493.902 527.965 486.283 519.238L477.614 509.245L469.45 511.518C462.99 513.319 459.825 514.658 454.288 517.832C448.768 521.076 445.586 522.344 439.126 524.146C431.68 526.252 430.427 526.392 424.776 525.816C412.029 524.623 396.688 519.425 370.873 507.523C361.642 503.248 356.9 500.724 357.39 500.233C357.826 499.83 361.587 498.126 365.795 496.394C375.524 492.398 396.63 487.271 402.286 487.544C414.669 488.142 431.327 492.505 446.233 499.088C456.479 503.505 462.551 505.568 470.824 507.347L476.945 508.645L469.005 498.86C464.651 493.452 458.71 485.77 455.814 481.761L450.509 474.535L446.795 474.491C442.011 474.394 437.532 475.283 423.714 479.246C413.217 482.212 411.909 482.44 407.003 482.144C394.179 481.271 377.66 472.949 347.657 452.127L340.175 446.917L348.278 445.036C361.474 441.972 375.173 440.755 383.242 441.977C387.552 442.638 397.516 445.837 403.842 448.672C406.608 449.842 415.222 454.714 422.963 459.41C436.767 467.759 450.316 474.354 448.536 471.898C443.446 464.622 433.248 449.018 428.156 440.762L421.832 430.45L417.445 430.11C414.377 429.916 408.953 430.646 399.316 432.431C383.908 435.404 379.444 435.384 371.136 432.48C365.776 430.553 351.315 421.98 343.345 415.977C334.725 409.446 315.692 393.552 315.967 393.111C316.369 392.564 330.361 390.977 337.385 390.63C344.497 390.338 354.557 391.023 358.984 392.185C368.604 394.557 382.811 402.359 396.259 412.753C405.089 419.537 419.75 428.97 420.318 428.159C420.411 427.911 419.117 425.266 417.331 422.132C413.538 415.235 408.373 405.032 403.19 393.776C400.966 389.082 398.766 385.138 398.269 384.952C395.216 383.848 384.611 383.743 376.914 384.775C366.371 386.241 362.818 386.235 356.145 384.84C349.632 383.482 337.297 375.926 326.896 366.939C319.594 360.554 298.415 339.647 298.762 339.189C299.109 338.731 314.934 338.53 320.519 338.819C328.404 339.254 337.395 340.866 341.635 342.525C351.869 346.567 365.598 356.216 378.408 368.42C385.699 375.411 398.368 384.4 397.868 382.251C397.702 381.534 396.9 379.38 395.987 377.402C393.735 372.261 386.689 352.981 384.385 345.662C383.267 342.147 382 338.967 381.453 338.566C380.994 338.219 380.823 337.806 381.182 337.723C381.54 337.639 380.381 332.321 378.619 325.707C371.828 300.449 374.206 274.609 359.978 252.512L350.293 240.192L345.553 235.035L335.074 239.591C329.35 241.583 325.79 241.523 318.884 239.591C309.956 235.972 305.032 230.996 296.428 222.301L296.104 221.973C289.516 216.424 272.21 199.329 272.642 198.644C273.034 198.021 290.688 198.711 295.465 199.548C305.532 201.372 314.982 207.071 328.083 219.251C334.521 225.314 342.874 232.063 343.188 231.564C343.267 231.44 342.121 229.672 340.641 227.607C339.183 225.643 334.287 218.377 329.788 211.448L321.64 198.997L317.488 197.858C315.268 197.242 310.092 196.762 305.99 196.786C301.927 196.747 297.101 196.402 295.254 196.02C291.024 195.006 283.87 190.493 278.559 185.402C274.357 181.447 258.347 162.296 257.964 160.836C257.735 159.821 273.931 161.855 279.625 163.444C283.122 164.518 285.417 165.705 291.255 169.822C298.236 174.748 300.201 176.596 310.009 187.657C312.383 190.373 315.752 193.717 317.462 195.143L320.648 197.675L317.445 191.999C315.712 188.817 311.304 180.64 307.724 173.769C300.178 159.26 300.784 159.817 288.11 158.264C281.189 157.38 280.613 157.19 275.302 153.754C271.048 150.984 268.92 149.119 266.346 145.755C262.259 140.653 250.797 122.978 251.151 122.417C251.583 121.732 262.302 124.315 268.071 126.475C272.914 128.31 274.345 129.213 277.871 132.308C282.423 136.397 288.52 143.551 291.121 147.976C293.056 151.112 299.337 159.078 299.612 158.642C299.69 158.517 297.892 154.337 295.606 149.413C293.382 144.529 289.609 135.62 287.156 129.721C284.804 123.798 282.557 118.812 282.184 118.577C281.064 117.871 276.939 117.793 270.768 118.339C263.372 118.897 259.96 117.964 253.952 113.565C249.109 110.075 235.745 97.2067 236.177 96.5217C236.492 96.0235 247.751 96.51 251.749 97.2037C256.954 98.05 263.316 101.889 270.835 108.72C274.509 111.995 278.595 115.443 279.839 116.228L282.141 117.679L279.183 109.547C277.519 105.015 275.348 98.9453 274.316 96.0313C273.284 93.1174 271.672 89.0544 270.683 87.0378L268.875 83.2862L265.12 84.1383C262.989 84.6219 259.178 85.7 256.648 86.541C253.125 87.7138 250.925 87.8929 247.723 87.1788C243.578 86.3052 232.55 81.1775 225.894 76.9787L222.534 74.8598L229.108 73.2614C240.108 70.712 244.947 71.5881 258.634 78.567C262.726 80.6263 266.649 82.4041 267.343 82.4067C270.899 82.5603 254.188 59.8337 246.385 53.8675C245.281 52.9974 244.132 51.9243 243.853 51.4005C242.972 49.6262 226.247 38.6415 219.181 35.2292C209.967 30.8103 201.209 27.462 200.099 27.9806C199.615 28.1973 198.374 30.0261 197.366 32.1757C195.753 35.4231 195.055 36.1149 192.194 37.6178C190.381 38.5629 186.351 39.8509 183.244 40.5025L177.537 41.6906L180.526 37.9178C184.424 32.9781 186.372 31.6824 192.979 29.7564C197.82 28.2842 199.696 27.3783 198.888 26.8682C198.763 26.7897 195.227 25.778 191.075 24.6391C181.721 21.9595 168.124 19.389 166.873 19.9929C166.35 20.2719 165.04 21.7962 164.019 23.4152C162.212 26.2796 161.689 26.5585 155.966 27.9104L149.798 29.4167L151.291 27.0504C153.137 24.1238 155.913 22.4801 161.386 20.9712C163.698 20.34 165.416 19.6833 165.105 19.4871C164.794 19.2909 161.373 18.7866 157.483 18.3353L150.398 17.4352L148.002 21.2336C145.764 24.783 145.302 25.1011 140.467 26.8386C137.694 27.7879 135.117 28.426 134.806 28.2298C133.935 27.6804 136.714 23.6883 139.163 22.0122C140.305 21.166 143.072 19.9514 145.219 19.304C147.406 18.5944 149.226 17.9145 149.305 17.79C149.383 17.6655 146.008 17.3643 141.86 17.185L134.297 16.7668L132.569 19.5067C131.115 21.8107 130.192 22.447 127.171 23.2394L123.602 24.2092L124.954 21.9282C125.896 20.4338 127.501 19.2694 130.047 18.2646L133.868 16.7574L130.787 16.8162C129.134 16.8179 125.726 16.8442 123.254 16.7648C118.926 16.7332 118.785 16.8185 117.237 19.4108C116.121 21.3181 115.063 22.305 113.845 22.5814C112.222 22.9498 112.159 22.9106 113.416 20.918C114.123 19.7971 115.338 18.5611 116.081 18.0724C116.847 17.6851 117.325 17.2032 117.138 17.0855C116.951 16.9677 113.301 17.1024 109.104 17.4145C102.317 17.834 101.263 18.1266 100.202 19.8079C99.5346 20.8664 97.8749 22.2568 96.5622 22.8215L94.1396 23.9048L95.3179 22.0367C95.9856 20.9781 97.3244 19.8206 98.2542 19.4495C99.2232 19.0162 99.9433 18.426 99.8745 18.1214C99.8057 17.8169 102.264 17.3657 105.339 17.0416C108.436 16.8191 111.019 16.4464 111.097 16.3218C111.176 16.1973 110.21 15.9362 109.081 15.659C107.748 15.4278 106.216 14.5483 105.354 13.5699L103.864 11.9337L106.958 12.4055C109.375 12.711 110.386 13.175 111.503 14.5757C112.767 16.1564 113.546 16.2997 119.747 16.1199C128.741 15.7866 129.186 15.6322 126.134 14.4038C123.659 13.3647 120.951 10.3509 121.579 9.35462C121.737 9.10553 123.256 9.45448 124.867 10.2094C127.116 11.193 128.095 11.9847 128.829 13.579C129.716 15.6186 129.88 15.6348 137.109 15.7552C141.172 15.7937 144.557 15.6658 144.636 15.5413C144.714 15.4168 143.221 14.475 141.26 13.5861C138.614 12.2656 137.449 11.3562 136.381 9.46419C134.229 5.84392 134.864 5.1129 138.725 6.85145C141.947 8.36137 144.733 11.2506 144.026 12.3715C143.83 12.6828 144.076 13.5341 144.462 14.3002C145.081 15.3869 146.725 15.8143 152.408 16.1787C156.314 16.4663 159.644 16.5644 159.762 16.3776C159.88 16.1908 158.511 15.3276 156.736 14.5564C154.939 13.6837 152.761 12.3103 151.821 11.4564C150.004 9.78782 147.983 4.85732 148.998 4.62703C149.342 4.49567 151.529 5.44002 153.824 6.62663C157.979 8.72516 158.104 8.80364 159.303 12.6934C160.58 16.4587 160.728 16.6387 163.105 17.0064C171.015 18.2529 174.063 18.5217 174.298 18.148C174.495 17.8367 172.933 16.5904 170.88 15.2954C166.587 12.5878 164.354 9.78648 163.715 6.24984L163.305 3.72831L166.34 5.12051C171.252 7.26086 173.478 9.79695 174.635 14.4434L175.677 18.5823L184.131 20.3457C188.829 21.3071 196.245 23.1993 200.73 24.6359C205.193 25.971 209.017 27.0775 209.282 27.0707C209.79 26.9555 207.697 24.0688 205.012 21.1566C201.302 17.2496 199.799 13.4289 200.047 8.62384L200.262 4.14636L202.413 6.11262C206.716 10.0452 210.701 15.1702 211.144 17.3642C211.317 18.6053 211.275 21.016 211.033 22.7783C210.137 27.7838 210.114 27.6823 216.325 30.3814C219.462 31.7506 223.735 33.6623 225.906 34.7704C228.054 35.777 229.658 36.2667 229.606 35.7984C229.452 35.3531 227.801 33.0064 225.902 30.5028C221.258 24.3532 219.748 20.2672 220.271 15.0263C220.539 12.6711 220.931 10.3944 221.206 9.9585C222.188 8.40177 231.77 21.0608 232.517 24.8397C232.793 26.0578 232.443 29.2319 231.838 31.9838L230.716 36.9338L238.568 42.4087C242.89 45.4831 247.864 49.3167 249.619 50.946C251.436 52.6146 253.06 53.9001 253.263 53.8541C253.872 53.7159 251.72 48.4416 249.654 44.9621C246.673 40.0358 244.924 32.0557 245.974 27.4955C246.923 22.9583 248.683 18.2369 249.305 18.6293C249.554 18.7863 251.467 21.8205 253.517 25.4638C259.553 35.8862 260.559 42.701 256.71 48.8034C256.121 49.7374 255.394 51.7164 255.185 53.1512C254.792 55.4279 255.117 56.1547 257.546 58.6447C260.31 61.4325 264.273 66.456 267.829 71.5716L269.525 74.1214L269.692 71.7892C269.783 70.5412 269.468 66.0774 268.957 61.9249C268.344 57.7954 268.127 52.3488 268.411 49.8299C268.843 45.8369 269.284 44.7229 272.999 38.971C275.199 35.4839 277.513 32.5044 278.122 32.3662C279.441 32.0668 282.345 47.0417 282.244 53.6807C282.124 59.5239 280.714 62.7253 276.265 66.8828C274.37 68.6468 272.167 71.1742 271.381 72.4196C270.046 74.5368 270.098 75.0051 271.87 78.1246C274.323 82.3702 279.42 93.5927 281.978 100.429C282.987 103.241 284.044 105.562 284.247 105.516C284.856 105.378 284.606 98.6052 283.748 93.6243C282.732 87.2386 282.57 81.566 283.218 76.4035C283.662 72.9411 284.372 71.1259 287.122 66.7671C291.049 60.5401 294.712 55.974 295.459 56.4449C295.707 56.6018 296.753 61.7004 297.841 67.6963C300.748 85.2848 299.502 91.8103 291.829 98.4603C288.054 101.825 284.67 106.914 285.184 108.719C285.62 110.647 294.473 130.942 298.413 139.172C300.205 143.087 302.229 147.323 302.894 148.613C303.952 150.934 304.014 150.973 303.788 149.264C303.722 148.265 302.517 144.11 301.147 139.939C296.856 126.613 295.725 118.065 297.348 111.081C298.303 106.809 306.066 90.641 307.284 90.3647C308.4 90.1114 315.587 109.877 317.497 118.567C318.529 123.135 319.175 128.591 318.884 130.845C318.469 134.674 318.083 135.562 312.309 144.716C308.735 150.382 306.234 154.898 306.372 155.507L332.745 200.692C333.456 200.531 329.669 189.438 326.604 182.717C318.782 165.337 317.602 153.973 322.369 141.313C325.053 134.301 328.885 126.708 329.255 127.638C329.449 128.021 331.728 132.679 334.371 138.002C340.8 151.11 343.106 156.83 344.695 164.099C346.799 173.173 346.2 176.19 340.532 186.28C335.72 194.735 333.914 199.253 334.167 202.024C334.288 203.706 350.247 223.772 359.566 235.49L360.394 236.53C362.881 234.593 362.94 232.914 357.967 227.678C354.431 222.711 352.583 219.508 350.027 211.621C347.622 197.95 349.323 190.8 353.436 178.23C356.414 168.27 356.738 167.342 357.36 167.735C357.609 167.892 361.018 172.828 364.898 178.67L382.591 213.766C383.843 219.778 382.907 224.846 378.715 234.388C374.675 239.144 371.896 240.662 365.872 240.958L366.031 246.934C370.853 253.343 378.662 264.891 380.433 275.902L380.644 277.137Z" fill="black" fill-opacity="0.1"/>
<path d="M382.375 261.915C380.909 242.89 383.239 231.334 390.343 221.844C393.207 218.116 404.218 206.671 404.801 206.91C404.97 207.04 405.62 212.076 406.313 218.16C409.019 243.771 407.611 255.827 401.021 263.514C399.662 265.041 396.1 268.193 393.058 270.48C389.382 273.296 386.585 275.938 384.558 278.63L381.755 282.391L381.755 280.601C382.377 277.375 382.776 267.309 382.375 261.915Z" fill="black" fill-opacity="0.1"/>
<path fill-rule="evenodd" clip-rule="evenodd" d="M269.089 759.667C268.589 761.167 261.947 759.281 258.055 758.743L258.052 758.742L258.008 758.736L258.007 758.736L257.999 758.735C251.879 757.889 242.146 756.543 231.423 755C213.823 752.6 199.289 750.733 199.023 751C198.756 751.267 200.889 752.2 203.689 753C206.489 753.933 216.889 758.2 226.756 762.6C249.556 772.467 257.156 774.467 273.423 774.467C285.956 774.6 286.756 774.733 292.089 778.6C295.023 780.867 297.423 782.867 297.156 783C296.889 783.267 289.289 782.333 280.089 781C250.623 776.6 235.423 774.467 235.156 774.867C234.356 775.667 283.289 795.133 291.423 797.267C296.623 798.6 306.223 802.333 312.756 805.533C319.423 808.733 328.356 812.333 332.889 813.4C338.489 814.733 343.423 817.133 348.489 821.133C352.623 824.333 355.823 827.133 355.556 827.267C355.423 827.4 348.489 825.533 340.223 823C324.756 818.2 282.089 807.4 272.756 805.8C266.623 804.733 318.623 831.4 337.556 839C349.823 843.933 365.556 848.2 377.156 849.667C382.623 850.333 384.756 851.4 386.356 853.933C387.556 855.667 390.489 858.2 392.889 859.4C397.156 861.667 424.223 883.933 423.556 884.733C423.289 884.867 408.489 881.8 390.623 877.8C332.489 864.867 299.689 858.733 270.489 855.667L269.39 855.555C257.521 854.347 251.979 853.783 251.59 854.945C251.248 855.964 254.858 858.306 261.628 862.701L262.089 863C297.556 886.067 336.889 899.667 375.423 902.067C389.689 903 411.023 902.333 430.089 900.333L439.423 899.4L464.623 924.467C478.623 938.6 488.889 949.8 487.823 950.067C486.756 950.2 478.489 948.2 469.423 945.533C460.223 942.867 447.823 939.8 441.689 938.867C435.689 937.933 415.823 933.8 397.689 929.8C349.556 919.133 314.623 913.133 286.089 910.467C262.089 908.333 250.756 907.533 250.756 908.067C250.756 909 273.023 921.533 287.823 928.867C327.156 948.6 367.689 960.2 414.489 965.133C427.289 966.467 485.556 966.2 498.623 964.733C501.289 964.333 504.623 967.533 517.423 982.333C526.089 992.2 533.023 1000.47 532.889 1000.6C532.756 1000.73 515.823 997.667 495.289 993.667C423.156 979.533 370.223 970.6 339.423 967.533C321.956 965.8 270.089 965.667 263.023 967.267L258.756 968.333L267.689 975.133C299.556 999.4 337.289 1017.8 372.489 1026.2C396.223 1031.93 409.423 1033.53 436.089 1033.53C471.289 1033.67 495.823 1029.27 528.223 1017.4L542.223 1012.2L553.556 1027.53C566.356 1044.87 585.423 1072.33 585.423 1073.4C585.423 1073.8 584.356 1073.8 583.156 1073.53C561.156 1068.87 427.156 1047.93 398.756 1044.87C368.089 1041.53 297.423 1043.53 297.423 1047.8C297.423 1048.33 301.423 1051.8 306.489 1055.4C334.223 1075.93 368.489 1093.67 400.756 1103.93C411.156 1107.27 411.956 1107.67 406.089 1107C369.023 1102.6 330.623 1100.73 330.756 1103.27C330.889 1105.4 359.956 1128.33 376.089 1139C424.756 1171.53 474.756 1188.6 531.423 1192.33C560.089 1194.33 602.756 1187.93 629.823 1177.67C634.756 1175.8 639.289 1174.33 639.956 1174.33C640.489 1174.33 642.756 1178.73 644.756 1183.93C646.889 1189.27 651.956 1201.53 656.223 1211.27L663.823 1228.87L661.289 1233.93C659.956 1236.6 658.756 1240.6 658.756 1242.6C658.756 1245.93 658.489 1246.07 655.156 1245C646.489 1242.2 567.156 1219 532.356 1209C445.556 1184.2 403.556 1175.8 355.956 1173.67L338.089 1172.87L344.089 1178.2C398.889 1228.07 462.089 1259.27 531.423 1270.73L550.089 1273.93L530.756 1280.07C502.623 1289.13 499.556 1289.67 473.423 1289.67C439.956 1289.53 417.823 1285.27 400.489 1275.53L393.423 1271.67L393.289 1274.6C392.489 1290.6 404.756 1306.73 427.423 1319.67C459.956 1338.07 486.356 1342.47 566.889 1342.73C593.156 1342.87 613.823 1343.4 612.889 1343.93C612.089 1344.47 610.489 1344.6 609.156 1344.2C607.956 1343.93 606.623 1344.2 606.089 1344.87C605.556 1345.8 606.223 1346.07 607.689 1345.53C613.556 1343.67 604.089 1349.67 591.423 1355.8C574.889 1363.8 561.556 1367.53 546.489 1368.6C539.956 1369 534.756 1369.8 534.756 1370.47C534.756 1371.93 541.823 1376.73 547.556 1379.13C559.156 1384.07 572.756 1385.27 614.756 1385.13C637.156 1385.13 661.156 1384.47 668.089 1383.67C690.356 1381.27 694.489 1381 690.089 1382.2L686.089 1383.13L690.089 1384.07C695.125 1385.21 706.482 1379.13 717.982 1370.47V1145L704.595 1087.31C704.327 1086.18 702.541 1075.63 700.756 1063C692.089 1004.33 677.956 950.733 658.223 901.533C645.289 869.4 633.956 842.467 633.156 841.533C632.756 841.133 631.956 848.867 631.423 858.733C629.823 888.867 633.423 928.333 641.956 972.333C643.823 981.8 646.889 999.267 648.756 1011C650.623 1022.73 655.823 1052.73 660.223 1077.67C670.756 1136.47 670.889 1138.2 662.223 1101.67C650.889 1053.53 644.356 1027 639.423 1009C637.023 999.8 633.956 985.667 632.756 977.667C621.689 904.6 605.023 843.8 582.889 797L577.556 785.667V795.667C577.423 820.333 582.889 869.4 594.089 942.333C598.089 968.333 601.956 997.4 602.756 1007C603.556 1016.47 605.423 1032.33 606.756 1042.2C608.223 1052.07 609.289 1060.33 609.023 1060.6C607.823 1061.8 592.889 1027.67 587.556 1011.67C577.156 980.333 571.423 949.267 567.423 903C562.089 840.6 555.289 803.133 543.289 769.667C538.623 756.6 529.156 736.2 526.623 733.8C523.423 730.467 527.156 787.267 533.289 833.667C534.189 840.363 535.987 852.527 539.134 873.81L539.138 873.837L539.14 873.85C540.189 880.952 541.389 889.068 542.756 898.333C553.556 970.067 556.756 994.333 555.556 994.333C554.089 994.333 541.023 974.733 535.956 964.733C527.823 948.6 523.289 936.2 519.023 918.2C513.956 897.533 512.623 887.533 510.089 852.333C508.889 836.867 507.156 818.067 505.956 810.333C501.423 779.267 491.823 747.8 480.623 728.2L475.423 719L475.023 727.667C474.356 741.4 480.489 800.2 484.623 819C485.111 821.051 485.313 822.172 488.268 838.551L488.296 838.707C489.372 844.674 490.811 852.648 492.756 863.4C497.156 888.067 504.089 932.333 504.089 935.933C504.089 941.267 485.956 913.933 479.556 899C469.956 876.867 466.089 857 464.089 819.667C461.823 781.267 458.223 757.933 451.023 736.733C447.023 725.133 437.823 705.4 435.956 704.2C432.356 702.067 438.223 756.467 448.089 817.667C452.223 843 457.423 880.467 457.423 884.6V888.333L454.089 884.333C439.556 867 429.023 845.4 423.423 821.133C422.223 816.467 420.223 801.933 418.623 788.6C413.956 746.6 407.156 724.867 391.156 700.6C387.823 695.667 384.889 691.667 384.623 691.933C384.356 692.2 385.023 695.4 386.223 699C387.289 702.733 390.223 715.8 392.756 728.333C397.156 750.6 397.689 753.667 399.423 767C399.956 770.6 400.889 775.8 401.423 778.333C402.089 780.867 403.823 793.133 405.289 805.667C405.984 811.053 406.679 816.49 407.276 821.157L407.279 821.184C408.055 827.248 408.663 832.01 408.889 833.667L409.689 839L406.756 836.333C402.223 832.333 389.156 814.733 383.556 805.133C370.889 783.267 360.089 754.067 352.889 722.067C351.023 713.533 349.423 705.533 349.289 704.2C349.289 702.733 348.889 702.333 348.623 703.133C347.956 704.733 353.289 739.267 359.823 776.6C361.956 788.6 363.289 798.333 362.756 798.333C361.023 798.333 349.556 785.267 345.023 778.067C337.689 766.6 333.689 756.733 323.289 725.667C316.623 705.933 313.689 698.467 314.223 703C315.689 715.267 320.089 742.867 322.889 756.733C324.356 764.333 325.289 770.867 324.889 771.4C323.289 772.867 310.889 758.467 304.889 748.333C301.689 742.6 296.489 731.4 293.556 723.133C290.489 715 285.956 702.6 283.423 695.667L278.756 683L279.556 692.333C279.956 697.4 282.089 711.8 284.223 724.067C286.356 736.467 288.089 746.867 288.089 747.133C288.089 749 284.489 746.6 276.089 738.733C254.209 718.462 230.589 702.667 203.689 690.167C226.756 736.733 270.316 755.985 269.089 759.667ZM599.556 1095.8C608.623 1110.73 636.089 1160.73 636.089 1162.33C636.089 1163 634.623 1163 632.489 1162.33C619.156 1158.07 486.089 1123.13 464.889 1118.33L449.156 1114.87L472.223 1114.73C497.023 1114.73 512.623 1112.73 534.489 1107C548.089 1103.4 571.423 1094.07 582.756 1087.8C586.756 1085.53 590.623 1083.93 591.423 1084.07C592.089 1084.33 595.823 1089.53 599.556 1095.8ZM417.023 1108.47C416.623 1108.87 415.423 1109 414.489 1108.6C413.423 1108.2 413.823 1107.8 415.289 1107.8C416.756 1107.67 417.556 1108.07 417.023 1108.47ZM670.356 1135.93C669.956 1137 669.556 1136.6 669.556 1135.13C669.423 1133.67 669.823 1132.87 670.223 1133.4C670.623 1133.8 670.756 1135 670.356 1135.93Z" fill="url(#paint0_linear_89_8)"/>
<path d="M5.49822 117.098C16.4103 114.218 24.9302 125.978 32.1694 120.753C27.9916 110.035 3.94358 103.605 4.97223 100.364C9.75716 103.602 12.9402 104.596 16.1979 104.546L15.2206 98.1843C10.9925 90.8513 -3.25752 84.1189 3.66043 78.1388C7.27023 83.0445 15.5322 89.6435 16.5528 96.4791L22.4297 103.602C22.9547 103.486 23.4939 103.364 24.06 103.237C18.4025 68.9625 27.8432 115.675 37.3979 118.138C37.5193 110.603 32.2347 99.0175 35.8243 94.083C43.8351 105.195 41.1172 130.613 56.2268 132.254C56.4346 120.297 46.2587 110.75 49.9454 101.402C60.9811 115.015 59.8914 144.803 75.8411 151.861C74.0268 133.67 68.9557 132.4 66.6823 113.949C86.3941 118.895 78.2724 160.97 98.3306 165.454C97.2766 148.672 87.7031 131.715 88.1244 120.221C107.441 131.506 99.8246 178.718 125.004 182.183C118.825 167.178 113.724 150.734 110.352 131.982C136.01 136.27 125.255 200.727 151.416 197.082C145.79 180.593 135.538 158.708 137.547 139.299C161.236 148.392 154.473 209.706 179.396 209.889C172.728 186.598 167.557 174.771 163.173 148.707C194.834 152.971 177.481 222.615 211.298 224.002C203.123 195.787 195.88 176.317 193.243 150.008C227.373 163.207 210.192 238.656 250.784 238.899C240.904 215.025 231.801 190.113 228.02 158.107C254.042 166.62 259.799 215.841 270.658 247.262C276.897 246.313 285.052 254.073 289.484 248.304C277.476 224.363 269.529 195.006 265.673 160.192C293.598 173.799 297.264 219.765 309.096 254.837C315.076 257.758 320.896 260.893 330.277 259.278C317.708 231.723 308.478 188.104 302.802 158.616C333.427 177.806 338.807 217.448 349.365 262.151C355.485 265.61 361.738 268.896 370.807 268.422C359.125 236.781 351.958 199.12 342.809 164.099C373.7 178.571 381.533 223.12 390.157 273.125C400.615 272.979 405.781 279.893 417.09 278.611C399.61 252.121 396.961 208.955 386.476 169.059C418.068 180.727 431.077 235.944 438.794 286.712C449.297 287.231 454.191 295.234 465.989 294.028C449.957 264.554 442.99 211.375 439.295 172.709C475.424 194.522 486.561 249.908 487.954 303.96C497.517 305.773 508.753 316.853 518.81 310.753C499.093 281.867 497.181 223.846 486.623 177.145C526.461 195.265 537.161 261.21 545.483 327.482C554.68 329.743 559.767 337.489 571.11 336.89C545.94 299.207 555.467 238.062 543.887 185.763C587.382 197.023 599.354 293.172 597.521 351.789C608.965 359.046 616.976 370.883 633.87 370.87C608.837 314.818 614.696 247.304 614.226 194.378C660.443 228.403 668.262 330.157 663.683 396.489C696.976 425.54 741.165 451.19 772.996 481.709C780.929 489.315 793.943 497.67 792.872 503.146L759.927 507.859C718.718 476.371 684.478 435.588 642.505 405.121C598.608 441.625 545.409 494.647 465.764 488.304C509.224 451.912 552.624 405.643 617.662 388.13C605.754 379.311 595.225 368.654 580.528 363.559C544.814 404.121 499.561 457.598 426.797 450.921C475.315 421.935 494.998 371.332 560.654 355.195C535.526 323.409 515.909 350.21 498.687 365.928C471.943 390.332 441.019 424.178 392.8 422.165C426.958 387.86 455.599 349.419 506.262 327.489C496.626 321.453 486.712 315.787 474.359 313.376C443.467 346.005 415.994 389.126 355.142 393.933C373.187 372.997 390.454 358.161 407.427 341.628C413.455 335.756 417.496 326.465 424.942 320.445C433.268 313.71 445.366 313.564 450.301 301.876C444.162 296.26 433.189 297.093 424.937 294.298C400.568 324.881 374.412 370.28 323.761 370.406C353.782 344.982 370.283 309.423 407.417 289.333C400.121 283.808 389.683 282.475 379.96 280.186C356.098 308.048 342.76 343.8 297.349 355.507C309.848 328.927 336.04 298.46 360.61 275.484C325.574 262.741 321.139 299.398 299.433 317.854C285.805 329.441 272.324 333.998 256.033 340.872C269.558 310.707 293.979 288.711 318.25 266.602C309.117 267.886 305.564 261.728 295.501 264.253C271.023 283.908 247.937 320.6 210.009 319.44C230.081 297.451 251.668 276.599 275.889 257.72C233.011 236.433 222.527 306.097 175.229 298.267C194.256 279.394 207.02 259.863 236.927 246.484C202.271 221.111 185.975 285.376 140.449 277.095C158.906 260.975 177.94 245.29 199.272 231.325C170.082 207.457 148.615 268.194 112.989 254.874C128.868 240.635 147.601 228.536 169.461 218.78C147.883 187.734 121.832 246.747 89.1908 232.131C106.659 222.351 120.986 210.216 140.957 202.313C123.517 172.578 91.6212 222.799 63.5621 209.649C75.31 194.829 105.434 199.653 112.191 184.015C97.5981 167.586 61.8994 198.641 43.1623 184.551C58.3035 179.018 76.3096 175.632 89.4415 168.593C80.5783 151.353 41.9622 173.804 28.7782 162.329C40.9936 158.023 59.8975 157.024 68.7822 154.738C58.0665 138.518 25.9838 150.799 13.8689 136.446C27.9233 132.267 39.8053 142.485 49.4297 136.962C41.6219 121.222 15.4675 129.955 5.49822 117.098ZM729.586 452.432C728.559 453.802 730.243 451.555 729.586 452.432V452.432ZM581.835 359.637C580.808 361.007 582.492 358.76 581.835 359.637V359.637ZM248.683 185.035C249.34 184.159 247.656 186.405 248.683 185.035V185.035ZM253.922 234.714C254.579 233.838 252.894 236.085 253.922 234.714V234.714ZM217.571 202.56C218.228 201.683 216.543 203.93 217.571 202.56V202.56Z" fill="url(#paint1_linear_89_8)"/>
</g>
<defs>
<linearGradient id="paint0_linear_89_8" x1="718" y1="1169" x2="200.856" y2="1062.95" gradientUnits="userSpaceOnUse">
<stop stop-color="#4F772D"/>
<stop offset="1" stop-color="#90A955"/>
</linearGradient>
<linearGradient id="paint1_linear_89_8" x1="62.0811" y1="69.7816" x2="137.486" y2="596.9" gradientUnits="userSpaceOnUse">
<stop stop-color="#4F772D"/>
<stop offset="1" stop-color="#90A955"/>
</linearGradient>
<clipPath id="clip0_89_8">
<rect width="718" height="1462" fill="white" transform="matrix(-1 0 0 1 718 0)"/>
</clipPath>
</defs>
</svg>
