<svg width="710" height="430" viewBox="0 0 710 430" fill="none" xmlns="http://www.w3.org/2000/svg">
<path d="M705.565 39.098C694.653 36.2185 686.133 47.9783 678.894 42.7535C683.072 32.0346 707.12 25.6055 706.091 22.3637C701.306 25.6016 698.123 26.5955 694.865 26.5461L695.843 20.1843C700.071 12.8513 714.321 6.11889 707.403 0.138845C703.793 5.04454 695.531 11.6435 694.51 18.4792L688.633 25.6025C688.108 25.4864 687.569 25.3642 687.003 25.2368C692.661 -9.03746 683.22 37.6746 673.665 40.1383C673.544 32.6034 678.829 21.0175 675.239 16.083C667.228 27.1949 669.946 52.6132 654.836 54.2544C654.629 42.2973 664.805 32.7501 661.118 23.4017C650.082 37.0152 651.172 66.8026 635.222 73.8614C637.036 55.6697 642.107 54.4002 644.381 35.9491C624.669 40.8953 632.791 82.9696 612.733 87.4538C613.787 70.6716 623.36 53.715 622.939 42.2205C603.622 53.5063 611.239 100.718 586.059 104.183C592.238 89.1782 597.339 72.7343 600.711 53.9825C575.054 58.2704 585.808 122.727 559.647 119.082C565.273 102.593 575.525 80.7077 573.517 61.2985C549.828 70.3918 556.59 131.706 531.667 131.889C538.335 108.598 543.506 96.7715 547.89 70.7068C516.229 74.971 533.582 144.615 499.765 146.002C507.94 117.787 515.183 98.3171 517.821 72.0082C483.69 85.207 500.871 160.656 460.279 160.899C470.159 137.025 479.262 112.113 483.043 80.1073C457.022 88.6202 451.264 137.841 440.405 169.262C434.167 168.313 426.011 176.073 421.579 170.304C433.588 146.363 441.534 117.006 445.39 82.1918C417.465 95.7987 413.799 141.765 401.967 176.837C395.987 179.758 390.167 182.893 380.787 181.278C393.355 153.723 402.586 110.104 408.261 80.6158C377.636 99.8055 372.256 139.448 361.699 184.151C355.578 187.61 349.326 190.896 340.256 190.422C351.938 158.781 359.106 121.12 368.254 86.0994C337.363 100.571 329.53 145.12 320.907 195.125C310.448 194.98 305.283 201.893 293.974 200.611C311.453 174.121 314.102 130.955 324.587 91.0589C292.995 102.727 279.986 157.944 272.269 208.713C261.766 209.231 256.872 217.234 245.074 216.028C261.106 186.554 268.073 133.375 271.768 94.7094C235.639 116.522 224.502 171.908 223.109 225.96C213.546 227.773 202.311 238.853 192.253 232.753C211.97 203.867 213.882 145.846 224.44 99.1453C184.602 117.265 173.902 183.21 165.58 249.482C156.383 251.743 151.296 259.489 139.954 258.89C165.123 221.207 155.597 160.062 167.176 107.763C123.681 119.023 111.709 215.172 113.542 273.789C102.099 281.046 94.0869 292.883 77.1931 292.87C102.226 236.818 96.3676 169.304 96.8373 116.378C50.6206 150.403 42.801 252.157 47.38 318.489C14.0876 347.54 -30.1019 373.19 -61.9328 403.709C-69.866 411.315 -82.8803 419.67 -81.809 425.146L-48.864 429.859C-7.65502 398.371 26.5852 357.588 68.558 327.121C112.456 363.625 165.654 416.647 245.299 410.304C201.839 373.912 158.439 327.643 93.4014 310.13C105.309 301.311 115.838 290.654 130.536 285.559C166.249 326.121 211.502 379.598 284.266 372.921C235.748 343.935 216.065 293.332 150.409 277.195C175.537 245.409 195.154 272.21 212.377 287.928C239.12 312.332 270.044 346.178 318.263 344.165C284.105 309.86 255.464 271.419 204.801 249.489C214.437 243.453 224.351 237.787 236.704 235.376C267.596 268.005 295.069 311.126 355.921 315.933C337.876 294.997 320.61 280.161 303.636 263.628C297.608 257.756 293.568 248.465 286.121 242.445C277.795 235.71 265.698 235.564 260.762 223.876C266.901 218.26 277.875 219.093 286.126 216.298C310.496 246.881 336.651 292.28 387.302 292.406C357.281 266.982 340.781 231.423 303.646 211.333C310.942 205.808 321.38 204.475 331.103 202.186C354.965 230.048 368.304 265.8 413.714 277.507C401.215 250.927 375.023 220.46 350.453 197.484C385.489 184.741 389.924 221.398 411.63 239.854C425.258 251.441 438.739 255.998 455.03 262.872C441.505 232.707 417.084 210.711 392.813 188.602C401.946 189.886 405.499 183.728 415.562 186.253C440.04 205.908 463.126 242.6 501.054 241.44C480.982 219.451 459.395 198.599 435.174 179.72C478.052 158.433 488.537 228.097 535.834 220.267C516.807 201.394 504.043 181.863 474.136 168.484C508.792 143.111 525.088 207.376 570.615 199.095C552.157 182.975 533.124 167.29 511.792 153.325C540.981 129.457 562.449 190.194 598.074 176.874C582.196 162.635 563.462 150.536 541.602 140.78C563.18 109.734 589.231 168.747 621.872 154.131C604.404 144.351 590.077 132.216 570.106 124.313C587.546 94.5779 619.442 144.799 647.501 131.649C635.753 116.829 605.63 121.653 598.872 106.015C613.465 89.5858 649.164 120.641 667.901 106.551C652.76 101.018 634.754 97.6316 621.622 90.5926C630.485 73.3531 669.101 95.8045 682.285 84.3289C670.07 80.0227 651.166 79.0236 642.281 76.7384C652.997 60.5183 685.079 72.7992 697.194 58.4455C683.14 54.2666 671.258 64.4848 661.633 58.9618C669.441 43.2224 695.596 51.9546 705.565 39.098ZM-18.5229 374.432C-17.4956 375.802 -19.1802 373.555 -18.5229 374.432V374.432ZM129.228 281.637C130.255 283.007 128.571 280.76 129.228 281.637V281.637ZM462.38 107.035C461.723 106.159 463.408 108.405 462.38 107.035V107.035ZM457.141 156.714C456.484 155.838 458.169 158.085 457.141 156.714V156.714ZM493.492 124.56C492.835 123.683 494.52 125.93 493.492 124.56V124.56Z" fill="url(#paint0_linear_4_7)"/>
<defs>
<linearGradient id="paint0_linear_4_7" x1="648.982" y1="-8.21835" x2="573.577" y2="518.9" gradientUnits="userSpaceOnUse">
<stop stop-color="#4F772D"/>
<stop offset="1" stop-color="#90A955"/>
</linearGradient>
</defs>
</svg>
