<svg width="422" height="770" viewBox="0 0 422 770" fill="none" xmlns="http://www.w3.org/2000/svg">
<path fill-rule="evenodd" clip-rule="evenodd" d="M422 93.97C421.098 94.2919 420.251 94.7689 419.733 95.287C418.8 96.2204 415.2 99.0204 411.733 101.287C404.267 106.354 403.733 108.22 409.333 108.22C411.325 108.22 412.325 108.22 412.597 108.665C412.87 109.113 412.404 110.013 411.467 111.82C408.533 117.554 405.6 121.02 404.667 120.087C404.267 119.554 403.067 113.82 402.133 107.287C399.333 88.887 394.4 79.8204 383.067 72.087C377.867 68.487 377.333 68.3537 377.333 70.6204C377.333 72.087 380.667 76.6204 384.667 80.7537C389.467 85.687 392 89.287 392 91.4204C392 94.3537 391.333 94.7537 384.4 95.687C373.067 97.0204 348.533 95.287 338.667 92.3537C333.867 91.0204 323.467 87.0204 315.333 83.5537C307.333 79.9537 292.933 74.3537 283.333 70.7537C267.733 65.1537 266 64.2204 266.4 61.5537C267.067 57.4204 261.467 51.9537 247.333 43.287C231.333 33.287 194.267 15.1537 177.2 8.88703C160.533 2.7537 145.333 -1.2463 145.333 0.353701C145.333 0.495099 145.33 0.620003 145.352 0.740656C145.53 1.75772 147.428 2.47279 167.333 10.2204C186.267 17.687 232.667 39.9537 248.133 49.1537C258.133 55.0204 264.133 60.6204 262.267 62.3537C261.867 62.7537 253.2 60.6204 243.067 57.8204C220.8 51.4204 213.333 49.8204 215.467 52.087C216.267 53.0204 221.333 54.6204 226.8 55.8204C243.333 59.1537 256.8 63.9537 286 76.887C330.4 96.487 342.933 100.087 373.067 101.154L392 101.954V110.62C392 118.754 392.4 119.82 396.267 123.82C400 127.687 400.533 129.02 400.133 134.62C400 138.087 398.533 145.287 397.067 150.62C395.6 156.087 394.8 160.754 395.067 161.154C395.467 161.42 396.933 161.154 398.4 160.354C400 159.554 404.4 158.887 408.267 158.887L415.333 159.02L408.8 161.554C403.2 163.82 390.667 173.82 390.667 176.22C390.667 176.62 394.267 176.62 398.667 176.487C406.533 175.954 406.667 176.087 406.667 179.42C406.667 182.887 406.8 183.02 413.333 182.087C419.067 181.287 420 181.554 420 183.42C420 189.42 417.6 190.887 407.733 190.887H398.267L391.333 184.354C382.533 175.954 376.667 174.354 360.667 175.42C351.467 176.087 348.133 176.754 346.667 178.62C345.6 179.954 342.267 182.62 339.2 184.62C336.267 186.62 332.533 189.954 331.067 191.954C326.4 198.22 315.733 218.887 317.067 218.887C317.733 218.887 320.667 218.087 323.467 217.02C326.4 216.087 331.067 214.887 334 214.354L339.333 213.287L331.333 218.887C326.933 221.954 320.8 225.954 317.733 227.954C314.667 229.954 312 231.82 312 232.22C312 233.154 325.333 240.62 329.333 241.954C331.2 242.487 336.533 243.42 341.333 243.954L350 244.887L340.4 254.754L320.533 248.087C309.6 244.354 299.6 240.22 298.267 238.754C296.933 237.42 292.8 234.62 289.2 232.754C285.467 230.887 279.333 227.287 275.6 224.62C273.667 223.287 271.867 222.02 270.517 221.071C269.167 220.12 268.267 219.487 268.133 219.42C267.867 219.154 268.933 217.287 270.533 215.02C278.4 204.087 274.4 198.487 259.067 199.02C254.133 199.154 248.667 199.954 247.067 200.62C244.933 201.554 243.333 201.287 240.4 199.287C238.4 197.82 233.333 195.154 229.2 193.287L221.733 189.82L222.4 183.02C223.6 170.354 217.6 166.087 195.733 164.087C188.4 163.42 180 161.954 177.067 160.887C172 159.154 171.333 159.287 169.867 161.287C164.533 168.22 172.267 183.42 182.8 187.287C184.667 187.954 184.8 189.02 183.733 195.02C183.067 199.02 181.867 203.154 181.2 204.487C179.467 207.687 180.8 208.087 196.267 209.02C208.8 209.82 210.533 209.687 215.733 207.02C218.8 205.42 222 203.02 222.933 201.687C224.4 199.154 224.667 199.154 231.067 202.487C238.267 206.087 237.867 208.22 230.133 208.22C228 208.22 225.2 209.154 224 210.22C220.933 212.887 210.267 213.154 177.333 211.02C162.4 210.087 150.933 208.754 150.533 207.954C150 207.154 148.267 206.887 146.533 207.287C142.4 208.354 140 206.087 140 200.887C140 194.22 135.733 189.954 127.333 188.087C117.467 185.82 112.133 187.687 101.067 196.887C96.1333 200.887 91.0667 204.22 89.7333 204.22C88.4 204.22 81.3333 202.087 74.1333 199.554C62.7368 195.484 60.5036 194.675 60.085 195.231C59.9551 195.404 60 195.708 60 196.087C60 197.687 78.5333 206.354 87.2 208.887C90.9333 209.954 101.467 211.954 110.667 213.287L127.333 215.687V220.087C127.333 224.087 126.8 224.754 119.733 227.687C112.8 230.62 112 230.62 108.133 228.754C105.867 227.687 102.933 227.02 101.6 227.42C100.267 227.954 97.2 227.287 94.8 226.087C91.7333 224.62 88.8 224.22 85.0667 224.754C77.0667 226.087 74.8 227.82 71.8667 234.487C70.4 237.82 68.9333 240.22 68.4 239.82C68 239.287 68.2667 238.22 69.0667 237.287C69.7333 236.354 70.6667 234.087 70.9333 232.22C71.3333 229.287 70.6667 228.754 64.8 227.287C56.5333 225.287 48.8 226.62 40.8 231.687C37.4667 233.82 34.8 235.954 34.6667 236.354C34.6667 236.754 37.2 237.954 40.4 239.02L46 240.887L36.9333 241.287C29.2 241.687 27.8667 241.954 28.2667 243.954C28.8 246.487 32.8 246.487 58.4 244.887L70.6667 243.954V248.087C70.6667 250.22 70.1333 253.554 69.3333 255.42C68.6667 257.287 68.5333 258.887 69.0667 258.887C74 258.887 94.9333 255.82 98.4 254.754C105.2 252.487 111.733 246.087 112.8 240.754C113.6 236.62 114.533 235.687 120.933 232.754C121.329 232.588 121.718 232.424 122.099 232.265C125.701 230.753 128.559 229.554 128.8 229.554C129.067 229.554 129.333 231.287 129.333 233.42C129.333 235.687 129.867 237.82 130.667 238.22C132.4 239.287 148.4 236.087 150 234.22C150.8 233.42 154.133 231.687 157.733 230.354C164.533 227.82 168 224.087 168 219.154V216.087L184.4 217.154C204.933 218.487 216.933 218.487 221.733 217.154C225.2 216.22 225.333 216.354 224 219.02C223.067 220.487 222.8 222.22 223.333 222.62C224.933 224.22 247.2 226.354 252 225.42C254.533 224.887 258.533 224.087 260.667 223.687C263.333 223.154 265.6 223.554 267.333 224.887L270 227.02L267.333 228.487C262 231.554 257.333 237.954 255.2 245.02L253.2 252.087L241.6 251.42C235.2 251.02 227.867 249.82 225.2 248.887C220.133 247.02 211.733 248.087 210 250.887C209.467 251.687 203.2 252.22 196 252.22C184.133 252.22 182.533 252.487 179.067 255.42C177.067 257.02 172 259.554 168 260.887C156.933 264.487 143.067 271.154 145.067 271.82C146.133 272.22 153.2 270.887 160.8 268.887C168.4 266.754 175.067 265.42 175.467 265.954C176.8 267.287 174.8 271.42 170.667 275.954C165.867 281.287 165.733 282.354 169.733 283.42C179.6 286.087 193.2 283.02 198.267 277.02C200.667 274.354 201.467 273.82 200.8 275.554C200.266 277.022 198.133 282.888 196 288.487L192.133 298.887H199.867C227.733 298.887 256.533 277.02 248.933 261.687L246.8 257.42L251.733 258.354C254.4 258.754 260.267 259.954 264.667 260.887C282.933 265.02 287.867 265.554 310.4 265.554H334L333.867 276.22C333.733 282.087 332.933 287.687 332.133 288.754C330.267 291.02 330.533 291.154 340 294.22C348.933 297.154 363.867 297.287 371.6 294.487L377.067 292.354L375.733 296.354L374.4 300.22H351.867C312 300.22 301.333 302.354 271.067 316.087C254.4 323.687 241.333 328.22 224.533 332.22C215.165 334.43 212.241 335.175 211.567 334.261C211.224 333.796 211.464 332.902 211.733 331.554C212.933 324.62 206.533 322.22 198.267 326.354C196.756 327.109 193.818 328.763 190.585 330.583C188.683 331.654 186.677 332.783 184.8 333.82C175.467 339.287 174.933 341.287 182.667 341.687C185.067 341.82 156.8 351.954 153.6 352.22C153.467 352.22 154.267 350.754 155.333 349.02C158.267 344.487 156.133 340.754 148.8 337.554C139.467 333.42 133.2 332.887 127.2 335.954C121.067 339.154 106 354.754 107.6 356.22C108.133 356.887 111.733 358.487 115.333 359.954L122 362.62L118 364.22C115.867 365.154 109.333 367.554 103.733 369.554L93.6 373.42L88.6667 368.754C81.7333 362.22 76.6667 359.954 67.2 359.154C56.6667 358.354 55.4667 360.22 62.9333 365.687C71.2 371.687 76 373.954 82 374.887L87.3333 375.687L77.8667 377.954C62.2667 381.554 44.2667 382.22 24.6667 379.687C12 378.087 6.4 376.754 3.73333 374.754L0 372.087V375.287C0 378.22 0.8 378.62 6.8 379.42C12.5333 380.22 13.3333 380.62 11.4667 381.954C10.4 382.887 8.4 386.22 7.33333 389.554C6.13333 392.754 4.4 396.754 3.33333 398.354C1.46667 401.287 1.6 401.42 10.6667 403.02C31.0667 406.62 46.1333 398.354 40 386.754C38.6667 384.354 39.2 384.22 52.9333 384.22L67.3333 384.354L62.6667 386.754C60.1333 388.22 55.2 391.954 51.7333 395.154C45.6 400.887 45.3333 401.287 45.3333 408.62V416.087L58.8 411.554C73.4667 406.487 79.8667 403.154 84 397.954C86.8 394.354 87.6 386.354 85.2 384.887C83.0667 383.42 95.7333 378.087 116.933 371.554C127.6 368.22 136.533 365.554 136.933 365.554C137.2 365.554 136 367.42 134.133 369.687C129.867 374.754 129.733 382.354 133.2 402.22L135.6 415.554L139.467 415.154C149.733 414.087 165.733 401.687 170.533 390.887C175.333 380.354 173.6 367.154 166.667 360.22C165.067 358.62 164 357.154 164.267 356.887C164.8 356.487 214.4 340.22 215.333 340.22C215.733 340.22 214 342.887 211.467 346.22C204.8 354.887 203.6 359.554 205.333 370.354C206.133 375.287 207.067 379.82 207.467 380.354C208.533 382.087 215.867 379.154 222.667 374.22C231.067 368.087 237.067 361.154 240.267 353.954C243.2 347.42 242.4 345.02 235.867 339.82L231.6 336.487L238.8 334.487C242.8 333.287 251.067 331.154 257.333 329.554C276.533 324.754 291.067 320.087 296.933 316.887C304.8 312.62 309.467 311.82 320.8 312.887C329.6 313.687 330.667 314.087 330.667 316.487C330.667 322.754 327.067 330.487 321.867 335.687L316.4 341.154L305.333 340.62C292.4 340.087 292 340.354 292 350.487C292 355.82 291.333 358.22 289.067 360.754C285.733 364.354 272.133 371.42 242 385.287C219.2 395.687 200.933 405.954 204.133 406.62C206.267 407.02 255.067 385.42 274 375.82C283.6 370.754 285.867 370.22 297.067 369.554C303.733 369.154 309.333 369.154 309.333 369.42C309.333 369.687 307.733 372.087 305.867 374.487C300.4 381.687 303.867 382.887 309.733 375.954C310.709 374.839 311.83 373.546 312.979 372.221C315.127 369.744 317.37 367.158 318.933 365.42C321.333 362.754 323.733 358.887 324.267 356.754C325.467 352.22 324.267 343.954 322.133 342.62C321.2 341.954 326 336.22 334.667 327.42L348.667 313.287L377.333 314.087C399.467 314.754 407.6 314.487 413.067 313.154L420 311.287V319.554C420 324.495 420.543 327.899 422 331.33V93.97ZM326 256.887L315.333 252.354C312.592 251.232 309.91 250.111 307.747 249.207C305.282 248.177 303.493 247.429 303.067 247.287C302.133 246.887 301.333 247.42 301.333 248.487C301.333 250.754 296.4 255.42 292.8 256.754C291.467 257.154 290.533 257.687 290.8 257.954C291.067 258.087 299.2 257.954 308.667 257.554L326 256.887ZM202.933 262.22C202.933 264.354 203.2 265.154 203.6 263.82C203.867 262.62 203.867 260.754 203.6 259.82C203.2 259.02 202.933 259.954 202.933 262.22Z" fill="black" fill-opacity="0.1"/>
<path d="M422 421.597C419.369 420.38 415.981 419.181 411.2 417.687C403.733 415.42 397.2 413.554 396.667 413.554C394.086 413.554 411.727 428.822 422 435.946V421.597Z" fill="black" fill-opacity="0.1"/>
<path d="M422 443.368C421.745 443.513 421.478 443.664 421.2 443.82C402.667 454.087 385.867 458.887 368.133 458.887H360.667L358.933 449.82C356.133 434.887 349.333 423.154 340.8 418.62C338.667 417.42 338.4 417.687 339.067 420.087C339.855 423.241 339.737 423.157 330.794 416.769L330.4 416.487C326.8 413.954 324 412.22 324 412.62C324 413.02 325.467 415.954 327.333 419.02C331.333 426.22 331.467 427.42 327.867 426.487C324.4 425.554 324.8 426.62 332.667 438.887C336 444.087 338.4 448.887 337.867 449.42C337.467 449.82 336.4 449.02 335.467 447.554C332.533 442.354 321.333 431.42 316.133 428.487L310.8 425.42L312.8 430.487C313.714 432.619 315.014 435.37 315.995 437.444C316.302 438.094 316.577 438.677 316.8 439.154C319.2 443.687 318.933 443.687 309.867 439.554C305.867 437.687 301.067 436.22 299.2 436.22C294.133 436.22 287.467 439.42 284.267 443.42C281.333 447.287 272.8 466.754 273.733 467.687C275.733 469.687 312 459.287 325.6 452.754C328.4 451.42 331.067 450.754 331.467 451.287C332.8 452.62 325.6 457.954 318.933 460.487C315.733 461.687 309.867 465.287 305.867 468.487C303.202 470.55 300.095 472.889 297.616 474.756C296.248 475.785 295.072 476.671 294.267 477.287C282.133 486.087 274.667 496.887 274.667 505.687C274.667 510.62 278.533 517.954 283.067 521.554C285.867 523.954 286 523.82 289.733 515.02C291.733 510.22 296.533 501.954 300.267 496.887C304.133 491.687 308.133 484.22 309.467 480.22C311.2 474.62 312.667 472.354 315.867 470.354L320.133 467.82L319.467 475.42C318.933 482.354 320 484.887 322 481.554C323.6 479.02 333.2 474.887 337.733 474.887C340.133 474.887 345.2 473.42 348.8 471.554C354.267 468.754 357.2 468.22 366.667 468.22C379.333 468.22 384.4 467.02 406.667 458.887C413.061 456.538 418.026 454.724 422 453.31V443.368Z" fill="black" fill-opacity="0.1"/>
<path d="M422 474.501C421.753 474.383 421.488 474.244 421.2 474.087C414.8 470.62 410.4 471.82 400.533 479.554C395.467 483.687 389.333 487.687 387.067 488.487C384.667 489.42 382.667 490.487 382.667 490.887C382.667 491.82 399.867 496.087 405.6 496.62L409.067 496.887L402.533 507.554C398.933 513.42 389.2 530.354 381.067 545.154L366.267 572.087L361.867 562.887C355.733 549.954 345.733 541.287 334.267 538.62C325.6 536.754 319.067 540.754 300 559.954C290.667 569.287 282.4 578.22 281.467 579.954C280 582.754 280.133 582.887 284.667 582.887C290.667 582.887 297.2 585.687 305.333 591.42C314.267 597.82 323.067 600.62 331.333 599.554C340.267 598.487 351.067 592.22 355.467 585.554C357.467 582.62 359.333 580.487 359.733 580.887C361.867 583.02 332 621.554 313.6 640.087L301.067 652.887L299.2 648.62C294.933 638.487 287.733 639.02 267.2 650.887C258.267 655.954 250.133 660.22 249.2 660.354C246.933 660.354 266.933 666.62 273.2 667.82L277.733 668.62L271.867 671.687C268.667 673.287 263.067 675.154 259.333 675.554C255.733 676.087 250.533 677.287 247.867 678.22C238.4 681.687 194.667 685.954 203.067 682.754C205.067 681.954 206.667 680.754 206.4 680.22C205.733 678.62 189.733 665.554 188.267 665.554C186.133 665.554 183.6 673.154 184.533 676.887C184.933 678.62 187.067 681.02 189.067 682.087C192.267 683.954 189.733 684.087 161.333 684.087C144.133 684.087 128.8 683.554 127.467 683.02C125.2 682.22 125.467 681.82 129.2 680.22C134 678.354 138 673.154 136.933 670.487C135.733 667.154 118.267 642.887 117.2 642.887C116.533 642.887 116 644.887 116 647.287C116 649.954 114.267 654.087 111.467 658.22C106.267 666.087 106.533 667.82 114.667 675.82L120.4 681.287L113.867 679.954C112.285 679.661 110.548 679.316 108.951 678.999C106.914 678.595 105.105 678.237 104.133 678.087C101.733 677.554 101.333 677.02 102.533 675.82C106.533 671.82 102.133 665.687 85.4667 652.487C78.4 646.887 72.2667 641.687 71.7333 641.02C70.4 639.02 70 639.954 68.2667 649.82C65.7333 663.82 69.0667 669.554 83.4667 675.687C88.1333 677.687 92 680.087 92 680.887C92 682.754 96.1333 684.22 101.067 684.22C102.667 684.22 104 684.62 104 685.154C104 685.82 100 689.154 95.2 692.754C90.5709 696.272 88.0561 698.104 88.3036 699.415C88.5909 700.935 92.5967 701.754 101.333 703.687C112.267 705.954 117.2 705.02 123.6 699.554C128 695.687 128.533 694.754 127.067 692.487C125.6 689.954 125.733 689.82 129.733 691.02C135.067 692.487 199.467 692.487 214 690.887C219.867 690.354 224.8 689.954 224.933 690.087C225.067 690.22 219.733 692.62 212.933 695.42C206.133 698.22 192.267 704.887 182 710.22C166.933 718.087 161.467 720.22 153.467 721.42C142 723.154 139.867 722.62 148.933 720.22L149.422 720.095C158.804 717.687 158.924 717.656 158.4 715.82C158 715.02 155.6 714.087 152.8 713.82C148.8 713.42 146.133 714.487 140 718.487C135.6 721.287 132.133 723.954 132 724.487C132 725.02 136.667 725.554 142.4 725.82L152.667 726.22L144.4 731.287C139.867 734.087 131.467 739.687 125.733 743.82L115.467 751.154L106.933 750.354C94.8 749.154 84.2667 744.754 81.4667 740.087C78.8 735.287 77.7333 735.287 76.6667 740.087C75.0667 747.554 81.3333 763.687 87.3333 767.687C90.4 769.687 91.7333 769.687 98.9333 768.22C105.2 766.887 109.333 764.754 116.533 759.287L126 752.22L126.4 760.887C126.667 765.687 127.2 769.554 127.733 769.554C131.067 769.287 147.733 756.087 150 751.82C152.533 747.02 152.533 746.754 150.267 742.754C148.933 740.354 148.133 738.354 148.267 738.22C152 734.62 205.2 706.887 218.667 701.554C225.6 698.754 248 690.887 248.933 690.887C249.2 690.887 248.933 691.954 248.267 693.154C247.6 694.487 246.533 699.687 246.133 704.887C245.6 709.954 244.8 716.887 244.4 720.087L243.6 726.087L247.333 723.154C249.333 721.554 255.733 718.754 261.6 717.02C276.4 712.354 283.2 708.22 286.533 701.154C291.333 691.154 289.733 685.287 280.8 680.62C278.4 679.287 278.4 679.154 281.467 677.554C288.533 673.954 304 661.287 312.933 652.087C324.8 639.687 357.733 600.354 359.2 596.754C359.333 596.62 360.533 596.221 362.132 595.687L362.133 595.687C364.667 594.887 365.067 595.42 365.733 602.22C366.933 614.354 372.267 622.22 385.2 630.887C390.153 634.207 393.044 635.61 394.344 637.913C396.332 641.437 394.59 647.065 390.8 664.887C388.667 675.154 387.067 683.687 387.333 683.954C387.6 684.22 390.933 674.754 394.8 663.02L401.867 641.554L405.6 645.154C407.6 647.02 409.6 650.354 410 652.487L410.933 656.354L415.6 650.22C418.113 646.885 420.25 643.488 422 640.038V588.698C421.956 588.626 421.911 588.556 421.867 588.487C420.667 586.754 420 585.154 420.267 585.02C420.387 584.9 421.027 584.588 422 584.171V571.724C419.751 575.529 417.678 578.759 416.533 580.087C416.133 580.487 414 578.887 411.6 576.62C403.333 568.754 390.4 564.354 382.133 566.62C379.467 567.42 377.333 567.82 377.333 567.554C377.333 567.154 396 532.62 404.8 516.487L408.667 509.554L411.333 512.754C411.7 513.187 412.2 513.77 412.787 514.456C414.55 516.512 417.1 519.487 419.2 522.087C420.415 523.568 421.338 524.735 422 525.672V514.368L413.467 502.62L416.267 498.354C417.504 496.441 419.976 493.958 422 492.348V474.501Z" fill="black" fill-opacity="0.1"/>
<path d="M422 529.998C421.057 530.512 420.047 530.887 419.6 530.887C418.667 530.887 413.6 540.62 408.267 552.487C407.465 554.206 415.23 553.66 422 551.949V529.998Z" fill="black" fill-opacity="0.1"/>
</svg>
