<svg width="736" height="1170" viewBox="0 0 736 1170" fill="none" xmlns="http://www.w3.org/2000/svg">
<path d="M450.713 5.36677C451.284 2.69861 451.781 1.72575 453.174 1.21801C456.166 -0.0744358 456.693 1.05425 455.424 5.61044C454.763 8.05933 453.711 13.6149 453.112 18.0881C451.114 32.4226 450.098 35.722 446.702 39.9342C440.815 47.2831 438.032 56.1115 433.842 80.2486C432.536 88.1504 429.806 100.544 427.811 107.703C425.893 114.895 422.913 126.367 421.202 133.282C415.862 155.393 412.502 166.252 405.53 184.23C397.589 204.527 395.024 209.359 383.085 225.533C378.553 231.813 372.928 240.271 370.576 244.375C364.911 254.45 350.974 289.955 342.962 314.764C334.736 340.302 327.074 358.627 319.795 370.39C316.171 376.233 311.228 385.885 305.656 397.907C297.635 415.355 296.833 416.837 291.282 423.6C278.984 438.896 263.486 461.848 246.95 489.452C235.413 508.792 208.992 554.609 209.172 555.048C209.262 555.267 211.612 552.253 214.427 548.343C217.274 544.356 225.713 533.077 233.35 523.281C268.988 477.138 275.245 468.036 304.504 420.862C333.22 374.55 335.914 369.409 372.04 291.041C396.615 237.912 411.775 212.729 429.786 195.279C443.389 182.073 450.943 171.606 461.276 151.672C467.356 139.953 475.802 118.231 479.029 105.954C480.169 101.708 481.314 98.0989 481.534 98.0089C482.366 97.5392 484.82 102.744 485.242 105.645C485.465 107.283 484.768 113.078 483.671 118.524C482.574 123.969 481.107 132.258 480.411 136.963C477.53 156.015 473.248 172.12 466.262 191C460.79 205.608 459.207 208.307 444.111 229.429C430.906 247.98 428.91 251.233 420.631 268.21C408.96 292.216 406.976 295.656 389.836 322.1C385.212 329.25 377.077 345.016 361.353 377.411C345.196 410.624 335.619 425.06 309.282 456.56C292.983 475.998 291.479 477.64 282.019 486.583C277.676 490.672 269.467 499.23 263.658 505.522C257.926 511.846 248.587 522.021 242.92 528.191C225.255 547.42 199.889 580.507 199.703 584.426C199.643 586.309 208.051 577.925 219.476 564.716C231.424 550.908 233.289 549.053 241.907 543.209C250.558 537.288 256.113 532.253 264.872 522.381C269.274 517.499 279.898 505.772 288.617 496.428C297.26 487.051 309.607 473.592 315.925 466.514C322.322 459.469 329.634 451.535 332.274 448.914C339.953 441.406 345.763 434.025 351.634 424.762C354.65 419.937 361.38 409.488 366.656 401.429C372.01 393.403 379.262 382.355 382.833 376.854C386.482 371.385 392.797 362.58 396.909 357.305C399.896 353.568 404.721 347.417 409.213 341.692C411.024 339.384 412.78 337.145 414.34 335.161C419.77 328.257 430.164 314.254 437.467 303.954C459.028 273.454 461.203 270.639 475.656 253.882L477.101 252.215C487.037 240.765 492.033 235.007 496.075 228.642C500.163 222.204 503.273 215.146 509.531 200.948C509.917 200.072 510.315 199.169 510.726 198.237C516.29 185.66 521.076 174.944 522.474 171.814L522.76 171.174C522.84 170.994 522.883 170.898 522.886 170.891C522.995 170.846 523.504 171.15 524.025 171.641C525.834 173.396 524.962 179.39 521.923 186.658C519.563 192.303 519.045 194.629 519.071 198.91C519.052 203.08 518.501 205.484 516.42 210.246C514.544 214.73 513.437 218.9 512.467 226.216C511.555 232.738 509.825 239.918 507.392 247.257C505.443 253.437 503.059 262.614 502.124 267.674C500.136 279.378 499.509 280.66 489.194 297.513C468.661 330.985 460.681 341.82 449.073 351.773C442.118 357.767 438.289 362.797 427.116 380.835C419.739 392.83 399.916 420.695 385.906 439C382.73 443.123 378.833 446.58 371.234 451.942C368.511 453.892 365.962 456.732 363.237 460.861C356.365 471.432 353.609 474.549 342.498 484.619C336.516 490.021 328.837 497.529 325.416 501.367C315.521 512.219 311.096 515.637 293.288 526.086C268.398 540.66 238.485 562.036 214.451 582.599C205.179 590.44 195.083 598.3 191.439 600.501C187.859 602.547 185.169 604.42 185.633 604.614C187.72 605.487 192.549 604.144 199.011 600.851C202.977 598.967 209.825 595.835 214.21 594.034C223.45 590.177 227.037 587.68 233.685 580.467C241.914 571.644 245.978 568.439 255.42 563.666C293.676 544.053 319.187 527.558 346.788 504.762C362.002 492.047 378.156 479.907 385.728 475.261C388.147 473.82 398.517 468.345 408.868 463.135C430.949 452.02 434.439 449.754 451.304 435.913C468.531 421.86 476.723 416.383 483.002 414.83C488.095 413.507 491.126 411.686 500.423 404.219C503.307 401.882 509.036 397.737 513.17 395.014C521.001 389.75 539.764 373.977 546.786 366.739C553.317 360.022 556.707 355.172 562.257 344.503C565.004 339.02 568.311 333.499 569.421 332.146C571.448 329.905 571.602 329.97 572.212 331.769C573.509 335.4 572.292 339.614 568.339 345.592C561.772 355.654 558.192 362.696 551.298 379.617L544.393 396.351L536.505 405.225C532.181 410.139 525.668 417.68 522.085 421.905C514.604 430.677 503.505 440.934 497.423 444.84C495.159 446.346 489.167 449.382 484.215 451.672C476.741 454.996 473.503 457.094 465.683 463.635C460.354 468.129 451.935 474.147 446.517 477.332C437.126 482.853 434.843 484.623 425.976 493.452C423.62 495.828 419.104 499.027 415.435 500.853C411.952 502.667 406.109 506.219 402.49 508.794C398.948 511.401 392.601 515.288 388.429 517.449C384.256 519.61 378.522 523.117 375.703 525.3C372.851 527.559 367.955 531.235 364.916 533.507C361.845 535.856 355.299 539.569 350.379 541.781C344.691 544.308 339.273 547.493 335.854 550.242C331.834 553.558 327.597 555.874 319.924 559.024C314.223 561.364 308.175 564.104 306.697 565.03C305.111 566.002 301.842 567.088 299.347 567.407C285.457 569.139 270.047 574.505 248.752 585.041C245.369 586.686 241.935 588.363 238.984 589.805L238.944 589.825C235.254 591.628 232.323 593.06 231.192 593.595C229.154 594.56 225.019 597.282 222.058 599.587C215.71 604.563 210.403 606.614 195.667 609.718C184.708 612.039 176.57 614.996 172.384 618.059C170.242 619.707 170.145 619.939 171.227 620.392C171.923 620.683 174.255 620.75 176.389 620.642C181.281 620.235 235.251 603.65 256.877 595.796C265.749 592.602 284.892 586.344 299.431 581.976C332.918 571.815 337.876 570.164 359.168 561.807C380.382 553.417 384.025 552.306 408.613 546.054C427.812 541.182 434.335 539.913 466.25 534.817C475.126 533.35 486.91 531.01 492.486 529.617C494.562 529.073 496.927 528.463 499.275 527.858L499.28 527.856C503.274 526.826 507.218 525.808 509.609 525.149C513.451 524.213 519.504 523.201 523.023 523.037C527.773 522.752 530.43 522.046 533.384 520.192C535.583 518.841 545.346 514.384 555.058 510.269C571.378 503.377 572.629 502.991 572.053 505.021C570.997 508.849 564.264 517.57 556.758 524.879C552.7 528.723 548.414 533.108 547.162 534.583C545.91 536.058 542.607 538.31 539.847 539.7C537.119 541.012 527.787 545.74 519.145 550.12C499.572 560.013 496.845 561.325 483.606 567.145C477.699 569.762 468.915 574.265 464.155 577.18C453.848 583.589 448.07 585.897 431.727 590.237C424.977 592.047 415.758 594.551 411.193 595.913C401.658 598.739 395.747 599.629 383.979 599.977C379.371 600.139 372.841 600.77 369.47 601.45C349.725 605.457 291.339 612.839 278.314 612.934C269.943 612.977 220.101 617.299 211.366 618.644C199.886 620.475 183.717 624.615 179.061 626.847C176.333 628.159 175.21 629.324 174.24 631.644C173.529 633.345 173.179 634.834 173.411 634.931C175.111 635.642 190.53 633.731 200.599 631.583C206.349 630.34 214.501 628.648 220.052 627.496C220.861 627.328 221.615 627.171 222.298 627.029C244.029 622.399 269.162 623.097 296.563 629.012C305.821 630.976 308.9 632.081 339.463 644.769C357.549 652.331 375.223 659.358 378.753 660.47C407.149 669.436 434.656 677.485 440.507 678.478C454.179 680.743 460.942 679.119 475.068 670.309C485.078 663.958 488.191 663.897 485.373 669.986C483.764 673.4 480.97 675.956 474.72 679.611C467.715 683.768 463.825 686.774 461.462 689.601C459.59 691.907 457.836 692.627 450.59 694.321C434.429 698.01 413.277 698.432 392.316 695.573C367.831 692.239 347.397 686.602 315.706 674.441C284.788 662.604 281.38 661.634 264.749 659.495C251.798 657.895 251.798 657.895 232.603 650.596C216.145 644.35 212.196 643.154 205.18 642.127C190.772 640.1 176.233 640.561 165.808 643.56C160.386 645.018 158.141 646.26 133.329 660.866C112.206 673.381 105.412 678.988 83.9069 701.972C64.6802 722.547 61.4407 725.734 54.1901 730.696C45.9333 736.328 41.0424 740.642 36.2975 746.561C29.8872 754.508 25.9646 757.592 13.9429 764.193C7.42534 767.779 3.43588 770.327 0 773.246L0 753.958C2.36286 752.739 4.72651 751.595 7.37534 750.365C21.3238 743.933 26.8907 740.175 35.4288 731.482C43.7926 722.988 48.1733 719.46 53.1133 716.984C54.9319 716.109 58.1194 713.263 60.3527 710.745C66.6913 703.403 84.5419 685.251 90.3942 680.158L95.6786 675.554L100.879 661.378C109.14 638.58 109.332 635.299 103.463 619.583L100.24 610.786L96.7545 609.783C94.5383 609.22 91.8078 607.715 89.4259 605.811C84.4626 601.828 80.1019 600.096 67.7773 597.214C56.4448 594.565 49.4604 593.461 35.0586 592.072C21.2639 590.754 9.08333 588.987 0 587.002L0 554.577C2.64015 554.757 5.91727 555.484 10.2176 556.796C17.6517 558.996 22.2008 559.627 33.9424 559.994C39.9614 560.149 68.9542 570.727 81.4865 577.238C100.253 587.083 107.906 594.189 114.106 607.591C116.259 612.216 118.696 616.595 119.526 617.215C120.833 618.216 121.052 618.126 121.526 615.69C123.362 606.738 120.545 592.843 113.301 574.553C101.894 545.803 93.7358 536.214 41.018 489.646C19.5174 470.601 7.7284 459.917 0 452.128L0 431.499C6.47228 434.687 15.4002 438.985 24.319 443.15C49.6817 455.026 62.5682 461.776 70.7707 467.568C90.0411 480.984 116.351 511.878 124.845 530.872C128.841 539.992 129.583 544.299 129.951 562.529C130.316 577.943 130.587 582.507 132.659 599.27C133.277 604.524 133.719 611.068 133.599 613.743C133.329 618.081 133.419 618.301 134.402 616.168C135.792 612.843 136.252 606.313 136.279 586.704C136.294 583.943 136.311 580.461 136.329 576.618C136.373 567.592 136.427 556.569 136.492 548.187C136.842 513.906 136.148 507.529 129.733 490.949C126.682 483.042 124.509 474.775 121.86 461.132C116.516 433.736 112.964 425.074 93.6554 392.203C72.4501 356.267 66.8662 344.212 61.5781 323.198C59.5719 315.183 56.7155 306.812 54.5882 302.562C49.4918 292.165 45.285 281.595 44.8904 277.978L44.4887 274.812L47.2767 276.614C51.359 279.229 54.8918 283.159 63.0293 294.101C70.5429 304.146 76.116 309.928 79.9806 311.544C86.5503 314.291 97.3157 326.331 109.445 344.665C122.745 364.76 128.728 377.163 131.063 390.039C131.779 393.972 132.284 397.544 132.122 397.93C131.993 398.24 135.459 403.413 139.879 409.349C158.025 433.923 162.929 443.694 166.32 461.645C169.807 480.453 170.049 496.814 167.05 517.452C164.155 537.407 159.133 557.017 150.346 582.593L145.293 597.285L147.066 601.297L148.872 605.231L151.191 601.205C152.502 598.937 155.477 591.824 157.928 585.309C163.323 570.669 165.028 563.116 169.702 533.912C170.931 525.978 173.184 513.204 174.658 505.554C179.812 478.459 180.411 468.99 178.13 449.687C173.401 410.829 173.138 400.818 175.673 361.092C176.681 345.435 177.244 334.315 177.812 314.932C178.14 305.894 179.074 296.929 180.391 290.303C181.54 284.516 182.477 277.277 182.417 274.164L182.416 273.295C182.411 269.317 182.407 266.408 182.601 263.512C183.128 255.633 185.117 247.851 192.52 218.895L192.773 217.905C194.315 211.828 196.39 202.521 197.28 197.352C199.521 184.391 200.869 183.774 205.529 193.261C207.052 196.351 208.627 199.099 209.013 199.26C209.786 199.583 212.479 214.426 215.04 231.757C223.678 291.234 223.963 337.68 216.218 388.127C214.697 397.847 213.485 407.695 213.527 409.984C213.574 417.906 212.764 430.921 211.262 445.372C207.886 477.116 204.614 490.373 188.772 538.252C177.868 570.846 174.767 581.086 175.754 580.681C176.302 580.456 178.348 577.95 180.369 575.071C183.391 570.884 185.627 566.187 192.326 549.731C211.556 503.086 222.053 466.689 241.091 381.631C244.203 367.671 248.079 351.669 249.646 345.966C252.677 335.242 253.464 329.667 253.905 313.41C254.576 289.437 261.827 255.588 273.974 219.154C279.636 202.354 292.713 173.031 305.178 149.084C321.183 118.623 338.297 77.9072 340.887 64.5467C341.549 61.0084 342.819 70.3505 342.929 79.208C342.923 83.5657 341.92 95.9545 340.552 106.828C339.293 117.657 338.231 130.838 338.211 136.098C338.265 143.57 337.666 148.043 335.638 156.369C332.43 169.471 323.674 201.055 318.811 217.462C314.823 230.692 312.874 237.962 304.628 268.76C296.407 299.932 294.678 306.022 286.754 332.14C278.286 360.211 273.442 377.444 269.948 391.88C263.201 420.397 257.651 434.973 242.848 463.211C234.028 479.962 222.747 505.858 220.984 513.114L220.07 516.82L223.886 511.603C230.614 502.243 238.437 488.528 248.157 468.974C260.675 443.595 264.648 436.263 267.83 432.779C275.317 424.646 286.899 395.424 294.474 365.799L294.728 364.79C297.056 355.548 300.316 342.603 302.184 335.413C307.821 313.243 315.732 291.934 330.425 259.834C338.369 242.354 345.762 227.277 350.53 218.915C360.614 200.877 364.986 189.987 373.441 161.729C388.766 110.091 404.84 76.2072 429.187 43.6024C443.043 25.2325 448.708 15.1566 450.713 5.36677Z" fill="black" fill-opacity="0.1"/>
<path d="M0 912.116C1.46143 911.632 2.9211 911.15 4.37608 910.67C71.0024 888.661 89.373 882.025 109.766 872.744C118.588 868.769 128.478 864.814 131.752 863.901C137.457 862.379 139.091 861.426 139.873 859.036C140.288 857.767 137.476 856.764 135.021 857.448C134.919 857.474 134.79 857.508 134.636 857.548L134.095 857.689L134.092 857.69L134.088 857.691L134.071 857.695C132.51 858.102 129.671 858.843 126.909 859.506C123.486 860.369 110.566 864.491 98.2686 868.733C68.5788 878.851 33.3523 889.061 0 897.427L0 912.116Z" fill="black" fill-opacity="0.1"/>
<path d="M243.825 775.503C236.987 774.174 229.841 775.804 220.032 780.777C215.374 783.139 210.151 786.472 208.347 788.196C206.543 789.921 201.982 796.281 198.165 802.39C194.175 808.772 189.886 814.808 187.958 816.657C185.832 818.607 178.8 822.671 168.915 827.62C151.624 836.263 146.746 839.296 141.237 844.768C136.691 849.315 136.495 849.912 139.818 848.85C141.281 848.42 144.695 845.817 147.487 843.093C153.442 837.271 157.529 835.137 167.229 832.773C179.956 829.745 189.345 825.047 200.277 816.39C204.383 813.188 211.069 809.175 219.64 804.954C231.061 799.35 233.888 798.291 240.291 797.411C247.489 796.377 248.309 796.397 257.637 798.706C270.695 801.987 279.684 801.292 276.93 797.332C275.027 794.56 266.637 786.358 263.045 783.694C258.507 780.39 249.644 776.663 243.825 775.503Z" fill="black" fill-opacity="0.1"/>
<path d="M340.023 801.777C328.065 799.93 313.389 800.831 293.538 804.668L291.165 805.133C284.225 806.491 274.065 808.48 267.16 809.759C227.731 817.356 199.977 825.138 173.383 836.192C163.841 840.096 148.43 847.535 148.681 848.031C149.109 848.997 156.649 846.918 163.861 843.822C171.915 840.424 190.842 835.623 207.47 832.798C224.445 829.921 246.669 828.432 276.052 828.045C296.469 827.783 328.808 827.206 340.903 826.866C350.589 826.563 351.211 826.684 359.895 829.444C364.822 831.056 373.906 834.36 380.13 836.81L391.331 841.22L390.791 837.819C389.455 829.528 381.328 819.511 370.612 813.111C364.806 809.64 346.387 802.785 340.023 801.777Z" fill="black" fill-opacity="0.1"/>
<path d="M416.72 846.222C425.609 845.576 435.321 845.448 439.173 845.799C446.903 846.676 457.079 849.675 462.684 852.75C475.714 859.907 494.611 886.263 492.142 893.804C491.702 895.148 488.262 892.782 479.976 885.524C470.916 877.599 466.578 874.691 460.457 872.688C452.171 869.976 433.932 868.884 427.806 870.682C424.979 871.493 422.196 871.409 414.589 870.159C409.244 869.319 401.14 868.321 396.468 867.949C382.602 866.883 380.911 866.495 361.182 860.865L361.102 860.842C339.936 854.821 339.659 854.742 297.236 850.189C248.149 844.871 246.757 844.829 200.78 849.705C176.376 852.3 161.851 853.498 160.657 853.107C159.238 852.643 161.066 850.596 164.558 848.763C168.868 846.453 183.679 843.116 205.097 839.544C235.424 834.506 242.974 834.166 290.379 836.04C306.28 836.697 323.223 837.2 328.017 837.198C339.841 837.182 345.508 837.797 356.327 840.345C357.2 840.546 358.167 840.767 359.194 841.002L359.257 841.016C364.191 842.145 370.506 843.591 374.607 844.592C389.057 847.916 392.238 848.047 416.72 846.222Z" fill="black" fill-opacity="0.1"/>
<path d="M550.326 909.208C537.369 906.373 529.984 904.949 518.026 903.102C500.226 900.418 493.512 898.964 475.501 894.145C467.367 891.979 457.02 889.502 452.495 888.682C434.791 885.451 423.401 882.881 405.987 878.008C378.572 870.359 362.236 867.493 318.094 862.471C305.169 861.052 286.627 858.869 276.933 857.68C267.214 856.566 255.408 855.265 250.563 854.919C240.349 854.057 205.62 853.603 197.674 854.144C191.243 854.602 182.906 856.338 182.588 857.309C182.173 858.578 193.486 860.627 200.54 860.538C207.098 860.452 215.102 861.501 214.808 862.397C214.76 862.547 213.942 863.023 213.075 863.401C211.587 863.906 213.355 864.567 226.068 868.397C240.126 872.667 245.124 873.558 249.987 872.587C251.054 872.358 251.727 872.826 252.33 874.015C253.435 876.196 257.34 877.143 272.975 879.118C280.133 879.973 290.626 882.002 300.576 884.431C309.431 886.668 319.429 888.948 322.836 889.65C343.251 893.685 364.344 898.935 378.626 903.527C394.004 908.559 394.453 908.706 402.853 914.101C413.148 920.776 415.486 921.459 440.521 925.271C474.356 930.475 513.356 939.849 537.423 948.634C561.515 957.346 569.511 961.451 605.823 983.585C635.679 1001.71 641.184 1004.58 660.946 1011.88C682.177 1019.73 683.223 1020.32 711.244 1039C720.668 1045.31 734.72 1053.13 735.711 1052.63C736.305 1052.33 729.564 1045.91 721.13 1038.85C702.315 1023.1 674.098 1004.77 641.063 986.768C629.902 980.718 626.088 978.23 620.622 973.465C606.322 961.097 592.496 953.596 570.772 946.487C557.857 942.26 554.549 941.508 541.622 939.592C523.499 936.885 506.609 932.432 471.672 920.999C433.848 908.537 372.742 890.193 357.098 886.478C340.384 882.496 330.065 880.69 293.548 875.601C262.027 871.154 241.067 867.519 229.077 864.256L221.092 862.139L227.179 862.478C230.509 862.658 240.624 863.571 249.646 864.539C274.375 867.011 278.972 867.358 288.262 867.257C302.419 866.93 305.154 867.412 340.645 875.638C386.432 886.241 407.604 892.26 480.21 915.113C516.339 926.44 521.414 927.853 542.304 932.458C570.829 938.735 587.774 944.032 596.596 949.4C599.836 951.369 606.272 956.452 610.916 960.699C621 969.786 623.269 971.438 628.797 973.991L633.031 975.956L633.666 974.014C634.546 971.326 633.236 968.004 629.511 963.478C627.786 961.426 624.357 956.749 621.879 953.21C615.02 943.359 613.721 942.025 605.296 936.705C600.984 933.971 595.224 929.854 592.454 927.46C589.659 925.14 585.57 922.231 583.378 921.1C579.068 918.863 555.424 910.298 550.326 909.208Z" fill="black" fill-opacity="0.1"/>
<path d="M374.128 912.223C426.351 927.908 442.346 932.068 475.118 938.247C487.8 940.661 491.755 941.707 508.081 947.381C534.385 956.403 551.79 964.083 597.319 986.589C617.816 996.686 626.461 1001.33 646.171 1012.83C653.248 1016.96 657.579 1018.63 674.423 1023.73C689.302 1028.27 695.857 1032.23 716.093 1049.19L727.771 1058.96L724.04 1057.99C721.901 1057.45 713.708 1053.7 705.712 1049.59C692.586 1042.98 689.972 1041.88 680.145 1039.07C669.622 1036.13 660.969 1034.53 641.656 1032.18C634.198 1031.23 630.069 1030.21 616.309 1025.79C604.365 1021.88 599.191 1020.52 597.304 1020.73C594.226 1021.04 586.11 1017.81 572.436 1010.85C567.404 1008.29 556.724 1003.81 548.834 1000.89C534.895 995.755 534.323 995.484 529.282 991.189C525.089 987.585 522.573 986.183 515.727 983.364C511.146 981.451 504.247 978.036 500.434 975.796C494.553 972.301 491.864 971.173 482.584 968.467C463.676 962.857 444.437 955.982 420.913 946.547C401.844 938.902 392.138 935.477 361.482 925.61C285.937 901.382 245.922 888.039 236.685 883.941C219.504 876.334 198.83 865.765 199.147 864.795C199.489 863.749 206.081 865.328 212.354 867.877C237.224 878 247.947 881.096 292.662 890.935C328.424 898.836 336.807 901.001 374.128 912.223Z" fill="black" fill-opacity="0.1"/>
<path d="M181.115 860.547C180.745 860.922 180.923 861.641 181.596 862.109C182.269 862.578 185.737 865.366 189.329 868.278C207.168 882.713 223.987 892.434 248.385 902.485L251.971 904.002L251.983 904.007L252.165 904.084C258.679 906.839 268.22 910.875 275.597 914.036C287.324 919.114 299.023 923.521 317.264 929.656C339.436 937.161 343.394 938.704 348.876 941.903C352.34 943.946 361.879 948.639 370.195 952.27C397.235 964.095 416.894 975.241 432.535 987.552C436.676 990.808 446.336 999.426 453.951 1006.71C482.49 1033.91 486.281 1036.72 530.722 1064.82C546.549 1074.8 565.893 1087.41 573.623 1092.83C603.045 1113.29 616.953 1122.06 618.313 1120.93C620.142 1119.38 616.117 1114.51 607.262 1107.73C604.145 1105.38 597.304 1099.01 592.034 1093.65C582.492 1083.91 569.24 1072.38 519.684 1030.87C489.341 1005.4 480.036 997.972 466.895 988.628C434.852 965.824 417.045 957.103 357.234 934.801C297.697 912.671 270.545 902.958 257.881 899.227C243.326 894.96 228.118 889.156 221.365 885.293C219.273 884.112 216.478 881.792 215.202 880.134C212.125 876.151 209.408 874.353 195.61 867.522C189.308 864.303 183.579 861.353 183.005 860.834C182.332 860.366 181.561 860.196 181.115 860.547Z" fill="black" fill-opacity="0.1"/>
<path d="M165.441 860.46C164.47 860.142 163.447 859.229 163.169 858.311C162.565 856.873 162.813 856.872 165.727 858.321C167.52 859.156 177.84 865.758 188.709 872.952C218.224 892.366 225.449 896.301 264.591 913.575C284.734 922.482 319.674 938.96 335.665 947.169C380.601 970.225 404.569 988.154 424.529 1013.78C439.962 1033.55 445.354 1043.08 459.01 1074.09C463.612 1084.52 469.639 1096.66 472.395 1101.12C480.337 1113.72 483.376 1119.84 485.303 1127.09C486.317 1130.81 486.954 1133.91 486.756 1134.01C486.162 1134.31 470.761 1115.96 455.205 1096.32C453 1093.56 450.635 1090.58 448.278 1087.62C442.238 1080.03 436.244 1072.49 433.097 1068.67C428.82 1063.3 419.986 1051.15 413.601 1041.62C400.079 1021.57 394.3 1013.98 386.258 1005.97C364.107 984.006 322.102 956.288 264.406 925.502C221.957 902.929 209.173 895.273 191.64 882.178C186.253 878.183 178.518 871.766 174.473 867.963C170.429 864.159 166.337 860.753 165.441 860.46Z" fill="black" fill-opacity="0.1"/>
<path d="M145.207 857.889C145.061 858.337 145.865 860.171 146.919 862.003C147.972 863.836 152.588 872.208 157.129 880.556C161.744 888.928 167.488 899.157 170.019 903.292C175.483 912.355 181.385 924.372 188.829 941.275C191.872 948.14 197.831 961.498 202.054 970.817C211.129 990.816 213.143 995.774 217.912 1009.49C220.03 1015.39 227.345 1031.42 235.131 1047.28C245.378 1067.99 249.3 1076.72 250.847 1082.6C251.526 1085.24 252.362 1088.38 253.056 1090.99C253.476 1092.56 253.844 1093.95 254.093 1094.9C254.777 1097.36 257.422 1104.18 259.887 1110.03C267.912 1128.69 271.524 1139.87 275.073 1157.57C276.069 1162.61 278.104 1166.99 280.15 1168.57C280.724 1169.09 281.297 1169.36 281.345 1169.21C281.859 1167.64 280.959 1157.51 279.044 1143.16C277.515 1131.42 276.659 1120.14 276.603 1109.71C276.349 1090.28 275.721 1070.48 275.064 1063.9C274.751 1061.07 273.285 1056.46 271.677 1053.04C270.119 1049.72 268.151 1044.12 267.287 1040.44C265.305 1032.11 248.581 989.516 243.133 978.887C238.288 969.448 229.948 956.799 221.345 945.964C212.891 935.179 183.441 900.161 174.669 890.347C170.67 885.897 165.042 878.599 162.136 874.093C159.156 869.563 155.428 864.54 153.73 862.91C150.183 859.352 145.598 856.694 145.207 857.889Z" fill="black" fill-opacity="0.1"/>
<path d="M169.658 877.878C165.017 873.878 161.009 867.689 161.717 865.524C162.035 864.553 162.358 864.576 163.208 865.516C165.183 867.815 195.11 890.01 205.032 896.564C210.541 900.185 219.289 905.528 224.471 908.381C247.665 921.098 268.338 935.965 291.725 956.68C310.944 973.716 325.92 991.845 338.531 1013.41C345.351 1025.15 348.907 1030.45 356.562 1040.4C364.442 1050.66 367.778 1056.63 373.994 1071.73C376.511 1077.68 380.225 1084.76 383.18 1089.12C388.638 1097.19 411.132 1141.09 412.728 1146.82C413.31 1148.83 413.745 1151.28 413.751 1152.28C413.685 1153.99 413.413 1154.07 411.173 1153.34C408.187 1152.36 404.163 1147.74 401.7 1142.38C397.905 1134.28 380.367 1111.1 348.911 1072.61C327.782 1046.77 313.023 1027.72 297.555 1006.04C267.121 963.673 250.404 945.306 222.092 923.227C204.955 909.931 197.269 903.364 184.911 891.88C179.044 886.322 172.179 880.025 169.658 877.878Z" fill="black" fill-opacity="0.1"/>
</svg>
