<svg width="457" height="1643" viewBox="0 0 457 1643" fill="none" xmlns="http://www.w3.org/2000/svg">
<path fill-rule="evenodd" clip-rule="evenodd" d="M216.231 0C241.67 65.1441 260.187 122.815 269.333 164.645C270.933 171.979 272.4 178.645 272.667 179.579C272.933 180.512 269.867 183.045 265.867 185.312C259.467 189.045 258.133 189.312 254.4 188.112C247.733 185.712 236 186.379 229.333 189.445C218.8 194.112 174.533 241.579 177.6 244.779C177.867 245.045 182.667 243.579 188.133 241.445C193.6 239.445 201.333 236.912 205.333 235.979C216.933 233.445 244.133 219.845 250.667 213.312C255.867 208.112 261.333 198.112 261.333 193.845C261.333 191.579 271.867 185.979 273.333 187.579C273.867 188.112 275.066 194.379 275.867 201.312C280.533 242.512 278.4 265.712 267.333 288.912C263.467 297.179 259.733 301.845 240.4 321.579C215.333 347.179 209.333 355.845 202.8 375.312C200.294 382.83 199.358 385.638 197.434 387.31C196.288 388.307 194.79 388.899 192.4 389.845C188.933 391.312 179.467 395.312 171.467 398.912C158.667 404.512 156.667 405.045 154.8 403.445C153.6 402.379 149.333 399.979 145.333 398.112C135.867 393.712 127.333 393.712 113.066 398.112C87.0664 406.245 71.7334 418.112 34.2666 459.312C18.7998 476.245 0.133301 500.245 0 503.179C0 503.712 1.3335 503.845 3.06641 503.445C14.5332 500.112 38.6665 494.512 49.3335 492.512C69.8667 488.779 113.066 473.579 136.133 461.845C148.133 455.845 158.533 440.779 161.333 425.179C161.745 423.123 162.156 421.093 162.499 419.408C162.934 417.268 163.259 415.685 163.333 415.312C163.733 413.845 195.867 399.312 196.667 400.245C196.8 400.512 196.533 406.645 195.867 413.979C193.733 437.045 196.533 466.379 203.467 493.845C209.867 519.045 220.667 545.712 248.267 603.979L255.6 619.312L250.533 630.112C247.733 635.979 243.333 647.045 240.8 654.645L236.133 668.512L228.267 670.112C217.467 672.379 212.8 675.045 204.533 683.712C196.133 692.379 187.867 708.379 183.733 723.312C181.066 732.779 180.8 737.445 180.667 765.312C180.4 815.045 182.667 840.379 189.333 865.179L190.8 871.045L197.2 861.179C200.667 855.712 208.533 842.912 214.667 832.645C220.8 822.379 228.8 809.579 232.4 804.112C245.066 785.312 260.133 749.845 265.6 726.379C268.4 714.645 268.4 714.112 266.133 704.512C263.333 692.645 257.467 680.645 252.267 675.445L248.267 671.845L254.8 654.379C258.4 644.779 261.6 636.645 261.867 636.379C263.467 634.645 275.733 674.645 279.333 693.312C283.733 716.645 284.267 731.312 281.333 753.579C278.267 777.979 273.733 802.645 266.533 835.979L261.066 860.645L246.533 874.379L232.133 888.112L225.066 886.779C217.2 885.312 207.733 886.645 201.2 890.112C193.867 893.845 172.133 916.112 164.533 927.445C156.133 939.979 149.733 953.712 144.667 969.445C142.667 975.579 139.066 985.312 136.4 990.912C132.133 1000.51 128 1013.05 128 1017.05C128 1017.98 131.333 1015.98 135.467 1012.65C139.467 1009.31 146.933 1004.51 152 1001.98C167.2 994.379 190.667 977.179 216.533 954.912C227.333 945.445 228.8 943.579 234.8 931.445C240.4 919.979 241.333 917.179 241.333 910.112C241.333 905.579 240.8 899.979 240.133 897.712C238.933 893.579 239.2 893.179 247.467 885.979C252.133 881.845 256 878.912 256 879.579C256 880.112 252.4 895.979 248 914.645C239.867 949.045 232.667 981.445 228 1003.31C226.533 1009.98 224.8 1022.65 224.133 1031.58C222.667 1051.31 224.4 1096.78 227.2 1111.05C229.867 1124.51 228.267 1133.18 221.867 1139.98C211.6 1150.91 209.2 1165.85 213.867 1188.91C215.2 1194.91 216.267 1201.05 216.4 1202.51C216.8 1208.11 219.867 1203.05 226.667 1185.58C235.467 1162.78 236.667 1152.51 232 1139.85C230.4 1135.45 229.467 1131.45 229.867 1131.05C231.066 1129.85 231.333 1130.38 235.2 1144.65C240.533 1163.98 249.867 1188.11 269.867 1235.05C304 1314.78 311.467 1336.91 318 1377.31C320.133 1390.51 319.2 1396.65 314.133 1402.78C310.8 1406.78 310.267 1408.11 308.8 1416.78C308.133 1420.78 310 1431.71 313.333 1443.98L315.066 1449.98L318.133 1438.91C323.066 1420.51 323.467 1421.85 321.333 1451.31C318.133 1495.45 311.467 1520.51 295.467 1549.31C291.6 1556.25 278.133 1577.85 265.733 1597.31L263.461 1600.88C240.183 1637.38 236.829 1642.65 237.733 1642.65C238 1642.65 241.6 1637.71 245.467 1631.71C249.467 1625.58 260.4 1609.31 270 1595.45C279.467 1581.45 290 1565.45 293.467 1559.71L299.733 1549.45L301.6 1564.65L304.267 1557.98C305.733 1554.25 307.066 1547.31 307.333 1542.51C307.6 1536.91 309.333 1529.31 312 1521.85C324.267 1487.05 329.066 1427.05 322.667 1384.25C317.733 1350.51 309.867 1319.18 300.133 1294.91C298.667 1291.05 297.333 1287.58 297.333 1287.18C297.333 1286.78 299.6 1288.51 302.4 1291.18C307.733 1296.25 331.066 1313.31 331.733 1312.78C332.4 1312.11 321.333 1285.18 317.6 1278.25C312.8 1269.31 305.467 1263.18 296.8 1260.65C286.133 1257.45 283.066 1252.91 268.4 1216.91C246.133 1162.25 236.267 1128.51 233.467 1097.31C231.6 1076.25 230.8 1043.85 232.133 1044.78C232.8 1045.18 233.333 1046.51 233.333 1047.71C233.333 1054.11 245.333 1085.85 255.733 1106.65L267.333 1129.98L268.4 1121.98C272.267 1091.71 274.133 1066.25 273.2 1058.51C269.2 1029.18 266.8 1023.98 254.133 1017.71L247.066 1014.25L244.133 1001.45L241.333 988.645L246.667 965.312C249.6 952.512 255.066 930.245 258.8 915.979C282.133 825.712 284.533 815.445 290.133 783.312C291.867 773.045 293.333 762.645 293.333 760.379C293.333 757.979 293.733 755.979 294.4 755.979C294.933 755.979 299.467 762.245 304.4 769.845L313.467 783.712L310.4 788.912C303.066 800.912 302.133 809.979 306.8 826.645C311.467 843.979 322.4 860.645 348.8 890.912C364.133 908.379 406.933 951.979 408.933 951.979C409.6 951.979 408.533 938.379 406.533 921.712C401.2 877.579 400.267 871.712 395.2 854.379C385.467 820.379 373.6 798.379 359.2 787.445C348.8 779.445 343.2 777.445 331.867 777.312H323.066L309.733 757.045L296.267 736.645L295.467 725.579C293.733 702.512 286.667 669.312 277.066 637.979C273.2 625.179 269.733 616.645 245.467 561.445C236.533 541.179 228 519.979 228 518.112C228 517.845 236.267 521.312 246.533 525.712L265.066 533.712L265.6 543.845C266.267 555.712 268.933 561.579 278 571.712C289.333 584.245 309.867 594.912 341.867 604.645C353.333 608.112 442.267 627.979 446.267 627.979C447.467 627.979 445.733 624.912 439.333 616.112C420.533 590.112 381.2 549.179 359.733 532.912C338.8 517.312 319.066 509.445 299.2 509.045C288.667 508.779 281.2 511.579 273.733 518.645L269.467 522.779L255.733 516.245C248.133 512.645 237.6 507.979 232.4 505.845L222.667 502.112L220.533 494.779C214.4 473.579 212.8 461.312 212.8 433.312C212.667 401.845 214.667 388.112 221.867 372.645C227.467 360.379 234.8 351.579 259.6 327.045L280 306.779L296 330.512L292.933 335.579C290.667 339.579 290 342.645 290 349.979C290 358.512 290.533 360.245 295.867 369.979C299.066 375.845 305.6 385.712 310.4 391.979C318.533 402.645 365.733 450.645 373.6 456.112L377.066 458.645L375.2 451.312C374.133 447.179 373.467 443.445 373.867 442.912C374.667 441.579 370.267 416.512 366.8 403.045C358.4 370.245 341.066 337.979 326.8 328.379C323.066 325.845 320.533 325.312 312 325.312H301.733L283.867 298.379L287.867 287.045C294 270.112 296.133 255.845 296.133 231.312C296.133 189.445 286.667 140.645 264.667 70.1121C262.8 64.1121 262.8 63.7121 265.066 64.6454C270.933 67.0454 277.333 66.6454 289.867 62.9121L303.066 59.1788L295.2 56.9121C281.2 53.0454 273.733 53.4454 268.267 57.9788C266 59.8454 263.733 61.3121 263.066 61.3121C262.4 61.3121 260.8 57.8454 259.467 53.7121C256.993 45.7201 248.726 22.3998 240.594 0H216.231ZM235.333 1026.38C237.2 1022.91 239.2 1019.85 240 1019.31C241.6 1018.38 241.467 1017.45 239.733 1009.31C238.533 1004.11 238.133 1003.71 237.2 1006.25C236.667 1007.85 235.467 1012.91 234.667 1017.58C234.409 1019.08 234.138 1020.63 233.88 1022.12C233.335 1025.24 232.847 1028.05 232.667 1029.31C232.267 1031.45 233.2 1030.38 235.333 1026.38Z" fill="url(#paint0_linear_11_15)"/>
<defs>
<linearGradient id="paint0_linear_11_15" x1="-6.75476e-05" y1="1496.31" x2="446.621" y2="1496.31" gradientUnits="userSpaceOnUse">
<stop stop-color="#4F772D"/>
<stop offset="1" stop-color="#90A955"/>
</linearGradient>
</defs>
</svg>
