<svg width="275" height="451" viewBox="0 0 275 451" fill="none" xmlns="http://www.w3.org/2000/svg">
<path d="M8.90408 0C7.98672 1.42077 7.13885 2.95447 6.35691 4.60462C2.33448 13.1031 -0.719587 25.4782 0.770203 26.9691C0.993671 27.1928 4.04774 25.9254 7.62324 24.1363C15.2212 20.3343 17.9028 19.4397 30.1936 16.6814C41.218 14.2214 50.9761 9.823 54.7006 5.57375C56.0414 4.00823 57.2332 2.89001 57.3822 3.03911C57.9781 3.71004 63.1179 23.5399 64.7567 31.6657C66.9914 42.3261 69.673 59.4722 69.673 62.6032C69.673 64.3178 69.375 64.8397 68.1832 64.8397C67.3638 64.8397 64.3097 65.5106 61.4791 66.2561C57.3077 67.4489 54.9986 68.7162 49.9333 72.7418C37.6425 82.284 35.8548 89.9625 42.2608 106.065C43.6761 109.494 45.2404 112.252 45.8363 112.402C46.5067 112.476 47.6241 111.507 48.369 110.165C51.2741 105.17 55.073 100.697 60.5108 96.0754C63.7883 93.2426 67.1403 89.5152 68.7791 86.906L71.5352 82.4331L72.0566 86.906C72.2801 89.2915 72.7271 96.2991 73.025 102.487C73.2485 108.6 73.6209 114.713 73.8444 115.98C74.1423 117.993 73.9189 118.44 71.9822 119.185L69.822 120.08L70.8648 124.329C71.4607 126.64 72.5036 129.846 73.174 131.411C74.2168 133.797 74.2168 134.617 73.4719 137.301C71.0883 145.277 66.023 149.228 56.6373 150.57C53.1363 151.092 50.3057 151.688 50.3057 151.987C50.3802 152.21 52.0935 153.776 54.2537 155.416C57.9036 158.249 58.3506 158.398 63.4159 158.398C68.0342 158.398 69.0026 158.174 71.3862 156.31C74.7383 153.776 77.4944 149.228 78.6862 144.234C79.1331 142.146 79.6546 140.357 79.8036 140.283C79.878 140.133 81.4423 140.804 83.2301 141.848C85.0178 142.892 89.2637 144.606 92.7647 145.725C96.2657 146.917 101.033 149.079 103.342 150.719C105.651 152.285 107.961 153.552 108.408 153.552C109.003 153.552 109.078 152.434 108.78 149.974C107.216 138.866 104.162 130.069 100.214 125.075C98.9473 123.584 97.979 122.167 97.979 121.944C97.979 121.795 99.0963 121.347 100.363 121.124C107.365 119.558 113.845 111.731 113.1 105.692C112.802 103.307 112.355 102.785 110.121 102.039C103.119 99.7283 90.9025 101.741 84.2729 106.214L81.6658 108.003L81.2933 105.618C81.0699 104.276 80.5484 97.0445 80.1015 89.4406C77.1219 38.0768 76.377 30.3983 71.9822 6.69197C71.6663 4.97815 71.2094 2.6367 70.681 0H8.90408Z" fill="url(#paint0_linear_22_7)"/>
<path d="M82.9527 0C84.2202 2.64306 85.2417 5.01606 85.6882 6.46833C85.9862 7.73565 85.8372 8.18294 85.0923 8.18294C83.677 8.18294 83.0811 9.74846 83.0811 13.4759C83.0811 16.0851 83.6025 17.0542 87.029 20.6325C89.5617 23.3908 92.4668 25.4782 95.3719 26.82C97.83 27.9382 102.821 31.0693 106.396 33.8276C110.046 36.5113 113.249 38.7478 113.547 38.7478C113.994 38.7478 116.601 49.8555 116.601 51.8683C116.601 52.3156 113.547 51.8683 108.631 50.5264C107.681 50.2886 106.76 50.0575 105.899 49.8411C102.708 49.0398 100.315 48.439 100.139 48.439C99.9157 48.439 98.9473 50.1536 97.9045 52.3156C95.2974 57.9812 95.4463 63.7214 98.4259 67.9707C101.182 71.9963 108.408 76.9165 114.665 79.0039L119.506 80.5694L117.644 84.4459C116.676 86.6078 115.484 90.1115 115.037 92.2735C113.845 97.5664 114.516 98.2373 119.581 96.5227C121.667 95.8518 123.529 95.4045 123.678 95.5536C123.901 95.7027 123.678 97.7155 123.305 100.026C122.561 104.723 123.007 107.332 124.497 107.332C125.093 107.332 125.54 107.78 125.54 108.227C125.54 108.749 126.062 114.191 126.657 120.378C128.147 135.959 129.265 154.67 129.265 164.436V172.637L119.879 180.017C113.249 185.235 109.078 189.261 105.353 193.957L100.065 200.518L96.7127 197.61C90.1576 191.795 80.3995 190.379 71.0883 194.032C65.0546 196.343 52.3169 204.096 52.9873 205.065C54.1792 207.078 69.375 213.191 73.174 213.191C74.2168 213.191 74.8872 213.414 74.7383 213.713C71.3118 220.422 70.9393 221.764 71.3862 226.908C71.8332 232.573 74.1423 240.177 77.7923 248.378L80.1015 253.447L82.5597 252.031C92.9137 246.216 102.672 237.195 105.949 230.486C108.631 225.119 108.556 220.72 105.875 213.191C105.157 211.226 104.469 209.262 104.01 207.95C103.755 207.222 103.571 206.695 103.491 206.481C103.268 205.661 106.396 203.723 115.186 199.176C121.741 195.747 127.328 193.137 127.551 193.286C128.296 194.106 125.391 207.823 122.635 216.396C118.538 229.07 116.974 235.033 114.441 247.856C109.823 271.189 106.098 300.487 104.236 328.219C103.789 334.928 103.64 335.45 102.15 335.45C101.331 335.45 97.83 336.345 94.478 337.388C88.8168 339.178 88.2209 339.55 86.1352 342.83C82.5597 348.422 78.9842 360.797 80.9954 360.797C82.1127 360.797 100.065 354.907 101.927 354.013C103.119 353.342 103.193 354.162 103.193 367.133V380.925H100.139C95.9678 380.925 83.528 386.441 80.2505 389.796C76.675 393.3 74.8128 397.996 74.3658 404.333C73.9189 410.446 74.5893 416.708 75.7066 416.708C76.1536 416.708 78.3883 415.142 80.6974 413.279C83.0066 411.415 87.9229 408.358 91.5729 406.495C95.2974 404.631 99.7667 401.947 101.48 400.531L104.609 397.996L105.055 401.574C107.29 417.901 111.536 431.394 116.601 438.55C121.443 445.26 131.574 451 138.501 451C142.002 450.925 146.472 448.614 149.675 445.036C157.943 435.867 164.647 408.135 160.923 398.443C158.39 391.809 153.772 388.156 146.472 387.187C141.332 386.516 136.788 388.305 133.734 392.107C131.425 395.014 128.892 400.233 129.488 400.829C129.712 400.978 131.946 400.605 134.553 399.934C146.323 396.878 151.611 400.605 151.611 412.011C151.537 426.995 143.492 439.072 133.659 439.072C130.009 439.072 127.104 436.985 124.05 432.214C118.613 423.939 114.888 412.086 112.355 395.089C110.717 384.354 110.642 345.44 112.281 329.113L113.324 318.677L114.665 322.553C116.527 327.995 122.635 333.586 130.456 336.867C133.659 338.208 137.533 339.55 139.023 339.699L141.704 340.072L141.108 335.376C139.321 320.988 136.565 315.247 129.116 310.551C126.732 308.985 120.102 307.122 116.899 307.122H114.59L115.186 302.872C117.719 284.906 120.922 267.909 123.976 255.683L125.391 250.092L125.466 254.192C125.54 259.56 127.477 269.251 128.967 272.308C131.499 277.079 138.874 283.863 146.397 288.112C154.144 292.51 158.018 294.076 158.688 292.883C158.986 292.51 159.135 287.068 159.209 280.881C159.209 271.115 158.986 268.729 157.571 264.331C154.442 254.491 144.386 246.887 132.095 245.098C127.924 244.427 127.03 244.054 127.328 243.085C135.224 213.489 140.289 184.341 143.492 150.198C144.46 139.388 144.758 109.27 143.865 104.872L143.343 102.039L146.174 103.828C151.76 107.332 167.329 115.682 167.701 115.309C168.372 114.638 168.148 97.1936 167.403 94.2863C166.956 92.6462 166.435 89.7388 166.137 87.8006C165.466 82.7313 163.455 81.2403 151.686 77.0656C151.352 76.9674 151.096 76.9055 151.031 76.7585C150.847 76.3474 152.154 75.2714 157.422 70.8781C162.71 66.4797 162.785 66.3306 160.923 65.8833C159.805 65.5852 153.921 65.5106 147.887 65.7342C138.352 66.0324 135.671 65.8088 133.883 64.4669C133.213 63.9451 122.709 22.869 118.836 5.57375C118.425 3.71981 118.019 1.86129 117.619 0H103.576L104.609 3.26275C105.875 7.36291 106.918 11.0158 106.918 11.3885C106.918 11.6867 105.353 11.0903 103.342 10.0466C101.406 9.07752 97.979 7.88475 95.8188 7.43746C93.5841 6.99017 91.7219 6.61743 91.5729 6.46833C91.4984 6.39378 90.6045 3.4864 89.5617 0.0571734L89.5438 0H82.9527Z" fill="url(#paint1_linear_22_7)"/>
<path fill-rule="evenodd" clip-rule="evenodd" d="M204.005 0C204.929 0.762824 205.626 1.40274 205.989 1.84633C206.734 2.74091 209.713 17.2033 209.713 19.9616C209.713 20.9307 209.49 20.9307 208.372 19.887C207.628 19.1415 206.734 18.6197 206.361 18.6197C206.063 18.6197 203.903 17.2778 201.743 15.5632C196.976 11.9849 191.463 9.37571 189.899 9.9721C189.005 10.3448 188.782 11.6122 188.931 15.7869C189.08 22.6453 186.994 28.311 184.163 28.311C181.333 28.311 175.076 30.3983 172.915 32.113C170.606 33.9021 170.383 35.7658 172.394 35.7658C174.927 35.7658 174.852 36.9586 171.798 42.997C169.042 48.439 167.254 53.5083 167.254 55.7448C167.254 56.4903 168.297 56.7139 171.277 56.4903L175.299 56.2666L175.597 64.0942C175.82 68.418 176.416 73.04 177.012 74.3819L178.055 76.7674L185.728 72.5182C189.974 70.2071 195.709 66.4052 198.465 64.0196L203.531 59.7704L201.817 66.6288C197.199 84.4459 195.113 102.71 196.305 114.265C197.05 121.422 199.434 135.437 201.221 143.115C204.722 158.174 209.639 180.464 210.086 183.372L210.607 186.726H204.35C199.061 186.726 197.571 187.024 193.921 188.888C186.1 192.765 182.152 199.176 178.875 212.967L177.832 217.664H180.141C187.217 217.589 199.359 213.116 204.797 208.569C207.702 206.183 211.203 199.698 211.203 196.79C211.203 195.97 211.501 195.299 211.799 195.299C212.916 195.299 215.821 217.664 216.194 229.219C216.492 237.643 216.343 241.966 215.449 246.663C212.991 259.56 210.011 266.12 206.212 267.238C203.903 267.909 199.136 263.362 196.603 258.218C194.815 254.565 194.666 253.82 195.486 251.285C196.305 248.303 201.445 242.936 204.871 241.37C208.149 239.879 206.957 239.059 202.264 239.506C197.571 240.028 193.102 241.892 190.942 244.277C187.292 248.303 185.802 256.951 187.664 263.511C190.793 274.246 199.434 281.477 210.086 282.372C215.896 282.819 219.397 281.253 222.302 277.004C226.175 271.264 226.473 269.698 226.399 256.056C226.324 240.326 225.207 229.368 219.397 190.081C215.034 160.538 214.93 159.974 214.928 159.409C214.927 159.395 214.927 159.381 214.927 159.367C214.927 158.174 228.41 165.853 232.209 169.133C236.753 173.233 237.721 173.606 238.317 171.593C240.03 165.554 239.211 153.701 236.678 148.334C234.444 143.637 229.229 139.239 222.451 136.481C219.024 135.064 215.225 133.722 213.959 133.499C211.65 132.977 211.575 132.902 210.682 127.088C210.235 123.807 209.639 116.054 209.341 109.941L208.819 98.7592L213.363 81.0912C215.896 71.3999 217.907 63.2742 217.907 63.0505C217.907 62.8269 218.503 62.6032 219.248 62.6032C219.918 62.6032 221.334 61.9323 222.302 61.1868C223.866 59.994 224.015 59.5467 223.27 57.4594L222.451 55.1484H225.356C226.88 55.1484 227.604 55.1484 227.895 54.7933C228.159 54.4714 228.066 53.8579 227.889 52.6883C227.665 51.421 226.473 47.2463 225.282 43.4443C222.6 35.0203 222.6 32.6348 225.058 27.1182C226.175 24.6581 227.442 21.2289 227.963 19.3652L228.783 16.0105L231.092 21.9744C232.358 25.2545 234.146 30.7711 235.04 34.2749C236.753 40.9097 237.796 53.5083 236.753 54.7756C236.455 55.2229 233.922 57.1612 231.241 59.0994L226.25 62.6032L225.728 67.0016C225.133 71.9218 226.473 79.7493 227.814 79.7493C229.676 79.6748 242.042 69.6108 243.382 67.0761C244.872 64.1687 245.17 58.8013 243.829 56.4157C242.936 54.7756 242.861 51.2719 243.68 47.4699C244.127 45.4571 244.202 45.4571 245.096 46.7244C247.852 50.6755 250.757 57.683 251.8 62.6032C252.396 65.6597 253.066 68.9398 253.29 69.8344C253.662 71.3254 253.364 71.549 251.427 71.549C249.267 71.549 249.193 71.6981 249.193 74.9782C249.193 83.6258 252.098 88.2478 261.409 94.2863C264.761 96.4482 268.783 99.6537 270.422 101.443L273.402 104.648L273.849 102.487C274.743 98.461 274.519 90.6334 273.551 86.6078C271.986 80.793 269.156 77.2147 263.718 74.3819L258.951 71.9218L258.057 66.7034C256.865 59.174 253.513 49.11 247.628 35.3931C244.798 28.7583 242.489 22.198 242.489 20.8562C242.489 17.5349 238.645 6.45131 235.291 0H204.005ZM223.717 11.8358C224.015 14.8177 224.76 15.4887 226.622 14.2959C227.293 13.8486 226.995 13.0286 225.505 11.2394L223.419 8.70478L223.717 11.8358Z" fill="url(#paint2_linear_22_7)"/>
<defs>
<linearGradient id="paint0_linear_22_7" x1="312.845" y1="261.333" x2="-3.50369" y2="287.218" gradientUnits="userSpaceOnUse">
<stop stop-color="#4F772D"/>
<stop offset="1" stop-color="#90A955"/>
</linearGradient>
<linearGradient id="paint1_linear_22_7" x1="312.845" y1="261.333" x2="-3.50369" y2="287.218" gradientUnits="userSpaceOnUse">
<stop stop-color="#4F772D"/>
<stop offset="1" stop-color="#90A955"/>
</linearGradient>
<linearGradient id="paint2_linear_22_7" x1="312.845" y1="261.333" x2="-3.50369" y2="287.218" gradientUnits="userSpaceOnUse">
<stop stop-color="#4F772D"/>
<stop offset="1" stop-color="#90A955"/>
</linearGradient>
</defs>
</svg>
