<svg width="718" height="1485" viewBox="0 0 718 1485" fill="none" xmlns="http://www.w3.org/2000/svg">
<g clip-path="url(#clip0_50_42)">
<path d="M-6.00001 916.847C-3.7173 916.677 -1.52031 916.519 0.477904 916.376C4.74907 916.069 8.112 915.828 9.46257 915.668L14.3092 915.412L9.39944 914.336C7.95892 914.048 3.36447 913.184 -2.7662 912.081L-6.00001 916.847Z" fill="black" fill-opacity="0.1"/>
<path d="M0.869604 906.722C6.38714 907.376 13.1895 906.873 23.5605 905.576C33.9629 904.255 42.8129 902.848 43.1124 902.406C44.2797 901.123 24.5039 895.724 9.97056 893.308L0.869604 906.722Z" fill="black" fill-opacity="0.1"/>
<path d="M9.97056 893.308L24.1185 882.43C36.9053 888.044 42.1578 887.902 59.1521 880.903C66.0842 878.146 72.5099 875.487 75.0317 874.443C75.5602 874.224 75.9173 874.077 76.0716 874.014C78.9676 872.595 65.7082 870.527 53.2093 870.426C49.992 870.418 46.8673 870.393 44.4036 870.373C41.9399 870.353 40.1372 870.338 39.5639 870.352C38.3817 870.194 41.2423 868.59 45.9549 866.632C48.8564 865.302 51.8717 863.987 54.0797 863.024C55.4308 862.435 56.4796 861.977 57.0151 861.729C58.3509 861.185 60.4944 861.351 61.8185 862.249C65.5699 864.794 73.364 865.893 78.774 864.569C87.3323 862.641 107.041 853.778 104.346 853.238C100.027 852.242 83.1745 850.958 81.7639 851.613C80.9837 852.05 79.9119 851.967 79.2499 851.518C78.6982 851.144 82.6778 848.366 87.9537 845.339C96.0903 840.709 98.2023 840.208 101.52 841.492C110.366 845.078 116.214 844.533 129.831 838.949C137.215 835.903 143.339 833.29 143.563 832.959C144.087 832.186 128.791 830.509 121.099 830.446C117.178 830.525 110.925 830.955 107.186 831.48C100.928 832.39 100.523 832.276 102.02 830.069C104.266 826.759 111.811 822.05 113.245 823.023C115.342 824.445 126.04 823.164 131.087 820.949C135.504 818.951 136.139 818.254 140.279 809.301C142.726 804.033 145.874 798.918 147.214 797.893C150.377 795.367 149.16 795.024 144.227 796.833C135.546 800.128 125.806 806.41 117.942 813.964C102.102 828.997 98.7452 828.009 105.805 810.241C110.978 797.155 113.744 789.041 112.818 789.219C112.557 789.365 108.058 796.946 102.842 806.297C90.6832 828.017 80.9434 838.81 66.1242 846.641L62.4835 848.682L65.3792 842.752C70.6074 831.959 76.8552 809.451 74.4477 809.912C74.0025 810.094 70.5156 815.945 66.6861 823.014C54.6246 845.28 45.9223 854.841 31.3645 861.776L-6.00001 874.444L-38 876.5L-39.5 906.722L-6.00001 916.847L-2.7662 912.081L-16 902.406L0.869604 906.722L9.97056 893.308Z" fill="black" fill-opacity="0.1"/>
<path d="M-10.8307 814.094C0.161353 811.743 6.97318 808.133 29.6557 794.04C43.1976 785.631 57.9341 775.97 62.3623 772.742L70.3997 766.655L53.7981 771.983C37.9201 776.999 15.0949 785.61 2.24186 791.513C-1.03348 792.994 -3.62682 793.667 -3.38327 792.997C-3.17684 792.48 -0.829418 789.481 1.82417 786.556C5.9948 782.051 7.36339 781.084 11.9377 779.591C14.9115 778.685 22.049 774.973 28.4952 770.771C34.7141 766.839 42.3271 762.837 45.2429 761.836C49.4739 760.422 93.0922 736.884 93.6001 735.791C93.6373 735.638 87.8381 736.838 80.6287 738.509C73.4192 740.18 67.2559 741.211 66.9659 740.736C66.676 740.262 65.3027 740.58 63.8182 741.358C60.2042 743.567 36.3953 748.219 37.8544 746.545C44.827 738.503 45.2074 738.27 52.4309 738.546C59.9605 738.894 70.1693 737.214 77.4854 734.436C82.8577 732.324 123.634 709.48 123.228 708.816C123.054 708.532 109.111 711.583 92.1567 715.693C75.2396 719.649 61.4493 722.737 61.5235 722.431C61.6349 721.972 77.8465 704.894 81.9637 700.943C83.5759 699.306 85.8468 698.96 91.0637 699.159C104.882 699.964 114.543 696.533 141.24 681.646L154.902 674.075L126.953 679.433C111.557 682.46 98.6973 684.718 98.3912 684.645C98.085 684.572 101.061 681.319 104.893 677.542L112.044 670.434L116.997 671.055C132.504 672.912 143.919 668.931 177.124 650.586L187.818 644.569L181.96 645.674C180.286 646.005 175.494 646.986 169.259 648.263L169.196 648.276C163.726 649.396 157.152 650.742 150.599 652.076L125.094 657.373L128.319 654.099C130.063 652.251 133.647 648.496 136.226 645.877L140.967 641.023L145.941 641.892C152.883 642.991 164.491 641.889 172.362 639.162C178.441 637.14 209.03 621.567 217.246 616.413C219.566 614.865 217.427 615 208.787 616.894C155.379 628.694 153.356 629.018 155.588 625.83C156.761 624.33 158.316 622.598 159.018 622.038C159.779 621.573 163.231 618.03 166.661 614.238L172.936 607.405L181.034 609.752C185.59 611.007 192.226 612.032 195.949 611.71C204.066 611.309 210.252 608.179 230.252 594.518L243.959 585.096L232.827 585.907C219.002 586.801 207.403 589.2 193.395 593.855L182.609 597.582L192.594 586.134C193.434 585.174 194.222 584.272 194.96 583.426C203.245 573.938 205.467 571.393 208.033 570.974C208.974 570.821 209.961 570.953 211.31 571.134C211.602 571.173 211.912 571.214 212.242 571.256C228.667 573.333 233.845 570.69 251.457 551.842C258.852 544.064 265.354 536.961 265.941 536.211C268.648 532.732 244.176 540.786 226.24 549.275L223.213 550.735L225.904 547.656C227.363 545.982 231.587 540.924 235.203 536.368L241.869 528.252L246.627 528.341C259.659 528.714 264.319 525.865 279.343 508.34L290.577 495.087L282.743 497.66C278.359 499.037 271.006 501.969 266.378 504.016L257.789 507.704L266.037 496.406C270.711 490.16 274.529 484.438 274.715 483.673C274.937 482.755 277.092 482.219 280.245 482.247C283.149 482.296 288.129 481.466 291.33 480.291L291.641 480.178C292.847 479.741 293.806 479.393 294.72 478.951C298.271 477.232 301.135 474.089 315.128 458.731L315.985 457.79L324.95 447.879L318.887 449.5C307.637 452.469 299.829 455.939 287.275 463.614C286.376 464.155 285.536 464.664 284.752 465.138C279.112 468.552 276.39 470.2 275.719 469.591C275.093 469.024 276.254 466.49 278.5 461.592C278.843 460.845 279.211 460.042 279.601 459.183C281.65 454.412 283.051 452.643 285.338 451.897C288.005 450.917 288.523 451.123 289.228 453.558C290.049 456.184 290.202 456.221 293.849 453.209C297.722 449.929 307.186 437.627 309.028 433.374C309.668 432.07 310.297 426.473 310.487 421.014C310.64 415.708 311.614 407.684 312.69 403.247C314.413 395.808 314.429 395.407 312.209 397.546C301.189 408.584 289.733 428.098 284.071 445.764C281.529 453.574 276.649 460.337 273.893 459.676C271.596 459.125 271.125 454.721 271.665 436.798C271.976 421.492 271.53 407.299 270.579 407.881C270.294 408.055 268.459 421.296 266.569 437.438C262.844 466.821 260.898 475.178 254.617 489.053C251.119 496.795 242.621 510.461 241.491 510.109C241.089 510.094 241.173 505.742 241.574 500.415C242.402 490.656 240.548 463.902 238.557 458.082C237.815 455.799 236.472 463.005 233.956 482.397C230.071 513.442 227.311 522.818 217.692 537.43C207.94 552.253 207.787 552.216 208.94 539.783C209.986 528.458 209.57 515.81 207.658 504.99C206.44 497.655 205.083 492.229 204.608 492.52C204.418 492.636 202.68 503.472 200.693 516.676C195.681 550.365 192.508 560.775 183.227 574.659C179.344 580.396 177.387 583.286 176.48 582.99C175.559 582.689 175.72 579.105 176.043 571.883C176.451 564.857 176.381 555.126 176.022 550.264C175.254 541.742 172.451 523.907 171.785 524.314C171.595 524.431 169.55 537.54 167.179 553.324C162.513 584.586 160.669 591.187 152.831 603.797C147.902 611.763 133.804 627.81 132.992 626.482C132.76 626.102 131.428 610.887 129.978 592.487C128.49 574.24 127.142 559.426 126.857 559.601C126.667 559.717 125.588 571.844 124.624 586.508C122.556 617.745 120 628.951 111.781 641.795C108.778 646.498 105.277 651.244 103.988 652.554L101.731 654.846L101.03 642.373C100.598 635.469 100.229 629.309 100.32 628.603C100.57 626.234 97.8436 595.061 97.129 591.328C96.2729 586.508 96.0549 588.075 94.2069 615.398C92.498 640.812 90.7609 651.648 86.442 662.108C84.076 667.854 77.2333 678.032 75.9506 677.644C75.5493 677.628 74.5422 665.082 73.6696 649.977C71.8408 618.777 70.662 603.599 70.0241 602.555C69.7921 602.176 69.1798 607.372 68.6558 614.208C66.2024 645.029 64.477 660.158 62.4731 668.421C60.1723 677.907 55.3871 689.955 51.1562 696.711C47.9831 701.779 39.1385 712.529 38.373 712.345C38.0668 712.272 37.5401 705.426 37.1362 697.072C36.4236 680.306 34.6252 655.994 33.4072 648.659C32.442 641.951 32.0385 644.283 29.8378 670.388C27.6418 697.143 24.7914 712.569 20.3774 723.086C17.0326 730.865 12.2729 738.466 11.0481 738.173C10.7419 738.099 9.85789 729.387 9.2081 718.707C7.39332 689.453 4.96388 662.399 4.41879 663.644C4.02216 664.278 3.05985 676.595 2.03728 691.164C-0.126108 722.459 -2.97415 740.881 -7.61548 751.668C-9.82887 756.82 -11.7812 760.659 -13.2777 762.875L-10.8307 814.094Z" fill="black" fill-opacity="0.1"/>
<path d="M-19.2209 178.835C2.07963 185.936 39.0704 174.092 53.9493 162.606C62.1664 156.237 64.3757 154.12 73.6009 143.847C83.2812 133.055 84.0876 132.279 93.49 124.52C97.6709 121.077 101.901 117.528 102.884 116.611C103.879 115.707 106.42 113.504 108.566 111.727C111.685 109.13 112.905 108.202 114.735 107.034C119.117 104.235 122.506 102.761 126.549 101.882C129.039 101.348 130.3 101.169 129.556 101.493C129.047 101.721 127.991 104.168 127.529 106.187C126.045 112.902 128.558 119.688 134.854 126.026C138.043 129.218 141.106 131.329 145.132 133.14C151.083 135.804 158.156 136.549 168.71 135.657C175.648 135.059 183.079 133.488 191.194 130.903C195.31 129.586 202.519 126.898 203.051 126.475C203.146 126.399 202.648 126.417 201.929 126.521C196.295 127.33 190.453 126.006 185.52 122.776C182.594 120.891 178.126 116.933 171.213 110.128C167.303 106.284 165.995 105.117 164.067 103.731C159.996 100.774 154.945 98.597 150.89 98.0352C150.341 97.9601 149.916 97.8745 149.957 97.8419C149.998 97.8094 150.695 97.5664 151.52 97.2883C153.529 96.6244 157.529 94.7984 159.674 93.5795C162.098 92.2062 166.565 88.6471 168.104 86.8629C173.191 80.9805 174.457 74.8856 171.919 68.3194C170.815 65.452 168.985 63.4074 166.442 62.1993C164.959 61.4844 161.389 61.0275 159.715 61.3575C156.672 61.953 154.499 63.6401 152.966 66.5788C152.65 67.1878 152.429 67.7208 152.461 67.7617C152.494 67.8026 153.09 67.4613 153.777 66.9814C158.976 63.4191 164.056 63.6762 166.18 67.6275C168.182 71.3415 167.384 77.465 164.384 81.4395C163.204 83.0042 161.082 84.6724 159.389 85.3972C154.659 87.4254 149.616 88.388 141.519 88.8164C131.302 89.3502 129.348 89.5242 126.332 90.2097C120.771 91.4731 115.984 93.6808 110.088 97.7095C107.215 99.6641 101.694 104.443 95.1206 110.639C89.9749 115.498 89.5227 115.88 84.378 119.734C80.6168 122.53 78.8709 123.944 77.5416 125.181C75.8227 126.796 73.9237 128.912 73.3867 129.83C73.1413 130.249 73.1168 130.246 73.0573 129.892C72.8895 128.955 73.9563 126.298 75.33 124.222C77.0172 121.673 77.7692 120.828 80.4821 118.533C85.8943 113.953 89.2898 109.441 92.1947 102.999C95.6942 95.2362 96.74 86.4616 95.3046 77.0317C95.118 75.8196 94.2622 71.7277 93.3979 67.9326C91.0923 57.746 89.6713 50.1784 89.0644 44.8621C88.4063 39.0066 88.8083 34.4256 90.4218 29.437C91.5574 25.9445 93.804 21.946 96.1145 19.2574C96.6839 18.6029 97.2452 17.9103 97.3515 17.7364C97.5941 17.3423 93.7271 19.9774 89.5765 23.0391C74.777 33.9164 64.6619 44.1621 56.4195 56.6186C47.613 69.9038 44.9338 81.8538 47.7641 95.2137C50.2071 106.718 55.255 115.122 62.4567 119.689C64.113 120.734 64.3035 120.805 69.2141 122.358L73.0229 123.562L74.1639 122.898C75.9393 121.885 74.9507 122.628 72.7395 123.988C71.3942 124.815 70.2204 125.661 69.0519 126.681C67.0607 128.401 66.4249 129.83 64.6499 134.459C63.7623 136.774 62.4479 139.549 61.9873 140.228C48.4392 160.319 13.6174 176.426 -19.2209 167.741L-19.2209 178.835Z" fill="black" fill-opacity="0.1"/>
<path fill-rule="evenodd" clip-rule="evenodd" d="M0 995.786C1.30365 996.251 2.52777 996.941 3.27673 997.689C4.62585 999.038 9.82965 1003.08 14.8407 1006.36C25.6337 1013.68 26.4047 1016.38 18.3099 1016.38C15.4303 1016.38 13.9848 1016.38 13.5925 1017.02C13.1971 1017.67 13.8716 1018.97 15.2261 1021.58C19.4662 1029.86 23.7064 1034.87 25.0555 1033.53C25.6337 1032.75 27.3683 1024.47 28.7175 1015.03C32.7648 988.441 39.896 975.34 56.2783 964.165C63.7949 958.963 64.5658 958.771 64.5658 962.046C64.5658 964.165 59.7474 970.716 53.9655 976.689C47.0271 983.817 43.3652 989.019 43.3652 992.102C43.3652 996.341 44.3288 996.919 54.351 998.267C70.7332 1000.19 106.196 997.689 120.458 993.451C127.397 991.524 142.43 985.744 154.187 980.735C183 968.458 165.5 1003 70.7332 1006.17L43.3652 1007.32V1019.85C43.3652 1031.6 42.7869 1033.14 37.1977 1038.92C31.8011 1044.51 31.0302 1046.43 31.6085 1054.53C31.8012 1059.53 33.9212 1069.94 36.0413 1077.65C38.1613 1085.54 39.3177 1092.29 38.9323 1092.87C38.3541 1093.25 36.2341 1092.87 34.114 1091.71C31.8012 1090.55 25.441 1089.59 19.8517 1089.59L9.6369 1089.78L19.0808 1093.44C27.1756 1096.72 45.2925 1111.17 45.2925 1114.64C45.2925 1115.22 40.0887 1115.22 33.7285 1115.02C22.3573 1114.25 22.1645 1114.44 22.1645 1119.26C22.1645 1124.27 21.9718 1124.46 12.5279 1123.11C4.24036 1121.96 2.89124 1122.34 2.89124 1125.04C2.89124 1133.71 6.36041 1135.83 20.6227 1135.83H34.3067L44.3288 1126.39C57.0491 1114.25 65.5294 1111.94 88.6573 1113.48C101.956 1114.44 106.774 1115.41 108.894 1118.11C110.436 1120.03 115.255 1123.89 119.687 1126.78C123.928 1129.67 129.324 1134.48 131.444 1137.37C138.19 1146.43 153.608 1176.29 151.681 1176.29C150.717 1176.29 146.477 1175.13 142.43 1173.59C138.19 1172.24 131.444 1170.51 127.204 1169.74L119.495 1168.2L131.059 1176.29C137.419 1180.72 146.285 1186.5 150.717 1189.39C155.15 1192.28 159.005 1194.98 159.005 1195.56C159.005 1196.91 139.732 1207.69 133.95 1209.62C131.251 1210.39 123.542 1211.74 116.604 1212.51L104.076 1213.86L117.953 1228.12L146.67 1218.48C162.474 1213.09 176.929 1207.12 178.856 1205C180.784 1203.07 186.758 1199.03 191.962 1196.33C197.359 1193.63 206.224 1188.43 211.621 1184.58C214.416 1182.65 217.017 1180.82 218.969 1179.45C220.92 1178.07 222.221 1177.16 222.414 1177.06C222.8 1176.68 221.258 1173.98 218.945 1170.7C207.574 1154.9 213.356 1146.81 235.52 1147.58C242.651 1147.78 250.553 1148.93 252.866 1149.9C255.95 1151.24 258.262 1150.86 262.503 1147.97C265.393 1145.85 272.717 1142 278.692 1139.3L289.485 1134.29L288.521 1124.46C286.787 1106.16 295.46 1099.99 327.068 1097.1C337.668 1096.14 349.811 1094.02 354.051 1092.48C361.374 1089.98 362.338 1090.17 364.458 1093.06C372.168 1103.08 360.989 1125.04 345.763 1130.63C343.065 1131.59 342.872 1133.13 344.414 1141.8C345.378 1147.58 347.112 1153.56 348.076 1155.48C350.581 1160.11 348.654 1160.68 326.297 1162.03C308.18 1163.19 305.675 1163 298.158 1159.14C293.725 1156.83 289.1 1153.36 287.751 1151.44C285.63 1147.78 285.245 1147.78 275.994 1152.59C265.586 1157.79 266.164 1160.88 277.343 1160.88C280.427 1160.88 284.474 1162.23 286.209 1163.77C290.642 1167.62 306.06 1168.01 353.665 1164.92C375.251 1163.57 391.826 1161.65 392.404 1160.49C393.175 1159.34 395.681 1158.95 398.186 1159.53C404.161 1161.07 407.63 1157.79 407.63 1150.28C407.63 1140.65 413.798 1134.48 425.94 1131.78C440.202 1128.51 447.912 1131.21 463.908 1144.5C471.04 1150.28 478.363 1155.1 480.291 1155.1C482.218 1155.1 492.433 1152.01 502.84 1148.35C519.314 1142.47 522.542 1141.3 523.147 1142.11C523.335 1142.36 523.27 1142.8 523.27 1143.34C523.27 1145.66 496.48 1158.18 483.953 1161.84C478.556 1163.38 463.33 1166.27 450.032 1168.2L425.94 1171.67V1178.02C425.94 1183.8 426.711 1184.77 436.926 1189.01C446.948 1193.25 448.104 1193.25 453.694 1190.55C456.97 1189.01 461.21 1188.04 463.137 1188.62C465.065 1189.39 469.498 1188.43 472.967 1186.69C477.4 1184.58 481.64 1184 487.036 1184.77C498.6 1186.69 501.877 1189.2 506.117 1198.83C508.237 1203.65 510.357 1207.12 511.128 1206.54C511.706 1205.77 511.321 1204.23 510.164 1202.88C509.201 1201.53 507.852 1198.25 507.466 1195.56C506.888 1191.32 507.852 1190.55 516.332 1188.43C528.281 1185.54 539.46 1187.47 551.024 1194.79C555.842 1197.87 559.697 1200.95 559.889 1201.53C559.889 1202.11 556.228 1203.84 551.602 1205.38L543.507 1208.08L556.613 1208.66C567.791 1209.24 569.719 1209.62 569.141 1212.51C568.37 1216.17 562.588 1216.17 525.583 1213.86L507.852 1212.51V1218.48C507.852 1221.57 508.622 1226.38 509.779 1229.08C510.743 1231.78 510.935 1234.09 510.164 1234.09C503.033 1234.09 472.774 1229.66 467.763 1228.12C457.934 1224.84 448.49 1215.59 446.948 1207.89C445.792 1201.92 444.442 1200.57 435.191 1196.33C434.62 1196.09 434.057 1195.85 433.506 1195.62C428.3 1193.44 424.169 1191.7 423.82 1191.7C423.434 1191.7 423.049 1194.21 423.049 1197.29C423.049 1200.57 422.278 1203.65 421.122 1204.23C418.616 1205.77 395.488 1201.14 393.175 1198.45C392.019 1197.29 387.201 1194.79 381.997 1192.86C372.168 1189.2 367.156 1183.8 367.156 1176.68V1172.24L343.45 1173.79C313.769 1175.71 296.423 1175.71 289.485 1173.79C284.474 1172.44 284.281 1172.63 286.209 1176.48C287.558 1178.6 287.943 1181.11 287.172 1181.69C284.859 1184 252.673 1187.08 245.735 1185.73C242.073 1184.96 236.291 1183.8 233.207 1183.23C229.352 1182.46 226.076 1183.03 223.57 1184.96L219.716 1188.04L223.57 1190.16C231.28 1194.59 238.025 1203.84 241.109 1214.05L244 1224.26L260.768 1223.3C270.019 1222.72 280.619 1220.99 284.474 1219.64C291.798 1216.94 303.94 1218.48 306.446 1222.53C307.217 1223.69 316.275 1224.46 326.683 1224.46C343.836 1224.46 346.149 1224.84 351.16 1229.08C354.051 1231.39 361.374 1235.05 367.156 1236.98C383.153 1242.18 403.198 1251.82 400.307 1252.78C398.765 1253.36 388.55 1251.43 377.564 1248.54C366.578 1245.46 356.942 1243.53 356.363 1244.3C354.436 1246.23 357.327 1252.2 363.302 1258.75C370.24 1266.46 370.433 1268 364.651 1269.54C350.389 1273.39 330.73 1268.96 323.406 1260.29C319.937 1256.44 318.781 1255.67 319.744 1258.17C320.516 1260.29 323.599 1268.77 326.683 1276.86L332.272 1291.89H321.093C280.812 1291.89 239.182 1260.29 250.168 1238.14L253.251 1231.97L246.12 1233.32C242.266 1233.9 233.785 1235.63 227.425 1236.98C201.021 1242.95 193.89 1243.72 161.318 1243.72H127.204L127.397 1259.14C127.589 1267.61 128.746 1275.71 129.902 1277.25C132.601 1280.52 132.215 1280.72 118.531 1285.15C105.618 1289.39 84.0318 1289.58 72.8533 1285.53L64.9512 1282.45L66.8786 1288.23L68.8059 1293.82H101.378C159.005 1293.82 174.424 1296.9 218.174 1316.74C242.266 1327.73 261.153 1334.28 285.438 1340.06C298.98 1343.25 303.207 1344.33 304.181 1343.01C304.676 1342.33 304.33 1341.04 303.94 1339.09C302.205 1329.07 311.457 1325.61 323.406 1331.58C325.59 1332.67 329.836 1335.06 334.509 1337.69C337.26 1339.24 340.159 1340.87 342.872 1342.37C356.363 1350.27 357.134 1353.16 345.956 1353.74C342.487 1353.93 383.346 1368.57 387.972 1368.96C388.164 1368.96 387.008 1366.84 385.466 1364.33C381.226 1357.78 384.31 1352.39 394.91 1347.76C408.401 1341.79 417.46 1341.02 426.133 1345.45C434.998 1350.08 456.777 1372.62 454.465 1374.74C453.694 1375.7 448.49 1378.01 443.286 1380.13L433.649 1383.98L439.431 1386.3C442.515 1387.64 451.959 1391.11 460.054 1394L474.701 1399.59L481.833 1392.85C491.855 1383.41 499.179 1380.13 512.863 1378.97C528.088 1377.82 529.823 1380.52 519.03 1388.42C507.081 1397.09 500.142 1400.36 491.469 1401.71L483.76 1402.87L497.444 1406.14C519.994 1411.34 546.013 1412.31 574.344 1408.65C592.654 1406.33 600.749 1404.41 604.603 1401.52L610 1397.66V1402.29C610 1406.53 608.844 1407.1 600.171 1408.26C591.883 1409.42 590.727 1409.99 593.425 1411.92C594.967 1413.27 597.858 1418.09 599.4 1422.9C601.134 1427.53 603.64 1433.31 605.182 1435.62C607.88 1439.86 607.687 1440.05 594.581 1442.36C565.093 1447.56 543.314 1435.62 552.18 1418.86C554.107 1415.39 553.337 1415.2 533.485 1415.2L512.67 1415.39L519.416 1418.86C523.077 1420.98 530.209 1426.37 535.22 1430.99C544.085 1439.28 544.471 1439.86 544.471 1450.45V1461.24L525.005 1454.69C503.804 1447.37 494.553 1442.55 488.578 1435.04C484.531 1429.84 483.374 1418.28 486.844 1416.16C489.927 1414.04 471.618 1406.33 440.973 1396.89C425.555 1392.08 412.641 1388.22 412.063 1388.22C411.678 1388.22 413.412 1390.92 416.111 1394.2C422.278 1401.52 422.471 1412.5 417.46 1441.21L413.991 1460.47L408.401 1459.89C393.561 1458.35 370.433 1440.44 363.495 1424.83C356.556 1409.61 359.062 1390.53 369.084 1380.52C371.397 1378.2 372.938 1376.08 372.553 1375.7C371.782 1375.12 300.085 1351.62 298.736 1351.62C298.158 1351.62 300.664 1355.47 304.326 1360.29C313.962 1372.81 315.697 1379.55 313.191 1395.16C312.035 1402.29 310.686 1408.84 310.108 1409.61C308.566 1412.11 297.965 1407.87 288.136 1400.75C275.994 1391.88 267.321 1381.86 262.695 1371.46C258.455 1362.02 259.612 1358.55 269.055 1351.04L275.223 1346.22L264.815 1343.33C259.033 1341.6 247.084 1338.52 238.025 1336.2C210.272 1329.27 189.264 1322.52 180.784 1317.9C169.412 1311.73 162.667 1310.58 146.285 1312.12C133.564 1313.28 132.022 1313.85 132.022 1317.32C132.022 1326.38 137.226 1337.55 144.743 1345.07L152.645 1352.96L168.642 1352.19C187.337 1351.42 187.915 1351.81 187.915 1366.45C187.915 1374.16 188.879 1377.63 192.155 1381.29C196.973 1386.49 216.632 1396.7 260.19 1416.74C293.147 1431.77 319.551 1446.6 314.926 1447.56C311.842 1448.14 241.302 1416.93 213.934 1403.06C200.057 1395.74 196.781 1394.97 180.591 1394C170.954 1393.42 162.86 1393.42 162.86 1393.81C162.86 1394.2 165.172 1397.66 167.871 1401.13C175.773 1411.54 170.762 1413.27 162.281 1403.25C160.871 1401.64 159.25 1399.77 157.59 1397.86C154.485 1394.28 151.243 1390.54 148.983 1388.03C145.514 1384.18 142.044 1378.59 141.273 1375.51C139.539 1368.96 141.274 1357.01 144.357 1355.08C145.706 1354.12 138.768 1345.84 126.24 1333.12L106.003 1312.7L64.5658 1313.85C32.5721 1314.82 20.8154 1314.43 12.9133 1312.51L2.89124 1309.81V1321.75C2.89124 1328.89 2.10693 1333.81 0 1338.77V995.786ZM138.768 1231.2L154.187 1224.65C158.149 1223.03 162.027 1221.41 165.152 1220.1C168.716 1218.61 171.302 1217.53 171.918 1217.33C173.267 1216.75 174.424 1217.52 174.424 1219.06C174.424 1222.34 181.555 1229.08 186.758 1231.01C188.686 1231.59 190.035 1232.36 189.649 1232.74C189.264 1232.93 177.507 1232.74 163.823 1232.16L138.768 1231.2ZM316.66 1238.91C316.66 1241.99 316.275 1243.15 315.697 1241.22C315.311 1239.48 315.311 1236.79 315.697 1235.44C316.275 1234.28 316.66 1235.63 316.66 1238.91Z" fill="url(#paint0_linear_50_42)"/>
<path d="M-63.6354 302.65C-60.7132 299.647 -56.761 296.275 -51.0814 291.785C-42.1764 284.863 -34.3241 278.964 -33.6043 278.688C-30.1218 277.352 -46.0317 307.082 -56.2121 322.011L-63.6354 302.65Z" fill="url(#paint1_linear_50_42)"/>
<path d="M-52.3725 332.024C-51.9525 332.088 -51.5148 332.153 -51.0588 332.22C-20.7334 336.481 4.42457 334.263 28.359 325.086L38.4365 321.222L36.0855 308.092C32.1392 286.494 35.2471 267.145 44.4191 256.612C46.6777 253.889 47.1756 254.111 47.5173 257.694C48.0848 262.358 48.2008 262.183 56.9657 248.936L57.3522 248.352C60.9005 243.071 63.7829 239.283 63.9899 239.823C64.1968 240.362 63.7348 245.079 62.8018 250.183C61.1279 261.967 61.5687 263.655 65.9447 260.533C70.1408 257.479 70.1527 259.126 65.8811 279.747C64.0723 288.488 63.3162 296.206 64.312 296.65C65.0588 296.982 66.0846 295.351 66.5855 292.889C67.8545 284.355 77.3148 263.808 82.8157 257.159L88.4275 250.261L88.3493 258.132C88.219 261.482 87.8869 265.867 87.6365 269.172C87.5581 270.207 87.4877 271.137 87.434 271.896C86.54 279.254 86.8999 279.116 96.9988 268.847C101.432 264.259 107.152 259.796 109.671 258.83C116.509 256.208 127.163 257.075 133.551 260.816C139.51 264.515 161.098 286.364 160.322 288.106C159.518 289.909 146.429 291.946 130.661 293.37C113.781 294.895 93.8304 295.718 82.5925 294.799C78.1236 294.449 74.1796 294.93 73.9156 295.856C72.8058 298.345 85.2826 301.815 95.5911 301.783C100.531 301.746 110.311 303.567 117.366 305.814C122.029 307.219 127.433 308.767 131.745 310.003C134.123 310.684 136.168 311.27 137.574 311.684C158.503 317.278 174.168 327.986 178.72 339.859C181.273 346.515 179.847 358.41 175.591 365.614C173.054 370.301 172.805 370.19 163.214 360.249C158.031 354.808 147.276 346.138 139.616 341.234C131.707 336.219 122.446 328.215 118.577 323.508C113.34 316.85 110.188 314.551 104.834 313.508L97.7652 312.298L102.597 322.207C106.903 331.286 106.774 335.256 102.35 331.793C98.8804 329.203 83.7851 328.595 77.6666 330.941C74.4273 332.183 66.8302 332.826 61.0056 332.171C52.1789 331.222 47.9438 332.02 35.1668 336.919C18.0709 343.474 10.6117 344.477 -23.6489 345.027C-33.494 345.167 -41.1342 345.289 -47.2294 345.438L-52.3725 332.024Z" fill="url(#paint2_linear_50_42)"/>
<path d="M-7.55652 448.906C-6.01741 449.111 -4.46069 449.095 -3.85711 448.863C-2.59742 448.38 9.27635 458.891 22.6137 472.141C24.5855 474.045 13.8213 477.327 3.7992 478.522L-7.55652 448.906Z" fill="url(#paint3_linear_50_42)"/>
<path d="M-36.2665 374.029C-35.9936 373.742 -35.7082 373.417 -35.4009 373.056C-28.5563 365.067 -21.9969 364.409 -4.67939 369.737C4.29732 372.691 14.6447 374.914 18.1179 374.821C21.8399 374.838 25.0911 375.242 25.298 375.782C25.7809 377.041 4.77366 391.699 -2.68864 395.385L-7.22964 397.539L7.10644 408.55C15.0003 414.602 36.8974 432.412 55.5313 448.171L89.44 476.851L90.6192 462.161C92.2065 441.537 101.22 424.669 115.317 415.137C126.048 408.133 136.935 410.149 172.602 426.187C190.028 433.949 205.806 441.724 207.963 443.58C211.391 446.598 211.28 446.847 205.161 449.193C197.063 452.298 189.694 459.457 181.682 471.402C172.936 484.66 162.507 492.992 150.798 495.831C138.189 499.015 120.371 496.149 110.983 489.431C106.766 486.508 103.143 484.596 102.81 485.343C101.035 489.325 161.28 525.858 195.702 541.342L219.24 552.125L219.552 545.403C220.068 529.523 230.062 526.516 263.914 531.901C278.593 534.114 291.777 535.661 293.106 535.358C296.165 534.185 272.413 552.99 264.576 557.852L258.871 561.278L268.376 562.379C273.523 562.882 282.047 562.503 287.292 561.11C292.427 559.967 300.066 558.895 304.148 558.774C318.719 558.552 379.952 541.676 366.959 541.706C363.846 541.662 361.066 540.871 361.15 540.013C361.222 537.509 376.057 511.599 378.037 510.84C380.916 509.736 388.267 518.679 388.939 524.199C389.295 526.745 387.658 531.087 385.51 533.561C382.157 537.736 385.645 536.605 423.976 521.908C447.191 513.006 467.61 504.352 469.133 502.942C471.779 500.69 471.212 500.288 465.345 500.061C457.901 500.027 449.812 495.081 449.873 490.931C449.768 485.813 460.788 444.033 462.228 443.481C463.128 443.136 464.882 445.558 466.124 448.796C467.503 452.394 471.981 457.074 477.899 461.201C488.987 469.124 489.523 471.601 482.685 486.604L477.775 496.946L485.903 491.766C487.884 490.554 490.047 489.192 492.036 487.94L492.044 487.935C494.584 486.336 496.84 484.915 498.074 484.211C501.037 482.249 501.301 481.323 499.061 480.324C491.593 476.998 494.358 466.445 510.024 440.011C516.665 428.798 522.253 418.608 522.628 417.433C523.393 414.044 524.416 415.096 531.859 427.512C542.521 445.09 540.988 454.55 524.726 470.277C519.462 475.391 515.485 480.63 515.899 481.709C516.864 484.228 512.044 488.346 505.386 490.899C503.226 491.727 501.634 492.957 501.91 493.676C502.255 494.576 509.378 497.003 517.719 499.376C525.786 501.727 530.129 502.898 530.472 504.794C530.871 506.995 525.888 510.172 515.097 517.302C501.513 526.018 494.371 527.312 482.905 523.248C474.966 520.308 473.764 519.325 474.571 515.508C475.24 511.331 474.991 511.22 470.213 514.909C463.773 519.648 376.854 552.975 356.41 558.338C348.216 560.654 341.351 562.668 341.24 562.916L309.262 576.416C308.902 576.554 309.813 577.855 311.334 579.129C312.924 580.583 317.053 587.047 320.283 593.856C323.624 600.416 328.291 609.357 330.486 613.467L334.67 621.148L328.114 619.123C324.586 617.999 314.5 617.533 305.685 618.231C283.296 619.593 271.979 617.536 263.825 609.726C252.173 598.718 251.297 589.975 260.94 579.055C263.49 576.014 263.421 575.835 258.454 575.263C247.054 574.063 219.626 564.977 202.809 557.187C180.378 546.598 115.58 510.572 111.739 506.474C111.49 506.363 109.668 506.444 107.236 506.553L107.229 506.553L107.228 506.553C103.395 506.785 103.131 507.711 105.749 517.231C110.406 534.222 107.277 547.596 94.3049 565.983C89.3374 573.024 86.161 576.415 85.5987 580.194C84.738 585.977 90.0005 592.67 104.336 614.754C112.526 627.502 119.1 638.187 118.879 638.685C118.657 639.183 109.26 628.135 97.9715 614.305L77.3284 588.999L74.152 595.788C72.4183 599.342 71.4433 604.874 72.0071 607.96L72.7477 613.66L63.2762 607.8C58.1597 604.6 53.5179 601.122 49.3706 597.374C31.2442 582.502 25.6242 567.094 22.8107 528.105C22.8334 527.985 22.8571 527.867 22.8818 527.751C23.6047 524.792 23.6768 522.288 23.2479 522.246C23.0226 522.146 -1.15965 510.558 -2.68864 510.5L-9.79441 493C-4.78978 496.969 23.5026 512.459 25.7345 513.658C26.4814 513.99 28.5329 510.728 30.5995 506.427C37.6873 491.536 52.8669 478.906 65.1969 477.686C69.2099 477.385 72.2962 476.821 72.1583 476.461C71.9514 475.922 28.8922 438.989 8.66869 421.776L-0.136955 414.422L-2.0806 420.12C-2.35131 420.894 -2.72432 421.94 -3.16266 423.169L-3.16506 423.175C-4.48005 426.862 -6.38137 432.191 -7.86975 436.783C-8.74366 439.41 -9.38562 441.463 -9.7944 443.07L-15.6424 427.818L-10.2022 407.552L-16.1886 403.244C-18.8486 401.304 -23.4694 399.234 -27.0337 398.109L-36.2665 374.029Z" fill="url(#paint4_linear_50_42)"/>
<path d="M73.9156 295.856C74.1796 294.93 78.1236 294.449 82.5925 294.799C93.8304 295.718 113.781 294.895 130.661 293.37L166.14 296.584L185.095 297.57L234.502 301.53C258.907 304.347 267.389 304.396 278.807 301.875C295.18 298.28 297.783 296.456 284.305 297.91L283.58 297.994C269.671 299.6 269.493 299.62 269.251 296.873C269.377 295.586 272.134 293.085 275.775 291.276C280.967 288.666 285.118 288.726 295.465 290.948C302.852 292.449 308.911 294.253 309.366 294.903C309.642 295.623 303.62 298.758 296.019 302.084L282.37 307.937L296.148 310.495C303.715 311.927 317.95 315.136 327.826 317.745L345.477 322.326L356.58 316.831C372.335 308.933 384.276 297.545 385.641 289.8C386.757 281.943 388.196 281.391 392.119 287.316C398.141 296.562 398.03 321.572 392.001 330.074C388.897 334.359 387.097 335.049 376.62 336.797C367.473 338.241 360.79 337.502 348.245 333.852L331.812 329.217L335.755 341.117C337.879 347.731 339.159 353.224 338.439 353.5C333.802 354.865 304.479 345.681 299.212 341.097C293.31 335.932 293.172 335.572 294.162 329.002C294.72 325.074 294.765 321.962 294.516 321.851L180.53 308.812L134.161 310.084L131.745 310.003C127.433 308.767 122.029 307.219 117.366 305.814C110.311 303.567 100.531 301.746 95.5911 301.783C85.2826 301.815 72.8058 298.345 73.9156 295.856Z" fill="url(#paint5_linear_50_42)"/>
</g>
<defs>
<linearGradient id="paint0_linear_50_42" x1="101" y1="960" x2="664.5" y2="1461" gradientUnits="userSpaceOnUse">
<stop stop-color="#4F772D"/>
<stop offset="1" stop-color="#90A955"/>
</linearGradient>
<linearGradient id="paint1_linear_50_42" x1="-24" y1="996.5" x2="591.5" y2="393" gradientUnits="userSpaceOnUse">
<stop stop-color="#4F772D"/>
<stop offset="1" stop-color="#90A955"/>
</linearGradient>
<linearGradient id="paint2_linear_50_42" x1="-24" y1="996.5" x2="591.5" y2="393" gradientUnits="userSpaceOnUse">
<stop stop-color="#4F772D"/>
<stop offset="1" stop-color="#90A955"/>
</linearGradient>
<linearGradient id="paint3_linear_50_42" x1="-24" y1="996.5" x2="591.5" y2="393" gradientUnits="userSpaceOnUse">
<stop stop-color="#4F772D"/>
<stop offset="1" stop-color="#90A955"/>
</linearGradient>
<linearGradient id="paint4_linear_50_42" x1="-24" y1="996.5" x2="591.5" y2="393" gradientUnits="userSpaceOnUse">
<stop stop-color="#4F772D"/>
<stop offset="1" stop-color="#90A955"/>
</linearGradient>
<linearGradient id="paint5_linear_50_42" x1="-24" y1="996.5" x2="591.5" y2="393" gradientUnits="userSpaceOnUse">
<stop stop-color="#4F772D"/>
<stop offset="1" stop-color="#90A955"/>
</linearGradient>
<clipPath id="clip0_50_42">
<rect width="718" height="1485" fill="white"/>
</clipPath>
</defs>
</svg>
