<svg width="106" height="74" viewBox="0 0 106 74" fill="none" xmlns="http://www.w3.org/2000/svg">
<path d="M7.85583 70.9448C7.85583 62.4583 14.4835 54.8266 20.9346 56.3793C20.9346 56.3793 17.1752 51.8595 17.0168 51.8155C10.2241 51.5387 0.821717 61.0922 0 69.845L7.85583 70.9448Z" fill="url(#paint0_linear_25_39)"/>
<path d="M57.7123 2.16318C57.7756 2.1918 57.6887 2.25169 57.4835 2.34365C57.0934 2.51972 56.158 3.22681 55.4124 3.91551C54.6669 4.60422 54.0181 5.14918 53.9462 5.10081C53.8839 5.06929 53.523 4.62795 53.1599 4.14335L52.4888 3.23209L51.4066 3.95533C49.4616 5.27787 41.8927 10.1148 41.8135 10.0928C41.7702 10.095 41.6337 9.46005 41.5 8.71216C41.2379 7.14673 41.1667 6.94216 40.9204 7.215C40.7489 7.42328 30.6511 16.2497 30.4656 16.3546C30.3982 16.3928 30.4875 15.7636 30.664 14.9739L30.6782 14.8986C30.8218 14.1363 30.9363 13.5283 30.9108 13.5212C30.8748 13.497 28.6845 15.9598 26.0352 18.9492C23.3955 21.9555 21.0988 24.5452 20.9346 24.7271C20.7125 24.964 20.5468 24.9464 20.2138 24.7118L19.7635 24.3878L18.1586 28.122C16.7616 31.3677 16.1674 32.7277 15.8329 34.1487C15.5733 35.252 15.4703 36.3921 15.2698 38.4799C15.0293 41.2422 14.5915 44.0492 14.1139 46.0775L13.3667 49.282L14.3262 50.7424C17.1686 55.0995 18.1485 56.2812 22.8653 61.1585L27.5006 65.9704L30.4985 67.2573C33.8713 68.7059 34.4026 68.9364 34.4958 68.819C34.5163 68.7931 34.5156 68.7504 34.5193 68.7001C34.5326 68.6267 34.5506 68.4371 34.5741 68.1895C34.5982 67.9348 34.6281 67.6188 34.6649 67.3047C34.7255 66.625 34.8692 66.2099 35.0012 66.2465C35.1332 66.2832 37.7549 67.8495 40.8006 69.7325L46.3361 73.1452L48.1478 72.6102C49.5773 72.1942 50.2064 72.0593 50.3286 71.734C50.4351 71.4504 50.1564 71.0223 49.687 70.1373L48.8317 68.5067L53.4003 70.4854C56.4701 71.8207 58.6458 72.6377 60.0237 72.949L62.0689 73.4171L62.5886 72.7226C63.1662 71.973 63.1558 71.6005 62.4788 70.4033C62.2594 70.0155 62.1457 69.6569 62.23 69.6093C62.3143 69.5616 65.2121 69.5697 68.6504 69.6282C72.0887 69.6868 74.9095 69.7162 74.9168 69.6898C74.9242 69.6634 74.1804 68.8599 73.2548 67.8922L71.5855 66.1211L71.8192 65.4325C71.9555 65.0438 72.1036 64.7153 72.1542 64.6867C72.2048 64.6581 72.9916 64.9475 73.9127 65.3169L75.5869 65.9947L77.7856 64.8848C79.0042 64.2847 81.8268 62.8219 84.0476 61.6327L88.1276 59.4811L86.2299 56.1255L89.7614 53.5941C93.6543 50.8362 93.9248 50.5274 95.4397 47.5786C96.0119 46.4533 96.2792 45.9379 96.1239 45.7081C95.9904 45.5105 95.5444 45.524 94.7111 45.5425C93.7835 45.5552 93.224 45.471 93.3208 45.3273C93.3838 45.2026 94.5678 44.2659 95.9373 43.2244L98.3918 41.3467L100.63 37.9445C102.408 35.2252 102.955 34.2256 103.365 32.9035C103.648 31.9868 103.868 31.1948 103.863 31.1083C103.859 31.0218 103.205 31.1247 102.416 31.3038C101.636 31.4997 100.821 31.6715 100.614 31.6994C100.304 31.7413 100.689 30.6112 102.586 25.9773L102.7 25.6961C103.946 22.6365 105.001 20.045 105.093 19.8635C105.21 19.5973 104.897 19.5959 103.466 19.938C103.157 20.0063 102.852 20.0744 102.575 20.1363C101.984 20.2686 101.518 20.3727 101.407 20.3902C101.244 20.4159 101.847 19.318 102.846 17.8183C104.544 15.2332 104.59 15.118 105.312 12.2618C105.715 10.6537 106.027 9.27582 105.998 9.22523C105.96 9.15778 103.961 9.0864 101.566 9.06132C99.1605 9.01937 97.1616 8.94799 97.133 8.8974C97.1044 8.84681 97.2795 8.36943 97.5199 7.81063C97.7603 7.25183 97.9259 6.75757 97.8877 6.69012C97.8591 6.63952 95.729 6.37535 93.1662 6.13327C92.1112 6.029 91.0607 5.926 90.1568 5.83736C88.8794 5.71209 87.8947 5.6155 87.6035 5.58466L86.6789 5.48443L87.45 4.44742C87.8803 3.87024 88.2094 3.35027 88.1713 3.28282C88.1427 3.23223 85.6342 3.20424 82.5897 3.21231C79.5548 3.23724 77.0704 3.17335 77.0997 3.06775C77.1386 2.97902 77.5982 2.29624 78.1421 1.56578C78.686 0.835325 79.1119 0.171603 79.0642 0.0872929C79.0334 -0.00656065 76.3518 -0.0256677 73.1365 0.0345042C69.8948 0.0873523 67.2683 0.126104 67.2829 0.073309C67.2849 0.0662312 67.2829 0.0169737 67.2829 0.0169737L57.7123 2.16318Z" fill="url(#paint1_linear_25_39)"/>
<defs>
<linearGradient id="paint0_linear_25_39" x1="45.4345" y1="-172.932" x2="-116.236" y2="-81.5012" gradientUnits="userSpaceOnUse">
<stop stop-color="#4F772D"/>
<stop offset="1" stop-color="#90A955"/>
</linearGradient>
<linearGradient id="paint1_linear_25_39" x1="45.4345" y1="-172.932" x2="-116.236" y2="-81.5012" gradientUnits="userSpaceOnUse">
<stop stop-color="#4F772D"/>
<stop offset="1" stop-color="#90A955"/>
</linearGradient>
</defs>
</svg>
