<svg width="720" height="973" viewBox="0 0 720 973" fill="none" xmlns="http://www.w3.org/2000/svg">
<g clip-path="url(#clip0_93_46)">
<path d="M332.728 98.3101C360.207 113.749 369.301 119.209 399.574 138.447L415.6 148.686L414.064 141.6L412.435 134.419L402.312 128.101C394.157 123.027 389.947 119.499 382.108 110.939C376.602 104.947 364.65 92.5772 355.591 83.346C346.44 74.0197 339.062 66.5015 339.439 66.5051C339.628 66.5068 347.405 71.5774 356.87 77.7952C375.891 90.3262 392.816 105.289 403.622 119.156C407.161 123.715 410.144 127.326 410.335 127.14C410.43 127.046 410.259 125.159 409.808 122.986C409.178 119.869 405.827 115.311 395.936 104.281C381.756 88.3073 381.941 88.6861 374.725 64.0096C372.9 57.581 370.583 53.3163 366.297 47.9959C358.842 38.6855 363.065 40.7054 373.993 51.6513C383.707 61.3601 390.406 70.8519 396.879 84.3015C399.841 90.1751 402.341 95.0073 402.53 95.009C402.718 95.0108 403.249 88.6987 403.794 80.8782C404.86 67.8769 414.527 12.6228 415.754 12.5401C416.792 12.4556 421.563 56.3432 421.824 68.6028C422.185 80.3918 419.115 95.9199 413.894 109.636C411.092 116.87 410.434 126.669 412.581 128.858C413.142 129.429 414.109 126.798 414.806 122.939C417.281 110.422 421.818 99.2454 429.478 86.8721C437.232 74.4053 449.941 56.5169 453.272 53.2483C455.554 51.1956 437.114 96.9384 430.485 109.981C427.988 114.861 423.576 122.739 420.42 127.518L414.868 136.328L418.259 146.637C420.185 152.407 421.934 156.855 422.22 156.575C422.505 156.294 425.809 145.954 429.509 133.543C433.209 121.133 437.961 107.129 440.079 102.435C444.121 93.7988 474.967 42.2332 476.192 42.3391C476.758 42.3444 463.51 77.3877 451.151 108.197C448.447 114.96 441.513 130.357 435.552 142.558C424.973 164.52 423.898 168.565 427.723 172.843C428.377 173.51 431.743 166.47 435.318 157.358C444.688 133.592 447.947 127.966 463.414 107.558C478.69 87.3366 484.353 76.7359 494.61 48.9243C497.804 40.1859 500.701 32.859 500.987 32.5789C501.272 32.2987 500.661 37.1958 499.659 43.4092C497.164 57.9998 492.119 73.0378 484.239 88.8033C480.874 95.6543 475.952 107.771 473.332 115.572C466.731 135.686 453.215 159.224 437.669 178.029L432.136 184.765L434.714 191.389C436.187 195.175 437.762 198.112 438.232 198.211C438.705 198.121 445.612 185.552 453.395 170.069C469.534 138.353 477.763 125.608 494.731 105.968C501.213 98.4863 512.274 85.3908 519.331 76.9718C533.442 60.3222 534.11 59.48 534.099 60.6113C534.096 60.9884 527.099 73.0851 518.478 87.3351C509.858 101.585 499.513 118.836 495.487 125.775C483.989 145.278 469.258 167.578 454.837 187.148C447.577 197.074 441.647 206.069 441.729 207.296C441.706 209.747 450.649 231.234 451.592 231.243C451.969 231.246 457.759 217.158 464.522 199.874C471.19 182.682 479.77 162.681 483.516 155.456C489.374 144.103 540.353 67.3646 541.954 67.474C542.897 67.4829 509.904 136.66 493.09 169.972C484.73 186.582 472.638 209.096 466.124 219.971C455.489 237.88 454.43 240.227 455.816 243.163C456.648 244.962 458.954 250.358 461.077 255.186L464.955 263.897L467.951 256.1C469.501 251.777 474.632 237.589 479.091 224.62C493.046 184.586 496.987 176.609 520.808 140.157C530.088 126.007 541.378 108.577 546.066 101.361C550.659 94.2388 554.675 88.2425 555.053 88.2461C555.43 88.2496 553.207 93.98 550.029 101.021C546.946 107.969 538.465 127.501 531.33 144.216C510.891 191.92 502.234 210.13 484.862 242.494L468.737 272.701L474.093 284.632C477.143 291.166 479.92 296.661 480.392 296.571C480.862 296.67 489.726 276.577 500.046 252.066C518.271 209.149 519.327 207.179 530.316 191.726C542.448 174.964 546.389 166.987 562.908 124.997C573.63 97.85 574.982 94.4684 575.356 94.8491C575.543 95.0394 574.363 100.12 572.704 106.044C571.234 111.97 568.784 121.847 567.596 127.87C564.531 142.832 559.769 157.967 553.104 174.781C549.919 182.577 547.104 191.13 546.7 193.955C545.189 204.218 540.61 219.92 535.687 232.037C529.609 246.593 521.276 260.375 501.881 287.44C494.14 298.398 487.448 308.141 487.061 309.268C486.768 310.303 488.509 315.693 491.001 321.28C495.621 331.318 495.621 331.318 497.061 328.597C497.923 327.191 507.929 305.977 519.473 281.572C540.638 236.892 543.324 232.014 565.007 202.331C569.115 196.618 579.822 181.068 588.717 167.669C597.705 154.365 605.257 143.405 605.728 143.504C606.105 143.508 604.952 145.76 603.227 148.76C597.481 158.135 579.614 193.04 573.93 205.904C570.848 212.852 566.672 225.729 564.702 234.573C557.702 267.036 549.547 281.95 505.506 342.914C503.213 346.098 503.393 347.042 507.739 356.041C510.329 361.345 512.644 365.798 512.928 365.707C513.305 365.71 516.276 360.553 519.731 354.174C529.714 335.411 542.839 313.378 550.006 303.168C553.732 298.018 566.791 282.961 579.079 269.783C597.46 250.251 602.419 244.264 606.161 237.416C612.686 225.409 619.28 206.049 622.742 188.827C624.329 180.545 626.09 173.773 626.561 173.872C629.578 173.9 625.652 210.257 620.878 226.524C616.106 242.601 610.741 251.602 595.58 269.656C578.511 289.955 572.669 299.611 568.279 315.127C565.254 325.941 558.665 334.836 537.717 356.512L518.102 376.881L525.227 391.185C529.207 399.049 532.916 405.684 533.573 405.973C534.512 406.359 538.742 397.724 566.837 338.024C582.326 305.265 590.927 293.089 628.763 250.169C644.678 232.311 657.922 217.634 658.206 217.542C659.055 217.456 658.958 217.738 645.939 238.546C632.537 259.916 621.303 281.402 607.053 312.758C586.348 358.668 583.762 362.887 555.43 397.788C546.655 408.453 539.59 417.815 539.585 418.381C539.757 420.08 549.953 438.656 550.801 438.758C551.178 438.762 561.855 416.328 574.558 389.105C600.258 333.437 600.161 333.719 619.175 307.027C626.724 296.444 641.637 274.711 652.064 258.875C662.586 242.946 671.671 229.36 672.147 228.893C672.811 228.428 669.353 235.184 664.651 243.908C642.68 284.149 630.828 311.097 626.879 329.917C619.175 366.992 611.293 382.946 575.456 433.805L559.497 456.377L565.519 467.654C568.854 473.908 571.732 478.744 571.922 478.557C572.112 478.37 575.493 469.822 579.644 459.584C590.754 431.309 595.075 422.959 609.513 401.692C634.184 365.154 635.518 363.658 677.493 321.72C701.861 297.248 715.181 284.551 713.648 287.176C712.307 289.426 706.489 296.443 700.774 302.612C681.911 323.176 669.836 343.805 655.639 379.594C643.757 409.747 628.26 433.361 588.475 482.862C579.029 494.747 579.031 494.558 585.074 503.572L587.677 507.557L594.372 497.437C597.913 491.908 606.72 477.848 613.9 466.319C633.336 434.917 638.682 427.99 664.49 400.797C677.346 387.247 694.119 368.36 701.658 358.72C715.112 341.781 738.221 310.885 741.956 304.792C743.008 303.199 743.959 302.265 743.954 302.831C743.938 304.528 720.532 346.924 715.368 354.606C709.154 363.693 698.415 382.637 689.765 400.093C669.776 440.07 657.074 457.204 615.465 500.277C604.324 511.957 595.18 521.676 595.177 522.053C595.078 522.524 606.571 543.564 607.225 544.23C607.318 544.325 609.243 540.195 611.46 535.03C613.584 529.77 618.198 520.385 621.559 513.911L627.703 502.278L655.111 475.382C684.042 446.993 702.483 431.138 739.426 402.919C770.101 379.543 771.897 379.088 751.339 399.448C735.064 415.606 728.961 422.903 710.24 448.372C702.598 458.859 649.92 515.97 629.364 536.142C611.758 553.418 611.853 553.325 616.675 561.856C619.829 567.354 620.948 568.685 621.9 567.751C622.566 567.097 628.403 558.007 634.82 547.413C646.406 528.571 646.789 528.009 660.771 515.035C677.036 500.009 680.543 498.062 701.52 493.169C713.805 490.268 747.417 485.305 758.926 484.659L764.302 484.427L759.104 485.793C756.268 486.52 743.415 489.793 730.656 492.972C698.808 500.875 695.209 502.538 682.837 514.678C675.224 522.149 671.407 527.016 666.614 535.268C660.962 544.737 658.387 547.824 643.351 562.579L626.411 579.202L629.195 583.943C630.679 586.597 633.093 590.579 634.296 592.948C635.594 595.223 636.988 597.405 637.268 597.69C637.548 597.976 640.599 594.422 643.942 589.833C653.59 576.63 672.998 558.145 684.949 550.715C698.037 542.541 701.44 541.631 714.441 542.696C728.667 543.868 731.966 543.993 737.913 543.201L742.916 542.588L736.958 544.512C719.743 550.383 704.952 559.107 693.342 570.5C688.393 575.356 677.662 583.457 664.473 592.29C652.803 600.005 643.403 606.988 643.396 607.742C704.848 665 730.656 681.666 775.348 701L775.348 717C734.348 714.5 634.711 618.099 623.724 594.168C622.984 592.653 620.131 595.266 604.991 611.057C591.659 625.074 583.858 632.354 574.266 639.712C548.339 659.55 546.728 660.384 509.464 672.666C490.643 678.806 474.947 683.56 474.574 683.18C474.294 682.894 475.055 682.147 476.285 681.687C487.551 676.796 536.07 650.855 541.577 646.758C545.47 643.872 556.693 633.606 566.685 623.801C582.959 607.832 586.379 605.036 601.367 595.371C610.475 589.423 618.063 584.592 618.159 584.498C618.539 584.125 611.68 571.615 610.373 570.282C609.719 569.616 590.15 575.183 566.885 582.694C543.715 590.113 519.227 597.33 512.615 598.588C505.719 599.937 485.246 601.347 465.066 601.722C445.546 602.009 417.159 602.778 401.972 603.483C360.281 605.353 359.058 605.058 390.014 601.768C409.74 599.597 428.552 594.4 458.928 582.713C485.046 572.588 499.78 569.898 566.596 563.363L605.288 559.58L600.563 550.767C597.969 545.84 595.004 540.343 594.081 538.26C593.063 536.27 592.136 534.565 591.949 534.374C591.669 534.089 550.946 543.227 529.211 548.491C496.796 556.387 471.218 559.257 453.7 557.206C437.125 555.164 376.687 545.354 375.847 544.497C375.473 544.116 393.955 543.914 416.958 544.131L458.819 544.338L490.41 533.699C526.353 521.592 536.74 519.993 566.52 521.406C576.322 521.875 584.525 521.859 584.53 521.293C584.544 519.785 570.927 494.105 569.247 492.203C567.66 490.585 546.568 497.646 514.958 510.171C498.68 516.617 477.119 523.39 466.446 525.458C462.1 526.36 445.493 527.712 429.455 528.692C413.324 529.577 387.473 531.407 371.997 532.769C333.497 536.177 329.442 536.233 351.255 532.762C372.028 529.564 391.132 523.333 419.913 510.782C447.464 498.691 464.285 494.701 527.634 485.776C546.611 483.032 562.195 480.257 562.295 479.598C562.685 478.281 556.943 467.29 555.998 467.47C553.732 467.825 512.723 477.244 498.264 480.785C473.694 486.775 451.026 490.899 439.896 491.359C434.708 491.593 422.079 491.097 411.811 490.151C384.206 487.911 350.284 485.705 320.974 484.391C306.649 483.69 295.153 483.016 295.439 482.736C295.819 482.362 305.346 481.98 316.849 481.9C342.686 481.579 362.05 477.896 400.63 466.003C423.324 459.052 443.235 457.26 508.674 456.746L550.729 456.389L545.357 446.155C542.393 440.47 539.241 434.783 538.216 433.548C536.912 431.838 531.061 432.349 508.11 436.564C474.015 442.747 473.261 442.74 431.002 444.793C412.608 445.656 393.077 447.075 387.505 448.059C374.946 450.109 338.942 458.726 312.473 466.019C301.697 468.935 293.003 471.116 292.911 470.832C292.931 468.758 429.879 423.851 445.087 420.883C460.767 417.825 503.174 420.111 527.45 425.432C530.743 426.123 533.663 426.433 534.044 426.06C534.615 425.5 520.629 398.873 518.668 396.875C518.107 396.304 507.161 397.332 494.413 399.38C412.361 411.9 396.337 411.371 335.963 394.773C294.585 383.445 258.207 371.693 259.73 370.199C259.92 370.012 272.158 372.014 286.936 374.699C307.267 378.285 321.303 379.643 344.585 380.334C361.458 380.777 386.715 381.958 400.752 383.127C423.835 384.948 510.191 385.952 511.809 384.365C512.475 383.711 502.119 362.116 501.174 362.296C497.682 362.734 416.522 370.642 404.255 371.658C383.78 373.256 358.429 371.979 343.659 368.54C337.449 367.161 315.433 362.239 294.638 357.8C273.938 353.268 254.179 348.933 250.792 348.146L244.678 346.674L248.829 346.336C251 346.074 267.124 345.943 284.568 345.825C301.917 345.8 335.862 345.555 359.907 345.311C405.357 344.797 425.902 345.745 469.324 350.398C483.358 351.945 495.416 353.001 496.079 352.725C496.646 352.542 494.714 347.526 491.845 341.748L486.57 331.232L444.275 327.156C369.293 319.848 364.024 318.667 321.002 301.667C306.066 295.774 283.991 287.174 271.966 282.535C237.865 269.296 237.957 269.58 266.38 274.94C276.922 276.925 306.665 282.297 332.456 286.878C387.144 296.54 408.408 301.266 446.114 312.088C461.253 316.473 475.641 320.475 477.898 321.062L482.224 322.234L475.02 306.326L467.909 290.513L427.885 285.516C369.686 278.178 370.157 278.277 311.551 254.152C290.606 245.563 272.855 238.324 272.102 238.128C271.443 238.028 271.07 237.647 271.355 237.367C272.116 236.62 384.096 259.928 401.026 264.237C409.303 266.389 426.699 271.362 439.672 275.444C452.645 279.527 463.274 282.173 463.283 281.23C463.299 279.533 455.001 259.655 453.787 258.418C453.32 257.942 433.279 253.51 409.19 248.379C385.1 243.438 362.804 238.23 359.422 236.878C356.041 235.526 344.686 229.856 334.083 224.382C323.48 218.908 303.868 209.011 290.353 202.472C276.931 196.028 265.576 190.358 265.109 189.883C264.736 189.502 272.066 192.023 281.555 195.601C306.452 204.981 325.823 210.444 356.969 217.055C387.269 223.376 407.199 229.598 431.236 240.196C439.969 243.956 447.576 247.139 448.33 247.146C449.46 247.345 441.375 224.829 439.694 223.116C439.321 222.735 423.342 217.493 403.976 211.465C374.177 202.038 366.943 199.235 355.222 192.43C347.72 188.022 330.184 177.957 316.399 170.001C302.519 162.139 291.27 155.244 291.274 154.867C291.277 154.49 294.846 156.032 299.258 158.054C315.401 165.937 333.344 172.801 366.615 184.052C398.007 194.531 404.205 197.23 434.98 213.172C436.574 214.035 431.73 197.867 429.675 195.773C429.302 195.393 411.159 189.658 389.441 183.136C363.773 175.446 348.455 170.115 345.46 167.824C342.931 166.009 328.398 157.48 313.108 149.133C297.913 140.693 286.003 133.886 286.758 133.893C291.186 134.218 364.18 162.344 390.753 174.003C407.841 181.519 423.334 188.359 425.212 189.131C428.5 190.388 428.502 190.199 425.573 180.932L422.55 171.569L391.172 159.581C369.281 151.36 356.793 145.868 350.046 141.468C344.705 137.929 332.05 130.172 322.113 124.044C312.082 118.009 303.927 112.935 303.835 112.652C303.941 111.427 374.161 143.769 394.802 154.524C407.75 161.246 419.107 166.728 419.859 166.924C420.613 166.931 420.171 163.815 418.887 160.032L416.407 153.125L399.591 146.65C370.752 135.346 361.559 130.356 348.002 118.254C341.363 112.44 329.012 102.329 320.586 96.0269C312.067 89.6294 305.048 84.0003 305.147 83.5298C305.151 83.1527 317.44 89.7744 332.728 98.3101Z" fill="url(#paint0_linear_93_46)"/>
<path fill-rule="evenodd" clip-rule="evenodd" d="M459.118 624.343C458.215 612.072 458.513 611.787 463.146 613.345C479.859 614.466 495.459 630.945 528.642 673.97L537.975 687.59C550.551 706.384 565.018 732.219 579.254 761.987C588.046 780.408 591.766 790.552 592.998 801.08C595.858 824.04 599.361 827.89 624.835 843.752C672.76 869.106 693.375 872.15 729.847 877.051L736.562 919.57C697.911 912.895 673.79 906.123 607.059 864.783L553.431 830.128C529.091 815.748 524.327 813.458 513.118 812.487C505.841 811.747 499.271 812.043 498.229 813.042C491.974 819.033 470.763 821.931 438.697 820.949C365.818 818.797 316.217 805.77 285.403 780.458C276.801 773.564 276.949 773.421 281.082 771.177C283.588 769.918 291.523 767.171 298.863 764.996C332.048 754.625 377.346 757.496 436.364 773.497C447.964 776.664 455.656 778.434 453.491 777.366C395.203 747.817 348.074 721.57 305.766 694.99C288.498 684.117 274.101 675.348 273.81 675.341C273.375 675.332 271.305 675.936 268.515 676.751L268.503 676.754C267.555 677.031 266.524 677.332 265.446 677.641C248.267 682.959 232.623 677.955 197.497 656.489L195.365 655.176C179.367 645.325 173.135 641.488 166.361 639.49C162.038 638.215 157.493 637.69 150.049 636.828C149.449 636.759 148.829 636.687 148.19 636.613L131.459 634.648L143.587 633.597C150.455 633.015 156.305 632.266 156.603 631.981C157.05 631.553 154.327 629.306 150.587 626.892C139.366 619.65 137.984 616.12 148.224 621.445C153.708 624.188 161.945 627.72 166.871 629.285C177.006 632.711 221.902 633.969 216.139 630.637C214.123 629.426 199.529 616.277 183.652 601.788C155.339 575.509 135.815 554.232 114.686 526.211C104.05 512.126 103.622 511.68 90.1743 506.285C81.4963 502.89 75.1068 501.586 72.3087 502.838C60.3653 508.853 40.4668 498.215 11.3104 470.459C-6.97978 452.855 -8.56144 451.8 -22.6115 447.268C-30.5763 444.617 -37.0833 441.997 -37.0707 441.414C-37.0582 440.831 -32.4056 441.515 -26.742 442.658L-16.4321 444.776L-22.8199 436.616C-27.0742 430.982 -28.0539 429.065 -25.4548 430.288C-23.2838 431.064 -19.8414 433.763 -17.8444 435.848C-10.5694 443.443 -0.74393 447.738 21.4575 453.029C56.4252 461.512 71.4047 470.294 80.3521 488.28C83.4339 494.181 85.5799 496.123 90.2073 497.973C95.7032 500.133 95.5669 499.692 86.4015 485.056C66.5142 453.561 23.575 368.189 26.2556 365.622C26.7024 365.194 31.7498 374.637 37.4665 386.866C43.0406 398.945 47.9329 408.823 48.516 408.835C49.0991 408.848 50.2608 402.309 51.0196 394.158L52.4997 379.605L52.2533 397.831C51.8471 409.928 53.123 418.415 55.6467 423.136C69.5428 448.376 97.5358 489.525 116.451 511.956C121.157 517.511 126.741 524.293 130.882 529.321C132.498 531.284 133.895 532.98 134.933 534.231C140.75 541.795 141.184 541.95 140.844 537.421C140.466 534.642 137.515 529.474 134.091 525.9C122.251 513.539 120.593 495.71 127.613 454.147C130.639 435.543 130.616 429.854 127.076 418.11C122.868 403.58 123.346 401.694 128.498 413.036C130.172 416.572 132.008 419.383 132.591 419.396C133.317 419.557 134.72 415.358 135.844 410.569C138.763 396.922 139.457 398.541 138.621 417.046C138.153 432.059 139.212 437.04 147.086 457.483C152.058 470.425 156.694 485.402 157.45 490.96C159.364 503.691 156.531 520.111 151.269 527.436C147.961 532.032 147.904 534.656 151.326 545.085L155.436 557.425L181.324 581.173C211.07 608.65 246.064 636.24 258.47 642.632C263.234 644.923 269.411 649.285 272.407 652.413C281.679 662.092 288.024 665.438 299.668 666.563C306.07 667.285 310.71 668.551 310.251 669.562C306.291 677.353 308.871 679.45 345.486 699.491L361.632 708.298L333.283 676.913C291.122 629.917 273.851 605.625 245.824 552.516C206.015 477.566 172.847 365.13 158.835 257.19C154.952 227.499 156.706 234.1 164.376 277.583C175.948 343.027 196.984 422.823 214.386 468.12C218.8 479.883 235.758 518.753 236.756 519.795C237.041 520.093 237.465 513.977 237.628 506.396C237.94 498.672 241.368 481.682 245.292 468.785C252.687 443.712 252.706 442.837 249.862 425.857C247.644 413.704 248.091 413.276 252.233 424.158C256.244 434.308 256.244 434.308 258.777 425.028C262.558 411.983 263.941 415.513 261.133 430.767C259.158 441.226 259.584 448.528 263.216 462.754C272.494 499.27 271.931 518.656 260.965 533.443C253.754 543.206 256.394 556.098 269.814 576.368C286.477 601.813 292.697 610.99 293.98 612.33C296.976 615.457 297.688 595.929 294.866 591.492C286.823 578.922 291.127 561.95 309.403 532.735C321.94 512.732 323.33 509.115 324.73 491.497L325.707 479.996L326.771 491.541L327.842 502.795L333.687 495.482L339.241 488.163L334.021 500.303C329.875 509.985 328.824 518.13 328.658 539.421C328.544 571.798 325.862 581.22 312.608 593.916C303.673 602.475 303.214 603.486 303.124 614.423L303.028 625.651L337.66 663.297C357.333 684.431 380.311 707.825 390.62 716.798C407.372 731.306 411.404 733.726 436.253 744.762C485.231 766.381 557.079 802.932 575.482 815.288C578.496 817.54 582.113 818.931 583.285 818.664C586.213 818.144 584.638 816.797 573.833 810.585C565.471 806.03 561.905 802.307 541.024 776.333C487.323 709.836 461.658 662.173 459.118 624.343ZM249.19 538.44C249.108 542.231 246.813 540.431 244.315 534.543C242.932 531.013 243.081 530.87 246.096 533.123C247.82 534.327 249.227 536.691 249.19 538.44Z" fill="url(#paint1_linear_93_46)"/>
</g>
<defs>
<linearGradient id="paint0_linear_93_46" x1="464.976" y1="700.497" x2="818.681" y2="447.296" gradientUnits="userSpaceOnUse">
<stop stop-color="#4F772D"/>
<stop offset="1" stop-color="#90A955"/>
</linearGradient>
<linearGradient id="paint1_linear_93_46" x1="261.553" y1="349.573" x2="64.4562" y2="509.77" gradientUnits="userSpaceOnUse">
<stop stop-color="#4F772D"/>
<stop offset="1" stop-color="#90A955"/>
</linearGradient>
<clipPath id="clip0_93_46">
<rect width="720" height="973" fill="white"/>
</clipPath>
</defs>
</svg>
