<svg width="720" height="1152" viewBox="0 0 720 1152" fill="none" xmlns="http://www.w3.org/2000/svg">
<g clip-path="url(#clip0_101_23)">
<path d="M-16 915.607C-14.691 915.174 -13.3836 914.742 -12.0804 914.312C47.596 894.592 64.0504 888.646 82.3164 880.33C90.2178 876.769 99.0759 873.225 102.008 872.407C107.118 871.043 108.582 870.189 109.282 868.048C109.655 866.911 107.136 866.012 104.936 866.626C104.845 866.649 104.73 866.679 104.592 866.715L104.107 866.841L104.104 866.842L104.101 866.843L104.086 866.847C102.688 867.212 100.145 867.875 97.6709 868.469C94.6047 869.243 83.0329 872.936 72.018 876.737C45.4252 885.802 13.8733 894.95 -16 902.447L-16 915.607Z" fill="black" fill-opacity="0.1"/>
<path d="M202.391 793.203C196.266 792.012 189.866 793.473 181.08 797.929C176.908 800.045 172.23 803.031 170.614 804.576C168.998 806.121 164.913 811.82 161.494 817.293C157.92 823.012 154.078 828.42 152.352 830.077C150.448 831.824 144.149 835.465 135.295 839.9C119.807 847.644 115.439 850.361 110.504 855.264C106.432 859.338 106.257 859.873 109.233 858.922C110.544 858.536 113.602 856.204 116.103 853.764C121.437 848.547 125.097 846.635 133.785 844.516C145.184 841.804 153.594 837.595 163.386 829.838C167.064 826.968 173.052 823.373 180.729 819.591C190.959 814.57 193.49 813.621 199.226 812.832C205.673 811.906 206.408 811.924 214.762 813.993C226.459 816.933 234.509 816.31 232.043 812.762C230.339 810.278 222.823 802.929 219.607 800.543C215.541 797.582 207.603 794.242 202.391 793.203Z" fill="black" fill-opacity="0.1"/>
<path d="M288.554 816.745C277.844 815.09 264.699 815.897 246.918 819.335L244.793 819.751C238.577 820.968 229.477 822.75 223.292 823.896C187.976 830.703 163.117 837.675 139.297 847.58C130.75 851.078 116.947 857.744 117.172 858.188C117.555 859.054 124.309 857.191 130.768 854.417C137.983 851.372 154.935 847.07 169.828 844.539C185.033 841.962 204.938 840.627 231.257 840.28C249.544 840.045 278.509 839.529 289.343 839.224C298.019 838.953 298.575 839.061 306.354 841.534C310.767 842.978 318.904 845.938 324.478 848.134L334.511 852.085L334.027 849.038C332.83 841.609 325.551 832.634 315.953 826.899C310.752 823.789 294.255 817.648 288.554 816.745Z" fill="black" fill-opacity="0.1"/>
<path d="M357.251 856.567C365.213 855.988 373.912 855.873 377.362 856.188C384.286 856.973 393.4 859.661 398.421 862.416C410.092 868.829 427.017 892.443 424.806 899.2C424.412 900.405 421.33 898.285 413.909 891.781C405.794 884.68 401.909 882.075 396.426 880.28C389.004 877.85 372.668 876.872 367.181 878.483C364.649 879.21 362.156 879.135 355.342 878.015C350.555 877.262 343.297 876.367 339.112 876.034C326.692 875.079 325.177 874.732 307.507 869.687L307.434 869.667C288.476 864.272 288.228 864.201 250.231 860.121C206.264 855.356 205.018 855.318 163.836 859.687C141.978 862.012 128.968 863.086 127.898 862.736C126.628 862.32 128.265 860.486 131.393 858.843C135.253 856.774 148.519 853.784 167.703 850.584C194.867 846.07 201.629 845.765 244.089 847.444C258.331 848.033 273.507 848.483 277.801 848.481C288.392 848.467 293.467 849.018 303.158 851.302C303.94 851.481 304.806 851.679 305.726 851.89L305.782 851.903C310.202 852.914 315.858 854.209 319.531 855.106C332.474 858.084 335.323 858.202 357.251 856.567Z" fill="black" fill-opacity="0.1"/>
<path d="M476.921 913.003C465.315 910.462 458.701 909.186 447.99 907.531C432.047 905.126 426.032 903.824 409.901 899.506C402.615 897.565 393.348 895.346 389.294 894.611C373.438 891.716 363.235 889.413 347.637 885.047C323.082 878.194 308.451 875.626 268.913 871.126C257.336 869.854 240.728 867.898 232.045 866.833C223.341 865.835 212.766 864.67 208.426 864.36C199.277 863.587 168.171 863.181 161.054 863.665C155.294 864.076 147.827 865.631 147.542 866.501C147.17 867.638 157.303 869.474 163.622 869.394C169.495 869.317 176.664 870.257 176.401 871.06C176.358 871.194 175.626 871.621 174.849 871.959C173.516 872.412 175.099 873.004 186.487 876.436C199.078 880.261 203.554 881.06 207.911 880.19C208.866 879.985 209.469 880.404 210.009 881.47C210.998 883.423 214.496 884.272 228.5 886.042C234.912 886.808 244.311 888.626 253.222 890.802C261.153 892.806 270.108 894.849 273.16 895.478C291.446 899.094 310.338 903.798 323.131 907.912C336.905 912.421 337.307 912.552 344.831 917.386C354.052 923.367 356.146 923.979 378.569 927.394C408.875 932.057 443.807 940.456 465.364 948.328C486.943 956.133 494.105 959.811 526.628 979.643C553.37 995.879 558.301 998.456 576.001 1004.99C595.018 1012.03 595.955 1012.56 621.053 1029.3C629.494 1034.95 642.08 1041.96 642.967 1041.51C643.5 1041.24 637.462 1035.48 629.907 1029.16C613.056 1015.05 587.781 998.627 558.192 982.496C548.196 977.075 544.779 974.845 539.884 970.576C527.076 959.495 514.691 952.774 495.234 946.404C483.666 942.617 480.703 941.943 469.125 940.226C452.892 937.801 437.764 933.811 406.471 923.566C372.592 912.401 317.861 895.965 303.848 892.636C288.878 889.069 279.636 887.45 246.927 882.89C218.694 878.906 199.921 875.649 189.181 872.725L182.029 870.828L187.482 871.132C190.464 871.294 199.524 872.111 207.605 872.979C229.754 875.194 233.872 875.505 242.193 875.414C254.873 875.121 257.323 875.553 289.111 882.923C330.123 892.424 349.086 897.817 414.118 918.293C446.478 928.442 451.024 929.708 469.735 933.834C495.285 939.458 510.462 944.204 518.364 949.013C521.266 950.778 527.031 955.332 531.19 959.138C540.222 967.28 542.255 968.76 547.206 971.048L550.998 972.808L551.567 971.068C552.355 968.659 551.182 965.683 547.845 961.628C546.3 959.789 543.23 955.598 541.01 952.427C534.866 943.602 533.703 942.406 526.157 937.639C522.295 935.19 517.135 931.501 514.654 929.355C512.151 927.277 508.488 924.67 506.525 923.657C502.665 921.653 481.487 913.979 476.921 913.003Z" fill="black" fill-opacity="0.1"/>
<path d="M319.102 915.703C365.878 929.758 380.204 933.485 409.558 939.021C420.916 941.184 424.459 942.121 439.082 947.205C462.642 955.288 478.232 962.17 519.011 982.335C537.371 991.382 545.114 995.546 562.768 1005.84C569.107 1009.55 572.986 1011.04 588.073 1015.61C601.4 1019.68 607.271 1023.23 625.396 1038.42L635.856 1047.18L632.514 1046.31C630.598 1045.83 623.26 1042.46 616.098 1038.78C604.341 1032.86 602 1031.87 593.198 1029.36C583.772 1026.72 576.022 1025.29 558.723 1023.19C552.044 1022.33 548.346 1021.42 536.021 1017.46C525.322 1013.95 520.688 1012.73 518.998 1012.92C516.241 1013.2 508.972 1010.31 496.724 1004.07C492.217 1001.78 482.651 997.763 475.584 995.153C463.1 990.547 462.587 990.305 458.072 986.457C454.316 983.228 452.062 981.971 445.93 979.445C441.827 977.732 435.648 974.672 432.233 972.665C426.965 969.533 424.557 968.522 416.245 966.097C399.309 961.071 382.077 954.912 361.006 946.458C343.927 939.607 335.233 936.539 307.775 927.698C240.11 905.99 204.27 894.034 195.996 890.363C180.607 883.547 162.089 874.078 162.374 873.208C162.68 872.271 168.584 873.685 174.203 875.969C196.479 885.04 206.083 887.814 246.134 896.629C278.166 903.709 285.674 905.648 319.102 915.703Z" fill="black" fill-opacity="0.1"/>
<path d="M146.223 869.402C145.891 869.738 146.05 870.382 146.653 870.802C147.256 871.222 150.362 873.72 153.58 876.329C169.558 889.263 184.623 897.972 206.475 906.978L209.687 908.337L209.698 908.342L209.861 908.411C215.696 910.88 224.241 914.496 230.849 917.328C241.353 921.878 251.831 925.826 268.169 931.323C288.029 938.047 291.574 939.43 296.484 942.297C299.587 944.127 308.131 948.332 315.58 951.585C339.799 962.181 357.407 972.167 371.417 983.198C375.126 986.115 383.778 993.837 390.599 1000.37C416.161 1024.73 419.556 1027.25 459.362 1052.43C473.538 1061.37 490.864 1072.67 497.787 1077.53C524.14 1095.86 536.597 1103.71 537.815 1102.71C539.454 1101.32 535.849 1096.95 527.918 1090.87C525.125 1088.77 518.998 1083.07 514.278 1078.26C505.732 1069.54 493.862 1059.21 449.475 1022.01C422.297 999.188 413.963 992.534 402.192 984.162C373.492 963.73 357.542 955.916 303.97 935.933C250.644 916.105 226.324 907.402 214.981 904.059C201.945 900.236 188.323 895.036 182.274 891.574C180.4 890.516 177.897 888.437 176.754 886.952C173.998 883.384 171.564 881.772 159.206 875.652C153.561 872.767 148.429 870.124 147.915 869.66C147.312 869.24 146.622 869.088 146.223 869.402Z" fill="black" fill-opacity="0.1"/>
<path d="M132.184 869.324C131.314 869.039 130.398 868.221 130.148 867.399C129.608 866.11 129.83 866.109 132.44 867.408C134.046 868.156 143.289 874.071 153.024 880.517C179.461 897.912 185.932 901.438 220.991 916.915C239.033 924.896 270.328 939.659 284.651 947.015C324.9 967.673 346.367 983.737 364.246 1006.7C378.069 1024.41 382.899 1032.95 395.129 1060.73C399.251 1070.08 404.65 1080.96 407.119 1084.95C414.233 1096.25 416.954 1101.73 418.68 1108.22C419.588 1111.55 420.159 1114.33 419.982 1114.42C419.449 1114.69 405.655 1098.25 391.722 1080.65C389.747 1078.18 387.629 1075.51 385.517 1072.86C380.108 1066.06 374.739 1059.3 371.92 1055.88C368.089 1051.07 360.177 1040.18 354.457 1031.64C342.346 1013.68 337.17 1006.87 329.967 999.7C310.126 980.02 272.503 955.185 220.826 927.601C182.805 907.377 171.354 900.517 155.65 888.783C150.825 885.204 143.897 879.454 140.274 876.046C136.651 872.638 132.986 869.587 132.184 869.324Z" fill="black" fill-opacity="0.1"/>
<path d="M114.061 867.02C113.929 867.422 114.65 869.065 115.593 870.707C116.537 872.349 120.671 879.85 124.738 887.33C128.872 894.831 134.017 903.996 136.284 907.701C141.178 915.822 146.465 926.589 153.132 941.734C155.857 947.885 161.195 959.854 164.978 968.203C173.106 986.123 174.91 990.565 179.181 1002.85C181.079 1008.14 187.631 1022.51 194.604 1036.71C203.782 1055.27 207.295 1063.09 208.68 1068.36C209.289 1070.72 210.038 1073.54 210.659 1075.87C211.035 1077.29 211.365 1078.53 211.588 1079.38C212.2 1081.58 214.569 1087.69 216.778 1092.93C223.966 1109.66 227.201 1119.68 230.379 1135.53C231.271 1140.05 233.095 1143.98 234.927 1145.39C235.441 1145.86 235.954 1146.1 235.998 1145.96C236.458 1144.56 235.652 1135.48 233.936 1122.62C232.567 1112.1 231.8 1102 231.75 1092.65C231.523 1075.24 230.96 1057.5 230.372 1051.61C230.091 1049.07 228.778 1044.94 227.338 1041.88C225.943 1038.9 224.18 1033.88 223.406 1030.59C221.63 1023.12 206.651 984.957 201.772 975.434C197.432 966.977 189.962 955.643 182.256 945.935C174.684 936.272 148.306 904.896 140.449 896.102C136.867 892.115 131.826 885.576 129.224 881.539C126.554 877.48 123.215 872.98 121.694 871.519C118.517 868.331 114.411 865.95 114.061 867.02Z" fill="black" fill-opacity="0.1"/>
<path d="M135.961 884.93C131.803 881.347 128.214 875.802 128.848 873.861C129.133 872.992 129.422 873.012 130.183 873.854C131.952 875.914 158.758 895.801 167.645 901.673C172.579 904.918 180.414 909.705 185.056 912.261C205.831 923.655 224.347 936.976 245.294 955.537C262.508 970.801 275.923 987.044 287.219 1006.37C293.327 1016.89 296.512 1021.63 303.368 1030.55C310.426 1039.74 313.414 1045.09 318.982 1058.62C321.236 1063.95 324.563 1070.3 327.21 1074.2C332.099 1081.43 352.246 1120.77 353.675 1125.9C354.197 1127.7 354.587 1129.9 354.592 1130.79C354.533 1132.33 354.289 1132.4 352.283 1131.74C349.608 1130.86 346.004 1126.72 343.798 1121.93C340.399 1114.66 324.69 1093.89 296.515 1059.41C277.59 1036.25 264.371 1019.19 250.517 999.762C223.257 961.803 208.284 945.346 182.925 925.563C167.576 913.65 160.691 907.766 149.623 897.476C144.367 892.497 138.219 886.854 135.961 884.93Z" fill="black" fill-opacity="0.1"/>
<path d="M338.929 8.6585C339.379 6.55858 339.771 5.79292 340.867 5.39331C343.224 4.37613 343.638 5.26443 342.639 8.85027C342.119 10.7776 341.29 15.15 340.819 18.6705C339.245 29.9521 338.445 32.5489 335.771 35.864C331.135 41.6477 328.943 48.596 325.643 67.5924C324.615 73.8114 322.465 83.5653 320.894 89.2002C319.384 94.8605 317.037 103.889 315.69 109.331C311.485 126.733 308.839 135.279 303.349 149.428C297.095 165.403 295.075 169.206 285.674 181.935C282.104 186.878 277.675 193.534 275.823 196.764C271.361 204.694 260.386 232.637 254.077 252.163C247.599 272.262 241.565 286.684 235.833 295.942C232.98 300.54 229.087 308.136 224.699 317.598C218.382 331.33 217.752 332.497 213.38 337.819C203.695 349.858 191.491 367.921 178.469 389.647C169.384 404.867 148.578 440.927 148.719 441.272C148.79 441.445 150.641 439.072 152.858 435.995C155.1 432.857 161.745 423.981 167.76 416.271C195.823 379.955 200.751 372.792 223.792 335.664C246.405 299.216 248.527 295.169 276.976 233.492C296.328 191.677 308.266 171.858 322.449 158.125C333.162 147.731 339.111 139.493 347.247 123.805C352.035 114.581 358.687 97.4858 361.227 87.8237C362.125 84.4813 363.027 81.6411 363.2 81.5703C363.855 81.2006 365.788 85.297 366.12 87.5804C366.296 88.8693 365.747 93.4297 364.883 97.7158C364.02 102.002 362.864 108.525 362.316 112.228C360.047 127.223 356.675 139.898 351.174 154.757C346.864 166.254 345.618 168.378 333.73 185.001C323.332 199.601 321.76 202.162 315.24 215.523C306.049 234.417 304.487 237.124 290.99 257.936C287.348 263.563 280.942 275.971 268.56 301.467C255.836 327.607 248.294 338.968 227.554 363.76C214.719 379.057 213.535 380.35 206.085 387.389C202.665 390.607 196.201 397.342 191.626 402.294C187.113 407.271 179.758 415.279 175.296 420.135C161.385 435.269 141.409 461.309 141.263 464.394C141.215 465.875 147.837 459.277 156.834 448.881C166.243 438.014 167.712 436.554 174.498 431.955C181.31 427.295 185.685 423.332 192.583 415.562C196.049 411.72 204.415 402.491 211.282 395.136C218.087 387.757 227.81 377.164 232.786 371.594C237.823 366.049 243.582 359.805 245.66 357.742C251.708 351.833 256.283 346.024 260.906 338.733C263.281 334.936 268.581 326.713 272.736 320.37C276.952 314.053 282.663 305.359 285.475 301.029C288.348 296.725 293.321 289.795 296.56 285.643C298.911 282.702 302.711 277.861 306.249 273.355C307.675 271.539 309.058 269.777 310.286 268.216C314.562 262.781 322.748 251.761 328.499 243.655C345.477 219.65 347.19 217.435 358.571 204.246L359.71 202.935C367.534 193.923 371.468 189.391 374.651 184.382C377.87 179.315 380.32 173.76 385.247 162.586C385.551 161.897 385.865 161.186 386.189 160.452C390.57 150.554 394.339 142.121 395.44 139.657L395.665 139.153C395.728 139.012 395.762 138.936 395.764 138.931C395.85 138.895 396.251 139.134 396.662 139.52C398.086 140.902 397.399 145.619 395.006 151.34C393.148 155.782 392.739 157.613 392.76 160.982C392.745 164.264 392.311 166.156 390.672 169.904C389.196 173.433 388.323 176.715 387.559 182.472C386.842 187.606 385.479 193.256 383.563 199.033C382.029 203.897 380.151 211.119 379.415 215.101C377.849 224.313 377.356 225.322 369.233 238.585C353.063 264.929 346.779 273.456 337.638 281.289C332.161 286.007 329.146 289.966 320.347 304.162C314.538 313.602 298.928 335.533 287.895 349.94C285.394 353.184 282.325 355.905 276.341 360.125C274.197 361.66 272.189 363.895 270.043 367.144C264.632 375.464 262.461 377.917 253.711 385.843C249.001 390.094 242.954 396.003 240.26 399.024C232.468 407.564 228.983 410.254 214.959 418.478C195.359 429.948 171.803 446.772 152.877 462.955C145.575 469.127 137.625 475.313 134.755 477.045C131.936 478.655 129.818 480.129 130.183 480.282C131.826 480.969 135.629 479.912 140.718 477.32C143.841 475.837 149.234 473.372 152.687 471.956C159.963 468.919 162.788 466.954 168.023 461.277C174.503 454.334 177.704 451.811 185.139 448.054C215.265 432.618 235.354 419.637 257.09 401.696C269.071 391.689 281.792 382.134 287.755 378.478C289.659 377.343 297.826 373.035 305.977 368.934C323.366 360.186 326.114 358.403 339.395 347.51C352.96 336.449 359.411 332.139 364.356 330.917C368.367 329.876 370.754 328.443 378.075 322.565C380.346 320.726 384.857 317.464 388.113 315.321C394.28 311.178 409.055 298.764 414.585 293.068C419.728 287.782 422.398 283.964 426.768 275.567C428.931 271.252 431.536 266.907 432.41 265.843C434.006 264.079 434.128 264.13 434.608 265.546C435.629 268.403 434.671 271.72 431.558 276.425C426.386 284.344 423.567 289.886 418.139 303.203L412.701 316.373L406.489 323.358C403.084 327.225 397.955 333.16 395.134 336.485C389.242 343.389 380.502 351.461 375.712 354.536C373.929 355.721 369.211 358.111 365.311 359.912C359.426 362.529 356.876 364.18 350.718 369.328C346.521 372.865 339.892 377.601 335.625 380.108C328.23 384.453 326.432 385.846 319.449 392.794C317.594 394.664 314.038 397.182 311.148 398.619C308.406 400.047 303.804 402.843 300.954 404.869C298.165 406.921 293.167 409.98 289.881 411.681C286.596 413.382 282.08 416.142 279.86 417.859C277.614 419.638 273.758 422.53 271.366 424.319C268.947 426.168 263.792 429.09 259.918 430.831C255.439 432.82 251.172 435.326 248.479 437.49C245.314 440.099 241.977 441.922 235.935 444.401C231.446 446.243 226.683 448.399 225.519 449.129C224.27 449.893 221.696 450.748 219.731 450.999C208.793 452.362 196.658 456.585 179.888 464.877C177.224 466.172 174.52 467.492 172.196 468.627L172.165 468.642C169.259 470.061 166.95 471.189 166.06 471.61C164.455 472.369 161.199 474.512 158.867 476.325C153.868 480.242 149.689 481.856 138.084 484.299C129.454 486.126 123.046 488.453 119.749 490.864C118.063 492.161 117.986 492.343 118.838 492.699C119.386 492.928 121.223 492.981 122.903 492.897C126.756 492.576 169.257 479.523 186.287 473.342C193.273 470.828 208.348 465.903 219.797 462.465C246.167 454.468 250.072 453.168 266.839 446.591C283.545 439.989 286.413 439.114 305.776 434.194C320.895 430.36 326.032 429.361 351.164 425.35C358.154 424.195 367.434 422.354 371.825 421.258C373.46 420.829 375.322 420.349 377.171 419.873L377.175 419.872C380.32 419.061 383.426 418.26 385.309 417.741C388.335 417.004 393.101 416.207 395.872 416.079C399.613 415.854 401.705 415.299 404.031 413.84C405.763 412.776 413.452 409.269 421.099 406.03C433.951 400.606 434.936 400.302 434.482 401.9C433.651 404.913 428.348 411.776 422.438 417.528C419.242 420.553 415.867 424.005 414.881 425.166C413.895 426.326 411.294 428.099 409.121 429.193C406.973 430.225 399.624 433.946 392.819 437.394C377.405 445.18 375.257 446.213 364.832 450.793C360.18 452.853 353.263 456.396 349.515 458.691C341.398 463.735 336.848 465.551 323.978 468.967C318.663 470.392 311.403 472.362 307.808 473.434C300.299 475.658 295.644 476.358 286.377 476.632C282.748 476.76 277.607 477.257 274.952 477.792C259.402 480.946 213.425 486.755 203.168 486.83C196.576 486.864 157.326 490.266 150.448 491.324C141.407 492.765 128.674 496.023 125.008 497.78C122.86 498.812 121.975 499.73 121.212 501.555C120.651 502.894 120.376 504.066 120.558 504.142C121.897 504.702 134.039 503.198 141.969 501.507C146.497 500.529 152.916 499.197 157.287 498.29C157.924 498.158 158.518 498.035 159.056 497.923C176.169 494.279 195.961 494.828 217.539 499.484C224.829 501.029 227.254 501.899 251.321 511.885C265.564 517.836 279.482 523.367 282.262 524.242C304.623 531.298 326.285 537.633 330.892 538.415C341.659 540.197 346.984 538.919 358.108 531.986C365.991 526.987 368.443 526.939 366.223 531.731C364.956 534.419 362.756 536.43 357.834 539.307C352.318 542.578 349.255 544.944 347.394 547.169C345.92 548.984 344.539 549.551 338.833 550.884C326.106 553.787 309.449 554.119 292.943 551.869C273.661 549.245 257.569 544.808 232.613 535.238C208.266 525.922 205.582 525.158 192.486 523.474C182.287 522.215 182.287 522.215 167.171 516.471C154.211 511.556 151.101 510.614 145.576 509.806C134.23 508.211 122.78 508.573 114.571 510.934C110.301 512.081 108.534 513.058 88.9943 524.554C72.3601 534.403 67.01 538.816 50.0753 556.905C34.9346 573.098 32.3835 575.607 26.6739 579.512C20.1718 583.944 16.3202 587.339 12.5837 591.998C7.53567 598.253 4.44674 600.68 -5.02023 605.875C-10.1527 608.697 -13.2943 610.702 -16 613L-16 597.819C-14.1393 596.86 -12.278 595.96 -10.192 594.991C0.79218 589.93 5.17598 586.972 11.8996 580.13C18.486 573.445 21.9357 570.669 25.8259 568.72C27.258 568.031 29.7681 565.792 31.5268 563.81C36.5183 558.032 50.5754 543.745 55.1839 539.737L59.3454 536.114L63.4409 524.957C69.9463 507.014 70.097 504.432 65.4753 492.063L62.9371 485.14L60.1926 484.35C58.4474 483.907 56.2972 482.723 54.4215 481.224C50.5129 478.089 47.079 476.726 37.3735 474.458C28.4494 472.373 22.9493 471.504 11.6081 470.411C0.744986 469.374 -8.84702 467.983 -16 466.421L-16 440.901C-13.9209 441.043 -11.3402 441.615 -7.95378 442.648C-2.09955 444.38 1.48274 444.876 10.7291 445.165C15.469 445.287 38.3003 453.612 48.1693 458.737C62.9474 466.485 68.974 472.077 73.8569 482.625C75.5521 486.265 77.4708 489.712 78.1248 490.199C79.154 490.987 79.3266 490.916 79.6997 488.999C81.1456 481.953 78.9275 471.018 73.2226 456.623C64.2402 433.996 57.8154 426.449 16.301 389.799C-0.63039 374.81 -9.91401 366.401 -16 360.271L-16 344.036C-10.9032 346.545 -3.87259 349.928 3.15086 353.205C23.1236 362.552 33.2714 367.865 39.7308 372.423C54.9059 382.982 75.6245 407.296 82.3133 422.245C85.4601 429.422 86.0442 432.812 86.3342 447.16C86.6221 459.291 86.8354 462.883 88.4668 476.076C88.9534 480.211 89.3016 485.361 89.2074 487.467C88.9946 490.881 89.0654 491.054 89.8391 489.375C90.9338 486.758 91.2961 481.619 91.3172 466.186C91.3293 464.013 91.3426 461.273 91.3573 458.248C91.3917 451.145 91.4338 442.469 91.4855 435.872C91.761 408.892 91.2146 403.874 86.1625 390.824C83.7604 384.602 82.0488 378.096 79.9624 367.358C75.7543 345.796 72.9571 338.979 57.7521 313.108C41.0533 284.826 36.6561 275.339 32.4918 258.8C30.9119 252.492 28.6626 245.904 26.9873 242.559C22.974 234.376 19.6612 226.057 19.3504 223.211L19.0341 220.719L21.2297 222.137C24.4444 224.195 27.2264 227.288 33.6345 235.9C39.5514 243.806 43.9401 248.356 46.9834 249.628C52.157 251.79 60.6346 261.266 70.1863 275.695C80.6599 291.51 85.3714 301.272 87.2099 311.406C87.7741 314.501 88.1712 317.312 88.0439 317.616C87.9421 317.86 90.672 321.932 94.1521 326.603C108.442 345.943 112.304 353.634 114.975 367.761C117.72 382.564 117.911 395.44 115.549 411.683C113.269 427.388 109.315 442.822 102.395 462.951L98.416 474.514L99.8124 477.671L101.234 480.768L103.06 477.599C104.093 475.814 106.435 470.216 108.366 465.088C112.614 453.566 113.957 447.622 117.637 424.638C118.605 418.393 120.38 408.34 121.54 402.319C125.599 380.994 126.071 373.542 124.275 358.35C120.551 327.768 120.343 319.889 122.34 288.624C123.133 276.301 123.577 267.55 124.024 252.294C124.282 245.182 125.018 238.125 126.055 232.911C126.959 228.356 127.698 222.659 127.651 220.209L127.65 219.525C127.646 216.394 127.643 214.105 127.795 211.826C128.21 205.624 129.777 199.5 135.607 176.711L135.806 175.931C137.02 171.149 138.654 163.824 139.355 159.756C141.12 149.555 142.181 149.069 145.851 156.537C147.05 158.968 148.29 161.131 148.595 161.258C149.203 161.512 151.324 173.194 153.34 186.833C160.143 233.643 160.367 270.198 154.268 309.901C153.07 317.55 152.116 325.302 152.149 327.103C152.186 333.338 151.548 343.581 150.365 354.954C147.707 379.938 145.13 390.371 132.655 428.053C124.068 453.705 121.626 461.765 122.403 461.446C122.835 461.269 124.446 459.297 126.038 457.031C128.418 453.736 130.179 450.039 135.454 437.087C150.597 400.377 158.863 371.731 173.855 304.788C176.306 293.802 179.358 281.208 180.592 276.719C182.979 268.279 183.599 263.891 183.946 251.097C184.475 232.229 190.185 205.589 199.75 176.915C204.209 163.693 214.507 140.615 224.323 121.768C236.926 97.7941 250.404 65.7497 252.443 55.2347C252.964 52.4499 253.964 59.8024 254.051 66.7735C254.046 70.2031 253.257 79.9534 252.179 88.5112C251.188 97.0335 250.352 107.408 250.336 111.548C250.379 117.428 249.907 120.948 248.309 127.502C245.783 137.813 238.888 162.671 235.059 175.583C231.918 185.996 230.383 191.717 223.889 215.956C217.416 240.489 216.054 245.282 209.814 265.838C203.146 287.931 199.331 301.493 196.58 312.854C191.266 335.299 186.896 346.77 175.239 368.994C168.293 382.178 159.41 402.558 158.021 408.269L157.302 411.186L160.307 407.079C165.605 399.714 171.766 388.919 179.42 373.529C189.277 353.556 192.406 347.786 194.912 345.044C200.808 338.642 209.929 315.644 215.893 292.328L216.093 291.534C217.927 284.26 220.494 274.072 221.965 268.413C226.404 250.965 232.634 234.194 244.204 208.931C250.46 195.174 256.282 183.308 260.037 176.727C267.978 162.53 271.421 153.959 278.079 131.72C290.147 91.0793 302.805 64.4118 321.978 38.7509C332.889 24.2934 337.351 16.3634 338.929 8.6585Z" fill="black" fill-opacity="0.1"/>
<path d="M418.756 245.31C391.277 260.749 382.183 266.209 351.91 285.447L335.884 295.686L337.42 288.6L339.049 281.419L349.172 275.101C357.327 270.027 361.537 266.499 369.376 257.939C374.882 251.947 386.834 239.577 395.892 230.346C405.044 221.02 412.422 213.502 412.045 213.505C411.856 213.507 404.078 218.577 394.614 224.795C375.593 237.326 358.668 252.289 347.862 266.156C344.322 270.715 341.339 274.326 341.149 274.14C341.054 274.046 341.225 272.159 341.676 269.986C342.306 266.869 345.657 262.311 355.547 251.281C369.728 235.307 369.543 235.686 376.759 211.01C378.584 204.581 380.9 200.316 385.187 194.996C392.642 185.686 388.418 187.705 377.49 198.651C367.776 208.36 361.078 217.852 354.605 231.301C351.643 237.175 349.143 242.007 348.954 242.009C348.766 242.011 348.235 235.699 347.689 227.878C346.624 214.877 336.957 159.623 335.73 159.54C334.692 159.456 329.921 203.343 329.659 215.603C329.299 227.392 332.369 242.92 337.59 256.636C340.392 263.87 341.05 273.669 338.902 275.858C338.342 276.429 337.374 273.798 336.678 269.939C334.203 257.422 329.666 246.245 322.006 233.872C314.251 221.405 301.543 203.517 298.212 200.248C295.93 198.196 314.37 243.938 320.999 256.981C323.496 261.861 327.908 269.739 331.064 274.518L336.616 283.328L333.225 293.637C331.299 299.407 329.55 303.855 329.264 303.575C328.979 303.294 325.675 292.954 321.975 280.543C318.275 268.133 313.523 254.129 311.405 249.435C307.363 240.799 276.516 189.233 275.292 189.339C274.726 189.344 287.974 224.388 300.333 255.197C303.037 261.96 309.971 277.357 315.932 289.558C326.511 311.52 327.586 315.565 323.761 319.843C323.107 320.51 319.74 313.47 316.166 304.358C306.796 280.592 303.537 274.966 288.07 254.558C272.794 234.337 267.131 223.736 256.874 195.924C253.68 187.186 250.782 179.859 250.497 179.579C250.211 179.299 250.823 184.196 251.825 190.409C254.32 205 259.365 220.038 267.245 235.803C270.609 242.654 275.532 254.771 278.152 262.572C284.753 282.686 298.269 306.224 313.815 325.029L319.347 331.765L316.77 338.389C315.297 342.175 313.722 345.112 313.252 345.211C312.779 345.121 305.872 332.552 298.089 317.069C281.95 285.353 273.721 272.608 256.753 252.968C250.271 245.486 239.21 232.391 232.153 223.972C218.042 207.322 217.374 206.48 217.385 207.611C217.388 207.988 224.385 220.085 233.005 234.335C241.626 248.585 251.971 265.836 255.997 272.775C267.495 292.278 282.225 314.578 296.647 334.148C303.907 344.074 309.837 353.069 309.755 354.296C309.778 356.747 300.835 378.234 299.892 378.243C299.515 378.246 293.725 364.158 286.962 346.874C280.294 329.682 271.714 309.681 267.968 302.456C262.11 291.103 211.131 214.365 209.529 214.474C208.587 214.483 241.58 283.66 258.394 316.972C266.754 333.582 278.846 356.096 285.36 366.971C295.995 384.88 297.054 387.227 295.667 390.163C294.836 391.962 292.53 397.358 290.407 402.186L286.529 410.897L283.533 403.1C281.983 398.777 276.852 384.589 272.393 371.62C258.438 331.586 254.497 323.609 230.676 287.157C221.396 273.007 210.106 255.577 205.418 248.361C200.825 241.239 196.808 235.243 196.431 235.246C196.054 235.25 198.277 240.98 201.455 248.021C204.538 254.969 213.019 274.501 220.154 291.216C240.593 338.92 249.25 357.13 266.621 389.494L282.746 419.701L277.391 431.632C274.341 438.166 271.564 443.661 271.092 443.571C270.621 443.67 261.757 423.577 251.438 399.066C233.213 356.149 232.157 354.179 221.168 338.726C209.036 321.964 205.095 313.987 188.576 271.997C177.854 244.85 176.502 241.468 176.128 241.849C175.941 242.039 177.121 247.12 178.78 253.044C180.25 258.97 182.7 268.847 183.888 274.87C186.952 289.832 191.715 304.967 198.38 321.781C201.565 329.577 204.38 338.13 204.784 340.955C206.295 351.218 210.874 366.92 215.797 379.037C221.875 393.593 230.208 407.375 249.603 434.44C257.344 445.398 264.036 455.141 264.423 456.268C264.716 457.303 262.975 462.693 260.482 468.28C255.863 478.318 255.863 478.318 254.423 475.597C253.561 474.191 243.555 452.977 232.011 428.572C210.846 383.892 208.16 379.014 186.477 349.331C182.369 343.618 171.662 328.068 162.767 314.669C153.779 301.365 146.227 290.405 145.756 290.504C145.379 290.508 146.532 292.76 148.257 295.76C154.003 305.135 171.869 340.04 177.554 352.904C180.636 359.852 184.812 372.729 186.782 381.573C193.782 414.036 201.937 428.95 245.978 489.914C248.271 493.098 248.091 494.042 243.745 503.041C241.155 508.345 238.84 512.798 238.556 512.707C238.179 512.71 235.207 507.553 231.753 501.174C221.77 482.411 208.645 460.378 201.477 450.168C197.752 445.018 184.693 429.961 172.405 416.783C154.024 397.251 149.065 391.264 145.323 384.416C138.798 372.409 132.204 353.049 128.741 335.827C127.155 327.545 125.394 320.773 124.923 320.872C121.906 320.9 125.832 357.257 130.606 373.524C135.378 389.601 140.742 398.602 155.904 416.656C172.973 436.955 178.815 446.611 183.205 462.127C186.23 472.941 192.819 481.836 213.767 503.512L233.382 523.881L226.257 538.185C222.277 546.049 218.568 552.684 217.911 552.973C216.971 553.359 212.741 544.724 184.647 485.024C169.157 452.265 160.557 440.089 122.72 397.169C106.806 379.311 93.562 364.634 93.2783 364.542C92.4289 364.456 92.5259 364.738 105.545 385.546C118.947 406.916 130.181 428.402 144.431 459.758C165.136 505.668 167.721 509.887 196.054 544.788C204.828 555.453 211.894 564.815 211.899 565.381C211.727 567.08 201.531 585.656 200.683 585.758C200.306 585.762 189.629 563.328 176.926 536.105C151.226 480.437 151.323 480.719 132.309 454.027C124.76 443.444 109.846 421.711 99.4199 405.875C88.8982 389.946 79.8129 376.36 79.337 375.893C78.6727 375.428 82.1307 382.184 86.833 390.908C108.804 431.149 120.656 458.097 124.605 476.917C132.309 513.992 140.191 529.946 176.028 580.805L191.987 603.377L185.965 614.654C182.629 620.908 179.752 625.744 179.562 625.557C179.372 625.37 175.991 616.822 171.84 606.584C160.73 578.309 156.409 569.959 141.971 548.692C117.3 512.154 115.966 510.658 73.9905 468.72C49.6225 444.248 36.3027 431.551 37.8361 434.176C39.1773 436.426 44.9949 443.443 50.7102 449.612C69.5728 470.176 81.6476 490.805 95.8454 526.594C107.727 556.747 123.224 580.361 163.008 629.862C172.455 641.747 172.453 641.558 166.41 650.572L163.807 654.557L157.112 644.437C153.571 638.908 144.764 624.848 137.584 613.319C118.148 581.917 112.802 574.99 86.9942 547.797C74.1378 534.247 57.3653 515.36 49.8257 505.72C36.3716 488.781 13.263 457.885 9.52834 451.792C8.47616 450.199 7.52449 449.265 7.52983 449.831C7.54585 451.528 30.9517 493.924 36.1156 501.606C42.3299 510.693 53.0687 529.637 61.7191 547.093C81.7078 587.07 94.4095 604.204 136.019 647.277C147.16 658.957 156.303 668.676 156.307 669.053C156.406 669.524 144.913 690.564 144.259 691.23C144.166 691.325 142.241 687.195 140.024 682.03C137.9 676.77 133.286 667.385 129.925 660.911L123.781 649.278L96.3726 622.382C67.4419 593.993 49.0009 578.138 12.0576 549.919C-18.6172 526.543 -20.4129 526.088 0.144915 546.448C16.4202 562.606 22.5233 569.903 41.2436 595.372C48.8854 605.859 101.564 662.97 122.12 683.142C139.726 700.418 139.631 700.325 134.809 708.856C131.655 714.354 130.536 715.685 129.584 714.751C128.918 714.097 123.081 705.007 116.664 694.413C105.077 675.571 104.695 675.009 90.7127 662.035C74.4481 647.009 70.9411 645.062 49.9636 640.169C37.6792 637.268 4.06682 632.305 -7.44206 631.659L-12.8185 631.427L-7.61992 632.793C-4.7845 633.52 8.06919 636.793 20.8277 639.972C52.6764 647.875 56.2749 649.538 68.6466 661.678C76.2599 669.149 80.0773 674.016 84.8694 682.268C90.5216 691.737 93.0965 694.824 108.133 709.579L125.072 726.202L122.289 730.943C120.805 733.597 118.391 737.579 117.188 739.948C115.89 742.223 114.496 744.405 114.216 744.69C113.936 744.976 110.885 741.422 107.542 736.833C97.8941 723.63 78.4854 705.145 66.5354 697.715C53.4469 689.541 50.044 688.631 37.0427 689.696C22.8167 690.868 19.5179 690.993 13.5705 690.201L8.56759 689.588L14.5257 691.512C31.741 697.383 46.5318 706.107 58.1422 717.5C63.0908 722.356 73.8215 730.457 87.0106 739.29C98.6805 747.005 108.081 753.988 108.088 754.742C46.636 812 20.8278 828.666 -23.8639 848L-23.864 864C17.136 861.5 116.772 765.099 127.759 741.168C128.499 739.653 131.353 742.266 146.493 758.057C159.825 772.074 167.625 779.354 177.218 786.712C203.145 806.55 204.755 807.384 242.02 819.666C260.84 825.806 276.537 830.56 276.91 830.18C277.19 829.894 276.429 829.147 275.199 828.687C263.933 823.796 215.414 797.855 209.907 793.758C206.014 790.872 194.791 780.606 184.799 770.801C168.525 754.832 165.105 752.036 150.116 742.371C141.009 736.423 133.42 731.592 133.325 731.498C132.945 731.125 139.804 718.615 141.111 717.282C141.765 716.616 161.334 722.183 184.599 729.694C207.769 737.113 232.257 744.33 238.869 745.588C245.765 746.937 266.238 748.347 286.418 748.722C305.938 749.009 334.325 749.778 349.512 750.483C391.203 752.353 392.426 752.058 361.47 748.768C341.743 746.597 322.932 741.4 292.556 729.713C266.438 719.588 251.704 716.898 184.888 710.363L146.196 706.58L150.921 697.767C153.514 692.84 156.48 687.343 157.403 685.26C158.421 683.27 159.348 681.565 159.535 681.374C159.815 681.089 200.538 690.227 222.273 695.491C254.688 703.387 280.266 706.257 297.784 704.206C314.358 702.164 374.797 692.354 375.637 691.497C376.011 691.116 357.529 690.914 334.526 691.131L292.665 691.338L261.073 680.699C225.131 668.592 214.744 666.993 184.964 668.406C175.162 668.875 166.959 668.859 166.954 668.293C166.94 666.785 180.557 641.105 182.236 639.203C183.824 637.585 204.916 644.646 236.526 657.171C252.804 663.617 274.364 670.39 285.038 672.458C289.384 673.36 305.991 674.712 322.029 675.692C338.16 676.577 364.011 678.407 379.487 679.769C417.987 683.177 422.042 683.233 400.229 679.762C379.456 676.564 360.352 670.333 331.571 657.782C304.02 645.691 287.199 641.701 223.85 632.776C204.873 630.032 189.289 627.257 189.189 626.598C188.799 625.281 194.541 614.29 195.486 614.47C197.752 614.825 238.76 624.244 253.22 627.785C277.79 633.775 300.458 637.899 311.588 638.359C316.775 638.593 329.405 638.097 339.673 637.151C367.277 634.911 401.199 632.705 430.51 631.391C444.834 630.69 456.331 630.016 456.045 629.736C455.665 629.362 446.138 628.98 434.635 628.9C408.798 628.579 389.434 624.896 350.854 613.003C328.16 606.052 308.249 604.26 242.81 603.746L200.755 603.389L206.127 593.155C209.091 587.47 212.243 581.783 213.268 580.548C214.572 578.838 220.423 579.349 243.374 583.564C277.469 589.747 278.223 589.74 320.482 591.793C338.876 592.656 358.406 594.075 363.979 595.059C376.538 597.109 412.542 605.726 439.01 613.019C449.786 615.935 458.481 618.116 458.573 617.832C458.553 615.758 321.605 570.851 306.397 567.883C290.716 564.825 248.31 567.111 224.034 572.432C220.741 573.123 217.821 573.433 217.44 573.06C216.869 572.5 230.855 545.873 232.816 543.875C233.376 543.304 244.323 544.332 257.071 546.38C339.123 558.9 355.147 558.371 415.521 541.773C456.899 530.445 493.277 518.693 491.754 517.199C491.564 517.012 479.326 519.014 464.548 521.699C444.216 525.285 430.181 526.643 406.899 527.334C390.026 527.777 364.769 528.958 350.731 530.127C327.649 531.948 241.293 532.952 239.675 531.365C239.009 530.711 249.365 509.116 250.31 509.296C253.802 509.734 334.962 517.642 347.229 518.658C367.704 520.256 393.054 518.979 407.825 515.54C414.034 514.161 436.051 509.239 456.846 504.8C477.546 500.268 497.305 495.933 500.692 495.146L506.806 493.674L502.654 493.336C500.483 493.074 484.359 492.943 466.916 492.825C449.567 492.8 415.622 492.555 391.577 492.311C346.127 491.797 325.582 492.745 282.16 497.398C268.126 498.945 256.067 500.001 255.405 499.725C254.837 499.542 256.77 494.526 259.638 488.748L264.913 478.232L307.209 474.156C382.191 466.848 387.46 465.667 430.482 448.667C445.418 442.774 467.493 434.174 479.518 429.535C513.619 416.296 513.527 416.58 485.103 421.94C474.562 423.925 444.819 429.297 419.028 433.878C364.34 443.54 343.076 448.266 305.37 459.088C290.231 463.473 275.843 467.475 273.586 468.062L269.26 469.234L276.464 453.326L283.575 437.513L323.599 432.516C381.798 425.178 381.327 425.277 439.933 401.152C460.878 392.563 478.629 385.324 479.382 385.128C480.041 385.028 480.414 384.647 480.129 384.367C479.367 383.62 367.388 406.928 350.458 411.237C342.181 413.389 324.785 418.362 311.812 422.444C298.839 426.527 288.21 429.173 288.201 428.23C288.185 426.533 296.483 406.655 297.697 405.418C298.164 404.942 318.205 400.51 342.294 395.379C366.384 390.438 388.68 385.23 392.062 383.878C395.443 382.526 406.798 376.856 417.401 371.382C428.003 365.908 447.616 356.011 461.131 349.472C474.553 343.028 485.908 337.358 486.375 336.883C486.748 336.502 479.418 339.023 469.929 342.601C445.032 351.981 425.661 357.444 394.515 364.055C364.215 370.376 344.285 376.598 320.248 387.196C311.515 390.956 303.908 394.139 303.154 394.146C302.024 394.345 310.109 371.829 311.79 370.116C312.163 369.735 328.142 364.493 347.508 358.465C377.307 349.038 384.541 346.235 396.262 339.43C403.763 335.022 421.3 324.957 435.084 317.001C448.964 309.139 460.214 302.244 460.21 301.867C460.206 301.49 456.638 303.032 452.226 305.054C436.083 312.937 418.14 319.801 384.869 331.052C353.477 341.531 347.279 344.23 316.504 360.172C314.91 361.035 319.754 344.867 321.809 342.773C322.182 342.393 340.325 336.658 362.043 330.136C387.71 322.446 403.029 317.115 406.024 314.824C408.553 313.009 423.086 304.48 438.376 296.133C453.571 287.693 465.481 280.886 464.726 280.893C460.298 281.218 387.304 309.344 360.731 321.003C343.642 328.519 328.15 335.359 326.272 336.131C322.983 337.388 322.982 337.199 325.911 327.932L328.934 318.569L360.312 306.581C382.203 298.36 394.691 292.868 401.438 288.468C406.779 284.929 419.434 277.172 429.371 271.044C439.402 265.009 447.557 259.935 447.649 259.652C447.543 258.427 377.323 290.769 356.682 301.524C343.734 308.246 332.377 313.728 331.625 313.924C330.87 313.931 331.312 310.815 332.597 307.032L335.077 300.125L351.893 293.65C380.732 282.346 389.925 277.356 403.482 265.254C410.121 259.44 422.471 249.329 430.898 243.027C439.417 236.629 446.435 231 446.337 230.53C446.333 230.153 434.044 236.774 418.756 245.31Z" fill="url(#paint0_linear_101_23)"/>
</g>
<defs>
<linearGradient id="paint0_linear_101_23" x1="286.508" y1="847.497" x2="-67.1974" y2="594.296" gradientUnits="userSpaceOnUse">
<stop stop-color="#4F772D"/>
<stop offset="1" stop-color="#90A955"/>
</linearGradient>
<clipPath id="clip0_101_23">
<rect width="720" height="1152" fill="white" transform="matrix(-1 0 0 1 720 0)"/>
</clipPath>
</defs>
</svg>
