<svg width="1109" height="2363" viewBox="0 0 1109 2363" fill="none" xmlns="http://www.w3.org/2000/svg">
<g clip-path="url(#clip0_94_57)">
<path d="M378.12 1225.67C369.713 1227.1 357.828 1230.5 349.011 1233.79C334.181 1239.44 309.981 1252.25 304.355 1257.29C296.316 1264.71 290.388 1276.42 287.246 1290.93C287.194 1291.19 287.143 1291.44 287.092 1291.7C285.447 1300.22 284.412 1313.86 284.501 1323.46C284.54 1327.63 284.79 1331.03 285.293 1332.92C286.078 1335.73 286.748 1335.2 291.854 1327.62C307.038 1305.17 325.372 1292.33 359.438 1279.84C380.01 1272.35 383.074 1272.9 363.434 1280.53C340.454 1289.48 330.157 1295.16 319.037 1305.37C301.354 1321.27 289.797 1338.55 289.744 1348.81C289.705 1356.15 291.302 1356.82 303.579 1354.75C324.264 1351.39 333.622 1346.64 361.2 1325.45C367.893 1320.42 377.259 1314.2 382.072 1311.7C391.029 1307.08 391.03 1307.08 408.095 1307.3C417.561 1307.48 428.892 1308.07 433.289 1308.63C440.084 1309.46 438.75 1309.59 424.483 1309.78C393.682 1309.89 385.264 1313.18 356.614 1335.56C347.107 1343.11 335.596 1351.72 331.18 1354.76C321.278 1361.38 304.304 1369.29 299.77 1369.27C297.904 1369.26 296.301 1369.78 296.298 1370.32C296.288 1372.18 306.698 1395.97 312.373 1407.07C316.466 1414.82 318.585 1417.63 321.115 1418.31C324.843 1419.26 337.918 1417.73 361.407 1413.46C374.886 1411.13 379.554 1410.88 400.083 1411.79C438.209 1413.46 445.001 1414.96 414.733 1415.07C400.467 1414.99 381.261 1415.96 372.056 1416.98C357.247 1418.63 335.356 1423.19 327.073 1426.34C324.268 1427.4 324.794 1428.73 342.975 1470.83L361.682 1514.26L394.348 1514.43C424.081 1514.58 427.946 1514.87 439.265 1517.73C446.056 1519.5 451.38 1521.26 451.112 1521.52C450.843 1521.92 444.713 1521.36 437.517 1520.52C414.198 1517.6 373.516 1520.45 368.557 1525.36C367.485 1526.42 420.904 1638.04 423.163 1639.38C423.961 1639.92 427.023 1640.73 430.088 1641.15C440.612 1642.81 460.842 1649.98 468.817 1654.82C478.121 1660.47 488.612 1668.52 496.44 1675.9L502.013 1681.26L493.378 1675.08C480.094 1665.54 465.34 1656.67 459.485 1654.5C456.557 1653.42 448.564 1652.18 441.632 1651.74C431.103 1651.02 429.235 1651.15 429.76 1652.75C431.866 1658.09 470.994 1748.7 472.576 1752.17C473.764 1754.31 474.025 1755.51 473.228 1754.84C472.566 1754.04 453.941 1720.34 432.018 1679.96C409.963 1639.45 390.944 1604.68 389.755 1602.54L387.375 1598.66L379.713 1610.49C355.251 1647.96 342.463 1671.23 340.271 1682.42C335.889 1704.39 335.89 1704.26 336.632 1689.86C336.937 1682.4 338.188 1672.67 339.412 1668.14C343.493 1652.7 356.831 1626.1 374.577 1598.19C379.283 1590.75 383.186 1583.84 383.19 1583.04C383.2 1581.17 333.038 1484.11 332.105 1484.1C331.172 1484.1 310.123 1506.26 299.525 1518.6C288.123 1531.61 270.401 1555.12 261.931 1568.41C258.571 1573.45 246.722 1595.66 235.407 1617.6C224.093 1639.54 214.934 1657.09 214.803 1656.69C214.687 1653.36 239.669 1593.09 246.942 1579.13C262.698 1549.21 286.475 1515.33 313.168 1484.8L326.314 1469.67L315.631 1447.22C309.829 1434.79 302.841 1419.68 299.939 1413.53L294.931 1402.44L288.38 1405.74C277.953 1410.89 255.472 1426.37 238.468 1439.88C195.088 1474.19 161.979 1507.75 143.566 1535.79C136.443 1546.55 140.22 1538.3 149.096 1523.68C173.441 1483.28 194.352 1461.92 251.373 1419.68C281.357 1397.44 286.85 1392.4 286.878 1386.93C286.896 1383.47 276.883 1360.35 273.571 1356.33C272.644 1355.13 267.97 1356.57 256.611 1361.31C248.059 1364.86 225.344 1374.08 206.372 1381.58C187.265 1389.21 168.691 1396.98 164.948 1398.83C150.51 1406.09 110.374 1432.01 96.3158 1443.14C95.3783 1443.93 94.5769 1444.2 94.579 1443.8C94.5853 1442.6 124.713 1418.22 140.774 1406.44C167.812 1386.58 188.668 1375.89 240.108 1355.49C255.34 1349.43 263.761 1345.48 262.697 1344.81C258.709 1342.65 237.671 1337.08 224.615 1334.87C207.964 1331.99 189.694 1332.56 172.606 1336.6C166.465 1338.04 161.127 1338.94 160.861 1338.68C159.933 1337.74 188.245 1329.08 197.988 1327.27C209.199 1325.19 231.458 1326.78 247.837 1330.86C260.248 1334.01 262.333 1334.28 251.867 1327.79C249.644 1326.42 246.855 1324.73 243.479 1322.71C239.187 1320.14 234.934 1317.72 230.749 1315.46C210.826 1304.7 192.426 1297.58 178.555 1295.3C167.897 1293.51 148.154 1295.41 140.002 1298.97C132.384 1302.26 120.594 1313.26 107.175 1329.59C92.4138 1347.65 54.4161 1398.25 49.4397 1406.49C39.0813 1424.04 33.5118 1443.75 32.1859 1467.87C29.9613 1510.93 42.7774 1559 71.8064 1617.41C82.4943 1638.94 104.96 1677.59 106.826 1677.6C107.36 1677.6 108.168 1676 108.579 1673.87C111.303 1662.95 121.18 1635.41 126.301 1625.03C132.635 1612 139.482 1603.1 161.61 1578.55C169.523 1569.79 182.668 1554.66 190.72 1544.83C214.47 1516.02 230.402 1503.57 242.935 1503.64C250.269 1503.68 253.455 1506.23 253.425 1511.96C253.359 1524.76 235.904 1548 190.858 1595.1C158.415 1628.8 142.392 1658.58 138.486 1691.76C134.297 1728.01 152.559 1754.5 199.491 1780.48C208.665 1785.46 238.198 1798.28 240.732 1798.3C241.398 1798.3 240.092 1793.09 237.992 1786.68C232.74 1771.06 229.768 1752.91 231.019 1743.18C232.556 1729.72 240.39 1710.43 264.111 1661.75C277.453 1634.49 298.793 1607.66 310.279 1603.99C315.221 1602.42 315.754 1602.55 318.006 1605.36C319.331 1606.97 320.386 1609.11 320.381 1610.04C320.352 1615.64 313.718 1634.94 303.731 1657.96C290.639 1688.42 288.609 1694.15 286.004 1707.87C281.48 1731.71 282.024 1755.18 287.648 1776.14C291.179 1789.36 295.41 1796.18 302.985 1801.02C317.869 1810.57 338.789 1813.08 383.87 1810.51C420.148 1808.43 426.546 1808.87 462.641 1816.39C491.277 1822.27 503.273 1823 507.294 1819.02C508.769 1817.43 514.439 1803.99 519.85 1789.09C530.132 1760.61 534.176 1752.36 553.549 1719.13C567.137 1695.87 574.695 1678.44 575.683 1668.04C576.246 1662.18 575.73 1658.98 572.965 1652.16C571.124 1647.35 568.483 1642.41 567.291 1640.93C563.976 1637.32 548.549 1629.63 524.334 1619.77C499.319 1609.64 487.485 1603.45 480.185 1597.01C474.478 1591.91 473.171 1586.84 476.526 1582.86C479.209 1579.67 491.605 1580.54 512.781 1585.18C535.022 1590.1 545.931 1594.82 568.386 1609.87C580.212 1617.67 583.802 1619.55 584.743 1618.09C588.512 1611.31 598.709 1573.63 601.333 1556.18C603.813 1540.85 602.912 1534.72 597.354 1526.69C586.767 1511.3 549.141 1490.7 505.082 1476.21C461.023 1461.84 454.106 1458.74 449.873 1452.18C442.731 1441.08 464.763 1435.06 500.613 1438.32C525.535 1440.58 548.303 1446.7 588.491 1461.97L597.406 1465.49L596.506 1459.08C594.324 1442.8 587.55 1412.24 584.005 1401.68C574.156 1372.7 555.129 1339.67 531.546 1310.61C516.311 1291.73 486.998 1262.24 472.919 1251.77C460.435 1242.24 439.292 1231.33 427.043 1227.93C417.856 1225.35 387.729 1223.99 378.12 1225.67Z" fill="url(#paint0_linear_94_57)"/>
<path d="M-115.5 902.5L-110.985 995.525C105.775 1025.4 121.452 1140.86 230.749 1315.46C234.934 1317.72 239.187 1320.14 243.479 1322.71C246.855 1324.73 249.644 1326.42 251.867 1327.79C229.739 1270.25 213.708 1238.5 216.23 1230.01C234.069 1237.23 254.335 1286.01 284.501 1323.46C284.412 1313.86 285.447 1300.22 287.092 1291.7C237.705 1184.48 212.189 1118.72 160.861 1063C183 1058.2 229.5 1081 195.5 1058.2C160.861 1039 138.714 1043.87 124.5 1030.83C71.6749 984.33 -0.131776 946.974 -115.5 902.5Z" fill="url(#paint1_linear_94_57)"/>
<path fill-rule="evenodd" clip-rule="evenodd" d="M63.1938 835.294C60.0768 833.5 -15.5507 840.683 -20 839.5C-34.1341 835.742 -7.32046 823.189 -20 821.5C-6.32177 818.632 38.8694 819.41 51.6318 818.816C77.2345 817.625 100.137 816.56 116.901 797.764C114.972 797.885 113.202 798.024 111.545 798.154L111.541 798.155L111.538 798.155L111.537 798.155C107.894 798.442 104.796 798.685 101.749 798.591C71.7105 797.6 49.1313 775.583 47.3296 744.897C45.6973 717.903 57.2152 694.855 69.3741 671.324C72.1639 676.604 74.8903 681.804 77.5847 686.942L77.5874 686.947L77.608 686.987C83.9757 699.131 90.1655 710.936 96.5925 722.661C99.7432 728.483 103.745 733.895 107.92 739.085C109.121 740.638 112.719 742.087 114.236 741.392C115.754 740.697 116.931 737.335 116.753 735.149C116.548 731.963 115.601 728.47 114.223 725.534C105.238 707.005 96.2648 688.575 86.8106 670.307C81.0784 659.193 82.3976 653.002 92.2346 645.124C98.5542 640.103 104.555 634.677 110.555 629.251C113.555 626.537 116.556 623.824 119.596 621.161C120.193 620.634 120.778 620.065 121.366 619.493C123.001 617.905 124.664 616.288 126.696 615.439C140.503 609.564 150.447 600.167 155.389 585.384C153.361 604.915 154.098 624.093 160.551 642.443C164.318 653.105 169.357 663.504 175.025 673.321C176.953 676.635 180.056 679.285 183.61 682.319C185.268 683.735 187.023 685.234 188.803 686.923C192.493 672.629 189.466 661.142 186.487 649.844C186.157 648.591 185.828 647.341 185.508 646.089C184.465 642.002 183.272 637.957 182.081 633.923C180.752 629.417 179.426 624.925 178.321 620.405C172.335 596.274 183.678 582.884 208.322 584.864C213.288 585.235 218.304 586.001 223.148 586.99C239.31 590.15 254.618 587.397 267.596 581.327C268.814 585.155 270.012 588.977 271.207 592.789L271.214 592.81C273.962 601.576 276.696 610.295 279.616 618.942C283.969 631.838 281.456 639.686 269.664 646.408C263.612 649.858 257.462 653.162 251.302 656.472L251.293 656.476L251.283 656.482L251.273 656.487C245.441 659.62 239.598 662.759 233.82 666.031C233.609 666.15 233.392 666.269 233.171 666.388C232.976 666.494 232.778 666.6 232.578 666.706C232.403 666.8 232.226 666.893 232.048 666.988C227.314 669.498 221.587 672.536 224.575 678.552C227.731 685.043 234.46 682.261 239.761 680.069C240.172 679.9 240.575 679.733 240.966 679.575C256.229 673.314 268.828 663.478 278.9 650.351C279.953 648.83 280.683 647.017 281.47 645.059C281.823 644.181 282.187 643.274 282.598 642.351C305.343 666.455 294.405 705.088 263.822 714.003C254.261 716.782 243.992 717.345 233.818 717.902C230.911 718.061 228.011 718.22 225.138 718.429C216.087 719.081 208.051 720.606 203.244 730.152C208.889 735.857 215.895 737.273 223.032 736.565C247.036 734.309 270.293 729.339 291.165 713.531C290.652 731.563 288.035 748.057 278.472 762.023C274.989 766.984 267.141 769.991 260.735 771.711C239.283 777.455 217.73 776.888 196.753 769.022L196.573 768.951L196.393 768.88C196.251 768.823 196.108 768.766 195.965 768.709C193.859 767.868 191.605 766.967 189.499 767.236C187.169 767.532 184.921 768.473 182.634 769.431C181.82 769.772 181 770.115 180.17 770.432C180.715 771.45 181.184 772.662 181.65 773.868C182.647 776.448 183.636 779.006 185.354 779.608C192.288 782.037 199.864 783.983 207.076 783.867C214.401 783.743 221.745 782.984 229.093 782.225C234.505 781.666 239.92 781.106 245.331 780.8C249.216 780.566 253.17 780.875 257.124 781.183C259.253 781.349 261.382 781.515 263.5 781.597L263.503 781.6L263.505 781.603C264.222 782.513 264.939 783.423 265.754 784.321C265.45 784.524 265.14 784.721 264.827 784.913C264.748 784.962 264.669 785.01 264.59 785.058C264.373 785.19 264.155 785.321 263.937 785.451L263.926 785.458C262.624 786.237 261.333 787.01 260.304 788.026C255.635 792.556 251.033 797.179 246.428 801.805L246.42 801.813C237.284 810.991 228.134 820.184 218.409 828.696C205.862 839.73 191.108 846.829 173.531 845.957C151.297 844.775 138.638 834.443 133.857 812.668C132.902 808.346 132.436 803.961 131.91 799.008C131.652 796.578 131.379 794.011 131.027 791.247C126.125 826.757 92.454 832.846 63.1938 835.294ZM147.551 703.036C147.051 703.303 146.538 703.576 145.987 703.821C136.207 694.026 131.509 681.575 127.933 668.48C128.6 668.195 129.167 667.922 129.821 667.537C132.971 673.359 136.098 679.184 139.224 685.009C142.35 690.834 145.476 696.659 148.627 702.481C148.452 702.565 148.279 702.653 148.104 702.743C147.923 702.838 147.74 702.935 147.556 703.033L147.551 703.036Z" fill="black"/>
<path fill-rule="evenodd" clip-rule="evenodd" d="M63.1938 835.294C60.0768 833.5 -15.5507 840.683 -20 839.5C-34.1341 835.742 -7.32046 823.189 -20 821.5C-6.32177 818.632 38.8694 819.41 51.6318 818.816C77.2345 817.625 100.137 816.56 116.901 797.764C114.972 797.885 113.202 798.024 111.545 798.154L111.541 798.155L111.538 798.155L111.537 798.155C107.894 798.442 104.796 798.685 101.749 798.591C71.7105 797.6 49.1313 775.583 47.3296 744.897C45.6973 717.903 57.2152 694.855 69.3741 671.324C72.1639 676.604 74.8903 681.804 77.5847 686.942L77.5874 686.947L77.608 686.987C83.9757 699.131 90.1655 710.936 96.5925 722.661C99.7432 728.483 103.745 733.895 107.92 739.085C109.121 740.638 112.719 742.087 114.236 741.392C115.754 740.697 116.931 737.335 116.753 735.149C116.548 731.963 115.601 728.47 114.223 725.534C105.238 707.005 96.2648 688.575 86.8106 670.307C81.0784 659.193 82.3976 653.002 92.2346 645.124C98.5542 640.103 104.555 634.677 110.555 629.251C113.555 626.537 116.556 623.824 119.596 621.161C120.193 620.634 120.778 620.065 121.366 619.493C123.001 617.905 124.664 616.288 126.696 615.439C140.503 609.564 150.447 600.167 155.389 585.384C153.361 604.915 154.098 624.093 160.551 642.443C164.318 653.105 169.357 663.504 175.025 673.321C176.953 676.635 180.056 679.285 183.61 682.319C185.268 683.735 187.023 685.234 188.803 686.923C192.493 672.629 189.466 661.142 186.487 649.844C186.157 648.591 185.828 647.341 185.508 646.089C184.465 642.002 183.272 637.957 182.081 633.923C180.752 629.417 179.426 624.925 178.321 620.405C172.335 596.274 183.678 582.884 208.322 584.864C213.288 585.235 218.304 586.001 223.148 586.99C239.31 590.15 254.618 587.397 267.596 581.327C268.814 585.155 270.012 588.977 271.207 592.789L271.214 592.81C273.962 601.576 276.696 610.295 279.616 618.942C283.969 631.838 281.456 639.686 269.664 646.408C263.612 649.858 257.462 653.162 251.302 656.472L251.293 656.476L251.283 656.482L251.273 656.487C245.441 659.62 239.598 662.759 233.82 666.031C233.609 666.15 233.392 666.269 233.171 666.388C232.976 666.494 232.778 666.6 232.578 666.706C232.403 666.8 232.226 666.893 232.048 666.988C227.314 669.498 221.587 672.536 224.575 678.552C227.731 685.043 234.46 682.261 239.761 680.069C240.172 679.9 240.575 679.733 240.966 679.575C256.229 673.314 268.828 663.478 278.9 650.351C279.953 648.83 280.683 647.017 281.47 645.059C281.823 644.181 282.187 643.274 282.598 642.351C305.343 666.455 294.405 705.088 263.822 714.003C254.261 716.782 243.992 717.345 233.818 717.902C230.911 718.061 228.011 718.22 225.138 718.429C216.087 719.081 208.051 720.606 203.244 730.152C208.889 735.857 215.895 737.273 223.032 736.565C247.036 734.309 270.293 729.339 291.165 713.531C290.652 731.563 288.035 748.057 278.472 762.023C274.989 766.984 267.141 769.991 260.735 771.711C239.283 777.455 217.73 776.888 196.753 769.022L196.573 768.951L196.393 768.88C196.251 768.823 196.108 768.766 195.965 768.709C193.859 767.868 191.605 766.967 189.499 767.236C187.169 767.532 184.921 768.473 182.634 769.431C181.82 769.772 181 770.115 180.17 770.432C180.715 771.45 181.184 772.662 181.65 773.868C182.647 776.448 183.636 779.006 185.354 779.608C192.288 782.037 199.864 783.983 207.076 783.867C214.401 783.743 221.745 782.984 229.093 782.225C234.505 781.666 239.92 781.106 245.331 780.8C249.216 780.566 253.17 780.875 257.124 781.183C259.253 781.349 261.382 781.515 263.5 781.597L263.503 781.6L263.505 781.603C264.222 782.513 264.939 783.423 265.754 784.321C265.45 784.524 265.14 784.721 264.827 784.913C264.748 784.962 264.669 785.01 264.59 785.058C264.373 785.19 264.155 785.321 263.937 785.451L263.926 785.458C262.624 786.237 261.333 787.01 260.304 788.026C255.635 792.556 251.033 797.179 246.428 801.805L246.42 801.813C237.284 810.991 228.134 820.184 218.409 828.696C205.862 839.73 191.108 846.829 173.531 845.957C151.297 844.775 138.638 834.443 133.857 812.668C132.902 808.346 132.436 803.961 131.91 799.008C131.652 796.578 131.379 794.011 131.027 791.247C126.125 826.757 92.454 832.846 63.1938 835.294ZM147.551 703.036C147.051 703.303 146.538 703.576 145.987 703.821C136.207 694.026 131.509 681.575 127.933 668.48C128.6 668.195 129.167 667.922 129.821 667.537C132.971 673.359 136.098 679.184 139.224 685.009C142.35 690.834 145.476 696.659 148.627 702.481C148.452 702.565 148.279 702.653 148.104 702.743C147.923 702.838 147.74 702.935 147.556 703.033L147.551 703.036Z" fill="url(#paint2_linear_94_57)"/>
</g>
<defs>
<linearGradient id="paint0_linear_94_57" x1="600" y1="1703.17" x2="121.212" y2="1798.37" gradientUnits="userSpaceOnUse">
<stop stop-color="#4F772D"/>
<stop offset="1" stop-color="#90A955"/>
</linearGradient>
<linearGradient id="paint1_linear_94_57" x1="600" y1="1703.17" x2="121.212" y2="1798.37" gradientUnits="userSpaceOnUse">
<stop stop-color="#4F772D"/>
<stop offset="1" stop-color="#90A955"/>
</linearGradient>
<linearGradient id="paint2_linear_94_57" x1="68.2349" y1="876.333" x2="-11.4399" y2="720.543" gradientUnits="userSpaceOnUse">
<stop stop-color="#4F772D"/>
<stop offset="1" stop-color="#90A955"/>
</linearGradient>
<clipPath id="clip0_94_57">
<rect width="1109" height="2363" fill="white"/>
</clipPath>
</defs>
</svg>
