<svg width="546" height="248" viewBox="0 0 546 248" fill="none" xmlns="http://www.w3.org/2000/svg">
<path d="M28.9226 248H52.2246C44.9883 232.052 41.9199 221.745 41.7063 213.681C41.7063 211.749 41.3083 208.915 41.0095 207.305L40.313 204.408L38.5212 206.082C37.5259 207.048 36.0327 210.268 35.137 213.294L33.4448 218.768L27.2734 210.074C16.822 195.585 3.1853 180.968 0.995361 181.869C0.398193 182.127 0 182.899 0 183.737C0 185.218 4.77783 196.745 7.56494 202.154C15.3074 216.873 22.8232 233.133 28.9226 248Z" fill="black" fill-opacity="0.1"/>
<path d="M57.5508 248H88.1172C81.7053 233.496 78.8569 222.267 77.0425 206.468C76.7439 203.764 76.0471 201.51 75.5496 201.51C74.0564 201.51 70.9707 206.468 69.5771 211.169C68.8804 213.487 68.2832 219.412 68.2832 224.37L68.3828 233.385L66.4915 228.878C61.3154 216.321 57.7322 202.476 57.7322 195.392C57.7322 191.013 56.6372 186.055 55.7415 186.055C54.2483 186.055 50.9634 192.237 49.769 197.195C47.9773 204.214 48.9729 221.666 51.76 231.132C53.124 235.966 55.1597 241.83 57.5508 248Z" fill="black" fill-opacity="0.1"/>
<path d="M100.121 248H121.548C123.166 227.837 128.178 207.81 136.965 185.733C146.321 162.229 146.918 160.297 144.33 160.297C142.837 160.297 135.571 167.638 130.295 174.399C114.847 194.388 104.164 220.716 100.121 248Z" fill="black" fill-opacity="0.1"/>
<path d="M126.525 248H170.056C170.9 240.326 172.265 230.283 173.097 225.98C176.78 207.885 180.861 194.684 188.724 175.752C197.384 154.694 198.678 150.187 195.792 150.766C190.715 151.861 172.002 174.979 166.527 186.892C163.84 192.881 164.238 189.403 167.721 178.199C171.802 164.676 177.178 150.702 185.24 132.285C191.611 118.053 193.303 112 191.113 112C185.838 112 167.423 132.349 156.474 150.444C140.349 176.782 130.992 203.764 127.409 233.643C126.948 237.547 126.659 242.557 126.525 248Z" fill="black" fill-opacity="0.1"/>
<path d="M175.678 248C182.226 236.181 193.588 224.392 206.343 216.321C212.224 212.604 214.621 211.14 220.676 208.529C224.956 206.597 240.584 202.154 242.973 202.154L222.753 215.766C222.355 215.895 212.016 223.597 209.229 226.173C202.266 232.684 196.57 239.979 192.173 248H175.678Z" fill="black" fill-opacity="0.1"/>
<path fill-rule="evenodd" clip-rule="evenodd" d="M456.619 248L457.575 242.393C460.561 224.684 458.769 205.43 452.996 192.486C447.92 181.088 437.468 168.273 435.278 170.592C434.98 170.914 436.274 175.937 438.065 181.732C443.142 197.702 444.735 211.934 442.943 223.525L442.246 227.517L433.387 216.441C427.714 209.293 424.827 204.914 425.125 204.142C425.623 203.305 425.225 202.983 423.732 202.983C422.637 202.983 420.845 202.145 419.651 201.051C416.764 198.411 415.47 198.604 415.869 201.695L416.167 204.335L408.104 206.396C403.625 207.619 397.155 209.937 393.672 211.612L387.301 214.638L386.007 209.036L384.713 203.498L387.5 201.566C388.993 200.536 394.368 197.831 399.345 195.513C414.574 188.558 416.068 186.497 404.422 188.816C389.491 191.778 379.438 195.706 367.394 203.047C363.412 205.494 359.729 207.49 359.032 207.49C342.274 220.483 340.901 222.658 331.022 238.306L330.963 238.4C329.06 241.418 327.312 244.638 325.737 248H368.043C370.338 244.555 372.507 241.656 372.968 241.298C373.928 240.64 374.087 243.927 373.662 248H395.892C396.214 246.254 396.597 244.421 397.056 242.328C399.942 229.513 400.341 226.165 398.748 226.165C398.151 226.165 396.857 227.066 395.961 228.161C392.378 232.347 392.079 232.347 392.577 228.419C392.875 225.972 392.676 224.555 391.88 224.233C390.287 223.654 404.123 214.703 411.887 211.29C414.973 209.873 417.76 208.778 417.959 208.778C418.257 208.778 420.746 213.608 432.292 237.434L437.384 248H456.619ZM359.729 229.514C361.222 222.752 362.019 221.657 370.579 214.059C375.954 209.358 377.347 208.521 376.451 210.517C376.252 211.161 375.655 214.123 375.356 217.085L374.66 222.43L368.19 227.582C364.706 230.415 361.322 233.442 360.725 234.279C358.634 237.177 358.336 235.824 359.729 229.514Z" fill="black" fill-opacity="0.1"/>
<path d="M423.73 248H403.49C404.984 222.375 408.508 208.436 412.484 215.862C413.281 217.214 414.077 217.665 415.072 217.407C416.167 217.15 416.963 217.536 417.561 218.566C419.268 221.447 421.971 234.853 423.73 248Z" fill="black" fill-opacity="0.1"/>
<path fill-rule="evenodd" clip-rule="evenodd" d="M297.075 0.727339C298.724 0.488259 300.915 0.205696 301.957 0.118757C304.538 -0.142058 313.411 0.0535614 316.947 0.444784C323.195 1.11856 331.266 2.44436 335.062 3.40068C348.751 6.85648 360.661 13.1595 369.556 21.6577C370.749 22.7879 372.94 24.7441 374.437 25.9829C377.8 28.7867 385.003 35.9808 388.343 39.8931C394.418 47.0003 400.818 55.6072 403.616 60.3888C408.281 68.4306 410.493 76.8419 409.908 84.4924L409.756 86.6224H406.805C398.518 86.6224 389.341 85.9052 368.038 83.5796C360.748 82.7971 359.664 82.7319 351.875 82.6233C344.608 82.5363 338.468 82.232 332.307 81.7104L330.615 81.5583V82.645C330.615 87.7744 333.5 94.6642 338.728 101.945C340.095 103.858 341.874 105.205 343.913 105.879C346.473 106.705 347.319 107.509 347.319 109.031C347.319 110.335 346.69 112.052 345.606 113.725C344.608 115.29 341.375 118.529 339.661 119.702C336.841 121.637 333.175 122.919 329.291 123.376C327.358 123.589 326.766 123.626 326.618 123.901C326.541 124.045 326.586 124.256 326.623 124.593C326.818 126.592 327.165 135.938 327.469 147.697C327.925 166.323 328.185 171.67 328.879 177.69C330.029 187.688 330.55 196.186 331.157 215.726C331.472 225.84 331.698 231.437 332.039 236.695C331.71 237.216 331.371 237.752 331.022 238.306L330.963 238.4C329.06 241.418 327.312 244.638 325.737 248H332.786C332.804 248.481 332.811 248.856 332.806 249.088C332.784 252.457 331.743 255.391 328.185 262.129C325.321 267.585 324.584 268.715 322.523 270.78C318.987 274.344 314.865 276.474 309.224 277.604C306.339 278.169 300.85 278.126 297.921 277.496C293.496 276.539 288.918 274.496 285.577 271.997C283.299 270.301 279.568 266.585 278.505 264.955C277.095 262.803 276.704 261.151 276.704 257.456C276.726 254.24 277.03 252.305 277.919 249.654C278.158 249.002 278.331 248.393 278.331 248.306C278.331 248.219 277.898 247.828 277.377 247.458C276.878 247.089 276.227 246.393 275.967 245.915C275.489 245.068 275.468 244.807 275.403 238.699C275.381 235.2 275.229 231.331 275.077 230.071C274.86 228.093 272.604 216.617 271.151 209.901C270.738 207.988 270.608 207.684 270.218 207.684C269.567 207.684 267.441 207.032 266.985 206.706C266.595 206.423 266.616 206.358 267.181 205.163C267.679 204.098 267.81 203.402 268.048 200.512C268.2 198.664 268.374 196.904 268.417 196.599L268.482 196.034L261.301 196.056C254.055 196.056 252.298 195.926 247.851 195.013L246.549 194.752L246.224 193.491C245.833 191.905 246.094 190.492 247.243 188.166C247.916 186.797 248.502 186.058 250.454 184.102C252.472 182.081 253.405 181.342 256.42 179.451C260.282 176.995 261.822 176.256 264.664 175.473C266.313 175.017 266.964 174.974 270.738 174.995C274.578 174.995 275.164 175.06 277.051 175.56C278.201 175.886 279.872 176.473 280.783 176.886C282.345 177.603 286.575 180.32 288.723 181.972L289.721 182.733L289.873 180.798C290.133 177.495 290.936 152.848 291.348 135.634C291.451 130.852 291.594 125.715 291.645 123.885L291.652 123.636L291.76 120.767L290.849 120.528C286.836 119.485 285.664 119.05 280.805 116.833C279.112 116.073 277.681 114.79 277.681 114.073C277.681 113.182 278.462 111.987 280.327 109.965C282.215 107.966 283.625 105.792 285.36 102.315C286.098 100.837 286.315 100.207 286.163 100.011C285.903 99.7066 286.597 97.5767 290.328 87.0571C291.565 83.5361 292.867 79.8412 293.214 78.8632C293.626 77.6895 293.995 77.0157 294.277 76.8853C294.624 76.7332 294.559 76.668 293.843 76.5593C293.366 76.4941 289.179 76.1681 284.514 75.8638C274.795 75.2335 269.22 74.7771 265.966 74.3424C264.707 74.1685 261.93 73.8208 259.783 73.5817C245.313 71.9081 231.862 68.9522 215.722 63.888L211.144 62.4318L211.036 59.715C210.84 54.7595 211.426 51.7819 213.379 47.8914C215.071 44.5008 217.001 41.8926 222.36 35.807C224.811 33.0032 225.441 32.4381 228.977 29.8082C240.063 21.6143 244.749 18.854 253.622 15.2243C255.574 14.4201 259.522 12.7466 262.386 11.486C275.967 5.50895 280.544 3.83537 287.226 2.33568C288.831 1.96619 291.044 1.55325 292.107 1.42284C292.965 1.31974 294.528 1.09438 295.97 0.886369C296.352 0.831277 296.726 0.777402 297.075 0.727339ZM284.796 222.724C287.009 212.618 288.224 205.206 289.07 196.643L289.2 195.295L288.05 195.317C287.421 195.339 285.642 195.469 284.08 195.621C282.54 195.795 280.544 195.926 279.698 195.926C278.744 195.947 278.114 196.034 278.114 196.186C278.114 196.295 278.375 196.947 278.679 197.621C279.46 199.273 281.824 201.729 282.931 202.077C284.015 202.403 284.276 202.859 283.994 203.946C283.581 205.402 281.586 207.249 280.392 207.249C280.197 207.249 280.002 207.38 279.937 207.532C279.872 207.706 280.219 209.227 280.696 210.966C280.882 211.636 281.121 212.507 281.377 213.439C281.777 214.898 282.218 216.506 282.562 217.725C283.104 219.725 283.777 221.942 284.037 222.681L284.536 223.985L284.796 222.724Z" fill="black" fill-opacity="0.1"/>
<path fill-rule="evenodd" clip-rule="evenodd" d="M79.4962 61.7598C81.7393 60.9137 87.7106 59.5539 90.8024 59.1611C94.8035 58.6474 101.351 59.4028 105.928 60.8533C108.565 61.6994 113.051 64.1168 119.598 68.1661C128.662 73.7866 129.601 74.5119 134.694 79.6489C138.695 83.6679 139.574 84.7256 141.605 88.11C145.697 94.8184 147 98.6863 147 104.367V107.691L145.878 108.235C134.603 113.674 123.418 116.606 108.504 118.086C105.079 118.419 102.23 118.691 102.139 118.691C102.048 118.691 102.897 122.408 104.018 126.91C105.14 131.443 106.14 135.794 106.231 136.58C106.413 138.484 107.898 142.261 109.414 144.769C110.99 147.368 111.172 148.244 110.293 149.181C109.353 150.178 106.292 152.112 104.655 152.716L103.26 153.26L103.473 163.988C104.158 200.66 104.438 211.373 105.762 222.987C103.277 231.124 101.378 239.516 100.121 248H109.361C109.659 249.496 109.959 250.728 110.353 252.224C112.202 259.356 111.839 263.828 109.08 268.028C106.231 272.35 102.624 275.039 98.6228 275.825C94.9551 276.55 90.5902 274.979 87.8925 271.957C85.9526 269.811 84.7098 267.273 82.7092 261.32C82.1894 259.757 81.8157 258.657 81.5605 257.53C81.0915 255.459 81.023 253.297 81.1835 248H88.1172C85.4396 241.943 83.3834 236.457 81.7644 230.971C81.9054 226.597 82.0481 222.011 82.1333 218.561C82.3152 212.397 82.588 205.537 82.7395 203.301C83.3155 195.354 83.6489 186.953 83.952 171.451C84.2445 157.916 84.341 155.695 83.5636 155.329C83.3743 155.24 83.1332 155.26 82.8305 155.255C81.7696 155.255 79.0415 153.925 77.7685 152.837C75.6163 150.933 73.6158 147.549 73.1914 145.041C72.9186 143.349 73.1914 142.714 74.4948 141.928C76.3135 140.841 76.9804 140.115 78.0413 138.03C80.3449 133.437 82.1333 127.303 82.1333 123.918V122.589L81.1633 122.77C79.1022 123.103 73.0702 123.526 69.7965 123.526C67.3716 123.526 64.1889 123.858 58.5813 124.734C49.8818 126.064 45.3351 126.547 41.5462 126.547H39L39.1819 122.075C39.485 114.46 40.9399 109.232 45.0017 101.013C49.4272 92.0686 53.3677 85.6019 58.066 79.7094C59.2083 78.2734 60.7169 76.3709 61.7916 75.0157C62.0287 74.7168 62.2446 74.4445 62.4308 74.2097C66.826 68.6798 72.9186 64.2377 79.4962 61.7598Z" fill="black" fill-opacity="0.1"/>
<path d="M510.205 168.369C505.136 169.1 500.887 170.806 497.275 173.548C492.48 177.143 485.772 184.85 484.194 188.566C483.344 190.516 482.798 193.319 483.071 194.354L483.253 195.116L487.047 194.903C489.111 194.811 492.692 194.507 494.999 194.293C497.275 194.05 501.16 193.776 503.649 193.684L508.111 193.532L508.08 194.354C508.05 196.426 505.743 200.234 504.104 200.995C502.557 201.696 502.587 202.549 504.196 204.316C505.319 205.565 506.866 206.327 508.839 206.662C509.355 206.753 509.386 207.027 509.355 209.952C509.264 213.851 508.87 221.985 508.445 227.925C508.293 230.362 507.989 235.632 507.807 239.623L507.443 246.904L508.688 249.432C510.175 252.448 511.753 253.941 514.151 254.642C517.368 255.556 520.798 254.703 523.408 252.296C525.593 250.285 525.836 248.427 524.47 244.924C523.711 242.974 521.89 233.987 521.496 230.21C521.192 227.499 520.555 211.749 520.555 207.423V205.748L522.255 205.199C523.196 204.925 524.227 204.468 524.561 204.194C525.138 203.707 525.108 203.676 524.045 202.275C523.256 201.27 522.467 199.533 521.435 196.517C520.616 194.141 520.009 192.131 520.1 192.039C520.191 191.948 521.86 191.765 523.833 191.613C531.299 191.095 538.068 189.937 543.622 188.231L545.898 187.531L545.989 186.068C546.232 182.535 542.256 177.874 536.034 174.37C534.243 173.365 527.263 170.349 524.501 169.374C520.555 168.003 515.213 167.638 510.205 168.369Z" fill="black" fill-opacity="0.1"/>
</svg>
