<svg width="508" height="709" viewBox="0 0 508 709" fill="none" xmlns="http://www.w3.org/2000/svg">
<g clip-path="url(#clip0_101_2)">
<path fill-rule="evenodd" clip-rule="evenodd" d="M173.844 543.097C177.23 545.957 182.855 548.46 198.107 553.719C214.576 559.538 217.263 560.746 214.433 561.181C212.616 561.542 209.822 562.694 208.292 563.859C205.658 565.771 205.697 566.067 207.579 567.562C208.709 568.375 214.647 569.152 220.675 569.256C235.64 569.621 237.74 570.485 236.088 575.275C234.35 580.318 238.371 582.973 246.477 581.96L252.345 581.303L250.65 586.219C248.738 591.766 250.233 593.974 255.301 593.182C257.666 592.869 258.213 592.917 257.361 593.751C256.597 594.334 253.341 595.186 250.046 595.743C246.795 596.173 244.339 597.16 244.544 597.794C244.579 598.512 243.266 599.046 241.497 598.86C236.863 598.39 222.286 605.493 218.783 609.927C216.049 613.357 216.131 613.526 219.535 614.7C223.947 616.221 235.178 614.734 246.179 611.051C250.96 609.456 257.088 608.043 259.662 607.943C262.278 607.717 264.647 606.982 264.864 606.352C265.125 605.595 268.702 606.264 272.862 607.699C277.022 609.133 280.251 610.81 280.078 611.314C279.904 611.819 275.536 614.262 270.324 616.696C256.468 623.343 251.565 628.563 257.238 630.519C261.145 631.866 261.015 632.244 255.495 635.983C248.871 640.469 241.839 647.776 241.9 650.053C241.93 651.192 242.93 652.383 244.064 652.774C245.451 653.252 245.612 654.013 244.46 655.308C243.521 656.395 240.727 661.637 238.31 667.009C235.768 672.338 231.292 681.231 228.115 686.765C221.717 697.957 219.249 704.299 220.54 705.873C221.996 707.785 227.351 703.708 229.763 698.757C233.161 692.172 234.765 692.019 233.475 698.626C231.167 709.819 234.775 707.537 240.772 694.231C244.358 685.877 256.492 666.226 255.353 670.346C255.175 671.272 255.419 672.202 256.049 672.42C257.184 672.811 258.639 670.633 263.585 661.196C265.176 658.219 266.923 656.424 267.932 656.771C270.327 657.597 272.082 654.959 275.124 646.135C277.684 639.12 277.984 638.659 278.458 641.784C279.254 646.43 281.079 645.226 283.595 638.337L285.721 632.582L285.412 637.976C285.382 640.927 285.734 643.587 286.447 643.974C287.077 644.191 289.929 641.648 292.662 638.219C296.804 633.159 297.782 632.368 298.352 634.398C299.643 640.061 309.774 634.81 315.481 625.213L317.841 621.231L318.671 626.595C319.063 629.55 319.876 632.51 320.25 633.062C321.541 634.636 329.26 630.245 334.797 624.82C339.182 620.691 353.33 610.337 357.78 608.063C358.798 607.568 358.272 609.502 356.459 613.531C352.796 621.294 354.135 622.32 362.814 618.825C369.421 616.025 374.354 611.944 375.745 607.91C376.31 606.271 377.244 605.606 378.04 606.162C378.918 606.888 378.631 610.174 377.406 614.547C376.31 618.542 375.811 622.036 376.441 622.253C377.071 622.471 379.57 621.358 381.948 619.78L386.32 616.915L393.893 626.86L396.579 623.978C398.156 622.265 399.96 619.079 400.868 616.854C402.607 611.812 404.71 612.255 404.107 617.688C403.594 622.447 406.871 627.667 410.457 627.493C413.622 627.315 418.263 622.851 421.575 616.518C423.122 613.666 428.629 607.103 433.784 601.969C443.541 592.076 447.192 585.578 444.14 582.974C442.802 581.948 445.431 580.457 454.194 577.132C460.626 574.836 466.042 573.037 466.125 573.206C466.207 573.376 464.308 577.657 462.022 582.651C459.61 587.602 456.716 594.361 455.46 597.595C453.591 603.016 453.626 603.733 456.147 604.602C461.106 606.171 471.116 604.544 477.901 600.819L484.473 597.302L485.303 602.666C486.46 609.129 487.425 609.603 490.889 604.874C500.211 592.151 501.428 584.531 496.32 572.757C494.22 567.802 492.664 563.316 492.838 562.812C493.181 562.225 499.079 558.617 506.034 554.809L518.795 548.067L513.997 559.529L509.368 570.909L514.98 570.587C518.018 570.365 524.446 568.491 529.193 566.179L537.668 562.049L534.048 569.686C532.023 573.924 527.62 583.83 524.335 591.723C519.102 604.446 518.576 606.38 520.341 606.989C524.879 608.553 549.857 590.509 554.664 582.294C555.807 580.366 560.501 576.388 565.244 572.9L538.903 503.868C538.115 507.746 537.288 509.442 536.392 509.707C532.884 510.473 530.306 506.904 529.819 500.954C529.18 493.4 524.359 486.519 516.022 481.247C511.623 478.461 509.124 475.484 505.777 468.83L501.312 460.098L507.841 460.797C511.379 461.171 516.438 461.223 518.972 460.827C521.632 460.475 525.401 458.953 527.565 457.584C532.025 454.467 532.646 455.528 532.49 466.616C532.313 479.812 536.442 484.197 539.289 473.896C540.21 470.406 541.336 467.55 541.714 467.68C542.092 467.811 544.713 471.253 547.708 475.247L548.87 476.88L560.409 468.231C560.491 467.74 560.679 467.245 560.952 466.697C562.116 464.137 561.586 462.402 557.8 457.43C549.149 445.704 548.828 444.182 552.491 436.419C555.077 430.964 556.868 429.043 560.893 427.187C566.443 424.587 570.533 420.497 574.353 413.916L571.797 408.239C569.102 407.874 564.717 407.914 562.096 408.562C559.518 409.083 556.984 409.479 556.606 409.349C556.228 409.218 558.114 406.201 560.891 402.646C567.385 394.448 573.473 380.469 572.682 375.401C571.926 371.05 565.24 365.078 560.437 364.692C557.699 364.453 556.721 365.244 555.465 368.478L553.948 372.468L553.735 368.587C552.931 360.693 547.658 352.67 541.733 350.627C540.095 350.062 536.869 347.963 534.444 345.999C528.463 341.257 526.15 340.601 522.252 342.5C518.861 344.152 518.861 344.152 515.362 339.984C513.489 337.646 512.037 335.312 512.254 334.682C512.471 334.051 512.015 333.33 511.385 333.113C510.628 332.852 509.646 334.065 509.038 335.829C507.169 341.25 505.974 338.581 507.634 332.948C508.551 329.879 508.668 326.675 507.92 325.572C506.881 324.085 507.155 322.064 509.18 317.826L511.979 312.162L506.307 310.207C500.382 308.164 490.285 310.042 485.183 314.207C481.697 316.954 480.945 316.271 481.714 311.177C482.713 304.188 478.649 297.568 471.22 294.161C463.918 290.797 463.575 291.384 465.005 304.007C465.888 312.491 465.276 322.857 464.015 322.423C461.873 321.684 456.487 316.442 456.791 315.56C457.008 314.93 455.948 311.461 454.3 307.65C451.5 301.043 445.967 293.776 440.073 288.782L436.978 286.305L435.874 291.142C435.34 293.92 434.927 297.162 435.04 298.471C435.231 300.37 433.258 299.549 421.735 292.473L408.243 284.155L405.999 276.753C404.691 272.776 402.709 268.707 401.579 267.895C397.897 265.074 394.893 266.013 393.372 270.425C392.59 272.694 391.599 274.75 391.091 274.998C390.582 275.245 387.227 273.524 383.497 271.251C374.617 265.51 368.901 263.681 368.075 266.076C367.728 267.084 368.054 268.184 368.936 268.488C369.692 268.749 369.94 269.257 369.306 269.461C368.797 269.709 365.946 268.162 362.933 265.854C360.004 263.716 355.144 260.63 352.167 259.039L346.798 256.201L348.237 259.8L349.72 263.273L341.526 260.448C336.736 258.797 332.233 257.95 330.499 258.48C327.791 259.38 327.748 259.506 329.743 262.309C331.799 265.251 331.697 265.239 325.124 264.477L324.914 264.452C321.124 263.992 317.251 263.362 316.243 263.014C315.234 262.667 311.361 262.037 307.571 261.576C296.074 260.151 300.169 263.819 316.221 269.212C324.793 272.168 329.578 274.241 328.813 274.823C328.049 275.406 330.022 276.227 334.103 277.07C350.347 280.272 352.785 280.972 353.063 282.619C353.389 283.719 355.241 284.075 359.253 283.484C362.504 283.053 366.929 283.31 369.198 284.092C373.188 285.609 373.188 285.609 370.098 286.8C367.094 287.739 367.681 288.082 377.9 290.759C380.154 291.379 383.038 292.157 386.121 292.989C391.32 294.391 397.087 295.947 401.363 297.156L413.894 300.489L409.917 305.887C407.179 309.739 406.271 311.964 406.849 313.151C408.171 315.863 417.216 313.763 421.514 309.886C424.835 306.799 425.426 306.721 428.312 308.985L431.616 311.676L425.961 312.124C420.137 312.654 412.426 316.202 409.862 319.549C408.58 321.222 408.953 321.774 412.357 322.947C418.325 324.864 428.374 323.533 432.203 320.199L435.606 317.283L442.996 324.484C449.507 330.96 450.429 331.56 452.467 330.147C458.539 326.035 451.598 340.849 444.188 348.025C438.099 353.824 436.643 360.092 440.755 362.074C442.811 363.064 445.302 362.795 448.057 361.347C451.152 359.735 453.303 359.63 457.589 361.108C460.74 362.194 462.792 363.607 462.531 364.363C462.227 365.245 459.215 371.118 455.691 377.659C452.166 384.201 449.493 389.908 449.784 390.291C449.906 390.756 453.627 389.782 457.943 388.308C469.748 384.339 470 384.426 462.515 390.59C457.369 394.88 456.044 396.68 457.217 397.367C458.978 398.397 472.961 399.974 477.685 399.769C480.006 399.582 480.172 399.921 478.72 401.677C477.781 402.764 475.591 406.663 473.996 410.062C470.332 417.825 471.336 418.594 481.65 416.086C489.174 414.308 496.702 408.018 499.257 401.424C500.079 399.45 501.5 396.556 502.569 395.091C504.238 392.704 504.534 392.665 505.438 394.951C506.133 397.025 505.651 398.833 502.778 403.484C500.805 406.753 496.959 415.863 494.221 423.805L489.267 438.175L484.707 434.628C478.978 429.973 478.096 429.669 477.27 432.064C476.792 433.451 476.118 433.359 474.027 431.651C468.968 427.509 457.306 421.655 454.059 421.664C451.064 421.76 451.268 422.395 456.772 432.613C463.683 445.291 468.961 452.893 473.898 456.57C475.907 458.109 480.223 464.815 483.57 471.47C489.647 483.296 489.687 483.592 485.183 478.654C481.097 474.143 467.748 464.181 466.562 464.759C465.884 465.09 464.681 491.895 465.082 498.098C465.221 500.966 465.278 503.666 465.104 504.17C464.973 504.548 457.115 501.98 447.622 498.425C428.301 491.058 415.313 482.914 417.873 479.988C418.725 479.154 421.519 473.912 424.231 468.5C430.042 456.964 430.263 451.822 425.473 450.17C422.952 449.301 422.583 448.328 423.217 444.033C423.708 441.382 424.851 436.84 425.764 434.193C426.72 431.419 427.119 429.442 426.654 429.563C426.272 429.855 421.986 436.557 417.267 444.521C412.421 452.44 407.496 459.769 406.223 460.599C404.141 462.138 403.598 461.668 399.659 455.092C397.338 451.189 394.795 444.248 393.912 439.854C393.199 435.377 391.973 431.569 391.469 431.395C390.839 431.178 390.174 434.334 389.966 438.211C389.08 450.599 388.402 450.929 383.216 442.653C380.56 438.494 377.673 432.139 376.743 428.293C374.791 421.273 372.052 416.944 369.644 417.383C367.362 417.866 366.028 412.329 366.405 404.279C367.174 391.004 360.232 381.277 356.138 389.879C353.813 394.578 353.617 393.1 354.72 380.082C355.889 364.83 351.607 354.751 347.387 363.309C345.749 366.834 345.666 366.665 344.983 359.237C344.387 351.556 342.131 349.509 340.219 355.056C339.698 356.568 338.463 357.694 337.455 357.346C336.194 356.912 336.737 353.291 340.053 342.446C342.895 332.566 343.968 326.59 343.586 322.791C342.581 313.841 340.325 315.884 335.671 329.794C333.324 336.6 331.547 341.347 331.516 340.208C331.612 339.113 329.012 333.562 325.822 328.09L319.853 317.994L317.693 323.031C315.103 328.908 315.13 338.649 317.634 345.294L319.442 349.867L315.483 349.489C311.818 349.072 306.698 350.833 307.485 352.232C307.694 352.445 310.793 354.501 314.44 356.604C323.746 361.928 330.505 368.913 333.048 375.854C336.335 384.321 335.309 385.66 328.346 382.131L328.292 382.104C326.107 381.025 324.797 380.377 324.599 380.624C324.303 380.993 326.499 383.365 331.984 389.291L332.775 390.146C341.991 400.234 342.53 401.125 340.07 402.533C335.914 404.767 336.067 410.461 340.61 419.784C343.748 426.226 344.07 427.747 342.053 427.052C340.036 426.356 339.78 426.691 340.345 429.143C341.067 432.776 345.609 438.009 351.551 442.455C354.355 444.55 355.146 445.528 353.507 444.963C351.951 444.568 349.082 444.707 346.966 445.529C343.749 446.676 343.236 447.346 343.541 450.554C343.854 452.918 345.267 454.956 347.992 456.46C351.765 458.607 364.679 461.649 376.049 463.03C378.744 463.395 382.569 464.573 384.582 465.69C387.977 467.707 387.977 467.707 382.674 466.725C372.238 464.678 362.51 467.53 364.658 471.937C365.071 472.785 370.274 475.284 376.155 477.452C386.069 481.012 386.782 481.398 385.37 483.45C384.431 484.537 384.422 485.38 385.183 485.219C386.113 484.976 385.235 488.34 382.901 493.882C379.355 502.532 379.264 503.206 381.637 506.139C383.758 508.986 384.641 509.291 388.944 509.082C391.686 508.899 396.129 507.469 398.845 505.725C403.3 503.03 404.069 502.026 405.825 495.298C406.964 491.177 407.841 487.813 407.841 487.813C407.901 487.833 408.5 488.327 409.443 489.104C410.485 489.963 411.947 491.168 413.57 492.468C418.043 496.266 424.003 499.026 443.658 506.649C457.098 511.846 468.264 516.683 468.425 517.444C468.63 518.079 469.425 518.635 470.186 518.474C470.99 518.187 477.605 518.634 484.977 519.342C492.223 520.007 499.512 520.546 501.072 520.519C502.676 520.367 501.146 521.532 497.673 523.015C489.798 526.223 483.283 532.439 482.005 537.781C481.127 541.145 481.579 542.288 484.265 543.496C486.069 544.4 490.577 544.826 494.206 544.526L500.874 544.004L495.61 547.408C492.598 549.19 487.891 551.798 485.222 552.994L480.18 555.345L480.602 551.26C481.058 547.891 480.436 546.831 476.746 544.853C471.126 541.928 457.595 537.404 450.062 535.936C444.338 534.949 444.168 535.032 445.572 537.913C448.259 543.212 455.361 549.609 463.916 554.251L472.344 558.849L424.776 575.734L418.678 570.106C415.378 566.994 410.315 563.273 407.463 561.726C403.186 559.405 402.604 558.64 404.051 557.306C404.99 556.219 407.102 551.729 408.666 547.191C411.143 540.006 411.291 537.942 409.578 532.274C407.83 525.889 402.44 516.979 399.667 516.023C398.911 515.762 396.794 520.674 394.004 529.584C389.646 543.454 387.72 546.175 387.033 539.169C385.85 527.055 350.286 512.396 335.386 517.978C332.17 519.126 332.796 523.855 336.691 526.467C338.616 527.836 347.023 534.542 355.216 541.457C363.454 548.246 372.286 554.535 374.807 555.404C377.328 556.273 379.923 558.155 380.584 559.511C381.371 560.91 383.462 562.618 385.478 563.314C388.756 564.444 388.877 564.909 387.27 569.573C385.31 575.667 383.962 575.484 376.994 568.287C370.318 561.472 364.245 557.404 355.087 554.105C345.972 550.681 340.187 551.507 338.535 556.297C337.188 560.204 336.054 559.813 326.182 552.038C320.953 547.979 315.546 544.845 310.378 543.063C304.579 541.064 300.85 538.791 296.842 534.871C290.287 528.521 287.644 527.187 287.697 530.307C287.853 531.49 286.832 532.407 285.524 532.52C282.529 532.616 281.829 535.054 283.733 538.531C286.133 543.026 300.121 556.451 303.398 557.581C305.037 558.146 306.749 559.724 307.327 560.91C308.145 563.449 316.608 568.764 325.801 572.78C329.956 574.635 329.157 574.501 322.684 572.41C314.404 569.838 314.109 569.877 313.022 573.028C312.109 575.675 311.558 576.049 309.927 574.641C302.364 567.943 295.874 563.449 291.463 561.928C286.673 560.277 286.334 560.442 285.117 563.972C283.509 568.636 279.54 569.101 269.708 565.711C263.784 563.669 262.78 562.899 261.723 559.009C260.458 554.906 252.751 545.761 249.6 544.675C248.844 544.414 247.562 546.088 246.779 548.357L245.302 552.643L232.514 545.554C217.001 536.962 209.85 535.202 197.098 537.011C191.734 537.841 183.845 538.224 179.546 538.012C175.248 537.799 171.24 537.969 170.645 538.468C170.049 538.968 171.462 541.007 173.844 543.097ZM264.807 591.382C266.198 591.439 267.089 590.899 266.841 590.391C266.593 589.882 265.455 589.913 264.268 590.491C262.699 591.36 262.782 591.53 264.807 591.382ZM465.043 349.715C471.762 348.224 472.067 347.341 467.768 343.038L464.095 339.374L460.096 350.971L465.043 349.715ZM479.055 336.07C478.651 334.379 477.656 332.767 476.773 332.463C474 331.507 474.313 333.871 477.069 336.514C479.49 338.9 479.66 338.817 479.055 336.07ZM507.912 420.909C503.654 433.262 498.673 441.982 495.117 443.295C492.027 444.486 491.762 445.664 494.049 448.85C495.879 451.314 496.809 451.07 507.74 445.954C514.181 442.815 521.036 440.524 522.974 440.628C524.869 440.859 526.56 440.454 526.482 439.863C526.46 437.881 513.884 410.133 512.876 409.786C512.245 409.568 510.085 414.606 507.912 420.909ZM527.542 361.108L524.483 367.528C519.315 378.016 519.272 378.143 523.81 379.707C534.902 383.531 540.597 391.559 537.946 399.248C535.816 405.425 533.53 406.329 526.975 404.069L521.177 402.07L529.119 417.078L537.187 432.13L540.42 425.206C542.146 421.428 543.493 417.521 543.206 416.717C542.963 415.787 543.336 412.248 544.005 408.671C545.022 404.086 544.566 399.274 542.453 391.494C540.909 385.743 538.979 380.706 538.475 380.532C537.845 380.315 537.501 380.901 537.662 381.662C538.271 383.987 534.016 383.649 531.638 381.137C530.512 379.902 529.13 374.912 528.59 369.931L527.542 361.108ZM495.599 507.35C500.615 507.528 500.793 506.602 496.968 501.334C494.973 498.531 493.351 496.279 493.265 496.531C493.335 496.675 493.235 498.498 493.108 500.83L493.107 500.834L493.102 500.932L493.1 500.979C493.08 501.341 493.059 501.714 493.039 502.095C492.826 506.394 493.239 507.241 495.599 507.35ZM514.286 523.1C516.903 522.874 516.946 522.748 514.003 521.875C512.239 521.266 509.292 520.814 507.353 520.71C505.725 520.694 504.883 520.685 504.858 520.822C504.832 520.969 505.745 521.284 507.636 521.936C509.652 522.631 512.682 523.253 514.286 523.1ZM524.913 522.956C524.653 523.713 523.375 524.965 522.019 525.625C520.745 526.456 518.437 529.468 516.973 532.489C515.508 535.51 514.73 537.357 515.412 536.605C516.308 535.645 540.613 525.689 545.433 524.39C545.772 524.224 545.903 523.846 545.738 523.507C545.077 522.151 525.348 521.696 524.913 522.956ZM548.62 538.464C549.642 541.636 550.242 540.715 550.076 536.286C550.05 534.725 549.467 533.96 548.872 534.46C548.151 534.917 548.09 536.729 548.62 538.464Z" fill="url(#paint0_linear_101_2)"/>
<path fill-rule="evenodd" clip-rule="evenodd" d="M266.841 590.391C267.089 590.899 266.198 591.439 264.807 591.382C262.782 591.53 262.699 591.36 264.268 590.491C265.455 589.913 266.593 589.882 266.841 590.391ZM476.773 332.463C477.656 332.767 478.651 334.379 479.055 336.07C479.66 338.817 479.49 338.9 477.069 336.514C474.313 333.871 474 331.507 476.773 332.463ZM550.076 536.286C550.242 540.715 549.642 541.636 548.62 538.464C548.09 536.729 548.151 534.917 548.872 534.46C549.467 533.96 550.05 534.725 550.076 536.286Z" fill="url(#paint1_linear_101_2)"/>
</g>
<defs>
<linearGradient id="paint0_linear_101_2" x1="513" y1="500.5" x2="146" y2="420" gradientUnits="userSpaceOnUse">
<stop stop-color="#4F772D"/>
<stop offset="1" stop-color="#90A955"/>
</linearGradient>
<linearGradient id="paint1_linear_101_2" x1="513" y1="500.5" x2="146" y2="420" gradientUnits="userSpaceOnUse">
<stop stop-color="#4F772D"/>
<stop offset="1" stop-color="#90A955"/>
</linearGradient>
<clipPath id="clip0_101_2">
<rect width="508" height="709" fill="white" transform="matrix(-1 0 0 1 508 0)"/>
</clipPath>
</defs>
</svg>
