<svg width="911" height="1615" viewBox="0 0 911 1615" fill="none" xmlns="http://www.w3.org/2000/svg">
<g clip-path="url(#clip0_97_23)">
<path d="M270.174 267.153C278.861 265.59 292.403 261.186 296.597 258.601C301.872 255.324 312.408 250.169 328.205 243.134C335.93 239.722 343.625 236.1 345.309 235.108C347.052 234.161 352.268 232.718 356.882 231.951C361.541 231.125 367.613 229.667 370.364 228.63C380.494 224.767 393.39 224.105 407.714 226.675C422.037 229.245 433.085 235.182 449.152 248.829C469.368 265.963 471.998 269.344 479.408 287.771C481.046 291.724 482.73 295.617 483.316 296.338C483.797 297.075 484.293 298.292 484.293 299.044C484.353 300.967 487.284 303.072 489.103 302.651C490.35 302.365 490.501 301.914 490.245 300.126C489.629 296.939 490.786 296.022 494.288 296.864L497.444 297.54L497.144 294.309C496.738 289.589 497.519 289.048 502.344 290.882L506.538 292.43L505.17 289.619C502.765 284.81 503.727 284.78 512.64 289.679C517.479 292.37 519.403 293.813 522.139 296.803C525.746 300.636 529.985 308.136 530.646 311.638C530.917 312.78 531.488 314.524 532.014 315.576C532.54 316.628 533.412 319.348 533.938 321.528C534.719 324.744 535.231 325.691 536.373 325.796C538.973 325.962 539.063 325.09 536.809 321.708C534.359 318.086 532.916 312.495 533.667 310.24C533.983 309.444 534.87 308.512 535.666 308.076C537.034 307.505 536.868 306.723 534.058 300.576C530.27 292.475 527.008 283.171 524.874 274.995C523.401 269.193 523.115 268.697 519.162 265.075C512.564 259.093 508.355 252.555 505.094 243.252C503.425 238.712 499.698 229.905 496.677 223.788C490.815 211.689 488.395 204.144 488.364 197.17C488.349 194.81 487.102 188.332 485.509 182.816C481.57 169.154 480.503 162.435 480.458 151.974C480.398 147.044 480.067 139.845 479.781 135.967C479.451 132.15 479.045 124.8 478.804 119.735C478.563 114.67 478.143 109.094 477.827 107.26C477.241 103.908 477.661 99.339 478.608 99.2037C478.864 99.1135 483.358 101.263 488.513 103.908C508.428 114.053 513.133 116.172 517.702 117.344C525.878 119.343 527.787 119.929 532.161 121.613L536.369 123.266L545.011 110.866C554.555 97.2635 559.56 91.7173 565.903 87.6441C568.067 86.2613 571.554 83.2402 573.643 80.9556C577.295 76.8373 583.518 71.9223 585.502 71.5315C586.028 71.4563 587.531 69.9533 588.838 68.2098C590.146 66.4663 593.558 62.5434 596.443 59.4471C601.193 54.3669 601.854 53.3598 603.703 48.6404C608.587 35.8647 609.189 35.9399 612.165 49.6322C615.426 64.1963 617.907 87.568 618.103 104.342C618.133 106.055 618.178 109.752 618.208 112.593C618.374 128.781 613.053 160.299 608.154 172.218L606.035 177.298L608.44 179.101C609.867 180.078 611.912 181.987 613.054 183.22L615.218 185.594L617.082 180.604C618.645 176.516 620.734 173.104 628.023 162.884C637.627 149.326 641.46 144.968 642.723 145.914C643.204 146.275 644.06 150.018 644.662 154.226C645.278 158.54 646.901 164.642 648.209 167.783C650.719 173.705 658.069 186.075 659.016 185.939C660.068 185.789 662.593 177.537 664.562 167.648C667.613 152.182 668.469 149.912 675.623 139.12C678.96 133.92 684.16 125.984 687.046 121.385C692.442 112.938 701.099 102.522 706.299 98.3431C707.592 97.2459 711.439 92.6166 714.656 88.0774C720.908 79.2396 723.328 73.6334 727.355 58.994C728.287 55.7475 729.565 51.9148 730.286 50.5771C731.398 48.2174 731.549 48.1422 733.052 49.2694C735.276 50.9377 739.755 58.2423 743.964 67.0348C746.324 71.9045 748.503 78.5177 750.262 85.9425C752.742 96.1629 752.952 98.3874 752.487 108.277C751.555 125.802 745.859 152.06 738.6 172.261C736.826 177.13 735.098 181.94 734.767 183.007C731.416 194.114 714.087 238.138 710.48 244.826L708.827 247.907L711.667 250.508C713.276 251.996 714.974 253.739 715.455 254.475C716.267 255.648 716.778 255.467 719.784 252.837C721.587 251.184 725.615 248.568 728.666 247.005C731.717 245.442 735.625 243.112 737.369 241.79C741.742 238.588 746.868 236.138 754.909 233.433C759.823 231.764 761.973 230.652 762.409 229.57C763.446 227.06 767.774 219.409 775.244 206.694C782.503 194.384 786.276 186.974 788.575 180.526C789.387 178.317 790.634 176.152 791.551 175.431L793.234 174.063L794.542 177.58C795.294 179.459 797.293 183.682 798.991 186.929C800.644 190.235 802.643 194.835 803.245 197.164C804.387 201.027 807.904 206.859 813.105 213.577L815.254 216.222L823.325 215.23C833.516 214.043 841.842 214.087 848.14 215.335L853.055 216.297L852.198 218.19C851.717 219.333 849.914 222.113 848.26 224.443C844.488 229.598 841.482 235.235 840.55 238.857L839.874 241.638L843.18 240.36C845.014 239.669 849.313 237.444 852.83 235.385C858.827 231.898 866.131 228.922 867.033 229.598C867.273 229.778 870.941 228.02 875.104 225.6C879.373 223.165 885.009 220.535 887.624 219.678C893.771 217.619 905.735 211.561 909.583 208.435C911.371 207.052 912.98 206.286 913.46 206.646C915.324 208.044 909.718 221.03 898.13 242.118C886.843 262.679 886.467 263.43 882.214 271.983C878.953 278.461 868.041 297.143 865.426 300.63C865.02 301.171 865.651 303.711 866.854 306.492C870.341 314.368 871.934 328.526 871.063 343.09C870.642 349.914 870.718 359.082 871.274 363.351C872.987 377.599 871.319 389.217 863.669 415.701C861.039 424.719 858.034 437.119 857.072 443.161C855.268 454.208 853.555 460.25 849.948 468.066C847.077 474.273 831.161 495.12 822.368 504.213C812.824 514.058 813.32 513.021 817.153 515.426C821.121 518.026 824.202 523.813 826.682 533.282C830.034 546.598 835.791 558.712 842.855 567.58C846.312 571.863 847.861 573.306 853.301 576.823C864.965 584.443 877.199 590.049 895.176 596.016C901.819 598.18 912.039 601.712 917.976 603.816C929.67 607.889 941.198 610.429 949.344 610.714C956.634 611.015 961.669 613.57 970.567 621.746C974.279 625.188 980.006 629.952 983.192 632.342C989.385 636.986 989.986 638.189 986.108 638.474C985.161 638.61 973.558 635.544 960.452 631.726C931.729 623.43 919.42 620.304 906.148 617.96C885.256 614.127 870.722 614.218 858.668 618.141C839.294 624.559 825.226 627.535 818.132 626.724C815.351 626.423 813.022 625.521 810.136 623.733L806.003 621.103L802.05 624.244C772.711 647.707 759.515 658.664 741.389 674.566C737.436 678.083 731.86 683.013 728.99 685.463C726.134 688.018 721.069 692.392 717.732 695.338C678.609 729.968 646.009 746.005 612.778 747.103C604.391 747.389 599.942 748.186 581.095 753.026C563.645 757.505 548.329 760.015 539.522 759.985C534.637 759.985 531.3 760.677 524.086 763.157C519.021 764.9 513.94 766.539 512.738 766.764C510.604 767.23 510.423 767.095 510.123 765.366C509.927 764.375 510.213 762.992 510.709 762.33C511.25 761.609 511.641 760.211 511.596 759.144C511.611 756.619 514.962 747.39 518.569 739.95C520.238 736.599 522.101 732.36 522.702 730.557C525.242 723.162 530.202 715.045 540.558 701.488C548.794 690.757 551.454 686.834 553.859 681.874C561.885 665.16 564.304 660.681 568.813 653.917C574.434 645.546 579.214 640.676 588.232 633.912C593.898 629.613 596.979 626.758 608.357 614.718C615.165 607.519 621.328 602.559 628.016 599.027C630.962 597.478 633.637 595.915 633.953 595.494C637.079 591.451 670.957 581.726 689.849 579.456C697.71 578.494 706.217 579.05 711.718 580.734C713.071 581.184 721.112 582.612 729.454 583.89C746.798 586.565 759.243 589.135 766.954 591.629C769.825 592.561 772.966 593.508 773.808 593.763C774.694 593.959 777.685 595.357 780.376 596.905C785.501 599.715 795.181 603.593 802.921 605.922C807.13 607.2 807.235 607.185 808.332 605.096C810.872 600.331 821.633 597.505 833.883 598.332C837.024 598.527 847.064 600.045 856.158 601.698C871.579 604.433 879.048 605.245 878.838 604.147C878.748 603.516 874.089 601.713 860.937 597.204C849.98 593.401 848.943 592.906 839.925 586.894C829.704 579.98 817.395 573.848 812.044 572.841C806.302 571.729 799.839 571.954 787.304 573.638L775.025 575.231L774.634 571.369C774.439 569.249 774.423 567.265 774.649 566.965C775.325 566.063 788.146 564.124 792.985 564.184C795.511 564.199 797.449 563.868 797.179 563.478C796.382 562.41 782.164 559.074 771.808 557.601C751.217 554.746 743.657 554.806 717.564 558.158C704.128 559.917 690.796 562.036 688.015 562.863C685.19 563.75 680.636 564.562 677.87 564.742C669.078 565.193 657.099 569.266 647.254 575.128C644.428 576.767 635.185 583.831 626.633 590.85C571.579 636.077 548.388 656.353 534.741 671.293C527.962 678.703 510.979 703.352 507.507 710.988C499.571 727.957 497.211 736.614 497.227 748.743C497.152 753.102 496.746 757.025 496.325 757.461C494.942 758.678 459.125 732.286 453.188 725.673C447.687 719.481 435.422 703.143 432.672 698.168C429.575 692.652 426.269 683.409 424.149 674.586C421.879 665.087 418.527 638.244 418.843 631.811C419.789 611.009 430.46 588.764 448 571.014C455.59 563.273 459.708 560.162 467.599 556.028C474.393 552.481 476.332 552.15 483.892 552.842C487.92 553.232 487.965 553.172 489.603 550.361C490.505 548.783 491.211 547.34 491.181 547.13C491.151 546.92 488.085 546.499 484.388 546.168C467.434 544.726 451.171 549.25 423.155 563.183C416.888 566.28 407.674 570.548 402.609 572.668C397.544 574.787 387.128 579.657 379.463 583.49C353.071 596.762 335.681 603.541 321.462 606.216C317.014 607.013 310.07 608.381 305.952 609.237C297.715 610.951 277.124 612.229 265.461 611.748C249.153 611.072 227.63 606.203 218.191 601.003L215.049 599.304L218.431 597.801C220.295 596.944 224.939 595.261 228.787 594.013C253.406 585.987 258.02 583.717 264.633 576.277C270.314 569.829 278.491 562.434 284.848 558.09C291.822 553.176 307.844 545.089 316.231 542.173C320.018 540.88 326.106 538.776 329.743 537.559C337.528 534.943 350.65 533.23 359.578 533.725C363.47 533.921 369.497 533.274 375.539 531.982C388.044 529.336 393.756 528.735 400.504 529.381C405.885 529.847 407.794 529.681 405.224 528.975C404.502 528.81 400.91 526.961 397.138 524.977C391.561 522.016 389.637 520.574 386.301 517.132L382.167 512.999L377.343 512.668C371.225 512.307 349.522 508.806 344.968 507.363C343.059 506.777 339.933 505.559 338.129 504.582C336.22 503.621 332.117 501.577 328.886 499.998C324.331 497.804 320.769 495.414 312.713 488.997C300.719 479.438 294.556 473.125 287.462 462.92L282.397 455.645L270.839 458.156C258.304 460.966 255.568 461.733 247.948 464.754C242.672 466.904 240.583 466.934 240.132 464.905C239.772 463.507 243.379 460.2 261.67 445.455L273.468 435.986L271.77 422.595C268.869 398.907 269.109 379.548 272.535 365.21C273.257 362.369 273.828 358.852 273.873 357.289C273.873 355.786 274.309 352.449 274.82 350.014C275.271 347.534 275.556 342.018 275.376 337.75C275.09 330.49 275.586 326.823 276.954 326.627C277.314 326.522 280.395 328.551 283.913 331.001C291.262 336.231 294.449 337.494 307.63 340.334C312.891 341.461 318.707 343.1 320.646 343.896C322.585 344.693 326.177 345.79 328.657 346.241C334.444 347.293 343.657 350.539 350.196 353.846C355.637 356.611 372.711 369.041 375.837 372.512C377.686 374.557 377.851 374.587 380.677 373.324C386.479 370.724 390.897 369.717 404.259 368.183C419.725 366.349 424.94 366.409 436.048 368.634C440.422 369.566 444.194 370.046 444.42 369.746C444.645 369.445 442.901 368.138 440.331 366.68C432.561 362.261 430.532 360.457 429.164 356.52C427.646 352.281 428.337 347.351 431.162 342.707C432.335 340.768 433.116 339.1 432.996 339.009C432.876 338.919 430.471 338.619 427.705 338.423C420.221 337.882 409.549 339.461 399.795 342.572C389.74 345.834 383.683 346.27 369.359 344.827C363.482 344.271 355.546 343.956 351.698 344.076C347.806 344.256 341.899 343.866 338.577 343.159C332.505 341.987 332.445 341.942 319.669 333.3C299.604 319.848 295.215 315.43 289.729 302.955C284.393 290.78 280.079 284.633 272.263 278.02C264.703 271.693 262.884 269.859 263.561 268.957C263.937 268.581 266.882 267.785 270.174 267.153ZM409.025 421.45C409.596 423.945 411.88 430.919 414.18 436.871C419.005 449.225 420.192 453.028 421.29 459.581L422.071 464.3L425.964 465.623C434.035 468.388 441.506 477.466 446.917 491.294C448.405 494.946 450.133 498.403 450.855 498.944C454.402 501.605 454.913 508.188 451.982 515.102C451.171 516.935 450.645 518.513 450.765 518.604C453.951 520.993 471.687 530.913 476.151 532.852C484.432 536.339 485.124 536.293 480.915 532.386C476.03 527.877 466.095 515.447 464.367 511.614C463.48 509.54 463.225 507.376 463.615 505.227L464.337 502.01L457.693 496.84C449.787 490.723 444.437 484.08 439.161 473.829C434.832 465.322 433.224 457.071 433.825 447.001C434.08 442.777 434.005 435.863 433.734 431.715C432.772 420.097 432.877 415.197 434.2 408.674C434.861 405.412 435.252 402.512 435.147 402.151C434.981 401.745 431.269 403.564 426.895 406.014C422.536 408.569 416.765 411.755 414.06 413.108C411.414 414.506 408.979 415.874 408.664 416.295C408.333 416.61 408.513 419 409.025 421.45ZM549.824 299.719C548.216 303.491 548.231 303.597 550.516 306.437C552.876 309.428 553.913 313.306 553.868 319.754C553.838 321.798 553.928 323.556 554.168 323.737C554.349 323.872 557.46 323.857 561.082 323.662L567.695 323.361L566.207 315.2C565.411 310.751 564.93 305.881 565.245 304.333C566.072 300.35 564.524 298.155 558.677 295.18C553.221 292.309 553.071 292.384 549.824 299.719ZM429.197 540.849C430.174 543.178 431.407 545.418 431.872 545.673C432.353 546.034 434.758 545.207 437.268 543.99C441.717 541.69 444.407 541.359 459.663 541.058C461.797 540.968 462.669 540.683 462.068 540.232C461.166 539.555 458.521 539.45 449.548 539.766C447.248 539.826 444.783 539.48 444.122 538.985C443.04 538.173 443.1 537.842 445.084 535.948C447.113 533.994 447.128 533.724 445.925 532.822C443.4 530.928 439.583 531.259 433.511 533.844C430.219 535.227 427.499 536.475 427.453 536.535C427.348 536.55 428.16 538.474 429.197 540.849ZM479.652 499.876C479.773 499.966 480.238 500.597 480.599 501.243C481.276 502.22 481.426 502.145 481.636 500.612C481.772 499.68 482.373 498.252 482.899 497.426C483.876 495.998 483.876 495.998 482.267 497.14C480.419 498.478 479.292 499.605 479.652 499.876ZM483.44 505.346C484.372 506.609 486.176 511.719 487.408 516.589C490.805 529.845 494.277 535.361 500.034 536.579C502.093 537.09 502.093 537.09 507.428 529.725C510.389 525.652 513.576 521.654 514.583 520.812L516.416 519.369L511.622 516.619C508.991 515.116 504.197 511.614 500.905 508.863L494.938 503.918L489.452 503.468C486.416 503.257 483.56 502.806 483.139 502.491C481.576 501.318 481.772 503.062 483.44 505.346ZM591.309 383.06C596.539 385.104 601.244 387.223 601.77 387.899C602.296 388.576 602.927 388.861 603.153 388.561C603.378 388.26 602.957 387.569 602.176 386.983C601.394 386.396 599.034 383.406 596.87 380.279L592.992 374.553L590.632 375.319C584.38 377.394 581.584 378.491 581.644 378.912C581.735 379.167 586.033 381.076 591.309 383.06ZM524.383 566.488C525.029 571.388 526.457 578.001 527.72 581.203C528.877 584.419 529.944 587.756 530.02 588.657C530.095 591.062 530.696 591.137 534.138 588.928C554.699 575.791 584.218 568.997 609.904 571.447C617.359 572.153 627.159 573.866 628.241 574.678C629.804 575.85 631.142 575.069 632.344 572.213C633.366 569.598 633.862 569.312 640.31 566.727C647.013 564.051 649.644 563.3 663.772 559.993C671.407 558.204 672.715 556.461 665.5 557.813C662.825 558.249 660.195 558.249 659.473 557.708C658.211 556.761 625.505 554.027 609.874 553.576C605.019 553.411 598.752 553.501 596.046 553.726C593.296 554.012 589.222 553.681 587.088 553.02C584.293 552.239 579.558 552.164 571.292 552.915C564.769 553.471 557.99 554.118 556.216 554.479C554.383 554.794 550.746 554.885 548.085 554.674C543.531 554.359 524.232 556.418 523.601 557.26C523.421 557.5 523.797 561.633 524.383 566.488ZM540.194 540.02C540.374 540.531 551.617 541.823 562.784 542.59C563.761 542.665 563.175 541.943 560.71 540.095C558.23 538.141 556.336 537.284 553.436 536.893C551.286 536.503 548.491 535.721 547.228 535.15C545.379 534.233 544.583 534.293 543.456 535.421C540.825 538.051 539.878 539.314 540.194 540.02ZM581.556 504.157C585.359 503.722 588.696 506.788 592.333 513.837C596.857 522.584 601.156 527.499 608.881 532.729C614.277 536.306 616.637 537.418 622.92 539.312C637.845 543.836 648.576 545.684 660.134 545.804L666.267 545.895L669.844 542.002C674.398 537.057 675.615 534.306 674.368 531.962C673.496 530.368 672.699 530.053 668.972 529.512C666.567 529.211 662.343 528.58 659.488 528.129C656.737 527.663 650.785 527.333 646.291 527.438C637.033 527.634 631.817 526.822 626.256 524.342C624.137 523.41 618.982 521.517 614.818 520.179C600.675 515.49 592.904 511.071 587.749 504.668C585.479 501.933 585.419 501.888 582.248 502.609C578.565 503.511 578.069 504.548 581.556 504.157ZM680.151 377.076C681.489 383.81 683.939 392.317 684.51 392.182C684.721 392.152 684.901 390.408 684.766 388.334C684.691 386.305 684.991 383.149 685.457 381.525C686.72 377.212 685.622 374.04 682.496 372.447C681.113 371.786 679.836 371.485 679.61 371.786C679.43 372.026 679.67 374.461 680.151 377.076ZM701.254 374.867C702.576 376.986 701.825 380.368 698.428 386.65C696.985 389.326 695.482 393.459 695.062 395.774C694.22 400.779 695.017 409.361 696.986 415.628C697.707 418.048 698.759 422.031 699.225 424.541C700.218 429.982 702.502 436.58 707.011 447.477C709.822 454.376 714.361 463.604 715.143 464.19C715.263 464.28 714.993 462.011 714.542 459.23C713.895 455.082 714.016 453.669 715.233 452.046C716.045 450.964 717.503 449.897 718.389 449.716C719.952 449.385 719.907 449.07 717.142 445.493C712.602 439.646 709.581 431.65 709.371 425.292C709.205 417.747 710.287 413.298 715.157 400.793C719.41 389.987 719.41 389.987 718.689 383.809C718.298 380.322 718.223 375.287 718.538 372.612C718.899 369.876 719.109 367.592 718.989 367.502C718.809 367.366 717.742 367.787 716.584 368.328C715.382 368.93 711.309 370.102 707.521 371.019C703.673 371.891 700.472 372.777 700.382 372.898C700.247 373.078 700.637 373.935 701.254 374.867ZM670.819 436.866C670.864 437.182 671.691 437.708 672.577 437.903C673.479 438.204 676.049 439.286 678.349 440.353C682.091 442.127 682.362 442.142 681.535 440.488C680.889 439.346 680.994 438.204 681.716 437.242C682.933 435.619 682.076 434.131 679.221 432.928C676.545 431.861 670.503 434.657 670.819 436.866ZM677.252 456.345C678.229 459.802 679.071 463.439 679.011 464.521C678.981 466.19 679.236 466.475 681.431 467.182C686.721 468.895 692.733 474.907 694.612 480.543C695.183 482.287 695.95 483.143 697.498 483.835C698.64 484.316 702.142 485.909 705.193 487.352C711.055 490.057 714.557 491.274 716.601 491.304C717.458 491.289 716.015 488.328 711.296 480.844C700.173 463.108 694.056 456.36 685.413 452.602C681.175 450.739 675.974 449.281 675.523 449.882C675.433 450.002 676.17 452.903 677.252 456.345ZM687.517 444.411C689.381 445.809 691.335 446.335 691.831 445.674C692.282 445.072 689.967 443.149 688.119 442.607C686.27 442.066 685.894 443.194 687.517 444.411ZM688.405 500.969C688.555 502.397 689.322 504.005 689.983 504.501C693.591 507.207 700.099 505.794 699.618 502.427C699.242 500.172 692.794 495.618 690.75 496.34C688.48 496.986 687.939 498.083 688.405 500.969ZM732.352 448.634C729.737 455.878 729.076 458.764 728.76 465.948C727.949 481.309 730.745 493.739 736.877 502.096C744.242 511.94 753.35 521.589 752.915 518.914C752.779 518.343 751.862 516.81 750.855 515.397C749.833 513.879 748.721 510.602 748.315 507.386C747.699 503.072 747.849 501.119 749.232 497.647C750.134 495.317 751.411 491.86 752.057 489.996C753.59 485.322 754.522 484.33 757.618 483.834L760.399 483.383L757.453 480.046C752.433 474.215 748.179 466.609 742.573 453.669C736.876 440.472 736.245 439.06 735.839 439.601C735.704 439.781 734.141 443.869 732.352 448.634ZM701.767 510.333C701.872 511.069 702.368 511.911 702.849 512.272C705.555 514.301 705.615 522.612 703.075 528.128L701.843 530.774L708.501 535.673C718.226 542.873 724.102 545.307 731.061 544.796C739.147 544.285 754.253 544.435 762.309 545.217C770.681 545.953 770.2 545.968 770.094 545.231C770.049 544.916 766.698 542.872 762.79 540.692C751.833 534.636 713.731 511.039 708.2 506.891C707.358 506.26 706.066 506.229 704.713 506.906C702.083 508.033 701.542 508.755 701.767 510.333ZM676.713 546.871C681.823 548.074 686.948 548.63 694.283 548.87C702.865 549.201 709.162 548.945 708.321 548.314C707.96 548.043 704.623 546.856 700.911 545.669C697.183 544.376 692.329 542.332 690.089 540.934C685.385 538.064 684.378 538.154 679.072 542.347C674.248 546.15 674.157 546.27 676.713 546.871ZM766.622 529.194C767.99 528.999 766.953 528.127 764.172 527.075L762.354 526.369L763.962 527.857C764.834 528.698 765.991 529.285 766.622 529.194ZM792.203 520.762C792.519 522.596 792.444 525.076 791.963 526.218C791.407 527.586 791.632 529.54 792.79 532.38C796.998 542.676 806.212 552.31 819.814 560.727C829.704 566.829 832.289 567.64 827.63 563.206C822.234 558.126 811.773 546.148 808.196 541.022C801.161 530.862 798.095 520.672 801.281 518.177C802.003 517.591 802.048 517.155 801.492 517.019C800.425 516.689 792.864 514.119 791.226 513.548C790.43 513.232 790.324 513.623 790.926 515.201C791.316 516.433 791.933 518.868 792.203 520.762ZM781.532 539.249C782.449 540.031 783.351 540.331 783.576 540.031C784.253 539.129 782.314 536.829 780.209 536.003C778.391 535.296 778.286 535.311 779.112 536.589C779.548 537.386 780.63 538.573 781.532 539.249Z" fill="black" fill-opacity="0.1"/>
<path d="M895.855 759.318C897.192 759.288 897.207 759.393 896.08 760.52C895.434 761.257 894.412 761.617 893.856 761.482C892.608 761.016 893.991 759.423 895.855 759.318Z" fill="black" fill-opacity="0.1"/>
<path d="M901.686 752.043C902.227 752.073 902.062 752.795 901.386 753.696C900.709 754.598 900.063 754.959 899.883 754.448C899.657 753.997 899.823 753.276 900.183 752.795C900.544 752.314 901.19 751.953 901.686 752.043Z" fill="black" fill-opacity="0.1"/>
<path d="M405.612 451.443C407.883 450.131 411.451 447.838 413.454 446.505C415.529 445.111 418.193 443.966 419.416 443.927C422.545 443.767 422.108 445.019 415.685 455.15C412.962 459.611 409.676 466.059 408.519 469.559C406.508 475.295 405.483 485.715 406.651 487.23C406.961 487.593 406.775 492.525 406.184 498.305C405.495 506.177 405.694 510.529 407.238 515.868C411.578 532.132 411.659 543.995 407.424 564.19C405.677 572.589 405.169 578.172 405.782 582.421C406.733 589.272 405.383 596.076 401.011 606.843C398.158 613.799 398.105 614.473 399.791 621.449C404.252 639.619 405.309 650.272 404.589 668.847C404.285 676.14 404.48 677.104 408.115 683.421C412.276 690.795 416.419 701.826 416.886 707.08C417.079 708.925 418.745 715.289 420.567 721.395C422.389 727.501 423.942 733.585 424.105 734.953C424.57 741.088 425.745 749.378 426.241 749.959C426.551 750.323 428.189 750.181 429.92 749.707C432.916 748.656 432.999 748.459 433.238 742.855C433.516 738.473 432.715 734.887 430.065 728.106L426.643 719.096L427.786 701.164C428.928 684.113 428.956 675.172 427.839 673.864C426.609 672.277 431.079 659.417 433.694 657.184C434.493 656.502 434.633 653.871 434.142 650.648C433.211 644.409 434.091 639.261 437.16 632.999C438.294 630.649 440.616 624.396 442.243 619.239C445.913 607.062 448.73 602.271 456.59 593.676C460.888 589.001 464.919 583.424 468.682 576.946L474.192 567.217L485.534 558.287C491.677 553.419 499.811 547.353 503.535 544.801C507.322 542.321 514.875 536.751 520.426 532.514C531.975 523.533 533.125 523.555 530.362 532.823C529.382 535.795 528.358 540.185 528.032 542.599C527.706 545.012 526.691 550.149 525.783 553.939C523.296 564.855 522.602 570.22 523.215 574.469C523.449 576.656 523.504 580.251 523.251 582.602C522.132 593.354 521.546 606.791 522.045 611.641C522.809 618.273 522.513 621.163 519.914 630.918C518.62 636.168 518.239 640.135 518.927 643.442C520.467 650.542 521.02 658.986 520.599 667.761C520.394 672.081 520.341 677.904 520.45 680.825C520.638 685.312 518.266 695.627 514.618 706.654C514.025 708.165 513.767 713.158 513.944 717.78C514.347 728.991 511.688 737.792 498.75 768.683C488.56 793.084 488.112 794.471 489.786 796.433C490.779 797.595 491.886 798.157 492.333 797.65C494.958 795.282 496.337 794.984 498.945 796.274C502.268 797.959 504.086 800.677 503.955 804.054C503.97 807.307 504.698 810.955 505.69 812.118C506.125 812.626 506.835 814.782 507.339 816.99C507.842 819.198 508.636 821.158 509.029 821.324C509.495 821.429 509.916 823.833 509.9 826.61C509.881 831.148 510.108 831.707 512.106 832.136C513.37 832.439 515.553 833.966 517.041 835.709C520.205 839.414 526.609 844.12 527.408 843.437C527.771 843.127 527.37 841.334 526.576 839.374C524.359 833.983 522.027 824.043 521.84 818.675C521.663 814.054 521.399 811.391 519.649 800.074C519.312 797.473 519.567 789.092 520.099 781.478C520.767 773.874 520.886 760.333 520.51 751.36C519.385 727.829 519.918 720.215 524.079 706.112C526.04 699.288 528.371 688.632 529.201 682.396C530.937 668.982 532.613 664.914 541.56 651.12C545.332 645.388 549.219 639.054 550.197 636.963C556.356 624.169 557.863 621.375 561.625 615.777C563.859 612.362 566.187 608.616 566.686 607.436C567.269 606.059 569.387 604.126 572.177 602.245C574.615 600.54 576.733 598.607 576.931 597.81C577.057 597.074 582.891 590.962 589.867 584.127C596.905 577.365 604.835 569.588 607.555 566.889C610.275 564.191 615.131 560.169 618.358 557.917C625.101 553.164 626.427 553.539 625.399 559.692C624.833 563.441 626.129 578.787 627.366 582.002C628.314 584.583 629.754 595.537 629.621 599.795C629.524 601.888 630.304 605.743 631.387 608.335C634.449 615.894 635.774 627.449 635.116 640.947C634.771 647.898 634.644 654.664 634.952 655.907C635.198 657.079 634.935 659.565 634.32 661.346C633.622 663.323 633.812 666.929 634.726 670.795C639.732 691.515 638.902 708.049 631.89 728.229C630.671 731.656 629.727 737.611 629.699 741.403C629.661 745.33 628.871 751.907 627.92 756.236C626.896 760.627 626.336 766.003 626.57 768.19C627.212 773.796 622.404 790.084 618.237 796.531C615.681 800.598 614.618 803.766 613.725 809.929C611.844 823.467 602.261 844.46 589.533 863.24C586.925 867.099 584.742 870.722 584.689 871.395C584.502 872.058 583.66 873.279 582.716 874.085C581.771 874.891 579.578 878.648 577.851 882.509L574.594 889.434L582.679 903.757C591.775 919.854 594.241 925.537 595.253 932.459C596.184 938.698 600.544 955.573 601.598 956.808C602.032 957.317 602.061 958.674 601.696 959.865C601.331 961.056 601.297 962.34 601.607 962.703C601.918 963.067 602.035 966.735 601.778 970.847C601.522 974.96 602.151 981.581 603.117 985.655C604.505 991.252 604.764 996.557 603.861 1008C602.957 1020.33 603.054 1023.39 604.564 1024.86C605.578 1025.76 607.176 1029.54 608.174 1033.21C609.954 1039.85 611.781 1043.32 617.712 1051.44C619.427 1053.74 622.204 1058.91 623.865 1062.77C626.66 1069.42 626.959 1069.92 629.052 1070.02C631.083 1070.04 631.239 1069.78 631.316 1067.08C631.495 1060.52 629.685 1048.25 626.243 1033.48C615.978 989.243 612.183 942.873 613.954 884.339C615.433 837.232 618.655 816.144 627.97 794.249C633.705 780.812 638.838 773.29 647.805 765.256C655.392 758.402 655.693 758.019 659.128 749.685C662.553 741.486 662.937 740.907 668.967 735.759C678.4 727.83 690.319 720.165 695.232 718.858C697.658 718.169 701.629 716.788 704.087 715.694C709.769 713.229 733.024 710.455 734.036 712.229C734.459 712.872 733.855 714.518 732.588 715.976C731.456 717.445 729.854 720.571 729.125 722.953C726.935 730.097 722.341 742.811 721.374 744.768C719.939 747.5 716.591 759.025 717.087 759.606C718.203 760.914 715.475 784.344 713.726 788.475C712.644 791.032 711.848 795.102 711.875 797.34C711.964 799.651 711.975 804.665 711.874 808.519C711.715 815.688 711.724 816.434 713.254 823.669C714.136 827.939 713.327 833.905 710.573 843.919C709.717 847.036 708.803 853.468 708.421 858.316C707.697 868.354 706.932 872.901 705.339 876.772C704.756 878.149 704.317 880.283 704.304 881.298C704.374 882.997 704.498 883.143 705.66 882.15C706.459 881.468 707.935 879.077 708.996 876.79C709.985 874.564 711.221 872.629 711.636 872.526C712.869 872.352 718.24 865.255 720.185 861.208C725.241 850.36 726.965 848.26 741.857 835.544C751.53 827.16 756.439 822.466 757.407 820.51C758.53 818.294 760.564 816.558 765.938 812.849C769.797 810.307 776.376 805.067 780.465 801.324C786.018 796.206 788.467 794.366 790.104 794.224C792.28 794.125 792.342 794.198 792.275 796.767C792.23 798.186 791.54 801.79 790.571 804.627C789.465 808.334 789.373 812.934 790.209 820.385C790.829 826.261 791.375 833.079 791.432 835.794C791.417 838.57 792.609 843.204 794.157 846.781C795.879 850.711 796.824 855.054 796.89 858.514C796.863 861.426 797.939 867.54 799.143 872.039C800.419 876.476 801.227 881.689 801.006 883.636C800.785 885.583 801.452 894.308 802.523 903.065C804.584 919.014 804.3 926.918 801.656 932.943C800.834 934.775 800.56 937.396 800.992 938.785C802.249 942.611 801.32 956.969 799.584 960.084C798.783 961.647 798.205 965.531 798.427 968.733C798.858 976.152 797.654 982.832 793.418 997.878C791.613 1004.44 789.828 1011.62 789.45 1013.83C787.626 1024.93 779.335 1042.43 767.521 1059.93C765.838 1062.37 762.758 1068.77 760.78 1074.1C753.803 1092.12 751.723 1096.15 744.64 1105.21C740.807 1109.99 735.751 1115.69 733.477 1117.88C730.997 1120.13 727.205 1125.25 724.388 1130.04C720.418 1136.57 718.019 1139.5 712.393 1144.68C708.522 1148.24 703.258 1153.99 700.744 1157.51C698.23 1161.04 694.844 1165.31 693.276 1167.16C689.475 1171.53 685.629 1183.36 686.147 1188.82C686.798 1195.17 686.052 1200.33 684.026 1203.69C682.071 1206.99 681.534 1217.25 682.835 1224.8C683.368 1227.49 685.406 1234.29 687.53 1240.01C691.579 1251.37 693.174 1256.92 693.579 1262.1C693.772 1263.95 694.894 1267.76 696.09 1270.63C700.762 1281.84 701.492 1284.61 701.275 1289.94C701.176 1292.92 701.605 1296.07 702.287 1296.87C702.907 1297.59 703.267 1299.04 703.047 1300.11C702.606 1303.13 705.182 1316 707.101 1320.01C708.381 1322.69 708.542 1324.93 707.612 1328.99C706.599 1333.25 706.842 1336.18 708.816 1343.79C710.236 1348.98 711.064 1354.81 710.697 1356.88C709.911 1361.7 711.113 1372.23 712.501 1372.67C713.163 1372.86 715.129 1374.57 717.011 1376.48C718.892 1378.39 722.451 1381.38 724.955 1383.14C728.038 1385.28 730.923 1388.22 733.857 1392.24C737.887 1397.85 738.27 1398.15 739.65 1396.97C743.137 1393.99 750.206 1398 750.869 1403.34C751.287 1406.63 754.576 1409.6 764.593 1415.74C769.054 1418.46 773.173 1420.34 775.401 1420.45C778.902 1420.73 779.285 1421.03 782.943 1426.19L786.848 1431.65L799.821 1436.4L812.856 1441.22L810.458 1443.27C809.151 1444.39 805.231 1445.97 801.769 1446.92C798.245 1447.79 795.114 1448.84 794.751 1449.15C794.387 1449.46 791.258 1449.62 787.674 1449.54C782.804 1449.42 780.681 1448.85 778.458 1446.98C776.937 1445.64 772.922 1443.29 769.527 1441.67C763.978 1439 760.44 1436.62 755.568 1432.24C752.724 1429.64 738.321 1419.83 734.285 1417.75C732.339 1416.65 730.34 1416.22 729.832 1416.66C728.306 1417.96 717.554 1411.69 713.449 1407.03C712.705 1406.16 712.191 1404.09 712.257 1402.4C712.457 1400.72 712.108 1399.13 711.652 1398.89C711.135 1398.58 708.87 1396.37 706.481 1394.02C699.46 1386.82 693.57 1384.19 682.258 1383.3C676.871 1382.87 672.055 1382.09 671.559 1381.51C671.125 1381 668.711 1380.67 666.256 1380.88C663.872 1381.04 660.899 1380.94 659.832 1380.72C658.704 1380.43 657.336 1380.59 656.827 1381.02C656.319 1381.46 654.465 1380.9 652.727 1379.75C647.501 1376.43 637.601 1373.95 620.551 1371.93C611.757 1370.9 600.778 1369.22 596.242 1368.32C589.241 1366.89 586.526 1366.94 580.172 1368.48C575.342 1369.59 569 1370.1 563.064 1369.77C557.874 1369.43 551.586 1369.27 549.203 1369.42C541.442 1369.89 529.411 1376.4 520.059 1385.01C508.144 1396.06 505.644 1397.7 496.821 1400.46C480.846 1405.43 481.053 1405.38 463.351 1419.36C445.638 1433.48 444.715 1434.02 435.462 1434.51C427.773 1434.92 421.646 1437.01 408.6 1443.5C393.936 1450.75 387.073 1452.71 373.52 1453.61C354.599 1454.69 337.385 1452.19 325.968 1446.61C322.966 1445.15 320.542 1444.96 316.417 1445.72C313.391 1446.3 305.713 1446.57 299.362 1446.34C287.272 1445.86 279.022 1447.38 275.027 1450.79C271.903 1453.46 265.28 1454.97 258.245 1454.82C255.075 1454.64 248.411 1455.81 242.865 1457.4C237.526 1458.95 230.125 1460.87 226.331 1461.72C221.708 1462.78 217.851 1464.44 214.345 1466.81C208.825 1470.64 203.164 1472.84 202.172 1471.68C201.8 1471.24 201.562 1470.82 201.635 1470.75C201.78 1470.63 204.626 1467.2 208.125 1463.2C215.373 1454.63 233.393 1437.48 235.092 1437.41C235.765 1437.47 237.985 1435.95 240.165 1434.09C242.271 1432.29 244.844 1430.6 245.808 1430.4C246.772 1430.21 249.832 1428.35 252.633 1426.33C255.434 1424.32 259.676 1422.08 262.175 1421.32C264.673 1420.57 270.118 1417.68 274.268 1414.89C278.479 1412.18 283.385 1409.24 285.138 1408.5C289.7 1406.49 302.782 1402.98 307.912 1402.37C310.306 1402.08 312.866 1401.4 313.582 1400.92C316.01 1399.35 319.741 1398.42 322.559 1398.78C324.04 1398.9 325.677 1398.75 326.186 1398.32C326.767 1397.82 328.394 1397.82 329.916 1398.28C331.966 1398.91 332.795 1398.71 333.316 1397.26C333.66 1396.33 334.335 1395.51 334.739 1395.54C335.951 1395.63 341.541 1392.62 350.441 1387.16C360.835 1380.79 377.643 1373.85 392.798 1369.83C416.049 1363.67 456.693 1358.61 477.921 1359.2C483.94 1359.33 495.938 1359.26 504.703 1358.94C513.396 1358.67 528.688 1358.93 538.592 1359.64C554.908 1360.66 560.762 1360.31 560.859 1358.21C561.038 1356.8 547.631 1351.55 534.118 1347.64C526.497 1345.48 517.116 1342.43 513.182 1340.77C508.648 1338.99 503.252 1337.82 498.528 1337.58C487.796 1337.07 467.092 1338.42 458.832 1340.08C454.904 1340.92 447.908 1341.99 443.328 1342.51C438.747 1343.03 430.581 1344.35 425.346 1345.43C415.293 1347.48 407.147 1348.54 405.687 1348.15C405.159 1347.97 402.9 1348.27 400.547 1348.9C398.131 1349.45 390.556 1350.14 383.687 1350.48C376.755 1350.75 367.521 1351.85 363.303 1352.94C359.084 1354.03 351.994 1355.44 347.683 1355.98C343.3 1356.58 337.33 1357.53 334.376 1358.04C328.251 1359.25 322.469 1359.54 311.394 1359.08C307.074 1358.87 303.054 1359.17 302.338 1359.65C298.208 1363.05 283.265 1364.38 270.815 1362.45C260.976 1360.93 258.109 1359.48 254.834 1354.62C252.107 1350.54 252.045 1350.47 248.542 1351.07C242.976 1352.06 235.362 1351.53 230.485 1349.79C228.042 1348.98 224.292 1348.42 222.313 1348.6C205.37 1350.38 187.257 1346.38 177.036 1338.53C175.567 1337.39 171.498 1335.72 168.123 1334.71C164.737 1333.83 151.961 1329.17 139.869 1324.42C112.33 1313.64 102.317 1310.89 85.1414 1309.6C77.7347 1309.02 71.3644 1308.18 70.9303 1307.67C70.3721 1307.02 71.2863 1305.73 73.6836 1303.69C75.7177 1301.95 78.2105 1298.69 79.5003 1296.08C81.0505 1292.75 83.9579 1289.39 90.4144 1283.12C95.1895 1278.42 99.4985 1273.61 100.009 1272.29C100.519 1270.98 101.226 1269.74 101.786 1269.52C102.273 1269.35 105.168 1267.01 108.085 1264.39C111.364 1261.47 115.016 1258.98 117.598 1258.03C119.837 1257.12 122.378 1255.83 123.25 1255.08C124.049 1254.4 127.201 1253.09 130.249 1252.25C133.991 1251.19 138.295 1249.02 143.742 1245.25C148.752 1241.85 153.067 1239.55 155.337 1239.12C157.326 1238.8 159.421 1238.02 160.002 1237.52C161.31 1236.4 172.919 1233.53 174.441 1233.98C174.969 1234.16 179.778 1233.32 185.023 1232.11C195.036 1229.71 214.836 1229.51 216.966 1231.71C218.465 1233.32 226.929 1233.38 232.672 1231.87C238.829 1230.25 253.331 1231.94 261.541 1235.23C265.744 1236.91 272.89 1238.22 283.114 1239.16C291.453 1239.96 301.707 1241.37 305.901 1242.31C313.089 1243.96 316.039 1245.21 335.728 1254.15C340.634 1256.37 344.983 1257.93 345.419 1257.56C345.782 1257.25 348.227 1257.17 350.786 1257.37C353.272 1257.63 355.375 1257.6 355.396 1257.33C355.481 1256.25 336.691 1243.66 332.229 1241.81C329.403 1240.71 321.127 1239.11 313.473 1238.24C285.07 1234.98 275.066 1232.97 262.995 1227.96C256.628 1225.35 251.895 1224.37 240.386 1223.4C228.204 1222.37 224.207 1221.51 216.328 1218.32C208.512 1215.19 204.649 1214.35 194.611 1213.62C169.884 1211.88 158.843 1210.13 153.451 1207.19C150.729 1205.62 145.78 1203.95 142.558 1203.56C136.457 1202.74 128.517 1199.47 120.57 1194.57C116.503 1192.02 110.85 1189.81 108.478 1189.83C108.074 1189.79 104.585 1188.5 100.775 1186.98C93.228 1183.88 84.7524 1178.81 79.5497 1174.33C73.5195 1169.18 68.115 1167.27 59.3917 1167.05C54.9265 1166.97 51.1043 1166.47 51.0848 1165.86C50.7568 1164 53.2302 1160.13 56.8322 1156.55C58.6696 1154.73 61.8465 1151.39 63.9124 1149.25C66.944 1146.04 68.9355 1144.84 74.2334 1142.95C84.7052 1139.04 93.9315 1136.31 96.5008 1136.37C97.7855 1136.41 100.854 1135.3 103.406 1133.87C106.019 1132.52 109.15 1131.48 110.559 1131.66C111.833 1131.82 113.263 1131.73 113.699 1131.36C115.297 1130 113.87 1128.33 110.576 1128C102.59 1127.03 90.5479 1123.37 83.8515 1119.79C67.985 1111.36 63.4505 1109.58 57.9911 1109.22C54.9558 1109.05 50.9459 1109.21 49.0801 1109.67C44.1152 1110.77 42.6071 1108.41 45.5269 1104.04C49.1218 1098.83 64.0212 1087.74 69.7852 1085.96C72.2109 1085.27 74.8032 1084.19 75.457 1083.63C76.9825 1082.33 85.7108 1079.9 91.2445 1079.32C93.7004 1079.11 96.4061 1078.3 97.2778 1077.56C100.184 1075.08 106.493 1074.97 127.273 1076.94L147.991 1078.85L162.562 1087.38C177.516 1096.22 180.716 1096.87 173.281 1089.78C171.016 1087.57 163.375 1079.65 156.313 1072.12L143.43 1058.5L140.734 1048.87C139.325 1043.54 137.491 1038.45 136.684 1037.51C134.328 1034.75 130.769 1026.61 129.257 1020.86C127.848 1015.54 128.554 1004.01 131.228 987.28C131.9 983.064 132.073 979.148 131.639 978.64C131.267 978.204 131.523 974.091 132.351 969.617C135.022 954.651 136.423 953.203 141.61 960.455C146.848 967.914 158.806 977.8 172.187 985.969C179.689 990.49 181.086 991.684 187.649 999.518C194.647 1007.86 197.095 1012.05 199.319 1019.07C199.854 1020.87 201.899 1024.15 203.884 1026.48C208.66 1032.07 213.191 1040.76 214.971 1047.4C216.534 1053.35 219.726 1058.42 219.557 1054.54C219.508 1053.45 218.756 1050.96 217.889 1049.06C210.132 1031.44 199.738 1006.03 198.978 1002.78C197.857 998.087 198.708 976.135 200.166 972.252C200.687 970.803 203.451 966.685 206.1 963.167C208.821 959.588 211.232 955.645 211.39 954.505C211.558 953.231 211.923 952.041 212.214 951.792C212.504 951.544 213.13 949.629 213.569 947.495C214.531 943.032 219.523 932.991 221.63 931.193C222.938 930.076 222.814 929.931 219.254 927.821C217.246 926.647 213.188 924.836 210.227 923.722C207.193 922.67 201.314 919.903 196.957 917.594C192.661 915.359 185.58 912.362 181.138 911.131C173.921 909.003 172.636 908.97 169.256 910.6C162.836 913.821 163.908 911.398 172.055 904.317C176.351 900.523 180.191 897.37 180.689 897.07C184.775 895.089 192.016 890.036 203.907 881.014C211.689 875.123 218.505 870.308 219.189 870.227C219.873 870.145 222.115 868.357 224.17 866.351C236.844 854.274 261.097 843.99 287.608 839.44C302.792 836.775 316.329 833.506 316.476 832.501C316.51 831.217 300.617 825.696 295.634 825.303C293.075 825.101 287.469 825.743 283.126 826.688C278.845 827.706 273.694 828.587 271.788 828.708C265.726 829.111 255.534 827.765 247.374 825.564C242.993 824.405 236.179 823.191 232.138 822.872C226.948 822.531 223.169 821.488 219.329 819.491C209.776 814.334 202.911 812.032 197.42 812.073C194.498 812.181 189.216 811.291 185.633 810.331C174.771 807.171 161.224 804.545 157.214 804.703C152.863 804.902 148.83 806.21 144.785 808.534C143.218 809.494 141.487 809.968 140.908 809.583C138.9 808.409 141.737 804.228 149.823 796.193C160.328 785.842 164.905 781.935 178.881 771.383L190.336 762.733L200.661 759.82C206.414 758.174 215.952 754.928 221.966 752.557C228.405 749.948 233.744 748.404 235.007 748.706C236.136 748.999 239.784 748.27 243.133 747.043C249.903 744.528 256.204 743.67 263.062 744.346C265.89 744.569 268.564 744.17 269.508 743.363C271.179 741.937 271.117 741.864 263.818 739.053C259.801 737.585 254.263 734.777 251.49 733C245.313 728.854 237.642 725.607 225.796 722.031C212.822 718.163 206.673 715.375 196.543 708.953C184.798 701.523 179.498 699.14 171.565 697.498C164.822 696.222 156.944 693.026 156.978 691.741C157.009 691.337 159.508 690.586 162.389 690.135C165.343 689.623 169.604 687.994 171.752 686.537C179.179 681.703 198.416 672.311 203.392 671.077C206.014 670.471 211.901 669.715 216.336 669.32C220.833 668.996 227.031 667.724 230.11 666.476C233.117 665.29 236.994 664.241 238.631 664.099C240.269 663.957 243.492 663.465 245.772 662.9C251.162 661.563 275.05 663.649 283.199 665.986C293.461 669.03 294.061 669.145 294.178 667.664C294.242 666.856 292.84 663.155 290.983 659.214C285.741 648.367 284.604 641.299 285.799 628.724C286.506 622.343 286.038 617.97 283.757 608.237C282.122 601.468 281.006 595.012 281.153 594.007C281.53 591.801 282.637 592.362 292.828 599.738C299.232 604.443 309.905 609.146 316.658 610.288C318.864 610.666 331.892 619.01 333.949 621.272C334.632 622.071 337.054 623.143 339.249 623.655C341.445 624.167 345.141 625.407 347.564 626.478C351.745 628.434 351.745 628.434 350.983 626.07C347.862 616.678 344.255 601.42 343.791 595.286C343.012 585.4 344.182 569.706 346.417 560.262C347.441 555.871 348.968 548.538 349.827 543.66C351.441 534.37 361.144 510.134 365.194 505.169C366.399 503.638 369.009 498.897 370.903 494.643C374.107 487.511 376.914 482.854 387.22 468.151C391.345 462.243 398.496 455.76 405.612 451.443ZM249.775 954.889C249.412 955.199 248.739 960.295 248.199 966.282C247.659 972.27 246.914 977.428 246.55 977.738C246.187 978.048 244.928 981.133 243.709 984.56C241.677 990.566 241.758 991.25 244.16 997.74C245.624 1001.51 247.171 1005.09 247.667 1005.67C249.528 1007.85 253.822 1021.27 255.288 1029.31C256.088 1033.78 257.19 1042.13 257.625 1047.79C258.536 1058.56 260.784 1069.58 262.459 1071.54C263.017 1072.2 263.067 1073.28 262.672 1074C262.339 1074.78 262.326 1075.8 262.76 1076.31C263.132 1076.74 263.347 1078.32 263.168 1079.73C262.989 1081.14 263.142 1082.64 263.452 1083C263.762 1083.37 263.966 1085.08 263.766 1086.75C263.7 1088.44 263.756 1092.04 263.958 1094.63C264.149 1097.35 264.203 1101.83 263.918 1104.58C263.56 1107.4 263.995 1113.06 264.743 1117.32C265.501 1121.44 266.267 1127.2 266.251 1129.97C266.37 1132.76 267.377 1137.17 268.522 1139.84C269.678 1142.37 271.604 1148.01 272.767 1152.17C273.991 1156.4 275.383 1160.23 275.817 1160.74C276.995 1162.12 278.822 1160.44 278.225 1158.56C277.39 1156.26 279.753 1150.35 282.369 1148.11C284.112 1146.62 285.905 1146.22 289.334 1146.56C291.893 1146.76 294.368 1147.16 294.823 1147.4C295.217 1147.57 297.187 1146.64 299.262 1145.24C302.986 1142.69 303.059 1142.63 301.448 1139.86C300.55 1138.37 298.873 1132.14 297.59 1126.07C296.379 1119.95 293.476 1110.37 291.353 1104.65C282.95 1083.18 275.593 1057.06 273.366 1040.63C269.617 1013.43 278.732 971.738 291.942 955.435C293.967 952.952 295.567 950.707 295.588 950.438C295.61 950.168 290.554 949.838 284.4 949.691C268.104 949.287 261.319 948.549 256.195 946.519L251.598 944.666L251.008 949.566C250.661 952.249 250.066 954.641 249.775 954.889ZM386.195 836.778C388.07 837.061 393.435 837.755 398.065 838.323C411.624 839.934 429.812 848.143 440.993 857.561C444.686 860.562 448.099 863.677 448.596 864.258C450.208 866.147 459.052 873.416 460.564 874.009C462.469 874.769 461.168 867.214 459.089 865.221C457.631 863.954 457.684 863.28 459.615 861.129C461.484 858.905 461.567 858.708 459.815 859.451C457.419 860.617 451.134 858.699 449.616 856.479C449.079 855.556 449.071 853.929 449.571 852.749C450.694 850.534 450.272 849.01 448.82 850.251C446.931 851.864 443.224 850.758 440.743 847.853C438.572 845.31 438.264 844.066 438.779 840.11L439.358 835.345L434.762 833.492C429.047 831.212 409.323 829.59 400.909 830.62C395.426 831.408 385.371 834.341 383.493 835.819C383.067 836.057 384.247 836.556 386.195 836.778ZM340.765 959.216L340.995 963.163L345.019 961.109C347.218 959.86 349.821 958.642 350.785 958.447C351.759 958.117 352.278 957.549 351.968 957.185C351.1 956.168 341.914 954.089 341.188 954.71C340.824 955.02 340.665 957.04 340.765 959.216ZM222.473 1068.25C222.75 1069.9 224.265 1073.88 225.989 1076.93C230.79 1085.64 231.979 1092.04 231.685 1105.23C231.297 1117.87 232.274 1121.81 236.291 1123.27C237.999 1123.95 239.095 1125.53 241.53 1130.73C244.656 1137.48 246.166 1138.96 251.983 1141.65C254.147 1142.57 255.015 1143.59 256.087 1146.31C256.881 1148.27 259.195 1151.57 261.201 1153.63L264.831 1157.44L259.218 1145.27C256.154 1138.59 249.839 1125.02 245.269 1115.11C237.489 1098.64 224.77 1070.06 223.451 1066.16C222.492 1063.72 222.138 1064.77 222.473 1068.25ZM489.243 857.435C491.29 859.832 491.745 860.071 491.324 858.547C490.459 855.769 488.164 853.081 487.292 853.826C486.856 854.198 487.744 855.826 489.243 857.435ZM201.258 1114.75C203.802 1116.85 207.226 1119.83 209.005 1121.33C210.711 1122.88 212.129 1123.81 212.15 1123.54C212.203 1122.87 198.966 1110.3 197.021 1109.2C194.102 1107.55 196.737 1111.08 201.258 1114.75ZM362.479 1024.07C363.036 1025.61 367.446 1032.39 372.396 1039.22C379.794 1049.35 381.829 1052.77 383.518 1057.98C384.672 1061.39 387.529 1068.12 389.799 1072.84C395.702 1084.75 397.368 1091.12 397.039 1100.44C396.68 1109.29 397.235 1111.71 402.188 1121.92C407.998 1134.17 412.031 1159.49 411.238 1178.12C410.916 1183.92 411.035 1191.86 411.463 1195.89C411.963 1199.86 411.93 1206.29 411.476 1210.32C411.096 1214.29 410.947 1221.33 411.259 1225.96C411.572 1230.59 411.101 1238.28 410.325 1242.96C408.356 1254.18 409.304 1256.77 423.117 1276.62C432.602 1290.38 432.416 1290.16 439.878 1294.34C445.321 1297.48 447.237 1298.1 448.326 1297.17C449.489 1296.18 449.159 1295.21 445.563 1290.11C440.036 1282.02 432.262 1268.06 429.21 1260.37C421.477 1240.72 418.729 1220.58 417.973 1177.77C417.731 1163.66 417.153 1157.25 415.812 1154.5C413.83 1150.41 402.84 1117.09 401.227 1110.06C399.931 1105.01 400.268 1080.98 401.849 1066.95C402.503 1061.24 403.937 1053.36 405.053 1049.52C406.242 1045.61 407.046 1042.29 406.86 1042.07C406.674 1041.85 404.002 1041.37 400.915 1040.99C393.996 1040.24 389.493 1038.06 379.685 1030.98C372.577 1025.75 362.839 1020.37 361.967 1021.12C361.749 1021.3 361.985 1022.61 362.479 1024.07ZM232.167 1139.48C233.068 1140.09 233.916 1140.5 234.062 1140.38C234.207 1140.25 233.794 1139.47 233.112 1138.67C232.429 1137.88 231.581 1137.47 231.217 1137.78C230.854 1138.09 231.267 1138.87 232.167 1139.48ZM480.156 970.068C482.795 971.834 486.932 975.209 489.383 977.638C492.662 980.742 495.187 982.229 498.366 983.157C503.875 984.607 506.596 986.177 513.631 991.474C516.569 993.738 521.981 997.281 525.541 999.391C530.912 1002.59 533.125 1004.6 538.832 1011.28C544.352 1017.74 546.689 1019.89 550.653 1022.04C555.01 1024.34 557.596 1026.78 570.126 1040.58C580.216 1051.81 585.376 1056.82 587.271 1057.71C589.434 1058.63 590.117 1059.43 590.331 1061C590.515 1062.1 592.084 1065.41 593.819 1068.33C596.566 1073.01 597.879 1074.4 604.221 1079.04C611.142 1084.05 613.793 1084.81 613.302 1081.58C613.221 1080.9 613.667 1080.39 614.289 1080.24C614.973 1080.16 615.306 1079.37 615.235 1078.55C614.877 1076.22 608.219 1068.71 605.776 1067.91C604.057 1067.37 603.561 1066.79 603.233 1064.93C603.008 1063.49 600.663 1059.72 597.325 1055.66C594.369 1051.9 591.734 1048.38 591.641 1047.83C591.365 1046.18 581.268 1038.47 573.361 1033.92C562.401 1027.7 551.695 1019.14 541.799 1008.87C537.043 1003.89 529.638 997.275 525.355 994.024C519.22 989.34 516.386 986.61 511.963 980.841C505.328 972.188 502.865 970.774 491.711 968.743C487.703 968.02 482.431 966.995 479.966 966.462C477.574 965.867 475.554 965.708 475.522 966.112C475.49 966.516 477.518 968.302 480.156 970.068ZM312.329 1181.44C313.022 1182.1 313.199 1181.57 312.861 1179.85C312.194 1176.28 311.067 1175.1 311.248 1177.96C311.349 1179.26 311.833 1180.86 312.329 1181.44ZM304.506 1186.99C307.484 1190.47 308.687 1189.82 307.669 1185.54C306.868 1181.96 305.512 1181.1 303.406 1182.9C302.243 1183.89 302.46 1184.59 304.506 1186.99ZM322.936 1182.68C322.977 1188.17 323.8 1191.49 327.401 1199.09C330.135 1204.79 332.965 1209.28 345.943 1227.72L348.68 1231.66L351.048 1229.14C352.376 1227.75 353.663 1226.91 354.035 1227.34C354.345 1227.7 355.91 1227.62 357.579 1227.08C359.175 1226.59 360.937 1226.6 361.371 1227.11C361.867 1227.69 362.602 1227.81 363.111 1227.38C363.692 1226.88 360.24 1222.55 349.333 1210.51C340.297 1200.51 334.054 1192.91 332.753 1190.5C329.987 1185.2 324.282 1177.64 323.483 1178.32C323.193 1178.57 322.899 1180.58 322.936 1182.68ZM316.397 1199.44C316.705 1200.69 318.151 1202.97 319.723 1204.51L322.546 1207.38L319.801 1201.81C317.107 1196.45 315.504 1195.31 316.397 1199.44ZM513.851 1081.47C514.129 1082.23 516.654 1083.72 519.47 1084.96C522.296 1086.06 525.794 1088.1 527.314 1089.44C529.032 1090.86 533.038 1092.46 538.237 1093.55C549.028 1095.89 556.201 1099.44 563.275 1105.96C566.367 1108.85 570.723 1112.03 572.887 1112.95C574.978 1113.93 579.583 1116.53 583.07 1118.7C589.134 1122.56 590.261 1123.74 612.177 1149.11C635.829 1176.52 635.705 1176.37 641.925 1190.28C643.132 1193.01 646.023 1198.46 648.294 1202.3C650.639 1206.07 653.023 1211.07 653.723 1213.36C656.172 1221.82 663.28 1232.21 668.476 1235.05L671.011 1236.41L671.052 1231.6C671.164 1221.58 664.986 1201.99 658.449 1191.24C655.216 1185.84 653.919 1181.67 654.62 1177.93C654.861 1176.59 654.255 1173.97 653.316 1172.14C647.815 1161.13 645.017 1156.24 642.412 1153.19C639.372 1149.63 635.835 1141.22 635.615 1137.14C635.526 1134.83 635.599 1134.76 638.188 1135.44L640.777 1136.12L639.819 1132.79C635.062 1117.51 624.828 1100.38 620.136 1099.74C618.997 1099.58 614.949 1097.63 611.203 1095.31C603.049 1090.46 600.492 1089.38 592.135 1087.1C584.835 1085.16 581.126 1084.94 565.428 1085.53C553.264 1086 546.697 1085.07 540.042 1081.84C537.754 1080.78 532.938 1079.99 527.934 1079.87C523.261 1079.84 518.828 1079.35 517.928 1078.74C516.055 1077.57 513.191 1079.52 513.851 1081.47ZM679.802 945.425C680.422 946.151 676.604 959.333 674.524 963.37C673.64 965.13 673.004 967.18 673.086 967.864C673.167 968.548 673.488 968.776 673.727 968.321C673.967 967.865 675.412 964.998 677.065 962.08C680.164 956.294 683 941.815 680.54 943.789C679.887 944.348 679.554 945.134 679.802 945.425ZM663.645 985.345C660.983 989.878 658.354 994.007 657.835 994.575C657.254 995.072 655.996 997.276 655.018 999.367C653.967 1001.52 651.825 1005.48 650.121 1008.2C646.422 1013.87 639.817 1032.32 639.028 1038.89C638.764 1041.38 638.147 1044.04 637.68 1044.82C636.983 1045.91 638.756 1061.23 640.217 1066.77C640.988 1069.88 641.382 1075.19 641.102 1080.45C640.746 1087.54 643.852 1104.86 645.899 1107.25C646.705 1108.2 647.724 1111.6 648.143 1114.88C649.605 1124.69 650.984 1129.54 656.779 1143.68C666.823 1168.39 668.946 1174.11 668.539 1175.84C668.099 1177.98 669.898 1180.08 673.697 1181.74C677.569 1183.33 678.203 1182.16 677.804 1174.34C677.353 1166.31 675.863 1160.3 670.833 1146.76C665.247 1131.68 663.203 1122.37 663.913 1114.23C664.21 1110.46 664.063 1106.32 663.547 1105.12C661.546 1100.43 659.144 1088.79 658.786 1081.31C658.514 1077.02 657.502 1070.09 656.547 1065.88C654.544 1056.92 654.924 1047.8 657.683 1041.18C659.004 1038.16 659.897 1032 660.171 1024.23C660.422 1017.61 661.171 1010.69 661.837 1009.12C662.514 1007.41 664.246 1000.91 665.688 994.652C666.995 988.387 668.832 981.418 669.686 979.181C671.093 975.091 670.839 972.294 669.238 975.42C668.894 976.341 666.306 980.812 663.645 985.345ZM439.674 1217.9C440.537 1221.56 440.525 1227.72 439.615 1237.54C438.791 1245.4 438.432 1254.25 438.81 1257.19C439.837 1267.37 447.365 1280.16 462.447 1297.68L473.684 1310.69L484.636 1315.28C490.672 1317.79 500.342 1321.46 506.223 1323.35C512.166 1325.31 517.291 1327.34 517.787 1327.92C518.283 1328.5 520.519 1329.36 522.715 1329.87C524.91 1330.38 528.078 1331.44 529.714 1332.18C533.036 1333.87 534.302 1333.29 536.029 1329.43C537.163 1327.08 537.049 1326.8 531.209 1320.1C527.859 1316.18 523.778 1310.37 521.889 1306.83C518.276 1300.25 517.593 1299.45 502.8 1287.71C496.242 1282.39 479.133 1263.08 470.825 1251.59C468.697 1248.51 462.31 1240.14 456.719 1232.86C450.993 1225.57 445.28 1217.26 443.887 1214.3C442.421 1211.41 440.697 1208.36 440.149 1207.57C439.033 1206.26 438.888 1206.39 438.592 1209.28C438.381 1211.09 438.892 1214.92 439.674 1217.9ZM403.67 1271.5C405.263 1272.78 407.654 1274.25 408.968 1274.76C411.329 1275.76 411.401 1275.7 409.181 1272.07C407.91 1270.14 406.609 1267.73 406.134 1266.88C405.557 1265.62 405.007 1265.71 403.191 1267.26C400.867 1269.24 400.929 1269.32 403.67 1271.5ZM532.218 1216.25C531.401 1220.59 531.026 1227.06 531.423 1230.62C531.922 1235.47 531.289 1240.91 529.074 1250.96C525.375 1266.93 524.008 1282.54 525.515 1290.93C527.309 1300.82 530.757 1306.92 541.076 1317.83C545.884 1323.02 551.416 1328.47 553.268 1329.9C555.306 1331.56 557.043 1333.59 557.548 1334.92C558.042 1336.38 559.541 1337.99 561.466 1339.36C564.487 1341.43 593.301 1351.49 606.628 1355.18C612.334 1356.72 613.08 1356.71 613.767 1354.86C614.704 1352.43 617.017 1351.46 618.257 1352.91C618.691 1353.42 619.976 1353.46 621.168 1352.94C623.502 1351.7 625.676 1352.48 633.241 1357.08C641.509 1362.2 646.439 1363.27 649.883 1360.83C652.902 1358.63 652.24 1358.44 660.609 1364.86C661.943 1365.98 662.835 1365.85 664.505 1364.42C666.322 1362.87 667.337 1362.88 671.198 1364.61C673.755 1365.69 677.214 1366.5 678.924 1366.3C681.784 1366.12 682.074 1365.87 683.385 1362.99C684.811 1359.52 686.938 1358.33 688.488 1360.14C691.352 1363.35 692.339 1362.01 691.968 1355.54C691.716 1351.86 691.909 1348.56 692.418 1348.12C693.373 1347.18 692.807 1339.75 691.031 1331.35C690.219 1327.89 690.112 1324.09 690.622 1322.78C691.372 1321.01 690.673 1317.84 687.602 1309.53C684.469 1301.15 683.667 1297.57 684.13 1294.28C684.383 1291.93 683.989 1286.62 683.158 1282.55C678.65 1261.53 676.963 1255.44 675.7 1255.14C674.892 1255.07 671.5 1251.69 667.954 1247.68C661.059 1239.75 654.385 1235.03 646.02 1232C634.351 1227.89 606.989 1222.62 585.08 1220.35C574.266 1219.16 563.569 1216.49 540.965 1209.28C537.724 1208.28 534.721 1207.71 534.43 1207.96C534.067 1208.27 533.096 1211.98 532.218 1216.25ZM470.072 1324.7C473.607 1328.84 477.677 1329.64 476.41 1325.95C475.73 1324.27 468.92 1320.41 468.048 1321.15C467.685 1321.46 468.573 1323.09 470.072 1324.7Z" fill="url(#paint0_linear_97_23)"/>
<path d="M925.364 1412.01C925.364 1413.12 924.719 1415.3 924.073 1416.38C923.831 1416.75 923.105 1417.61 922.433 1418.32C921.761 1419.04 921.331 1419.61 921.465 1419.61C921.627 1419.61 923.24 1419.23 925.095 1418.77C931.655 1417.18 933.053 1416.91 935.983 1416.65C941.844 1416.13 943.672 1416.94 949.425 1422.76C952.221 1425.59 952.651 1426.39 952.947 1429.73C953.135 1431.89 952.84 1433.24 951.764 1434.66C950.366 1436.55 948.242 1436.71 942.839 1435.36C933.725 1433.07 926.735 1433.45 917.971 1436.71C916.626 1437.19 915.282 1437.68 914.933 1437.79C914.61 1437.87 914.395 1438.06 914.476 1438.19C914.691 1438.51 918.454 1439.7 920.793 1440.18C921.896 1440.4 923.294 1440.75 923.885 1440.94C924.826 1441.23 924.96 1441.4 925.041 1442.2L925.122 1443.12L923.294 1442.93C922.299 1442.85 919.879 1442.58 917.971 1442.37C911.975 1441.69 909.26 1441.8 904.985 1442.9C902.969 1443.44 899.985 1444.28 898.399 1444.79C895.415 1445.73 891.893 1446.54 888.129 1447.11C880.655 1448.21 876.515 1449.88 872.348 1453.38C869.713 1455.59 868.476 1456.32 865.976 1457.04C864.874 1457.37 862.347 1458.23 860.33 1458.98C853.636 1461.43 853.636 1461.43 842.963 1461.51C832.855 1461.57 831.699 1461.65 826.967 1462.46C818.095 1463.96 809.734 1465.98 808.524 1466.9C808.094 1467.25 807.126 1467.79 806.427 1468.11C805.701 1468.44 804.196 1469.54 803.04 1470.62C800.755 1472.77 799.76 1473.2 797.206 1473.2C795.62 1473.2 795.512 1473.26 793.603 1474.79C792.501 1475.65 791.211 1476.57 790.727 1476.81C788.683 1477.86 784.812 1477.94 784.543 1476.92C784.463 1476.54 783.898 1477.19 782.393 1479.45C779.973 1483.11 777.957 1485.81 772.929 1492.19C768.359 1497.93 767.23 1499.65 765.455 1503.39C763.95 1506.52 760.885 1511.45 756.019 1518.5L752.766 1523.21V1524.8C752.766 1526.72 753.357 1529.38 754.11 1530.84C754.621 1531.83 754.675 1531.86 755.508 1531.62C755.992 1531.48 756.422 1531.37 756.422 1531.37C756.449 1531.37 756.422 1531.16 756.342 1530.86C756.261 1530.49 756.933 1529.62 758.788 1527.69C763.305 1522.97 766.369 1521.41 771.585 1521.19C776.908 1521.01 781.962 1522.62 793.361 1528.22C801.212 1532.05 801.803 1532.32 806.804 1534.31C811.885 1536.33 812.933 1536.65 816.106 1537.17C817.557 1537.41 818.794 1537.62 818.821 1537.65C818.982 1537.81 810.648 1545.08 809.546 1545.73C804.922 1548.5 798.658 1550.2 793.146 1550.23H791.211L791.668 1551.25C792.34 1552.76 794.813 1560.33 796.211 1565.17C799.518 1576.67 802.986 1584.81 806.266 1588.69C807.18 1589.76 807.879 1590.71 807.852 1590.73C807.798 1590.79 806.293 1591.08 804.518 1591.38C802.744 1591.68 799.787 1592.21 797.932 1592.54C795.27 1592.99 794.007 1593.08 791.802 1592.94C779.301 1592.21 768.413 1585.94 761.342 1575.41C755.777 1567.17 751.879 1554.46 751.556 1543.57C751.502 1541.61 751.314 1539.78 751.18 1539.48C751.018 1539.19 750.884 1538.51 750.884 1538C750.884 1536.9 750.588 1536.68 747.954 1535.9C746.717 1535.55 744.996 1535.36 742.281 1535.25L738.383 1535.12L732.199 1539.99C724.967 1545.68 723.328 1546.83 719.994 1548.48C715.155 1550.87 703.648 1554.19 699.185 1554.46C697.25 1554.59 696.954 1554.54 695.395 1553.76C691.416 1551.82 687.571 1546.89 686.146 1542.01C685.609 1540.13 685.367 1530.97 685.824 1529.35C686.361 1527.42 688.109 1526.2 693.378 1524.08C696.739 1522.76 699.293 1521.49 701.82 1519.93C702.895 1519.26 705.638 1518.04 708.272 1517.1C710.773 1516.19 713.192 1515.24 713.649 1515C714.079 1514.78 717.305 1512.66 720.774 1510.31C728.651 1504.98 729.403 1504.2 732.065 1499.06L734.081 1495.15L736.501 1493.54C737.953 1492.57 740.48 1490.38 742.819 1488.12C744.969 1486.05 747.443 1483.79 748.357 1483.11C751.045 1481.04 755.078 1476.33 756.503 1473.5L757.067 1472.42L756.288 1471.99C755.858 1471.77 754.809 1470.78 753.976 1469.78C750.185 1465.26 747.927 1464.31 739.324 1463.64C736.447 1463.43 732.63 1463.1 730.855 1462.91C726.688 1462.51 716.822 1462.51 713.38 1462.91C700.53 1464.42 696.497 1465.01 688.512 1466.63C683.7 1467.6 679.103 1468.54 678.296 1468.76C676.038 1469.35 671.521 1470.21 669.075 1470.54C667.865 1470.7 659.8 1470.91 651.143 1471.05C634.233 1471.29 634.636 1471.26 627.081 1472.96C625.603 1473.28 623.318 1473.61 622 1473.69C620.307 1473.77 619.366 1473.96 618.774 1474.31C617.618 1475.01 616.166 1474.95 614.553 1474.14C611.22 1472.45 610.171 1470.59 609.741 1465.45C609.58 1463.72 609.338 1461.51 609.176 1460.54C608.773 1458.12 609.096 1453.3 609.795 1451.17C610.87 1447.83 615.118 1443.09 618.29 1441.64C621.597 1440.13 624.904 1440.29 631.517 1442.26C646.492 1446.76 648.696 1447.08 663.913 1447.27C673.78 1447.4 678.162 1447.24 687.034 1446.38C699.32 1445.22 700.341 1445.14 704.508 1445.27C706.901 1445.35 712.466 1445.84 717.01 1446.38C721.526 1446.92 727.737 1447.46 730.855 1447.62C741.878 1448.13 746.986 1448.48 747.98 1448.72C748.518 1448.86 751.556 1449.07 754.702 1449.21C760.025 1449.42 760.724 1449.37 764.461 1448.8C770.321 1447.89 769.891 1448.05 770.106 1446.73C770.537 1444.01 771.531 1442.63 773.655 1441.93C775.134 1441.45 777.903 1441.53 780.027 1442.1L781.855 1442.61L785.215 1441.75L788.549 1440.88L790.162 1441.69L791.748 1442.53L793.953 1442.07C797.582 1441.34 802.287 1441.93 804.572 1443.44C805.11 1443.82 805.432 1443.77 808.067 1442.93C809.653 1442.42 812.879 1441.31 815.218 1440.51C821.563 1438.27 821.321 1438.33 838.393 1437.38C858.422 1436.28 864.121 1435.39 877.913 1431.35C879.096 1431 881.085 1430.43 882.349 1430.08C883.639 1429.76 885.037 1429.17 885.575 1428.76C887.672 1427.18 896.893 1421.95 902.001 1419.5C907.163 1417 910.712 1415.92 916.895 1415.06C920.336 1414.54 921.465 1414.09 922.998 1412.47C924.692 1410.67 925.364 1410.53 925.364 1412.01Z" fill="url(#paint1_linear_97_23)"/>
</g>
<defs>
<linearGradient id="paint0_linear_97_23" x1="941.5" y1="1443.5" x2="356.5" y2="835.5" gradientUnits="userSpaceOnUse">
<stop stop-color="#4F772D"/>
<stop offset="1" stop-color="#90A955"/>
</linearGradient>
<linearGradient id="paint1_linear_97_23" x1="941.5" y1="1443.5" x2="356.5" y2="835.5" gradientUnits="userSpaceOnUse">
<stop stop-color="#4F772D"/>
<stop offset="1" stop-color="#90A955"/>
</linearGradient>
<clipPath id="clip0_97_23">
<rect width="911" height="1615" fill="white" transform="matrix(-1 0 0 1 911 0)"/>
</clipPath>
</defs>
</svg>
