<svg width="633" height="665" viewBox="0 0 633 665" fill="none" xmlns="http://www.w3.org/2000/svg">
<g clip-path="url(#clip0_91_15)">
<path fill-rule="evenodd" clip-rule="evenodd" d="M633.129 638.185C633.129 638.185 540.449 612.064 522.481 623.653C504.512 635.243 498.186 628.721 481.909 626.498C465.633 624.274 451.022 626.276 443.03 615.528C435.038 604.781 422.288 598.162 409.706 596.736C397.124 595.309 383.48 598.809 373.627 596.682C363.774 594.556 358.679 588.3 339.142 589.24C319.605 590.179 314.05 598.003 299.705 598.773C285.36 599.544 260.826 587.804 244.815 584.349C228.804 580.893 224.144 578.598 207.602 577.606C191.059 576.613 187.267 582.24 167.464 584.411C147.661 586.581 127.663 601.6 117.279 601.936C108.587 602.218 80.5407 600.129 68.7973 595.05L69.4327 585.699L67.1471 583.383C67.1471 583.383 73.7391 588.672 82.3603 590.533C90.9814 592.394 108.224 596.115 114.479 591.02C120.734 585.926 138.438 575.568 144.427 571.705C150.417 567.842 168.554 561.445 174.544 557.581C180.533 553.718 193.381 553.913 193.381 553.913C193.381 553.913 192.512 545.992 184.255 536.476C175.997 526.96 154.962 528.865 143.178 523.744C131.394 518.622 119.973 505.846 119.973 505.846L124.731 501.717C124.731 501.717 135.186 512.996 145.039 515.123C154.891 517.249 178.026 523.531 191.573 526.455C205.121 529.379 210.552 546.019 226.297 550.706C242.042 555.393 270.705 571.891 289.108 564.262C307.511 556.634 307.077 552.673 328.014 557.192C348.951 561.711 377.809 565.361 392.951 560.895C408.094 556.43 426.47 566.841 445.741 567.133C465.012 567.426 461.823 582.205 479.862 582.231C497.902 582.258 515.773 577.092 528.089 579.75C540.405 582.408 633.129 589.125 633.129 589.125L633.129 638.185Z" fill="url(#paint0_linear_91_15)"/>
<path fill-rule="evenodd" clip-rule="evenodd" d="M185.901 526.789C185.901 526.789 204.051 509.932 198.62 493.678C193.189 477.424 186.147 460 186.147 460C186.147 460 172.956 473.98 176.502 490.911C180.029 507.752 180.333 522.252 180.333 522.252C180.333 522.252 169.954 497.252 154.533 492.685C143.395 489.385 124.651 487.726 124.651 487.726C124.651 487.726 136.084 500.461 148.688 511.583C161.292 522.705 186.047 525.91 185.901 526.789Z" fill="url(#paint1_linear_91_15)"/>
<path fill-rule="evenodd" clip-rule="evenodd" d="M190.488 577.961C190.488 577.961 169.544 579.001 164.724 597.167C159.903 615.332 158.595 628.661 158.595 628.661C158.595 628.661 169.725 626.895 180.41 616.928C191.095 606.961 194.602 596.706 194.602 596.706C194.602 596.706 194.322 614.721 200.774 624.823C207.226 634.924 218.068 640.336 218.068 640.336C218.068 640.336 224.059 620.559 218.924 607.966C213.788 595.374 200.447 577.807 200.447 577.807L190.488 577.961Z" fill="url(#paint2_linear_91_15)"/>
<path fill-rule="evenodd" clip-rule="evenodd" d="M69.4327 585.699C69.4327 585.699 55.2453 569.977 38.8323 565.048C22.4194 560.119 5.03076 569.55 5.03076 569.55C5.03076 569.55 13.9538 579.773 26.769 583.961C39.5844 588.148 53.4973 585.942 53.4973 585.942C53.4973 585.942 32.8667 591.837 18.6896 602.813C4.5123 613.789 6.10352e-05 631.391 6.10352e-05 631.391C6.10352e-05 631.391 23.964 635.009 34.2184 628.078C44.4727 621.146 56.1193 601.044 56.1193 601.044C56.1193 601.044 45.7532 626.706 58.3347 641.655C70.9163 656.605 94.5551 665.009 94.5551 665.009C94.5551 665.009 98.976 641.432 91.984 627.193C84.992 612.955 68.1318 604.845 68.1318 604.845L68.7973 595.05L69.4327 585.699Z" fill="url(#paint3_linear_91_15)"/>
<path d="M832.8 502.854C826 492.454 824.267 490.854 793.6 469.787C736 430.054 713.2 417.52 682.667 408.987C667.467 404.72 629.467 399.387 614.667 399.52H601.467L580.667 388.454C560.933 377.787 531.733 363.654 510 354.32C504.533 351.92 485.733 343.12 468.266 334.587C436.8 319.254 436.666 319.12 435.333 314.054C434.266 310.054 434.4 308.187 436 305.12C442.933 291.52 433.333 278.187 400 255.654C388.533 247.787 377.2 238.854 370.666 232.32C340.4 201.787 332.8 193.387 328.933 185.52C324.4 176.587 319.066 171.387 306 162.987C290.4 152.987 277.733 146.72 276.933 148.854C276.666 149.787 273.866 153.654 270.666 157.52C266.533 162.72 264.933 166.054 264.266 170.987C262.4 184.587 252.8 199.254 242.666 203.787C238.266 205.787 233.733 206.32 216.4 206.32C199.066 206.32 194.266 206.72 188.666 208.854L182 211.387L182.933 207.92C185.2 198.454 190.533 183.52 194.4 176.32C200.4 164.854 212.933 152.587 221.066 150.32C230 147.92 243.333 149.52 253.6 154.32L261.866 158.187L266 152.587C270.666 146.32 271.066 142.854 267.466 141.654C266 141.254 264.266 140.054 263.333 138.987C260.533 135.654 273.466 140.054 291.866 148.854C301.2 153.254 309.6 156.987 310.4 156.987C312.266 156.987 310.666 131.787 308 121.787C304.266 107.387 301.466 102.854 288.4 90.4537C268.005 70.9858 267.999 70.9861 259.377 71.379L259.2 71.387C253.733 71.5203 249.333 72.8537 244 75.6537C230.8 82.587 224.4 80.587 216.666 66.987C214.4 62.987 210.8 58.3203 208.666 56.4537L204.8 53.2537L208 51.1203C215.866 45.9203 227.333 42.8537 236.266 43.5203C240.666 43.787 246.933 49.787 248.8 55.387C250.666 61.5203 251.066 61.787 256.266 62.987C260 63.6537 260.533 63.387 260.933 60.7203C261.2 58.987 260.133 55.787 258.4 53.2537C249.466 40.987 249.2 33.6537 257.466 21.387C265.333 9.78698 267.333 5.787 267.333 2.32033C267.333 -2.07967 269.866 -0.346336 276.8 8.587C284.533 18.7203 289.2 30.3203 288.266 37.387C287.333 44.0537 282 51.6537 275.333 55.6537C272.4 57.5203 270 59.5203 270 60.0537C269.866 64.4537 281.6 78.187 290.533 84.187C306.933 94.987 322 128.32 322 153.52V160.054L342.133 179.787L362.4 199.52L361.6 191.92C361.2 187.787 360.133 170.454 359.2 153.654L357.6 122.987L361.066 117.654C364.266 112.72 364.533 111.787 363.2 106.987C361.066 99.5203 362.4 81.387 365.6 74.187C370.8 62.587 379.466 56.7203 399.466 51.6537C413.2 48.187 423.866 42.987 428.133 37.9203C432.666 32.587 433.067 34.7203 432.4 58.0537C431.6 80.187 429.066 90.587 421.866 101.387C414 113.387 394.933 120.32 377.866 117.52L370 116.187L368.133 121.52C362.933 136.054 362.8 168.72 367.733 187.654C374.266 212.987 375.066 214.187 396.666 233.387C436.4 268.72 456.266 288.587 462.133 298.454C468 308.72 475.6 315.12 486.667 319.52C490.267 320.987 516.4 331.387 544.533 342.854C572.8 354.32 596 363.387 596.4 363.12C597.2 362.32 593.067 354.72 582.667 338.32C577.333 329.92 571.467 319.787 569.467 315.92C567.6 312.187 565.067 308.987 564.133 308.987C560.933 308.987 557.067 302.854 554.667 294.054C552.8 287.12 551.6 285.12 547.333 282.054C537.2 274.987 528.667 258.454 528.667 245.787C528.667 237.52 532.4 229.52 542.533 215.654C550.933 204.32 554.8 196.32 556 188.587C556.933 182.32 557.066 182.187 559.733 184.587C564.8 189.12 577.867 206.32 582.533 214.72C591.867 231.52 594.133 246.987 588.933 258.587C585.6 266.32 574.133 278.454 566.8 282.454C560.133 285.92 559.467 287.654 562.667 295.12L564.533 299.787L569.467 297.654C574 295.787 574.266 295.787 573.333 298.054C569.6 307.654 571.867 314.587 584.533 331.387C593.333 342.987 615.067 365.92 620.667 369.387C622.533 370.587 628.533 372.454 634 373.654C646.667 376.32 684.667 381.787 698.933 382.987C708.933 383.787 709.866 383.654 711.2 381.254C712 379.654 712.667 377.254 712.667 375.787C712.667 372.32 713.466 372.32 719.733 376.054C723.866 378.454 725.333 380.454 727.333 386.054C728.667 390.054 730.533 394.054 731.467 394.987C732.533 396.054 740.533 399.92 749.333 403.787C772.933 413.92 792 423.787 804.533 432.187C810.667 436.32 815.867 439.654 816 439.654C816.133 439.654 822.667 446.154 832.8 439.654V502.854Z" fill="url(#paint4_linear_91_15)"/>
</g>
<defs>
<linearGradient id="paint0_linear_91_15" x1="2.00328" y1="494.97" x2="348.877" y2="227.957" gradientUnits="userSpaceOnUse">
<stop stop-color="#4F772D"/>
<stop offset="1" stop-color="#90A955"/>
</linearGradient>
<linearGradient id="paint1_linear_91_15" x1="2.00328" y1="494.97" x2="348.877" y2="227.957" gradientUnits="userSpaceOnUse">
<stop stop-color="#4F772D"/>
<stop offset="1" stop-color="#90A955"/>
</linearGradient>
<linearGradient id="paint2_linear_91_15" x1="2.00328" y1="494.97" x2="348.877" y2="227.957" gradientUnits="userSpaceOnUse">
<stop stop-color="#4F772D"/>
<stop offset="1" stop-color="#90A955"/>
</linearGradient>
<linearGradient id="paint3_linear_91_15" x1="2.00328" y1="494.97" x2="348.877" y2="227.957" gradientUnits="userSpaceOnUse">
<stop stop-color="#4F772D"/>
<stop offset="1" stop-color="#90A955"/>
</linearGradient>
<linearGradient id="paint4_linear_91_15" x1="184.059" y1="85.7758" x2="698.369" y2="-80.1348" gradientUnits="userSpaceOnUse">
<stop stop-color="#4F772D"/>
<stop offset="1" stop-color="#90A955"/>
</linearGradient>
<clipPath id="clip0_91_15">
<rect width="633" height="665" fill="white"/>
</clipPath>
</defs>
</svg>
