<svg width="711" height="702" viewBox="0 0 711 702" fill="none" xmlns="http://www.w3.org/2000/svg">
<g clip-path="url(#clip0_57_63)">
<path d="M734.166 645.334C717.027 621.526 693.063 600.302 663.047 582.438C651.105 575.287 641.396 570.558 620.434 561.832C605.52 555.607 590.125 548.85 586.347 546.862C576.155 541.601 570.202 542.558 531.576 555.483C512.976 561.7 492.114 568.298 485.156 570.1C451.674 578.857 422.431 588.047 419.241 590.942C417.053 592.695 413.476 598.516 410.324 604.989C406.004 613.86 405.199 616.73 405.823 619.407C406.564 621.845 405.82 624.894 403.08 630.826C400.978 635.141 398.661 641.725 397.982 645.25C396.228 654.332 391.232 661.242 384.523 664.055C381.554 665.279 373.695 666.494 366.9 666.743C360.104 666.993 352.602 668.085 350.11 669.244C347.676 670.283 345.358 671.082 344.999 670.907C343.8 670.323 348.915 651.904 352.068 645.43C357.089 635.121 362.516 629.46 369.409 627.181C376.125 624.965 386.03 625.637 392.384 628.731C397.059 631.008 398.65 629.262 394.861 626.081C392.635 624.256 392.567 623.481 394.218 621.616C409.909 605.232 413.03 595.778 404.28 591.516C400.204 589.531 383.733 588.331 352.479 587.643C341.206 587.343 332.907 586.416 330.15 585.073C323.437 581.804 318.028 583.47 311.187 590.817C306.648 595.873 303.213 598.056 296.202 600.573C284.914 604.567 280.731 603.716 266.318 594.027C256.71 587.568 249.401 584.305 243.552 583.829C241.403 583.673 241.874 583.012 246.659 578.668C260.125 566.244 275.246 558.036 284.964 557.875C294.504 557.776 307.229 565.753 312.274 574.884C313.549 577.136 315.062 579.208 315.781 579.558C316.62 579.967 320.182 578.439 323.676 576.136C327.705 573.649 330.794 572.484 331.519 573.431C333.69 575.674 356.262 578.659 370.452 578.451C389.114 578.197 410.373 575.352 434.825 569.909C446.307 567.344 461.662 564.441 469.047 563.589C487.866 561.186 525.332 545.769 530.679 538.14C532.09 536.157 531.607 535.626 525.257 532.829C518.308 529.741 483.583 522.172 467.342 520.195C462.326 519.532 457.203 520.002 454.532 521.223C451.92 522.324 445.669 523.283 440.481 523.278C427.898 523.23 422.795 520.003 415.866 507.434C409.481 495.574 405.307 489.833 400.438 486.127L396.47 483.008L407.119 480.631C436.864 473.761 453.197 478.898 459.708 497.197C461.184 501.475 462.371 506.651 462.396 509.036C462.507 513.984 463.226 514.334 471.334 514.13C474.792 514.035 478.551 514.234 479.568 514.581C481.904 515.571 535.961 524.25 543.78 524.944C547.182 525.266 550.044 525.177 550.336 524.577C550.978 523.259 545.381 518.308 536.372 512.141C532.047 509.145 519.054 498.367 507.26 488.174C478.855 463.365 463.394 450.348 453.964 443.827C449.698 440.711 437.061 429.811 425.744 419.553C394.978 391.37 392.455 389.547 380.787 385.793C375.344 384.18 363.631 381.738 354.733 380.519C345.777 379.419 331.494 376.467 323.002 374.111C310.443 370.664 305.725 369.998 297.562 370.619C290.293 371.232 283.129 370.412 271.114 367.675C257.846 364.772 253.608 364.339 249.268 365.637C243.266 367.607 234.734 372.944 231.437 376.974C229.553 379.319 229.563 380.213 232.037 383.05C234.45 385.708 236.728 386.817 243.545 388.655C261.845 393.711 268.807 403.776 266.919 422.878C265.673 434.877 266.316 445.127 268.434 448.086C271.401 452.349 266.677 451.086 251.213 443.555C236.229 436.257 235.147 435.434 230.072 429.106C222.879 419.819 222.261 411.954 227.788 398.777C232.268 388.057 232.084 387.522 222.854 383.026C220.456 381.859 218.593 380.507 218.769 380.147C218.944 379.787 221.255 378.392 223.806 377.113C229.202 374.254 238.198 367.66 239.132 365.742C240.708 362.506 217.153 362.453 209.494 365.694C204.328 367.775 203.563 368.737 199.476 377.128C194.338 387.677 187.842 393.708 180.401 394.978C177.841 395.362 169.542 394.435 162.012 392.844C154.482 391.253 146.242 390.206 143.802 390.648C141.42 390.971 139.096 391.175 138.497 390.883C136.699 390.007 149.777 368.94 156.037 363.09C167.964 351.696 182.326 350.83 195.666 360.59C201.857 365.236 202.868 364.987 208.218 357.657C211.454 353.449 212.465 353.2 213.633 356.586C214.433 358.904 223.026 359.53 239.77 358.341C245.253 358.046 258.377 358.505 268.882 359.469C279.446 360.313 288.989 360.512 290.055 359.845C295.384 356.211 298.009 356.303 309.689 361.25C319.211 365.146 323.634 366.114 333.54 366.786C340.283 367.252 348.461 368.121 351.867 368.741C362.504 370.956 371.043 372 371.51 371.041C371.743 370.562 364.913 361.748 356.1 351.523C335.391 327.052 326.022 314.925 319.591 304.377C314.796 296.258 313.772 295.314 306.22 291.636L298.069 287.666L296.851 279.51C295.494 269.506 290.723 257.987 280.821 240.558C276.69 233.207 269.816 220.219 265.672 211.675C259.883 199.809 256.007 194.066 248.768 186.091C238.815 175.163 227.018 164.671 218.433 159.155L213.149 155.692L203.477 160.325C195.17 164.288 192.982 166.04 188.339 172.528C182.344 180.88 171.643 189.757 162.681 193.846C159.475 195.251 153.107 196.45 148.337 196.5C139.87 196.528 139.75 196.47 116.495 185.144C94.7981 174.577 92.6435 173.824 85.9034 173.656C81.9663 173.518 78.5638 173.196 78.5607 172.897C78.4378 172.541 82.1469 167.97 86.6828 162.616C105.422 141.192 128.588 126.817 145.757 126.281C159.468 125.839 179.929 138.03 188.837 151.712L191.626 156.036L196.085 154.797C200.84 153.256 207.41 148.596 211.181 144.204C213.181 141.619 213.778 141.612 215.708 143.739C218.361 146.514 240.15 160.241 241.398 159.81C243.122 159.315 247.444 139.174 248.399 127.775C249.197 118.524 248.554 114.058 245.35 104.192C241.587 92.1264 241.286 91.8314 234.686 88.0241C229.707 85.1541 226.237 84.0573 221.046 83.7536C211.918 83.3121 200.186 79.0812 194.588 74.1305C188.21 68.6512 185.016 59.6801 183.397 41.6882C182.268 30.6085 180.77 24.2435 178.219 19.7381L174.693 13.275L179.109 13.6464C181.436 13.7414 188.425 14.9208 194.52 16.1095C207.905 18.7727 227.448 28.5871 231.985 34.8012C238.763 44.3312 240.541 60.4728 236.018 72.8041C233.874 78.73 233.825 79.7443 236.468 81.6249C237.971 82.8019 241.924 84.4304 245.154 85.4105C246.614 85.7923 248.015 86.1747 249.159 86.4869C250.591 86.8778 251.619 87.1585 251.852 87.1893C252.211 87.3644 251.689 88.7414 250.749 90.0631C249.396 91.9257 249.523 98.3646 251.412 113.67C254.793 140.529 255.828 159.72 254.455 165.28C253.023 170.96 257.646 179.737 269.112 192.736C279.674 204.851 284.153 211.185 290.184 223.466C292.862 228.626 295.109 232.538 295.284 232.178C295.985 230.74 295.442 218.76 294.434 213.522C293.868 210.726 292.275 206.687 290.944 204.853C289.374 202.901 288.688 200.046 289.324 198.131C290.239 194.424 291.911 194.645 295.717 199.317C297.77 201.8 298.548 202.03 300.207 201.059C302.518 199.663 306.168 189.428 307.102 181.726C307.479 177.906 308.294 175.929 309.542 175.499C310.433 175.191 311.966 173.565 312.725 172.007C313.484 170.449 317.329 167.427 321.124 165.42C325.691 163.046 328.764 160.39 330.049 157.753C332.854 152.298 338.641 146.811 344.929 143.644C354.183 138.956 356.989 139.285 373.94 146.502C384.003 150.81 391.422 153.237 395.061 153.378C398.224 153.584 400.732 153.916 400.913 154.152C401.104 155.283 387.251 170.634 381.811 175.103C373.71 181.688 362.068 186.102 354.249 185.409C347.146 184.767 338.088 179.614 331.695 172.644C327.05 167.564 324.785 167.647 319.416 173.189C315.228 177.527 307.78 195.255 304.987 207.688C302.994 216.653 301.713 253.996 303.113 262.39C305.21 274.831 340.338 309.588 420.425 378.403C457.971 410.63 474.572 424.351 475.098 423.272C475.857 421.714 476.625 369.588 476.049 360.112C475.406 349.862 474.917 348.734 466.617 336.239C461.893 329.192 456.178 318.696 453.974 313.174L453.966 313.155C452.939 310.545 452.177 308.609 451.625 306.615C450.042 300.894 450.184 294.696 450.737 270.711L450.772 269.199C450.912 259.776 450.728 259.241 448.485 261.411C447.068 262.797 444.726 266.996 443.454 270.826C439.11 283.095 429.715 291.422 420.237 291.7C417.673 291.786 410.807 290.964 404.894 290.011C398.919 288.881 391.521 288.541 388.487 289.288C385.393 289.857 382.414 290.186 381.935 289.953C381.455 289.719 384.258 283.965 388.062 277.068C396.604 261.355 403.805 254.184 413.437 251.46C420.392 249.36 424.215 250.036 437.933 255.975L444.642 258.946L447.937 254.619C449.82 252.273 452.174 249.267 453.115 247.945C455.997 244.159 456.907 245.64 455.783 252.211C454.057 263.977 455.09 294.438 457.614 302.044C460.139 309.651 474.116 334.848 476.394 335.958C478.072 336.775 479.28 332.469 485.433 304.915C492.095 274.791 494.479 257.413 492.674 250.157C491.677 246.112 487.189 238.884 478.662 227.464C471.709 218.294 464.802 207.811 463.154 204.19C461.506 200.57 459.803 197.368 459.204 197.076C457.286 196.142 454.271 198.678 450.282 205.04C443.009 216.625 433.002 223.468 423.401 223.389C419.882 223.306 412.883 221.232 404.139 217.567C393.839 213.44 388.697 212.122 383.927 212.172L377.488 212.299L379.43 209.834C380.549 208.45 383.314 204.903 385.548 201.839C396.018 187.955 409.931 178.269 420.417 177.444C425.78 177.09 428.59 177.716 435.302 180.986C439.799 183.324 445.323 186.904 447.493 189.148C447.654 189.313 447.81 189.473 447.962 189.628C450.556 192.289 451.728 193.492 452.941 193.535C453.94 193.57 454.967 192.818 456.84 191.446L456.938 191.375C459.777 189.198 461.243 186.798 463.446 180.752C465.88 173.929 465.799 171.962 463.699 165.007C460.862 155.913 460.458 145.779 462.193 134.908C465.056 117.764 473.076 109.213 494.036 100.586C518.857 90.4288 524.253 87.5698 530.744 80.9427L536.939 74.6167L538.009 80.0321C540.279 91.8155 541.345 113.987 540.39 125.387C539.368 136.012 538.563 138.883 533.134 150.031C525.897 165.193 521.761 168.814 505.893 173.989C496.741 176.946 478.927 178.504 475.091 176.635C471.375 174.826 468.301 194.536 471.237 201.602C473.195 206.411 489.21 226.817 494.445 231.295C498.115 234.417 499.391 236.67 500.098 241.612C501.965 254.831 495.33 310.477 489.523 331.229C484.291 349.889 484.239 350.605 487.332 355.522C492.244 363.402 493.496 369.054 492.578 378.247C491.168 391.798 491.834 404.135 494.385 408.64C495.541 410.835 496.922 417.439 497.341 423.279C498.796 442.823 504.649 449.381 527.932 457.606L541.517 462.295L547.139 469.63C556.751 482.172 562.757 486.284 600.772 506.281C658.035 536.395 722.038 572.461 736.278 582.807C745.77 589.507 752.277 595.939 758.33 604.522C759.88 606.673 761.249 608.48 762.492 609.984L734.166 645.334Z" fill="url(#paint0_linear_57_63)"/>
</g>
<defs>
<linearGradient id="paint0_linear_57_63" x1="78.9992" y1="539.173" x2="232.044" y2="27.6328" gradientUnits="userSpaceOnUse">
<stop stop-color="#4F772D"/>
<stop offset="1" stop-color="#90A955"/>
</linearGradient>
<clipPath id="clip0_57_63">
<rect width="711" height="702" fill="white" transform="matrix(-1 0 0 1 711 0)"/>
</clipPath>
</defs>
</svg>
