<svg width="711" height="578" viewBox="0 0 711 578" fill="none" xmlns="http://www.w3.org/2000/svg">
<g clip-path="url(#clip0_57_82)">
<path d="M-10.5022 459.059C-8.5636 457.709 -6.7605 456.428 -5.177 455.267C-4.51233 454.794 -3.87952 454.345 -3.27466 453.916L-3.27368 453.915C0.253784 451.413 2.83008 449.585 5.23291 447.552C11.7391 442.049 16.9745 435.043 36.3843 409.07L36.415 409.029C37.6887 407.325 39.0232 405.539 40.4231 403.667C58.6898 379.133 75.2229 360.467 86.0229 351.933C95.4896 344.333 117.356 333.667 123.09 333.667C125.356 333.667 127.89 334.6 128.823 335.8C132.156 339.667 136.29 340.867 146.823 341C157.356 341 157.623 341.133 165.756 347.267C174.69 353.933 180.29 356.2 194.556 359.533C204.823 361.933 208.956 364.733 238.956 390.467C249.223 399.267 260.69 408.6 264.29 411C267.89 413.533 274.423 418.867 278.823 423C283.223 427.133 290.29 433.267 294.556 436.867C304.423 445.133 310.156 454.733 310.156 463.267C310.156 466.733 311.09 472.467 312.29 475.933C316.69 489.133 324.69 495.267 339.49 497C353.09 498.6 361.49 500.6 366.023 503.4L370.556 506.2L369.623 497.133C367.756 478.067 359.756 460.6 349.756 453.133C346.556 450.733 344.023 450.333 334.423 450.333C328.023 450.333 320.69 450.867 318.023 451.4C311.49 453 309.89 449.4 315.49 446.067C317.756 444.867 319.49 443.4 319.49 443C319.49 442.6 315.49 440.867 310.556 439.133C292.023 432.6 282.69 425.4 284.423 418.867C285.356 415.4 296.29 406.6 311.756 396.867C318.556 392.6 327.49 386.467 331.49 383.267L338.823 377.267L351.49 378.2C364.956 379.133 368.823 381 368.823 386.333C368.823 392.6 372.823 402.467 377.09 406.6C382.423 411.667 384.156 412.2 399.756 413.667C406.556 414.333 413.49 415.267 415.223 415.667C419.09 416.867 419.09 413.8 415.356 402.6C407.89 380.067 395.623 372.333 377.623 378.467C370.29 381 368.29 379.8 369.356 373.267C369.89 371 369.49 369.667 368.423 369.533C359.223 369 356.29 366.6 357.49 360.467C359.49 349.533 362.423 347.8 382.823 345.133C407.756 341.8 413.89 340.467 428.556 335.533C442.29 331 451.356 326.867 458.823 321.667C462.29 319.4 464.156 319.133 472.156 319.8C494.023 321.667 521.623 310.867 532.29 296.467C538.69 287.667 541.89 277.133 544.823 253.667C548.156 228.067 551.223 217.667 558.156 208.067L563.49 200.467L555.89 201.133C512.556 204.867 483.356 214.6 465.756 231C455.356 240.733 450.69 250.2 448.823 265.533C447.09 278.6 448.823 295 452.823 303.933C454.69 308.067 455.09 310.6 454.156 311.667C450.956 315.533 438.556 320.867 430.956 321.533C424.023 322.2 422.823 322.733 422.823 325C422.823 327.4 421.623 327.8 408.156 328.467C395.09 329.267 391.356 330.067 374.423 336.067C355.623 342.733 354.956 343.133 335.09 358.067C299.623 384.867 281.09 396.333 273.623 396.333C268.69 396.333 264.423 393 240.823 371.667C202.556 337 195.49 332.867 162.156 326.333C145.49 323 140.023 318.867 143.49 312.333C145.223 309.133 167.356 298.2 185.49 291.667C209.356 283 239.756 274.867 261.89 271.133L283.623 267.533L291.223 258.067C295.49 252.867 303.756 243.933 309.49 238.2C315.356 232.333 326.156 221.267 333.49 213.533C348.556 197.533 363.356 185.4 376.556 178.2C381.49 175.4 389.89 170.2 395.356 166.6C400.823 162.867 407.756 159.4 410.69 158.733C413.756 158.067 419.356 156.333 423.09 154.867C428.956 152.467 430.823 152.333 434.29 153.533C440.423 155.667 457.89 155.4 465.756 153C481.623 148.333 487.623 140.733 495.89 114.867C500.956 99.1334 503.223 94.3334 508.023 88.2L513.89 80.6L507.89 79.8C497.756 78.4667 478.156 79.0001 467.223 80.8667C446.823 84.6 432.823 94.2 427.223 108.333C424.956 114.2 424.29 118.867 424.023 131L423.756 146.333L419.49 148.067C415.49 149.667 415.356 149.667 416.156 146.867C416.956 144.733 416.69 144.067 415.356 144.6C403.756 149.267 400.956 150.6 398.023 153.667C395.09 156.467 387.223 161.4 367.09 172.6C364.956 173.933 362.556 174.6 361.89 174.2C359.89 173 360.69 165.667 364.29 152.6C367.623 140.467 368.023 139.667 375.356 132.867C383.89 125 390.69 112.867 392.156 103C393.223 95.9333 390.423 86.4667 384.956 78.3334C383.557 76.2815 380.658 72.0767 377.627 67.6813C376.325 65.793 374.998 63.8696 373.756 62.0667C368.29 53.9333 365.89 49 364.556 43L362.956 35L359.09 38.7333C352.156 45.2667 339.223 63.5333 334.69 73C326.956 89.1334 326.156 101.533 331.89 113C335.49 120.2 347.623 132.733 354.69 136.467C360.423 139.4 360.423 139.533 359.223 144.2C357.756 149.267 353.756 155.933 350.423 158.6C348.69 160.067 348.956 160.467 351.756 161.533C354.956 162.733 355.09 163.133 354.023 169.267C353.538 171.787 352.983 175.013 352.562 177.457C352.47 177.996 352.383 178.498 352.306 178.945C352.251 179.258 352.201 179.545 352.156 179.8C351.49 183.4 349.223 185.533 335.09 194.733C320.956 203.933 316.823 207.667 303.356 222.467C294.823 231.933 286.156 241.667 284.156 243.933C280.023 249.133 278.29 249.667 237.49 259C221.356 262.733 194.556 269.133 177.89 273.133L147.49 280.6L126.556 293.667C114.956 300.867 92.2896 315.4 76.1562 325.933L46.823 345.133L31.7563 363.133C14.4645 383.495 -2.27783 401.501 -16 414.5L-10.5022 459.059Z" fill="url(#paint0_linear_57_82)"/>
</g>
<defs>
<linearGradient id="paint0_linear_57_82" x1="561.656" y1="128.976" x2="88.5639" y2="4.94122" gradientUnits="userSpaceOnUse">
<stop stop-color="#4F772D"/>
<stop offset="1" stop-color="#90A955"/>
</linearGradient>
<clipPath id="clip0_57_82">
<rect width="711" height="578" fill="white"/>
</clipPath>
</defs>
</svg>
