<svg width="457" height="632" viewBox="0 0 457 632" fill="none" xmlns="http://www.w3.org/2000/svg">
<g clip-path="url(#clip0_94_63)">
<path d="M113.494 382.031C113.549 381.959 109.174 385.701 109.174 385.701C108.991 385.94 108.893 386.168 108.965 386.223C109.036 386.277 110.274 386.542 111.729 386.82C113.16 387.08 115.089 387.531 115.984 387.798C118.506 388.513 120.589 389.953 121.089 391.282C121.929 393.554 120.479 396.841 118.495 397.106C116.301 397.399 112.092 395.964 107.239 393.24L105.016 392.034L105.654 393.43C106.403 395.177 106.243 396.23 105.192 396.563C104.202 396.868 101.947 396.546 99.5395 395.729L97.5585 395.049L97.4746 396.349C97.3123 398.991 95.5879 399.908 92.4532 398.953C90.3273 398.313 90.0642 398.112 90.6999 397.726C87.9963 397.049 85.7075 397.775 80.2997 400.968C80.9496 401.01 86.5357 405.456 87.5237 406.742C88.5652 408.106 88.9132 409.585 88.5268 411.032C87.9593 413.213 86.6147 414.08 84.4565 413.681C82.8273 413.383 79.5715 411.842 77.0809 410.242C75.0575 408.923 75.0575 408.923 74.7257 409.654C72.7422 413.936 70.3203 415.419 65.9338 415.06L64.1527 414.912L64.4572 416.546C64.7673 418.223 64.5165 421.328 63.9864 422.021C63.5111 422.643 61.4446 422.769 58.8953 422.336C56.4122 421.917 53.9796 421.232 54.1441 421.017L50.2325 422.257L51.8197 422.885C51.8278 422.886 51.8342 422.889 51.8391 422.893C52.2696 423.222 52.1929 425.058 51.7176 425.679C51.1692 426.397 49.0088 427.588 47.1971 428.173C45.6329 428.683 43.0881 429.088 42.8011 428.868L31.5167 428.535C28.9072 428.152 27.2221 428.918 23.9926 431.407L27.6583 434.985C21.4999 438.5 20.9999 439.5 19.3105 438.092L-3.48537 447.5L13.8093 459.417C14.1749 458.938 19.3781 461.551 20.8107 462.949C21.4017 463.514 22.0844 464.604 22.4547 465.607C22.8194 466.568 23.2658 467.818 23.5136 468.387L23.9079 469.408L25.3118 469.306C26.101 469.265 26.8044 469.386 26.9466 469.646C27.0832 469.864 27.2481 470.937 27.3048 472.004C27.3727 473.154 27.5812 474.072 27.8922 474.309C28.1553 474.51 29.3372 474.997 30.5022 475.357C32.9221 476.107 33.7959 476.699 34.5842 478.097L35.1656 479.072L36.1642 478.509C38.4343 477.175 41.4166 476.991 44.7018 477.948C45.4587 478.148 46.196 478.522 46.3804 478.776C47.2009 479.934 45.4912 482.568 42.9187 484.05L41.2661 485.022L42.4283 485.683C44.0281 486.565 46.2341 487 48.1149 486.771C48.9829 486.676 52.4166 485.852 55.7546 484.955C62.4306 483.161 64.6434 482.844 67.066 483.293C70.1921 483.864 72.0327 485.422 72.26 487.604C72.3362 488.496 72.176 488.904 71.2437 490.124C70.251 491.373 68.4677 492.814 66.1849 494.214C65.7306 494.511 65.7545 494.53 67.07 494.891C71.9591 496.278 75.3675 495.586 79.6177 492.355C81.297 491.1 81.8201 490.515 83.3766 488.18L85.2256 485.463L86.6183 485.277C88.3064 485.052 91.0316 485.998 92.2968 487.268C94.433 489.431 93.3037 494.479 89.9454 497.633C89.2226 498.331 88.639 498.946 88.6263 499.012C88.6784 499.242 94.5077 497.862 96.2294 497.245C99.1355 496.169 100.578 495.075 104.184 491.199C108.313 486.739 109.089 486.12 109.953 486.477C111.279 487.073 112.955 490.135 112.891 491.905C112.867 492.531 112.569 493.515 112.239 494.096L111.651 495.163L112.646 495.052C114.641 494.871 119.499 492.976 121.384 491.65C123.371 490.29 124.541 488.759 126.793 484.721C128.501 481.593 133.341 474.417 134.404 473.373C135.716 472.102 137.696 471.645 139.913 472.165C141.812 472.555 142.734 473.184 143.307 474.417C144.063 476.056 142.982 479.701 140.446 483.863C139.602 485.264 139.595 485.373 140.209 485.463C141.616 485.704 146.711 484.938 148.843 484.18C153.398 482.584 153.495 482.506 159.889 474.586C166.721 466.091 169.783 462.482 171.666 460.663C174.824 457.621 179.993 454.675 184.303 453.498C185.625 453.106 186.742 452.785 186.779 452.737C186.816 452.689 183.298 451.441 178.934 449.962C169.233 446.641 157.272 442.161 149.971 439.12C143.738 436.516 140.995 435.594 137.665 434.944C133.366 434.122 127.974 434.434 124.127 435.7C122.732 436.187 119.528 437.603 119.327 437.866C119.29 437.914 120.304 438.273 121.62 438.634C122.917 439.019 125.018 439.791 126.314 440.326C130.92 442.331 136.424 447.674 136.336 450.07C136.283 451.279 134.688 453.168 133.202 453.774C130.826 454.801 130.31 454.633 126.116 451.542C121.976 448.53 120.359 446.878 119.774 445.066L119.357 443.876L118.292 445.071C116.778 446.755 115.378 447.049 111.378 446.531C108.233 446.135 98.4821 445.656 98.5159 445.909C98.5216 445.951 99.5529 446.436 100.807 446.977C102.312 447.635 104.3 448.852 106.646 450.493L110.206 453.024L110.633 454.449C111.258 456.556 111.058 458.752 110.168 459.966C109.442 460.965 109.4 460.971 107.923 460.524C107.118 460.288 105.685 459.534 104.716 458.869C103.22 457.802 103.012 457.529 102.982 456.824L102.954 455.969L101.299 456.447C98.0514 457.375 95.2205 456.121 92.7293 452.588C92.0453 451.649 91.4499 450.891 91.4134 450.938C87.2514 453.062 83.7895 453.675 80.0683 452.991C78.7219 452.72 77.9876 452.689 78.4491 452.928C80.1642 453.709 84.7586 457.068 85.5622 458.099C87.2286 460.282 87.0225 462.436 84.9411 464.217C84.207 464.831 83.778 464.995 83.2138 464.792C82.0488 464.432 80.2924 462.218 79.4504 460.097L78.7323 458.26L78.2022 458.953C77.2333 460.221 74.1494 459.645 69.5878 457.334L67.7953 456.456L68.9099 457.725C70.8112 459.898 71.4056 462.095 70.7636 464.522C70.3885 466.054 69.4939 466.431 67.4384 465.997C64.854 465.462 64.2729 465.132 62.4419 463.164C60.9207 461.585 60.3944 461.182 57.9011 459.883C53.7418 457.69 53.8685 457.673 54.4785 460.147C55.1702 462.911 54.8147 464.269 53.1255 465.289C51.7992 466.132 50.3391 466.456 49.8367 466.072C49.6453 465.926 49.5295 464.739 49.5657 463.402C49.6257 462.084 49.5296 460.722 49.3761 460.378C49.0044 459.525 47.3412 458.33 45.8822 457.859L45.8375 457.845C44.6695 457.463 44.6624 457.46 42.6611 459.149C42.2912 459.434 41.3966 459.812 40.6665 459.974C38.9293 460.313 37.6165 459.651 36.0149 457.631C35.366 456.794 34.8003 456.097 34.7763 456.079C34.7285 456.042 34.2742 456.339 33.7468 456.732C33.1955 457.106 32.3009 457.483 31.7705 457.533C30.6676 457.637 30.8829 457.801 27.8756 454.745C27.0819 453.949 26.626 453.753 24.299 453.376L21.6175 452.918L18.4795 450.331C16.7641 448.906 15.1514 447.446 14.9318 447.089C14.5701 446.472 14.7572 446.425 18.5357 446.092C20.7232 445.907 23.8208 445.622 25.4119 445.474C29.2692 445.088 29.8643 445.201 30.0053 446.256C30.1351 447.227 29.4463 448.823 28.2637 450.419C27.7702 451.065 27.4581 451.623 27.5298 451.677C28.0083 452.043 33.9689 452.127 35.7723 451.8C39.8376 451.042 43.4564 448.39 47.35 443.295C49.1415 440.951 49.3904 440.724 50.0038 440.814C50.5088 440.897 50.8072 441.201 51.2759 441.976C52.7582 444.548 52.289 446.501 49.1997 450.543C48.0297 452.074 47.1087 453.378 47.2044 453.452C47.2762 453.506 48.2328 453.593 49.3161 453.663C51.9525 453.784 53.9484 452.808 56.543 450.206C57.9774 448.726 58.7634 447.698 59.7603 445.997C60.4702 444.72 61.2829 443.409 61.5388 443.074C62.2518 442.141 64.2957 441.847 65.5663 442.515L66.585 443.066L68.1824 440.876C70.1087 438.257 70.9625 437.734 72.136 438.48C73.9863 439.629 74.6137 443.518 73.794 448.954L73.5498 450.662L74.7746 449.059C77.1876 445.902 79.5195 444.388 82.2373 444.153L83.8523 444.023L83.9755 442.375C84.0441 441.442 84.3743 440.217 84.7652 439.606C85.3276 438.672 85.6187 438.44 86.6624 438.214L87.9116 437.918L88.3555 436.098C88.9371 433.701 89.325 432.747 90.9388 429.395C92.6624 425.901 92.8269 425.685 94.0577 425.413C94.9805 425.247 95.1845 425.327 96.1035 426.257C97.3447 427.509 97.5336 428.6 97.0576 431.306C96.6911 433.223 95.5754 436.766 94.6645 438.949L94.1051 440.227L95.4779 439.571C97.4133 438.625 101.381 436.011 103.208 434.414C104.464 433.366 105.049 432.6 106.119 430.804C107.256 428.869 107.627 428.433 108.639 427.804C109.293 427.394 110.319 427.042 110.921 427.048L112.036 427.028L112.865 425.199C114.155 422.32 115.895 421.035 117.762 421.666C118.483 421.914 118.706 421.82 118.921 421.34C119.655 419.438 122.555 414.304 123.762 412.725C125.297 410.716 126.175 410.212 127.538 410.609C128.523 410.907 129.57 412.314 129.817 413.677C130.099 415.143 129.433 417.551 127.944 420.392C125.481 425.103 125.308 424.932 129.895 422.451C136.799 418.672 141.127 415.538 144.132 412.151C147.192 408.692 152.449 399.335 154.052 394.46C154.343 393.583 154.923 391.336 155.362 389.474C155.782 387.635 156.55 385.191 157.018 384.033C158.248 381.184 161.522 376.108 164.542 372.354C165.882 370.65 166.942 369.263 166.858 369.274C166.755 369.309 165.467 369.954 163.984 370.753C160.578 372.583 155.513 374.699 151.491 375.945C148.339 376.946 137.335 378.502 125.885 379.602C119.966 380.157 117.723 380.564 115.04 381.545C114.122 381.904 113.44 382.102 113.494 382.031Z" fill="black" fill-opacity="0.1"/>
<path d="M-3.48537 447.5L0.663976 442.457C-2.83627 439.742 -3.40872 438.946 -3.48537 436.654L-3.57565 434.901L-5.88586 432.526C-7.15937 431.227 -8.33662 429.851 -8.52829 429.442C-8.91162 428.624 -8.65944 427.176 -7.85186 425.068C-7.23426 423.548 -7.43614 422.479 -8.29992 422.552C-8.58359 422.585 -9.41243 422.874 -10.1484 423.219C-10.8844 423.564 -11.5097 423.79 -11.5225 423.763C-11.7525 423.272 -12.0395 419.184 -11.9731 417.623C-11.8001 414.516 -11.2839 413.277 -9.36805 411.548C-8.431 410.709 -7.62686 409.8 -7.55274 409.533C-7.34488 408.771 -8.95656 407.531 -10.5776 407.193C-11.7966 406.934 -12.0948 407.007 -14.4391 408.106C-15.9384 408.808 -17.0253 409.185 -17.102 409.021C-17.3959 408.394 -16.883 405.161 -16.2944 403.722C-15.3633 401.523 -14.2815 400.284 -11.2318 397.924C-6.80895 394.521 -6.02011 393.154 -6.02603 388.601C-6.03623 385.813 -6.64019 384.666 -7.96568 384.888C-9.30565 385.151 -14.2507 388.433 -16.5822 390.623C-17.7007 391.712 -18.7051 392.549 -18.7851 392.52C-19.0654 392.418 -18.7366 389.006 -18.2109 386.864C-17.4017 383.625 -16.4816 382.396 -13.1534 380.204C-11.5928 379.207 -10.0561 378.088 -9.69657 377.72C-8.29866 376.233 -7.72618 373.837 -8.23387 371.548L-8.49198 370.571L-6.80955 370.614C-3.12272 370.748 -0.215356 369.219 2.47057 365.799C5.03128 362.537 5.64122 359.724 4.4938 356.638C3.87451 355.033 3.67944 354.758 2.90596 354.456C1.4791 353.894 -1.22637 354.365 -4.0341 355.68C-6.16034 356.677 -6.62714 357.029 -7.68345 358.322C-8.33683 359.127 -9.21086 360.667 -9.64191 361.734L-10.4188 363.694L-10.9785 362.925C-12.344 361.005 -12.108 357.536 -10.3693 354.294C-7.9219 349.656 -7.28472 348.958 -4.40288 347.375C-2.34053 346.242 -1.66843 345.76 -1.30043 345.056C-0.593374 343.727 -0.372727 341.928 -0.756902 340.612C-0.916194 339.988 -0.995412 339.393 -0.951966 339.273C-0.868483 339.168 0.484278 338.933 2.03721 338.77C5.27767 338.448 8.8657 337.165 10.2312 335.894C11.8327 334.345 11.8745 332.164 10.3369 330.657C9.71932 330.049 9.7193 330.049 10.7773 329.752C12.7971 329.238 16.3859 327.39 17.6135 326.249C19.4765 324.478 20.2458 321.225 19.4681 318.43C18.7985 316.151 15.9405 315.728 12.6771 317.49C11.1343 318.313 10.4733 318.889 8.94506 320.736C7.08289 323.005 5.02052 326.266 3.19496 329.748C2.65658 330.799 2.0543 331.713 1.86349 331.802C1.61815 331.917 1.3098 331.33 0.601077 329.534C-0.260981 327.411 -0.365778 326.762 -0.301014 324.205C-0.266919 321.795 -0.00877452 320.643 1.22048 317.307C3.82722 310.1 5.49601 307.489 13.6492 297.716C16.9272 293.786 18.9563 290.241 20.6635 285.584C22.2403 281.287 23.0726 277.672 23.5326 273.333C23.6775 271.868 23.8572 270.62 23.9117 270.595C24.1298 270.493 26.9205 273.042 28.5858 274.821C32.5963 279.193 33.5154 280.657 38.3028 290.517C43.0646 300.321 44.787 304.635 45.8662 309.349C47.0426 314.484 47.3774 319.88 46.7188 324.079C46.4096 326.185 45.1156 329.951 44.1019 331.689L43.2986 333.097L43.1555 332.366C42.5353 329.198 41.0744 326.791 39.0939 325.757C37.6449 325.007 34.562 324.955 34.0049 325.682C33.7817 325.986 33.6079 326.466 33.6539 326.777C33.7289 328.072 36.0229 333.747 38.7752 339.406C42.2157 346.605 42.4628 347.487 41.8409 351.835C41.4004 354.868 39.5255 360.302 38.1054 362.663C37.0099 364.44 35.646 365.645 34.3044 365.974C33.1791 366.269 33.2174 366.351 32.9193 364.296C32.5453 361.512 31.3877 357.765 30.5452 356.464C29.5605 354.931 28.2938 354.427 26.6105 354.95C25.0908 355.396 24.1103 356.355 24.2066 357.34C24.2364 357.759 24.8216 359.646 25.5141 361.549C27.0142 365.6 27.1164 366.883 26.187 370.078C25.2142 373.394 25.1946 373.635 26.0958 377.403C26.9843 381.143 26.9655 382.947 25.9901 384.767C25.2269 386.189 23.9329 387.826 22.9575 388.583L22.1618 389.155L22.138 386.905C22.1261 385.248 21.9498 384.234 21.4003 383.061C20.7248 381.549 20.6064 381.439 19.2307 380.986C17.6803 380.516 16.3114 380.858 16.0729 381.768C15.9987 382.035 16.1648 383.454 16.4511 384.916C17.2858 389.179 16.5123 395.261 15.0599 395.709C14.5581 395.845 14.3997 395.719 14.047 394.754C13.4295 393.082 12.3851 392.84 9.50922 393.656C7.40599 394.276 7.22795 394.392 6.76198 395.243C6.06941 396.531 6.92039 398.56 9.15223 400.839C11.8943 403.71 12.9216 406.753 12.4607 410.593L12.2111 412.473L11.3431 411.117C10.0866 409.146 8.37188 407.19 7.44166 406.695C6.4714 406.185 5.21915 406.706 4.46099 407.925C3.91324 408.814 3.92601 408.841 6.65787 413.18C7.68093 414.795 7.50715 415.276 5.46865 416.531C4.64745 417.048 3.85182 417.621 3.71212 417.819C3.57071 418.085 3.83222 418.927 4.50943 420.372C5.07165 421.571 5.51035 422.862 5.5146 423.226C5.47882 423.575 5.07332 424.696 4.5639 425.666C4.06726 426.664 3.66176 427.785 3.62428 428.201C3.53312 429.142 4.56811 431.35 5.35863 432.044C6.00518 432.572 6.00518 432.572 6.00434 431.009C5.97966 428.261 7.08198 427.279 10.8855 426.527C13.5655 426.003 13.7742 425.738 12.5518 424.549L12.5244 424.524C11.3674 423.442 11.3611 423.436 14.0008 421.044C16.3579 418.908 16.3971 418.424 14.259 417.764L12.6958 417.266L14.1431 415.956C15.1619 415.08 16.53 414.239 18.3564 413.383C20.9733 412.156 21.2042 412.081 24.8995 411.879C27.3273 411.738 29.0438 411.499 29.5362 411.202C30.7117 410.518 30.8949 409.135 30.0788 407.323C29.48 405.975 29.3215 405.849 27.9569 405.492C26.1918 404.989 23.7913 405.116 20.3626 405.959L17.8283 406.581L19.3106 405.488C24.978 401.335 29.032 399.202 31.9359 398.872C33.5434 398.684 34.3995 398.382 36.8691 397.125C39.7475 395.676 39.871 395.585 40.153 394.555C40.3609 393.792 40.2961 393.158 39.9383 392.394C38.865 390.104 36.8359 389.393 32.7027 389.867L30.0696 390.137L32.0204 388.624C33.2155 387.698 35.0615 386.6 36.8334 385.77L39.6828 384.401L42.8986 384.523C45.4013 384.614 46.3869 384.517 47.341 384.07C48.9638 383.276 50.5227 381.282 51.1684 379.184C51.5807 377.794 51.5765 377.43 51.0952 376.758C50.3021 375.633 47.054 374.662 45.2813 374.994C43.4941 375.366 39.3634 377.335 36.9237 379.011C35.841 379.751 34.9125 380.253 34.8742 380.171C34.708 379.817 35.2055 377.189 35.7013 375.694C36.6912 372.769 37.0362 372.441 40.9582 370.736C44.3222 369.259 44.4185 369.181 44.6425 368.311C44.8955 367.361 44.4534 366.205 43.5462 365.333C43.231 365.016 43.0232 364.714 43.0777 364.688C43.1594 364.65 44.3903 364.439 45.8504 364.22C47.2977 363.974 49.6395 363.508 51.0229 363.126C53.3681 362.525 53.5861 362.423 54.0487 361.708C54.4005 361.11 54.4091 360.774 54.07 360.334C53.7054 359.84 53.7361 359.693 54.1671 359.69C57.0242 359.615 58.3659 359.285 61.1047 358.035C63.8161 356.797 64.0359 356.627 64.7668 355.42C65.2583 354.625 65.582 353.542 65.5914 352.64C65.611 351.334 65.5233 351.076 64.7507 350.208C63.7029 349.036 61.4659 348.023 59.769 348.02C58.0866 347.978 53.5888 350.086 50.7734 352.237C49.6472 353.097 48.6335 353.772 48.5407 353.715C48.1931 353.612 51.1772 346.927 52.5521 344.753C55.2764 340.351 57.4904 338.548 62.2233 336.729C67.3634 334.785 67.8226 334.204 66.1146 331.979C65.4238 331.072 65.2211 330.569 65.2219 330.003C65.2679 329.25 65.3497 329.212 69.0246 327.689C74.3862 325.508 79.2716 322.454 81.0103 320.276C82.8614 317.912 82.8376 312.47 80.9473 311.061C80.6832 310.853 79.8118 310.696 79.0571 310.717C77.844 310.754 76.7153 311.183 70.4891 314.002C66.5109 315.8 62.7329 317.67 61.979 318.19C61.2379 318.737 60.5547 319.123 60.4746 319.094C60.1143 318.964 61.4475 315.779 62.6571 313.749C65.0892 309.716 71.3793 302.778 78.2309 296.541C82.284 292.845 84.5329 291.259 91.2703 287.403C100.072 282.347 101.726 280.84 104.213 275.718C104.967 274.134 106.051 272.263 106.594 271.576C108.026 269.808 110.588 267.543 112.488 266.419L114.129 265.451L114.619 266.85C114.882 267.625 115.398 269.079 115.776 270.099C117.362 274.476 118.274 280.466 118.06 285.188C118.023 286.668 117.324 290.853 116.545 294.51C114.598 303.835 114.588 305.302 116.653 312.049C118.132 316.908 119.433 323.514 119.348 325.815C119.238 329.624 117.569 335.427 114.844 341.459C113.974 343.363 113.161 345.174 112.992 345.452C112.778 345.918 112.583 345.644 111.351 342.73C109.24 337.801 106.472 334.876 102.363 333.344C99.9222 332.393 98.8983 332.407 97.9834 333.434C96.2515 335.343 95.2327 339.412 96.0504 341.157C96.306 341.702 97.1008 342.759 97.7822 343.504C98.4765 344.276 99.0873 345.153 99.1333 345.464C99.2653 346.1 98.5523 347.133 97.3716 348.019C96.932 348.358 96.3766 349.017 96.1356 349.496C95.581 350.654 96.0154 351.581 98.6357 354.475C101.059 357.163 101.933 358.815 101.708 360.251C101.572 361.379 100.068 364.91 98.4388 368.101C97.2079 370.44 97.006 371.499 97.2496 374.643C97.3373 375.965 97.2069 377.39 96.89 378.203C95.9666 380.631 93.2194 383.282 93.0115 381.916C92.8241 380.807 91.6903 377.182 90.5557 374.123C88.8273 369.513 87.5913 367.798 85.8688 367.741C83.7571 367.634 81.9358 369.352 81.7995 371.544C81.7501 372.431 82.0244 373.3 83.1999 375.808C84.0049 377.526 84.9317 379.22 85.2196 379.55C85.7427 380.169 85.7154 380.182 84.4521 380.608C82.8216 381.173 82.2466 382.074 82.1921 384.228C82.1554 385.143 81.8224 387.128 81.4612 388.627C79.7131 395.963 77.9557 398.882 73.969 401.016L71.6886 402.251L72.6997 400.082C73.3974 398.591 73.739 397.334 73.7314 396.04C73.7757 394.291 73.7135 394.087 72.888 393.177C72.365 392.558 71.3036 391.925 70.1025 391.49C67.9004 390.693 66.9915 390.953 65.4088 392.826C63.993 394.487 63.5968 395.77 63.7289 398.534C63.9213 402.633 63.7118 406.655 63.2373 407.842C63.0201 408.442 62.4723 409.331 62.0294 409.804C61.0182 410.91 58.2275 412.617 56.5587 413.1L55.2698 413.471L55.3048 411.56C55.3448 410.51 55.1148 408.956 54.8533 408.114C54.4018 406.796 54.2195 406.549 53.406 406.232C52.3395 405.801 50.5702 405.998 49.9892 406.603C49.7822 406.8 49.1348 407.901 48.5547 409.004C47.9874 410.135 46.4642 412.844 45.1694 415.047L42.8191 419.041L41.7832 418.463C40.7073 417.87 38.2114 417.51 37.5027 417.842C37.2573 417.957 36.7845 419.076 36.4157 420.347C35.66 423.062 35.304 423.295 32.4375 423.209C31.3207 423.167 30.2278 423.247 29.9552 423.375C29.6826 423.502 29.0982 424.242 28.6212 424.997C27.863 426.217 27.5325 426.505 25.7333 427.348C24.6157 427.872 23.5764 428.492 23.4367 428.691C23.4349 428.694 23.4334 428.698 23.4323 428.701L23.2974 428.809C19.1861 432.105 16.8358 433.99 19.3105 438.092L-3.48537 447.5Z" fill="black" fill-opacity="0.1"/>
<path d="M23.7016 483.317C23.152 482.102 23.2177 481.47 24.5821 475.466C25.0109 473.629 25.1569 471.513 25.0425 469.646L23.5136 469.646L22.3132 466C20.8163 466.715 20.0149 466.52 19.9238 465.394C19.8615 464.929 20.0872 463.703 20.3661 462.653L13.8093 459.417L-1.34765 449C-1.89953 452.252 -1.20854 454.523 1.04691 456.927C3.27277 459.27 3.38547 459.47 3.14017 460.684C2.98316 461.435 2.73302 461.813 2.18183 462.187C1.55191 462.615 1.203 462.576 -0.0860962 461.933C-0.979716 461.515 -2.14092 460.704 -2.7857 460.061C-3.44875 459.441 -4.00478 458.978 -4.05959 459.05C-4.27884 459.337 -2.66757 463.825 -1.74907 465.549C-0.599539 467.715 0.718318 469.214 3.52106 471.695C7.22615 474.978 7.76874 476.302 6.19746 478.359C4.57137 480.489 2.05282 479.967 -1.07538 476.821C-1.92291 475.947 -2.68168 475.254 -2.76608 475.265C-3.16981 475.297 -3.74998 478.339 -3.64766 479.743C-3.48875 481.569 -2.92225 482.911 -1.42251 484.965C0.464462 487.504 1.74838 488.75 6.69906 492.833C10.0056 495.548 11.7202 497.122 12.0105 497.685C12.5374 498.731 12.333 500.09 11.456 501.238C9.93951 503.224 8.49034 502.989 4.69131 500.126C1.65234 497.805 1.65234 497.805 2.29949 501.671C2.82216 504.608 3.89731 507.02 6.29987 510.521C8.9996 514.476 11.4112 516.924 16.1492 520.542C19.2599 522.917 20.6522 524.17 22.2206 525.935C24.6057 528.666 27.4873 533.177 28.7204 536.126L28.8269 536.37C29.2817 537.412 29.6906 538.35 29.7899 538.496C29.873 538.635 29.8569 537.713 29.7659 536.394C29.398 531.568 31.1231 526.332 36.6102 515.674C39.3663 510.278 39.6778 509.077 39.5 504.547C39.3972 502.499 38.0603 496.213 37.7227 496.258C37.6566 496.245 37.4095 496.966 37.1795 497.813C36.4457 500.51 33.8392 506.702 33.1462 507.46C32.2101 508.488 31.6414 508.092 30.3453 505.473C29.097 502.891 28.9977 501.83 29.9095 500.14C31.0896 498.049 31.4036 496.546 31.7153 491.822C32.0295 486.797 31.5837 481.229 30.6321 478.457C30.2853 477.473 29.9851 476.675 29.9611 476.657C29.9189 476.663 29.343 477.814 28.687 479.169C27.1602 482.359 25.6916 484.382 24.8363 484.41C24.3242 484.436 24.1271 484.248 23.7016 483.317Z" fill="black" fill-opacity="0.1"/>
<path d="M-1.88133 547.906L-2.67104 523.167C18.9449 535.602 37.3709 551.15 50.0601 568.226C59.8141 581.255 72.3526 610.47 68.2213 610.602C66.3556 610.661 60.9668 604.83 51.9218 593.113C38.2519 575.473 19.6754 560.012 -1.88133 547.906Z" fill="url(#paint0_linear_94_63)"/>
<path d="M-2.99453 513.033L-3.80237 487.725C9.51504 492.845 21.9522 498.792 31.764 504.911C37.3471 508.468 41.9546 510.722 41.9291 509.923C41.9036 509.123 35.8315 502.78 28.5429 495.943C18.3458 486.479 7.52389 478.483 -4.3112 471.785L-4.99996 450.208C9.67879 458.611 22.5933 468.62 32.6926 479.669C43.4787 491.597 48.3896 499.178 54.0506 513.538C57.6758 522.627 59.9187 526.024 65.9738 531.833C75.1961 540.744 83.8117 551.541 88.1939 559.272C91.4589 565.437 97.8204 580.842 99.6237 587.188C101.586 594.329 96.5487 591.155 87.7743 579.562C83.0391 573.31 72.6783 562.168 64.7022 554.685C45.2593 536.265 23.3607 522.755 -2.99453 513.033Z" fill="url(#paint1_linear_94_63)"/>
<path d="M-40.2093 139.716C-40.7633 139.8 -40.9164 140.066 -40.9037 140.831L-40.2513 147.575C-40.0136 150.138 -39.3381 154.217 -38.7738 156.564L-28.3804 185.231C-28.2947 185.551 -27.1383 188.045 -25.9752 190.827L-25.5506 191.842C-22.6742 198.758 -18.1967 212.613 -17.2592 217.551L-11.9659 232.18L-14.6356 236.804C-14.7137 238.426 -15.1689 239.477 -17.3791 243.305C-18.8452 245.845 -21.2817 250.502 -22.8269 253.704C-24.8215 257.858 -26.1782 260.208 -27.5754 261.928C-27.824 262.236 -28.1368 262.64 -28.4918 263.109L-14.8479 270.986C-11.5421 269.104 -6.09304 266.51 -1.67683 264.752C0.313113 263.93 4.22479 261.792 7.09853 259.964C14.2399 255.294 15.6641 254.752 21.4448 254.451L26.4006 254.179L23.8901 252.578C20.3786 250.348 15.325 248.34 13.111 248.325C12.0747 248.283 10.6243 248.608 9.93327 249.018C8.29016 249.939 4.86584 251.145 -1.72027 253.104L-6.88799 254.618L-5.1129 252.156C-4.10794 250.765 -1.98268 247.697 -0.349005 245.305C4.36095 238.372 14.8252 228.646 22.5466 224.109C26.7528 221.635 33.2034 219.649 38.0833 219.333C40.1298 219.201 46.206 219.525 51.6248 220.026C67.7398 221.598 76.7674 222.059 80.6388 221.566C82.6153 221.292 86.6896 220.359 89.6678 219.4C95.8793 217.478 96.3549 216.742 92.0498 215.975C90.5589 215.67 87.0686 214.716 84.24 213.841C77.9708 211.838 74.0286 211.23 65.9059 211.038C62.4823 210.931 56.8025 210.533 53.2988 210.127C46.4489 209.305 42.4554 209.223 32.5119 209.648C26.0098 209.886 23.2445 210.564 20.0063 212.585C18.0089 213.858 17.2816 213.893 17.96 212.718C19.2073 210.557 32.0012 182.973 33.2812 179.619C34.1379 177.435 36.092 172.651 37.6666 168.961C39.2412 165.271 41.2728 160.178 42.169 157.663C45.4561 148.645 46.6015 146.224 49.5886 142.187C52.7508 137.847 57.5224 132.82 63.7503 127.37C77.8905 114.864 88.6769 110.53 102.825 111.572C123.194 113.125 126.534 113.638 136.944 116.868C145.89 119.658 149.263 121.252 152.375 124.262C154.266 126.061 155.548 126.902 158.916 128.594C162.169 130.22 164.112 131.493 167.61 134.27C170.826 136.835 173.915 138.921 178.711 141.639C183.105 144.177 187.536 147.089 191.851 150.288C195.437 152.914 198.542 155.06 198.797 155.056C199.779 155.016 199.527 154.315 197.636 151.555C196.428 149.797 195.122 147.072 194.401 144.735C192.39 138.419 188.719 132.004 185.396 128.923C184.131 127.789 183.2 127.302 180.908 126.635C178.54 125.925 176.033 124.579 166.287 118.801L154.533 111.863L143.389 111.392L132.381 105.087C124.133 100.36 121.893 99.0057 119.515 98.6927C118.435 98.5506 117.327 98.6232 115.615 98.6922C114.085 98.7183 110.406 98.6159 107.461 98.3808C103.734 98.099 100.862 98.2604 97.8479 98.8447C95.5069 99.3124 91.7272 99.9097 89.4518 100.264C87.225 100.571 86.0344 100.713 84.9127 101.071C83.436 101.543 82.0787 102.389 78.6334 104.479C71.412 108.85 65.9079 112.696 63.0469 115.29C61.7009 116.484 60.552 117.336 60.488 117.097C60.3557 116.364 62.4449 107.059 64.1943 100.791C67.3514 89.3738 67.596 86.9378 66.3568 79.1978C65.8497 76.2266 65.5631 72.5236 65.6732 71.0206C65.7833 69.5175 67.0512 64.0842 68.4969 58.9556C70.7091 51.1869 71.2585 48.573 71.7234 43.1309C72.2438 37.4176 74.0661 28.312 76.179 20.8903C77.1004 17.6321 77.1341 17.3988 76.5658 17.0708C75.9218 16.6989 75.4404 17.5327 72.366 23.9951C64.8295 40.1109 62.7956 46.8707 59.3802 67.1346C57.2266 79.7886 56.3499 83.9318 53.913 92.1771C53.675 92.9912 53.4358 93.8072 53.2061 94.591L53.2019 94.6054L53.1992 94.6147C52.4313 97.2345 51.7703 99.4894 51.6133 100.097L51.2481 101.605L50.2704 98.3114C49.7525 96.4963 48.8834 94.3269 48.4263 93.4565C46.909 90.6601 40.2385 83.9284 31.78 76.6191C30.326 75.3754 29.5018 74.0909 28.4012 71.5352C26.6776 67.6089 26.478 67.3422 22.3889 63.3136C20.7253 61.6456 17.6472 58.403 15.5904 56.1037C12.1571 52.2516 11.0702 51.422 10.6107 52.2179C10.5231 52.3695 10.9702 53.0825 11.6126 53.8071C14.0685 56.64 14.8457 58.7059 15.4886 63.979C15.8442 66.8627 16.449 69.8398 16.8742 70.5906C17.2994 71.3414 19.2468 73.8303 21.2497 76.0479C28.4237 84.1822 33.1074 96.8923 34.5116 112.308C34.6213 113.442 34.7502 114.804 34.8779 116.154C35.0457 117.927 35.2115 119.679 35.3292 120.866C36.5353 133.387 36.512 136.052 35.0227 141.257C33.9582 144.938 27.5826 162.28 25.7673 166.386C25.1589 167.703 24.5167 169.252 24.3459 169.811C24.0817 170.618 23.7963 170.15 22.8287 167.014C22.0691 164.655 20.7631 161.931 19.4539 159.911C17.061 156.357 9.6218 148.069 3.4363 142.072C1.28607 140.022 -2.28869 136.24 -4.54504 133.674C-7.4219 130.346 -8.75632 129.07 -9.23446 129.198C-9.59307 129.294 -9.83801 129.456 -9.76812 129.597C-3.42677 144.073 -2.52833 145.754 3.47811 154.074C9.19325 162.022 12.6592 170.543 12.2877 175.735C11.9237 180.478 4.78241 207.283 2.59511 212.034L1.51533 214.341L-1.4905 209.574C-3.15506 206.945 -5.97477 202.992 -7.74451 200.808C-12.0021 195.672 -12.4054 194.883 -14.515 187.601C-17.0145 178.982 -19.2907 172.513 -22.141 165.814C-25.281 158.391 -26.8858 155.747 -30.5844 151.741C-35.8649 146.014 -37.2136 144.326 -38.3638 141.944C-39.2404 140.225 -39.6933 139.609 -40.2093 139.716Z" fill="black" fill-opacity="0.1"/>
<path d="M24 381.228C27.2 375.045 31.1999 373.83 38 372C36.9132 376.657 34.5575 376.598 34.5 379.415C31.1657 380.1 27.6736 380.692 24 381.228Z" fill="url(#paint2_linear_94_63)"/>
<path d="M186.223 94.9735C186.322 95.2086 185.872 96.8244 185.23 98.5457L184.07 101.741L184.595 107.694C185.506 117.46 185.205 126.744 183.686 137.756C182.186 148.329 181.285 151.561 177.882 158.416C173.059 168.119 168.857 173.756 162.218 179.444C147.325 192.227 143.74 195.697 136.942 203.75C130.99 210.817 128.514 215.505 127.115 222.556C126.616 225.138 126.383 227.094 126.587 226.902C126.84 226.672 128.669 223.749 130.689 220.411C135.607 212.224 137.275 209.809 141.744 204.785C148.95 196.657 152.004 193.819 161.37 186.971C173.161 178.3 177.032 176.242 189.494 172.175C204.226 167.37 206.465 167.158 222.855 168.732C228.473 169.308 234.468 169.717 236.188 169.74C237.87 169.714 243.773 170.154 249.304 170.717C254.792 171.275 261.294 171.844 263.707 171.966C269.968 172.368 278.006 173.951 277.889 174.774C277.827 175.207 276.912 175.431 274.697 175.47C272.965 175.534 270.064 175.741 268.22 175.966C266.371 176.234 262.374 176.374 259.331 176.34C256.287 176.306 250.305 176.429 246.03 176.662C241.755 176.896 236.132 176.982 233.583 176.885C231.04 176.745 228.25 176.791 227.396 176.891C226.604 177.023 223.98 177.347 221.355 177.67L221.351 177.671L220.691 177.752C214.765 178.414 213.033 178.787 205.45 180.849C202.419 181.657 196.346 183.049 191.985 183.889C179.039 186.384 173.033 188.538 163.047 194.149C157.476 197.292 154.286 199.845 150.243 204.355C144.57 210.711 142.976 213.226 135.336 228.143C132.223 234.199 124.323 255.932 123.733 260.091C123.505 261.695 135.431 252.38 137.742 249.172C141.159 244.397 142.009 246.816 139.249 253.497C138.249 255.874 136.877 258.067 134.201 261.356C132.168 263.852 130.147 266.571 129.684 267.346C126.954 271.953 116.297 296.919 113.934 304.231C113.052 307.023 111.731 310.725 110.996 312.478C110.268 314.187 108.959 317.803 108.095 320.465C107.238 323.084 105.929 326.7 105.244 328.415C104.17 331.003 102.086 339.46 102.476 339.515C102.519 339.521 103.65 338.4 104.911 336.987C107.272 334.361 107.798 334.082 108.04 335.177C108.288 336.229 103.007 345.116 99.2802 349.891C97.3954 352.276 94.9298 355.639 93.8115 357.293C92.6499 358.94 91.2842 360.78 90.7156 361.362C88.9911 363.239 90.2217 362.663 95.0507 359.458C97.5857 357.784 99.7189 356.451 99.7499 356.544C99.9418 356.748 96.0203 364.767 95.1244 366.099C93.8515 367.907 92.0215 369.283 88.4719 370.946C86.7157 371.801 84.2857 373.357 83.1174 374.429C81.7561 375.645 80.7289 376.534 79.8807 377.195L80.7429 377.195L81.3365 377.132C84.9111 376.75 86.416 376.589 87.875 376.78C89.0426 376.932 90.1808 377.309 92.327 377.978C94.5371 378.624 98.2122 379.69 100.53 380.262C103.507 381.014 106.175 382.088 109.428 383.927C111.995 385.392 115.281 387.048 116.678 387.675C118.257 388.34 119.29 388.745 120.207 389.333C122.227 390.627 123.679 392.805 129.136 400.589L136.42 410.975L146.308 416.137L153.999 427.413C160.365 436.786 162.062 439.07 163.903 440.719C165.695 442.297 166.331 443.133 166.993 444.697C168.692 448.898 169.288 456.265 168.424 462.837C168.084 465.259 168.108 468.281 168.454 470.386C168.993 473.688 168.923 474.43 168.017 474.048C167.785 473.943 165.886 470.681 163.757 466.78C161.21 462.05 158.437 457.531 155.538 453.367C152.352 448.868 150.443 445.667 148.621 441.978C146.635 437.977 145.418 435.999 143.164 433.145C140.835 430.182 140.032 428.876 139.085 426.443C137.547 422.397 135.171 419.52 128.259 413.193C120.209 405.845 117.404 403.96 99.6254 393.898C87.2623 386.941 75.6563 386.28 57.5419 391.59L52.9438 392C35.0205 400.715 18.9373 402.965 -4.49999 407.5L-4.5 384.5C6.15032 383.4 15.5547 382.462 24 381.228C27.6736 380.692 31.1657 380.1 34.5 379.415C51.5715 375.905 64.5051 369.951 76.4701 356.512C76.5193 356.165 77.4459 354.617 78.5891 353.099L80.5726 350.331L80.7908 345.057C80.8935 342.154 82.0564 338.305 82.0313 337.86L82.9387 339.262C83.6758 340.295 84.5059 341.606 84.7725 342.219C85.324 343.313 85.324 343.313 86.3555 341.338C86.9051 340.267 87.8366 337.128 88.3972 334.423C89.2536 330.256 89.6979 328.993 91.2547 326.429C92.2865 324.763 93.1941 322.726 93.3048 321.946C93.4216 321.123 94.3408 318.071 95.3715 315.167C95.5738 314.566 95.8073 313.873 96.0602 313.124C97.0493 310.192 98.335 306.38 99.2096 303.688C100.308 300.308 102.055 295.472 103.116 292.971C105.45 287.423 106.85 281.919 108.573 271.643C109.312 267.372 110.267 262.822 110.711 261.559C112.038 257.813 112.701 251.895 112.271 248.077C112.047 246.233 111.165 242.173 110.364 239.098C108.75 233.034 106.569 229.1 103.003 225.897C99.9076 223.115 98.4519 220.92 98.0044 218.469C97.0283 212.893 96.1613 211.842 91.4458 210.2C89.7625 209.608 88.2274 208.594 85.8004 206.393C82.8286 203.673 79.6222 201.671 74.5597 199.361C72.5669 198.459 72.4359 197.203 74.329 197.251C74.9476 197.25 76.4261 197.106 77.6941 196.889C84.1704 195.774 93.0946 199.516 97.7456 205.348C100.186 208.391 102.427 210.344 109.806 215.635C114.653 219.152 115.761 219.751 115.853 219.101C116.019 217.931 115.856 207.874 115.573 202.706C115.214 195.583 113.128 179.771 112.142 176.448C110.485 170.997 106.296 162.844 102.685 158.088C99.6318 154.074 98.6969 153.19 93.2804 149.327C89.3702 146.509 87.2544 144.908 84.9051 143.806C81.4264 142.173 77.4357 141.631 66.3486 139.847L50.3605 137.313L42.786 134.646C38.6151 133.215 33.3301 131.227 31.0279 130.326C26.4359 128.436 19.4252 126.778 6.32019 124.476C-0.0157564 123.356 -1.72356 122.937 -1.65592 122.46C-1.56983 121.854 -0.215181 121.648 4.46159 121.384C9.80645 121.081 14.4592 121.609 30.528 124.508C40.0938 126.219 48.9974 127.615 51.9238 127.854C59.1377 128.391 61.6684 128.927 69.5213 131.501C73.3642 132.753 78.6984 134.394 81.3716 135.171C93.1907 138.44 100.52 143.459 108.002 153.317C111.358 157.683 114.364 163.9 116.79 171.406L118.545 176.782L119.351 171.725C120.305 165.628 121.194 163.411 123.098 162.134C124.804 161.006 124.897 160.665 123.886 157.826C122.956 155.041 123.007 150.009 124.019 146.307C125.147 142.091 129.023 131.281 132.147 123.591C134.894 116.687 136.759 112.885 140.545 106.128C141.663 104.165 143.188 100.58 143.966 98.2152C144.99 95.0452 145.552 93.8873 146.028 93.9549C146.505 94.0225 146.444 95.6936 145.585 103.617C145.014 108.884 144.395 115.737 144.219 118.85C143.914 124.111 144.15 132.101 144.596 132.695C144.707 132.844 147.069 130.836 149.825 128.221C152.576 125.65 156.279 122.286 158.078 120.817C160.223 119.088 161.793 117.366 162.732 115.731C165.351 111.284 167.922 107.803 169.486 106.743C170.321 106.155 172.795 104.914 174.916 103.978C178.49 102.452 179.133 101.968 181.982 98.7036C183.719 96.7399 185.159 94.9993 185.19 94.7826C185.257 94.306 185.988 94.4538 186.223 94.9735Z" fill="url(#paint3_linear_94_63)"/>
</g>
<defs>
<linearGradient id="paint0_linear_94_63" x1="-4.99999" y1="530" x2="101" y2="583" gradientUnits="userSpaceOnUse">
<stop stop-color="#4F772D"/>
<stop offset="1" stop-color="#90A955"/>
</linearGradient>
<linearGradient id="paint1_linear_94_63" x1="-4.99999" y1="530" x2="101" y2="583" gradientUnits="userSpaceOnUse">
<stop stop-color="#4F772D"/>
<stop offset="1" stop-color="#90A955"/>
</linearGradient>
<linearGradient id="paint2_linear_94_63" x1="286.648" y1="113.056" x2="-112.753" y2="56.3752" gradientUnits="userSpaceOnUse">
<stop stop-color="#4F772D"/>
<stop offset="1" stop-color="#90A955"/>
</linearGradient>
<linearGradient id="paint3_linear_94_63" x1="286.648" y1="113.056" x2="-112.753" y2="56.3752" gradientUnits="userSpaceOnUse">
<stop stop-color="#4F772D"/>
<stop offset="1" stop-color="#90A955"/>
</linearGradient>
<clipPath id="clip0_94_63">
<rect width="457" height="632" fill="white"/>
</clipPath>
</defs>
</svg>
