<svg width="459" height="803" viewBox="0 0 459 803" fill="none" xmlns="http://www.w3.org/2000/svg">
<g clip-path="url(#clip0_94_66)">
<path d="M243.823 409.172C243.932 409.978 244.039 410.762 244.142 411.525C246.853 431.509 247.568 436.78 250.179 444.438C255.333 457.938 261.034 473.558 269.605 497.875C297.683 577.597 314.917 612.319 354.128 668.004C373.98 696.206 402.702 731.225 424.37 753.442C427.691 757.01 430.441 760.119 430.277 760.425C429.967 761.68 409.202 753.803 400.345 749.05C368.628 732.089 340.069 703.087 306.656 653.57C301.464 645.904 299.175 642.841 299.743 640.463C300.19 638.595 302.399 637.149 306.349 634.224C314.486 628.244 315.536 625.722 312.75 619.689C309.874 613.486 306.128 608.511 303.872 607.753C302.831 607.437 299.79 607.862 297.145 608.621C290.915 610.421 286.717 614.188 284.929 619.612C284.182 621.934 283.875 622.89 283.348 623.032C282.979 623.132 282.502 622.832 281.691 622.322C280.464 621.451 278.981 619.082 277.638 615.548C276.592 612.876 275.889 611.47 276.287 610.529C276.802 609.312 279.157 608.874 284.988 607.482C289.132 606.469 289.725 606.152 290.984 603.409C294.197 596.571 290.194 588.462 282.39 586.09C278.228 584.824 277.629 584.926 274.21 587.297C270.368 589.894 269.718 591.33 268.249 600.616L267.613 604.117L267.186 601.075C265.79 592.338 251.521 586.223 246.222 592.214C242.426 596.53 245.481 607.76 250.808 609.166C253.708 609.906 258.92 608.649 260.632 606.754C261.129 606.053 262.067 605.77 262.548 606.058C263.029 606.346 267.171 611.655 271.681 617.857C276.191 624.06 281.046 630.296 282.331 631.681C286.489 636 286.37 636.39 281.423 636.307C274.927 636.179 265.93 632.591 260.912 628.294C258.576 626.163 254.887 621.702 252.691 618.406C248.293 611.599 246.772 610.994 240.34 613.23C235.27 614.956 230.744 619.334 228.82 624.504C227.256 628.717 227.307 629.017 230.092 633.416C232.248 636.842 234.143 638.555 237.763 640.437C243.345 643.342 246.471 642.872 253.772 637.774L258.203 634.646L268.828 638.019C288.434 644.335 295.715 651.238 322.103 689.028C336.143 708.998 350.49 722.809 376.312 741.174C388.28 749.715 397.025 755.074 407.702 760.381C430.539 771.729 441.364 777.72 448.112 782.4C461.133 791.688 474.491 805.482 488.197 824.213C496.628 835.515 516.226 871.809 524.255 890.519C527.013 897.112 534.595 915.189 541.073 930.586C547.552 945.983 555.026 963.245 557.585 968.854L562.336 979.179L570.474 974.834C574.672 972.592 576.921 971.695 577.658 970.099C578.573 968.117 577.158 965.059 574.25 957.013C562.554 925.111 548.759 899.888 517.247 852.299C509.584 840.804 497.79 822.797 491.016 812.354C475.763 788.89 466.597 777.435 446.388 756.727C443.33 753.578 439.82 749.959 436.27 746.3C429.707 739.533 423.009 732.628 418.79 728.302C393.936 702.771 383.196 688.778 371.512 666.896C356.393 638.784 354.576 627.22 358.227 584.071C361.083 551.265 361.039 544.858 357.465 501.643C356.376 488.382 355.487 469.783 355.837 468.397C355.916 468.137 357.414 467.882 359.178 467.921C367.387 467.788 375.282 462.374 375.515 456.691C375.781 449.028 369.822 440.112 363.014 437.971C360.022 437.061 358.609 437.271 355.388 438.991C350.386 441.661 349.313 443.324 346.458 452.26L344.117 459.505L341.978 456.723C339.533 453.778 338.422 449.249 338.253 441.382C338.12 436.44 336.267 431.543 333.801 429.372C331.996 427.829 325.648 428.385 323.761 430.156C322.794 430.999 321.354 433.403 320.508 435.49L318.978 439.358L324.957 444.231C336.526 453.858 343.803 463.814 345.997 473.433C346.967 477.493 346.888 477.753 344.841 476.775C340.921 474.944 337.437 471.682 332.926 465.48C325.111 454.721 322.408 453.331 315.626 456.952C309.183 460.392 307.639 466.885 311.578 474.263C313.571 477.995 314.188 478.538 317.467 478.967C322.126 479.531 327.869 477.227 330.993 473.488L333.45 470.541L337.032 475.822C341.735 482.793 349.129 498.682 351.504 507.005C354.445 517.206 356.269 530.62 356.3 542.919C356.448 561.151 354.586 575.007 347.272 611.501C343.711 629.315 343.316 630.616 341.636 628.898C333.398 619.999 299.722 557.543 289.67 532.393C273.802 492.473 259.913 446.264 250.459 401.829C241.163 358.508 241.33 320.054 250.807 288.835C255.184 274.182 255.969 272.999 263.209 268.807C271.211 264.207 272.267 261.899 269.142 256.047C266.425 250.959 263.393 248.545 259.611 248.602C252.821 248.74 249.393 253.95 249.569 263.665C249.761 272.391 249.047 277.786 247.228 280.501C244.828 283.962 243.889 284.245 242.576 281.786C240.991 278.817 241.005 274.559 242.681 269.741C244.679 264.096 245.148 255.998 243.699 253.284C242.884 251.757 241.091 250.644 238.105 249.949C234.385 249.102 232.971 249.312 229.496 251.168C224.324 253.929 221.534 257.272 223.208 258.776C226.687 261.823 232.651 269.319 235.051 273.814C238.538 280.345 240.194 287.526 240.461 297.411C240.783 306.177 240.235 306.578 233.448 302.028C228.193 298.512 222.979 288.544 221.124 278.744C219.774 271.727 219.638 271.472 217.563 271.054C214.713 270.614 209.767 272.165 207.501 274.247C205.823 275.797 205.88 276.311 208.326 280.891C210.046 284.114 214.092 289.039 220.457 295.449C225.673 300.73 231.665 307.667 233.685 310.839C237.183 316.165 237.37 316.719 235.929 317.488C232.962 319.073 227.256 317.977 221.363 314.693C218.218 312.885 214.91 311.381 214.135 311.359C211.897 311.247 210.883 308.736 210.222 301.786C209.488 293.677 207.954 291.008 203.537 289.879C196.345 287.834 188.63 291.953 186.198 299.028C183.45 307.144 187.184 310.055 206.935 315.422C223.351 319.845 228.526 321.986 233.334 326.503C236.994 329.889 238.411 334.583 237.357 340.159C236.676 343.575 236.636 343.705 233.662 343.44C227.714 342.91 225.728 341.028 219.01 329.465L212.659 318.796L208.633 317.785C203.872 316.621 200.706 317.222 197.214 320.067C190.648 325.317 189.005 336.113 193.775 342.395C195.467 344.543 197.701 346.075 200.562 346.945C204.594 348.171 205.193 348.069 211.043 344.945C217.147 341.686 217.361 341.681 220.676 343.399C222.593 344.337 225.721 347.135 227.634 349.493C232.613 355.553 235.004 362.887 238.869 385.02C240.639 394.865 242.664 404.574 243.231 406.451C243.552 407.48 243.753 408.453 243.823 409.172Z" fill="url(#paint0_linear_94_66)"/>
<path d="M337.488 55.6898C337.641 57.7289 339.426 63.0356 341.558 67.3988C343.708 71.8966 346.454 78.1633 347.664 81.3547C349.756 86.8916 349.737 87.238 347.603 86.7228C345.757 86.3033 344.47 84.4973 340.898 77.732C336.462 69.2369 336.462 69.2369 333.27 69.0125C328.772 68.7715 326.676 69.4876 324.694 71.9736C321.52 76.2128 321.844 80.9068 325.725 85.0163C328.146 87.5511 328.146 87.5511 324.972 91.7903C320.681 97.8404 320.736 101.611 325.118 105.374C331.228 110.671 336.477 110.391 341.306 104.744C343.826 101.699 343.961 101.68 347.536 103.635C353.263 106.721 367.406 118.756 371.518 124C376.916 131.05 383.695 144.909 385.728 153.409C388.395 163.947 388.69 178.711 388.947 183.803C389.028 185.411 362.966 167.889 361 169C359.853 169.648 375.813 185.209 386.5 192.042C420.646 207.209 408.242 210.324 457.264 227.985C473.62 237.706 510.347 258.399 523.203 269.109L535.675 279.531L520.678 280.812C490.685 283.374 532.663 291.915 515.767 286.12C454.679 265.276 443.488 284.102 510.234 305.386C527.496 310.854 470.747 284.204 493.837 284.773C530.346 285.526 548.145 291.397 567.592 308.846C580.101 320.019 586.614 328.144 608.187 359.096C626.552 385.36 639.329 399.861 653.704 410.625C663.62 418.051 665.062 418.529 667.139 415.754C668.409 414.059 668.487 413.154 667.276 411.887C666.469 411.042 662.761 407.182 658.918 403.342C651.021 395.142 641.512 381.886 635.116 369.758C632.6 365.107 626.071 351.075 620.522 338.619C600.899 294.33 594.713 284.645 573.404 263.755C554.996 245.88 550.712 239.424 548.969 227.172C548.203 221.786 548.397 220.246 550.186 217.857C555.996 209.937 556.462 203.068 551.388 199.268C545.931 195.181 540.143 196.02 536.045 201.493C533.217 205.27 534.963 210.788 541.361 218.106C545.78 223.099 548.488 228.615 548.178 232.233C547.965 236.043 548.023 235.966 544.505 234.896C536.086 232.2 530.86 224.919 529.098 213.013C528.026 205.954 527.833 205.569 525.123 204.863C520.49 203.679 517.741 204.628 516.028 208.037C513.564 212.929 514.62 215.524 520.482 219.071C523.192 220.74 525.325 222.217 525.209 222.371C525.094 222.525 522.21 223.012 518.826 223.365C512.75 224.109 512.558 224.205 511.114 227.575C510.19 229.771 510.093 231.983 510.765 233.329C511.418 234.54 511.994 236.174 512.089 236.847C512.396 239.001 516.375 240.417 519.547 239.545C521.99 238.847 522.951 237.883 525.357 234.03C528.455 228.772 530.724 227.824 533.606 230.704C535.124 232.202 535.086 232.414 529.429 239.486C523.639 246.578 523.6 246.79 524.387 249.905C525.442 253.463 528.978 256.592 533.091 257.507C536.282 258.212 541.513 255.874 545.495 251.998L548.4 249.241L555.779 255.729C586.524 282.603 603.104 304.522 614.143 332.879C617.176 340.685 622.165 356.932 621.397 356.357C621.166 356.184 617.112 351.825 612.385 346.601C563.121 292.867 545.347 276.068 507.892 247.899C476.99 224.758 477.356 224.912 445.487 210.912C424.306 201.546 413.312 195.719 404.396 189.042L397.477 183.861L395.617 174.649C389.673 146.859 393.663 129.516 408.838 117.421C414.147 113.216 414.474 112.138 412.227 107.929C408.271 100.395 400.755 98.7364 394.869 104.193C391.406 107.375 391.174 110.088 393.669 118.453C394.705 121.875 395.318 125.703 395.221 126.954C394.855 129.205 389.679 136.758 388.333 136.953C387.122 137.129 382.206 125.268 381.306 119.901C380.233 113.323 381.121 107.492 384.277 101.194C387.53 94.6073 389.357 93.9302 394.95 97.0358C402.33 101.119 407.157 98.8389 406.065 91.6453C405.012 83.759 399.822 81.5569 394.571 86.6469C391.012 90.1173 389.109 90.7369 388.821 88.7172C388.457 86.159 391.343 83.2672 395.727 81.7383C403.726 79.067 407.285 75.1156 404.538 71.7349C403.77 70.6782 403.078 69.1981 403.175 68.4283C403.368 67.3697 402.599 66.7941 400.004 65.9335C397.044 64.9198 396.448 65.0749 394.255 67.5229C392.889 69.0264 391.137 72.6471 390.27 75.7272C388.498 81.6183 386.652 83.1228 383.808 80.9929C382.117 79.7265 382.368 77.6288 385.236 71.2353C388.451 63.8983 389.607 58.9897 388.608 56.7984C387.226 53.8382 380.614 50.8116 376.769 51.3004C374.019 51.7678 372.827 52.559 370.345 55.8734C365.554 62.2708 366.091 64.5977 373.547 70.6625C379.466 75.576 379.562 75.7682 379.713 80.2123C379.866 82.7325 379.227 89.3523 378.301 94.9146C377.375 100.477 376.41 107.213 376.159 109.792L375.733 114.525L373.331 113.568C366.834 110.869 360.898 101.973 353.852 84.3051L348.611 71.1171L352.19 66.3383C356.173 61.0199 357.252 55.5728 355.351 51.3823C354.449 49.3832 353.699 48.9422 351.104 48.5626C346.894 47.9362 344.645 48.0562 341.376 49.2173C337.703 50.4368 337.202 51.2652 337.488 55.6898Z" fill="url(#paint1_linear_94_66)"/>
</g>
<defs>
<linearGradient id="paint0_linear_94_66" x1="413.817" y1="977.825" x2="602.591" y2="877.028" gradientUnits="userSpaceOnUse">
<stop stop-color="#4F772D"/>
<stop offset="1" stop-color="#90A955"/>
</linearGradient>
<linearGradient id="paint1_linear_94_66" x1="283.317" y1="195.816" x2="388.215" y2="55.7387" gradientUnits="userSpaceOnUse">
<stop stop-color="#4F772D"/>
<stop offset="1" stop-color="#90A955"/>
</linearGradient>
<clipPath id="clip0_94_66">
<rect width="459" height="803" fill="white"/>
</clipPath>
</defs>
</svg>
